G04 #@! TF.GenerationSoftware,KiCad,Pcbnew,6.0.11-2627ca5db0~126~ubuntu22.04.1*
G04 #@! TF.CreationDate,2024-06-10T15:46:39-04:00*
G04 #@! TF.ProjectId,io-board,696f2d62-6f61-4726-942e-6b696361645f,rev?*
G04 #@! TF.SameCoordinates,Original*
G04 #@! TF.FileFunction,Soldermask,Top*
G04 #@! TF.FilePolarity,Negative*
%FSLAX46Y46*%
G04 Gerber Fmt 4.6, Leading zero omitted, Abs format (unit mm)*
G04 Created by KiCad (PCBNEW 6.0.11-2627ca5db0~126~ubuntu22.04.1) date 2024-06-10 15:46:39*
%MOMM*%
%LPD*%
G01*
G04 APERTURE LIST*
G04 Aperture macros list*
%AMRoundRect*
0 Rectangle with rounded corners*
0 $1 Rounding radius*
0 $2 $3 $4 $5 $6 $7 $8 $9 X,Y pos of 4 corners*
0 Add a 4 corners polygon primitive as box body*
4,1,4,$2,$3,$4,$5,$6,$7,$8,$9,$2,$3,0*
0 Add four circle primitives for the rounded corners*
1,1,$1+$1,$2,$3*
1,1,$1+$1,$4,$5*
1,1,$1+$1,$6,$7*
1,1,$1+$1,$8,$9*
0 Add four rect primitives between the rounded corners*
20,1,$1+$1,$2,$3,$4,$5,0*
20,1,$1+$1,$4,$5,$6,$7,0*
20,1,$1+$1,$6,$7,$8,$9,0*
20,1,$1+$1,$8,$9,$2,$3,0*%
%AMFreePoly0*
4,1,22,0.500000,-0.750000,0.000000,-0.750000,0.000000,-0.745033,-0.079941,-0.743568,-0.215256,-0.701293,-0.333266,-0.622738,-0.424486,-0.514219,-0.481581,-0.384460,-0.499164,-0.250000,-0.500000,-0.250000,-0.500000,0.250000,-0.499164,0.250000,-0.499963,0.256109,-0.478152,0.396186,-0.417904,0.524511,-0.324060,0.630769,-0.204165,0.706417,-0.067858,0.745374,0.000000,0.744959,0.000000,0.750000,
0.500000,0.750000,0.500000,-0.750000,0.500000,-0.750000,$1*%
%AMFreePoly1*
4,1,20,0.000000,0.744959,0.073905,0.744508,0.209726,0.703889,0.328688,0.626782,0.421226,0.519385,0.479903,0.390333,0.500000,0.250000,0.500000,-0.250000,0.499851,-0.262216,0.476331,-0.402017,0.414519,-0.529596,0.319384,-0.634700,0.198574,-0.708877,0.061801,-0.746166,0.000000,-0.745033,0.000000,-0.750000,-0.500000,-0.750000,-0.500000,0.750000,0.000000,0.750000,0.000000,0.744959,
0.000000,0.744959,$1*%
G04 Aperture macros list end*
%ADD10FreePoly0,90.000000*%
%ADD11FreePoly1,90.000000*%
%ADD12RoundRect,0.243750X-0.243750X-0.456250X0.243750X-0.456250X0.243750X0.456250X-0.243750X0.456250X0*%
%ADD13RoundRect,0.200000X-0.275000X0.200000X-0.275000X-0.200000X0.275000X-0.200000X0.275000X0.200000X0*%
%ADD14RoundRect,0.140000X-0.170000X0.140000X-0.170000X-0.140000X0.170000X-0.140000X0.170000X0.140000X0*%
%ADD15RoundRect,0.250000X0.250000X2.500000X-0.250000X2.500000X-0.250000X-2.500000X0.250000X-2.500000X0*%
%ADD16RoundRect,0.250000X0.550000X1.250000X-0.550000X1.250000X-0.550000X-1.250000X0.550000X-1.250000X0*%
%ADD17C,5.600000*%
%ADD18RoundRect,0.075000X-0.437500X-0.075000X0.437500X-0.075000X0.437500X0.075000X-0.437500X0.075000X0*%
%ADD19RoundRect,0.075000X-0.075000X-0.437500X0.075000X-0.437500X0.075000X0.437500X-0.075000X0.437500X0*%
%ADD20R,4.250000X4.250000*%
%ADD21C,1.524000*%
%ADD22O,2.900000X3.000000*%
%ADD23C,3.000000*%
%ADD24C,1.701800*%
%ADD25C,3.987800*%
%ADD26R,2.550000X2.500000*%
G04 APERTURE END LIST*
D10*
X116200000Y-93900000D03*
D11*
X116200000Y-92600000D03*
D12*
X118962500Y-102100000D03*
X120837500Y-102100000D03*
D10*
X129200000Y-93900000D03*
D11*
X129200000Y-92600000D03*
D13*
X118700000Y-96875000D03*
X118700000Y-98525000D03*
D10*
X118800000Y-93900000D03*
D11*
X118800000Y-92600000D03*
D13*
X122900000Y-96875000D03*
X122900000Y-98525000D03*
D12*
X128962500Y-102100000D03*
X130837500Y-102100000D03*
D10*
X134400000Y-93900000D03*
D11*
X134400000Y-92600000D03*
D14*
X164250000Y-95270000D03*
X164250000Y-96230000D03*
D10*
X126600000Y-93900000D03*
D11*
X126600000Y-92600000D03*
D10*
X121400000Y-93900000D03*
D11*
X121400000Y-92600000D03*
D12*
X143962500Y-102100000D03*
X145837500Y-102100000D03*
D10*
X124000000Y-93900000D03*
D11*
X124000000Y-92600000D03*
D13*
X125000000Y-96850000D03*
X125000000Y-98500000D03*
X129300000Y-96850000D03*
X129300000Y-98500000D03*
D12*
X108962500Y-102100000D03*
X110837500Y-102100000D03*
D15*
X157750000Y-93500000D03*
X155750000Y-93500000D03*
X153750000Y-93500000D03*
X151750000Y-93500000D03*
X149750000Y-93500000D03*
D16*
X160150000Y-95750000D03*
X147350000Y-95750000D03*
D13*
X120800000Y-96875000D03*
X120800000Y-98525000D03*
X131500000Y-96850000D03*
X131500000Y-98500000D03*
D12*
X113962500Y-102100000D03*
X115837500Y-102100000D03*
X123962500Y-102100000D03*
X125837500Y-102100000D03*
D13*
X116500000Y-96875000D03*
X116500000Y-98525000D03*
D12*
X133962500Y-102100000D03*
X135837500Y-102100000D03*
D17*
X194372598Y-99740000D03*
D18*
X165615098Y-92680000D03*
X165615098Y-93330000D03*
X165615098Y-93980000D03*
X165615098Y-94630000D03*
X165615098Y-95280000D03*
X165615098Y-95930000D03*
X165615098Y-96580000D03*
D19*
X166502598Y-97467500D03*
X167152598Y-97467500D03*
X167802598Y-97467500D03*
X168452598Y-97467500D03*
X169102598Y-97467500D03*
X169752598Y-97467500D03*
X170402598Y-97467500D03*
D18*
X171290098Y-96580000D03*
X171290098Y-95930000D03*
X171290098Y-95280000D03*
X171290098Y-94630000D03*
X171290098Y-93980000D03*
X171290098Y-93330000D03*
X171290098Y-92680000D03*
D19*
X170402598Y-91792500D03*
X169752598Y-91792500D03*
X169102598Y-91792500D03*
X168452598Y-91792500D03*
X167802598Y-91792500D03*
X167152598Y-91792500D03*
X166502598Y-91792500D03*
D20*
X168452598Y-94630000D03*
D12*
X138962500Y-102100000D03*
X140837500Y-102100000D03*
D10*
X131800000Y-93900000D03*
D11*
X131800000Y-92600000D03*
D13*
X127100000Y-96850000D03*
X127100000Y-98500000D03*
D21*
X186800000Y-93550000D03*
X191800000Y-93550000D03*
X189300000Y-93550000D03*
X186800000Y-79050000D03*
X191800000Y-79050000D03*
D22*
X182700000Y-86050000D03*
X195900000Y-86050000D03*
D17*
X101372598Y-86230000D03*
D23*
X155212598Y-83670000D03*
D24*
X156482598Y-86210000D03*
X146322598Y-86210000D03*
D25*
X151402598Y-86210000D03*
D23*
X148862598Y-81130000D03*
D26*
X145112598Y-81130000D03*
X158962598Y-83670000D03*
D23*
X136012598Y-83670000D03*
D25*
X132202598Y-86210000D03*
D24*
X127122598Y-86210000D03*
X137282598Y-86210000D03*
D23*
X129662598Y-81130000D03*
D26*
X125912598Y-81130000D03*
X139762598Y-83670000D03*
D24*
X165532598Y-86210000D03*
D23*
X174422598Y-83670000D03*
D24*
X175692598Y-86210000D03*
D23*
X168072598Y-81130000D03*
D25*
X170612598Y-86210000D03*
D26*
X164322598Y-81130000D03*
X178172598Y-83670000D03*
D24*
X118102598Y-86209999D03*
D25*
X113022598Y-86209999D03*
D24*
X107942598Y-86209999D03*
D23*
X110482598Y-81129999D03*
X116832598Y-83669999D03*
D26*
X106732598Y-81129999D03*
X120582598Y-83669999D03*
M02*
