M48
; DRILL file {KiCad 6.0.11-2627ca5db0~126~ubuntu22.04.1} date Mon 10 Jun 2024 03:46:37 PM
; FORMAT={-:-/ absolute / metric / decimal}
; #@! TF.CreationDate,2024-06-10T15:46:37-04:00
; #@! TF.GenerationSoftware,Kicad,Pcbnew,6.0.11-2627ca5db0~126~ubuntu22.04.1
; #@! TF.FileFunction,Plated,1,2,PTH
FMAT,2
METRIC
; #@! TA.AperFunction,Plated,PTH,ViaDrill
T1C0.400
; #@! TA.AperFunction,Plated,PTH,ComponentDrill
T2C1.000
; #@! TA.AperFunction,Plated,PTH,ComponentDrill
T3C2.100
; #@! TA.AperFunction,Plated,PTH,ComponentDrill
T4C3.200
%
G90
G05
T1
X107.5Y-102.2
X112.4Y-102.2
X116.3Y-90.5
X117.5Y-102.2
X118.8Y-90.5
X120.583Y-85.81
X121.4Y-90.5
X122.5Y-102.2
X124.0Y-91.2
X126.596Y-91.21
X127.5Y-102.2
X132.5Y-102.2
X136.8Y-92.0
X136.8Y-93.3
X137.5Y-102.2
X138.2Y-92.0
X139.813Y-85.81
X142.6Y-102.2
X153.517Y-98.665
X154.673Y-99.989
X158.073Y-97.41
X158.923Y-92.99
X159.003Y-85.86
X163.4Y-96.2
X164.273Y-94.3
X164.292Y-92.345
X164.341Y-93.323
X166.0Y-98.7
X167.06Y-98.76
X168.384Y-89.035
X168.453Y-94.63
X169.1Y-101.0
X169.103Y-98.897
X169.5Y-89.0
X170.6Y-89.0
X171.173Y-99.01
X171.173Y-100.379
X171.6Y-89.0
X172.7Y-90.6
X173.7Y-99.7
X174.4Y-98.8
X178.213Y-85.7
T2
X186.8Y-79.05
X186.8Y-93.55
X189.3Y-93.55
X191.8Y-79.05
X191.8Y-93.55
T4
X101.373Y-86.23
X194.373Y-99.74
T3
X182.7Y-86.0G85X182.7Y-86.1
G05
X195.9Y-86.0G85X195.9Y-86.1
G05
T0
M30
