G04 #@! TF.GenerationSoftware,KiCad,Pcbnew,6.0.11-2627ca5db0~126~ubuntu22.04.1*
G04 #@! TF.CreationDate,2024-06-10T15:46:39-04:00*
G04 #@! TF.ProjectId,io-board,696f2d62-6f61-4726-942e-6b696361645f,rev?*
G04 #@! TF.SameCoordinates,Original*
G04 #@! TF.FileFunction,Paste,Top*
G04 #@! TF.FilePolarity,Positive*
%FSLAX46Y46*%
G04 Gerber Fmt 4.6, Leading zero omitted, Abs format (unit mm)*
G04 Created by KiCad (PCBNEW 6.0.11-2627ca5db0~126~ubuntu22.04.1) date 2024-06-10 15:46:39*
%MOMM*%
%LPD*%
G01*
G04 APERTURE LIST*
G04 Aperture macros list*
%AMRoundRect*
0 Rectangle with rounded corners*
0 $1 Rounding radius*
0 $2 $3 $4 $5 $6 $7 $8 $9 X,Y pos of 4 corners*
0 Add a 4 corners polygon primitive as box body*
4,1,4,$2,$3,$4,$5,$6,$7,$8,$9,$2,$3,0*
0 Add four circle primitives for the rounded corners*
1,1,$1+$1,$2,$3*
1,1,$1+$1,$4,$5*
1,1,$1+$1,$6,$7*
1,1,$1+$1,$8,$9*
0 Add four rect primitives between the rounded corners*
20,1,$1+$1,$2,$3,$4,$5,0*
20,1,$1+$1,$4,$5,$6,$7,0*
20,1,$1+$1,$6,$7,$8,$9,0*
20,1,$1+$1,$8,$9,$2,$3,0*%
G04 Aperture macros list end*
%ADD10RoundRect,0.243750X-0.243750X-0.456250X0.243750X-0.456250X0.243750X0.456250X-0.243750X0.456250X0*%
%ADD11RoundRect,0.200000X-0.275000X0.200000X-0.275000X-0.200000X0.275000X-0.200000X0.275000X0.200000X0*%
%ADD12RoundRect,0.140000X-0.170000X0.140000X-0.170000X-0.140000X0.170000X-0.140000X0.170000X0.140000X0*%
%ADD13RoundRect,0.250000X0.250000X2.500000X-0.250000X2.500000X-0.250000X-2.500000X0.250000X-2.500000X0*%
%ADD14RoundRect,0.250000X0.550000X1.250000X-0.550000X1.250000X-0.550000X-1.250000X0.550000X-1.250000X0*%
%ADD15RoundRect,0.250000X-0.320000X-0.320000X0.320000X-0.320000X0.320000X0.320000X-0.320000X0.320000X0*%
%ADD16RoundRect,0.075000X-0.437500X-0.075000X0.437500X-0.075000X0.437500X0.075000X-0.437500X0.075000X0*%
%ADD17RoundRect,0.075000X-0.075000X-0.437500X0.075000X-0.437500X0.075000X0.437500X-0.075000X0.437500X0*%
%ADD18R,2.550000X2.500000*%
G04 APERTURE END LIST*
D10*
X118962500Y-102100000D03*
X120837500Y-102100000D03*
D11*
X118700000Y-96875000D03*
X118700000Y-98525000D03*
X122900000Y-96875000D03*
X122900000Y-98525000D03*
D10*
X128962500Y-102100000D03*
X130837500Y-102100000D03*
D12*
X164250000Y-95270000D03*
X164250000Y-96230000D03*
D10*
X143962500Y-102100000D03*
X145837500Y-102100000D03*
D11*
X125000000Y-96850000D03*
X125000000Y-98500000D03*
X129300000Y-96850000D03*
X129300000Y-98500000D03*
D10*
X108962500Y-102100000D03*
X110837500Y-102100000D03*
D13*
X157750000Y-93500000D03*
X155750000Y-93500000D03*
X153750000Y-93500000D03*
X151750000Y-93500000D03*
X149750000Y-93500000D03*
D14*
X160150000Y-95750000D03*
X147350000Y-95750000D03*
D11*
X120800000Y-96875000D03*
X120800000Y-98525000D03*
X131500000Y-96850000D03*
X131500000Y-98500000D03*
D10*
X113962500Y-102100000D03*
X115837500Y-102100000D03*
X123962500Y-102100000D03*
X125837500Y-102100000D03*
D11*
X116500000Y-96875000D03*
X116500000Y-98525000D03*
D10*
X133962500Y-102100000D03*
X135837500Y-102100000D03*
D15*
X168452598Y-96050000D03*
X168452598Y-93210000D03*
X168452598Y-94630000D03*
X167032598Y-94630000D03*
X167032598Y-93210000D03*
X169872598Y-93210000D03*
X169872598Y-96050000D03*
X169872598Y-94630000D03*
X167032598Y-96050000D03*
D16*
X165615098Y-92680000D03*
X165615098Y-93330000D03*
X165615098Y-93980000D03*
X165615098Y-94630000D03*
X165615098Y-95280000D03*
X165615098Y-95930000D03*
X165615098Y-96580000D03*
D17*
X166502598Y-97467500D03*
X167152598Y-97467500D03*
X167802598Y-97467500D03*
X168452598Y-97467500D03*
X169102598Y-97467500D03*
X169752598Y-97467500D03*
X170402598Y-97467500D03*
D16*
X171290098Y-96580000D03*
X171290098Y-95930000D03*
X171290098Y-95280000D03*
X171290098Y-94630000D03*
X171290098Y-93980000D03*
X171290098Y-93330000D03*
X171290098Y-92680000D03*
D17*
X170402598Y-91792500D03*
X169752598Y-91792500D03*
X169102598Y-91792500D03*
X168452598Y-91792500D03*
X167802598Y-91792500D03*
X167152598Y-91792500D03*
X166502598Y-91792500D03*
D10*
X138962500Y-102100000D03*
X140837500Y-102100000D03*
D11*
X127100000Y-96850000D03*
X127100000Y-98500000D03*
D18*
X145112598Y-81130000D03*
X158962598Y-83670000D03*
X125912598Y-81130000D03*
X139762598Y-83670000D03*
X164322598Y-81130000D03*
X178172598Y-83670000D03*
X106732598Y-81129999D03*
X120582598Y-83669999D03*
M02*
