%TF.GenerationSoftware,KiCad,Pcbnew,6.0.11-2627ca5db0~126~ubuntu22.04.1*%
%TF.CreationDate,2024-06-10T15:46:38-04:00*%
%TF.ProjectId,io-board,696f2d62-6f61-4726-942e-6b696361645f,rev?*%
%TF.SameCoordinates,Original*%
%TF.FileFunction,Drillmap*%
%TF.FilePolarity,Positive*%
%FSLAX45Y45*%
G04 Gerber Fmt 4.5, Leading zero omitted, Abs format (unit mm)*
G04 Created by KiCad (PCBNEW 6.0.11-2627ca5db0~126~ubuntu22.04.1) date 2024-06-10 15:46:38*
%MOMM*%
%LPD*%
G01*
G04 APERTURE LIST*
%ADD10C,0.100000*%
%ADD11C,0.200000*%
%ADD12C,0.040000*%
%ADD13C,0.210000*%
%ADD14C,0.320000*%
G04 APERTURE END LIST*
D10*
X19787260Y-7121000D02*
G75*
G03*
X19587260Y-6921000I-200000J0D01*
G01*
X9787260Y-7121000D02*
X9787260Y-10121000D01*
X9987260Y-6921000D02*
X19587260Y-6921000D01*
X19787260Y-10071000D02*
X19787260Y-7121000D01*
X9787260Y-10121000D02*
G75*
G03*
X9987260Y-10321000I200000J0D01*
G01*
X9987260Y-10321000D02*
X19537260Y-10321000D01*
X19537260Y-10321000D02*
G75*
G03*
X19787260Y-10071000I0J250000D01*
G01*
X9987260Y-6921000D02*
G75*
G03*
X9787260Y-7121000I0J-200000D01*
G01*
D11*
D12*
X10730000Y-10200000D02*
X10770000Y-10240000D01*
X10770000Y-10200000D02*
X10730000Y-10240000D01*
X11220000Y-10200000D02*
X11260000Y-10240000D01*
X11260000Y-10200000D02*
X11220000Y-10240000D01*
X11610000Y-9030000D02*
X11650000Y-9070000D01*
X11650000Y-9030000D02*
X11610000Y-9070000D01*
X11730000Y-10200000D02*
X11770000Y-10240000D01*
X11770000Y-10200000D02*
X11730000Y-10240000D01*
X11860000Y-9030000D02*
X11900000Y-9070000D01*
X11900000Y-9030000D02*
X11860000Y-9070000D01*
X12038260Y-8561000D02*
X12078260Y-8601000D01*
X12078260Y-8561000D02*
X12038260Y-8601000D01*
X12120000Y-9030000D02*
X12160000Y-9070000D01*
X12160000Y-9030000D02*
X12120000Y-9070000D01*
X12230000Y-10200000D02*
X12270000Y-10240000D01*
X12270000Y-10200000D02*
X12230000Y-10240000D01*
X12380000Y-9100000D02*
X12420000Y-9140000D01*
X12420000Y-9100000D02*
X12380000Y-9140000D01*
X12639622Y-9101002D02*
X12679622Y-9141002D01*
X12679622Y-9101002D02*
X12639622Y-9141002D01*
X12730000Y-10200000D02*
X12770000Y-10240000D01*
X12770000Y-10200000D02*
X12730000Y-10240000D01*
X13230000Y-10200000D02*
X13270000Y-10240000D01*
X13270000Y-10200000D02*
X13230000Y-10240000D01*
X13660000Y-9180000D02*
X13700000Y-9220000D01*
X13700000Y-9180000D02*
X13660000Y-9220000D01*
X13660000Y-9310000D02*
X13700000Y-9350000D01*
X13700000Y-9310000D02*
X13660000Y-9350000D01*
X13730000Y-10200000D02*
X13770000Y-10240000D01*
X13770000Y-10200000D02*
X13730000Y-10240000D01*
X13800000Y-9180000D02*
X13840000Y-9220000D01*
X13840000Y-9180000D02*
X13800000Y-9220000D01*
X13961260Y-8561000D02*
X14001260Y-8601000D01*
X14001260Y-8561000D02*
X13961260Y-8601000D01*
X14240000Y-10200000D02*
X14280000Y-10240000D01*
X14280000Y-10200000D02*
X14240000Y-10240000D01*
X15331712Y-9846548D02*
X15371712Y-9886548D01*
X15371712Y-9846548D02*
X15331712Y-9886548D01*
X15447260Y-9978950D02*
X15487260Y-10018950D01*
X15487260Y-9978950D02*
X15447260Y-10018950D01*
X15787260Y-9721000D02*
X15827260Y-9761000D01*
X15827260Y-9721000D02*
X15787260Y-9761000D01*
X15872260Y-9279000D02*
X15912260Y-9319000D01*
X15912260Y-9279000D02*
X15872260Y-9319000D01*
X15880260Y-8566000D02*
X15920260Y-8606000D01*
X15920260Y-8566000D02*
X15880260Y-8606000D01*
X16320000Y-9600000D02*
X16360000Y-9640000D01*
X16360000Y-9600000D02*
X16320000Y-9640000D01*
X16407260Y-9410000D02*
X16447260Y-9450000D01*
X16447260Y-9410000D02*
X16407260Y-9450000D01*
X16409218Y-9214466D02*
X16449218Y-9254466D01*
X16449218Y-9214466D02*
X16409218Y-9254466D01*
X16414142Y-9312292D02*
X16454142Y-9352292D01*
X16454142Y-9312292D02*
X16414142Y-9352292D01*
X16580000Y-9850000D02*
X16620000Y-9890000D01*
X16620000Y-9850000D02*
X16580000Y-9890000D01*
X16686025Y-9856025D02*
X16726025Y-9896025D01*
X16726025Y-9856025D02*
X16686025Y-9896025D01*
X16818381Y-8883467D02*
X16858381Y-8923467D01*
X16858381Y-8883467D02*
X16818381Y-8923467D01*
X16825260Y-9443000D02*
X16865260Y-9483000D01*
X16865260Y-9443000D02*
X16825260Y-9483000D01*
X16890000Y-10080000D02*
X16930000Y-10120000D01*
X16930000Y-10080000D02*
X16890000Y-10120000D01*
X16890260Y-9869740D02*
X16930260Y-9909740D01*
X16930260Y-9869740D02*
X16890260Y-9909740D01*
X16930000Y-8880000D02*
X16970000Y-8920000D01*
X16970000Y-8880000D02*
X16930000Y-8920000D01*
X17040000Y-8880000D02*
X17080000Y-8920000D01*
X17080000Y-8880000D02*
X17040000Y-8920000D01*
X17097260Y-9881000D02*
X17137260Y-9921000D01*
X17137260Y-9881000D02*
X17097260Y-9921000D01*
X17097260Y-10017950D02*
X17137260Y-10057950D01*
X17137260Y-10017950D02*
X17097260Y-10057950D01*
X17140000Y-8880000D02*
X17180000Y-8920000D01*
X17180000Y-8880000D02*
X17140000Y-8920000D01*
X17250000Y-9040000D02*
X17290000Y-9080000D01*
X17290000Y-9040000D02*
X17250000Y-9080000D01*
X17350000Y-9950000D02*
X17390000Y-9990000D01*
X17390000Y-9950000D02*
X17350000Y-9990000D01*
X17420000Y-9860000D02*
X17460000Y-9900000D01*
X17460000Y-9860000D02*
X17420000Y-9900000D01*
X17801260Y-8550000D02*
X17841260Y-8590000D01*
X17841260Y-8550000D02*
X17801260Y-8590000D01*
D10*
X18730000Y-7905000D02*
G75*
G03*
X18730000Y-7905000I-50000J0D01*
G01*
X18730000Y-9355000D02*
G75*
G03*
X18730000Y-9355000I-50000J0D01*
G01*
X18980000Y-9355000D02*
G75*
G03*
X18980000Y-9355000I-50000J0D01*
G01*
X19230000Y-7905000D02*
G75*
G03*
X19230000Y-7905000I-50000J0D01*
G01*
X19230000Y-9355000D02*
G75*
G03*
X19230000Y-9355000I-50000J0D01*
G01*
D13*
X18270000Y-8500000D02*
X18270000Y-8710000D01*
X18165000Y-8605000D02*
X18375000Y-8605000D01*
D11*
X18165000Y-8600000D02*
X18165000Y-8610000D01*
X18375000Y-8600000D02*
X18375000Y-8610000D01*
X18165000Y-8610000D02*
G75*
G03*
X18375000Y-8610000I105000J0D01*
G01*
X18375000Y-8600000D02*
G75*
G03*
X18165000Y-8600000I-105000J0D01*
G01*
D13*
X19590000Y-8500000D02*
X19590000Y-8710000D01*
X19485000Y-8605000D02*
X19695000Y-8605000D01*
D11*
X19485000Y-8600000D02*
X19485000Y-8610000D01*
X19695000Y-8600000D02*
X19695000Y-8610000D01*
X19485000Y-8610000D02*
G75*
G03*
X19695000Y-8610000I105000J0D01*
G01*
X19695000Y-8600000D02*
G75*
G03*
X19485000Y-8600000I-105000J0D01*
G01*
D14*
X10250398Y-8736138D02*
X10250398Y-8509862D01*
X10024122Y-8509862D01*
X10024122Y-8736138D01*
X10250398Y-8736138D01*
X19550398Y-10087138D02*
X19550398Y-9860862D01*
X19324122Y-9860862D01*
X19324122Y-10087138D01*
X19550398Y-10087138D01*
D11*
X10039879Y-10636476D02*
X10039879Y-10436476D01*
X10087498Y-10436476D01*
X10116069Y-10446000D01*
X10135117Y-10465048D01*
X10144641Y-10484095D01*
X10154165Y-10522190D01*
X10154165Y-10550762D01*
X10144641Y-10588857D01*
X10135117Y-10607905D01*
X10116069Y-10626952D01*
X10087498Y-10636476D01*
X10039879Y-10636476D01*
X10239879Y-10636476D02*
X10239879Y-10503143D01*
X10239879Y-10541238D02*
X10249403Y-10522190D01*
X10258926Y-10512667D01*
X10277974Y-10503143D01*
X10297022Y-10503143D01*
X10363688Y-10636476D02*
X10363688Y-10503143D01*
X10363688Y-10436476D02*
X10354165Y-10446000D01*
X10363688Y-10455524D01*
X10373212Y-10446000D01*
X10363688Y-10436476D01*
X10363688Y-10455524D01*
X10487498Y-10636476D02*
X10468450Y-10626952D01*
X10458926Y-10607905D01*
X10458926Y-10436476D01*
X10592260Y-10636476D02*
X10573212Y-10626952D01*
X10563688Y-10607905D01*
X10563688Y-10436476D01*
X10820831Y-10636476D02*
X10820831Y-10436476D01*
X10887498Y-10579333D01*
X10954165Y-10436476D01*
X10954165Y-10636476D01*
X11135117Y-10636476D02*
X11135117Y-10531714D01*
X11125593Y-10512667D01*
X11106546Y-10503143D01*
X11068450Y-10503143D01*
X11049403Y-10512667D01*
X11135117Y-10626952D02*
X11116069Y-10636476D01*
X11068450Y-10636476D01*
X11049403Y-10626952D01*
X11039879Y-10607905D01*
X11039879Y-10588857D01*
X11049403Y-10569810D01*
X11068450Y-10560286D01*
X11116069Y-10560286D01*
X11135117Y-10550762D01*
X11230355Y-10503143D02*
X11230355Y-10703143D01*
X11230355Y-10512667D02*
X11249403Y-10503143D01*
X11287498Y-10503143D01*
X11306545Y-10512667D01*
X11316069Y-10522190D01*
X11325593Y-10541238D01*
X11325593Y-10598381D01*
X11316069Y-10617429D01*
X11306545Y-10626952D01*
X11287498Y-10636476D01*
X11249403Y-10636476D01*
X11230355Y-10626952D01*
X11411307Y-10617429D02*
X11420831Y-10626952D01*
X11411307Y-10636476D01*
X11401784Y-10626952D01*
X11411307Y-10617429D01*
X11411307Y-10636476D01*
X11411307Y-10512667D02*
X11420831Y-10522190D01*
X11411307Y-10531714D01*
X11401784Y-10522190D01*
X11411307Y-10512667D01*
X11411307Y-10531714D01*
D12*
X9742260Y-10946000D02*
X9782260Y-10986000D01*
X9782260Y-10946000D02*
X9742260Y-10986000D01*
D11*
X10077974Y-10856476D02*
X10097022Y-10856476D01*
X10116069Y-10866000D01*
X10125593Y-10875524D01*
X10135117Y-10894571D01*
X10144641Y-10932667D01*
X10144641Y-10980286D01*
X10135117Y-11018381D01*
X10125593Y-11037429D01*
X10116069Y-11046952D01*
X10097022Y-11056476D01*
X10077974Y-11056476D01*
X10058926Y-11046952D01*
X10049403Y-11037429D01*
X10039879Y-11018381D01*
X10030355Y-10980286D01*
X10030355Y-10932667D01*
X10039879Y-10894571D01*
X10049403Y-10875524D01*
X10058926Y-10866000D01*
X10077974Y-10856476D01*
X10230355Y-11037429D02*
X10239879Y-11046952D01*
X10230355Y-11056476D01*
X10220831Y-11046952D01*
X10230355Y-11037429D01*
X10230355Y-11056476D01*
X10411307Y-10923143D02*
X10411307Y-11056476D01*
X10363688Y-10846952D02*
X10316069Y-10989810D01*
X10439879Y-10989810D01*
X10554165Y-10856476D02*
X10573212Y-10856476D01*
X10592260Y-10866000D01*
X10601784Y-10875524D01*
X10611307Y-10894571D01*
X10620831Y-10932667D01*
X10620831Y-10980286D01*
X10611307Y-11018381D01*
X10601784Y-11037429D01*
X10592260Y-11046952D01*
X10573212Y-11056476D01*
X10554165Y-11056476D01*
X10535117Y-11046952D01*
X10525593Y-11037429D01*
X10516069Y-11018381D01*
X10506546Y-10980286D01*
X10506546Y-10932667D01*
X10516069Y-10894571D01*
X10525593Y-10875524D01*
X10535117Y-10866000D01*
X10554165Y-10856476D01*
X10744641Y-10856476D02*
X10763688Y-10856476D01*
X10782736Y-10866000D01*
X10792260Y-10875524D01*
X10801784Y-10894571D01*
X10811307Y-10932667D01*
X10811307Y-10980286D01*
X10801784Y-11018381D01*
X10792260Y-11037429D01*
X10782736Y-11046952D01*
X10763688Y-11056476D01*
X10744641Y-11056476D01*
X10725593Y-11046952D01*
X10716069Y-11037429D01*
X10706546Y-11018381D01*
X10697022Y-10980286D01*
X10697022Y-10932667D01*
X10706546Y-10894571D01*
X10716069Y-10875524D01*
X10725593Y-10866000D01*
X10744641Y-10856476D01*
X10897022Y-11056476D02*
X10897022Y-10923143D01*
X10897022Y-10942190D02*
X10906546Y-10932667D01*
X10925593Y-10923143D01*
X10954165Y-10923143D01*
X10973212Y-10932667D01*
X10982736Y-10951714D01*
X10982736Y-11056476D01*
X10982736Y-10951714D02*
X10992260Y-10932667D01*
X11011307Y-10923143D01*
X11039879Y-10923143D01*
X11058926Y-10932667D01*
X11068450Y-10951714D01*
X11068450Y-11056476D01*
X11163688Y-11056476D02*
X11163688Y-10923143D01*
X11163688Y-10942190D02*
X11173212Y-10932667D01*
X11192260Y-10923143D01*
X11220831Y-10923143D01*
X11239879Y-10932667D01*
X11249403Y-10951714D01*
X11249403Y-11056476D01*
X11249403Y-10951714D02*
X11258926Y-10932667D01*
X11277974Y-10923143D01*
X11306545Y-10923143D01*
X11325593Y-10932667D01*
X11335117Y-10951714D01*
X11335117Y-11056476D01*
X11725593Y-10846952D02*
X11554164Y-11104095D01*
X11982736Y-10856476D02*
X12001784Y-10856476D01*
X12020831Y-10866000D01*
X12030355Y-10875524D01*
X12039879Y-10894571D01*
X12049403Y-10932667D01*
X12049403Y-10980286D01*
X12039879Y-11018381D01*
X12030355Y-11037429D01*
X12020831Y-11046952D01*
X12001784Y-11056476D01*
X11982736Y-11056476D01*
X11963688Y-11046952D01*
X11954164Y-11037429D01*
X11944641Y-11018381D01*
X11935117Y-10980286D01*
X11935117Y-10932667D01*
X11944641Y-10894571D01*
X11954164Y-10875524D01*
X11963688Y-10866000D01*
X11982736Y-10856476D01*
X12135117Y-11037429D02*
X12144641Y-11046952D01*
X12135117Y-11056476D01*
X12125593Y-11046952D01*
X12135117Y-11037429D01*
X12135117Y-11056476D01*
X12268450Y-10856476D02*
X12287498Y-10856476D01*
X12306545Y-10866000D01*
X12316069Y-10875524D01*
X12325593Y-10894571D01*
X12335117Y-10932667D01*
X12335117Y-10980286D01*
X12325593Y-11018381D01*
X12316069Y-11037429D01*
X12306545Y-11046952D01*
X12287498Y-11056476D01*
X12268450Y-11056476D01*
X12249403Y-11046952D01*
X12239879Y-11037429D01*
X12230355Y-11018381D01*
X12220831Y-10980286D01*
X12220831Y-10932667D01*
X12230355Y-10894571D01*
X12239879Y-10875524D01*
X12249403Y-10866000D01*
X12268450Y-10856476D01*
X12525593Y-11056476D02*
X12411307Y-11056476D01*
X12468450Y-11056476D02*
X12468450Y-10856476D01*
X12449403Y-10885048D01*
X12430355Y-10904095D01*
X12411307Y-10913619D01*
X12706545Y-10856476D02*
X12611307Y-10856476D01*
X12601784Y-10951714D01*
X12611307Y-10942190D01*
X12630355Y-10932667D01*
X12677974Y-10932667D01*
X12697022Y-10942190D01*
X12706545Y-10951714D01*
X12716069Y-10970762D01*
X12716069Y-11018381D01*
X12706545Y-11037429D01*
X12697022Y-11046952D01*
X12677974Y-11056476D01*
X12630355Y-11056476D01*
X12611307Y-11046952D01*
X12601784Y-11037429D01*
X12782736Y-10856476D02*
X12916069Y-10856476D01*
X12830355Y-11056476D01*
X12982736Y-10856476D02*
X12982736Y-10894571D01*
X13058926Y-10856476D02*
X13058926Y-10894571D01*
X13354164Y-11132667D02*
X13344641Y-11123143D01*
X13325593Y-11094571D01*
X13316069Y-11075524D01*
X13306545Y-11046952D01*
X13297022Y-10999333D01*
X13297022Y-10961238D01*
X13306545Y-10913619D01*
X13316069Y-10885048D01*
X13325593Y-10866000D01*
X13344641Y-10837429D01*
X13354164Y-10827905D01*
X13516069Y-10923143D02*
X13516069Y-11056476D01*
X13468450Y-10846952D02*
X13420831Y-10989810D01*
X13544641Y-10989810D01*
X13611307Y-10875524D02*
X13620831Y-10866000D01*
X13639879Y-10856476D01*
X13687498Y-10856476D01*
X13706545Y-10866000D01*
X13716069Y-10875524D01*
X13725593Y-10894571D01*
X13725593Y-10913619D01*
X13716069Y-10942190D01*
X13601784Y-11056476D01*
X13725593Y-11056476D01*
X13963688Y-11056476D02*
X13963688Y-10856476D01*
X14049403Y-11056476D02*
X14049403Y-10951714D01*
X14039879Y-10932667D01*
X14020831Y-10923143D01*
X13992260Y-10923143D01*
X13973212Y-10932667D01*
X13963688Y-10942190D01*
X14173212Y-11056476D02*
X14154164Y-11046952D01*
X14144641Y-11037429D01*
X14135117Y-11018381D01*
X14135117Y-10961238D01*
X14144641Y-10942190D01*
X14154164Y-10932667D01*
X14173212Y-10923143D01*
X14201784Y-10923143D01*
X14220831Y-10932667D01*
X14230355Y-10942190D01*
X14239879Y-10961238D01*
X14239879Y-11018381D01*
X14230355Y-11037429D01*
X14220831Y-11046952D01*
X14201784Y-11056476D01*
X14173212Y-11056476D01*
X14354164Y-11056476D02*
X14335117Y-11046952D01*
X14325593Y-11027905D01*
X14325593Y-10856476D01*
X14506545Y-11046952D02*
X14487498Y-11056476D01*
X14449403Y-11056476D01*
X14430355Y-11046952D01*
X14420831Y-11027905D01*
X14420831Y-10951714D01*
X14430355Y-10932667D01*
X14449403Y-10923143D01*
X14487498Y-10923143D01*
X14506545Y-10932667D01*
X14516069Y-10951714D01*
X14516069Y-10970762D01*
X14420831Y-10989810D01*
X14592260Y-11046952D02*
X14611307Y-11056476D01*
X14649403Y-11056476D01*
X14668450Y-11046952D01*
X14677974Y-11027905D01*
X14677974Y-11018381D01*
X14668450Y-10999333D01*
X14649403Y-10989810D01*
X14620831Y-10989810D01*
X14601784Y-10980286D01*
X14592260Y-10961238D01*
X14592260Y-10951714D01*
X14601784Y-10932667D01*
X14620831Y-10923143D01*
X14649403Y-10923143D01*
X14668450Y-10932667D01*
X14744641Y-11132667D02*
X14754164Y-11123143D01*
X14773212Y-11094571D01*
X14782736Y-11075524D01*
X14792260Y-11046952D01*
X14801784Y-10999333D01*
X14801784Y-10961238D01*
X14792260Y-10913619D01*
X14782736Y-10885048D01*
X14773212Y-10866000D01*
X14754164Y-10837429D01*
X14744641Y-10827905D01*
D10*
X9782260Y-11230000D02*
G75*
G03*
X9782260Y-11230000I-50000J0D01*
G01*
D11*
X10144641Y-11320476D02*
X10030355Y-11320476D01*
X10087498Y-11320476D02*
X10087498Y-11120476D01*
X10068450Y-11149048D01*
X10049403Y-11168095D01*
X10030355Y-11177619D01*
X10230355Y-11301428D02*
X10239879Y-11310952D01*
X10230355Y-11320476D01*
X10220831Y-11310952D01*
X10230355Y-11301428D01*
X10230355Y-11320476D01*
X10363688Y-11120476D02*
X10382736Y-11120476D01*
X10401784Y-11130000D01*
X10411307Y-11139524D01*
X10420831Y-11158571D01*
X10430355Y-11196667D01*
X10430355Y-11244286D01*
X10420831Y-11282381D01*
X10411307Y-11301428D01*
X10401784Y-11310952D01*
X10382736Y-11320476D01*
X10363688Y-11320476D01*
X10344641Y-11310952D01*
X10335117Y-11301428D01*
X10325593Y-11282381D01*
X10316069Y-11244286D01*
X10316069Y-11196667D01*
X10325593Y-11158571D01*
X10335117Y-11139524D01*
X10344641Y-11130000D01*
X10363688Y-11120476D01*
X10554165Y-11120476D02*
X10573212Y-11120476D01*
X10592260Y-11130000D01*
X10601784Y-11139524D01*
X10611307Y-11158571D01*
X10620831Y-11196667D01*
X10620831Y-11244286D01*
X10611307Y-11282381D01*
X10601784Y-11301428D01*
X10592260Y-11310952D01*
X10573212Y-11320476D01*
X10554165Y-11320476D01*
X10535117Y-11310952D01*
X10525593Y-11301428D01*
X10516069Y-11282381D01*
X10506546Y-11244286D01*
X10506546Y-11196667D01*
X10516069Y-11158571D01*
X10525593Y-11139524D01*
X10535117Y-11130000D01*
X10554165Y-11120476D01*
X10744641Y-11120476D02*
X10763688Y-11120476D01*
X10782736Y-11130000D01*
X10792260Y-11139524D01*
X10801784Y-11158571D01*
X10811307Y-11196667D01*
X10811307Y-11244286D01*
X10801784Y-11282381D01*
X10792260Y-11301428D01*
X10782736Y-11310952D01*
X10763688Y-11320476D01*
X10744641Y-11320476D01*
X10725593Y-11310952D01*
X10716069Y-11301428D01*
X10706546Y-11282381D01*
X10697022Y-11244286D01*
X10697022Y-11196667D01*
X10706546Y-11158571D01*
X10716069Y-11139524D01*
X10725593Y-11130000D01*
X10744641Y-11120476D01*
X10897022Y-11320476D02*
X10897022Y-11187143D01*
X10897022Y-11206190D02*
X10906546Y-11196667D01*
X10925593Y-11187143D01*
X10954165Y-11187143D01*
X10973212Y-11196667D01*
X10982736Y-11215714D01*
X10982736Y-11320476D01*
X10982736Y-11215714D02*
X10992260Y-11196667D01*
X11011307Y-11187143D01*
X11039879Y-11187143D01*
X11058926Y-11196667D01*
X11068450Y-11215714D01*
X11068450Y-11320476D01*
X11163688Y-11320476D02*
X11163688Y-11187143D01*
X11163688Y-11206190D02*
X11173212Y-11196667D01*
X11192260Y-11187143D01*
X11220831Y-11187143D01*
X11239879Y-11196667D01*
X11249403Y-11215714D01*
X11249403Y-11320476D01*
X11249403Y-11215714D02*
X11258926Y-11196667D01*
X11277974Y-11187143D01*
X11306545Y-11187143D01*
X11325593Y-11196667D01*
X11335117Y-11215714D01*
X11335117Y-11320476D01*
X11725593Y-11110952D02*
X11554164Y-11368095D01*
X11982736Y-11120476D02*
X12001784Y-11120476D01*
X12020831Y-11130000D01*
X12030355Y-11139524D01*
X12039879Y-11158571D01*
X12049403Y-11196667D01*
X12049403Y-11244286D01*
X12039879Y-11282381D01*
X12030355Y-11301428D01*
X12020831Y-11310952D01*
X12001784Y-11320476D01*
X11982736Y-11320476D01*
X11963688Y-11310952D01*
X11954164Y-11301428D01*
X11944641Y-11282381D01*
X11935117Y-11244286D01*
X11935117Y-11196667D01*
X11944641Y-11158571D01*
X11954164Y-11139524D01*
X11963688Y-11130000D01*
X11982736Y-11120476D01*
X12135117Y-11301428D02*
X12144641Y-11310952D01*
X12135117Y-11320476D01*
X12125593Y-11310952D01*
X12135117Y-11301428D01*
X12135117Y-11320476D01*
X12268450Y-11120476D02*
X12287498Y-11120476D01*
X12306545Y-11130000D01*
X12316069Y-11139524D01*
X12325593Y-11158571D01*
X12335117Y-11196667D01*
X12335117Y-11244286D01*
X12325593Y-11282381D01*
X12316069Y-11301428D01*
X12306545Y-11310952D01*
X12287498Y-11320476D01*
X12268450Y-11320476D01*
X12249403Y-11310952D01*
X12239879Y-11301428D01*
X12230355Y-11282381D01*
X12220831Y-11244286D01*
X12220831Y-11196667D01*
X12230355Y-11158571D01*
X12239879Y-11139524D01*
X12249403Y-11130000D01*
X12268450Y-11120476D01*
X12401784Y-11120476D02*
X12525593Y-11120476D01*
X12458926Y-11196667D01*
X12487498Y-11196667D01*
X12506545Y-11206190D01*
X12516069Y-11215714D01*
X12525593Y-11234762D01*
X12525593Y-11282381D01*
X12516069Y-11301428D01*
X12506545Y-11310952D01*
X12487498Y-11320476D01*
X12430355Y-11320476D01*
X12411307Y-11310952D01*
X12401784Y-11301428D01*
X12620831Y-11320476D02*
X12658926Y-11320476D01*
X12677974Y-11310952D01*
X12687498Y-11301428D01*
X12706545Y-11272857D01*
X12716069Y-11234762D01*
X12716069Y-11158571D01*
X12706545Y-11139524D01*
X12697022Y-11130000D01*
X12677974Y-11120476D01*
X12639879Y-11120476D01*
X12620831Y-11130000D01*
X12611307Y-11139524D01*
X12601784Y-11158571D01*
X12601784Y-11206190D01*
X12611307Y-11225238D01*
X12620831Y-11234762D01*
X12639879Y-11244286D01*
X12677974Y-11244286D01*
X12697022Y-11234762D01*
X12706545Y-11225238D01*
X12716069Y-11206190D01*
X12887498Y-11187143D02*
X12887498Y-11320476D01*
X12839879Y-11110952D02*
X12792260Y-11253809D01*
X12916069Y-11253809D01*
X12982736Y-11120476D02*
X12982736Y-11158571D01*
X13058926Y-11120476D02*
X13058926Y-11158571D01*
X13354164Y-11396667D02*
X13344641Y-11387143D01*
X13325593Y-11358571D01*
X13316069Y-11339524D01*
X13306545Y-11310952D01*
X13297022Y-11263333D01*
X13297022Y-11225238D01*
X13306545Y-11177619D01*
X13316069Y-11149048D01*
X13325593Y-11130000D01*
X13344641Y-11101429D01*
X13354164Y-11091905D01*
X13525593Y-11120476D02*
X13430355Y-11120476D01*
X13420831Y-11215714D01*
X13430355Y-11206190D01*
X13449403Y-11196667D01*
X13497022Y-11196667D01*
X13516069Y-11206190D01*
X13525593Y-11215714D01*
X13535117Y-11234762D01*
X13535117Y-11282381D01*
X13525593Y-11301428D01*
X13516069Y-11310952D01*
X13497022Y-11320476D01*
X13449403Y-11320476D01*
X13430355Y-11310952D01*
X13420831Y-11301428D01*
X13773212Y-11320476D02*
X13773212Y-11120476D01*
X13858926Y-11320476D02*
X13858926Y-11215714D01*
X13849403Y-11196667D01*
X13830355Y-11187143D01*
X13801784Y-11187143D01*
X13782736Y-11196667D01*
X13773212Y-11206190D01*
X13982736Y-11320476D02*
X13963688Y-11310952D01*
X13954164Y-11301428D01*
X13944641Y-11282381D01*
X13944641Y-11225238D01*
X13954164Y-11206190D01*
X13963688Y-11196667D01*
X13982736Y-11187143D01*
X14011307Y-11187143D01*
X14030355Y-11196667D01*
X14039879Y-11206190D01*
X14049403Y-11225238D01*
X14049403Y-11282381D01*
X14039879Y-11301428D01*
X14030355Y-11310952D01*
X14011307Y-11320476D01*
X13982736Y-11320476D01*
X14163688Y-11320476D02*
X14144641Y-11310952D01*
X14135117Y-11291905D01*
X14135117Y-11120476D01*
X14316069Y-11310952D02*
X14297022Y-11320476D01*
X14258926Y-11320476D01*
X14239879Y-11310952D01*
X14230355Y-11291905D01*
X14230355Y-11215714D01*
X14239879Y-11196667D01*
X14258926Y-11187143D01*
X14297022Y-11187143D01*
X14316069Y-11196667D01*
X14325593Y-11215714D01*
X14325593Y-11234762D01*
X14230355Y-11253809D01*
X14401784Y-11310952D02*
X14420831Y-11320476D01*
X14458926Y-11320476D01*
X14477974Y-11310952D01*
X14487498Y-11291905D01*
X14487498Y-11282381D01*
X14477974Y-11263333D01*
X14458926Y-11253809D01*
X14430355Y-11253809D01*
X14411307Y-11244286D01*
X14401784Y-11225238D01*
X14401784Y-11215714D01*
X14411307Y-11196667D01*
X14430355Y-11187143D01*
X14458926Y-11187143D01*
X14477974Y-11196667D01*
X14554164Y-11396667D02*
X14563688Y-11387143D01*
X14582736Y-11358571D01*
X14592260Y-11339524D01*
X14601784Y-11310952D01*
X14611307Y-11263333D01*
X14611307Y-11225238D01*
X14601784Y-11177619D01*
X14592260Y-11149048D01*
X14582736Y-11130000D01*
X14563688Y-11101429D01*
X14554164Y-11091905D01*
X9682260Y-11394000D02*
X9682260Y-11594000D01*
X9582260Y-11494000D02*
X9782260Y-11494000D01*
X10030355Y-11403524D02*
X10039879Y-11394000D01*
X10058926Y-11384476D01*
X10106546Y-11384476D01*
X10125593Y-11394000D01*
X10135117Y-11403524D01*
X10144641Y-11422571D01*
X10144641Y-11441619D01*
X10135117Y-11470190D01*
X10020831Y-11584476D01*
X10144641Y-11584476D01*
X10230355Y-11565428D02*
X10239879Y-11574952D01*
X10230355Y-11584476D01*
X10220831Y-11574952D01*
X10230355Y-11565428D01*
X10230355Y-11584476D01*
X10430355Y-11584476D02*
X10316069Y-11584476D01*
X10373212Y-11584476D02*
X10373212Y-11384476D01*
X10354165Y-11413048D01*
X10335117Y-11432095D01*
X10316069Y-11441619D01*
X10554165Y-11384476D02*
X10573212Y-11384476D01*
X10592260Y-11394000D01*
X10601784Y-11403524D01*
X10611307Y-11422571D01*
X10620831Y-11460667D01*
X10620831Y-11508286D01*
X10611307Y-11546381D01*
X10601784Y-11565428D01*
X10592260Y-11574952D01*
X10573212Y-11584476D01*
X10554165Y-11584476D01*
X10535117Y-11574952D01*
X10525593Y-11565428D01*
X10516069Y-11546381D01*
X10506546Y-11508286D01*
X10506546Y-11460667D01*
X10516069Y-11422571D01*
X10525593Y-11403524D01*
X10535117Y-11394000D01*
X10554165Y-11384476D01*
X10744641Y-11384476D02*
X10763688Y-11384476D01*
X10782736Y-11394000D01*
X10792260Y-11403524D01*
X10801784Y-11422571D01*
X10811307Y-11460667D01*
X10811307Y-11508286D01*
X10801784Y-11546381D01*
X10792260Y-11565428D01*
X10782736Y-11574952D01*
X10763688Y-11584476D01*
X10744641Y-11584476D01*
X10725593Y-11574952D01*
X10716069Y-11565428D01*
X10706546Y-11546381D01*
X10697022Y-11508286D01*
X10697022Y-11460667D01*
X10706546Y-11422571D01*
X10716069Y-11403524D01*
X10725593Y-11394000D01*
X10744641Y-11384476D01*
X10897022Y-11584476D02*
X10897022Y-11451143D01*
X10897022Y-11470190D02*
X10906546Y-11460667D01*
X10925593Y-11451143D01*
X10954165Y-11451143D01*
X10973212Y-11460667D01*
X10982736Y-11479714D01*
X10982736Y-11584476D01*
X10982736Y-11479714D02*
X10992260Y-11460667D01*
X11011307Y-11451143D01*
X11039879Y-11451143D01*
X11058926Y-11460667D01*
X11068450Y-11479714D01*
X11068450Y-11584476D01*
X11163688Y-11584476D02*
X11163688Y-11451143D01*
X11163688Y-11470190D02*
X11173212Y-11460667D01*
X11192260Y-11451143D01*
X11220831Y-11451143D01*
X11239879Y-11460667D01*
X11249403Y-11479714D01*
X11249403Y-11584476D01*
X11249403Y-11479714D02*
X11258926Y-11460667D01*
X11277974Y-11451143D01*
X11306545Y-11451143D01*
X11325593Y-11460667D01*
X11335117Y-11479714D01*
X11335117Y-11584476D01*
X11725593Y-11374952D02*
X11554164Y-11632095D01*
X11982736Y-11384476D02*
X12001784Y-11384476D01*
X12020831Y-11394000D01*
X12030355Y-11403524D01*
X12039879Y-11422571D01*
X12049403Y-11460667D01*
X12049403Y-11508286D01*
X12039879Y-11546381D01*
X12030355Y-11565428D01*
X12020831Y-11574952D01*
X12001784Y-11584476D01*
X11982736Y-11584476D01*
X11963688Y-11574952D01*
X11954164Y-11565428D01*
X11944641Y-11546381D01*
X11935117Y-11508286D01*
X11935117Y-11460667D01*
X11944641Y-11422571D01*
X11954164Y-11403524D01*
X11963688Y-11394000D01*
X11982736Y-11384476D01*
X12135117Y-11565428D02*
X12144641Y-11574952D01*
X12135117Y-11584476D01*
X12125593Y-11574952D01*
X12135117Y-11565428D01*
X12135117Y-11584476D01*
X12268450Y-11384476D02*
X12287498Y-11384476D01*
X12306545Y-11394000D01*
X12316069Y-11403524D01*
X12325593Y-11422571D01*
X12335117Y-11460667D01*
X12335117Y-11508286D01*
X12325593Y-11546381D01*
X12316069Y-11565428D01*
X12306545Y-11574952D01*
X12287498Y-11584476D01*
X12268450Y-11584476D01*
X12249403Y-11574952D01*
X12239879Y-11565428D01*
X12230355Y-11546381D01*
X12220831Y-11508286D01*
X12220831Y-11460667D01*
X12230355Y-11422571D01*
X12239879Y-11403524D01*
X12249403Y-11394000D01*
X12268450Y-11384476D01*
X12449403Y-11470190D02*
X12430355Y-11460667D01*
X12420831Y-11451143D01*
X12411307Y-11432095D01*
X12411307Y-11422571D01*
X12420831Y-11403524D01*
X12430355Y-11394000D01*
X12449403Y-11384476D01*
X12487498Y-11384476D01*
X12506545Y-11394000D01*
X12516069Y-11403524D01*
X12525593Y-11422571D01*
X12525593Y-11432095D01*
X12516069Y-11451143D01*
X12506545Y-11460667D01*
X12487498Y-11470190D01*
X12449403Y-11470190D01*
X12430355Y-11479714D01*
X12420831Y-11489238D01*
X12411307Y-11508286D01*
X12411307Y-11546381D01*
X12420831Y-11565428D01*
X12430355Y-11574952D01*
X12449403Y-11584476D01*
X12487498Y-11584476D01*
X12506545Y-11574952D01*
X12516069Y-11565428D01*
X12525593Y-11546381D01*
X12525593Y-11508286D01*
X12516069Y-11489238D01*
X12506545Y-11479714D01*
X12487498Y-11470190D01*
X12601784Y-11403524D02*
X12611307Y-11394000D01*
X12630355Y-11384476D01*
X12677974Y-11384476D01*
X12697022Y-11394000D01*
X12706545Y-11403524D01*
X12716069Y-11422571D01*
X12716069Y-11441619D01*
X12706545Y-11470190D01*
X12592260Y-11584476D01*
X12716069Y-11584476D01*
X12782736Y-11384476D02*
X12916069Y-11384476D01*
X12830355Y-11584476D01*
X12982736Y-11384476D02*
X12982736Y-11422571D01*
X13058926Y-11384476D02*
X13058926Y-11422571D01*
X13354164Y-11660667D02*
X13344641Y-11651143D01*
X13325593Y-11622571D01*
X13316069Y-11603524D01*
X13306545Y-11574952D01*
X13297022Y-11527333D01*
X13297022Y-11489238D01*
X13306545Y-11441619D01*
X13316069Y-11413048D01*
X13325593Y-11394000D01*
X13344641Y-11365428D01*
X13354164Y-11355905D01*
X13468450Y-11384476D02*
X13487498Y-11384476D01*
X13506545Y-11394000D01*
X13516069Y-11403524D01*
X13525593Y-11422571D01*
X13535117Y-11460667D01*
X13535117Y-11508286D01*
X13525593Y-11546381D01*
X13516069Y-11565428D01*
X13506545Y-11574952D01*
X13487498Y-11584476D01*
X13468450Y-11584476D01*
X13449403Y-11574952D01*
X13439879Y-11565428D01*
X13430355Y-11546381D01*
X13420831Y-11508286D01*
X13420831Y-11460667D01*
X13430355Y-11422571D01*
X13439879Y-11403524D01*
X13449403Y-11394000D01*
X13468450Y-11384476D01*
X13773212Y-11584476D02*
X13773212Y-11384476D01*
X13858926Y-11584476D02*
X13858926Y-11479714D01*
X13849403Y-11460667D01*
X13830355Y-11451143D01*
X13801784Y-11451143D01*
X13782736Y-11460667D01*
X13773212Y-11470190D01*
X13982736Y-11584476D02*
X13963688Y-11574952D01*
X13954164Y-11565428D01*
X13944641Y-11546381D01*
X13944641Y-11489238D01*
X13954164Y-11470190D01*
X13963688Y-11460667D01*
X13982736Y-11451143D01*
X14011307Y-11451143D01*
X14030355Y-11460667D01*
X14039879Y-11470190D01*
X14049403Y-11489238D01*
X14049403Y-11546381D01*
X14039879Y-11565428D01*
X14030355Y-11574952D01*
X14011307Y-11584476D01*
X13982736Y-11584476D01*
X14163688Y-11584476D02*
X14144641Y-11574952D01*
X14135117Y-11555905D01*
X14135117Y-11384476D01*
X14316069Y-11574952D02*
X14297022Y-11584476D01*
X14258926Y-11584476D01*
X14239879Y-11574952D01*
X14230355Y-11555905D01*
X14230355Y-11479714D01*
X14239879Y-11460667D01*
X14258926Y-11451143D01*
X14297022Y-11451143D01*
X14316069Y-11460667D01*
X14325593Y-11479714D01*
X14325593Y-11498762D01*
X14230355Y-11517809D01*
X14401784Y-11574952D02*
X14420831Y-11584476D01*
X14458926Y-11584476D01*
X14477974Y-11574952D01*
X14487498Y-11555905D01*
X14487498Y-11546381D01*
X14477974Y-11527333D01*
X14458926Y-11517809D01*
X14430355Y-11517809D01*
X14411307Y-11508286D01*
X14401784Y-11489238D01*
X14401784Y-11479714D01*
X14411307Y-11460667D01*
X14430355Y-11451143D01*
X14458926Y-11451143D01*
X14477974Y-11460667D01*
X14725593Y-11508286D02*
X14877974Y-11508286D01*
X14801784Y-11584476D02*
X14801784Y-11432095D01*
X15116069Y-11403524D02*
X15125593Y-11394000D01*
X15144641Y-11384476D01*
X15192260Y-11384476D01*
X15211307Y-11394000D01*
X15220831Y-11403524D01*
X15230355Y-11422571D01*
X15230355Y-11441619D01*
X15220831Y-11470190D01*
X15106545Y-11584476D01*
X15230355Y-11584476D01*
X15458926Y-11574952D02*
X15477974Y-11584476D01*
X15516069Y-11584476D01*
X15535117Y-11574952D01*
X15544641Y-11555905D01*
X15544641Y-11546381D01*
X15535117Y-11527333D01*
X15516069Y-11517809D01*
X15487498Y-11517809D01*
X15468450Y-11508286D01*
X15458926Y-11489238D01*
X15458926Y-11479714D01*
X15468450Y-11460667D01*
X15487498Y-11451143D01*
X15516069Y-11451143D01*
X15535117Y-11460667D01*
X15658926Y-11584476D02*
X15639879Y-11574952D01*
X15630355Y-11555905D01*
X15630355Y-11384476D01*
X15763688Y-11584476D02*
X15744641Y-11574952D01*
X15735117Y-11565428D01*
X15725593Y-11546381D01*
X15725593Y-11489238D01*
X15735117Y-11470190D01*
X15744641Y-11460667D01*
X15763688Y-11451143D01*
X15792260Y-11451143D01*
X15811307Y-11460667D01*
X15820831Y-11470190D01*
X15830355Y-11489238D01*
X15830355Y-11546381D01*
X15820831Y-11565428D01*
X15811307Y-11574952D01*
X15792260Y-11584476D01*
X15763688Y-11584476D01*
X15887498Y-11451143D02*
X15963688Y-11451143D01*
X15916069Y-11384476D02*
X15916069Y-11555905D01*
X15925593Y-11574952D01*
X15944641Y-11584476D01*
X15963688Y-11584476D01*
X16020831Y-11574952D02*
X16039879Y-11584476D01*
X16077974Y-11584476D01*
X16097022Y-11574952D01*
X16106545Y-11555905D01*
X16106545Y-11546381D01*
X16097022Y-11527333D01*
X16077974Y-11517809D01*
X16049403Y-11517809D01*
X16030355Y-11508286D01*
X16020831Y-11489238D01*
X16020831Y-11479714D01*
X16030355Y-11460667D01*
X16049403Y-11451143D01*
X16077974Y-11451143D01*
X16097022Y-11460667D01*
X16173212Y-11660667D02*
X16182736Y-11651143D01*
X16201784Y-11622571D01*
X16211307Y-11603524D01*
X16220831Y-11574952D01*
X16230355Y-11527333D01*
X16230355Y-11489238D01*
X16220831Y-11441619D01*
X16211307Y-11413048D01*
X16201784Y-11394000D01*
X16182736Y-11365428D01*
X16173212Y-11355905D01*
X9752971Y-11884711D02*
X9752971Y-11743289D01*
X9611548Y-11743289D01*
X9611548Y-11884711D01*
X9752971Y-11884711D01*
X10020831Y-11704476D02*
X10144641Y-11704476D01*
X10077974Y-11780667D01*
X10106546Y-11780667D01*
X10125593Y-11790190D01*
X10135117Y-11799714D01*
X10144641Y-11818762D01*
X10144641Y-11866381D01*
X10135117Y-11885428D01*
X10125593Y-11894952D01*
X10106546Y-11904476D01*
X10049403Y-11904476D01*
X10030355Y-11894952D01*
X10020831Y-11885428D01*
X10230355Y-11885428D02*
X10239879Y-11894952D01*
X10230355Y-11904476D01*
X10220831Y-11894952D01*
X10230355Y-11885428D01*
X10230355Y-11904476D01*
X10316069Y-11723524D02*
X10325593Y-11714000D01*
X10344641Y-11704476D01*
X10392260Y-11704476D01*
X10411307Y-11714000D01*
X10420831Y-11723524D01*
X10430355Y-11742571D01*
X10430355Y-11761619D01*
X10420831Y-11790190D01*
X10306546Y-11904476D01*
X10430355Y-11904476D01*
X10554165Y-11704476D02*
X10573212Y-11704476D01*
X10592260Y-11714000D01*
X10601784Y-11723524D01*
X10611307Y-11742571D01*
X10620831Y-11780667D01*
X10620831Y-11828286D01*
X10611307Y-11866381D01*
X10601784Y-11885428D01*
X10592260Y-11894952D01*
X10573212Y-11904476D01*
X10554165Y-11904476D01*
X10535117Y-11894952D01*
X10525593Y-11885428D01*
X10516069Y-11866381D01*
X10506546Y-11828286D01*
X10506546Y-11780667D01*
X10516069Y-11742571D01*
X10525593Y-11723524D01*
X10535117Y-11714000D01*
X10554165Y-11704476D01*
X10744641Y-11704476D02*
X10763688Y-11704476D01*
X10782736Y-11714000D01*
X10792260Y-11723524D01*
X10801784Y-11742571D01*
X10811307Y-11780667D01*
X10811307Y-11828286D01*
X10801784Y-11866381D01*
X10792260Y-11885428D01*
X10782736Y-11894952D01*
X10763688Y-11904476D01*
X10744641Y-11904476D01*
X10725593Y-11894952D01*
X10716069Y-11885428D01*
X10706546Y-11866381D01*
X10697022Y-11828286D01*
X10697022Y-11780667D01*
X10706546Y-11742571D01*
X10716069Y-11723524D01*
X10725593Y-11714000D01*
X10744641Y-11704476D01*
X10897022Y-11904476D02*
X10897022Y-11771143D01*
X10897022Y-11790190D02*
X10906546Y-11780667D01*
X10925593Y-11771143D01*
X10954165Y-11771143D01*
X10973212Y-11780667D01*
X10982736Y-11799714D01*
X10982736Y-11904476D01*
X10982736Y-11799714D02*
X10992260Y-11780667D01*
X11011307Y-11771143D01*
X11039879Y-11771143D01*
X11058926Y-11780667D01*
X11068450Y-11799714D01*
X11068450Y-11904476D01*
X11163688Y-11904476D02*
X11163688Y-11771143D01*
X11163688Y-11790190D02*
X11173212Y-11780667D01*
X11192260Y-11771143D01*
X11220831Y-11771143D01*
X11239879Y-11780667D01*
X11249403Y-11799714D01*
X11249403Y-11904476D01*
X11249403Y-11799714D02*
X11258926Y-11780667D01*
X11277974Y-11771143D01*
X11306545Y-11771143D01*
X11325593Y-11780667D01*
X11335117Y-11799714D01*
X11335117Y-11904476D01*
X11725593Y-11694952D02*
X11554164Y-11952095D01*
X11982736Y-11704476D02*
X12001784Y-11704476D01*
X12020831Y-11714000D01*
X12030355Y-11723524D01*
X12039879Y-11742571D01*
X12049403Y-11780667D01*
X12049403Y-11828286D01*
X12039879Y-11866381D01*
X12030355Y-11885428D01*
X12020831Y-11894952D01*
X12001784Y-11904476D01*
X11982736Y-11904476D01*
X11963688Y-11894952D01*
X11954164Y-11885428D01*
X11944641Y-11866381D01*
X11935117Y-11828286D01*
X11935117Y-11780667D01*
X11944641Y-11742571D01*
X11954164Y-11723524D01*
X11963688Y-11714000D01*
X11982736Y-11704476D01*
X12135117Y-11885428D02*
X12144641Y-11894952D01*
X12135117Y-11904476D01*
X12125593Y-11894952D01*
X12135117Y-11885428D01*
X12135117Y-11904476D01*
X12335117Y-11904476D02*
X12220831Y-11904476D01*
X12277974Y-11904476D02*
X12277974Y-11704476D01*
X12258926Y-11733048D01*
X12239879Y-11752095D01*
X12220831Y-11761619D01*
X12411307Y-11723524D02*
X12420831Y-11714000D01*
X12439879Y-11704476D01*
X12487498Y-11704476D01*
X12506545Y-11714000D01*
X12516069Y-11723524D01*
X12525593Y-11742571D01*
X12525593Y-11761619D01*
X12516069Y-11790190D01*
X12401784Y-11904476D01*
X12525593Y-11904476D01*
X12697022Y-11704476D02*
X12658926Y-11704476D01*
X12639879Y-11714000D01*
X12630355Y-11723524D01*
X12611307Y-11752095D01*
X12601784Y-11790190D01*
X12601784Y-11866381D01*
X12611307Y-11885428D01*
X12620831Y-11894952D01*
X12639879Y-11904476D01*
X12677974Y-11904476D01*
X12697022Y-11894952D01*
X12706545Y-11885428D01*
X12716069Y-11866381D01*
X12716069Y-11818762D01*
X12706545Y-11799714D01*
X12697022Y-11790190D01*
X12677974Y-11780667D01*
X12639879Y-11780667D01*
X12620831Y-11790190D01*
X12611307Y-11799714D01*
X12601784Y-11818762D01*
X12839879Y-11704476D02*
X12858926Y-11704476D01*
X12877974Y-11714000D01*
X12887498Y-11723524D01*
X12897022Y-11742571D01*
X12906545Y-11780667D01*
X12906545Y-11828286D01*
X12897022Y-11866381D01*
X12887498Y-11885428D01*
X12877974Y-11894952D01*
X12858926Y-11904476D01*
X12839879Y-11904476D01*
X12820831Y-11894952D01*
X12811307Y-11885428D01*
X12801784Y-11866381D01*
X12792260Y-11828286D01*
X12792260Y-11780667D01*
X12801784Y-11742571D01*
X12811307Y-11723524D01*
X12820831Y-11714000D01*
X12839879Y-11704476D01*
X12982736Y-11704476D02*
X12982736Y-11742571D01*
X13058926Y-11704476D02*
X13058926Y-11742571D01*
X13354164Y-11980667D02*
X13344641Y-11971143D01*
X13325593Y-11942571D01*
X13316069Y-11923524D01*
X13306545Y-11894952D01*
X13297022Y-11847333D01*
X13297022Y-11809238D01*
X13306545Y-11761619D01*
X13316069Y-11733048D01*
X13325593Y-11714000D01*
X13344641Y-11685428D01*
X13354164Y-11675905D01*
X13420831Y-11723524D02*
X13430355Y-11714000D01*
X13449403Y-11704476D01*
X13497022Y-11704476D01*
X13516069Y-11714000D01*
X13525593Y-11723524D01*
X13535117Y-11742571D01*
X13535117Y-11761619D01*
X13525593Y-11790190D01*
X13411307Y-11904476D01*
X13535117Y-11904476D01*
X13773212Y-11904476D02*
X13773212Y-11704476D01*
X13858926Y-11904476D02*
X13858926Y-11799714D01*
X13849403Y-11780667D01*
X13830355Y-11771143D01*
X13801784Y-11771143D01*
X13782736Y-11780667D01*
X13773212Y-11790190D01*
X13982736Y-11904476D02*
X13963688Y-11894952D01*
X13954164Y-11885428D01*
X13944641Y-11866381D01*
X13944641Y-11809238D01*
X13954164Y-11790190D01*
X13963688Y-11780667D01*
X13982736Y-11771143D01*
X14011307Y-11771143D01*
X14030355Y-11780667D01*
X14039879Y-11790190D01*
X14049403Y-11809238D01*
X14049403Y-11866381D01*
X14039879Y-11885428D01*
X14030355Y-11894952D01*
X14011307Y-11904476D01*
X13982736Y-11904476D01*
X14163688Y-11904476D02*
X14144641Y-11894952D01*
X14135117Y-11875905D01*
X14135117Y-11704476D01*
X14316069Y-11894952D02*
X14297022Y-11904476D01*
X14258926Y-11904476D01*
X14239879Y-11894952D01*
X14230355Y-11875905D01*
X14230355Y-11799714D01*
X14239879Y-11780667D01*
X14258926Y-11771143D01*
X14297022Y-11771143D01*
X14316069Y-11780667D01*
X14325593Y-11799714D01*
X14325593Y-11818762D01*
X14230355Y-11837809D01*
X14401784Y-11894952D02*
X14420831Y-11904476D01*
X14458926Y-11904476D01*
X14477974Y-11894952D01*
X14487498Y-11875905D01*
X14487498Y-11866381D01*
X14477974Y-11847333D01*
X14458926Y-11837809D01*
X14430355Y-11837809D01*
X14411307Y-11828286D01*
X14401784Y-11809238D01*
X14401784Y-11799714D01*
X14411307Y-11780667D01*
X14430355Y-11771143D01*
X14458926Y-11771143D01*
X14477974Y-11780667D01*
X14554164Y-11980667D02*
X14563688Y-11971143D01*
X14582736Y-11942571D01*
X14592260Y-11923524D01*
X14601784Y-11894952D01*
X14611307Y-11847333D01*
X14611307Y-11809238D01*
X14601784Y-11761619D01*
X14592260Y-11733048D01*
X14582736Y-11714000D01*
X14563688Y-11685428D01*
X14554164Y-11675905D01*
M02*
