%TF.GenerationSoftware,KiCad,Pcbnew,6.0.11-2627ca5db0~126~ubuntu22.04.1*%
%TF.CreationDate,2024-06-10T15:46:38-04:00*%
%TF.ProjectId,io-board,696f2d62-6f61-4726-942e-6b696361645f,rev?*%
%TF.SameCoordinates,Original*%
%TF.FileFunction,Drillmap*%
%TF.FilePolarity,Positive*%
%FSLAX45Y45*%
G04 Gerber Fmt 4.5, Leading zero omitted, Abs format (unit mm)*
G04 Created by KiCad (PCBNEW 6.0.11-2627ca5db0~126~ubuntu22.04.1) date 2024-06-10 15:46:38*
%MOMM*%
%LPD*%
G01*
G04 APERTURE LIST*
%ADD10C,0.100000*%
%ADD11C,0.200000*%
%ADD12C,0.170180*%
%ADD13C,0.300000*%
%ADD14C,0.398780*%
G04 APERTURE END LIST*
D10*
X19787260Y-7121000D02*
G75*
G03*
X19587260Y-6921000I-200000J0D01*
G01*
X9787260Y-7121000D02*
X9787260Y-10121000D01*
X9987260Y-6921000D02*
X19587260Y-6921000D01*
X19787260Y-10071000D02*
X19787260Y-7121000D01*
X9787260Y-10121000D02*
G75*
G03*
X9987260Y-10321000I200000J0D01*
G01*
X9987260Y-10321000D02*
X19537260Y-10321000D01*
X19537260Y-10321000D02*
G75*
G03*
X19787260Y-10071000I0J250000D01*
G01*
X9987260Y-6921000D02*
G75*
G03*
X9787260Y-7121000I0J-200000D01*
G01*
D11*
D12*
X10709170Y-8535910D02*
X10879350Y-8706090D01*
X10879350Y-8535910D02*
X10709170Y-8706090D01*
X11725170Y-8535910D02*
X11895350Y-8706090D01*
X11895350Y-8535910D02*
X11725170Y-8706090D01*
X12627170Y-8535910D02*
X12797350Y-8706090D01*
X12797350Y-8535910D02*
X12627170Y-8706090D01*
X13643170Y-8535910D02*
X13813350Y-8706090D01*
X13813350Y-8535910D02*
X13643170Y-8706090D01*
X14547170Y-8535910D02*
X14717350Y-8706090D01*
X14717350Y-8535910D02*
X14547170Y-8706090D01*
X15563170Y-8535910D02*
X15733350Y-8706090D01*
X15733350Y-8535910D02*
X15563170Y-8706090D01*
X16468170Y-8535910D02*
X16638350Y-8706090D01*
X16638350Y-8535910D02*
X16468170Y-8706090D01*
X17484170Y-8535910D02*
X17654350Y-8706090D01*
X17654350Y-8535910D02*
X17484170Y-8706090D01*
D13*
X11198260Y-8113000D02*
G75*
G03*
X11198260Y-8113000I-150000J0D01*
G01*
X11833260Y-8367000D02*
G75*
G03*
X11833260Y-8367000I-150000J0D01*
G01*
X13116260Y-8113000D02*
G75*
G03*
X13116260Y-8113000I-150000J0D01*
G01*
X13751260Y-8367000D02*
G75*
G03*
X13751260Y-8367000I-150000J0D01*
G01*
X15036260Y-8113000D02*
G75*
G03*
X15036260Y-8113000I-150000J0D01*
G01*
X15671260Y-8367000D02*
G75*
G03*
X15671260Y-8367000I-150000J0D01*
G01*
X16957260Y-8113000D02*
G75*
G03*
X16957260Y-8113000I-150000J0D01*
G01*
X17592260Y-8367000D02*
G75*
G03*
X17592260Y-8367000I-150000J0D01*
G01*
D14*
X11302260Y-8421610D02*
X11302260Y-8820390D01*
X11102870Y-8621000D02*
X11501650Y-8621000D01*
X13220260Y-8421610D02*
X13220260Y-8820390D01*
X13020870Y-8621000D02*
X13419650Y-8621000D01*
X15140260Y-8421610D02*
X15140260Y-8820390D01*
X14940870Y-8621000D02*
X15339650Y-8621000D01*
X17061260Y-8421610D02*
X17061260Y-8820390D01*
X16861870Y-8621000D02*
X17260650Y-8621000D01*
D11*
X10039879Y-10636476D02*
X10039879Y-10436476D01*
X10087498Y-10436476D01*
X10116069Y-10446000D01*
X10135117Y-10465048D01*
X10144641Y-10484095D01*
X10154165Y-10522190D01*
X10154165Y-10550762D01*
X10144641Y-10588857D01*
X10135117Y-10607905D01*
X10116069Y-10626952D01*
X10087498Y-10636476D01*
X10039879Y-10636476D01*
X10239879Y-10636476D02*
X10239879Y-10503143D01*
X10239879Y-10541238D02*
X10249403Y-10522190D01*
X10258926Y-10512667D01*
X10277974Y-10503143D01*
X10297022Y-10503143D01*
X10363688Y-10636476D02*
X10363688Y-10503143D01*
X10363688Y-10436476D02*
X10354165Y-10446000D01*
X10363688Y-10455524D01*
X10373212Y-10446000D01*
X10363688Y-10436476D01*
X10363688Y-10455524D01*
X10487498Y-10636476D02*
X10468450Y-10626952D01*
X10458926Y-10607905D01*
X10458926Y-10436476D01*
X10592260Y-10636476D02*
X10573212Y-10626952D01*
X10563688Y-10607905D01*
X10563688Y-10436476D01*
X10820831Y-10636476D02*
X10820831Y-10436476D01*
X10887498Y-10579333D01*
X10954165Y-10436476D01*
X10954165Y-10636476D01*
X11135117Y-10636476D02*
X11135117Y-10531714D01*
X11125593Y-10512667D01*
X11106546Y-10503143D01*
X11068450Y-10503143D01*
X11049403Y-10512667D01*
X11135117Y-10626952D02*
X11116069Y-10636476D01*
X11068450Y-10636476D01*
X11049403Y-10626952D01*
X11039879Y-10607905D01*
X11039879Y-10588857D01*
X11049403Y-10569810D01*
X11068450Y-10560286D01*
X11116069Y-10560286D01*
X11135117Y-10550762D01*
X11230355Y-10503143D02*
X11230355Y-10703143D01*
X11230355Y-10512667D02*
X11249403Y-10503143D01*
X11287498Y-10503143D01*
X11306545Y-10512667D01*
X11316069Y-10522190D01*
X11325593Y-10541238D01*
X11325593Y-10598381D01*
X11316069Y-10617429D01*
X11306545Y-10626952D01*
X11287498Y-10636476D01*
X11249403Y-10636476D01*
X11230355Y-10626952D01*
X11411307Y-10617429D02*
X11420831Y-10626952D01*
X11411307Y-10636476D01*
X11401784Y-10626952D01*
X11411307Y-10617429D01*
X11411307Y-10636476D01*
X11411307Y-10512667D02*
X11420831Y-10522190D01*
X11411307Y-10531714D01*
X11401784Y-10522190D01*
X11411307Y-10512667D01*
X11411307Y-10531714D01*
D12*
X9612080Y-10880910D02*
X9782260Y-11051090D01*
X9782260Y-10880910D02*
X9612080Y-11051090D01*
D11*
X10144641Y-11056476D02*
X10030355Y-11056476D01*
X10087498Y-11056476D02*
X10087498Y-10856476D01*
X10068450Y-10885048D01*
X10049403Y-10904095D01*
X10030355Y-10913619D01*
X10230355Y-11037429D02*
X10239879Y-11046952D01*
X10230355Y-11056476D01*
X10220831Y-11046952D01*
X10230355Y-11037429D01*
X10230355Y-11056476D01*
X10306546Y-10856476D02*
X10439879Y-10856476D01*
X10354165Y-11056476D01*
X10554165Y-10856476D02*
X10573212Y-10856476D01*
X10592260Y-10866000D01*
X10601784Y-10875524D01*
X10611307Y-10894571D01*
X10620831Y-10932667D01*
X10620831Y-10980286D01*
X10611307Y-11018381D01*
X10601784Y-11037429D01*
X10592260Y-11046952D01*
X10573212Y-11056476D01*
X10554165Y-11056476D01*
X10535117Y-11046952D01*
X10525593Y-11037429D01*
X10516069Y-11018381D01*
X10506546Y-10980286D01*
X10506546Y-10932667D01*
X10516069Y-10894571D01*
X10525593Y-10875524D01*
X10535117Y-10866000D01*
X10554165Y-10856476D01*
X10697022Y-10875524D02*
X10706546Y-10866000D01*
X10725593Y-10856476D01*
X10773212Y-10856476D01*
X10792260Y-10866000D01*
X10801784Y-10875524D01*
X10811307Y-10894571D01*
X10811307Y-10913619D01*
X10801784Y-10942190D01*
X10687498Y-11056476D01*
X10811307Y-11056476D01*
X10897022Y-11056476D02*
X10897022Y-10923143D01*
X10897022Y-10942190D02*
X10906546Y-10932667D01*
X10925593Y-10923143D01*
X10954165Y-10923143D01*
X10973212Y-10932667D01*
X10982736Y-10951714D01*
X10982736Y-11056476D01*
X10982736Y-10951714D02*
X10992260Y-10932667D01*
X11011307Y-10923143D01*
X11039879Y-10923143D01*
X11058926Y-10932667D01*
X11068450Y-10951714D01*
X11068450Y-11056476D01*
X11163688Y-11056476D02*
X11163688Y-10923143D01*
X11163688Y-10942190D02*
X11173212Y-10932667D01*
X11192260Y-10923143D01*
X11220831Y-10923143D01*
X11239879Y-10932667D01*
X11249403Y-10951714D01*
X11249403Y-11056476D01*
X11249403Y-10951714D02*
X11258926Y-10932667D01*
X11277974Y-10923143D01*
X11306545Y-10923143D01*
X11325593Y-10932667D01*
X11335117Y-10951714D01*
X11335117Y-11056476D01*
X11725593Y-10846952D02*
X11554164Y-11104095D01*
X11982736Y-10856476D02*
X12001784Y-10856476D01*
X12020831Y-10866000D01*
X12030355Y-10875524D01*
X12039879Y-10894571D01*
X12049403Y-10932667D01*
X12049403Y-10980286D01*
X12039879Y-11018381D01*
X12030355Y-11037429D01*
X12020831Y-11046952D01*
X12001784Y-11056476D01*
X11982736Y-11056476D01*
X11963688Y-11046952D01*
X11954164Y-11037429D01*
X11944641Y-11018381D01*
X11935117Y-10980286D01*
X11935117Y-10932667D01*
X11944641Y-10894571D01*
X11954164Y-10875524D01*
X11963688Y-10866000D01*
X11982736Y-10856476D01*
X12135117Y-11037429D02*
X12144641Y-11046952D01*
X12135117Y-11056476D01*
X12125593Y-11046952D01*
X12135117Y-11037429D01*
X12135117Y-11056476D01*
X12268450Y-10856476D02*
X12287498Y-10856476D01*
X12306545Y-10866000D01*
X12316069Y-10875524D01*
X12325593Y-10894571D01*
X12335117Y-10932667D01*
X12335117Y-10980286D01*
X12325593Y-11018381D01*
X12316069Y-11037429D01*
X12306545Y-11046952D01*
X12287498Y-11056476D01*
X12268450Y-11056476D01*
X12249403Y-11046952D01*
X12239879Y-11037429D01*
X12230355Y-11018381D01*
X12220831Y-10980286D01*
X12220831Y-10932667D01*
X12230355Y-10894571D01*
X12239879Y-10875524D01*
X12249403Y-10866000D01*
X12268450Y-10856476D01*
X12506545Y-10856476D02*
X12468450Y-10856476D01*
X12449403Y-10866000D01*
X12439879Y-10875524D01*
X12420831Y-10904095D01*
X12411307Y-10942190D01*
X12411307Y-11018381D01*
X12420831Y-11037429D01*
X12430355Y-11046952D01*
X12449403Y-11056476D01*
X12487498Y-11056476D01*
X12506545Y-11046952D01*
X12516069Y-11037429D01*
X12525593Y-11018381D01*
X12525593Y-10970762D01*
X12516069Y-10951714D01*
X12506545Y-10942190D01*
X12487498Y-10932667D01*
X12449403Y-10932667D01*
X12430355Y-10942190D01*
X12420831Y-10951714D01*
X12411307Y-10970762D01*
X12592260Y-10856476D02*
X12725593Y-10856476D01*
X12639879Y-11056476D01*
X12839879Y-10856476D02*
X12858926Y-10856476D01*
X12877974Y-10866000D01*
X12887498Y-10875524D01*
X12897022Y-10894571D01*
X12906545Y-10932667D01*
X12906545Y-10980286D01*
X12897022Y-11018381D01*
X12887498Y-11037429D01*
X12877974Y-11046952D01*
X12858926Y-11056476D01*
X12839879Y-11056476D01*
X12820831Y-11046952D01*
X12811307Y-11037429D01*
X12801784Y-11018381D01*
X12792260Y-10980286D01*
X12792260Y-10932667D01*
X12801784Y-10894571D01*
X12811307Y-10875524D01*
X12820831Y-10866000D01*
X12839879Y-10856476D01*
X12982736Y-10856476D02*
X12982736Y-10894571D01*
X13058926Y-10856476D02*
X13058926Y-10894571D01*
X13354164Y-11132667D02*
X13344641Y-11123143D01*
X13325593Y-11094571D01*
X13316069Y-11075524D01*
X13306545Y-11046952D01*
X13297022Y-10999333D01*
X13297022Y-10961238D01*
X13306545Y-10913619D01*
X13316069Y-10885048D01*
X13325593Y-10866000D01*
X13344641Y-10837429D01*
X13354164Y-10827905D01*
X13458926Y-10942190D02*
X13439879Y-10932667D01*
X13430355Y-10923143D01*
X13420831Y-10904095D01*
X13420831Y-10894571D01*
X13430355Y-10875524D01*
X13439879Y-10866000D01*
X13458926Y-10856476D01*
X13497022Y-10856476D01*
X13516069Y-10866000D01*
X13525593Y-10875524D01*
X13535117Y-10894571D01*
X13535117Y-10904095D01*
X13525593Y-10923143D01*
X13516069Y-10932667D01*
X13497022Y-10942190D01*
X13458926Y-10942190D01*
X13439879Y-10951714D01*
X13430355Y-10961238D01*
X13420831Y-10980286D01*
X13420831Y-11018381D01*
X13430355Y-11037429D01*
X13439879Y-11046952D01*
X13458926Y-11056476D01*
X13497022Y-11056476D01*
X13516069Y-11046952D01*
X13525593Y-11037429D01*
X13535117Y-11018381D01*
X13535117Y-10980286D01*
X13525593Y-10961238D01*
X13516069Y-10951714D01*
X13497022Y-10942190D01*
X13773212Y-11056476D02*
X13773212Y-10856476D01*
X13858926Y-11056476D02*
X13858926Y-10951714D01*
X13849403Y-10932667D01*
X13830355Y-10923143D01*
X13801784Y-10923143D01*
X13782736Y-10932667D01*
X13773212Y-10942190D01*
X13982736Y-11056476D02*
X13963688Y-11046952D01*
X13954164Y-11037429D01*
X13944641Y-11018381D01*
X13944641Y-10961238D01*
X13954164Y-10942190D01*
X13963688Y-10932667D01*
X13982736Y-10923143D01*
X14011307Y-10923143D01*
X14030355Y-10932667D01*
X14039879Y-10942190D01*
X14049403Y-10961238D01*
X14049403Y-11018381D01*
X14039879Y-11037429D01*
X14030355Y-11046952D01*
X14011307Y-11056476D01*
X13982736Y-11056476D01*
X14163688Y-11056476D02*
X14144641Y-11046952D01*
X14135117Y-11027905D01*
X14135117Y-10856476D01*
X14316069Y-11046952D02*
X14297022Y-11056476D01*
X14258926Y-11056476D01*
X14239879Y-11046952D01*
X14230355Y-11027905D01*
X14230355Y-10951714D01*
X14239879Y-10932667D01*
X14258926Y-10923143D01*
X14297022Y-10923143D01*
X14316069Y-10932667D01*
X14325593Y-10951714D01*
X14325593Y-10970762D01*
X14230355Y-10989810D01*
X14401784Y-11046952D02*
X14420831Y-11056476D01*
X14458926Y-11056476D01*
X14477974Y-11046952D01*
X14487498Y-11027905D01*
X14487498Y-11018381D01*
X14477974Y-10999333D01*
X14458926Y-10989810D01*
X14430355Y-10989810D01*
X14411307Y-10980286D01*
X14401784Y-10961238D01*
X14401784Y-10951714D01*
X14411307Y-10932667D01*
X14430355Y-10923143D01*
X14458926Y-10923143D01*
X14477974Y-10932667D01*
X14554164Y-11132667D02*
X14563688Y-11123143D01*
X14582736Y-11094571D01*
X14592260Y-11075524D01*
X14601784Y-11046952D01*
X14611307Y-10999333D01*
X14611307Y-10961238D01*
X14601784Y-10913619D01*
X14592260Y-10885048D01*
X14582736Y-10866000D01*
X14563688Y-10837429D01*
X14554164Y-10827905D01*
X14916069Y-11132667D02*
X14906545Y-11123143D01*
X14887498Y-11094571D01*
X14877974Y-11075524D01*
X14868450Y-11046952D01*
X14858926Y-10999333D01*
X14858926Y-10961238D01*
X14868450Y-10913619D01*
X14877974Y-10885048D01*
X14887498Y-10866000D01*
X14906545Y-10837429D01*
X14916069Y-10827905D01*
X14992260Y-10923143D02*
X14992260Y-11056476D01*
X14992260Y-10942190D02*
X15001784Y-10932667D01*
X15020831Y-10923143D01*
X15049403Y-10923143D01*
X15068450Y-10932667D01*
X15077974Y-10951714D01*
X15077974Y-11056476D01*
X15201784Y-11056476D02*
X15182736Y-11046952D01*
X15173212Y-11037429D01*
X15163688Y-11018381D01*
X15163688Y-10961238D01*
X15173212Y-10942190D01*
X15182736Y-10932667D01*
X15201784Y-10923143D01*
X15230355Y-10923143D01*
X15249403Y-10932667D01*
X15258926Y-10942190D01*
X15268450Y-10961238D01*
X15268450Y-11018381D01*
X15258926Y-11037429D01*
X15249403Y-11046952D01*
X15230355Y-11056476D01*
X15201784Y-11056476D01*
X15325593Y-10923143D02*
X15401784Y-10923143D01*
X15354164Y-10856476D02*
X15354164Y-11027905D01*
X15363688Y-11046952D01*
X15382736Y-11056476D01*
X15401784Y-11056476D01*
X15620831Y-10923143D02*
X15620831Y-11123143D01*
X15620831Y-10932667D02*
X15639879Y-10923143D01*
X15677974Y-10923143D01*
X15697022Y-10932667D01*
X15706545Y-10942190D01*
X15716069Y-10961238D01*
X15716069Y-11018381D01*
X15706545Y-11037429D01*
X15697022Y-11046952D01*
X15677974Y-11056476D01*
X15639879Y-11056476D01*
X15620831Y-11046952D01*
X15830355Y-11056476D02*
X15811307Y-11046952D01*
X15801784Y-11027905D01*
X15801784Y-10856476D01*
X15992260Y-11056476D02*
X15992260Y-10951714D01*
X15982736Y-10932667D01*
X15963688Y-10923143D01*
X15925593Y-10923143D01*
X15906545Y-10932667D01*
X15992260Y-11046952D02*
X15973212Y-11056476D01*
X15925593Y-11056476D01*
X15906545Y-11046952D01*
X15897022Y-11027905D01*
X15897022Y-11008857D01*
X15906545Y-10989810D01*
X15925593Y-10980286D01*
X15973212Y-10980286D01*
X15992260Y-10970762D01*
X16058926Y-10923143D02*
X16135117Y-10923143D01*
X16087498Y-10856476D02*
X16087498Y-11027905D01*
X16097022Y-11046952D01*
X16116069Y-11056476D01*
X16135117Y-11056476D01*
X16277974Y-11046952D02*
X16258926Y-11056476D01*
X16220831Y-11056476D01*
X16201784Y-11046952D01*
X16192260Y-11027905D01*
X16192260Y-10951714D01*
X16201784Y-10932667D01*
X16220831Y-10923143D01*
X16258926Y-10923143D01*
X16277974Y-10932667D01*
X16287498Y-10951714D01*
X16287498Y-10970762D01*
X16192260Y-10989810D01*
X16458926Y-11056476D02*
X16458926Y-10856476D01*
X16458926Y-11046952D02*
X16439879Y-11056476D01*
X16401784Y-11056476D01*
X16382736Y-11046952D01*
X16373212Y-11037429D01*
X16363688Y-11018381D01*
X16363688Y-10961238D01*
X16373212Y-10942190D01*
X16382736Y-10932667D01*
X16401784Y-10923143D01*
X16439879Y-10923143D01*
X16458926Y-10932667D01*
X16535117Y-11132667D02*
X16544641Y-11123143D01*
X16563688Y-11094571D01*
X16573212Y-11075524D01*
X16582736Y-11046952D01*
X16592260Y-10999333D01*
X16592260Y-10961238D01*
X16582736Y-10913619D01*
X16573212Y-10885048D01*
X16563688Y-10866000D01*
X16544641Y-10837429D01*
X16535117Y-10827905D01*
X9782260Y-11256180D02*
G75*
G03*
X9782260Y-11256180I-100000J0D01*
G01*
X10020831Y-11146656D02*
X10144641Y-11146656D01*
X10077974Y-11222847D01*
X10106546Y-11222847D01*
X10125593Y-11232370D01*
X10135117Y-11241894D01*
X10144641Y-11260942D01*
X10144641Y-11308561D01*
X10135117Y-11327608D01*
X10125593Y-11337132D01*
X10106546Y-11346656D01*
X10049403Y-11346656D01*
X10030355Y-11337132D01*
X10020831Y-11327608D01*
X10230355Y-11327608D02*
X10239879Y-11337132D01*
X10230355Y-11346656D01*
X10220831Y-11337132D01*
X10230355Y-11327608D01*
X10230355Y-11346656D01*
X10363688Y-11146656D02*
X10382736Y-11146656D01*
X10401784Y-11156180D01*
X10411307Y-11165704D01*
X10420831Y-11184751D01*
X10430355Y-11222847D01*
X10430355Y-11270466D01*
X10420831Y-11308561D01*
X10411307Y-11327608D01*
X10401784Y-11337132D01*
X10382736Y-11346656D01*
X10363688Y-11346656D01*
X10344641Y-11337132D01*
X10335117Y-11327608D01*
X10325593Y-11308561D01*
X10316069Y-11270466D01*
X10316069Y-11222847D01*
X10325593Y-11184751D01*
X10335117Y-11165704D01*
X10344641Y-11156180D01*
X10363688Y-11146656D01*
X10554165Y-11146656D02*
X10573212Y-11146656D01*
X10592260Y-11156180D01*
X10601784Y-11165704D01*
X10611307Y-11184751D01*
X10620831Y-11222847D01*
X10620831Y-11270466D01*
X10611307Y-11308561D01*
X10601784Y-11327608D01*
X10592260Y-11337132D01*
X10573212Y-11346656D01*
X10554165Y-11346656D01*
X10535117Y-11337132D01*
X10525593Y-11327608D01*
X10516069Y-11308561D01*
X10506546Y-11270466D01*
X10506546Y-11222847D01*
X10516069Y-11184751D01*
X10525593Y-11165704D01*
X10535117Y-11156180D01*
X10554165Y-11146656D01*
X10744641Y-11146656D02*
X10763688Y-11146656D01*
X10782736Y-11156180D01*
X10792260Y-11165704D01*
X10801784Y-11184751D01*
X10811307Y-11222847D01*
X10811307Y-11270466D01*
X10801784Y-11308561D01*
X10792260Y-11327608D01*
X10782736Y-11337132D01*
X10763688Y-11346656D01*
X10744641Y-11346656D01*
X10725593Y-11337132D01*
X10716069Y-11327608D01*
X10706546Y-11308561D01*
X10697022Y-11270466D01*
X10697022Y-11222847D01*
X10706546Y-11184751D01*
X10716069Y-11165704D01*
X10725593Y-11156180D01*
X10744641Y-11146656D01*
X10897022Y-11346656D02*
X10897022Y-11213323D01*
X10897022Y-11232370D02*
X10906546Y-11222847D01*
X10925593Y-11213323D01*
X10954165Y-11213323D01*
X10973212Y-11222847D01*
X10982736Y-11241894D01*
X10982736Y-11346656D01*
X10982736Y-11241894D02*
X10992260Y-11222847D01*
X11011307Y-11213323D01*
X11039879Y-11213323D01*
X11058926Y-11222847D01*
X11068450Y-11241894D01*
X11068450Y-11346656D01*
X11163688Y-11346656D02*
X11163688Y-11213323D01*
X11163688Y-11232370D02*
X11173212Y-11222847D01*
X11192260Y-11213323D01*
X11220831Y-11213323D01*
X11239879Y-11222847D01*
X11249403Y-11241894D01*
X11249403Y-11346656D01*
X11249403Y-11241894D02*
X11258926Y-11222847D01*
X11277974Y-11213323D01*
X11306545Y-11213323D01*
X11325593Y-11222847D01*
X11335117Y-11241894D01*
X11335117Y-11346656D01*
X11725593Y-11137132D02*
X11554164Y-11394275D01*
X11982736Y-11146656D02*
X12001784Y-11146656D01*
X12020831Y-11156180D01*
X12030355Y-11165704D01*
X12039879Y-11184751D01*
X12049403Y-11222847D01*
X12049403Y-11270466D01*
X12039879Y-11308561D01*
X12030355Y-11327608D01*
X12020831Y-11337132D01*
X12001784Y-11346656D01*
X11982736Y-11346656D01*
X11963688Y-11337132D01*
X11954164Y-11327608D01*
X11944641Y-11308561D01*
X11935117Y-11270466D01*
X11935117Y-11222847D01*
X11944641Y-11184751D01*
X11954164Y-11165704D01*
X11963688Y-11156180D01*
X11982736Y-11146656D01*
X12135117Y-11327608D02*
X12144641Y-11337132D01*
X12135117Y-11346656D01*
X12125593Y-11337132D01*
X12135117Y-11327608D01*
X12135117Y-11346656D01*
X12335117Y-11346656D02*
X12220831Y-11346656D01*
X12277974Y-11346656D02*
X12277974Y-11146656D01*
X12258926Y-11175228D01*
X12239879Y-11194275D01*
X12220831Y-11203799D01*
X12525593Y-11346656D02*
X12411307Y-11346656D01*
X12468450Y-11346656D02*
X12468450Y-11146656D01*
X12449403Y-11175228D01*
X12430355Y-11194275D01*
X12411307Y-11203799D01*
X12639879Y-11232370D02*
X12620831Y-11222847D01*
X12611307Y-11213323D01*
X12601784Y-11194275D01*
X12601784Y-11184751D01*
X12611307Y-11165704D01*
X12620831Y-11156180D01*
X12639879Y-11146656D01*
X12677974Y-11146656D01*
X12697022Y-11156180D01*
X12706545Y-11165704D01*
X12716069Y-11184751D01*
X12716069Y-11194275D01*
X12706545Y-11213323D01*
X12697022Y-11222847D01*
X12677974Y-11232370D01*
X12639879Y-11232370D01*
X12620831Y-11241894D01*
X12611307Y-11251418D01*
X12601784Y-11270466D01*
X12601784Y-11308561D01*
X12611307Y-11327608D01*
X12620831Y-11337132D01*
X12639879Y-11346656D01*
X12677974Y-11346656D01*
X12697022Y-11337132D01*
X12706545Y-11327608D01*
X12716069Y-11308561D01*
X12716069Y-11270466D01*
X12706545Y-11251418D01*
X12697022Y-11241894D01*
X12677974Y-11232370D01*
X12906545Y-11346656D02*
X12792260Y-11346656D01*
X12849403Y-11346656D02*
X12849403Y-11146656D01*
X12830355Y-11175228D01*
X12811307Y-11194275D01*
X12792260Y-11203799D01*
X12982736Y-11146656D02*
X12982736Y-11184751D01*
X13058926Y-11146656D02*
X13058926Y-11184751D01*
X13354164Y-11422847D02*
X13344641Y-11413323D01*
X13325593Y-11384751D01*
X13316069Y-11365704D01*
X13306545Y-11337132D01*
X13297022Y-11289513D01*
X13297022Y-11251418D01*
X13306545Y-11203799D01*
X13316069Y-11175228D01*
X13325593Y-11156180D01*
X13344641Y-11127609D01*
X13354164Y-11118085D01*
X13458926Y-11232370D02*
X13439879Y-11222847D01*
X13430355Y-11213323D01*
X13420831Y-11194275D01*
X13420831Y-11184751D01*
X13430355Y-11165704D01*
X13439879Y-11156180D01*
X13458926Y-11146656D01*
X13497022Y-11146656D01*
X13516069Y-11156180D01*
X13525593Y-11165704D01*
X13535117Y-11184751D01*
X13535117Y-11194275D01*
X13525593Y-11213323D01*
X13516069Y-11222847D01*
X13497022Y-11232370D01*
X13458926Y-11232370D01*
X13439879Y-11241894D01*
X13430355Y-11251418D01*
X13420831Y-11270466D01*
X13420831Y-11308561D01*
X13430355Y-11327608D01*
X13439879Y-11337132D01*
X13458926Y-11346656D01*
X13497022Y-11346656D01*
X13516069Y-11337132D01*
X13525593Y-11327608D01*
X13535117Y-11308561D01*
X13535117Y-11270466D01*
X13525593Y-11251418D01*
X13516069Y-11241894D01*
X13497022Y-11232370D01*
X13773212Y-11346656D02*
X13773212Y-11146656D01*
X13858926Y-11346656D02*
X13858926Y-11241894D01*
X13849403Y-11222847D01*
X13830355Y-11213323D01*
X13801784Y-11213323D01*
X13782736Y-11222847D01*
X13773212Y-11232370D01*
X13982736Y-11346656D02*
X13963688Y-11337132D01*
X13954164Y-11327608D01*
X13944641Y-11308561D01*
X13944641Y-11251418D01*
X13954164Y-11232370D01*
X13963688Y-11222847D01*
X13982736Y-11213323D01*
X14011307Y-11213323D01*
X14030355Y-11222847D01*
X14039879Y-11232370D01*
X14049403Y-11251418D01*
X14049403Y-11308561D01*
X14039879Y-11327608D01*
X14030355Y-11337132D01*
X14011307Y-11346656D01*
X13982736Y-11346656D01*
X14163688Y-11346656D02*
X14144641Y-11337132D01*
X14135117Y-11318085D01*
X14135117Y-11146656D01*
X14316069Y-11337132D02*
X14297022Y-11346656D01*
X14258926Y-11346656D01*
X14239879Y-11337132D01*
X14230355Y-11318085D01*
X14230355Y-11241894D01*
X14239879Y-11222847D01*
X14258926Y-11213323D01*
X14297022Y-11213323D01*
X14316069Y-11222847D01*
X14325593Y-11241894D01*
X14325593Y-11260942D01*
X14230355Y-11279989D01*
X14401784Y-11337132D02*
X14420831Y-11346656D01*
X14458926Y-11346656D01*
X14477974Y-11337132D01*
X14487498Y-11318085D01*
X14487498Y-11308561D01*
X14477974Y-11289513D01*
X14458926Y-11279989D01*
X14430355Y-11279989D01*
X14411307Y-11270466D01*
X14401784Y-11251418D01*
X14401784Y-11241894D01*
X14411307Y-11222847D01*
X14430355Y-11213323D01*
X14458926Y-11213323D01*
X14477974Y-11222847D01*
X14554164Y-11422847D02*
X14563688Y-11413323D01*
X14582736Y-11384751D01*
X14592260Y-11365704D01*
X14601784Y-11337132D01*
X14611307Y-11289513D01*
X14611307Y-11251418D01*
X14601784Y-11203799D01*
X14592260Y-11175228D01*
X14582736Y-11156180D01*
X14563688Y-11127609D01*
X14554164Y-11118085D01*
X14916069Y-11422847D02*
X14906545Y-11413323D01*
X14887498Y-11384751D01*
X14877974Y-11365704D01*
X14868450Y-11337132D01*
X14858926Y-11289513D01*
X14858926Y-11251418D01*
X14868450Y-11203799D01*
X14877974Y-11175228D01*
X14887498Y-11156180D01*
X14906545Y-11127609D01*
X14916069Y-11118085D01*
X14992260Y-11213323D02*
X14992260Y-11346656D01*
X14992260Y-11232370D02*
X15001784Y-11222847D01*
X15020831Y-11213323D01*
X15049403Y-11213323D01*
X15068450Y-11222847D01*
X15077974Y-11241894D01*
X15077974Y-11346656D01*
X15201784Y-11346656D02*
X15182736Y-11337132D01*
X15173212Y-11327608D01*
X15163688Y-11308561D01*
X15163688Y-11251418D01*
X15173212Y-11232370D01*
X15182736Y-11222847D01*
X15201784Y-11213323D01*
X15230355Y-11213323D01*
X15249403Y-11222847D01*
X15258926Y-11232370D01*
X15268450Y-11251418D01*
X15268450Y-11308561D01*
X15258926Y-11327608D01*
X15249403Y-11337132D01*
X15230355Y-11346656D01*
X15201784Y-11346656D01*
X15325593Y-11213323D02*
X15401784Y-11213323D01*
X15354164Y-11146656D02*
X15354164Y-11318085D01*
X15363688Y-11337132D01*
X15382736Y-11346656D01*
X15401784Y-11346656D01*
X15620831Y-11213323D02*
X15620831Y-11413323D01*
X15620831Y-11222847D02*
X15639879Y-11213323D01*
X15677974Y-11213323D01*
X15697022Y-11222847D01*
X15706545Y-11232370D01*
X15716069Y-11251418D01*
X15716069Y-11308561D01*
X15706545Y-11327608D01*
X15697022Y-11337132D01*
X15677974Y-11346656D01*
X15639879Y-11346656D01*
X15620831Y-11337132D01*
X15830355Y-11346656D02*
X15811307Y-11337132D01*
X15801784Y-11318085D01*
X15801784Y-11146656D01*
X15992260Y-11346656D02*
X15992260Y-11241894D01*
X15982736Y-11222847D01*
X15963688Y-11213323D01*
X15925593Y-11213323D01*
X15906545Y-11222847D01*
X15992260Y-11337132D02*
X15973212Y-11346656D01*
X15925593Y-11346656D01*
X15906545Y-11337132D01*
X15897022Y-11318085D01*
X15897022Y-11299037D01*
X15906545Y-11279989D01*
X15925593Y-11270466D01*
X15973212Y-11270466D01*
X15992260Y-11260942D01*
X16058926Y-11213323D02*
X16135117Y-11213323D01*
X16087498Y-11146656D02*
X16087498Y-11318085D01*
X16097022Y-11337132D01*
X16116069Y-11346656D01*
X16135117Y-11346656D01*
X16277974Y-11337132D02*
X16258926Y-11346656D01*
X16220831Y-11346656D01*
X16201784Y-11337132D01*
X16192260Y-11318085D01*
X16192260Y-11241894D01*
X16201784Y-11222847D01*
X16220831Y-11213323D01*
X16258926Y-11213323D01*
X16277974Y-11222847D01*
X16287498Y-11241894D01*
X16287498Y-11260942D01*
X16192260Y-11279989D01*
X16458926Y-11346656D02*
X16458926Y-11146656D01*
X16458926Y-11337132D02*
X16439879Y-11346656D01*
X16401784Y-11346656D01*
X16382736Y-11337132D01*
X16373212Y-11327608D01*
X16363688Y-11308561D01*
X16363688Y-11251418D01*
X16373212Y-11232370D01*
X16382736Y-11222847D01*
X16401784Y-11213323D01*
X16439879Y-11213323D01*
X16458926Y-11222847D01*
X16535117Y-11422847D02*
X16544641Y-11413323D01*
X16563688Y-11384751D01*
X16573212Y-11365704D01*
X16582736Y-11337132D01*
X16592260Y-11289513D01*
X16592260Y-11251418D01*
X16582736Y-11203799D01*
X16573212Y-11175228D01*
X16563688Y-11156180D01*
X16544641Y-11127609D01*
X16535117Y-11118085D01*
X9682260Y-11476180D02*
X9682260Y-11676180D01*
X9582260Y-11576180D02*
X9782260Y-11576180D01*
X10020831Y-11466656D02*
X10144641Y-11466656D01*
X10077974Y-11542847D01*
X10106546Y-11542847D01*
X10125593Y-11552370D01*
X10135117Y-11561894D01*
X10144641Y-11580942D01*
X10144641Y-11628561D01*
X10135117Y-11647608D01*
X10125593Y-11657132D01*
X10106546Y-11666656D01*
X10049403Y-11666656D01*
X10030355Y-11657132D01*
X10020831Y-11647608D01*
X10230355Y-11647608D02*
X10239879Y-11657132D01*
X10230355Y-11666656D01*
X10220831Y-11657132D01*
X10230355Y-11647608D01*
X10230355Y-11666656D01*
X10335117Y-11666656D02*
X10373212Y-11666656D01*
X10392260Y-11657132D01*
X10401784Y-11647608D01*
X10420831Y-11619037D01*
X10430355Y-11580942D01*
X10430355Y-11504751D01*
X10420831Y-11485704D01*
X10411307Y-11476180D01*
X10392260Y-11466656D01*
X10354165Y-11466656D01*
X10335117Y-11476180D01*
X10325593Y-11485704D01*
X10316069Y-11504751D01*
X10316069Y-11552370D01*
X10325593Y-11571418D01*
X10335117Y-11580942D01*
X10354165Y-11590466D01*
X10392260Y-11590466D01*
X10411307Y-11580942D01*
X10420831Y-11571418D01*
X10430355Y-11552370D01*
X10544641Y-11552370D02*
X10525593Y-11542847D01*
X10516069Y-11533323D01*
X10506546Y-11514275D01*
X10506546Y-11504751D01*
X10516069Y-11485704D01*
X10525593Y-11476180D01*
X10544641Y-11466656D01*
X10582736Y-11466656D01*
X10601784Y-11476180D01*
X10611307Y-11485704D01*
X10620831Y-11504751D01*
X10620831Y-11514275D01*
X10611307Y-11533323D01*
X10601784Y-11542847D01*
X10582736Y-11552370D01*
X10544641Y-11552370D01*
X10525593Y-11561894D01*
X10516069Y-11571418D01*
X10506546Y-11590466D01*
X10506546Y-11628561D01*
X10516069Y-11647608D01*
X10525593Y-11657132D01*
X10544641Y-11666656D01*
X10582736Y-11666656D01*
X10601784Y-11657132D01*
X10611307Y-11647608D01*
X10620831Y-11628561D01*
X10620831Y-11590466D01*
X10611307Y-11571418D01*
X10601784Y-11561894D01*
X10582736Y-11552370D01*
X10735117Y-11552370D02*
X10716069Y-11542847D01*
X10706546Y-11533323D01*
X10697022Y-11514275D01*
X10697022Y-11504751D01*
X10706546Y-11485704D01*
X10716069Y-11476180D01*
X10735117Y-11466656D01*
X10773212Y-11466656D01*
X10792260Y-11476180D01*
X10801784Y-11485704D01*
X10811307Y-11504751D01*
X10811307Y-11514275D01*
X10801784Y-11533323D01*
X10792260Y-11542847D01*
X10773212Y-11552370D01*
X10735117Y-11552370D01*
X10716069Y-11561894D01*
X10706546Y-11571418D01*
X10697022Y-11590466D01*
X10697022Y-11628561D01*
X10706546Y-11647608D01*
X10716069Y-11657132D01*
X10735117Y-11666656D01*
X10773212Y-11666656D01*
X10792260Y-11657132D01*
X10801784Y-11647608D01*
X10811307Y-11628561D01*
X10811307Y-11590466D01*
X10801784Y-11571418D01*
X10792260Y-11561894D01*
X10773212Y-11552370D01*
X10897022Y-11666656D02*
X10897022Y-11533323D01*
X10897022Y-11552370D02*
X10906546Y-11542847D01*
X10925593Y-11533323D01*
X10954165Y-11533323D01*
X10973212Y-11542847D01*
X10982736Y-11561894D01*
X10982736Y-11666656D01*
X10982736Y-11561894D02*
X10992260Y-11542847D01*
X11011307Y-11533323D01*
X11039879Y-11533323D01*
X11058926Y-11542847D01*
X11068450Y-11561894D01*
X11068450Y-11666656D01*
X11163688Y-11666656D02*
X11163688Y-11533323D01*
X11163688Y-11552370D02*
X11173212Y-11542847D01*
X11192260Y-11533323D01*
X11220831Y-11533323D01*
X11239879Y-11542847D01*
X11249403Y-11561894D01*
X11249403Y-11666656D01*
X11249403Y-11561894D02*
X11258926Y-11542847D01*
X11277974Y-11533323D01*
X11306545Y-11533323D01*
X11325593Y-11542847D01*
X11335117Y-11561894D01*
X11335117Y-11666656D01*
X11725593Y-11457132D02*
X11554164Y-11714275D01*
X11982736Y-11466656D02*
X12001784Y-11466656D01*
X12020831Y-11476180D01*
X12030355Y-11485704D01*
X12039879Y-11504751D01*
X12049403Y-11542847D01*
X12049403Y-11590466D01*
X12039879Y-11628561D01*
X12030355Y-11647608D01*
X12020831Y-11657132D01*
X12001784Y-11666656D01*
X11982736Y-11666656D01*
X11963688Y-11657132D01*
X11954164Y-11647608D01*
X11944641Y-11628561D01*
X11935117Y-11590466D01*
X11935117Y-11542847D01*
X11944641Y-11504751D01*
X11954164Y-11485704D01*
X11963688Y-11476180D01*
X11982736Y-11466656D01*
X12135117Y-11647608D02*
X12144641Y-11657132D01*
X12135117Y-11666656D01*
X12125593Y-11657132D01*
X12135117Y-11647608D01*
X12135117Y-11666656D01*
X12335117Y-11666656D02*
X12220831Y-11666656D01*
X12277974Y-11666656D02*
X12277974Y-11466656D01*
X12258926Y-11495228D01*
X12239879Y-11514275D01*
X12220831Y-11523799D01*
X12516069Y-11466656D02*
X12420831Y-11466656D01*
X12411307Y-11561894D01*
X12420831Y-11552370D01*
X12439879Y-11542847D01*
X12487498Y-11542847D01*
X12506545Y-11552370D01*
X12516069Y-11561894D01*
X12525593Y-11580942D01*
X12525593Y-11628561D01*
X12516069Y-11647608D01*
X12506545Y-11657132D01*
X12487498Y-11666656D01*
X12439879Y-11666656D01*
X12420831Y-11657132D01*
X12411307Y-11647608D01*
X12592260Y-11466656D02*
X12725593Y-11466656D01*
X12639879Y-11666656D01*
X12839879Y-11466656D02*
X12858926Y-11466656D01*
X12877974Y-11476180D01*
X12887498Y-11485704D01*
X12897022Y-11504751D01*
X12906545Y-11542847D01*
X12906545Y-11590466D01*
X12897022Y-11628561D01*
X12887498Y-11647608D01*
X12877974Y-11657132D01*
X12858926Y-11666656D01*
X12839879Y-11666656D01*
X12820831Y-11657132D01*
X12811307Y-11647608D01*
X12801784Y-11628561D01*
X12792260Y-11590466D01*
X12792260Y-11542847D01*
X12801784Y-11504751D01*
X12811307Y-11485704D01*
X12820831Y-11476180D01*
X12839879Y-11466656D01*
X12982736Y-11466656D02*
X12982736Y-11504751D01*
X13058926Y-11466656D02*
X13058926Y-11504751D01*
X13354164Y-11742847D02*
X13344641Y-11733323D01*
X13325593Y-11704751D01*
X13316069Y-11685704D01*
X13306545Y-11657132D01*
X13297022Y-11609513D01*
X13297022Y-11571418D01*
X13306545Y-11523799D01*
X13316069Y-11495228D01*
X13325593Y-11476180D01*
X13344641Y-11447608D01*
X13354164Y-11438085D01*
X13516069Y-11533323D02*
X13516069Y-11666656D01*
X13468450Y-11457132D02*
X13420831Y-11599989D01*
X13544641Y-11599989D01*
X13773212Y-11666656D02*
X13773212Y-11466656D01*
X13858926Y-11666656D02*
X13858926Y-11561894D01*
X13849403Y-11542847D01*
X13830355Y-11533323D01*
X13801784Y-11533323D01*
X13782736Y-11542847D01*
X13773212Y-11552370D01*
X13982736Y-11666656D02*
X13963688Y-11657132D01*
X13954164Y-11647608D01*
X13944641Y-11628561D01*
X13944641Y-11571418D01*
X13954164Y-11552370D01*
X13963688Y-11542847D01*
X13982736Y-11533323D01*
X14011307Y-11533323D01*
X14030355Y-11542847D01*
X14039879Y-11552370D01*
X14049403Y-11571418D01*
X14049403Y-11628561D01*
X14039879Y-11647608D01*
X14030355Y-11657132D01*
X14011307Y-11666656D01*
X13982736Y-11666656D01*
X14163688Y-11666656D02*
X14144641Y-11657132D01*
X14135117Y-11638085D01*
X14135117Y-11466656D01*
X14316069Y-11657132D02*
X14297022Y-11666656D01*
X14258926Y-11666656D01*
X14239879Y-11657132D01*
X14230355Y-11638085D01*
X14230355Y-11561894D01*
X14239879Y-11542847D01*
X14258926Y-11533323D01*
X14297022Y-11533323D01*
X14316069Y-11542847D01*
X14325593Y-11561894D01*
X14325593Y-11580942D01*
X14230355Y-11599989D01*
X14401784Y-11657132D02*
X14420831Y-11666656D01*
X14458926Y-11666656D01*
X14477974Y-11657132D01*
X14487498Y-11638085D01*
X14487498Y-11628561D01*
X14477974Y-11609513D01*
X14458926Y-11599989D01*
X14430355Y-11599989D01*
X14411307Y-11590466D01*
X14401784Y-11571418D01*
X14401784Y-11561894D01*
X14411307Y-11542847D01*
X14430355Y-11533323D01*
X14458926Y-11533323D01*
X14477974Y-11542847D01*
X14554164Y-11742847D02*
X14563688Y-11733323D01*
X14582736Y-11704751D01*
X14592260Y-11685704D01*
X14601784Y-11657132D01*
X14611307Y-11609513D01*
X14611307Y-11571418D01*
X14601784Y-11523799D01*
X14592260Y-11495228D01*
X14582736Y-11476180D01*
X14563688Y-11447608D01*
X14554164Y-11438085D01*
X14916069Y-11742847D02*
X14906545Y-11733323D01*
X14887498Y-11704751D01*
X14877974Y-11685704D01*
X14868450Y-11657132D01*
X14858926Y-11609513D01*
X14858926Y-11571418D01*
X14868450Y-11523799D01*
X14877974Y-11495228D01*
X14887498Y-11476180D01*
X14906545Y-11447608D01*
X14916069Y-11438085D01*
X14992260Y-11533323D02*
X14992260Y-11666656D01*
X14992260Y-11552370D02*
X15001784Y-11542847D01*
X15020831Y-11533323D01*
X15049403Y-11533323D01*
X15068450Y-11542847D01*
X15077974Y-11561894D01*
X15077974Y-11666656D01*
X15201784Y-11666656D02*
X15182736Y-11657132D01*
X15173212Y-11647608D01*
X15163688Y-11628561D01*
X15163688Y-11571418D01*
X15173212Y-11552370D01*
X15182736Y-11542847D01*
X15201784Y-11533323D01*
X15230355Y-11533323D01*
X15249403Y-11542847D01*
X15258926Y-11552370D01*
X15268450Y-11571418D01*
X15268450Y-11628561D01*
X15258926Y-11647608D01*
X15249403Y-11657132D01*
X15230355Y-11666656D01*
X15201784Y-11666656D01*
X15325593Y-11533323D02*
X15401784Y-11533323D01*
X15354164Y-11466656D02*
X15354164Y-11638085D01*
X15363688Y-11657132D01*
X15382736Y-11666656D01*
X15401784Y-11666656D01*
X15620831Y-11533323D02*
X15620831Y-11733323D01*
X15620831Y-11542847D02*
X15639879Y-11533323D01*
X15677974Y-11533323D01*
X15697022Y-11542847D01*
X15706545Y-11552370D01*
X15716069Y-11571418D01*
X15716069Y-11628561D01*
X15706545Y-11647608D01*
X15697022Y-11657132D01*
X15677974Y-11666656D01*
X15639879Y-11666656D01*
X15620831Y-11657132D01*
X15830355Y-11666656D02*
X15811307Y-11657132D01*
X15801784Y-11638085D01*
X15801784Y-11466656D01*
X15992260Y-11666656D02*
X15992260Y-11561894D01*
X15982736Y-11542847D01*
X15963688Y-11533323D01*
X15925593Y-11533323D01*
X15906545Y-11542847D01*
X15992260Y-11657132D02*
X15973212Y-11666656D01*
X15925593Y-11666656D01*
X15906545Y-11657132D01*
X15897022Y-11638085D01*
X15897022Y-11619037D01*
X15906545Y-11599989D01*
X15925593Y-11590466D01*
X15973212Y-11590466D01*
X15992260Y-11580942D01*
X16058926Y-11533323D02*
X16135117Y-11533323D01*
X16087498Y-11466656D02*
X16087498Y-11638085D01*
X16097022Y-11657132D01*
X16116069Y-11666656D01*
X16135117Y-11666656D01*
X16277974Y-11657132D02*
X16258926Y-11666656D01*
X16220831Y-11666656D01*
X16201784Y-11657132D01*
X16192260Y-11638085D01*
X16192260Y-11561894D01*
X16201784Y-11542847D01*
X16220831Y-11533323D01*
X16258926Y-11533323D01*
X16277974Y-11542847D01*
X16287498Y-11561894D01*
X16287498Y-11580942D01*
X16192260Y-11599989D01*
X16458926Y-11666656D02*
X16458926Y-11466656D01*
X16458926Y-11657132D02*
X16439879Y-11666656D01*
X16401784Y-11666656D01*
X16382736Y-11657132D01*
X16373212Y-11647608D01*
X16363688Y-11628561D01*
X16363688Y-11571418D01*
X16373212Y-11552370D01*
X16382736Y-11542847D01*
X16401784Y-11533323D01*
X16439879Y-11533323D01*
X16458926Y-11542847D01*
X16535117Y-11742847D02*
X16544641Y-11733323D01*
X16563688Y-11704751D01*
X16573212Y-11685704D01*
X16582736Y-11657132D01*
X16592260Y-11609513D01*
X16592260Y-11571418D01*
X16582736Y-11523799D01*
X16573212Y-11495228D01*
X16563688Y-11476180D01*
X16544641Y-11447608D01*
X16535117Y-11438085D01*
M02*
