G04 #@! TF.GenerationSoftware,KiCad,Pcbnew,6.0.11-2627ca5db0~126~ubuntu22.04.1*
G04 #@! TF.CreationDate,2024-05-05T17:07:34-04:00*
G04 #@! TF.ProjectId,io-board,696f2d62-6f61-4726-942e-6b696361645f,rev?*
G04 #@! TF.SameCoordinates,Original*
G04 #@! TF.FileFunction,Copper,L1,Top*
G04 #@! TF.FilePolarity,Positive*
%FSLAX46Y46*%
G04 Gerber Fmt 4.6, Leading zero omitted, Abs format (unit mm)*
G04 Created by KiCad (PCBNEW 6.0.11-2627ca5db0~126~ubuntu22.04.1) date 2024-05-05 17:07:34*
%MOMM*%
%LPD*%
G01*
G04 APERTURE LIST*
G04 Aperture macros list*
%AMRoundRect*
0 Rectangle with rounded corners*
0 $1 Rounding radius*
0 $2 $3 $4 $5 $6 $7 $8 $9 X,Y pos of 4 corners*
0 Add a 4 corners polygon primitive as box body*
4,1,4,$2,$3,$4,$5,$6,$7,$8,$9,$2,$3,0*
0 Add four circle primitives for the rounded corners*
1,1,$1+$1,$2,$3*
1,1,$1+$1,$4,$5*
1,1,$1+$1,$6,$7*
1,1,$1+$1,$8,$9*
0 Add four rect primitives between the rounded corners*
20,1,$1+$1,$2,$3,$4,$5,0*
20,1,$1+$1,$4,$5,$6,$7,0*
20,1,$1+$1,$6,$7,$8,$9,0*
20,1,$1+$1,$8,$9,$2,$3,0*%
G04 Aperture macros list end*
G04 #@! TA.AperFunction,SMDPad,CuDef*
%ADD10RoundRect,0.140000X-0.170000X0.140000X-0.170000X-0.140000X0.170000X-0.140000X0.170000X0.140000X0*%
G04 #@! TD*
G04 #@! TA.AperFunction,SMDPad,CuDef*
%ADD11RoundRect,0.250000X0.250000X2.500000X-0.250000X2.500000X-0.250000X-2.500000X0.250000X-2.500000X0*%
G04 #@! TD*
G04 #@! TA.AperFunction,SMDPad,CuDef*
%ADD12RoundRect,0.250000X0.550000X1.250000X-0.550000X1.250000X-0.550000X-1.250000X0.550000X-1.250000X0*%
G04 #@! TD*
G04 #@! TA.AperFunction,ComponentPad*
%ADD13C,5.600000*%
G04 #@! TD*
G04 #@! TA.AperFunction,SMDPad,CuDef*
%ADD14RoundRect,0.075000X-0.437500X-0.075000X0.437500X-0.075000X0.437500X0.075000X-0.437500X0.075000X0*%
G04 #@! TD*
G04 #@! TA.AperFunction,SMDPad,CuDef*
%ADD15RoundRect,0.075000X-0.075000X-0.437500X0.075000X-0.437500X0.075000X0.437500X-0.075000X0.437500X0*%
G04 #@! TD*
G04 #@! TA.AperFunction,SMDPad,CuDef*
%ADD16R,4.250000X4.250000*%
G04 #@! TD*
G04 #@! TA.AperFunction,ComponentPad*
%ADD17C,1.524000*%
G04 #@! TD*
G04 #@! TA.AperFunction,ComponentPad*
%ADD18O,2.900000X3.000000*%
G04 #@! TD*
G04 #@! TA.AperFunction,SMDPad,CuDef*
%ADD19R,2.550000X2.500000*%
G04 #@! TD*
G04 #@! TA.AperFunction,ViaPad*
%ADD20C,0.800000*%
G04 #@! TD*
G04 #@! TA.AperFunction,Conductor*
%ADD21C,0.200000*%
G04 #@! TD*
G04 #@! TA.AperFunction,Conductor*
%ADD22C,0.300000*%
G04 #@! TD*
G04 APERTURE END LIST*
D10*
X164250000Y-95270000D03*
X164250000Y-96230000D03*
D11*
X157750000Y-93500000D03*
X155750000Y-93500000D03*
X153750000Y-93500000D03*
X151750000Y-93500000D03*
X149750000Y-93500000D03*
D12*
X160150000Y-95750000D03*
X147350000Y-95750000D03*
D13*
X194372598Y-99740000D03*
D14*
X165615098Y-92680000D03*
X165615098Y-93330000D03*
X165615098Y-93980000D03*
X165615098Y-94630000D03*
X165615098Y-95280000D03*
X165615098Y-95930000D03*
X165615098Y-96580000D03*
D15*
X166502598Y-97467500D03*
X167152598Y-97467500D03*
X167802598Y-97467500D03*
X168452598Y-97467500D03*
X169102598Y-97467500D03*
X169752598Y-97467500D03*
X170402598Y-97467500D03*
D14*
X171290098Y-96580000D03*
X171290098Y-95930000D03*
X171290098Y-95280000D03*
X171290098Y-94630000D03*
X171290098Y-93980000D03*
X171290098Y-93330000D03*
X171290098Y-92680000D03*
D15*
X170402598Y-91792500D03*
X169752598Y-91792500D03*
X169102598Y-91792500D03*
X168452598Y-91792500D03*
X167802598Y-91792500D03*
X167152598Y-91792500D03*
X166502598Y-91792500D03*
D16*
X168452598Y-94630000D03*
D17*
X185972598Y-93660000D03*
X190972598Y-93660000D03*
X188472598Y-93660000D03*
X185972598Y-79160000D03*
X190972598Y-79160000D03*
D18*
X181872598Y-86160000D03*
X195072598Y-86160000D03*
D13*
X101372598Y-86230000D03*
D19*
X145112598Y-81130000D03*
X158962598Y-83670000D03*
X125912598Y-81130000D03*
X139762598Y-83670000D03*
X164322598Y-81130000D03*
X178172598Y-83670000D03*
X106732598Y-81129999D03*
X120582598Y-83669999D03*
D20*
X164272598Y-91910000D03*
X164272598Y-92910000D03*
X164272598Y-93910000D03*
X171172598Y-100410000D03*
X171172598Y-99010000D03*
X159002598Y-85860000D03*
X169072598Y-98710000D03*
X158072598Y-97410000D03*
X158922598Y-92990000D03*
X164172598Y-97210000D03*
X168452598Y-94630000D03*
X120582598Y-85810000D03*
X178212598Y-85700000D03*
X139812598Y-85810000D03*
X167072598Y-98810000D03*
X154672598Y-99989500D03*
X153517118Y-98665480D03*
X165972598Y-98810000D03*
D21*
X163272598Y-82210000D02*
X164322598Y-81160000D01*
X168432598Y-91407954D02*
X168024644Y-91000000D01*
X168000000Y-91000000D02*
X163272598Y-86272598D01*
X168024644Y-91000000D02*
X168000000Y-91000000D01*
X168452598Y-91792500D02*
X168432598Y-91772500D01*
X168432598Y-91772500D02*
X168432598Y-91407954D01*
X163272598Y-86272598D02*
X163272598Y-82210000D01*
X167802598Y-91792500D02*
X167802598Y-91427954D01*
X158012598Y-78710000D02*
X147562598Y-78710000D01*
X167802598Y-91427954D02*
X167374644Y-91000000D01*
X161262598Y-84900000D02*
X161262598Y-81960000D01*
X167374644Y-91000000D02*
X167362598Y-91000000D01*
X147562598Y-78710000D02*
X145112598Y-81160000D01*
X167362598Y-91000000D02*
X161262598Y-84900000D01*
X161262598Y-81960000D02*
X158012598Y-78710000D01*
X164272598Y-91910000D02*
X164845098Y-91910000D01*
X164845098Y-91910000D02*
X165615098Y-92680000D01*
X164272598Y-92910000D02*
X164472598Y-92910000D01*
X164472598Y-92910000D02*
X164892598Y-93330000D01*
X164892598Y-93330000D02*
X165615098Y-93330000D01*
X165545098Y-93910000D02*
X165615098Y-93980000D01*
X164272598Y-93910000D02*
X165545098Y-93910000D01*
X125372598Y-87010000D02*
X127492598Y-89130000D01*
X127492598Y-89130000D02*
X164929999Y-89130000D01*
X164929999Y-89130000D02*
X167152598Y-91352598D01*
X125912598Y-81180000D02*
X125372598Y-81720000D01*
X125372598Y-81720000D02*
X125372598Y-87010000D01*
X167152598Y-91352598D02*
X167152598Y-91792500D01*
X164772598Y-89510000D02*
X166502598Y-91240000D01*
X105972598Y-81930000D02*
X105972598Y-87510000D01*
X106732598Y-81170000D02*
X105972598Y-81930000D01*
X166502598Y-91240000D02*
X166502598Y-91792500D01*
X107972598Y-89510000D02*
X164772598Y-89510000D01*
X105972598Y-87510000D02*
X107972598Y-89510000D01*
X165585098Y-95310000D02*
X165615098Y-95280000D01*
D22*
X164252598Y-95280000D02*
X165555098Y-95280000D01*
D21*
X165615098Y-95930000D02*
X167152598Y-95930000D01*
X139762598Y-83720000D02*
X139762598Y-85760000D01*
X120582598Y-83710000D02*
X120582598Y-85810000D01*
X169102598Y-97467500D02*
X169102598Y-95280000D01*
X168452598Y-98090000D02*
X169072598Y-98710000D01*
X169102598Y-95280000D02*
X168452598Y-94630000D01*
X157602598Y-96940000D02*
X157602598Y-93180000D01*
X169752598Y-97467500D02*
X169752598Y-98030000D01*
X157602598Y-93180000D02*
X158732598Y-93180000D01*
X178212598Y-85700000D02*
X178212598Y-83740000D01*
X169752598Y-98030000D02*
X169072598Y-98710000D01*
X169752598Y-95930000D02*
X168452598Y-94630000D01*
X158732598Y-93180000D02*
X158922598Y-92990000D01*
X169102598Y-97467500D02*
X169102598Y-98680000D01*
X164172598Y-97210000D02*
X164172598Y-96220000D01*
X178212598Y-83740000D02*
X178172598Y-83700000D01*
X168452598Y-97467500D02*
X168452598Y-98090000D01*
X158072598Y-97410000D02*
X157602598Y-96940000D01*
X139762598Y-85760000D02*
X139812598Y-85810000D01*
X158962598Y-83700000D02*
X158962598Y-85820000D01*
X169752598Y-97467500D02*
X169752598Y-95930000D01*
X167152598Y-95930000D02*
X168452598Y-94630000D01*
X168452598Y-97467500D02*
X168452598Y-94630000D01*
X167782598Y-95182500D02*
X167782598Y-94817954D01*
X158962598Y-85820000D02*
X159002598Y-85860000D01*
X169102598Y-98680000D02*
X169072598Y-98710000D01*
X173072598Y-96810000D02*
X172842598Y-96580000D01*
X172842598Y-96580000D02*
X171290098Y-96580000D01*
X153602598Y-93180000D02*
X153602598Y-96140000D01*
X157172598Y-99710000D02*
X172072598Y-99710000D01*
X172072598Y-99710000D02*
X173072598Y-98710000D01*
X173072598Y-98710000D02*
X173072598Y-96810000D01*
X153602598Y-96140000D02*
X157172598Y-99710000D01*
X167072598Y-98810000D02*
X167072598Y-97547500D01*
X154672598Y-98410000D02*
X151602598Y-95340000D01*
X154672598Y-99989500D02*
X154672598Y-98410000D01*
X151602598Y-95340000D02*
X151602598Y-93180000D01*
X167072598Y-97547500D02*
X167152598Y-97467500D01*
X165972598Y-97997500D02*
X166502598Y-97467500D01*
X149602598Y-96140000D02*
X149602598Y-93180000D01*
X152128078Y-98665480D02*
X149602598Y-96140000D01*
X165972598Y-98810000D02*
X165972598Y-97997500D01*
X153517118Y-98665480D02*
X152128078Y-98665480D01*
G04 #@! TA.AperFunction,Conductor*
G36*
X197813719Y-75230002D02*
G01*
X197860212Y-75283658D01*
X197871598Y-75336000D01*
X197871598Y-100706202D01*
X197871368Y-100713810D01*
X197859648Y-100907554D01*
X197859608Y-100908186D01*
X197853042Y-101008369D01*
X197851249Y-101022834D01*
X197820477Y-101190752D01*
X197820154Y-101192444D01*
X197802066Y-101283382D01*
X197795243Y-101317683D01*
X197791959Y-101330586D01*
X197742780Y-101488407D01*
X197741798Y-101491424D01*
X197699106Y-101617189D01*
X197694693Y-101628398D01*
X197664269Y-101695999D01*
X197627736Y-101777172D01*
X197625870Y-101781131D01*
X197575457Y-101883358D01*
X197566183Y-101902164D01*
X197561008Y-101911614D01*
X197477165Y-102050307D01*
X197474124Y-102055090D01*
X197398629Y-102168076D01*
X197393050Y-102175780D01*
X197293426Y-102302940D01*
X197288973Y-102308311D01*
X197199118Y-102410771D01*
X197193481Y-102416788D01*
X197079382Y-102530887D01*
X197073379Y-102536511D01*
X196970884Y-102626396D01*
X196965551Y-102630818D01*
X196838378Y-102730451D01*
X196830690Y-102736019D01*
X196787178Y-102765093D01*
X196717710Y-102811510D01*
X196712892Y-102814574D01*
X196574203Y-102898414D01*
X196564756Y-102903586D01*
X196443758Y-102963256D01*
X196439787Y-102965128D01*
X196335159Y-103012217D01*
X196290990Y-103032096D01*
X196279780Y-103036509D01*
X196154049Y-103079189D01*
X196151034Y-103080171D01*
X195993185Y-103129359D01*
X195980282Y-103132643D01*
X195855014Y-103157560D01*
X195853331Y-103157881D01*
X195685434Y-103188650D01*
X195670986Y-103190441D01*
X195570748Y-103197011D01*
X195570245Y-103197043D01*
X195435050Y-103205221D01*
X195376369Y-103208770D01*
X195368762Y-103209000D01*
X99876717Y-103209000D01*
X99868476Y-103208730D01*
X99705712Y-103198061D01*
X99704964Y-103198010D01*
X99615147Y-103191586D01*
X99599555Y-103189486D01*
X99456975Y-103161125D01*
X99454773Y-103160667D01*
X99346805Y-103137180D01*
X99333087Y-103133372D01*
X99199244Y-103087939D01*
X99195771Y-103086703D01*
X99088501Y-103046693D01*
X99076832Y-103041655D01*
X98951469Y-102979832D01*
X98946832Y-102977423D01*
X98845111Y-102921879D01*
X98835495Y-102916057D01*
X98719923Y-102838835D01*
X98714441Y-102834957D01*
X98621103Y-102765085D01*
X98613545Y-102758957D01*
X98509277Y-102667516D01*
X98503260Y-102661880D01*
X98420717Y-102579338D01*
X98415080Y-102573319D01*
X98385311Y-102539373D01*
X98323641Y-102469052D01*
X98317505Y-102461484D01*
X98247664Y-102368187D01*
X98243767Y-102362680D01*
X98166544Y-102247107D01*
X98160722Y-102237491D01*
X98105178Y-102135771D01*
X98102759Y-102131113D01*
X98102010Y-102129593D01*
X98040948Y-102005772D01*
X98035898Y-101994077D01*
X97995919Y-101886890D01*
X97994662Y-101883358D01*
X97949226Y-101749508D01*
X97945418Y-101735790D01*
X97921931Y-101627820D01*
X97921473Y-101625618D01*
X97893757Y-101486279D01*
X97891336Y-101461788D01*
X97888188Y-97051448D01*
X146369500Y-97051448D01*
X146372348Y-97081579D01*
X146374893Y-97088826D01*
X146404183Y-97172230D01*
X146415241Y-97203719D01*
X146420837Y-97211296D01*
X146420838Y-97211297D01*
X146461721Y-97266648D01*
X146492152Y-97307848D01*
X146499727Y-97313443D01*
X146583582Y-97375379D01*
X146596281Y-97384759D01*
X146605168Y-97387880D01*
X146605170Y-97387881D01*
X146691472Y-97418188D01*
X146718421Y-97427652D01*
X146726063Y-97428374D01*
X146726066Y-97428375D01*
X146739813Y-97429674D01*
X146748552Y-97430500D01*
X147951448Y-97430500D01*
X147960187Y-97429674D01*
X147973934Y-97428375D01*
X147973937Y-97428374D01*
X147981579Y-97427652D01*
X148008528Y-97418188D01*
X148094830Y-97387881D01*
X148094832Y-97387880D01*
X148103719Y-97384759D01*
X148116419Y-97375379D01*
X148200273Y-97313443D01*
X148207848Y-97307848D01*
X148238279Y-97266648D01*
X148279162Y-97211297D01*
X148279163Y-97211296D01*
X148284759Y-97203719D01*
X148295818Y-97172230D01*
X148325107Y-97088826D01*
X148327652Y-97081579D01*
X148330500Y-97051448D01*
X148330500Y-94448552D01*
X148327652Y-94418421D01*
X148324516Y-94409492D01*
X148287881Y-94305170D01*
X148287880Y-94305168D01*
X148284759Y-94296281D01*
X148243039Y-94239796D01*
X148213443Y-94199727D01*
X148207848Y-94192152D01*
X148103719Y-94115241D01*
X148094832Y-94112120D01*
X148094830Y-94112119D01*
X147988826Y-94074893D01*
X147981579Y-94072348D01*
X147973937Y-94071626D01*
X147973934Y-94071625D01*
X147960187Y-94070326D01*
X147951448Y-94069500D01*
X146748552Y-94069500D01*
X146739813Y-94070326D01*
X146726066Y-94071625D01*
X146726063Y-94071626D01*
X146718421Y-94072348D01*
X146711174Y-94074893D01*
X146605170Y-94112119D01*
X146605168Y-94112120D01*
X146596281Y-94115241D01*
X146492152Y-94192152D01*
X146486557Y-94199727D01*
X146456962Y-94239796D01*
X146415241Y-94296281D01*
X146412120Y-94305168D01*
X146412119Y-94305170D01*
X146375484Y-94409492D01*
X146372348Y-94418421D01*
X146369500Y-94448552D01*
X146369500Y-97051448D01*
X97888188Y-97051448D01*
X97880397Y-86136222D01*
X98388520Y-86136222D01*
X98388615Y-86139852D01*
X98388615Y-86139853D01*
X98394565Y-86367066D01*
X98397518Y-86479824D01*
X98398028Y-86483410D01*
X98398029Y-86483418D01*
X98409552Y-86564379D01*
X98445948Y-86820116D01*
X98446867Y-86823619D01*
X98446868Y-86823624D01*
X98516816Y-87090248D01*
X98533170Y-87152586D01*
X98594978Y-87311115D01*
X98653598Y-87461467D01*
X98658027Y-87472828D01*
X98688447Y-87530282D01*
X98787203Y-87716798D01*
X98818864Y-87776596D01*
X98820921Y-87779589D01*
X99011493Y-88056873D01*
X99011499Y-88056880D01*
X99013550Y-88059865D01*
X99239503Y-88318881D01*
X99242188Y-88321324D01*
X99452327Y-88512535D01*
X99493730Y-88550209D01*
X99772860Y-88750784D01*
X100073193Y-88917948D01*
X100390750Y-89049484D01*
X100394244Y-89050479D01*
X100394246Y-89050480D01*
X100717819Y-89142652D01*
X100717824Y-89142653D01*
X100721320Y-89143649D01*
X100724901Y-89144235D01*
X100724908Y-89144237D01*
X101056943Y-89198610D01*
X101056947Y-89198610D01*
X101060523Y-89199196D01*
X101064149Y-89199367D01*
X101400235Y-89215216D01*
X101400236Y-89215216D01*
X101403862Y-89215387D01*
X101415640Y-89214584D01*
X101743156Y-89192257D01*
X101743164Y-89192256D01*
X101746787Y-89192009D01*
X101750363Y-89191346D01*
X101750365Y-89191346D01*
X102081187Y-89130032D01*
X102081191Y-89130031D01*
X102084752Y-89129371D01*
X102344428Y-89049484D01*
X102409800Y-89029373D01*
X102413278Y-89028303D01*
X102728010Y-88890145D01*
X102831796Y-88829498D01*
X103021637Y-88718564D01*
X103021639Y-88718563D01*
X103024777Y-88716729D01*
X103027686Y-88714545D01*
X103296738Y-88512535D01*
X103296742Y-88512532D01*
X103299645Y-88510352D01*
X103548971Y-88273750D01*
X103769451Y-88010060D01*
X103787509Y-87982570D01*
X103873005Y-87852414D01*
X103958161Y-87722775D01*
X104049527Y-87541114D01*
X104110974Y-87418941D01*
X104110977Y-87418933D01*
X104112601Y-87415705D01*
X104150772Y-87311399D01*
X104229476Y-87096330D01*
X104229477Y-87096326D01*
X104230724Y-87092919D01*
X104231569Y-87089397D01*
X104231572Y-87089389D01*
X104287357Y-86857026D01*
X104310964Y-86758696D01*
X104312008Y-86750066D01*
X104351922Y-86420243D01*
X104351923Y-86420236D01*
X104352258Y-86417464D01*
X104353696Y-86371720D01*
X104357167Y-86261259D01*
X104358149Y-86230000D01*
X104353906Y-86156411D01*
X104338572Y-85890469D01*
X104338571Y-85890464D01*
X104338363Y-85886849D01*
X104307229Y-85708459D01*
X104279891Y-85551820D01*
X104279889Y-85551813D01*
X104279267Y-85548247D01*
X104277511Y-85542317D01*
X104220786Y-85350817D01*
X104181646Y-85218681D01*
X104167477Y-85185461D01*
X104109754Y-85050133D01*
X104046791Y-84902519D01*
X104043225Y-84896266D01*
X103878283Y-84607092D01*
X103876492Y-84603952D01*
X103844895Y-84560937D01*
X103714660Y-84383645D01*
X103673005Y-84326938D01*
X103622137Y-84272197D01*
X103465253Y-84103371D01*
X103439027Y-84075148D01*
X103177659Y-83851919D01*
X102892367Y-83660211D01*
X102586931Y-83502563D01*
X102265400Y-83381067D01*
X101932034Y-83297331D01*
X101788814Y-83278476D01*
X101594858Y-83252941D01*
X101594850Y-83252940D01*
X101591254Y-83252467D01*
X101448377Y-83250222D01*
X101251218Y-83247125D01*
X101251214Y-83247125D01*
X101247576Y-83247068D01*
X101243962Y-83247429D01*
X101243956Y-83247429D01*
X101002232Y-83271556D01*
X100905555Y-83281206D01*
X100569724Y-83354429D01*
X100566297Y-83355602D01*
X100566291Y-83355604D01*
X100488170Y-83382351D01*
X100244535Y-83465766D01*
X99934298Y-83613742D01*
X99643125Y-83796394D01*
X99640289Y-83798666D01*
X99640282Y-83798671D01*
X99431747Y-83965739D01*
X99374874Y-84011303D01*
X99372331Y-84013873D01*
X99372323Y-84013880D01*
X99251140Y-84136340D01*
X99133103Y-84255620D01*
X99130862Y-84258478D01*
X98945724Y-84494594D01*
X98921015Y-84526106D01*
X98741422Y-84819176D01*
X98739895Y-84822466D01*
X98739890Y-84822475D01*
X98631016Y-85057025D01*
X98596703Y-85130945D01*
X98595563Y-85134392D01*
X98489916Y-85453837D01*
X98489913Y-85453847D01*
X98488777Y-85457283D01*
X98488041Y-85460838D01*
X98488040Y-85460841D01*
X98428278Y-85749422D01*
X98419075Y-85793862D01*
X98412442Y-85868188D01*
X98391087Y-86107464D01*
X98388520Y-86136222D01*
X97880397Y-86136222D01*
X97875918Y-79862222D01*
X105277098Y-79862222D01*
X105277099Y-82397775D01*
X105287571Y-82450427D01*
X105327465Y-82510132D01*
X105387170Y-82550026D01*
X105439821Y-82560499D01*
X105566098Y-82560499D01*
X105634219Y-82580501D01*
X105680712Y-82634157D01*
X105692098Y-82686499D01*
X105692098Y-87461467D01*
X105691948Y-87463515D01*
X105690300Y-87468314D01*
X105690737Y-87479941D01*
X105692009Y-87513827D01*
X105692098Y-87518555D01*
X105692098Y-87536090D01*
X105692939Y-87540602D01*
X105693119Y-87543386D01*
X105693784Y-87561108D01*
X105693785Y-87561111D01*
X105694221Y-87572735D01*
X105698813Y-87583425D01*
X105700351Y-87590248D01*
X105701729Y-87594784D01*
X105704241Y-87601294D01*
X105706371Y-87612728D01*
X105717929Y-87631478D01*
X105718122Y-87631792D01*
X105726629Y-87648168D01*
X105735469Y-87668743D01*
X105739215Y-87673304D01*
X105741411Y-87675500D01*
X105743462Y-87677762D01*
X105743199Y-87678001D01*
X105747281Y-87683165D01*
X105747285Y-87683161D01*
X105755098Y-87691778D01*
X105761203Y-87701682D01*
X105781092Y-87716806D01*
X105793911Y-87728000D01*
X107739935Y-89674024D01*
X107741280Y-89675582D01*
X107743507Y-89680138D01*
X107752035Y-89688049D01*
X107752036Y-89688050D01*
X107776906Y-89711120D01*
X107780311Y-89714400D01*
X107792703Y-89726792D01*
X107796494Y-89729392D01*
X107798559Y-89731205D01*
X107820116Y-89751203D01*
X107830920Y-89755513D01*
X107836834Y-89759252D01*
X107841001Y-89761477D01*
X107847396Y-89764311D01*
X107856987Y-89770890D01*
X107868305Y-89773576D01*
X107878771Y-89776060D01*
X107896368Y-89781625D01*
X107908914Y-89786630D01*
X107917171Y-89789924D01*
X107923045Y-89790500D01*
X107926126Y-89790500D01*
X107929196Y-89790650D01*
X107929179Y-89791004D01*
X107935720Y-89791769D01*
X107935720Y-89791763D01*
X107947338Y-89792331D01*
X107958659Y-89795018D01*
X107970188Y-89793449D01*
X107970189Y-89793449D01*
X107983400Y-89791651D01*
X108000391Y-89790500D01*
X164604221Y-89790500D01*
X164672342Y-89810502D01*
X164693316Y-89827405D01*
X166135193Y-91269282D01*
X166169219Y-91331594D01*
X166172098Y-91358377D01*
X166172099Y-92223500D01*
X166152097Y-92291621D01*
X166098441Y-92338114D01*
X166046099Y-92349500D01*
X165733475Y-92349500D01*
X165665354Y-92329498D01*
X165644380Y-92312595D01*
X165077761Y-91745976D01*
X165076416Y-91744418D01*
X165074189Y-91739862D01*
X165040790Y-91708880D01*
X165037385Y-91705600D01*
X165024993Y-91693208D01*
X165021205Y-91690609D01*
X165019124Y-91688782D01*
X165006106Y-91676706D01*
X164997580Y-91668797D01*
X164986778Y-91664488D01*
X164980875Y-91660756D01*
X164976692Y-91658522D01*
X164970303Y-91655691D01*
X164960709Y-91649109D01*
X164949389Y-91646423D01*
X164949387Y-91646422D01*
X164938922Y-91643939D01*
X164921321Y-91638373D01*
X164900525Y-91630076D01*
X164894651Y-91629500D01*
X164891567Y-91629500D01*
X164888500Y-91629350D01*
X164888517Y-91628997D01*
X164881973Y-91628231D01*
X164881973Y-91628237D01*
X164870360Y-91627669D01*
X164859037Y-91624982D01*
X164847507Y-91626551D01*
X164842719Y-91626317D01*
X164775657Y-91603010D01*
X164748913Y-91577171D01*
X164691644Y-91502536D01*
X164691641Y-91502533D01*
X164686615Y-91495983D01*
X164565353Y-91402934D01*
X164424139Y-91344442D01*
X164272598Y-91324491D01*
X164121057Y-91344442D01*
X163979844Y-91402934D01*
X163858581Y-91495983D01*
X163765532Y-91617246D01*
X163707040Y-91758459D01*
X163687089Y-91910000D01*
X163707040Y-92061541D01*
X163765532Y-92202754D01*
X163858581Y-92324017D01*
X163858773Y-92324164D01*
X163891019Y-92383217D01*
X163885954Y-92454032D01*
X163859394Y-92495359D01*
X163858581Y-92495983D01*
X163765532Y-92617246D01*
X163707040Y-92758459D01*
X163687089Y-92910000D01*
X163707040Y-93061541D01*
X163765532Y-93202754D01*
X163858581Y-93324017D01*
X163858773Y-93324164D01*
X163891019Y-93383217D01*
X163885954Y-93454032D01*
X163859394Y-93495359D01*
X163858581Y-93495983D01*
X163765532Y-93617246D01*
X163707040Y-93758459D01*
X163687089Y-93910000D01*
X163707040Y-94061541D01*
X163765532Y-94202754D01*
X163858581Y-94324017D01*
X163862684Y-94327165D01*
X163896021Y-94388224D01*
X163890954Y-94459040D01*
X163848405Y-94515874D01*
X163822938Y-94530641D01*
X163813782Y-94534603D01*
X163686501Y-94609876D01*
X163674074Y-94619516D01*
X163569516Y-94724074D01*
X163559876Y-94736501D01*
X163484604Y-94863780D01*
X163478357Y-94878216D01*
X163443381Y-94998605D01*
X163443421Y-95012705D01*
X163450691Y-95016000D01*
X164985523Y-95016000D01*
X165053644Y-95036002D01*
X165100137Y-95089658D01*
X165106419Y-95106501D01*
X165112475Y-95127124D01*
X165113865Y-95128329D01*
X165121548Y-95130000D01*
X165639098Y-95130000D01*
X165707219Y-95150002D01*
X165753712Y-95203658D01*
X165765098Y-95256000D01*
X165765098Y-95304000D01*
X165745096Y-95372121D01*
X165691440Y-95418614D01*
X165639098Y-95430000D01*
X165126115Y-95430000D01*
X165110876Y-95434475D01*
X165099827Y-95447227D01*
X165078057Y-95487095D01*
X165015745Y-95521120D01*
X164988961Y-95524000D01*
X163456442Y-95524000D01*
X163442911Y-95527973D01*
X163441776Y-95535871D01*
X163478357Y-95661784D01*
X163484604Y-95676220D01*
X163559876Y-95803499D01*
X163569516Y-95815926D01*
X163674074Y-95920484D01*
X163686503Y-95930126D01*
X163698101Y-95936985D01*
X163746552Y-95988879D01*
X163759442Y-96052446D01*
X163759500Y-96052446D01*
X163759500Y-96407554D01*
X163765645Y-96454231D01*
X163769719Y-96462967D01*
X163769719Y-96462968D01*
X163807661Y-96544333D01*
X163813412Y-96556667D01*
X163823423Y-96566678D01*
X163825772Y-96570980D01*
X163827529Y-96573489D01*
X163827249Y-96573685D01*
X163857449Y-96628990D01*
X163852384Y-96699805D01*
X163811033Y-96755735D01*
X163758581Y-96795983D01*
X163665532Y-96917246D01*
X163607040Y-97058459D01*
X163587089Y-97210000D01*
X163607040Y-97361541D01*
X163665532Y-97502754D01*
X163710641Y-97561541D01*
X163753552Y-97617464D01*
X163753555Y-97617467D01*
X163758581Y-97624017D01*
X163765131Y-97629043D01*
X163765132Y-97629044D01*
X163869731Y-97709307D01*
X163879843Y-97717066D01*
X164021057Y-97775558D01*
X164172598Y-97795509D01*
X164324139Y-97775558D01*
X164465353Y-97717066D01*
X164475465Y-97709307D01*
X164580064Y-97629044D01*
X164580065Y-97629043D01*
X164586615Y-97624017D01*
X164591641Y-97617467D01*
X164591644Y-97617464D01*
X164634555Y-97561541D01*
X164679664Y-97502754D01*
X164738156Y-97361541D01*
X164758107Y-97210000D01*
X164738156Y-97058459D01*
X164679664Y-96917246D01*
X164593021Y-96804331D01*
X164567421Y-96738112D01*
X164581686Y-96668563D01*
X164608411Y-96638332D01*
X164606667Y-96636588D01*
X164686588Y-96556667D01*
X164691246Y-96546678D01*
X164692888Y-96544333D01*
X164748347Y-96500006D01*
X164818967Y-96492699D01*
X164882326Y-96524732D01*
X164918309Y-96585935D01*
X164922099Y-96616604D01*
X164922099Y-96680166D01*
X164923306Y-96686233D01*
X164923306Y-96686236D01*
X164927190Y-96705764D01*
X164936922Y-96754691D01*
X164993392Y-96839206D01*
X165077907Y-96895676D01*
X165152431Y-96910500D01*
X165303675Y-96910500D01*
X166046098Y-96910499D01*
X166114219Y-96930501D01*
X166160712Y-96984157D01*
X166172098Y-97036499D01*
X166172098Y-97349123D01*
X166152096Y-97417244D01*
X166135193Y-97438218D01*
X165808574Y-97764837D01*
X165807016Y-97766182D01*
X165802460Y-97768409D01*
X165794549Y-97776937D01*
X165794548Y-97776938D01*
X165771478Y-97801808D01*
X165768198Y-97805213D01*
X165755806Y-97817605D01*
X165753207Y-97821393D01*
X165751384Y-97823470D01*
X165731395Y-97845018D01*
X165727086Y-97855820D01*
X165723354Y-97861723D01*
X165721120Y-97865906D01*
X165718289Y-97872295D01*
X165711707Y-97881889D01*
X165709021Y-97893209D01*
X165709020Y-97893211D01*
X165706537Y-97903676D01*
X165700971Y-97921276D01*
X165692674Y-97942073D01*
X165692098Y-97947947D01*
X165692098Y-97951031D01*
X165691948Y-97954098D01*
X165691595Y-97954081D01*
X165690829Y-97960625D01*
X165690835Y-97960625D01*
X165690267Y-97972238D01*
X165687580Y-97983561D01*
X165689149Y-97995090D01*
X165689149Y-97995091D01*
X165690947Y-98008302D01*
X165692098Y-98025293D01*
X165692098Y-98231396D01*
X165672096Y-98299517D01*
X165642807Y-98331354D01*
X165558581Y-98395983D01*
X165465532Y-98517246D01*
X165407040Y-98658459D01*
X165387089Y-98810000D01*
X165407040Y-98961541D01*
X165465532Y-99102754D01*
X165515229Y-99167520D01*
X165558581Y-99224017D01*
X165556580Y-99225552D01*
X165584519Y-99276717D01*
X165579454Y-99347532D01*
X165536907Y-99404368D01*
X165470387Y-99429179D01*
X165461398Y-99429500D01*
X157340974Y-99429500D01*
X157272853Y-99409498D01*
X157251879Y-99392595D01*
X154324770Y-96465485D01*
X154290744Y-96403173D01*
X154295809Y-96332357D01*
X154312514Y-96301531D01*
X154379162Y-96211297D01*
X154379163Y-96211296D01*
X154384759Y-96203719D01*
X154400904Y-96157747D01*
X154425107Y-96088826D01*
X154427652Y-96081579D01*
X154430500Y-96051448D01*
X154430500Y-96047095D01*
X154742001Y-96047095D01*
X154742338Y-96053614D01*
X154752257Y-96149206D01*
X154755149Y-96162600D01*
X154806588Y-96316784D01*
X154812761Y-96329962D01*
X154898063Y-96467807D01*
X154907099Y-96479208D01*
X155021829Y-96593739D01*
X155033240Y-96602751D01*
X155171243Y-96687816D01*
X155184424Y-96693963D01*
X155338710Y-96745138D01*
X155352086Y-96748005D01*
X155446438Y-96757672D01*
X155452854Y-96758000D01*
X155477885Y-96758000D01*
X155493124Y-96753525D01*
X155494329Y-96752135D01*
X155496000Y-96744452D01*
X155496000Y-96739884D01*
X156004000Y-96739884D01*
X156008475Y-96755123D01*
X156009865Y-96756328D01*
X156017548Y-96757999D01*
X156047095Y-96757999D01*
X156053614Y-96757662D01*
X156149206Y-96747743D01*
X156162600Y-96744851D01*
X156316784Y-96693412D01*
X156329962Y-96687239D01*
X156467807Y-96601937D01*
X156479208Y-96592901D01*
X156593739Y-96478171D01*
X156602751Y-96466760D01*
X156687816Y-96328757D01*
X156693963Y-96315576D01*
X156745138Y-96161290D01*
X156748005Y-96147914D01*
X156757672Y-96053562D01*
X156757780Y-96051448D01*
X157069500Y-96051448D01*
X157072348Y-96081579D01*
X157074893Y-96088826D01*
X157099097Y-96157747D01*
X157115241Y-96203719D01*
X157120837Y-96211296D01*
X157120838Y-96211297D01*
X157186557Y-96300273D01*
X157192152Y-96307848D01*
X157270958Y-96366055D01*
X157313868Y-96422615D01*
X157322098Y-96467405D01*
X157322098Y-96891467D01*
X157321948Y-96893515D01*
X157320300Y-96898314D01*
X157321509Y-96930501D01*
X157322009Y-96943827D01*
X157322098Y-96948555D01*
X157322098Y-96966090D01*
X157322939Y-96970602D01*
X157323119Y-96973386D01*
X157323784Y-96991108D01*
X157323785Y-96991111D01*
X157324221Y-97002735D01*
X157328813Y-97013425D01*
X157330351Y-97020248D01*
X157331729Y-97024784D01*
X157334241Y-97031294D01*
X157336371Y-97042728D01*
X157346068Y-97058459D01*
X157348122Y-97061792D01*
X157356629Y-97078168D01*
X157365469Y-97098743D01*
X157369215Y-97103304D01*
X157371411Y-97105500D01*
X157373462Y-97107762D01*
X157373199Y-97108001D01*
X157377281Y-97113165D01*
X157377285Y-97113161D01*
X157385098Y-97121778D01*
X157391203Y-97131682D01*
X157411092Y-97146806D01*
X157423911Y-97158000D01*
X157465119Y-97199208D01*
X157499145Y-97261520D01*
X157500946Y-97304748D01*
X157487089Y-97410000D01*
X157507040Y-97561541D01*
X157565532Y-97702754D01*
X157611793Y-97763042D01*
X157653552Y-97817464D01*
X157653555Y-97817467D01*
X157658581Y-97824017D01*
X157665131Y-97829043D01*
X157665132Y-97829044D01*
X157707720Y-97861723D01*
X157779843Y-97917066D01*
X157921057Y-97975558D01*
X158072598Y-97995509D01*
X158224139Y-97975558D01*
X158365353Y-97917066D01*
X158437476Y-97861723D01*
X158480064Y-97829044D01*
X158480065Y-97829043D01*
X158486615Y-97824017D01*
X158491641Y-97817467D01*
X158491644Y-97817464D01*
X158533403Y-97763042D01*
X158579664Y-97702754D01*
X158638156Y-97561541D01*
X158658107Y-97410000D01*
X158638156Y-97258459D01*
X158579664Y-97117246D01*
X158529175Y-97051448D01*
X159169500Y-97051448D01*
X159172348Y-97081579D01*
X159174893Y-97088826D01*
X159204183Y-97172230D01*
X159215241Y-97203719D01*
X159220837Y-97211296D01*
X159220838Y-97211297D01*
X159261721Y-97266648D01*
X159292152Y-97307848D01*
X159299727Y-97313443D01*
X159383582Y-97375379D01*
X159396281Y-97384759D01*
X159405168Y-97387880D01*
X159405170Y-97387881D01*
X159491472Y-97418188D01*
X159518421Y-97427652D01*
X159526063Y-97428374D01*
X159526066Y-97428375D01*
X159539813Y-97429674D01*
X159548552Y-97430500D01*
X160751448Y-97430500D01*
X160760187Y-97429674D01*
X160773934Y-97428375D01*
X160773937Y-97428374D01*
X160781579Y-97427652D01*
X160808528Y-97418188D01*
X160894830Y-97387881D01*
X160894832Y-97387880D01*
X160903719Y-97384759D01*
X160916419Y-97375379D01*
X161000273Y-97313443D01*
X161007848Y-97307848D01*
X161038279Y-97266648D01*
X161079162Y-97211297D01*
X161079163Y-97211296D01*
X161084759Y-97203719D01*
X161095818Y-97172230D01*
X161125107Y-97088826D01*
X161127652Y-97081579D01*
X161130500Y-97051448D01*
X161130500Y-94448552D01*
X161127652Y-94418421D01*
X161124516Y-94409492D01*
X161087881Y-94305170D01*
X161087880Y-94305168D01*
X161084759Y-94296281D01*
X161043039Y-94239796D01*
X161013443Y-94199727D01*
X161007848Y-94192152D01*
X160903719Y-94115241D01*
X160894832Y-94112120D01*
X160894830Y-94112119D01*
X160788826Y-94074893D01*
X160781579Y-94072348D01*
X160773937Y-94071626D01*
X160773934Y-94071625D01*
X160760187Y-94070326D01*
X160751448Y-94069500D01*
X159548552Y-94069500D01*
X159539813Y-94070326D01*
X159526066Y-94071625D01*
X159526063Y-94071626D01*
X159518421Y-94072348D01*
X159511174Y-94074893D01*
X159405170Y-94112119D01*
X159405168Y-94112120D01*
X159396281Y-94115241D01*
X159292152Y-94192152D01*
X159286557Y-94199727D01*
X159256962Y-94239796D01*
X159215241Y-94296281D01*
X159212120Y-94305168D01*
X159212119Y-94305170D01*
X159175484Y-94409492D01*
X159172348Y-94418421D01*
X159169500Y-94448552D01*
X159169500Y-97051448D01*
X158529175Y-97051448D01*
X158508715Y-97024784D01*
X158491644Y-97002536D01*
X158491641Y-97002533D01*
X158486615Y-96995983D01*
X158462118Y-96977185D01*
X158371903Y-96907960D01*
X158365353Y-96902934D01*
X158224139Y-96844442D01*
X158072598Y-96824491D01*
X158025544Y-96830686D01*
X157955396Y-96819747D01*
X157902297Y-96772619D01*
X157883098Y-96705764D01*
X157883098Y-96556500D01*
X157903100Y-96488379D01*
X157956756Y-96441886D01*
X158009098Y-96430500D01*
X158051448Y-96430500D01*
X158060187Y-96429674D01*
X158073934Y-96428375D01*
X158073937Y-96428374D01*
X158081579Y-96427652D01*
X158118076Y-96414835D01*
X158194830Y-96387881D01*
X158194832Y-96387880D01*
X158203719Y-96384759D01*
X158213848Y-96377278D01*
X158300273Y-96313443D01*
X158307848Y-96307848D01*
X158313443Y-96300273D01*
X158379162Y-96211297D01*
X158379163Y-96211296D01*
X158384759Y-96203719D01*
X158400904Y-96157747D01*
X158425107Y-96088826D01*
X158427652Y-96081579D01*
X158430500Y-96051448D01*
X158430500Y-93598969D01*
X158450502Y-93530848D01*
X158504158Y-93484355D01*
X158574432Y-93474251D01*
X158619500Y-93489850D01*
X158623292Y-93492039D01*
X158629843Y-93497066D01*
X158771057Y-93555558D01*
X158922598Y-93575509D01*
X159074139Y-93555558D01*
X159215353Y-93497066D01*
X159263006Y-93460500D01*
X159330064Y-93409044D01*
X159330065Y-93409043D01*
X159336615Y-93404017D01*
X159341641Y-93397467D01*
X159341644Y-93397464D01*
X159383139Y-93343386D01*
X159429664Y-93282754D01*
X159488156Y-93141541D01*
X159508107Y-92990000D01*
X159488156Y-92838459D01*
X159429664Y-92697246D01*
X159374132Y-92624876D01*
X159341644Y-92582536D01*
X159341641Y-92582533D01*
X159336615Y-92575983D01*
X159231065Y-92494990D01*
X159221903Y-92487960D01*
X159215353Y-92482934D01*
X159074139Y-92424442D01*
X158922598Y-92404491D01*
X158771057Y-92424442D01*
X158629844Y-92482934D01*
X158623290Y-92487963D01*
X158619502Y-92490150D01*
X158550507Y-92506889D01*
X158483414Y-92483670D01*
X158439526Y-92427863D01*
X158430500Y-92381032D01*
X158430500Y-90948552D01*
X158427652Y-90918421D01*
X158398699Y-90835976D01*
X158387881Y-90805170D01*
X158387880Y-90805168D01*
X158384759Y-90796281D01*
X158378138Y-90787316D01*
X158313443Y-90699727D01*
X158307848Y-90692152D01*
X158203719Y-90615241D01*
X158194832Y-90612120D01*
X158194830Y-90612119D01*
X158088826Y-90574893D01*
X158081579Y-90572348D01*
X158073937Y-90571626D01*
X158073934Y-90571625D01*
X158060187Y-90570326D01*
X158051448Y-90569500D01*
X157448552Y-90569500D01*
X157439813Y-90570326D01*
X157426066Y-90571625D01*
X157426063Y-90571626D01*
X157418421Y-90572348D01*
X157411174Y-90574893D01*
X157305170Y-90612119D01*
X157305168Y-90612120D01*
X157296281Y-90615241D01*
X157192152Y-90692152D01*
X157186557Y-90699727D01*
X157121863Y-90787316D01*
X157115241Y-90796281D01*
X157112120Y-90805168D01*
X157112119Y-90805170D01*
X157101301Y-90835976D01*
X157072348Y-90918421D01*
X157069500Y-90948552D01*
X157069500Y-96051448D01*
X156757780Y-96051448D01*
X156758000Y-96047146D01*
X156758000Y-93772115D01*
X156753525Y-93756876D01*
X156752135Y-93755671D01*
X156744452Y-93754000D01*
X156022115Y-93754000D01*
X156006876Y-93758475D01*
X156005671Y-93759865D01*
X156004000Y-93767548D01*
X156004000Y-96739884D01*
X155496000Y-96739884D01*
X155496000Y-93772115D01*
X155491525Y-93756876D01*
X155490135Y-93755671D01*
X155482452Y-93754000D01*
X154760116Y-93754000D01*
X154744877Y-93758475D01*
X154743672Y-93759865D01*
X154742001Y-93767548D01*
X154742001Y-96047095D01*
X154430500Y-96047095D01*
X154430500Y-93227885D01*
X154742000Y-93227885D01*
X154746475Y-93243124D01*
X154747865Y-93244329D01*
X154755548Y-93246000D01*
X155477885Y-93246000D01*
X155493124Y-93241525D01*
X155494329Y-93240135D01*
X155496000Y-93232452D01*
X155496000Y-93227885D01*
X156004000Y-93227885D01*
X156008475Y-93243124D01*
X156009865Y-93244329D01*
X156017548Y-93246000D01*
X156739884Y-93246000D01*
X156755123Y-93241525D01*
X156756328Y-93240135D01*
X156757999Y-93232452D01*
X156757999Y-90952905D01*
X156757662Y-90946386D01*
X156747743Y-90850794D01*
X156744851Y-90837400D01*
X156693412Y-90683216D01*
X156687239Y-90670038D01*
X156601937Y-90532193D01*
X156592901Y-90520792D01*
X156478171Y-90406261D01*
X156466760Y-90397249D01*
X156328757Y-90312184D01*
X156315576Y-90306037D01*
X156161290Y-90254862D01*
X156147914Y-90251995D01*
X156053562Y-90242328D01*
X156047145Y-90242000D01*
X156022115Y-90242000D01*
X156006876Y-90246475D01*
X156005671Y-90247865D01*
X156004000Y-90255548D01*
X156004000Y-93227885D01*
X155496000Y-93227885D01*
X155496000Y-90260116D01*
X155491525Y-90244877D01*
X155490135Y-90243672D01*
X155482452Y-90242001D01*
X155452905Y-90242001D01*
X155446386Y-90242338D01*
X155350794Y-90252257D01*
X155337400Y-90255149D01*
X155183216Y-90306588D01*
X155170038Y-90312761D01*
X155032193Y-90398063D01*
X155020792Y-90407099D01*
X154906261Y-90521829D01*
X154897249Y-90533240D01*
X154812184Y-90671243D01*
X154806037Y-90684424D01*
X154754862Y-90838710D01*
X154751995Y-90852086D01*
X154742328Y-90946438D01*
X154742000Y-90952855D01*
X154742000Y-93227885D01*
X154430500Y-93227885D01*
X154430500Y-90948552D01*
X154427652Y-90918421D01*
X154398699Y-90835976D01*
X154387881Y-90805170D01*
X154387880Y-90805168D01*
X154384759Y-90796281D01*
X154378138Y-90787316D01*
X154313443Y-90699727D01*
X154307848Y-90692152D01*
X154203719Y-90615241D01*
X154194832Y-90612120D01*
X154194830Y-90612119D01*
X154088826Y-90574893D01*
X154081579Y-90572348D01*
X154073937Y-90571626D01*
X154073934Y-90571625D01*
X154060187Y-90570326D01*
X154051448Y-90569500D01*
X153448552Y-90569500D01*
X153439813Y-90570326D01*
X153426066Y-90571625D01*
X153426063Y-90571626D01*
X153418421Y-90572348D01*
X153411174Y-90574893D01*
X153305170Y-90612119D01*
X153305168Y-90612120D01*
X153296281Y-90615241D01*
X153192152Y-90692152D01*
X153186557Y-90699727D01*
X153121863Y-90787316D01*
X153115241Y-90796281D01*
X153112120Y-90805168D01*
X153112119Y-90805170D01*
X153101301Y-90835976D01*
X153072348Y-90918421D01*
X153069500Y-90948552D01*
X153069500Y-96051448D01*
X153072348Y-96081579D01*
X153074434Y-96087520D01*
X153069539Y-96157747D01*
X153027096Y-96214660D01*
X152960621Y-96239591D01*
X152891220Y-96224626D01*
X152862309Y-96203024D01*
X152467405Y-95808120D01*
X152433379Y-95745808D01*
X152430500Y-95719025D01*
X152430500Y-90948552D01*
X152427652Y-90918421D01*
X152398699Y-90835976D01*
X152387881Y-90805170D01*
X152387880Y-90805168D01*
X152384759Y-90796281D01*
X152378138Y-90787316D01*
X152313443Y-90699727D01*
X152307848Y-90692152D01*
X152203719Y-90615241D01*
X152194832Y-90612120D01*
X152194830Y-90612119D01*
X152088826Y-90574893D01*
X152081579Y-90572348D01*
X152073937Y-90571626D01*
X152073934Y-90571625D01*
X152060187Y-90570326D01*
X152051448Y-90569500D01*
X151448552Y-90569500D01*
X151439813Y-90570326D01*
X151426066Y-90571625D01*
X151426063Y-90571626D01*
X151418421Y-90572348D01*
X151411174Y-90574893D01*
X151305170Y-90612119D01*
X151305168Y-90612120D01*
X151296281Y-90615241D01*
X151192152Y-90692152D01*
X151186557Y-90699727D01*
X151121863Y-90787316D01*
X151115241Y-90796281D01*
X151112120Y-90805168D01*
X151112119Y-90805170D01*
X151101301Y-90835976D01*
X151072348Y-90918421D01*
X151069500Y-90948552D01*
X151069500Y-96051448D01*
X151072348Y-96081579D01*
X151074893Y-96088826D01*
X151099097Y-96157747D01*
X151115241Y-96203719D01*
X151120837Y-96211296D01*
X151120838Y-96211297D01*
X151186557Y-96300273D01*
X151192152Y-96307848D01*
X151199727Y-96313443D01*
X151286153Y-96377278D01*
X151296281Y-96384759D01*
X151305168Y-96387880D01*
X151305170Y-96387881D01*
X151381924Y-96414835D01*
X151418421Y-96427652D01*
X151426063Y-96428374D01*
X151426066Y-96428375D01*
X151439813Y-96429674D01*
X151448552Y-96430500D01*
X152051448Y-96430500D01*
X152060187Y-96429674D01*
X152073934Y-96428375D01*
X152073937Y-96428374D01*
X152081579Y-96427652D01*
X152163677Y-96398821D01*
X152234574Y-96395121D01*
X152294519Y-96428608D01*
X153748422Y-97882511D01*
X153782448Y-97944823D01*
X153777383Y-98015638D01*
X153734836Y-98072474D01*
X153668316Y-98097285D01*
X153642881Y-98096528D01*
X153525307Y-98081049D01*
X153525306Y-98081049D01*
X153517118Y-98079971D01*
X153365577Y-98099922D01*
X153224364Y-98158414D01*
X153103101Y-98251463D01*
X153038474Y-98335686D01*
X152981139Y-98377551D01*
X152938514Y-98384980D01*
X152296455Y-98384980D01*
X152228334Y-98364978D01*
X152207360Y-98348075D01*
X150324770Y-96465485D01*
X150290744Y-96403173D01*
X150295809Y-96332358D01*
X150312514Y-96301531D01*
X150379162Y-96211297D01*
X150379163Y-96211296D01*
X150384759Y-96203719D01*
X150400904Y-96157747D01*
X150425107Y-96088826D01*
X150427652Y-96081579D01*
X150430500Y-96051448D01*
X150430500Y-90948552D01*
X150427652Y-90918421D01*
X150398699Y-90835976D01*
X150387881Y-90805170D01*
X150387880Y-90805168D01*
X150384759Y-90796281D01*
X150378138Y-90787316D01*
X150313443Y-90699727D01*
X150307848Y-90692152D01*
X150203719Y-90615241D01*
X150194832Y-90612120D01*
X150194830Y-90612119D01*
X150088826Y-90574893D01*
X150081579Y-90572348D01*
X150073937Y-90571626D01*
X150073934Y-90571625D01*
X150060187Y-90570326D01*
X150051448Y-90569500D01*
X149448552Y-90569500D01*
X149439813Y-90570326D01*
X149426066Y-90571625D01*
X149426063Y-90571626D01*
X149418421Y-90572348D01*
X149411174Y-90574893D01*
X149305170Y-90612119D01*
X149305168Y-90612120D01*
X149296281Y-90615241D01*
X149192152Y-90692152D01*
X149186557Y-90699727D01*
X149121863Y-90787316D01*
X149115241Y-90796281D01*
X149112120Y-90805168D01*
X149112119Y-90805170D01*
X149101301Y-90835976D01*
X149072348Y-90918421D01*
X149069500Y-90948552D01*
X149069500Y-96051448D01*
X149072348Y-96081579D01*
X149074893Y-96088826D01*
X149099097Y-96157747D01*
X149115241Y-96203719D01*
X149120837Y-96211296D01*
X149120838Y-96211297D01*
X149186557Y-96300273D01*
X149192152Y-96307848D01*
X149199727Y-96313443D01*
X149286153Y-96377278D01*
X149296281Y-96384759D01*
X149305168Y-96387880D01*
X149305170Y-96387881D01*
X149381924Y-96414835D01*
X149418421Y-96427652D01*
X149426063Y-96428374D01*
X149426066Y-96428375D01*
X149445600Y-96430221D01*
X149448552Y-96430500D01*
X149450159Y-96430500D01*
X149517048Y-96453616D01*
X149533102Y-96467191D01*
X151895415Y-98829504D01*
X151896760Y-98831062D01*
X151898987Y-98835618D01*
X151907515Y-98843529D01*
X151907516Y-98843530D01*
X151932386Y-98866600D01*
X151935791Y-98869880D01*
X151948183Y-98882272D01*
X151951971Y-98884871D01*
X151954048Y-98886694D01*
X151975596Y-98906683D01*
X151986398Y-98910992D01*
X151992301Y-98914724D01*
X151996484Y-98916958D01*
X152002873Y-98919789D01*
X152012467Y-98926371D01*
X152023787Y-98929057D01*
X152023789Y-98929058D01*
X152034254Y-98931541D01*
X152051854Y-98937107D01*
X152072651Y-98945404D01*
X152078525Y-98945980D01*
X152081609Y-98945980D01*
X152084676Y-98946130D01*
X152084659Y-98946483D01*
X152091203Y-98947249D01*
X152091203Y-98947243D01*
X152102816Y-98947811D01*
X152114139Y-98950498D01*
X152125668Y-98948929D01*
X152125669Y-98948929D01*
X152138880Y-98947131D01*
X152155871Y-98945980D01*
X152938514Y-98945980D01*
X153006635Y-98965982D01*
X153038472Y-98995271D01*
X153103101Y-99079497D01*
X153109651Y-99084523D01*
X153109652Y-99084524D01*
X153152580Y-99117464D01*
X153224363Y-99172546D01*
X153365577Y-99231038D01*
X153517118Y-99250989D01*
X153668659Y-99231038D01*
X153809873Y-99172546D01*
X153881656Y-99117464D01*
X153924584Y-99084524D01*
X153924585Y-99084523D01*
X153931135Y-99079497D01*
X153936161Y-99072947D01*
X153936164Y-99072944D01*
X153990022Y-99002754D01*
X154024184Y-98958234D01*
X154082676Y-98817021D01*
X154102627Y-98665480D01*
X154098963Y-98637647D01*
X154086070Y-98539717D01*
X154097009Y-98469569D01*
X154144137Y-98416470D01*
X154212491Y-98397280D01*
X154280369Y-98418091D01*
X154300087Y-98434176D01*
X154355193Y-98489282D01*
X154389219Y-98551594D01*
X154392098Y-98578377D01*
X154392098Y-99410896D01*
X154372096Y-99479017D01*
X154342807Y-99510854D01*
X154258581Y-99575483D01*
X154165532Y-99696746D01*
X154107040Y-99837959D01*
X154087089Y-99989500D01*
X154107040Y-100141041D01*
X154165532Y-100282254D01*
X154199500Y-100326522D01*
X154253552Y-100396964D01*
X154253555Y-100396967D01*
X154258581Y-100403517D01*
X154379843Y-100496566D01*
X154521057Y-100555058D01*
X154672598Y-100575009D01*
X154824139Y-100555058D01*
X154965353Y-100496566D01*
X155086615Y-100403517D01*
X155091641Y-100396967D01*
X155091644Y-100396964D01*
X155145696Y-100326522D01*
X155179664Y-100282254D01*
X155238156Y-100141041D01*
X155258107Y-99989500D01*
X155238156Y-99837959D01*
X155179664Y-99696746D01*
X155133139Y-99636114D01*
X155091644Y-99582036D01*
X155091641Y-99582033D01*
X155086615Y-99575483D01*
X155002393Y-99510856D01*
X154960526Y-99453517D01*
X154953098Y-99410894D01*
X154953098Y-98458534D01*
X154953248Y-98456485D01*
X154954896Y-98451686D01*
X154953187Y-98406162D01*
X154953098Y-98401435D01*
X154953098Y-98383910D01*
X154952258Y-98379400D01*
X154952078Y-98376627D01*
X154951641Y-98364978D01*
X154950976Y-98347265D01*
X154946384Y-98336578D01*
X154944848Y-98329759D01*
X154943470Y-98325225D01*
X154940955Y-98318706D01*
X154938825Y-98307272D01*
X154927073Y-98288206D01*
X154918569Y-98271835D01*
X154913239Y-98259430D01*
X154913238Y-98259428D01*
X154909727Y-98251257D01*
X154905981Y-98246696D01*
X154903791Y-98244506D01*
X154901734Y-98242238D01*
X154901997Y-98241999D01*
X154897915Y-98236835D01*
X154897911Y-98236839D01*
X154890098Y-98228222D01*
X154883993Y-98218318D01*
X154864104Y-98203194D01*
X154851285Y-98192000D01*
X153296976Y-96637691D01*
X153262950Y-96575379D01*
X153268015Y-96504564D01*
X153310562Y-96447728D01*
X153377082Y-96422917D01*
X153412175Y-96425459D01*
X153418421Y-96427652D01*
X153448552Y-96430500D01*
X153450159Y-96430500D01*
X153517048Y-96453616D01*
X153533102Y-96467191D01*
X156939935Y-99874024D01*
X156941280Y-99875582D01*
X156943507Y-99880138D01*
X156952035Y-99888049D01*
X156952036Y-99888050D01*
X156976906Y-99911120D01*
X156980311Y-99914400D01*
X156992703Y-99926792D01*
X156996491Y-99929391D01*
X156998568Y-99931214D01*
X157001403Y-99933845D01*
X157011588Y-99943293D01*
X157011591Y-99943295D01*
X157020116Y-99951203D01*
X157030921Y-99955514D01*
X157036833Y-99959251D01*
X157041006Y-99961479D01*
X157047392Y-99964309D01*
X157056986Y-99970890D01*
X157078785Y-99976063D01*
X157096363Y-99981623D01*
X157117171Y-99989924D01*
X157123045Y-99990500D01*
X157126129Y-99990500D01*
X157129196Y-99990650D01*
X157129179Y-99991004D01*
X157135720Y-99991769D01*
X157135720Y-99991763D01*
X157147338Y-99992331D01*
X157158659Y-99995018D01*
X157170188Y-99993449D01*
X157170189Y-99993449D01*
X157183400Y-99991651D01*
X157200391Y-99990500D01*
X172024065Y-99990500D01*
X172026113Y-99990650D01*
X172030912Y-99992298D01*
X172076425Y-99990589D01*
X172081153Y-99990500D01*
X172098688Y-99990500D01*
X172103200Y-99989659D01*
X172105984Y-99989479D01*
X172123706Y-99988814D01*
X172123709Y-99988813D01*
X172135333Y-99988377D01*
X172146023Y-99983785D01*
X172152846Y-99982247D01*
X172157382Y-99980869D01*
X172163892Y-99978357D01*
X172175326Y-99976227D01*
X172194390Y-99964476D01*
X172210766Y-99955969D01*
X172223169Y-99950640D01*
X172231341Y-99947129D01*
X172235902Y-99943383D01*
X172238098Y-99941187D01*
X172240360Y-99939136D01*
X172240599Y-99939399D01*
X172245763Y-99935317D01*
X172245759Y-99935313D01*
X172254376Y-99927500D01*
X172264280Y-99921395D01*
X172279404Y-99901506D01*
X172290598Y-99888687D01*
X172533063Y-99646222D01*
X191388520Y-99646222D01*
X191388615Y-99649852D01*
X191388615Y-99649853D01*
X191396274Y-99942305D01*
X191397518Y-99989824D01*
X191398028Y-99993410D01*
X191398029Y-99993418D01*
X191398257Y-99995018D01*
X191445948Y-100330116D01*
X191446867Y-100333619D01*
X191446868Y-100333624D01*
X191517517Y-100602919D01*
X191533170Y-100662586D01*
X191658027Y-100982828D01*
X191659731Y-100986046D01*
X191778204Y-101209802D01*
X191818864Y-101286596D01*
X191820921Y-101289589D01*
X192011493Y-101566873D01*
X192011499Y-101566880D01*
X192013550Y-101569865D01*
X192239503Y-101828881D01*
X192242188Y-101831324D01*
X192452327Y-102022535D01*
X192493730Y-102060209D01*
X192772860Y-102260784D01*
X193073193Y-102427948D01*
X193390750Y-102559484D01*
X193394244Y-102560479D01*
X193394246Y-102560480D01*
X193717819Y-102652652D01*
X193717824Y-102652653D01*
X193721320Y-102653649D01*
X193724901Y-102654235D01*
X193724908Y-102654237D01*
X194056943Y-102708610D01*
X194056947Y-102708610D01*
X194060523Y-102709196D01*
X194064149Y-102709367D01*
X194400235Y-102725216D01*
X194400236Y-102725216D01*
X194403862Y-102725387D01*
X194415640Y-102724584D01*
X194743156Y-102702257D01*
X194743164Y-102702256D01*
X194746787Y-102702009D01*
X194750363Y-102701346D01*
X194750365Y-102701346D01*
X195081187Y-102640032D01*
X195081191Y-102640031D01*
X195084752Y-102639371D01*
X195344428Y-102559484D01*
X195409800Y-102539373D01*
X195413278Y-102538303D01*
X195728010Y-102400145D01*
X195777031Y-102371500D01*
X196021637Y-102228564D01*
X196021639Y-102228563D01*
X196024777Y-102226729D01*
X196047725Y-102209499D01*
X196296738Y-102022535D01*
X196296742Y-102022532D01*
X196299645Y-102020352D01*
X196548971Y-101783750D01*
X196769451Y-101520060D01*
X196801729Y-101470922D01*
X196863806Y-101376417D01*
X196958161Y-101232775D01*
X197069591Y-101011221D01*
X197110974Y-100928941D01*
X197110977Y-100928933D01*
X197112601Y-100925705D01*
X197191538Y-100710000D01*
X197229476Y-100606330D01*
X197229477Y-100606326D01*
X197230724Y-100602919D01*
X197231569Y-100599397D01*
X197231572Y-100599389D01*
X197310117Y-100272225D01*
X197310118Y-100272221D01*
X197310964Y-100268696D01*
X197344465Y-99991861D01*
X197351922Y-99930243D01*
X197351923Y-99930236D01*
X197352258Y-99927464D01*
X197352722Y-99912722D01*
X197358061Y-99742797D01*
X197358149Y-99740000D01*
X197348663Y-99575483D01*
X197338572Y-99400469D01*
X197338571Y-99400464D01*
X197338363Y-99396849D01*
X197318941Y-99285568D01*
X197279891Y-99061820D01*
X197279889Y-99061813D01*
X197279267Y-99058247D01*
X197264771Y-99009307D01*
X197216331Y-98845777D01*
X197181646Y-98728681D01*
X197179624Y-98723939D01*
X197101046Y-98539717D01*
X197046791Y-98412519D01*
X197041096Y-98402533D01*
X196878283Y-98117092D01*
X196876492Y-98113952D01*
X196855539Y-98085427D01*
X196775623Y-97976636D01*
X196673005Y-97836938D01*
X196665670Y-97829044D01*
X196441494Y-97587803D01*
X196439027Y-97585148D01*
X196177659Y-97361919D01*
X195892367Y-97170211D01*
X195804533Y-97124876D01*
X195590151Y-97014225D01*
X195586931Y-97012563D01*
X195265400Y-96891067D01*
X194932034Y-96807331D01*
X194750767Y-96783467D01*
X194594858Y-96762941D01*
X194594850Y-96762940D01*
X194591254Y-96762467D01*
X194448377Y-96760222D01*
X194251218Y-96757125D01*
X194251214Y-96757125D01*
X194247576Y-96757068D01*
X194243962Y-96757429D01*
X194243956Y-96757429D01*
X194029006Y-96778884D01*
X193905555Y-96791206D01*
X193569724Y-96864429D01*
X193566297Y-96865602D01*
X193566291Y-96865604D01*
X193377304Y-96930309D01*
X193244535Y-96975766D01*
X192934298Y-97123742D01*
X192931219Y-97125673D01*
X192931218Y-97125674D01*
X192910419Y-97138721D01*
X192643125Y-97306394D01*
X192640289Y-97308666D01*
X192640282Y-97308671D01*
X192491770Y-97427652D01*
X192374874Y-97521303D01*
X192372331Y-97523873D01*
X192372323Y-97523880D01*
X192181151Y-97717066D01*
X192133103Y-97765620D01*
X192130862Y-97768478D01*
X191962216Y-97983561D01*
X191921015Y-98036106D01*
X191741422Y-98329176D01*
X191739895Y-98332466D01*
X191739890Y-98332475D01*
X191634992Y-98558459D01*
X191596703Y-98640945D01*
X191595563Y-98644392D01*
X191489916Y-98963837D01*
X191489913Y-98963847D01*
X191488777Y-98967283D01*
X191488041Y-98970838D01*
X191488040Y-98970841D01*
X191436699Y-99218757D01*
X191419075Y-99303862D01*
X191408119Y-99426621D01*
X191395282Y-99570461D01*
X191388520Y-99646222D01*
X172533063Y-99646222D01*
X173236622Y-98942663D01*
X173238180Y-98941318D01*
X173242736Y-98939091D01*
X173254536Y-98926371D01*
X173273718Y-98905692D01*
X173276998Y-98902287D01*
X173289390Y-98889895D01*
X173291989Y-98886107D01*
X173293816Y-98884026D01*
X173295541Y-98882167D01*
X173313801Y-98862482D01*
X173318110Y-98851680D01*
X173321842Y-98845777D01*
X173324078Y-98841589D01*
X173326907Y-98835206D01*
X173333489Y-98825611D01*
X173338663Y-98803808D01*
X173344223Y-98786230D01*
X173352522Y-98765427D01*
X173353098Y-98759553D01*
X173353098Y-98756469D01*
X173353248Y-98753402D01*
X173353602Y-98753419D01*
X173354368Y-98746878D01*
X173354362Y-98746878D01*
X173354930Y-98735260D01*
X173357617Y-98723939D01*
X173354249Y-98699191D01*
X173353098Y-98682200D01*
X173353098Y-96858527D01*
X173353248Y-96856483D01*
X173354895Y-96851686D01*
X173354040Y-96828891D01*
X173353187Y-96806188D01*
X173353098Y-96801461D01*
X173353098Y-96783910D01*
X173352257Y-96779395D01*
X173352077Y-96776613D01*
X173351412Y-96758892D01*
X173351411Y-96758889D01*
X173350975Y-96747265D01*
X173346383Y-96736575D01*
X173344845Y-96729752D01*
X173343467Y-96725216D01*
X173340955Y-96718706D01*
X173338825Y-96707272D01*
X173327074Y-96688208D01*
X173318567Y-96671832D01*
X173313238Y-96659429D01*
X173309727Y-96651257D01*
X173305981Y-96646696D01*
X173303785Y-96644500D01*
X173301734Y-96642238D01*
X173301997Y-96641999D01*
X173297915Y-96636835D01*
X173297911Y-96636839D01*
X173290098Y-96628222D01*
X173283993Y-96618318D01*
X173264104Y-96603194D01*
X173251285Y-96592000D01*
X173075261Y-96415976D01*
X173073916Y-96414418D01*
X173071689Y-96409862D01*
X173038290Y-96378880D01*
X173034885Y-96375600D01*
X173022493Y-96363208D01*
X173018705Y-96360609D01*
X173016624Y-96358782D01*
X173003606Y-96346706D01*
X172995080Y-96338797D01*
X172984278Y-96334488D01*
X172978375Y-96330756D01*
X172974192Y-96328522D01*
X172967803Y-96325691D01*
X172958209Y-96319109D01*
X172946889Y-96316423D01*
X172946887Y-96316422D01*
X172936422Y-96313939D01*
X172918821Y-96308373D01*
X172917505Y-96307848D01*
X172898025Y-96300076D01*
X172892151Y-96299500D01*
X172889067Y-96299500D01*
X172886000Y-96299350D01*
X172886017Y-96298997D01*
X172879473Y-96298231D01*
X172879473Y-96298237D01*
X172867860Y-96297669D01*
X172856537Y-96294982D01*
X172845008Y-96296551D01*
X172845007Y-96296551D01*
X172831796Y-96298349D01*
X172814805Y-96299500D01*
X172073534Y-96299500D01*
X172005413Y-96279498D01*
X171958920Y-96225842D01*
X171948816Y-96155568D01*
X171957125Y-96125283D01*
X171961381Y-96115007D01*
X171968274Y-96104691D01*
X171983098Y-96030167D01*
X171983097Y-95829834D01*
X171968274Y-95755309D01*
X171914615Y-95675001D01*
X171893401Y-95607248D01*
X171914615Y-95534999D01*
X171961380Y-95465009D01*
X171961380Y-95465008D01*
X171968274Y-95454691D01*
X171983098Y-95380167D01*
X171983097Y-95179834D01*
X171977164Y-95150002D01*
X171970695Y-95117482D01*
X171968274Y-95105309D01*
X171914615Y-95025001D01*
X171893401Y-94957248D01*
X171914615Y-94884999D01*
X171961380Y-94815009D01*
X171961380Y-94815008D01*
X171968274Y-94804691D01*
X171983098Y-94730167D01*
X171983097Y-94529834D01*
X171980321Y-94515874D01*
X171972557Y-94476844D01*
X171968274Y-94455309D01*
X171914615Y-94375001D01*
X171893401Y-94307248D01*
X171914615Y-94234999D01*
X171961380Y-94165009D01*
X171961380Y-94165008D01*
X171968274Y-94154691D01*
X171983098Y-94080167D01*
X171983097Y-93879834D01*
X171978563Y-93857036D01*
X171970695Y-93817482D01*
X171968274Y-93805309D01*
X171914615Y-93725001D01*
X171894263Y-93660000D01*
X185024906Y-93660000D01*
X185025596Y-93666565D01*
X185036690Y-93772115D01*
X185045615Y-93857036D01*
X185106838Y-94045461D01*
X185110141Y-94051183D01*
X185110142Y-94051184D01*
X185130378Y-94086233D01*
X185205899Y-94217039D01*
X185210317Y-94221946D01*
X185210318Y-94221947D01*
X185302222Y-94324017D01*
X185338468Y-94364272D01*
X185343810Y-94368153D01*
X185343812Y-94368155D01*
X185491640Y-94475558D01*
X185498752Y-94480725D01*
X185504780Y-94483409D01*
X185504782Y-94483410D01*
X185610864Y-94530641D01*
X185679745Y-94561309D01*
X185686194Y-94562680D01*
X185686198Y-94562681D01*
X185761955Y-94578783D01*
X185873537Y-94602500D01*
X186071659Y-94602500D01*
X186183241Y-94578783D01*
X186258998Y-94562681D01*
X186259002Y-94562680D01*
X186265451Y-94561309D01*
X186334332Y-94530641D01*
X186440414Y-94483410D01*
X186440416Y-94483409D01*
X186446444Y-94480725D01*
X186453556Y-94475558D01*
X186601384Y-94368155D01*
X186601386Y-94368153D01*
X186606728Y-94364272D01*
X186642974Y-94324017D01*
X186734878Y-94221947D01*
X186734879Y-94221946D01*
X186739297Y-94217039D01*
X186814818Y-94086233D01*
X186835054Y-94051184D01*
X186835055Y-94051183D01*
X186838358Y-94045461D01*
X186899581Y-93857036D01*
X186908507Y-93772115D01*
X186919600Y-93666565D01*
X186920290Y-93660000D01*
X187524906Y-93660000D01*
X187525596Y-93666565D01*
X187536690Y-93772115D01*
X187545615Y-93857036D01*
X187606838Y-94045461D01*
X187610141Y-94051183D01*
X187610142Y-94051184D01*
X187630378Y-94086233D01*
X187705899Y-94217039D01*
X187710317Y-94221946D01*
X187710318Y-94221947D01*
X187802222Y-94324017D01*
X187838468Y-94364272D01*
X187843810Y-94368153D01*
X187843812Y-94368155D01*
X187991640Y-94475558D01*
X187998752Y-94480725D01*
X188004780Y-94483409D01*
X188004782Y-94483410D01*
X188110864Y-94530641D01*
X188179745Y-94561309D01*
X188186194Y-94562680D01*
X188186198Y-94562681D01*
X188261955Y-94578783D01*
X188373537Y-94602500D01*
X188571659Y-94602500D01*
X188683241Y-94578783D01*
X188758998Y-94562681D01*
X188759002Y-94562680D01*
X188765451Y-94561309D01*
X188834332Y-94530641D01*
X188940414Y-94483410D01*
X188940416Y-94483409D01*
X188946444Y-94480725D01*
X188953556Y-94475558D01*
X189101384Y-94368155D01*
X189101386Y-94368153D01*
X189106728Y-94364272D01*
X189142974Y-94324017D01*
X189234878Y-94221947D01*
X189234879Y-94221946D01*
X189239297Y-94217039D01*
X189314818Y-94086233D01*
X189335054Y-94051184D01*
X189335055Y-94051183D01*
X189338358Y-94045461D01*
X189399581Y-93857036D01*
X189408507Y-93772115D01*
X189419600Y-93666565D01*
X189420290Y-93660000D01*
X190024906Y-93660000D01*
X190025596Y-93666565D01*
X190036690Y-93772115D01*
X190045615Y-93857036D01*
X190106838Y-94045461D01*
X190110141Y-94051183D01*
X190110142Y-94051184D01*
X190130378Y-94086233D01*
X190205899Y-94217039D01*
X190210317Y-94221946D01*
X190210318Y-94221947D01*
X190302222Y-94324017D01*
X190338468Y-94364272D01*
X190343810Y-94368153D01*
X190343812Y-94368155D01*
X190491640Y-94475558D01*
X190498752Y-94480725D01*
X190504780Y-94483409D01*
X190504782Y-94483410D01*
X190610864Y-94530641D01*
X190679745Y-94561309D01*
X190686194Y-94562680D01*
X190686198Y-94562681D01*
X190761955Y-94578783D01*
X190873537Y-94602500D01*
X191071659Y-94602500D01*
X191183241Y-94578783D01*
X191258998Y-94562681D01*
X191259002Y-94562680D01*
X191265451Y-94561309D01*
X191334332Y-94530641D01*
X191440414Y-94483410D01*
X191440416Y-94483409D01*
X191446444Y-94480725D01*
X191453556Y-94475558D01*
X191601384Y-94368155D01*
X191601386Y-94368153D01*
X191606728Y-94364272D01*
X191642974Y-94324017D01*
X191734878Y-94221947D01*
X191734879Y-94221946D01*
X191739297Y-94217039D01*
X191814818Y-94086233D01*
X191835054Y-94051184D01*
X191835055Y-94051183D01*
X191838358Y-94045461D01*
X191899581Y-93857036D01*
X191908507Y-93772115D01*
X191919600Y-93666565D01*
X191920290Y-93660000D01*
X191915027Y-93609924D01*
X191900271Y-93469527D01*
X191900271Y-93469525D01*
X191899581Y-93462964D01*
X191838358Y-93274539D01*
X191820221Y-93243124D01*
X191765977Y-93149172D01*
X191739297Y-93102961D01*
X191606728Y-92955728D01*
X191583988Y-92939206D01*
X191451786Y-92843156D01*
X191451785Y-92843155D01*
X191446444Y-92839275D01*
X191440416Y-92836591D01*
X191440414Y-92836590D01*
X191271477Y-92761374D01*
X191265451Y-92758691D01*
X191259002Y-92757320D01*
X191258998Y-92757319D01*
X191160813Y-92736450D01*
X191071659Y-92717500D01*
X190873537Y-92717500D01*
X190784383Y-92736450D01*
X190686198Y-92757319D01*
X190686194Y-92757320D01*
X190679745Y-92758691D01*
X190673719Y-92761374D01*
X190504782Y-92836590D01*
X190504780Y-92836591D01*
X190498752Y-92839275D01*
X190493411Y-92843155D01*
X190493410Y-92843156D01*
X190361209Y-92939206D01*
X190338468Y-92955728D01*
X190205899Y-93102961D01*
X190179219Y-93149172D01*
X190124976Y-93243124D01*
X190106838Y-93274539D01*
X190045615Y-93462964D01*
X190044925Y-93469525D01*
X190044925Y-93469527D01*
X190030169Y-93609924D01*
X190024906Y-93660000D01*
X189420290Y-93660000D01*
X189415027Y-93609924D01*
X189400271Y-93469527D01*
X189400271Y-93469525D01*
X189399581Y-93462964D01*
X189338358Y-93274539D01*
X189320221Y-93243124D01*
X189265977Y-93149172D01*
X189239297Y-93102961D01*
X189106728Y-92955728D01*
X189083988Y-92939206D01*
X188951786Y-92843156D01*
X188951785Y-92843155D01*
X188946444Y-92839275D01*
X188940416Y-92836591D01*
X188940414Y-92836590D01*
X188771477Y-92761374D01*
X188765451Y-92758691D01*
X188759002Y-92757320D01*
X188758998Y-92757319D01*
X188660813Y-92736450D01*
X188571659Y-92717500D01*
X188373537Y-92717500D01*
X188284383Y-92736450D01*
X188186198Y-92757319D01*
X188186194Y-92757320D01*
X188179745Y-92758691D01*
X188173719Y-92761374D01*
X188004782Y-92836590D01*
X188004780Y-92836591D01*
X187998752Y-92839275D01*
X187993411Y-92843155D01*
X187993410Y-92843156D01*
X187861209Y-92939206D01*
X187838468Y-92955728D01*
X187705899Y-93102961D01*
X187679219Y-93149172D01*
X187624976Y-93243124D01*
X187606838Y-93274539D01*
X187545615Y-93462964D01*
X187544925Y-93469525D01*
X187544925Y-93469527D01*
X187530169Y-93609924D01*
X187524906Y-93660000D01*
X186920290Y-93660000D01*
X186915027Y-93609924D01*
X186900271Y-93469527D01*
X186900271Y-93469525D01*
X186899581Y-93462964D01*
X186838358Y-93274539D01*
X186820221Y-93243124D01*
X186765977Y-93149172D01*
X186739297Y-93102961D01*
X186606728Y-92955728D01*
X186583988Y-92939206D01*
X186451786Y-92843156D01*
X186451785Y-92843155D01*
X186446444Y-92839275D01*
X186440416Y-92836591D01*
X186440414Y-92836590D01*
X186271477Y-92761374D01*
X186265451Y-92758691D01*
X186259002Y-92757320D01*
X186258998Y-92757319D01*
X186160813Y-92736450D01*
X186071659Y-92717500D01*
X185873537Y-92717500D01*
X185784383Y-92736450D01*
X185686198Y-92757319D01*
X185686194Y-92757320D01*
X185679745Y-92758691D01*
X185673719Y-92761374D01*
X185504782Y-92836590D01*
X185504780Y-92836591D01*
X185498752Y-92839275D01*
X185493411Y-92843155D01*
X185493410Y-92843156D01*
X185361209Y-92939206D01*
X185338468Y-92955728D01*
X185205899Y-93102961D01*
X185179219Y-93149172D01*
X185124976Y-93243124D01*
X185106838Y-93274539D01*
X185045615Y-93462964D01*
X185044925Y-93469525D01*
X185044925Y-93469527D01*
X185030169Y-93609924D01*
X185024906Y-93660000D01*
X171894263Y-93660000D01*
X171893401Y-93657248D01*
X171914615Y-93584999D01*
X171961380Y-93515009D01*
X171961380Y-93515008D01*
X171968274Y-93504691D01*
X171983098Y-93430167D01*
X171983097Y-93229834D01*
X171968274Y-93155309D01*
X171914615Y-93075001D01*
X171893401Y-93007248D01*
X171914615Y-92934999D01*
X171961380Y-92865009D01*
X171961380Y-92865008D01*
X171968274Y-92854691D01*
X171983098Y-92780167D01*
X171983097Y-92579834D01*
X171968274Y-92505309D01*
X171911804Y-92420794D01*
X171827289Y-92364324D01*
X171752765Y-92349500D01*
X171601521Y-92349500D01*
X170859098Y-92349501D01*
X170790977Y-92329499D01*
X170744484Y-92275843D01*
X170733098Y-92223501D01*
X170733097Y-91336022D01*
X170733097Y-91329834D01*
X170718274Y-91255309D01*
X170661804Y-91170794D01*
X170577289Y-91114324D01*
X170502765Y-91099500D01*
X170402615Y-91099500D01*
X170302432Y-91099501D01*
X170296365Y-91100708D01*
X170296362Y-91100708D01*
X170262075Y-91107528D01*
X170227907Y-91114324D01*
X170217587Y-91121219D01*
X170217588Y-91121219D01*
X170147599Y-91167983D01*
X170079846Y-91189197D01*
X170007597Y-91167983D01*
X169937607Y-91121218D01*
X169937606Y-91121218D01*
X169927289Y-91114324D01*
X169852765Y-91099500D01*
X169752615Y-91099500D01*
X169652432Y-91099501D01*
X169646365Y-91100708D01*
X169646362Y-91100708D01*
X169612075Y-91107528D01*
X169577907Y-91114324D01*
X169567587Y-91121219D01*
X169567588Y-91121219D01*
X169497599Y-91167983D01*
X169429846Y-91189197D01*
X169357597Y-91167983D01*
X169287607Y-91121218D01*
X169287606Y-91121218D01*
X169277289Y-91114324D01*
X169202765Y-91099500D01*
X169102615Y-91099500D01*
X169002432Y-91099501D01*
X168996365Y-91100708D01*
X168996362Y-91100708D01*
X168962075Y-91107528D01*
X168927907Y-91114324D01*
X168917587Y-91121219D01*
X168917588Y-91121219D01*
X168847599Y-91167983D01*
X168779846Y-91189197D01*
X168707597Y-91167983D01*
X168637607Y-91121218D01*
X168637606Y-91121218D01*
X168627289Y-91114324D01*
X168552765Y-91099500D01*
X168553222Y-91097204D01*
X168497057Y-91074528D01*
X168486139Y-91064808D01*
X168257307Y-90835976D01*
X168255962Y-90834418D01*
X168253735Y-90829862D01*
X168220336Y-90798880D01*
X168216931Y-90795600D01*
X168204539Y-90783208D01*
X168200751Y-90780609D01*
X168198670Y-90778782D01*
X168185652Y-90766706D01*
X168177126Y-90758797D01*
X168166324Y-90754488D01*
X168160421Y-90750756D01*
X168146036Y-90743075D01*
X168140260Y-90739113D01*
X168141171Y-90737785D01*
X168119838Y-90723151D01*
X163590003Y-86193316D01*
X163569600Y-86155952D01*
X164427509Y-86155952D01*
X164437226Y-86365895D01*
X164438630Y-86371720D01*
X164483577Y-86558219D01*
X164486467Y-86570212D01*
X164573455Y-86761532D01*
X164695051Y-86932951D01*
X164779535Y-87013827D01*
X164808809Y-87041850D01*
X164846868Y-87078284D01*
X165023428Y-87192288D01*
X165028994Y-87194531D01*
X165212792Y-87268604D01*
X165212795Y-87268605D01*
X165218361Y-87270848D01*
X165321322Y-87290955D01*
X165420185Y-87310262D01*
X165420188Y-87310262D01*
X165424631Y-87311130D01*
X165430152Y-87311400D01*
X165585109Y-87311400D01*
X165741815Y-87296449D01*
X165825161Y-87271998D01*
X165937730Y-87238974D01*
X165937732Y-87238973D01*
X165943483Y-87237286D01*
X165961513Y-87228000D01*
X166124994Y-87143802D01*
X166124997Y-87143800D01*
X166130325Y-87141056D01*
X166210239Y-87078283D01*
X166290883Y-87014937D01*
X166290888Y-87014933D01*
X166295600Y-87011231D01*
X166299533Y-87006699D01*
X166429413Y-86857027D01*
X166429417Y-86857022D01*
X166433344Y-86852496D01*
X166538586Y-86670577D01*
X166571543Y-86575673D01*
X166605561Y-86477710D01*
X166605561Y-86477709D01*
X166607530Y-86472040D01*
X166608427Y-86465855D01*
X166636826Y-86269988D01*
X166636826Y-86269985D01*
X166637687Y-86264048D01*
X166637366Y-86257108D01*
X168363668Y-86257108D01*
X168364031Y-86261256D01*
X168364031Y-86261260D01*
X168389289Y-86549964D01*
X168389290Y-86549972D01*
X168389654Y-86554130D01*
X168390568Y-86558218D01*
X168390568Y-86558219D01*
X168434795Y-86756076D01*
X168454695Y-86845105D01*
X168557648Y-87124923D01*
X168559595Y-87128616D01*
X168559596Y-87128618D01*
X168594348Y-87194530D01*
X168696704Y-87388666D01*
X168869420Y-87631701D01*
X168872264Y-87634751D01*
X168872269Y-87634757D01*
X169069911Y-87846702D01*
X169072762Y-87849759D01*
X169303157Y-88039008D01*
X169556558Y-88196123D01*
X169560370Y-88197836D01*
X169824695Y-88316629D01*
X169824701Y-88316631D01*
X169828512Y-88318344D01*
X169832518Y-88319538D01*
X169832520Y-88319539D01*
X169838508Y-88321324D01*
X170114242Y-88403523D01*
X170408727Y-88450165D01*
X170453999Y-88452221D01*
X170500567Y-88454336D01*
X170500586Y-88454336D01*
X170501986Y-88454400D01*
X170688223Y-88454400D01*
X170910099Y-88439663D01*
X171202372Y-88380730D01*
X171484284Y-88283660D01*
X171488017Y-88281791D01*
X171488021Y-88281789D01*
X171747138Y-88152033D01*
X171747140Y-88152032D01*
X171750882Y-88150158D01*
X171918340Y-88036354D01*
X171994022Y-87984921D01*
X171994025Y-87984919D01*
X171997481Y-87982570D01*
X172219749Y-87783839D01*
X172228712Y-87773382D01*
X172411062Y-87560631D01*
X172411065Y-87560627D01*
X172413782Y-87557457D01*
X172416056Y-87553955D01*
X172416060Y-87553950D01*
X172573890Y-87310913D01*
X172573893Y-87310908D01*
X172576169Y-87307403D01*
X172610768Y-87234539D01*
X172651345Y-87149083D01*
X172704059Y-87038068D01*
X172712676Y-87011231D01*
X172793924Y-86758172D01*
X172793924Y-86758171D01*
X172795204Y-86754185D01*
X172827323Y-86575673D01*
X172847263Y-86464850D01*
X172847264Y-86464845D01*
X172848002Y-86460741D01*
X172849744Y-86422397D01*
X172861339Y-86167062D01*
X172861339Y-86167056D01*
X172861528Y-86162892D01*
X172859974Y-86145124D01*
X172835907Y-85870036D01*
X172835906Y-85870028D01*
X172835542Y-85865870D01*
X172810781Y-85755095D01*
X172771415Y-85578983D01*
X172771414Y-85578980D01*
X172770501Y-85574895D01*
X172769056Y-85570966D01*
X172710586Y-85412050D01*
X172667548Y-85295077D01*
X172660995Y-85282647D01*
X172569380Y-85108885D01*
X172528492Y-85031334D01*
X172355776Y-84788299D01*
X172352932Y-84785249D01*
X172352927Y-84785243D01*
X172155284Y-84573297D01*
X172155282Y-84573295D01*
X172152434Y-84570241D01*
X171922039Y-84380992D01*
X171668638Y-84223877D01*
X171478023Y-84138211D01*
X171400501Y-84103371D01*
X171400495Y-84103369D01*
X171396684Y-84101656D01*
X171392678Y-84100462D01*
X171392676Y-84100461D01*
X171188043Y-84039458D01*
X171110954Y-84016477D01*
X170816469Y-83969835D01*
X170771197Y-83967779D01*
X170724629Y-83965664D01*
X170724610Y-83965664D01*
X170723210Y-83965600D01*
X170536973Y-83965600D01*
X170315097Y-83980337D01*
X170022824Y-84039270D01*
X169740912Y-84136340D01*
X169737179Y-84138209D01*
X169737175Y-84138211D01*
X169497007Y-84258478D01*
X169474314Y-84269842D01*
X169452369Y-84284756D01*
X169231176Y-84435078D01*
X169227715Y-84437430D01*
X169005447Y-84636161D01*
X169002730Y-84639331D01*
X169002729Y-84639332D01*
X168815039Y-84858314D01*
X168811414Y-84862543D01*
X168809140Y-84866045D01*
X168809136Y-84866050D01*
X168651307Y-85109086D01*
X168649027Y-85112597D01*
X168647233Y-85116376D01*
X168647232Y-85116377D01*
X168613290Y-85187858D01*
X168521137Y-85381932D01*
X168519858Y-85385915D01*
X168519857Y-85385918D01*
X168459183Y-85574895D01*
X168429992Y-85665815D01*
X168423841Y-85700000D01*
X168378159Y-85953898D01*
X168377194Y-85959259D01*
X168377005Y-85963426D01*
X168377004Y-85963433D01*
X168364772Y-86232797D01*
X168363668Y-86257108D01*
X166637366Y-86257108D01*
X166627970Y-86054105D01*
X166583609Y-85870035D01*
X166580135Y-85855621D01*
X166580134Y-85855619D01*
X166578729Y-85849788D01*
X166576246Y-85844325D01*
X166518194Y-85716648D01*
X166491741Y-85658468D01*
X166370145Y-85487049D01*
X166258538Y-85380209D01*
X166222658Y-85345861D01*
X166222657Y-85345860D01*
X166218328Y-85341716D01*
X166041768Y-85227712D01*
X165968666Y-85198251D01*
X165852404Y-85151396D01*
X165852401Y-85151395D01*
X165846835Y-85149152D01*
X165743874Y-85129045D01*
X165645011Y-85109738D01*
X165645008Y-85109738D01*
X165640565Y-85108870D01*
X165635044Y-85108600D01*
X165480087Y-85108600D01*
X165355349Y-85120501D01*
X165329366Y-85122980D01*
X165323381Y-85123551D01*
X165317627Y-85125239D01*
X165127466Y-85181026D01*
X165127464Y-85181027D01*
X165121713Y-85182714D01*
X165116381Y-85185460D01*
X165116379Y-85185461D01*
X164940202Y-85276198D01*
X164940199Y-85276200D01*
X164934871Y-85278944D01*
X164892677Y-85312088D01*
X164774313Y-85405063D01*
X164774308Y-85405067D01*
X164769596Y-85408769D01*
X164765665Y-85413299D01*
X164765664Y-85413300D01*
X164635783Y-85562973D01*
X164635779Y-85562978D01*
X164631852Y-85567504D01*
X164526610Y-85749423D01*
X164524641Y-85755092D01*
X164524640Y-85755095D01*
X164485368Y-85868188D01*
X164457666Y-85947960D01*
X164456805Y-85953897D01*
X164456805Y-85953898D01*
X164430370Y-86136222D01*
X164427509Y-86155952D01*
X163569600Y-86155952D01*
X163555977Y-86131004D01*
X163553098Y-86104221D01*
X163553098Y-83777165D01*
X172670464Y-83777165D01*
X172705550Y-84034970D01*
X172706858Y-84039456D01*
X172706858Y-84039458D01*
X172716574Y-84072793D01*
X172778356Y-84284757D01*
X172780316Y-84289010D01*
X172780317Y-84289011D01*
X172798101Y-84327587D01*
X172887284Y-84521039D01*
X172889844Y-84524944D01*
X172889847Y-84524949D01*
X173027373Y-84734712D01*
X173027377Y-84734717D01*
X173029939Y-84738625D01*
X173070271Y-84783813D01*
X173197653Y-84926532D01*
X173203189Y-84932735D01*
X173403227Y-85099105D01*
X173625659Y-85234080D01*
X173629973Y-85235889D01*
X173629975Y-85235890D01*
X173861284Y-85332886D01*
X173861289Y-85332888D01*
X173865599Y-85334695D01*
X173870131Y-85335846D01*
X173870134Y-85335847D01*
X173978059Y-85363256D01*
X174117775Y-85398739D01*
X174333884Y-85420500D01*
X174488642Y-85420500D01*
X174490967Y-85420327D01*
X174491000Y-85420326D01*
X174656517Y-85408025D01*
X174725933Y-85422923D01*
X174776274Y-85472985D01*
X174791558Y-85542317D01*
X174774920Y-85596771D01*
X174686610Y-85749423D01*
X174684641Y-85755092D01*
X174684640Y-85755095D01*
X174645368Y-85868188D01*
X174617666Y-85947960D01*
X174616805Y-85953897D01*
X174616805Y-85953898D01*
X174590370Y-86136222D01*
X174587509Y-86155952D01*
X174597226Y-86365895D01*
X174598630Y-86371720D01*
X174643577Y-86558219D01*
X174646467Y-86570212D01*
X174733455Y-86761532D01*
X174855051Y-86932951D01*
X174939535Y-87013827D01*
X174968809Y-87041850D01*
X175006868Y-87078284D01*
X175183428Y-87192288D01*
X175188994Y-87194531D01*
X175372792Y-87268604D01*
X175372795Y-87268605D01*
X175378361Y-87270848D01*
X175481322Y-87290955D01*
X175580185Y-87310262D01*
X175580188Y-87310262D01*
X175584631Y-87311130D01*
X175590152Y-87311400D01*
X175745109Y-87311400D01*
X175901815Y-87296449D01*
X175985161Y-87271998D01*
X176097730Y-87238974D01*
X176097732Y-87238973D01*
X176103483Y-87237286D01*
X176121513Y-87228000D01*
X176284994Y-87143802D01*
X176284997Y-87143800D01*
X176290325Y-87141056D01*
X176370239Y-87078283D01*
X176450883Y-87014937D01*
X176450888Y-87014933D01*
X176455600Y-87011231D01*
X176459533Y-87006699D01*
X176589413Y-86857027D01*
X176589417Y-86857022D01*
X176593344Y-86852496D01*
X176698586Y-86670577D01*
X176731543Y-86575673D01*
X176765561Y-86477710D01*
X176765561Y-86477709D01*
X176767530Y-86472040D01*
X176768427Y-86465855D01*
X176796826Y-86269988D01*
X176796826Y-86269985D01*
X176797687Y-86264048D01*
X176787970Y-86054105D01*
X176743609Y-85870035D01*
X176740135Y-85855621D01*
X176740134Y-85855619D01*
X176738729Y-85849788D01*
X176736246Y-85844325D01*
X176678194Y-85716648D01*
X176651741Y-85658468D01*
X176530145Y-85487049D01*
X176418538Y-85380209D01*
X176382658Y-85345861D01*
X176382657Y-85345860D01*
X176378328Y-85341716D01*
X176201768Y-85227712D01*
X176128666Y-85198251D01*
X176012404Y-85151396D01*
X176012401Y-85151395D01*
X176006835Y-85149152D01*
X175903874Y-85129045D01*
X175805011Y-85109738D01*
X175805008Y-85109738D01*
X175800565Y-85108870D01*
X175795044Y-85108600D01*
X175764236Y-85108600D01*
X175696115Y-85088598D01*
X175649622Y-85034942D01*
X175639518Y-84964668D01*
X175672461Y-84896267D01*
X175772392Y-84790037D01*
X175786806Y-84774714D01*
X175928655Y-84570241D01*
X175932444Y-84564779D01*
X175932446Y-84564776D01*
X175935109Y-84560937D01*
X175938280Y-84554507D01*
X176048119Y-84331775D01*
X176048120Y-84331772D01*
X176050184Y-84327587D01*
X176065335Y-84280257D01*
X176121956Y-84103371D01*
X176129504Y-84079792D01*
X176171326Y-83822994D01*
X176174732Y-83562835D01*
X176139646Y-83305030D01*
X176124464Y-83252941D01*
X176068151Y-83059742D01*
X176068151Y-83059741D01*
X176066840Y-83055243D01*
X176064879Y-83050988D01*
X175986282Y-82880500D01*
X175957912Y-82818961D01*
X175951864Y-82809736D01*
X175817823Y-82605288D01*
X175817819Y-82605283D01*
X175815257Y-82601375D01*
X175689743Y-82460749D01*
X175645124Y-82410757D01*
X175645122Y-82410755D01*
X175642007Y-82407265D01*
X175635945Y-82402223D01*
X176717098Y-82402223D01*
X176717099Y-84937776D01*
X176727571Y-84990428D01*
X176734466Y-85000748D01*
X176734467Y-85000749D01*
X176742406Y-85012630D01*
X176767465Y-85050133D01*
X176827170Y-85090027D01*
X176879821Y-85100500D01*
X177685405Y-85100500D01*
X177753526Y-85120502D01*
X177800019Y-85174158D01*
X177810123Y-85244432D01*
X177785367Y-85303203D01*
X177761203Y-85334695D01*
X177711700Y-85399208D01*
X177705532Y-85407246D01*
X177647040Y-85548459D01*
X177627089Y-85700000D01*
X177647040Y-85851541D01*
X177705532Y-85992754D01*
X177748136Y-86048276D01*
X177793552Y-86107464D01*
X177793555Y-86107467D01*
X177798581Y-86114017D01*
X177805131Y-86119043D01*
X177805132Y-86119044D01*
X177901924Y-86193316D01*
X177919843Y-86207066D01*
X178061057Y-86265558D01*
X178212598Y-86285509D01*
X178299523Y-86274065D01*
X180242098Y-86274065D01*
X180242291Y-86276513D01*
X180242291Y-86276522D01*
X180249837Y-86372397D01*
X180257192Y-86465855D01*
X180258346Y-86470662D01*
X180258347Y-86470668D01*
X180282246Y-86570211D01*
X180317105Y-86715410D01*
X180318998Y-86719981D01*
X180318999Y-86719983D01*
X180408929Y-86937093D01*
X180415319Y-86952521D01*
X180549417Y-87171347D01*
X180552634Y-87175114D01*
X180552635Y-87175115D01*
X180634398Y-87270848D01*
X180716095Y-87366503D01*
X180719857Y-87369716D01*
X180848915Y-87479941D01*
X180911251Y-87533181D01*
X181130077Y-87667279D01*
X181134647Y-87669172D01*
X181134649Y-87669173D01*
X181264057Y-87722775D01*
X181367188Y-87765493D01*
X181454250Y-87786395D01*
X181611930Y-87824251D01*
X181611936Y-87824252D01*
X181616743Y-87825406D01*
X181872598Y-87845542D01*
X182128453Y-87825406D01*
X182133260Y-87824252D01*
X182133266Y-87824251D01*
X182290946Y-87786395D01*
X182378008Y-87765493D01*
X182481139Y-87722775D01*
X182610547Y-87669173D01*
X182610549Y-87669172D01*
X182615119Y-87667279D01*
X182833945Y-87533181D01*
X182896282Y-87479941D01*
X183025339Y-87369716D01*
X183029101Y-87366503D01*
X183110798Y-87270848D01*
X183192561Y-87175115D01*
X183192562Y-87175114D01*
X183195779Y-87171347D01*
X183329877Y-86952521D01*
X183336268Y-86937093D01*
X183426197Y-86719983D01*
X183426198Y-86719981D01*
X183428091Y-86715410D01*
X183462950Y-86570211D01*
X183486849Y-86470668D01*
X183486850Y-86470662D01*
X183488004Y-86465855D01*
X183495359Y-86372397D01*
X183502905Y-86276522D01*
X183502905Y-86276513D01*
X183503098Y-86274065D01*
X193442098Y-86274065D01*
X193442291Y-86276513D01*
X193442291Y-86276522D01*
X193449837Y-86372397D01*
X193457192Y-86465855D01*
X193458346Y-86470662D01*
X193458347Y-86470668D01*
X193482246Y-86570211D01*
X193517105Y-86715410D01*
X193518998Y-86719981D01*
X193518999Y-86719983D01*
X193608929Y-86937093D01*
X193615319Y-86952521D01*
X193749417Y-87171347D01*
X193752634Y-87175114D01*
X193752635Y-87175115D01*
X193834398Y-87270848D01*
X193916095Y-87366503D01*
X193919857Y-87369716D01*
X194048915Y-87479941D01*
X194111251Y-87533181D01*
X194330077Y-87667279D01*
X194334647Y-87669172D01*
X194334649Y-87669173D01*
X194464057Y-87722775D01*
X194567188Y-87765493D01*
X194654250Y-87786395D01*
X194811930Y-87824251D01*
X194811936Y-87824252D01*
X194816743Y-87825406D01*
X195072598Y-87845542D01*
X195328453Y-87825406D01*
X195333260Y-87824252D01*
X195333266Y-87824251D01*
X195490946Y-87786395D01*
X195578008Y-87765493D01*
X195681139Y-87722775D01*
X195810547Y-87669173D01*
X195810549Y-87669172D01*
X195815119Y-87667279D01*
X196033945Y-87533181D01*
X196096282Y-87479941D01*
X196225339Y-87369716D01*
X196229101Y-87366503D01*
X196310798Y-87270848D01*
X196392561Y-87175115D01*
X196392562Y-87175114D01*
X196395779Y-87171347D01*
X196529877Y-86952521D01*
X196536268Y-86937093D01*
X196626197Y-86719983D01*
X196626198Y-86719981D01*
X196628091Y-86715410D01*
X196662950Y-86570211D01*
X196686849Y-86470668D01*
X196686850Y-86470662D01*
X196688004Y-86465855D01*
X196695359Y-86372397D01*
X196702905Y-86276522D01*
X196702905Y-86276513D01*
X196703098Y-86274065D01*
X196703098Y-86045935D01*
X196700878Y-86017718D01*
X196690297Y-85883280D01*
X196688004Y-85854145D01*
X196686850Y-85849338D01*
X196686849Y-85849332D01*
X196643779Y-85669934D01*
X196628091Y-85604590D01*
X196610853Y-85562973D01*
X196531771Y-85372051D01*
X196531770Y-85372049D01*
X196529877Y-85367479D01*
X196395779Y-85148653D01*
X196385271Y-85136349D01*
X196232314Y-84957259D01*
X196229101Y-84953497D01*
X196176480Y-84908555D01*
X196037713Y-84790037D01*
X196037712Y-84790036D01*
X196033945Y-84786819D01*
X195815119Y-84652721D01*
X195810549Y-84650828D01*
X195810547Y-84650827D01*
X195582581Y-84556401D01*
X195582579Y-84556400D01*
X195578008Y-84554507D01*
X195459710Y-84526106D01*
X195333266Y-84495749D01*
X195333260Y-84495748D01*
X195328453Y-84494594D01*
X195072598Y-84474458D01*
X194816743Y-84494594D01*
X194811936Y-84495748D01*
X194811930Y-84495749D01*
X194685486Y-84526106D01*
X194567188Y-84554507D01*
X194562617Y-84556400D01*
X194562615Y-84556401D01*
X194334649Y-84650827D01*
X194334647Y-84650828D01*
X194330077Y-84652721D01*
X194111251Y-84786819D01*
X194107484Y-84790036D01*
X194107483Y-84790037D01*
X193968716Y-84908555D01*
X193916095Y-84953497D01*
X193912882Y-84957259D01*
X193759926Y-85136349D01*
X193749417Y-85148653D01*
X193615319Y-85367479D01*
X193613426Y-85372049D01*
X193613425Y-85372051D01*
X193534343Y-85562973D01*
X193517105Y-85604590D01*
X193501417Y-85669934D01*
X193458347Y-85849332D01*
X193458346Y-85849338D01*
X193457192Y-85854145D01*
X193454899Y-85883280D01*
X193444319Y-86017718D01*
X193442098Y-86045935D01*
X193442098Y-86274065D01*
X183503098Y-86274065D01*
X183503098Y-86045935D01*
X183500878Y-86017718D01*
X183490297Y-85883280D01*
X183488004Y-85854145D01*
X183486850Y-85849338D01*
X183486849Y-85849332D01*
X183443779Y-85669934D01*
X183428091Y-85604590D01*
X183410853Y-85562973D01*
X183331771Y-85372051D01*
X183331770Y-85372049D01*
X183329877Y-85367479D01*
X183195779Y-85148653D01*
X183185271Y-85136349D01*
X183032314Y-84957259D01*
X183029101Y-84953497D01*
X182976480Y-84908555D01*
X182837713Y-84790037D01*
X182837712Y-84790036D01*
X182833945Y-84786819D01*
X182615119Y-84652721D01*
X182610549Y-84650828D01*
X182610547Y-84650827D01*
X182382581Y-84556401D01*
X182382579Y-84556400D01*
X182378008Y-84554507D01*
X182259710Y-84526106D01*
X182133266Y-84495749D01*
X182133260Y-84495748D01*
X182128453Y-84494594D01*
X181872598Y-84474458D01*
X181616743Y-84494594D01*
X181611936Y-84495748D01*
X181611930Y-84495749D01*
X181485486Y-84526106D01*
X181367188Y-84554507D01*
X181362617Y-84556400D01*
X181362615Y-84556401D01*
X181134649Y-84650827D01*
X181134647Y-84650828D01*
X181130077Y-84652721D01*
X180911251Y-84786819D01*
X180907484Y-84790036D01*
X180907483Y-84790037D01*
X180768716Y-84908555D01*
X180716095Y-84953497D01*
X180712882Y-84957259D01*
X180559926Y-85136349D01*
X180549417Y-85148653D01*
X180415319Y-85367479D01*
X180413426Y-85372049D01*
X180413425Y-85372051D01*
X180334343Y-85562973D01*
X180317105Y-85604590D01*
X180301417Y-85669934D01*
X180258347Y-85849332D01*
X180258346Y-85849338D01*
X180257192Y-85854145D01*
X180254899Y-85883280D01*
X180244319Y-86017718D01*
X180242098Y-86045935D01*
X180242098Y-86274065D01*
X178299523Y-86274065D01*
X178364139Y-86265558D01*
X178505353Y-86207066D01*
X178523272Y-86193316D01*
X178620064Y-86119044D01*
X178620065Y-86119043D01*
X178626615Y-86114017D01*
X178631641Y-86107467D01*
X178631644Y-86107464D01*
X178677060Y-86048276D01*
X178719664Y-85992754D01*
X178778156Y-85851541D01*
X178798107Y-85700000D01*
X178778156Y-85548459D01*
X178719664Y-85407246D01*
X178639827Y-85303201D01*
X178614227Y-85236983D01*
X178628491Y-85167435D01*
X178678092Y-85116638D01*
X178739790Y-85100499D01*
X179465374Y-85100499D01*
X179518026Y-85090027D01*
X179528346Y-85083132D01*
X179528347Y-85083131D01*
X179567415Y-85057026D01*
X179567416Y-85057025D01*
X179577731Y-85050133D01*
X179617625Y-84990428D01*
X179628098Y-84937777D01*
X179628097Y-82402224D01*
X179617625Y-82349572D01*
X179577731Y-82289867D01*
X179518026Y-82249973D01*
X179465375Y-82239500D01*
X178172807Y-82239500D01*
X176879822Y-82239501D01*
X176827170Y-82249973D01*
X176816850Y-82256868D01*
X176816849Y-82256869D01*
X176777782Y-82282973D01*
X176767465Y-82289867D01*
X176727571Y-82349572D01*
X176717098Y-82402223D01*
X175635945Y-82402223D01*
X175441969Y-82240895D01*
X175219537Y-82105920D01*
X175215221Y-82104110D01*
X174983912Y-82007114D01*
X174983907Y-82007112D01*
X174979597Y-82005305D01*
X174975065Y-82004154D01*
X174975062Y-82004153D01*
X174849783Y-81972337D01*
X174727421Y-81941261D01*
X174511312Y-81919500D01*
X174356554Y-81919500D01*
X174354229Y-81919673D01*
X174354223Y-81919673D01*
X174167784Y-81933528D01*
X174167780Y-81933529D01*
X174163132Y-81933874D01*
X173909366Y-81991295D01*
X173905014Y-81992987D01*
X173905012Y-81992988D01*
X173671228Y-82083902D01*
X173671226Y-82083903D01*
X173666875Y-82085595D01*
X173662821Y-82087912D01*
X173662819Y-82087913D01*
X173627067Y-82108347D01*
X173440986Y-82214701D01*
X173236662Y-82375777D01*
X173058390Y-82565286D01*
X172910087Y-82779063D01*
X172908021Y-82783253D01*
X172908019Y-82783256D01*
X172797078Y-83008224D01*
X172795012Y-83012413D01*
X172715692Y-83260208D01*
X172708392Y-83305030D01*
X172675952Y-83504225D01*
X172673870Y-83517006D01*
X172670464Y-83777165D01*
X163553098Y-83777165D01*
X163553098Y-82686500D01*
X163573100Y-82618379D01*
X163626756Y-82571886D01*
X163679098Y-82560500D01*
X165518820Y-82560499D01*
X165615374Y-82560499D01*
X165668026Y-82550027D01*
X165678346Y-82543132D01*
X165678347Y-82543131D01*
X165717415Y-82517026D01*
X165717416Y-82517025D01*
X165727731Y-82510133D01*
X165767625Y-82450428D01*
X165778098Y-82397777D01*
X165778098Y-81237165D01*
X166320464Y-81237165D01*
X166355550Y-81494970D01*
X166428356Y-81744757D01*
X166430316Y-81749010D01*
X166430317Y-81749011D01*
X166448101Y-81787587D01*
X166537284Y-81981039D01*
X166539844Y-81984944D01*
X166539847Y-81984949D01*
X166677373Y-82194712D01*
X166677377Y-82194717D01*
X166679939Y-82198625D01*
X166720334Y-82243884D01*
X166814665Y-82349572D01*
X166853189Y-82392735D01*
X167053227Y-82559105D01*
X167275659Y-82694080D01*
X167279973Y-82695889D01*
X167279975Y-82695890D01*
X167511284Y-82792886D01*
X167511289Y-82792888D01*
X167515599Y-82794695D01*
X167520131Y-82795846D01*
X167520134Y-82795847D01*
X167611143Y-82818960D01*
X167767775Y-82858739D01*
X167983884Y-82880500D01*
X168138642Y-82880500D01*
X168140967Y-82880327D01*
X168140973Y-82880327D01*
X168327412Y-82866472D01*
X168327416Y-82866471D01*
X168332064Y-82866126D01*
X168585830Y-82808705D01*
X168590184Y-82807012D01*
X168823968Y-82716098D01*
X168823970Y-82716097D01*
X168828321Y-82714405D01*
X168832379Y-82712086D01*
X168996332Y-82618379D01*
X169054210Y-82585299D01*
X169258534Y-82424223D01*
X169436806Y-82234714D01*
X169582445Y-82024778D01*
X169582446Y-82024776D01*
X169585109Y-82020937D01*
X169591926Y-82007113D01*
X169698119Y-81791775D01*
X169698120Y-81791772D01*
X169700184Y-81787587D01*
X169715335Y-81740257D01*
X169778081Y-81544237D01*
X169778081Y-81544236D01*
X169779504Y-81539792D01*
X169821326Y-81282994D01*
X169824732Y-81022835D01*
X169789646Y-80765030D01*
X169716840Y-80515243D01*
X169714879Y-80510988D01*
X169609869Y-80283207D01*
X169607912Y-80278961D01*
X169584503Y-80243256D01*
X169467823Y-80065288D01*
X169467819Y-80065283D01*
X169465257Y-80061375D01*
X169292007Y-79867265D01*
X169091969Y-79700895D01*
X168869537Y-79565920D01*
X168865221Y-79564110D01*
X168633912Y-79467114D01*
X168633907Y-79467112D01*
X168629597Y-79465305D01*
X168625065Y-79464154D01*
X168625062Y-79464153D01*
X168499783Y-79432337D01*
X168377421Y-79401261D01*
X168161312Y-79379500D01*
X168006554Y-79379500D01*
X168004229Y-79379673D01*
X168004223Y-79379673D01*
X167817784Y-79393528D01*
X167817780Y-79393529D01*
X167813132Y-79393874D01*
X167559366Y-79451295D01*
X167555014Y-79452987D01*
X167555012Y-79452988D01*
X167321228Y-79543902D01*
X167321226Y-79543903D01*
X167316875Y-79545595D01*
X167312821Y-79547912D01*
X167312819Y-79547913D01*
X167277067Y-79568347D01*
X167090986Y-79674701D01*
X166886662Y-79835777D01*
X166708390Y-80025286D01*
X166560087Y-80239063D01*
X166558021Y-80243253D01*
X166558019Y-80243256D01*
X166447078Y-80468224D01*
X166445012Y-80472413D01*
X166365692Y-80720208D01*
X166323870Y-80977006D01*
X166320464Y-81237165D01*
X165778098Y-81237165D01*
X165778097Y-79862224D01*
X165767625Y-79809572D01*
X165727731Y-79749867D01*
X165668026Y-79709973D01*
X165615375Y-79699500D01*
X164322807Y-79699500D01*
X163029822Y-79699501D01*
X162977170Y-79709973D01*
X162966850Y-79716868D01*
X162966849Y-79716869D01*
X162927782Y-79742973D01*
X162917465Y-79749867D01*
X162877571Y-79809572D01*
X162867098Y-79862223D01*
X162867099Y-82397776D01*
X162877571Y-82450428D01*
X162917465Y-82510133D01*
X162927780Y-82517025D01*
X162927781Y-82517026D01*
X162936102Y-82522586D01*
X162981629Y-82577064D01*
X162992098Y-82627350D01*
X162992098Y-85928623D01*
X162972096Y-85996744D01*
X162918440Y-86043237D01*
X162848166Y-86053341D01*
X162783586Y-86023847D01*
X162777003Y-86017718D01*
X161580003Y-84820718D01*
X161545977Y-84758406D01*
X161543098Y-84731623D01*
X161543098Y-82008527D01*
X161543248Y-82006483D01*
X161544895Y-82001686D01*
X161543961Y-81976792D01*
X161543187Y-81956188D01*
X161543098Y-81951461D01*
X161543098Y-81933910D01*
X161542257Y-81929395D01*
X161542077Y-81926613D01*
X161541412Y-81908892D01*
X161541411Y-81908889D01*
X161540975Y-81897265D01*
X161536383Y-81886575D01*
X161534845Y-81879752D01*
X161533467Y-81875216D01*
X161530955Y-81868706D01*
X161528825Y-81857272D01*
X161517074Y-81838208D01*
X161508567Y-81821832D01*
X161503238Y-81809429D01*
X161499727Y-81801257D01*
X161495981Y-81796696D01*
X161493785Y-81794500D01*
X161491734Y-81792238D01*
X161491997Y-81791999D01*
X161487915Y-81786835D01*
X161487911Y-81786839D01*
X161480098Y-81778222D01*
X161473993Y-81768318D01*
X161454104Y-81753194D01*
X161441285Y-81742000D01*
X158859285Y-79160000D01*
X185024906Y-79160000D01*
X185045615Y-79357036D01*
X185106838Y-79545461D01*
X185205899Y-79717039D01*
X185210317Y-79721946D01*
X185210318Y-79721947D01*
X185279927Y-79799256D01*
X185338468Y-79864272D01*
X185343810Y-79868153D01*
X185343812Y-79868155D01*
X185493410Y-79976844D01*
X185498752Y-79980725D01*
X185504780Y-79983409D01*
X185504782Y-79983410D01*
X185591180Y-80021877D01*
X185679745Y-80061309D01*
X185686194Y-80062680D01*
X185686198Y-80062681D01*
X185784383Y-80083550D01*
X185873537Y-80102500D01*
X186071659Y-80102500D01*
X186160813Y-80083550D01*
X186258998Y-80062681D01*
X186259002Y-80062680D01*
X186265451Y-80061309D01*
X186354016Y-80021877D01*
X186440414Y-79983410D01*
X186440416Y-79983409D01*
X186446444Y-79980725D01*
X186451786Y-79976844D01*
X186601384Y-79868155D01*
X186601386Y-79868153D01*
X186606728Y-79864272D01*
X186665269Y-79799256D01*
X186734878Y-79721947D01*
X186734879Y-79721946D01*
X186739297Y-79717039D01*
X186838358Y-79545461D01*
X186899581Y-79357036D01*
X186920290Y-79160000D01*
X190024906Y-79160000D01*
X190045615Y-79357036D01*
X190106838Y-79545461D01*
X190205899Y-79717039D01*
X190210317Y-79721946D01*
X190210318Y-79721947D01*
X190279927Y-79799256D01*
X190338468Y-79864272D01*
X190343810Y-79868153D01*
X190343812Y-79868155D01*
X190493410Y-79976844D01*
X190498752Y-79980725D01*
X190504780Y-79983409D01*
X190504782Y-79983410D01*
X190591180Y-80021877D01*
X190679745Y-80061309D01*
X190686194Y-80062680D01*
X190686198Y-80062681D01*
X190784383Y-80083550D01*
X190873537Y-80102500D01*
X191071659Y-80102500D01*
X191160813Y-80083550D01*
X191258998Y-80062681D01*
X191259002Y-80062680D01*
X191265451Y-80061309D01*
X191354016Y-80021877D01*
X191440414Y-79983410D01*
X191440416Y-79983409D01*
X191446444Y-79980725D01*
X191451786Y-79976844D01*
X191601384Y-79868155D01*
X191601386Y-79868153D01*
X191606728Y-79864272D01*
X191665269Y-79799256D01*
X191734878Y-79721947D01*
X191734879Y-79721946D01*
X191739297Y-79717039D01*
X191838358Y-79545461D01*
X191899581Y-79357036D01*
X191920290Y-79160000D01*
X191906354Y-79027405D01*
X191900271Y-78969527D01*
X191900271Y-78969525D01*
X191899581Y-78962964D01*
X191838358Y-78774539D01*
X191739297Y-78602961D01*
X191682483Y-78539862D01*
X191611150Y-78460639D01*
X191611149Y-78460638D01*
X191606728Y-78455728D01*
X191593920Y-78446422D01*
X191451786Y-78343156D01*
X191451785Y-78343155D01*
X191446444Y-78339275D01*
X191440416Y-78336591D01*
X191440414Y-78336590D01*
X191271477Y-78261374D01*
X191265451Y-78258691D01*
X191259002Y-78257320D01*
X191258998Y-78257319D01*
X191160813Y-78236450D01*
X191071659Y-78217500D01*
X190873537Y-78217500D01*
X190784383Y-78236450D01*
X190686198Y-78257319D01*
X190686194Y-78257320D01*
X190679745Y-78258691D01*
X190673719Y-78261374D01*
X190504782Y-78336590D01*
X190504780Y-78336591D01*
X190498752Y-78339275D01*
X190493411Y-78343155D01*
X190493410Y-78343156D01*
X190351277Y-78446422D01*
X190338468Y-78455728D01*
X190334047Y-78460638D01*
X190334046Y-78460639D01*
X190262714Y-78539862D01*
X190205899Y-78602961D01*
X190106838Y-78774539D01*
X190045615Y-78962964D01*
X190044925Y-78969525D01*
X190044925Y-78969527D01*
X190038842Y-79027405D01*
X190024906Y-79160000D01*
X186920290Y-79160000D01*
X186906354Y-79027405D01*
X186900271Y-78969527D01*
X186900271Y-78969525D01*
X186899581Y-78962964D01*
X186838358Y-78774539D01*
X186739297Y-78602961D01*
X186682483Y-78539862D01*
X186611150Y-78460639D01*
X186611149Y-78460638D01*
X186606728Y-78455728D01*
X186593920Y-78446422D01*
X186451786Y-78343156D01*
X186451785Y-78343155D01*
X186446444Y-78339275D01*
X186440416Y-78336591D01*
X186440414Y-78336590D01*
X186271477Y-78261374D01*
X186265451Y-78258691D01*
X186259002Y-78257320D01*
X186258998Y-78257319D01*
X186160813Y-78236450D01*
X186071659Y-78217500D01*
X185873537Y-78217500D01*
X185784383Y-78236450D01*
X185686198Y-78257319D01*
X185686194Y-78257320D01*
X185679745Y-78258691D01*
X185673719Y-78261374D01*
X185504782Y-78336590D01*
X185504780Y-78336591D01*
X185498752Y-78339275D01*
X185493411Y-78343155D01*
X185493410Y-78343156D01*
X185351277Y-78446422D01*
X185338468Y-78455728D01*
X185334047Y-78460638D01*
X185334046Y-78460639D01*
X185262714Y-78539862D01*
X185205899Y-78602961D01*
X185106838Y-78774539D01*
X185045615Y-78962964D01*
X185044925Y-78969525D01*
X185044925Y-78969527D01*
X185038842Y-79027405D01*
X185024906Y-79160000D01*
X158859285Y-79160000D01*
X158245261Y-78545976D01*
X158243916Y-78544418D01*
X158241689Y-78539862D01*
X158208290Y-78508880D01*
X158204885Y-78505600D01*
X158192493Y-78493208D01*
X158188705Y-78490609D01*
X158186624Y-78488782D01*
X158186145Y-78488337D01*
X158165080Y-78468797D01*
X158154278Y-78464488D01*
X158148375Y-78460756D01*
X158144192Y-78458522D01*
X158137803Y-78455691D01*
X158128209Y-78449109D01*
X158116889Y-78446423D01*
X158116887Y-78446422D01*
X158106422Y-78443939D01*
X158088821Y-78438373D01*
X158087267Y-78437753D01*
X158068025Y-78430076D01*
X158062151Y-78429500D01*
X158059067Y-78429500D01*
X158056000Y-78429350D01*
X158056017Y-78428997D01*
X158049473Y-78428231D01*
X158049473Y-78428237D01*
X158037860Y-78427669D01*
X158026537Y-78424982D01*
X158015008Y-78426551D01*
X158015007Y-78426551D01*
X158001796Y-78428349D01*
X157984805Y-78429500D01*
X147611125Y-78429500D01*
X147609081Y-78429350D01*
X147604284Y-78427703D01*
X147592659Y-78428139D01*
X147592657Y-78428139D01*
X147558786Y-78429411D01*
X147554059Y-78429500D01*
X147536508Y-78429500D01*
X147531993Y-78430341D01*
X147529211Y-78430521D01*
X147511490Y-78431186D01*
X147511487Y-78431187D01*
X147499863Y-78431623D01*
X147489173Y-78436215D01*
X147482350Y-78437753D01*
X147477819Y-78439130D01*
X147471308Y-78441642D01*
X147459870Y-78443773D01*
X147449965Y-78449879D01*
X147449964Y-78449879D01*
X147440809Y-78455522D01*
X147424431Y-78464030D01*
X147412026Y-78469359D01*
X147412019Y-78469363D01*
X147403854Y-78472871D01*
X147399294Y-78476617D01*
X147397104Y-78478807D01*
X147394847Y-78480854D01*
X147394609Y-78480591D01*
X147389433Y-78484683D01*
X147389437Y-78484687D01*
X147380820Y-78492500D01*
X147370916Y-78498605D01*
X147355792Y-78518494D01*
X147344598Y-78531313D01*
X146213316Y-79662595D01*
X146151004Y-79696621D01*
X146124221Y-79699500D01*
X144069654Y-79699501D01*
X143819822Y-79699501D01*
X143767170Y-79709973D01*
X143756850Y-79716868D01*
X143756849Y-79716869D01*
X143717782Y-79742973D01*
X143707465Y-79749867D01*
X143667571Y-79809572D01*
X143657098Y-79862223D01*
X143657099Y-82397776D01*
X143667571Y-82450428D01*
X143707465Y-82510133D01*
X143767170Y-82550027D01*
X143819821Y-82560500D01*
X145112389Y-82560500D01*
X146405374Y-82560499D01*
X146458026Y-82550027D01*
X146468346Y-82543132D01*
X146468347Y-82543131D01*
X146507415Y-82517026D01*
X146507416Y-82517025D01*
X146517731Y-82510133D01*
X146557625Y-82450428D01*
X146568098Y-82397777D01*
X146568097Y-81237165D01*
X147110464Y-81237165D01*
X147145550Y-81494970D01*
X147218356Y-81744757D01*
X147220316Y-81749010D01*
X147220317Y-81749011D01*
X147238101Y-81787587D01*
X147327284Y-81981039D01*
X147329844Y-81984944D01*
X147329847Y-81984949D01*
X147467373Y-82194712D01*
X147467377Y-82194717D01*
X147469939Y-82198625D01*
X147510334Y-82243884D01*
X147604665Y-82349572D01*
X147643189Y-82392735D01*
X147843227Y-82559105D01*
X148065659Y-82694080D01*
X148069973Y-82695889D01*
X148069975Y-82695890D01*
X148301284Y-82792886D01*
X148301289Y-82792888D01*
X148305599Y-82794695D01*
X148310131Y-82795846D01*
X148310134Y-82795847D01*
X148401143Y-82818960D01*
X148557775Y-82858739D01*
X148773884Y-82880500D01*
X148928642Y-82880500D01*
X148930967Y-82880327D01*
X148930973Y-82880327D01*
X149117412Y-82866472D01*
X149117416Y-82866471D01*
X149122064Y-82866126D01*
X149375830Y-82808705D01*
X149380184Y-82807012D01*
X149613968Y-82716098D01*
X149613970Y-82716097D01*
X149618321Y-82714405D01*
X149622379Y-82712086D01*
X149786332Y-82618379D01*
X149844210Y-82585299D01*
X150048534Y-82424223D01*
X150226806Y-82234714D01*
X150372445Y-82024778D01*
X150372446Y-82024776D01*
X150375109Y-82020937D01*
X150381926Y-82007113D01*
X150488119Y-81791775D01*
X150488120Y-81791772D01*
X150490184Y-81787587D01*
X150505335Y-81740257D01*
X150568081Y-81544237D01*
X150568081Y-81544236D01*
X150569504Y-81539792D01*
X150611326Y-81282994D01*
X150614732Y-81022835D01*
X150579646Y-80765030D01*
X150506840Y-80515243D01*
X150504879Y-80510988D01*
X150399869Y-80283207D01*
X150397912Y-80278961D01*
X150374503Y-80243256D01*
X150257823Y-80065288D01*
X150257819Y-80065283D01*
X150255257Y-80061375D01*
X150082007Y-79867265D01*
X149881969Y-79700895D01*
X149659537Y-79565920D01*
X149655221Y-79564110D01*
X149423912Y-79467114D01*
X149423907Y-79467112D01*
X149419597Y-79465305D01*
X149415065Y-79464154D01*
X149415062Y-79464153D01*
X149289783Y-79432337D01*
X149167421Y-79401261D01*
X148951312Y-79379500D01*
X148796554Y-79379500D01*
X148794229Y-79379673D01*
X148794223Y-79379673D01*
X148607784Y-79393528D01*
X148607780Y-79393529D01*
X148603132Y-79393874D01*
X148349366Y-79451295D01*
X148345014Y-79452987D01*
X148345012Y-79452988D01*
X148111228Y-79543902D01*
X148111226Y-79543903D01*
X148106875Y-79545595D01*
X148102821Y-79547912D01*
X148102819Y-79547913D01*
X148067067Y-79568347D01*
X147880986Y-79674701D01*
X147676662Y-79835777D01*
X147498390Y-80025286D01*
X147350087Y-80239063D01*
X147348021Y-80243253D01*
X147348019Y-80243256D01*
X147237078Y-80468224D01*
X147235012Y-80472413D01*
X147155692Y-80720208D01*
X147113870Y-80977006D01*
X147110464Y-81237165D01*
X146568097Y-81237165D01*
X146568097Y-80153378D01*
X146588099Y-80085257D01*
X146605002Y-80064283D01*
X147641880Y-79027405D01*
X147704192Y-78993379D01*
X147730975Y-78990500D01*
X157844221Y-78990500D01*
X157912342Y-79010502D01*
X157933316Y-79027405D01*
X160945193Y-82039282D01*
X160979219Y-82101594D01*
X160982098Y-82128377D01*
X160982098Y-84851467D01*
X160981948Y-84853515D01*
X160980300Y-84858314D01*
X160980737Y-84869941D01*
X160982009Y-84903827D01*
X160982098Y-84908555D01*
X160982098Y-84926090D01*
X160982939Y-84930602D01*
X160983119Y-84933386D01*
X160983784Y-84951108D01*
X160983785Y-84951111D01*
X160984221Y-84962735D01*
X160988813Y-84973425D01*
X160990351Y-84980248D01*
X160991729Y-84984784D01*
X160994241Y-84991294D01*
X160996371Y-85002728D01*
X161002475Y-85012630D01*
X161008122Y-85021792D01*
X161016629Y-85038168D01*
X161020480Y-85047132D01*
X161025469Y-85058743D01*
X161029215Y-85063304D01*
X161031411Y-85065500D01*
X161033462Y-85067762D01*
X161033199Y-85068001D01*
X161037281Y-85073165D01*
X161037285Y-85073161D01*
X161045098Y-85081778D01*
X161051203Y-85091682D01*
X161071092Y-85106806D01*
X161083911Y-85118000D01*
X164600316Y-88634405D01*
X164634342Y-88696717D01*
X164629277Y-88767532D01*
X164586730Y-88824368D01*
X164520210Y-88849179D01*
X164511221Y-88849500D01*
X127660975Y-88849500D01*
X127592854Y-88829498D01*
X127571880Y-88812595D01*
X125690003Y-86930718D01*
X125655977Y-86868406D01*
X125653098Y-86841623D01*
X125653098Y-86155952D01*
X126017509Y-86155952D01*
X126027226Y-86365895D01*
X126028630Y-86371720D01*
X126073577Y-86558219D01*
X126076467Y-86570212D01*
X126163455Y-86761532D01*
X126285051Y-86932951D01*
X126369535Y-87013827D01*
X126398809Y-87041850D01*
X126436868Y-87078284D01*
X126613428Y-87192288D01*
X126618994Y-87194531D01*
X126802792Y-87268604D01*
X126802795Y-87268605D01*
X126808361Y-87270848D01*
X126911322Y-87290955D01*
X127010185Y-87310262D01*
X127010188Y-87310262D01*
X127014631Y-87311130D01*
X127020152Y-87311400D01*
X127175109Y-87311400D01*
X127331815Y-87296449D01*
X127415161Y-87271998D01*
X127527730Y-87238974D01*
X127527732Y-87238973D01*
X127533483Y-87237286D01*
X127551513Y-87228000D01*
X127714994Y-87143802D01*
X127714997Y-87143800D01*
X127720325Y-87141056D01*
X127800239Y-87078283D01*
X127880883Y-87014937D01*
X127880888Y-87014933D01*
X127885600Y-87011231D01*
X127889533Y-87006699D01*
X128019413Y-86857027D01*
X128019417Y-86857022D01*
X128023344Y-86852496D01*
X128128586Y-86670577D01*
X128161543Y-86575673D01*
X128195561Y-86477710D01*
X128195561Y-86477709D01*
X128197530Y-86472040D01*
X128198427Y-86465855D01*
X128226826Y-86269988D01*
X128226826Y-86269985D01*
X128227687Y-86264048D01*
X128227366Y-86257108D01*
X129953668Y-86257108D01*
X129954031Y-86261256D01*
X129954031Y-86261260D01*
X129979289Y-86549964D01*
X129979290Y-86549972D01*
X129979654Y-86554130D01*
X129980568Y-86558218D01*
X129980568Y-86558219D01*
X130024795Y-86756076D01*
X130044695Y-86845105D01*
X130147648Y-87124923D01*
X130149595Y-87128616D01*
X130149596Y-87128618D01*
X130184348Y-87194530D01*
X130286704Y-87388666D01*
X130459420Y-87631701D01*
X130462264Y-87634751D01*
X130462269Y-87634757D01*
X130659911Y-87846702D01*
X130662762Y-87849759D01*
X130893157Y-88039008D01*
X131146558Y-88196123D01*
X131150370Y-88197836D01*
X131414695Y-88316629D01*
X131414701Y-88316631D01*
X131418512Y-88318344D01*
X131422518Y-88319538D01*
X131422520Y-88319539D01*
X131428508Y-88321324D01*
X131704242Y-88403523D01*
X131998727Y-88450165D01*
X132043999Y-88452221D01*
X132090567Y-88454336D01*
X132090586Y-88454336D01*
X132091986Y-88454400D01*
X132278223Y-88454400D01*
X132500099Y-88439663D01*
X132792372Y-88380730D01*
X133074284Y-88283660D01*
X133078017Y-88281791D01*
X133078021Y-88281789D01*
X133337138Y-88152033D01*
X133337140Y-88152032D01*
X133340882Y-88150158D01*
X133508340Y-88036354D01*
X133584022Y-87984921D01*
X133584025Y-87984919D01*
X133587481Y-87982570D01*
X133809749Y-87783839D01*
X133818712Y-87773382D01*
X134001062Y-87560631D01*
X134001065Y-87560627D01*
X134003782Y-87557457D01*
X134006056Y-87553955D01*
X134006060Y-87553950D01*
X134163890Y-87310913D01*
X134163893Y-87310908D01*
X134166169Y-87307403D01*
X134200768Y-87234539D01*
X134241345Y-87149083D01*
X134294059Y-87038068D01*
X134302676Y-87011231D01*
X134383924Y-86758172D01*
X134383924Y-86758171D01*
X134385204Y-86754185D01*
X134417323Y-86575673D01*
X134437263Y-86464850D01*
X134437264Y-86464845D01*
X134438002Y-86460741D01*
X134439744Y-86422397D01*
X134451339Y-86167062D01*
X134451339Y-86167056D01*
X134451528Y-86162892D01*
X134449974Y-86145124D01*
X134425907Y-85870036D01*
X134425906Y-85870028D01*
X134425542Y-85865870D01*
X134400781Y-85755095D01*
X134361415Y-85578983D01*
X134361414Y-85578980D01*
X134360501Y-85574895D01*
X134359056Y-85570966D01*
X134300586Y-85412050D01*
X134257548Y-85295077D01*
X134250995Y-85282647D01*
X134159380Y-85108885D01*
X134118492Y-85031334D01*
X133945776Y-84788299D01*
X133942932Y-84785249D01*
X133942927Y-84785243D01*
X133745284Y-84573297D01*
X133745282Y-84573295D01*
X133742434Y-84570241D01*
X133512039Y-84380992D01*
X133258638Y-84223877D01*
X133068023Y-84138211D01*
X132990501Y-84103371D01*
X132990495Y-84103369D01*
X132986684Y-84101656D01*
X132982678Y-84100462D01*
X132982676Y-84100461D01*
X132778043Y-84039458D01*
X132700954Y-84016477D01*
X132406469Y-83969835D01*
X132361197Y-83967779D01*
X132314629Y-83965664D01*
X132314610Y-83965664D01*
X132313210Y-83965600D01*
X132126973Y-83965600D01*
X131905097Y-83980337D01*
X131612824Y-84039270D01*
X131330912Y-84136340D01*
X131327179Y-84138209D01*
X131327175Y-84138211D01*
X131087007Y-84258478D01*
X131064314Y-84269842D01*
X131042369Y-84284756D01*
X130821176Y-84435078D01*
X130817715Y-84437430D01*
X130595447Y-84636161D01*
X130592730Y-84639331D01*
X130592729Y-84639332D01*
X130405039Y-84858314D01*
X130401414Y-84862543D01*
X130399140Y-84866045D01*
X130399136Y-84866050D01*
X130241307Y-85109086D01*
X130239027Y-85112597D01*
X130237233Y-85116376D01*
X130237232Y-85116377D01*
X130203290Y-85187858D01*
X130111137Y-85381932D01*
X130109858Y-85385915D01*
X130109857Y-85385918D01*
X130049183Y-85574895D01*
X130019992Y-85665815D01*
X130013841Y-85700000D01*
X129968159Y-85953898D01*
X129967194Y-85959259D01*
X129967005Y-85963426D01*
X129967004Y-85963433D01*
X129954772Y-86232797D01*
X129953668Y-86257108D01*
X128227366Y-86257108D01*
X128217970Y-86054105D01*
X128173609Y-85870035D01*
X128170135Y-85855621D01*
X128170134Y-85855619D01*
X128168729Y-85849788D01*
X128166246Y-85844325D01*
X128108194Y-85716648D01*
X128081741Y-85658468D01*
X127960145Y-85487049D01*
X127848538Y-85380209D01*
X127812658Y-85345861D01*
X127812657Y-85345860D01*
X127808328Y-85341716D01*
X127631768Y-85227712D01*
X127558666Y-85198251D01*
X127442404Y-85151396D01*
X127442401Y-85151395D01*
X127436835Y-85149152D01*
X127333874Y-85129045D01*
X127235011Y-85109738D01*
X127235008Y-85109738D01*
X127230565Y-85108870D01*
X127225044Y-85108600D01*
X127070087Y-85108600D01*
X126945349Y-85120501D01*
X126919366Y-85122980D01*
X126913381Y-85123551D01*
X126907627Y-85125239D01*
X126717466Y-85181026D01*
X126717464Y-85181027D01*
X126711713Y-85182714D01*
X126706381Y-85185460D01*
X126706379Y-85185461D01*
X126530202Y-85276198D01*
X126530199Y-85276200D01*
X126524871Y-85278944D01*
X126482677Y-85312088D01*
X126364313Y-85405063D01*
X126364308Y-85405067D01*
X126359596Y-85408769D01*
X126355665Y-85413299D01*
X126355664Y-85413300D01*
X126225783Y-85562973D01*
X126225779Y-85562978D01*
X126221852Y-85567504D01*
X126116610Y-85749423D01*
X126114641Y-85755092D01*
X126114640Y-85755095D01*
X126075368Y-85868188D01*
X126047666Y-85947960D01*
X126046805Y-85953897D01*
X126046805Y-85953898D01*
X126020370Y-86136222D01*
X126017509Y-86155952D01*
X125653098Y-86155952D01*
X125653098Y-83777165D01*
X134260464Y-83777165D01*
X134295550Y-84034970D01*
X134296858Y-84039456D01*
X134296858Y-84039458D01*
X134306574Y-84072793D01*
X134368356Y-84284757D01*
X134370316Y-84289010D01*
X134370317Y-84289011D01*
X134388101Y-84327587D01*
X134477284Y-84521039D01*
X134479844Y-84524944D01*
X134479847Y-84524949D01*
X134617373Y-84734712D01*
X134617377Y-84734717D01*
X134619939Y-84738625D01*
X134660271Y-84783813D01*
X134787653Y-84926532D01*
X134793189Y-84932735D01*
X134993227Y-85099105D01*
X135215659Y-85234080D01*
X135219973Y-85235889D01*
X135219975Y-85235890D01*
X135451284Y-85332886D01*
X135451289Y-85332888D01*
X135455599Y-85334695D01*
X135460131Y-85335846D01*
X135460134Y-85335847D01*
X135568059Y-85363256D01*
X135707775Y-85398739D01*
X135923884Y-85420500D01*
X136078642Y-85420500D01*
X136080967Y-85420327D01*
X136081000Y-85420326D01*
X136246517Y-85408025D01*
X136315933Y-85422923D01*
X136366274Y-85472985D01*
X136381558Y-85542317D01*
X136364920Y-85596771D01*
X136276610Y-85749423D01*
X136274641Y-85755092D01*
X136274640Y-85755095D01*
X136235368Y-85868188D01*
X136207666Y-85947960D01*
X136206805Y-85953897D01*
X136206805Y-85953898D01*
X136180370Y-86136222D01*
X136177509Y-86155952D01*
X136187226Y-86365895D01*
X136188630Y-86371720D01*
X136233577Y-86558219D01*
X136236467Y-86570212D01*
X136323455Y-86761532D01*
X136445051Y-86932951D01*
X136529535Y-87013827D01*
X136558809Y-87041850D01*
X136596868Y-87078284D01*
X136773428Y-87192288D01*
X136778994Y-87194531D01*
X136962792Y-87268604D01*
X136962795Y-87268605D01*
X136968361Y-87270848D01*
X137071322Y-87290955D01*
X137170185Y-87310262D01*
X137170188Y-87310262D01*
X137174631Y-87311130D01*
X137180152Y-87311400D01*
X137335109Y-87311400D01*
X137491815Y-87296449D01*
X137575161Y-87271998D01*
X137687730Y-87238974D01*
X137687732Y-87238973D01*
X137693483Y-87237286D01*
X137711513Y-87228000D01*
X137874994Y-87143802D01*
X137874997Y-87143800D01*
X137880325Y-87141056D01*
X137960239Y-87078283D01*
X138040883Y-87014937D01*
X138040888Y-87014933D01*
X138045600Y-87011231D01*
X138049533Y-87006699D01*
X138179413Y-86857027D01*
X138179417Y-86857022D01*
X138183344Y-86852496D01*
X138288586Y-86670577D01*
X138321543Y-86575673D01*
X138355561Y-86477710D01*
X138355561Y-86477709D01*
X138357530Y-86472040D01*
X138358427Y-86465855D01*
X138386826Y-86269988D01*
X138386826Y-86269985D01*
X138387687Y-86264048D01*
X138377970Y-86054105D01*
X138333609Y-85870035D01*
X138330135Y-85855621D01*
X138330134Y-85855619D01*
X138328729Y-85849788D01*
X138326246Y-85844325D01*
X138268194Y-85716648D01*
X138241741Y-85658468D01*
X138120145Y-85487049D01*
X138008538Y-85380209D01*
X137972658Y-85345861D01*
X137972657Y-85345860D01*
X137968328Y-85341716D01*
X137791768Y-85227712D01*
X137718666Y-85198251D01*
X137602404Y-85151396D01*
X137602401Y-85151395D01*
X137596835Y-85149152D01*
X137493874Y-85129045D01*
X137395011Y-85109738D01*
X137395008Y-85109738D01*
X137390565Y-85108870D01*
X137385044Y-85108600D01*
X137354236Y-85108600D01*
X137286115Y-85088598D01*
X137239622Y-85034942D01*
X137229518Y-84964668D01*
X137262461Y-84896267D01*
X137362392Y-84790037D01*
X137376806Y-84774714D01*
X137518655Y-84570241D01*
X137522444Y-84564779D01*
X137522446Y-84564776D01*
X137525109Y-84560937D01*
X137528280Y-84554507D01*
X137638119Y-84331775D01*
X137638120Y-84331772D01*
X137640184Y-84327587D01*
X137655335Y-84280257D01*
X137711956Y-84103371D01*
X137719504Y-84079792D01*
X137761326Y-83822994D01*
X137764732Y-83562835D01*
X137729646Y-83305030D01*
X137714464Y-83252941D01*
X137658151Y-83059742D01*
X137658151Y-83059741D01*
X137656840Y-83055243D01*
X137654879Y-83050988D01*
X137576282Y-82880500D01*
X137547912Y-82818961D01*
X137541864Y-82809736D01*
X137407823Y-82605288D01*
X137407819Y-82605283D01*
X137405257Y-82601375D01*
X137279743Y-82460749D01*
X137235124Y-82410757D01*
X137235122Y-82410755D01*
X137232007Y-82407265D01*
X137225945Y-82402223D01*
X138307098Y-82402223D01*
X138307099Y-84937776D01*
X138317571Y-84990428D01*
X138324466Y-85000748D01*
X138324467Y-85000749D01*
X138332406Y-85012630D01*
X138357465Y-85050133D01*
X138417170Y-85090027D01*
X138469821Y-85100500D01*
X139356098Y-85100500D01*
X139424219Y-85120502D01*
X139470712Y-85174158D01*
X139482098Y-85226500D01*
X139482098Y-85269762D01*
X139462096Y-85337883D01*
X139432802Y-85369724D01*
X139411699Y-85385917D01*
X139398581Y-85395983D01*
X139305532Y-85517246D01*
X139247040Y-85658459D01*
X139227089Y-85810000D01*
X139247040Y-85961541D01*
X139305532Y-86102754D01*
X139338044Y-86145124D01*
X139393552Y-86217464D01*
X139393555Y-86217467D01*
X139398581Y-86224017D01*
X139405131Y-86229043D01*
X139405132Y-86229044D01*
X139477313Y-86284431D01*
X139519843Y-86317066D01*
X139661057Y-86375558D01*
X139812598Y-86395509D01*
X139964139Y-86375558D01*
X140105353Y-86317066D01*
X140147883Y-86284431D01*
X140220064Y-86229044D01*
X140220065Y-86229043D01*
X140226615Y-86224017D01*
X140231641Y-86217467D01*
X140231644Y-86217464D01*
X140278843Y-86155952D01*
X145217509Y-86155952D01*
X145227226Y-86365895D01*
X145228630Y-86371720D01*
X145273577Y-86558219D01*
X145276467Y-86570212D01*
X145363455Y-86761532D01*
X145485051Y-86932951D01*
X145569535Y-87013827D01*
X145598809Y-87041850D01*
X145636868Y-87078284D01*
X145813428Y-87192288D01*
X145818994Y-87194531D01*
X146002792Y-87268604D01*
X146002795Y-87268605D01*
X146008361Y-87270848D01*
X146111322Y-87290955D01*
X146210185Y-87310262D01*
X146210188Y-87310262D01*
X146214631Y-87311130D01*
X146220152Y-87311400D01*
X146375109Y-87311400D01*
X146531815Y-87296449D01*
X146615161Y-87271998D01*
X146727730Y-87238974D01*
X146727732Y-87238973D01*
X146733483Y-87237286D01*
X146751513Y-87228000D01*
X146914994Y-87143802D01*
X146914997Y-87143800D01*
X146920325Y-87141056D01*
X147000239Y-87078283D01*
X147080883Y-87014937D01*
X147080888Y-87014933D01*
X147085600Y-87011231D01*
X147089533Y-87006699D01*
X147219413Y-86857027D01*
X147219417Y-86857022D01*
X147223344Y-86852496D01*
X147328586Y-86670577D01*
X147361543Y-86575673D01*
X147395561Y-86477710D01*
X147395561Y-86477709D01*
X147397530Y-86472040D01*
X147398427Y-86465855D01*
X147426826Y-86269988D01*
X147426826Y-86269985D01*
X147427687Y-86264048D01*
X147427366Y-86257108D01*
X149153668Y-86257108D01*
X149154031Y-86261256D01*
X149154031Y-86261260D01*
X149179289Y-86549964D01*
X149179290Y-86549972D01*
X149179654Y-86554130D01*
X149180568Y-86558218D01*
X149180568Y-86558219D01*
X149224795Y-86756076D01*
X149244695Y-86845105D01*
X149347648Y-87124923D01*
X149349595Y-87128616D01*
X149349596Y-87128618D01*
X149384348Y-87194530D01*
X149486704Y-87388666D01*
X149659420Y-87631701D01*
X149662264Y-87634751D01*
X149662269Y-87634757D01*
X149859911Y-87846702D01*
X149862762Y-87849759D01*
X150093157Y-88039008D01*
X150346558Y-88196123D01*
X150350370Y-88197836D01*
X150614695Y-88316629D01*
X150614701Y-88316631D01*
X150618512Y-88318344D01*
X150622518Y-88319538D01*
X150622520Y-88319539D01*
X150628508Y-88321324D01*
X150904242Y-88403523D01*
X151198727Y-88450165D01*
X151243999Y-88452221D01*
X151290567Y-88454336D01*
X151290586Y-88454336D01*
X151291986Y-88454400D01*
X151478223Y-88454400D01*
X151700099Y-88439663D01*
X151992372Y-88380730D01*
X152274284Y-88283660D01*
X152278017Y-88281791D01*
X152278021Y-88281789D01*
X152537138Y-88152033D01*
X152537140Y-88152032D01*
X152540882Y-88150158D01*
X152708340Y-88036354D01*
X152784022Y-87984921D01*
X152784025Y-87984919D01*
X152787481Y-87982570D01*
X153009749Y-87783839D01*
X153018712Y-87773382D01*
X153201062Y-87560631D01*
X153201065Y-87560627D01*
X153203782Y-87557457D01*
X153206056Y-87553955D01*
X153206060Y-87553950D01*
X153363890Y-87310913D01*
X153363893Y-87310908D01*
X153366169Y-87307403D01*
X153400768Y-87234539D01*
X153441345Y-87149083D01*
X153494059Y-87038068D01*
X153502676Y-87011231D01*
X153583924Y-86758172D01*
X153583924Y-86758171D01*
X153585204Y-86754185D01*
X153617323Y-86575673D01*
X153637263Y-86464850D01*
X153637264Y-86464845D01*
X153638002Y-86460741D01*
X153639744Y-86422397D01*
X153651339Y-86167062D01*
X153651339Y-86167056D01*
X153651528Y-86162892D01*
X153649974Y-86145124D01*
X153625907Y-85870036D01*
X153625906Y-85870028D01*
X153625542Y-85865870D01*
X153600781Y-85755095D01*
X153561415Y-85578983D01*
X153561414Y-85578980D01*
X153560501Y-85574895D01*
X153559056Y-85570966D01*
X153500586Y-85412050D01*
X153457548Y-85295077D01*
X153450995Y-85282647D01*
X153359380Y-85108885D01*
X153318492Y-85031334D01*
X153145776Y-84788299D01*
X153142932Y-84785249D01*
X153142927Y-84785243D01*
X152945284Y-84573297D01*
X152945282Y-84573295D01*
X152942434Y-84570241D01*
X152712039Y-84380992D01*
X152458638Y-84223877D01*
X152268023Y-84138211D01*
X152190501Y-84103371D01*
X152190495Y-84103369D01*
X152186684Y-84101656D01*
X152182678Y-84100462D01*
X152182676Y-84100461D01*
X151978043Y-84039458D01*
X151900954Y-84016477D01*
X151606469Y-83969835D01*
X151561197Y-83967779D01*
X151514629Y-83965664D01*
X151514610Y-83965664D01*
X151513210Y-83965600D01*
X151326973Y-83965600D01*
X151105097Y-83980337D01*
X150812824Y-84039270D01*
X150530912Y-84136340D01*
X150527179Y-84138209D01*
X150527175Y-84138211D01*
X150287007Y-84258478D01*
X150264314Y-84269842D01*
X150242369Y-84284756D01*
X150021176Y-84435078D01*
X150017715Y-84437430D01*
X149795447Y-84636161D01*
X149792730Y-84639331D01*
X149792729Y-84639332D01*
X149605039Y-84858314D01*
X149601414Y-84862543D01*
X149599140Y-84866045D01*
X149599136Y-84866050D01*
X149441307Y-85109086D01*
X149439027Y-85112597D01*
X149437233Y-85116376D01*
X149437232Y-85116377D01*
X149403290Y-85187858D01*
X149311137Y-85381932D01*
X149309858Y-85385915D01*
X149309857Y-85385918D01*
X149249183Y-85574895D01*
X149219992Y-85665815D01*
X149213841Y-85700000D01*
X149168159Y-85953898D01*
X149167194Y-85959259D01*
X149167005Y-85963426D01*
X149167004Y-85963433D01*
X149154772Y-86232797D01*
X149153668Y-86257108D01*
X147427366Y-86257108D01*
X147417970Y-86054105D01*
X147373609Y-85870035D01*
X147370135Y-85855621D01*
X147370134Y-85855619D01*
X147368729Y-85849788D01*
X147366246Y-85844325D01*
X147308194Y-85716648D01*
X147281741Y-85658468D01*
X147160145Y-85487049D01*
X147048538Y-85380209D01*
X147012658Y-85345861D01*
X147012657Y-85345860D01*
X147008328Y-85341716D01*
X146831768Y-85227712D01*
X146758666Y-85198251D01*
X146642404Y-85151396D01*
X146642401Y-85151395D01*
X146636835Y-85149152D01*
X146533874Y-85129045D01*
X146435011Y-85109738D01*
X146435008Y-85109738D01*
X146430565Y-85108870D01*
X146425044Y-85108600D01*
X146270087Y-85108600D01*
X146145349Y-85120501D01*
X146119366Y-85122980D01*
X146113381Y-85123551D01*
X146107627Y-85125239D01*
X145917466Y-85181026D01*
X145917464Y-85181027D01*
X145911713Y-85182714D01*
X145906381Y-85185460D01*
X145906379Y-85185461D01*
X145730202Y-85276198D01*
X145730199Y-85276200D01*
X145724871Y-85278944D01*
X145682677Y-85312088D01*
X145564313Y-85405063D01*
X145564308Y-85405067D01*
X145559596Y-85408769D01*
X145555665Y-85413299D01*
X145555664Y-85413300D01*
X145425783Y-85562973D01*
X145425779Y-85562978D01*
X145421852Y-85567504D01*
X145316610Y-85749423D01*
X145314641Y-85755092D01*
X145314640Y-85755095D01*
X145275368Y-85868188D01*
X145247666Y-85947960D01*
X145246805Y-85953897D01*
X145246805Y-85953898D01*
X145220370Y-86136222D01*
X145217509Y-86155952D01*
X140278843Y-86155952D01*
X140287152Y-86145124D01*
X140319664Y-86102754D01*
X140378156Y-85961541D01*
X140398107Y-85810000D01*
X140378156Y-85658459D01*
X140319664Y-85517246D01*
X140247287Y-85422923D01*
X140231644Y-85402536D01*
X140231641Y-85402533D01*
X140226615Y-85395983D01*
X140208304Y-85381932D01*
X140136014Y-85326461D01*
X140094147Y-85269122D01*
X140089926Y-85198251D01*
X140124691Y-85136349D01*
X140187404Y-85103068D01*
X140212719Y-85100499D01*
X141055374Y-85100499D01*
X141108026Y-85090027D01*
X141118346Y-85083132D01*
X141118347Y-85083131D01*
X141157415Y-85057026D01*
X141157416Y-85057025D01*
X141167731Y-85050133D01*
X141207625Y-84990428D01*
X141218098Y-84937777D01*
X141218098Y-83777165D01*
X153460464Y-83777165D01*
X153495550Y-84034970D01*
X153496858Y-84039456D01*
X153496858Y-84039458D01*
X153506574Y-84072793D01*
X153568356Y-84284757D01*
X153570316Y-84289010D01*
X153570317Y-84289011D01*
X153588101Y-84327587D01*
X153677284Y-84521039D01*
X153679844Y-84524944D01*
X153679847Y-84524949D01*
X153817373Y-84734712D01*
X153817377Y-84734717D01*
X153819939Y-84738625D01*
X153860271Y-84783813D01*
X153987653Y-84926532D01*
X153993189Y-84932735D01*
X154193227Y-85099105D01*
X154415659Y-85234080D01*
X154419973Y-85235889D01*
X154419975Y-85235890D01*
X154651284Y-85332886D01*
X154651289Y-85332888D01*
X154655599Y-85334695D01*
X154660131Y-85335846D01*
X154660134Y-85335847D01*
X154768059Y-85363256D01*
X154907775Y-85398739D01*
X155123884Y-85420500D01*
X155278642Y-85420500D01*
X155280967Y-85420327D01*
X155281000Y-85420326D01*
X155446517Y-85408025D01*
X155515933Y-85422923D01*
X155566274Y-85472985D01*
X155581558Y-85542317D01*
X155564920Y-85596771D01*
X155476610Y-85749423D01*
X155474641Y-85755092D01*
X155474640Y-85755095D01*
X155435368Y-85868188D01*
X155407666Y-85947960D01*
X155406805Y-85953897D01*
X155406805Y-85953898D01*
X155380370Y-86136222D01*
X155377509Y-86155952D01*
X155387226Y-86365895D01*
X155388630Y-86371720D01*
X155433577Y-86558219D01*
X155436467Y-86570212D01*
X155523455Y-86761532D01*
X155645051Y-86932951D01*
X155729535Y-87013827D01*
X155758809Y-87041850D01*
X155796868Y-87078284D01*
X155973428Y-87192288D01*
X155978994Y-87194531D01*
X156162792Y-87268604D01*
X156162795Y-87268605D01*
X156168361Y-87270848D01*
X156271322Y-87290955D01*
X156370185Y-87310262D01*
X156370188Y-87310262D01*
X156374631Y-87311130D01*
X156380152Y-87311400D01*
X156535109Y-87311400D01*
X156691815Y-87296449D01*
X156775161Y-87271998D01*
X156887730Y-87238974D01*
X156887732Y-87238973D01*
X156893483Y-87237286D01*
X156911513Y-87228000D01*
X157074994Y-87143802D01*
X157074997Y-87143800D01*
X157080325Y-87141056D01*
X157160239Y-87078283D01*
X157240883Y-87014937D01*
X157240888Y-87014933D01*
X157245600Y-87011231D01*
X157249533Y-87006699D01*
X157379413Y-86857027D01*
X157379417Y-86857022D01*
X157383344Y-86852496D01*
X157488586Y-86670577D01*
X157521543Y-86575673D01*
X157555561Y-86477710D01*
X157555561Y-86477709D01*
X157557530Y-86472040D01*
X157558427Y-86465855D01*
X157586826Y-86269988D01*
X157586826Y-86269985D01*
X157587687Y-86264048D01*
X157577970Y-86054105D01*
X157533609Y-85870035D01*
X157530135Y-85855621D01*
X157530134Y-85855619D01*
X157528729Y-85849788D01*
X157526246Y-85844325D01*
X157468194Y-85716648D01*
X157441741Y-85658468D01*
X157320145Y-85487049D01*
X157208538Y-85380209D01*
X157172658Y-85345861D01*
X157172657Y-85345860D01*
X157168328Y-85341716D01*
X156991768Y-85227712D01*
X156918666Y-85198251D01*
X156802404Y-85151396D01*
X156802401Y-85151395D01*
X156796835Y-85149152D01*
X156693874Y-85129045D01*
X156595011Y-85109738D01*
X156595008Y-85109738D01*
X156590565Y-85108870D01*
X156585044Y-85108600D01*
X156554236Y-85108600D01*
X156486115Y-85088598D01*
X156439622Y-85034942D01*
X156429518Y-84964668D01*
X156462461Y-84896267D01*
X156562392Y-84790037D01*
X156576806Y-84774714D01*
X156718655Y-84570241D01*
X156722444Y-84564779D01*
X156722446Y-84564776D01*
X156725109Y-84560937D01*
X156728280Y-84554507D01*
X156838119Y-84331775D01*
X156838120Y-84331772D01*
X156840184Y-84327587D01*
X156855335Y-84280257D01*
X156911956Y-84103371D01*
X156919504Y-84079792D01*
X156961326Y-83822994D01*
X156964732Y-83562835D01*
X156929646Y-83305030D01*
X156914464Y-83252941D01*
X156858151Y-83059742D01*
X156858151Y-83059741D01*
X156856840Y-83055243D01*
X156854879Y-83050988D01*
X156776282Y-82880500D01*
X156747912Y-82818961D01*
X156741864Y-82809736D01*
X156607823Y-82605288D01*
X156607819Y-82605283D01*
X156605257Y-82601375D01*
X156479743Y-82460749D01*
X156435124Y-82410757D01*
X156435122Y-82410755D01*
X156432007Y-82407265D01*
X156425945Y-82402223D01*
X157507098Y-82402223D01*
X157507099Y-84937776D01*
X157517571Y-84990428D01*
X157524466Y-85000748D01*
X157524467Y-85000749D01*
X157532406Y-85012630D01*
X157557465Y-85050133D01*
X157617170Y-85090027D01*
X157669821Y-85100500D01*
X158556098Y-85100500D01*
X158624219Y-85120502D01*
X158670712Y-85174158D01*
X158682098Y-85226500D01*
X158682098Y-85312088D01*
X158662096Y-85380209D01*
X158632802Y-85412050D01*
X158595136Y-85440953D01*
X158588581Y-85445983D01*
X158583555Y-85452533D01*
X158583552Y-85452536D01*
X158542057Y-85506614D01*
X158495532Y-85567246D01*
X158437040Y-85708459D01*
X158417089Y-85860000D01*
X158437040Y-86011541D01*
X158495532Y-86152754D01*
X158526657Y-86193316D01*
X158583552Y-86267464D01*
X158583555Y-86267467D01*
X158588581Y-86274017D01*
X158595131Y-86279043D01*
X158595132Y-86279044D01*
X158700509Y-86359904D01*
X158709843Y-86367066D01*
X158851057Y-86425558D01*
X159002598Y-86445509D01*
X159154139Y-86425558D01*
X159295353Y-86367066D01*
X159304687Y-86359904D01*
X159410064Y-86279044D01*
X159410065Y-86279043D01*
X159416615Y-86274017D01*
X159421641Y-86267467D01*
X159421644Y-86267464D01*
X159478539Y-86193316D01*
X159509664Y-86152754D01*
X159568156Y-86011541D01*
X159588107Y-85860000D01*
X159568156Y-85708459D01*
X159509664Y-85567246D01*
X159463139Y-85506614D01*
X159421644Y-85452536D01*
X159421641Y-85452533D01*
X159416615Y-85445983D01*
X159383406Y-85420500D01*
X159295353Y-85352934D01*
X159296977Y-85350817D01*
X159257104Y-85308998D01*
X159243098Y-85251263D01*
X159243098Y-85226499D01*
X159263100Y-85158378D01*
X159316756Y-85111885D01*
X159369098Y-85100499D01*
X160255374Y-85100499D01*
X160308026Y-85090027D01*
X160318346Y-85083132D01*
X160318347Y-85083131D01*
X160357415Y-85057026D01*
X160357416Y-85057025D01*
X160367731Y-85050133D01*
X160407625Y-84990428D01*
X160418098Y-84937777D01*
X160418097Y-82402224D01*
X160407625Y-82349572D01*
X160367731Y-82289867D01*
X160308026Y-82249973D01*
X160255375Y-82239500D01*
X158962807Y-82239500D01*
X157669822Y-82239501D01*
X157617170Y-82249973D01*
X157606850Y-82256868D01*
X157606849Y-82256869D01*
X157567782Y-82282973D01*
X157557465Y-82289867D01*
X157517571Y-82349572D01*
X157507098Y-82402223D01*
X156425945Y-82402223D01*
X156231969Y-82240895D01*
X156009537Y-82105920D01*
X156005221Y-82104110D01*
X155773912Y-82007114D01*
X155773907Y-82007112D01*
X155769597Y-82005305D01*
X155765065Y-82004154D01*
X155765062Y-82004153D01*
X155639783Y-81972337D01*
X155517421Y-81941261D01*
X155301312Y-81919500D01*
X155146554Y-81919500D01*
X155144229Y-81919673D01*
X155144223Y-81919673D01*
X154957784Y-81933528D01*
X154957780Y-81933529D01*
X154953132Y-81933874D01*
X154699366Y-81991295D01*
X154695014Y-81992987D01*
X154695012Y-81992988D01*
X154461228Y-82083902D01*
X154461226Y-82083903D01*
X154456875Y-82085595D01*
X154452821Y-82087912D01*
X154452819Y-82087913D01*
X154417067Y-82108347D01*
X154230986Y-82214701D01*
X154026662Y-82375777D01*
X153848390Y-82565286D01*
X153700087Y-82779063D01*
X153698021Y-82783253D01*
X153698019Y-82783256D01*
X153587078Y-83008224D01*
X153585012Y-83012413D01*
X153505692Y-83260208D01*
X153498392Y-83305030D01*
X153465952Y-83504225D01*
X153463870Y-83517006D01*
X153460464Y-83777165D01*
X141218098Y-83777165D01*
X141218097Y-82402224D01*
X141207625Y-82349572D01*
X141167731Y-82289867D01*
X141108026Y-82249973D01*
X141055375Y-82239500D01*
X139762807Y-82239500D01*
X138469822Y-82239501D01*
X138417170Y-82249973D01*
X138406850Y-82256868D01*
X138406849Y-82256869D01*
X138367782Y-82282973D01*
X138357465Y-82289867D01*
X138317571Y-82349572D01*
X138307098Y-82402223D01*
X137225945Y-82402223D01*
X137031969Y-82240895D01*
X136809537Y-82105920D01*
X136805221Y-82104110D01*
X136573912Y-82007114D01*
X136573907Y-82007112D01*
X136569597Y-82005305D01*
X136565065Y-82004154D01*
X136565062Y-82004153D01*
X136439783Y-81972337D01*
X136317421Y-81941261D01*
X136101312Y-81919500D01*
X135946554Y-81919500D01*
X135944229Y-81919673D01*
X135944223Y-81919673D01*
X135757784Y-81933528D01*
X135757780Y-81933529D01*
X135753132Y-81933874D01*
X135499366Y-81991295D01*
X135495014Y-81992987D01*
X135495012Y-81992988D01*
X135261228Y-82083902D01*
X135261226Y-82083903D01*
X135256875Y-82085595D01*
X135252821Y-82087912D01*
X135252819Y-82087913D01*
X135217067Y-82108347D01*
X135030986Y-82214701D01*
X134826662Y-82375777D01*
X134648390Y-82565286D01*
X134500087Y-82779063D01*
X134498021Y-82783253D01*
X134498019Y-82783256D01*
X134387078Y-83008224D01*
X134385012Y-83012413D01*
X134305692Y-83260208D01*
X134298392Y-83305030D01*
X134265952Y-83504225D01*
X134263870Y-83517006D01*
X134260464Y-83777165D01*
X125653098Y-83777165D01*
X125653098Y-82686500D01*
X125673100Y-82618379D01*
X125726756Y-82571886D01*
X125779098Y-82560500D01*
X127132697Y-82560499D01*
X127205374Y-82560499D01*
X127258026Y-82550027D01*
X127268346Y-82543132D01*
X127268347Y-82543131D01*
X127307415Y-82517026D01*
X127307416Y-82517025D01*
X127317731Y-82510133D01*
X127357625Y-82450428D01*
X127368098Y-82397777D01*
X127368098Y-81237165D01*
X127910464Y-81237165D01*
X127945550Y-81494970D01*
X128018356Y-81744757D01*
X128020316Y-81749010D01*
X128020317Y-81749011D01*
X128038101Y-81787587D01*
X128127284Y-81981039D01*
X128129844Y-81984944D01*
X128129847Y-81984949D01*
X128267373Y-82194712D01*
X128267377Y-82194717D01*
X128269939Y-82198625D01*
X128310334Y-82243884D01*
X128404665Y-82349572D01*
X128443189Y-82392735D01*
X128643227Y-82559105D01*
X128865659Y-82694080D01*
X128869973Y-82695889D01*
X128869975Y-82695890D01*
X129101284Y-82792886D01*
X129101289Y-82792888D01*
X129105599Y-82794695D01*
X129110131Y-82795846D01*
X129110134Y-82795847D01*
X129201143Y-82818960D01*
X129357775Y-82858739D01*
X129573884Y-82880500D01*
X129728642Y-82880500D01*
X129730967Y-82880327D01*
X129730973Y-82880327D01*
X129917412Y-82866472D01*
X129917416Y-82866471D01*
X129922064Y-82866126D01*
X130175830Y-82808705D01*
X130180184Y-82807012D01*
X130413968Y-82716098D01*
X130413970Y-82716097D01*
X130418321Y-82714405D01*
X130422379Y-82712086D01*
X130586332Y-82618379D01*
X130644210Y-82585299D01*
X130848534Y-82424223D01*
X131026806Y-82234714D01*
X131172445Y-82024778D01*
X131172446Y-82024776D01*
X131175109Y-82020937D01*
X131181926Y-82007113D01*
X131288119Y-81791775D01*
X131288120Y-81791772D01*
X131290184Y-81787587D01*
X131305335Y-81740257D01*
X131368081Y-81544237D01*
X131368081Y-81544236D01*
X131369504Y-81539792D01*
X131411326Y-81282994D01*
X131414732Y-81022835D01*
X131379646Y-80765030D01*
X131306840Y-80515243D01*
X131304879Y-80510988D01*
X131199869Y-80283207D01*
X131197912Y-80278961D01*
X131174503Y-80243256D01*
X131057823Y-80065288D01*
X131057819Y-80065283D01*
X131055257Y-80061375D01*
X130882007Y-79867265D01*
X130681969Y-79700895D01*
X130459537Y-79565920D01*
X130455221Y-79564110D01*
X130223912Y-79467114D01*
X130223907Y-79467112D01*
X130219597Y-79465305D01*
X130215065Y-79464154D01*
X130215062Y-79464153D01*
X130089783Y-79432337D01*
X129967421Y-79401261D01*
X129751312Y-79379500D01*
X129596554Y-79379500D01*
X129594229Y-79379673D01*
X129594223Y-79379673D01*
X129407784Y-79393528D01*
X129407780Y-79393529D01*
X129403132Y-79393874D01*
X129149366Y-79451295D01*
X129145014Y-79452987D01*
X129145012Y-79452988D01*
X128911228Y-79543902D01*
X128911226Y-79543903D01*
X128906875Y-79545595D01*
X128902821Y-79547912D01*
X128902819Y-79547913D01*
X128867067Y-79568347D01*
X128680986Y-79674701D01*
X128476662Y-79835777D01*
X128298390Y-80025286D01*
X128150087Y-80239063D01*
X128148021Y-80243253D01*
X128148019Y-80243256D01*
X128037078Y-80468224D01*
X128035012Y-80472413D01*
X127955692Y-80720208D01*
X127913870Y-80977006D01*
X127910464Y-81237165D01*
X127368098Y-81237165D01*
X127368097Y-79862224D01*
X127357625Y-79809572D01*
X127317731Y-79749867D01*
X127258026Y-79709973D01*
X127205375Y-79699500D01*
X125912807Y-79699500D01*
X124619822Y-79699501D01*
X124567170Y-79709973D01*
X124556850Y-79716868D01*
X124556849Y-79716869D01*
X124517782Y-79742973D01*
X124507465Y-79749867D01*
X124467571Y-79809572D01*
X124457098Y-79862223D01*
X124457099Y-82397776D01*
X124467571Y-82450428D01*
X124507465Y-82510133D01*
X124567170Y-82550027D01*
X124619821Y-82560500D01*
X124966098Y-82560500D01*
X125034219Y-82580502D01*
X125080712Y-82634158D01*
X125092098Y-82686500D01*
X125092098Y-86961467D01*
X125091948Y-86963515D01*
X125090300Y-86968314D01*
X125091912Y-87011231D01*
X125092009Y-87013827D01*
X125092098Y-87018555D01*
X125092098Y-87036090D01*
X125092939Y-87040602D01*
X125093119Y-87043386D01*
X125093784Y-87061108D01*
X125093785Y-87061111D01*
X125094221Y-87072735D01*
X125098813Y-87083425D01*
X125100351Y-87090248D01*
X125101729Y-87094784D01*
X125104241Y-87101294D01*
X125106371Y-87112728D01*
X125113888Y-87124923D01*
X125118122Y-87131792D01*
X125126629Y-87148168D01*
X125135469Y-87168743D01*
X125139215Y-87173304D01*
X125141411Y-87175500D01*
X125143462Y-87177762D01*
X125143199Y-87178001D01*
X125147281Y-87183165D01*
X125147285Y-87183161D01*
X125155098Y-87191778D01*
X125161203Y-87201682D01*
X125181092Y-87216806D01*
X125193911Y-87228000D01*
X126980316Y-89014405D01*
X127014342Y-89076717D01*
X127009277Y-89147532D01*
X126966730Y-89204368D01*
X126900210Y-89229179D01*
X126891221Y-89229500D01*
X108140975Y-89229500D01*
X108072854Y-89209498D01*
X108051880Y-89192595D01*
X106290003Y-87430718D01*
X106255977Y-87368406D01*
X106253098Y-87341623D01*
X106253098Y-86155951D01*
X106837509Y-86155951D01*
X106847226Y-86365894D01*
X106848630Y-86371719D01*
X106848630Y-86371720D01*
X106893577Y-86558218D01*
X106896467Y-86570211D01*
X106898949Y-86575669D01*
X106898950Y-86575673D01*
X106939521Y-86664904D01*
X106983455Y-86761531D01*
X107105051Y-86932950D01*
X107189536Y-87013827D01*
X107218809Y-87041849D01*
X107256868Y-87078283D01*
X107433428Y-87192287D01*
X107438994Y-87194530D01*
X107622792Y-87268603D01*
X107622795Y-87268604D01*
X107628361Y-87270847D01*
X107731322Y-87290954D01*
X107830185Y-87310261D01*
X107830188Y-87310261D01*
X107834631Y-87311129D01*
X107840152Y-87311399D01*
X107995109Y-87311399D01*
X108131379Y-87298398D01*
X108145841Y-87297018D01*
X108151815Y-87296448D01*
X108157569Y-87294760D01*
X108347730Y-87238973D01*
X108347732Y-87238972D01*
X108353483Y-87237285D01*
X108371511Y-87228000D01*
X108534994Y-87143801D01*
X108534997Y-87143799D01*
X108540325Y-87141055D01*
X108601605Y-87092919D01*
X108700883Y-87014936D01*
X108700888Y-87014932D01*
X108705600Y-87011230D01*
X108709532Y-87006699D01*
X108839413Y-86857026D01*
X108839417Y-86857021D01*
X108843344Y-86852495D01*
X108948586Y-86670576D01*
X108950555Y-86664907D01*
X108950556Y-86664904D01*
X109015561Y-86477709D01*
X109017530Y-86472039D01*
X109018572Y-86464850D01*
X109046826Y-86269987D01*
X109046826Y-86269984D01*
X109047687Y-86264047D01*
X109047366Y-86257107D01*
X110773668Y-86257107D01*
X110774031Y-86261255D01*
X110774031Y-86261259D01*
X110799289Y-86549963D01*
X110799290Y-86549971D01*
X110799654Y-86554129D01*
X110800568Y-86558218D01*
X110859894Y-86823624D01*
X110864695Y-86845104D01*
X110866139Y-86849029D01*
X110866140Y-86849032D01*
X110867414Y-86852495D01*
X110967648Y-87124922D01*
X110969595Y-87128615D01*
X110969596Y-87128617D01*
X111026890Y-87237285D01*
X111106704Y-87388665D01*
X111279420Y-87631700D01*
X111282264Y-87634750D01*
X111282269Y-87634756D01*
X111479912Y-87846702D01*
X111482762Y-87849758D01*
X111713157Y-88039007D01*
X111966558Y-88196122D01*
X111970370Y-88197835D01*
X112234695Y-88316628D01*
X112234698Y-88316629D01*
X112238512Y-88318343D01*
X112242518Y-88319537D01*
X112242520Y-88319538D01*
X112381377Y-88360933D01*
X112524242Y-88403522D01*
X112818727Y-88450164D01*
X112863999Y-88452220D01*
X112910567Y-88454335D01*
X112910586Y-88454335D01*
X112911986Y-88454399D01*
X113098223Y-88454399D01*
X113320099Y-88439662D01*
X113612372Y-88380729D01*
X113894284Y-88283659D01*
X113898017Y-88281790D01*
X113898021Y-88281788D01*
X114157138Y-88152032D01*
X114157140Y-88152031D01*
X114160882Y-88150157D01*
X114371482Y-88007034D01*
X114404022Y-87984920D01*
X114404025Y-87984918D01*
X114407481Y-87982569D01*
X114629749Y-87783838D01*
X114679493Y-87725801D01*
X114821062Y-87560630D01*
X114821065Y-87560626D01*
X114823782Y-87557456D01*
X114826059Y-87553950D01*
X114826060Y-87553949D01*
X114983890Y-87310912D01*
X114983893Y-87310907D01*
X114986169Y-87307402D01*
X114992172Y-87294761D01*
X115042374Y-87189034D01*
X115114059Y-87038067D01*
X115115338Y-87034084D01*
X115115339Y-87034081D01*
X115203924Y-86758171D01*
X115203924Y-86758170D01*
X115205204Y-86754184D01*
X115221268Y-86664904D01*
X115257263Y-86464849D01*
X115257264Y-86464844D01*
X115258002Y-86460740D01*
X115259744Y-86422397D01*
X115271339Y-86167061D01*
X115271339Y-86167055D01*
X115271528Y-86162891D01*
X115269974Y-86145124D01*
X115245907Y-85870035D01*
X115245906Y-85870027D01*
X115245542Y-85865869D01*
X115233054Y-85810000D01*
X115181415Y-85578982D01*
X115181414Y-85578979D01*
X115180501Y-85574894D01*
X115172012Y-85551820D01*
X115131220Y-85440953D01*
X115077548Y-85295076D01*
X115070996Y-85282648D01*
X114986812Y-85122980D01*
X114938492Y-85031333D01*
X114765776Y-84788298D01*
X114762932Y-84785248D01*
X114762927Y-84785242D01*
X114565284Y-84573296D01*
X114565282Y-84573294D01*
X114562434Y-84570240D01*
X114332039Y-84380991D01*
X114078638Y-84223876D01*
X113883862Y-84136340D01*
X113810501Y-84103370D01*
X113810495Y-84103368D01*
X113806684Y-84101655D01*
X113802678Y-84100461D01*
X113802676Y-84100460D01*
X113598043Y-84039457D01*
X113520954Y-84016476D01*
X113226469Y-83969834D01*
X113181197Y-83967778D01*
X113134629Y-83965663D01*
X113134610Y-83965663D01*
X113133210Y-83965599D01*
X112946973Y-83965599D01*
X112725097Y-83980336D01*
X112432824Y-84039269D01*
X112150912Y-84136339D01*
X112147179Y-84138208D01*
X112147175Y-84138210D01*
X111907005Y-84258478D01*
X111884314Y-84269841D01*
X111868986Y-84280258D01*
X111716855Y-84383646D01*
X111637715Y-84437429D01*
X111415447Y-84636160D01*
X111412730Y-84639330D01*
X111412729Y-84639331D01*
X111224134Y-84859368D01*
X111224131Y-84859372D01*
X111221414Y-84862542D01*
X111219140Y-84866044D01*
X111219136Y-84866049D01*
X111061306Y-85109086D01*
X111061303Y-85109091D01*
X111059027Y-85112596D01*
X111057233Y-85116375D01*
X111057232Y-85116376D01*
X111024428Y-85185461D01*
X110931137Y-85381931D01*
X110929858Y-85385914D01*
X110929857Y-85385917D01*
X110841272Y-85661827D01*
X110839992Y-85665814D01*
X110839251Y-85669933D01*
X110788159Y-85953897D01*
X110787194Y-85959258D01*
X110787005Y-85963425D01*
X110787004Y-85963432D01*
X110774772Y-86232797D01*
X110773668Y-86257107D01*
X109047366Y-86257107D01*
X109037970Y-86054104D01*
X109006189Y-85922232D01*
X108990135Y-85855620D01*
X108990134Y-85855618D01*
X108988729Y-85849787D01*
X108985804Y-85843352D01*
X108906954Y-85669933D01*
X108901741Y-85658467D01*
X108780145Y-85487048D01*
X108666389Y-85378150D01*
X108632658Y-85345860D01*
X108628328Y-85341715D01*
X108451768Y-85227711D01*
X108346932Y-85185461D01*
X108262404Y-85151395D01*
X108262401Y-85151394D01*
X108256835Y-85149151D01*
X108146721Y-85127647D01*
X108055011Y-85109737D01*
X108055008Y-85109737D01*
X108050565Y-85108869D01*
X108045044Y-85108599D01*
X107890087Y-85108599D01*
X107733381Y-85123550D01*
X107727627Y-85125238D01*
X107537466Y-85181025D01*
X107537464Y-85181026D01*
X107531713Y-85182713D01*
X107526381Y-85185459D01*
X107526379Y-85185460D01*
X107350202Y-85276197D01*
X107350199Y-85276199D01*
X107344871Y-85278943D01*
X107293211Y-85319523D01*
X107184313Y-85405062D01*
X107184308Y-85405066D01*
X107179596Y-85408768D01*
X107175665Y-85413298D01*
X107175664Y-85413299D01*
X107045783Y-85562972D01*
X107045779Y-85562977D01*
X107041852Y-85567503D01*
X107038848Y-85572696D01*
X106960308Y-85708459D01*
X106936610Y-85749422D01*
X106934641Y-85755091D01*
X106934640Y-85755094D01*
X106890126Y-85883280D01*
X106867666Y-85947959D01*
X106866805Y-85953897D01*
X106840370Y-86136222D01*
X106837509Y-86155951D01*
X106253098Y-86155951D01*
X106253098Y-83777164D01*
X115080464Y-83777164D01*
X115115550Y-84034969D01*
X115116858Y-84039455D01*
X115116858Y-84039457D01*
X115117201Y-84040633D01*
X115188356Y-84284756D01*
X115190316Y-84289009D01*
X115190317Y-84289010D01*
X115206052Y-84323141D01*
X115297284Y-84521038D01*
X115299844Y-84524943D01*
X115299847Y-84524948D01*
X115437373Y-84734711D01*
X115437374Y-84734712D01*
X115439939Y-84738624D01*
X115513211Y-84820718D01*
X115557082Y-84869871D01*
X115613189Y-84932734D01*
X115813227Y-85099104D01*
X116035659Y-85234079D01*
X116039973Y-85235888D01*
X116039975Y-85235889D01*
X116271284Y-85332885D01*
X116271287Y-85332886D01*
X116275599Y-85334694D01*
X116280131Y-85335845D01*
X116280134Y-85335846D01*
X116388063Y-85363256D01*
X116527775Y-85398738D01*
X116743884Y-85420499D01*
X116898642Y-85420499D01*
X116900967Y-85420326D01*
X116901000Y-85420325D01*
X117066517Y-85408024D01*
X117135933Y-85422922D01*
X117186274Y-85472984D01*
X117201558Y-85542316D01*
X117184920Y-85596770D01*
X117096610Y-85749422D01*
X117094641Y-85755091D01*
X117094640Y-85755094D01*
X117050126Y-85883280D01*
X117027666Y-85947959D01*
X117026805Y-85953897D01*
X117000370Y-86136222D01*
X116997509Y-86155951D01*
X117007226Y-86365894D01*
X117008630Y-86371719D01*
X117008630Y-86371720D01*
X117053577Y-86558218D01*
X117056467Y-86570211D01*
X117058949Y-86575669D01*
X117058950Y-86575673D01*
X117099521Y-86664904D01*
X117143455Y-86761531D01*
X117265051Y-86932950D01*
X117349536Y-87013827D01*
X117378809Y-87041849D01*
X117416868Y-87078283D01*
X117593428Y-87192287D01*
X117598994Y-87194530D01*
X117782792Y-87268603D01*
X117782795Y-87268604D01*
X117788361Y-87270847D01*
X117891322Y-87290954D01*
X117990185Y-87310261D01*
X117990188Y-87310261D01*
X117994631Y-87311129D01*
X118000152Y-87311399D01*
X118155109Y-87311399D01*
X118291379Y-87298398D01*
X118305841Y-87297018D01*
X118311815Y-87296448D01*
X118317569Y-87294760D01*
X118507730Y-87238973D01*
X118507732Y-87238972D01*
X118513483Y-87237285D01*
X118531511Y-87228000D01*
X118694994Y-87143801D01*
X118694997Y-87143799D01*
X118700325Y-87141055D01*
X118761605Y-87092919D01*
X118860883Y-87014936D01*
X118860888Y-87014932D01*
X118865600Y-87011230D01*
X118869532Y-87006699D01*
X118999413Y-86857026D01*
X118999417Y-86857021D01*
X119003344Y-86852495D01*
X119108586Y-86670576D01*
X119110555Y-86664907D01*
X119110556Y-86664904D01*
X119175561Y-86477709D01*
X119177530Y-86472039D01*
X119178572Y-86464850D01*
X119206826Y-86269987D01*
X119206826Y-86269984D01*
X119207687Y-86264047D01*
X119197970Y-86054104D01*
X119166189Y-85922232D01*
X119150135Y-85855620D01*
X119150134Y-85855618D01*
X119148729Y-85849787D01*
X119145804Y-85843352D01*
X119066954Y-85669933D01*
X119061741Y-85658467D01*
X118940145Y-85487048D01*
X118826389Y-85378150D01*
X118792658Y-85345860D01*
X118788328Y-85341715D01*
X118611768Y-85227711D01*
X118506932Y-85185461D01*
X118422404Y-85151395D01*
X118422401Y-85151394D01*
X118416835Y-85149151D01*
X118306721Y-85127647D01*
X118215011Y-85109737D01*
X118215008Y-85109737D01*
X118210565Y-85108869D01*
X118205044Y-85108599D01*
X118174236Y-85108599D01*
X118106115Y-85088597D01*
X118059622Y-85034941D01*
X118049518Y-84964667D01*
X118082461Y-84896266D01*
X118184026Y-84788299D01*
X118196806Y-84774713D01*
X118338655Y-84570240D01*
X118342444Y-84564778D01*
X118342446Y-84564775D01*
X118345109Y-84560936D01*
X118347177Y-84556743D01*
X118458119Y-84331774D01*
X118458120Y-84331771D01*
X118460184Y-84327586D01*
X118539504Y-84079791D01*
X118581326Y-83822993D01*
X118584732Y-83562834D01*
X118549646Y-83305029D01*
X118476840Y-83055242D01*
X118457096Y-83012413D01*
X118396282Y-82880499D01*
X118367912Y-82818960D01*
X118365352Y-82815055D01*
X118365349Y-82815050D01*
X118227823Y-82605287D01*
X118227819Y-82605282D01*
X118225257Y-82601374D01*
X118099739Y-82460743D01*
X118055124Y-82410756D01*
X118055122Y-82410754D01*
X118052007Y-82407264D01*
X118045945Y-82402222D01*
X119127098Y-82402222D01*
X119127099Y-84937775D01*
X119137571Y-84990427D01*
X119144465Y-85000744D01*
X119144467Y-85000748D01*
X119162629Y-85027928D01*
X119177465Y-85050132D01*
X119237170Y-85090026D01*
X119289821Y-85100499D01*
X120176098Y-85100499D01*
X120244219Y-85120501D01*
X120290712Y-85174157D01*
X120302098Y-85226499D01*
X120302098Y-85231396D01*
X120282096Y-85299517D01*
X120252807Y-85331354D01*
X120168581Y-85395983D01*
X120075532Y-85517246D01*
X120017040Y-85658459D01*
X119997089Y-85810000D01*
X120017040Y-85961541D01*
X120075532Y-86102754D01*
X120108044Y-86145124D01*
X120163552Y-86217464D01*
X120163555Y-86217467D01*
X120168581Y-86224017D01*
X120175131Y-86229043D01*
X120175132Y-86229044D01*
X120247313Y-86284431D01*
X120289843Y-86317066D01*
X120431057Y-86375558D01*
X120582598Y-86395509D01*
X120734139Y-86375558D01*
X120875353Y-86317066D01*
X120917883Y-86284431D01*
X120990064Y-86229044D01*
X120990065Y-86229043D01*
X120996615Y-86224017D01*
X121001641Y-86217467D01*
X121001644Y-86217464D01*
X121057152Y-86145124D01*
X121089664Y-86102754D01*
X121148156Y-85961541D01*
X121168107Y-85810000D01*
X121148156Y-85658459D01*
X121089664Y-85517246D01*
X121017287Y-85422923D01*
X121001644Y-85402536D01*
X121001641Y-85402533D01*
X120996615Y-85395983D01*
X120978304Y-85381932D01*
X120912393Y-85331356D01*
X120870526Y-85274017D01*
X120863098Y-85231394D01*
X120863098Y-85226498D01*
X120883100Y-85158377D01*
X120936756Y-85111884D01*
X120989098Y-85100498D01*
X121875374Y-85100498D01*
X121928026Y-85090026D01*
X121938346Y-85083131D01*
X121938347Y-85083130D01*
X121977415Y-85057025D01*
X121987731Y-85050132D01*
X122027625Y-84990427D01*
X122038098Y-84937776D01*
X122038097Y-82402223D01*
X122027625Y-82349571D01*
X121987731Y-82289866D01*
X121928026Y-82249972D01*
X121875375Y-82239499D01*
X120582807Y-82239499D01*
X119289822Y-82239500D01*
X119237170Y-82249972D01*
X119226850Y-82256867D01*
X119226848Y-82256869D01*
X119177465Y-82289866D01*
X119137571Y-82349571D01*
X119127098Y-82402222D01*
X118045945Y-82402222D01*
X117851969Y-82240894D01*
X117629537Y-82105919D01*
X117619223Y-82101594D01*
X117393912Y-82007113D01*
X117393907Y-82007111D01*
X117389597Y-82005304D01*
X117385065Y-82004153D01*
X117385062Y-82004152D01*
X117259783Y-81972336D01*
X117137421Y-81941260D01*
X116921312Y-81919499D01*
X116766554Y-81919499D01*
X116764229Y-81919672D01*
X116764223Y-81919672D01*
X116577784Y-81933527D01*
X116577780Y-81933528D01*
X116573132Y-81933873D01*
X116319366Y-81991294D01*
X116315014Y-81992986D01*
X116315012Y-81992987D01*
X116081228Y-82083901D01*
X116081226Y-82083902D01*
X116076875Y-82085594D01*
X116072821Y-82087911D01*
X116072819Y-82087912D01*
X116041312Y-82105920D01*
X115850986Y-82214700D01*
X115646662Y-82375776D01*
X115468390Y-82565285D01*
X115377786Y-82695890D01*
X115322752Y-82775220D01*
X115322750Y-82775223D01*
X115320087Y-82779062D01*
X115318021Y-82783252D01*
X115318019Y-82783255D01*
X115270064Y-82880500D01*
X115205012Y-83012412D01*
X115203590Y-83016855D01*
X115203589Y-83016857D01*
X115165352Y-83136310D01*
X115125692Y-83260207D01*
X115083870Y-83517005D01*
X115080464Y-83777164D01*
X106253098Y-83777164D01*
X106253098Y-82686499D01*
X106273100Y-82618378D01*
X106326756Y-82571885D01*
X106379098Y-82560499D01*
X107942397Y-82560498D01*
X108025374Y-82560498D01*
X108078026Y-82550026D01*
X108088346Y-82543131D01*
X108088347Y-82543130D01*
X108127415Y-82517025D01*
X108137731Y-82510132D01*
X108177625Y-82450427D01*
X108188098Y-82397776D01*
X108188098Y-81237164D01*
X108730464Y-81237164D01*
X108765550Y-81494969D01*
X108838356Y-81744756D01*
X108840316Y-81749009D01*
X108840317Y-81749010D01*
X108842250Y-81753202D01*
X108947284Y-81981038D01*
X108949844Y-81984943D01*
X108949847Y-81984948D01*
X109087373Y-82194711D01*
X109087374Y-82194712D01*
X109089939Y-82198624D01*
X109130335Y-82243884D01*
X109251091Y-82379179D01*
X109263189Y-82392734D01*
X109463227Y-82559104D01*
X109685659Y-82694079D01*
X109689973Y-82695888D01*
X109689975Y-82695889D01*
X109921284Y-82792885D01*
X109921287Y-82792886D01*
X109925599Y-82794694D01*
X109930131Y-82795845D01*
X109930134Y-82795846D01*
X110021147Y-82818960D01*
X110177775Y-82858738D01*
X110393884Y-82880499D01*
X110548642Y-82880499D01*
X110550967Y-82880326D01*
X110550973Y-82880326D01*
X110737412Y-82866471D01*
X110737416Y-82866470D01*
X110742064Y-82866125D01*
X110995830Y-82808704D01*
X111028892Y-82795847D01*
X111233968Y-82716097D01*
X111233970Y-82716096D01*
X111238321Y-82714404D01*
X111273883Y-82694079D01*
X111321636Y-82666785D01*
X111464210Y-82585298D01*
X111668534Y-82424222D01*
X111846806Y-82234713D01*
X111995109Y-82020936D01*
X111997177Y-82016743D01*
X112108119Y-81791774D01*
X112108120Y-81791771D01*
X112110184Y-81787586D01*
X112121191Y-81753202D01*
X112188081Y-81544236D01*
X112189504Y-81539791D01*
X112231326Y-81282993D01*
X112234732Y-81022834D01*
X112199646Y-80765029D01*
X112126840Y-80515242D01*
X112107096Y-80472413D01*
X112101013Y-80459219D01*
X112017912Y-80278960D01*
X112015352Y-80275055D01*
X112015349Y-80275050D01*
X111877823Y-80065287D01*
X111877819Y-80065282D01*
X111875257Y-80061374D01*
X111702007Y-79867264D01*
X111501969Y-79700894D01*
X111279537Y-79565919D01*
X111244398Y-79551184D01*
X111043912Y-79467113D01*
X111043907Y-79467111D01*
X111039597Y-79465304D01*
X111035065Y-79464153D01*
X111035062Y-79464152D01*
X110909783Y-79432336D01*
X110787421Y-79401260D01*
X110571312Y-79379499D01*
X110416554Y-79379499D01*
X110414229Y-79379672D01*
X110414223Y-79379672D01*
X110227784Y-79393527D01*
X110227780Y-79393528D01*
X110223132Y-79393873D01*
X109969366Y-79451294D01*
X109965014Y-79452986D01*
X109965012Y-79452987D01*
X109731228Y-79543901D01*
X109731226Y-79543902D01*
X109726875Y-79545594D01*
X109722821Y-79547911D01*
X109722819Y-79547912D01*
X109691312Y-79565920D01*
X109500986Y-79674700D01*
X109296662Y-79835776D01*
X109118390Y-80025285D01*
X109065734Y-80101188D01*
X108972752Y-80235220D01*
X108972750Y-80235223D01*
X108970087Y-80239062D01*
X108968021Y-80243252D01*
X108968019Y-80243255D01*
X108948318Y-80283206D01*
X108855012Y-80472412D01*
X108853590Y-80476855D01*
X108853589Y-80476857D01*
X108815352Y-80596309D01*
X108775692Y-80720207D01*
X108733870Y-80977005D01*
X108730464Y-81237164D01*
X108188098Y-81237164D01*
X108188097Y-79862223D01*
X108177625Y-79809571D01*
X108137731Y-79749866D01*
X108078026Y-79709972D01*
X108025375Y-79699499D01*
X106732807Y-79699499D01*
X105439822Y-79699500D01*
X105387170Y-79709972D01*
X105376850Y-79716867D01*
X105376849Y-79716868D01*
X105369248Y-79721947D01*
X105327465Y-79749866D01*
X105287571Y-79809571D01*
X105277098Y-79862222D01*
X97875918Y-79862222D01*
X97875634Y-79464152D01*
X97873598Y-76611017D01*
X97873598Y-75336000D01*
X97893600Y-75267879D01*
X97947256Y-75221386D01*
X97999598Y-75210000D01*
X197745598Y-75210000D01*
X197813719Y-75230002D01*
G37*
G04 #@! TD.AperFunction*
G04 #@! TA.AperFunction,Conductor*
G36*
X172734219Y-96880502D02*
G01*
X172780712Y-96934158D01*
X172792098Y-96986500D01*
X172792098Y-98541623D01*
X172772096Y-98609744D01*
X172755193Y-98630718D01*
X171993316Y-99392595D01*
X171931004Y-99426621D01*
X171904221Y-99429500D01*
X169459688Y-99429500D01*
X169391567Y-99409498D01*
X169345074Y-99355842D01*
X169334970Y-99285568D01*
X169364464Y-99220988D01*
X169382983Y-99203538D01*
X169480064Y-99129044D01*
X169480065Y-99129043D01*
X169486615Y-99124017D01*
X169491641Y-99117467D01*
X169491644Y-99117464D01*
X169539754Y-99054765D01*
X169579664Y-99002754D01*
X169638156Y-98861541D01*
X169658107Y-98710000D01*
X169644250Y-98604749D01*
X169655189Y-98534601D01*
X169680077Y-98499208D01*
X169803496Y-98375789D01*
X169865808Y-98341763D01*
X169936623Y-98346828D01*
X169969294Y-98364921D01*
X170027028Y-98409221D01*
X170041213Y-98417410D01*
X170167773Y-98469833D01*
X170183593Y-98474072D01*
X170234638Y-98480792D01*
X170248820Y-98478581D01*
X170252598Y-98465424D01*
X170252598Y-98465042D01*
X170552598Y-98465042D01*
X170556642Y-98478813D01*
X170570181Y-98480842D01*
X170621603Y-98474072D01*
X170637423Y-98469833D01*
X170763984Y-98417410D01*
X170778167Y-98409221D01*
X170886846Y-98325829D01*
X170898426Y-98314250D01*
X170981821Y-98205566D01*
X170990008Y-98191385D01*
X171042431Y-98064825D01*
X171046670Y-98049005D01*
X171060060Y-97947300D01*
X171060598Y-97939092D01*
X171060598Y-97635615D01*
X171056123Y-97620376D01*
X171054733Y-97619171D01*
X171047050Y-97617500D01*
X170570713Y-97617500D01*
X170555474Y-97621975D01*
X170554269Y-97623365D01*
X170552598Y-97631048D01*
X170552598Y-98465042D01*
X170252598Y-98465042D01*
X170252598Y-97443500D01*
X170272600Y-97375379D01*
X170326256Y-97328886D01*
X170378598Y-97317500D01*
X171042483Y-97317500D01*
X171057722Y-97313025D01*
X171058927Y-97311635D01*
X171060598Y-97303952D01*
X171060598Y-97036500D01*
X171080600Y-96968379D01*
X171134256Y-96921886D01*
X171186598Y-96910500D01*
X171737092Y-96910499D01*
X171752764Y-96910499D01*
X171758831Y-96909292D01*
X171758834Y-96909292D01*
X171793121Y-96902472D01*
X171827289Y-96895676D01*
X171848155Y-96881734D01*
X171918156Y-96860500D01*
X172666098Y-96860500D01*
X172734219Y-96880502D01*
G37*
G04 #@! TD.AperFunction*
M02*
