G04 #@! TF.GenerationSoftware,KiCad,Pcbnew,6.0.11-2627ca5db0~126~ubuntu22.04.1*
G04 #@! TF.CreationDate,2024-06-10T15:46:39-04:00*
G04 #@! TF.ProjectId,io-board,696f2d62-6f61-4726-942e-6b696361645f,rev?*
G04 #@! TF.SameCoordinates,Original*
G04 #@! TF.FileFunction,Copper,L2,Bot*
G04 #@! TF.FilePolarity,Positive*
%FSLAX46Y46*%
G04 Gerber Fmt 4.6, Leading zero omitted, Abs format (unit mm)*
G04 Created by KiCad (PCBNEW 6.0.11-2627ca5db0~126~ubuntu22.04.1) date 2024-06-10 15:46:39*
%MOMM*%
%LPD*%
G01*
G04 APERTURE LIST*
G04 #@! TA.AperFunction,ComponentPad*
%ADD10C,5.600000*%
G04 #@! TD*
G04 #@! TA.AperFunction,ComponentPad*
%ADD11C,1.524000*%
G04 #@! TD*
G04 #@! TA.AperFunction,ComponentPad*
%ADD12O,2.900000X3.000000*%
G04 #@! TD*
G04 #@! TA.AperFunction,ViaPad*
%ADD13C,0.800000*%
G04 #@! TD*
G04 #@! TA.AperFunction,Conductor*
%ADD14C,0.200000*%
G04 #@! TD*
G04 APERTURE END LIST*
D10*
X194372598Y-99740000D03*
D11*
X186800000Y-93550000D03*
X191800000Y-93550000D03*
X189300000Y-93550000D03*
X186800000Y-79050000D03*
X191800000Y-79050000D03*
D12*
X182700000Y-86050000D03*
X195900000Y-86050000D03*
D10*
X101372598Y-86230000D03*
D13*
X164292180Y-92344655D03*
X164341424Y-93322919D03*
X164272598Y-94300000D03*
X171172598Y-100379500D03*
X171172598Y-99010000D03*
X159002598Y-85860000D03*
X169102598Y-98897402D03*
X158072598Y-97410000D03*
X127500000Y-102200000D03*
X122500000Y-102200000D03*
X132500000Y-102200000D03*
X112400000Y-102200000D03*
X158922598Y-92990000D03*
X142600000Y-102200000D03*
X107500000Y-102200000D03*
X163400000Y-96200000D03*
X168452598Y-94630000D03*
X120582598Y-85810000D03*
X137500000Y-102200000D03*
X117500000Y-102200000D03*
X178212598Y-85700000D03*
X139812598Y-85810000D03*
X167060250Y-98760250D03*
X154672598Y-99989500D03*
X153517118Y-98665480D03*
X166000000Y-98700000D03*
X168383812Y-89034665D03*
X116300000Y-90500000D03*
X118800000Y-90500000D03*
X169500000Y-89000000D03*
X121400000Y-90500000D03*
X170600000Y-89000000D03*
X171600000Y-89000000D03*
X124000000Y-91200000D03*
X172700000Y-90600000D03*
X126596224Y-91210019D03*
X138200000Y-92000000D03*
X169100000Y-101000000D03*
X173700000Y-99700000D03*
X136800000Y-92000000D03*
X174400000Y-98800000D03*
X136800000Y-93300000D03*
D14*
X164292180Y-92344655D02*
X164726835Y-91910000D01*
X164726835Y-91910000D02*
X182872598Y-91910000D01*
X182872598Y-91910000D02*
X184512598Y-93550000D01*
X184512598Y-93550000D02*
X186800000Y-93550000D01*
X169482598Y-96720000D02*
X188762598Y-96720000D01*
X164341424Y-93322919D02*
X166085517Y-93322919D01*
X166085517Y-93322919D02*
X169482598Y-96720000D01*
X188762598Y-96720000D02*
X191800000Y-93682598D01*
X191800000Y-93682598D02*
X191800000Y-93550000D01*
X191982598Y-88030000D02*
X191982598Y-79232598D01*
X166400000Y-94300000D02*
X169240000Y-97140000D01*
X193492598Y-94270000D02*
X193492598Y-89540000D01*
X193492598Y-89540000D02*
X191982598Y-88030000D01*
X169240000Y-97140000D02*
X190622598Y-97140000D01*
X164272598Y-94300000D02*
X166400000Y-94300000D01*
X190622598Y-97140000D02*
X193492598Y-94270000D01*
X191982598Y-79232598D02*
X191800000Y-79050000D01*
X171172598Y-99010000D02*
X171172598Y-100379500D01*
X167060250Y-98760250D02*
X165910500Y-99910000D01*
X154752098Y-99910000D02*
X154672598Y-99989500D01*
X165910500Y-99910000D02*
X154752098Y-99910000D01*
X165390000Y-99310000D02*
X154161638Y-99310000D01*
X166000000Y-98700000D02*
X165390000Y-99310000D01*
X154161638Y-99310000D02*
X153517118Y-98665480D01*
X117600000Y-89200000D02*
X168218477Y-89200000D01*
X168218477Y-89200000D02*
X168383812Y-89034665D01*
X116300000Y-90500000D02*
X117600000Y-89200000D01*
X119585335Y-89714665D02*
X168785335Y-89714665D01*
X168785335Y-89714665D02*
X169500000Y-89000000D01*
X118800000Y-90500000D02*
X119585335Y-89714665D01*
X121400000Y-90500000D02*
X121805835Y-90094165D01*
X121805835Y-90094165D02*
X169505835Y-90094165D01*
X169505835Y-90094165D02*
X170600000Y-89000000D01*
X124700000Y-90500000D02*
X170100000Y-90500000D01*
X170100000Y-90500000D02*
X171600000Y-89000000D01*
X124000000Y-91200000D02*
X124700000Y-90500000D01*
X126926243Y-90880000D02*
X172420000Y-90880000D01*
X172420000Y-90880000D02*
X172700000Y-90600000D01*
X126596224Y-91210019D02*
X126926243Y-90880000D01*
X169100000Y-101000000D02*
X168800000Y-101300000D01*
X148900000Y-101300000D02*
X139600000Y-92000000D01*
X139600000Y-92000000D02*
X138200000Y-92000000D01*
X168800000Y-101300000D02*
X148900000Y-101300000D01*
X148600000Y-101700000D02*
X139700000Y-92800000D01*
X171700000Y-101700000D02*
X148600000Y-101700000D01*
X173700000Y-99700000D02*
X171700000Y-101700000D01*
X139700000Y-92800000D02*
X137600000Y-92800000D01*
X137600000Y-92800000D02*
X136800000Y-92000000D01*
X174380000Y-100020000D02*
X172300000Y-102100000D01*
X148400000Y-102100000D02*
X139600000Y-93300000D01*
X174400000Y-98800000D02*
X174380000Y-98820000D01*
X174380000Y-98820000D02*
X174380000Y-100020000D01*
X139600000Y-93300000D02*
X136800000Y-93300000D01*
X172300000Y-102100000D02*
X148400000Y-102100000D01*
G04 #@! TA.AperFunction,Conductor*
G36*
X195876721Y-69211270D02*
G01*
X196039419Y-69221934D01*
X196040167Y-69221985D01*
X196130056Y-69228414D01*
X196145648Y-69230514D01*
X196288240Y-69258877D01*
X196290430Y-69259333D01*
X196303208Y-69262113D01*
X196398388Y-69282819D01*
X196412105Y-69286626D01*
X196545952Y-69332060D01*
X196549482Y-69333317D01*
X196656673Y-69373296D01*
X196668354Y-69378339D01*
X196793763Y-69440184D01*
X196798380Y-69442582D01*
X196900084Y-69498117D01*
X196909698Y-69503938D01*
X197025300Y-69581180D01*
X197030798Y-69585071D01*
X197124073Y-69654896D01*
X197131641Y-69661032D01*
X197235936Y-69752496D01*
X197241954Y-69758133D01*
X197324467Y-69840646D01*
X197330104Y-69846663D01*
X197421562Y-69950951D01*
X197427692Y-69958512D01*
X197497536Y-70051811D01*
X197497540Y-70051817D01*
X197501437Y-70057325D01*
X197578657Y-70172894D01*
X197584475Y-70182502D01*
X197640046Y-70284272D01*
X197642413Y-70288831D01*
X197704253Y-70414229D01*
X197709303Y-70425925D01*
X197749279Y-70533105D01*
X197750536Y-70536636D01*
X197795975Y-70670495D01*
X197799782Y-70684212D01*
X197823263Y-70792150D01*
X197823722Y-70794354D01*
X197852086Y-70936956D01*
X197854186Y-70952547D01*
X197857275Y-70995729D01*
X197860632Y-71042673D01*
X197860656Y-71043026D01*
X197871328Y-71205843D01*
X197871598Y-71214084D01*
X197871598Y-100706202D01*
X197871368Y-100713810D01*
X197859648Y-100907554D01*
X197859608Y-100908186D01*
X197853042Y-101008369D01*
X197851249Y-101022834D01*
X197820477Y-101190752D01*
X197820154Y-101192444D01*
X197803620Y-101275568D01*
X197795243Y-101317683D01*
X197791959Y-101330586D01*
X197742780Y-101488407D01*
X197741798Y-101491424D01*
X197699106Y-101617189D01*
X197694693Y-101628398D01*
X197664269Y-101695999D01*
X197627736Y-101777172D01*
X197625870Y-101781131D01*
X197575457Y-101883358D01*
X197566183Y-101902164D01*
X197561008Y-101911614D01*
X197477165Y-102050307D01*
X197474124Y-102055090D01*
X197398629Y-102168076D01*
X197393050Y-102175780D01*
X197323915Y-102264024D01*
X197293426Y-102302940D01*
X197288973Y-102308311D01*
X197199118Y-102410771D01*
X197193481Y-102416788D01*
X197079382Y-102530887D01*
X197073379Y-102536511D01*
X196970884Y-102626396D01*
X196965551Y-102630818D01*
X196838378Y-102730451D01*
X196830690Y-102736019D01*
X196787178Y-102765093D01*
X196717710Y-102811510D01*
X196712892Y-102814574D01*
X196574203Y-102898414D01*
X196564756Y-102903586D01*
X196443758Y-102963256D01*
X196439787Y-102965128D01*
X196335159Y-103012217D01*
X196290990Y-103032096D01*
X196279780Y-103036509D01*
X196154049Y-103079189D01*
X196151034Y-103080171D01*
X195993185Y-103129359D01*
X195980282Y-103132643D01*
X195855014Y-103157560D01*
X195853331Y-103157881D01*
X195685434Y-103188650D01*
X195670986Y-103190441D01*
X195570748Y-103197011D01*
X195570245Y-103197043D01*
X195435050Y-103205221D01*
X195376369Y-103208770D01*
X195368762Y-103209000D01*
X99876717Y-103209000D01*
X99868476Y-103208730D01*
X99705712Y-103198061D01*
X99704964Y-103198010D01*
X99615147Y-103191586D01*
X99599555Y-103189486D01*
X99456975Y-103161125D01*
X99454773Y-103160667D01*
X99346805Y-103137180D01*
X99333087Y-103133372D01*
X99199244Y-103087939D01*
X99195771Y-103086703D01*
X99088501Y-103046693D01*
X99076832Y-103041655D01*
X98951469Y-102979832D01*
X98946832Y-102977423D01*
X98845111Y-102921879D01*
X98835495Y-102916057D01*
X98719923Y-102838835D01*
X98714441Y-102834957D01*
X98621103Y-102765085D01*
X98613545Y-102758957D01*
X98509277Y-102667516D01*
X98503260Y-102661880D01*
X98420717Y-102579338D01*
X98415080Y-102573319D01*
X98385311Y-102539373D01*
X98323641Y-102469052D01*
X98317505Y-102461484D01*
X98247664Y-102368187D01*
X98243767Y-102362680D01*
X98166544Y-102247107D01*
X98160722Y-102237491D01*
X98105178Y-102135771D01*
X98102759Y-102131113D01*
X98102010Y-102129593D01*
X98040948Y-102005772D01*
X98035898Y-101994077D01*
X97995919Y-101886890D01*
X97994662Y-101883358D01*
X97949226Y-101749508D01*
X97945418Y-101735790D01*
X97921933Y-101627830D01*
X97921475Y-101625628D01*
X97893113Y-101483042D01*
X97891013Y-101467450D01*
X97884600Y-101377788D01*
X97884549Y-101377041D01*
X97882305Y-101342809D01*
X97882035Y-101334604D01*
X97879672Y-93300000D01*
X136214491Y-93300000D01*
X136234442Y-93451541D01*
X136292934Y-93592754D01*
X136311850Y-93617405D01*
X136380954Y-93707464D01*
X136380957Y-93707467D01*
X136385983Y-93714017D01*
X136392533Y-93719043D01*
X136392534Y-93719044D01*
X136437195Y-93753314D01*
X136507245Y-93807066D01*
X136648459Y-93865558D01*
X136800000Y-93885509D01*
X136951541Y-93865558D01*
X137092755Y-93807066D01*
X137162805Y-93753314D01*
X137207466Y-93719044D01*
X137207467Y-93719043D01*
X137214017Y-93714017D01*
X137278644Y-93629794D01*
X137335979Y-93587929D01*
X137378604Y-93580500D01*
X139431623Y-93580500D01*
X139499744Y-93600502D01*
X139520718Y-93617405D01*
X148167337Y-102264024D01*
X148168682Y-102265582D01*
X148170909Y-102270138D01*
X148179437Y-102278049D01*
X148179438Y-102278050D01*
X148204308Y-102301120D01*
X148207713Y-102304400D01*
X148220105Y-102316792D01*
X148223896Y-102319392D01*
X148225961Y-102321205D01*
X148247518Y-102341203D01*
X148258322Y-102345513D01*
X148264236Y-102349252D01*
X148268403Y-102351477D01*
X148274798Y-102354311D01*
X148284389Y-102360890D01*
X148295707Y-102363576D01*
X148306173Y-102366060D01*
X148323770Y-102371625D01*
X148336316Y-102376630D01*
X148344573Y-102379924D01*
X148350447Y-102380500D01*
X148353528Y-102380500D01*
X148356598Y-102380650D01*
X148356581Y-102381004D01*
X148363122Y-102381769D01*
X148363122Y-102381763D01*
X148374740Y-102382331D01*
X148386061Y-102385018D01*
X148397590Y-102383449D01*
X148397591Y-102383449D01*
X148410802Y-102381651D01*
X148427793Y-102380500D01*
X172251467Y-102380500D01*
X172253515Y-102380650D01*
X172258314Y-102382298D01*
X172303827Y-102380589D01*
X172308555Y-102380500D01*
X172326090Y-102380500D01*
X172330602Y-102379659D01*
X172333386Y-102379479D01*
X172351108Y-102378814D01*
X172351111Y-102378813D01*
X172362735Y-102378377D01*
X172373425Y-102373785D01*
X172380248Y-102372247D01*
X172384784Y-102370869D01*
X172391294Y-102368357D01*
X172402728Y-102366227D01*
X172421792Y-102354476D01*
X172438168Y-102345969D01*
X172450571Y-102340640D01*
X172458743Y-102337129D01*
X172463304Y-102333383D01*
X172465500Y-102331187D01*
X172467762Y-102329136D01*
X172468001Y-102329399D01*
X172473165Y-102325317D01*
X172473161Y-102325313D01*
X172481778Y-102317500D01*
X172491682Y-102311395D01*
X172506806Y-102291506D01*
X172518000Y-102278687D01*
X174544024Y-100252663D01*
X174545582Y-100251318D01*
X174550138Y-100249091D01*
X174562145Y-100236148D01*
X174581120Y-100215692D01*
X174584400Y-100212287D01*
X174596792Y-100199895D01*
X174599392Y-100196104D01*
X174601205Y-100194039D01*
X174621203Y-100172482D01*
X174625513Y-100161678D01*
X174629252Y-100155764D01*
X174631477Y-100151597D01*
X174634311Y-100145202D01*
X174640890Y-100135611D01*
X174646060Y-100113827D01*
X174651625Y-100096230D01*
X174656630Y-100083684D01*
X174656630Y-100083683D01*
X174659924Y-100075427D01*
X174660500Y-100069553D01*
X174660500Y-100066472D01*
X174660650Y-100063402D01*
X174661004Y-100063419D01*
X174661769Y-100056878D01*
X174661763Y-100056878D01*
X174662331Y-100045260D01*
X174665018Y-100033939D01*
X174661651Y-100009198D01*
X174660500Y-99992207D01*
X174660500Y-99646222D01*
X191388520Y-99646222D01*
X191388615Y-99649852D01*
X191388615Y-99649853D01*
X191395188Y-99900856D01*
X191397518Y-99989824D01*
X191398028Y-99993410D01*
X191398029Y-99993418D01*
X191413414Y-100101515D01*
X191445948Y-100330116D01*
X191446867Y-100333619D01*
X191446868Y-100333624D01*
X191517517Y-100602919D01*
X191533170Y-100662586D01*
X191658027Y-100982828D01*
X191671550Y-101008369D01*
X191778204Y-101209802D01*
X191818864Y-101286596D01*
X191820921Y-101289589D01*
X192011493Y-101566873D01*
X192011499Y-101566880D01*
X192013550Y-101569865D01*
X192239503Y-101828881D01*
X192242188Y-101831324D01*
X192452327Y-102022535D01*
X192493730Y-102060209D01*
X192772860Y-102260784D01*
X192776040Y-102262554D01*
X192803881Y-102278050D01*
X193073193Y-102427948D01*
X193390750Y-102559484D01*
X193394244Y-102560479D01*
X193394246Y-102560480D01*
X193717819Y-102652652D01*
X193717824Y-102652653D01*
X193721320Y-102653649D01*
X193724901Y-102654235D01*
X193724908Y-102654237D01*
X194056943Y-102708610D01*
X194056947Y-102708610D01*
X194060523Y-102709196D01*
X194064149Y-102709367D01*
X194400235Y-102725216D01*
X194400236Y-102725216D01*
X194403862Y-102725387D01*
X194415640Y-102724584D01*
X194743156Y-102702257D01*
X194743164Y-102702256D01*
X194746787Y-102702009D01*
X194750363Y-102701346D01*
X194750365Y-102701346D01*
X195081187Y-102640032D01*
X195081191Y-102640031D01*
X195084752Y-102639371D01*
X195344428Y-102559484D01*
X195409800Y-102539373D01*
X195413278Y-102538303D01*
X195728010Y-102400145D01*
X195759300Y-102381861D01*
X196021637Y-102228564D01*
X196021639Y-102228563D01*
X196024777Y-102226729D01*
X196047725Y-102209499D01*
X196296738Y-102022535D01*
X196296742Y-102022532D01*
X196299645Y-102020352D01*
X196548971Y-101783750D01*
X196769451Y-101520060D01*
X196801729Y-101470922D01*
X196883890Y-101345842D01*
X196958161Y-101232775D01*
X197069591Y-101011221D01*
X197110974Y-100928941D01*
X197110977Y-100928933D01*
X197112601Y-100925705D01*
X197191538Y-100710000D01*
X197229476Y-100606330D01*
X197229477Y-100606326D01*
X197230724Y-100602919D01*
X197231569Y-100599397D01*
X197231572Y-100599389D01*
X197310117Y-100272225D01*
X197310118Y-100272221D01*
X197310964Y-100268696D01*
X197313042Y-100251522D01*
X197351922Y-99930243D01*
X197351923Y-99930236D01*
X197352258Y-99927464D01*
X197355311Y-99830328D01*
X197358061Y-99742797D01*
X197358149Y-99740000D01*
X197355655Y-99696746D01*
X197338572Y-99400469D01*
X197338571Y-99400464D01*
X197338363Y-99396849D01*
X197318931Y-99285509D01*
X197279891Y-99061820D01*
X197279889Y-99061813D01*
X197279267Y-99058247D01*
X197270288Y-99027932D01*
X197207813Y-98817021D01*
X197181646Y-98728681D01*
X197173974Y-98710693D01*
X197108267Y-98556648D01*
X197046791Y-98412519D01*
X197043784Y-98407246D01*
X196878283Y-98117092D01*
X196876492Y-98113952D01*
X196852323Y-98081049D01*
X196675148Y-97839856D01*
X196673005Y-97836938D01*
X196439027Y-97585148D01*
X196177659Y-97361919D01*
X196174332Y-97359683D01*
X196100601Y-97310138D01*
X195892367Y-97170211D01*
X195586931Y-97012563D01*
X195265400Y-96891067D01*
X194932034Y-96807331D01*
X194768807Y-96785842D01*
X194594858Y-96762941D01*
X194594850Y-96762940D01*
X194591254Y-96762467D01*
X194448377Y-96760222D01*
X194251218Y-96757125D01*
X194251214Y-96757125D01*
X194247576Y-96757068D01*
X194243962Y-96757429D01*
X194243956Y-96757429D01*
X194002232Y-96781556D01*
X193905555Y-96791206D01*
X193569724Y-96864429D01*
X193566297Y-96865602D01*
X193566291Y-96865604D01*
X193488170Y-96892351D01*
X193244535Y-96975766D01*
X192934298Y-97123742D01*
X192643125Y-97306394D01*
X192640289Y-97308666D01*
X192640282Y-97308671D01*
X192495056Y-97425019D01*
X192374874Y-97521303D01*
X192372331Y-97523873D01*
X192372323Y-97523880D01*
X192135654Y-97763042D01*
X192133103Y-97765620D01*
X192130862Y-97768478D01*
X192074895Y-97839856D01*
X191921015Y-98036106D01*
X191741422Y-98329176D01*
X191739895Y-98332466D01*
X191739890Y-98332475D01*
X191619907Y-98590956D01*
X191596703Y-98640945D01*
X191595563Y-98644392D01*
X191489916Y-98963837D01*
X191489913Y-98963847D01*
X191488777Y-98967283D01*
X191488041Y-98970838D01*
X191488040Y-98970841D01*
X191419810Y-99300312D01*
X191419075Y-99303862D01*
X191407903Y-99429044D01*
X191393683Y-99588377D01*
X191388520Y-99646222D01*
X174660500Y-99646222D01*
X174660500Y-99393953D01*
X174680502Y-99325832D01*
X174709795Y-99293991D01*
X174807466Y-99219044D01*
X174807467Y-99219043D01*
X174814017Y-99214017D01*
X174819043Y-99207467D01*
X174819046Y-99207464D01*
X174875077Y-99134442D01*
X174907066Y-99092754D01*
X174965558Y-98951541D01*
X174985509Y-98800000D01*
X174965558Y-98648459D01*
X174907066Y-98507246D01*
X174844393Y-98425569D01*
X174819046Y-98392536D01*
X174819043Y-98392533D01*
X174814017Y-98385983D01*
X174805827Y-98379698D01*
X174699305Y-98297960D01*
X174692755Y-98292934D01*
X174551541Y-98234442D01*
X174400000Y-98214491D01*
X174248459Y-98234442D01*
X174107246Y-98292934D01*
X173985983Y-98385983D01*
X173892934Y-98507246D01*
X173834442Y-98648459D01*
X173814491Y-98800000D01*
X173815569Y-98808188D01*
X173824533Y-98876272D01*
X173834442Y-98951541D01*
X173836991Y-98957696D01*
X173835321Y-99027932D01*
X173795528Y-99086729D01*
X173730264Y-99114678D01*
X173715303Y-99115569D01*
X173708188Y-99115569D01*
X173700000Y-99114491D01*
X173548459Y-99134442D01*
X173407246Y-99192934D01*
X173285983Y-99285983D01*
X173192934Y-99407246D01*
X173134442Y-99548459D01*
X173114491Y-99700000D01*
X173127775Y-99800896D01*
X173128348Y-99805250D01*
X173117409Y-99875399D01*
X173092521Y-99910792D01*
X171620718Y-101382595D01*
X171558406Y-101416621D01*
X171531623Y-101419500D01*
X169743138Y-101419500D01*
X169675017Y-101399498D01*
X169628524Y-101345842D01*
X169618420Y-101275568D01*
X169626729Y-101245282D01*
X169630657Y-101235801D01*
X169665558Y-101151541D01*
X169685509Y-101000000D01*
X169665558Y-100848459D01*
X169607066Y-100707246D01*
X169524304Y-100599389D01*
X169519046Y-100592536D01*
X169519043Y-100592533D01*
X169514017Y-100585983D01*
X169473716Y-100555058D01*
X169399305Y-100497960D01*
X169392755Y-100492934D01*
X169251541Y-100434442D01*
X169100000Y-100414491D01*
X168948459Y-100434442D01*
X168807246Y-100492934D01*
X168685983Y-100585983D01*
X168592934Y-100707246D01*
X168534442Y-100848459D01*
X168533364Y-100856648D01*
X168533364Y-100856649D01*
X168526347Y-100909946D01*
X168497625Y-100974873D01*
X168438360Y-101013965D01*
X168401425Y-101019500D01*
X149068377Y-101019500D01*
X149000256Y-100999498D01*
X148979282Y-100982595D01*
X146662167Y-98665480D01*
X152931609Y-98665480D01*
X152951560Y-98817021D01*
X153010052Y-98958234D01*
X153043491Y-99001812D01*
X153098072Y-99072944D01*
X153098075Y-99072947D01*
X153103101Y-99079497D01*
X153109651Y-99084523D01*
X153109652Y-99084524D01*
X153148705Y-99114491D01*
X153224363Y-99172546D01*
X153365577Y-99231038D01*
X153517118Y-99250989D01*
X153622369Y-99237132D01*
X153692517Y-99248071D01*
X153727910Y-99272959D01*
X153928975Y-99474024D01*
X153930320Y-99475582D01*
X153932547Y-99480138D01*
X153941075Y-99488049D01*
X153941076Y-99488050D01*
X153965946Y-99511120D01*
X153969351Y-99514400D01*
X153981743Y-99526792D01*
X153985531Y-99529391D01*
X153987608Y-99531214D01*
X154009156Y-99551203D01*
X154019958Y-99555512D01*
X154025861Y-99559244D01*
X154030049Y-99561480D01*
X154036432Y-99564309D01*
X154046027Y-99570891D01*
X154058376Y-99573822D01*
X154060035Y-99574769D01*
X154067982Y-99578290D01*
X154067624Y-99579099D01*
X154120038Y-99609009D01*
X154152888Y-99671948D01*
X154145696Y-99744634D01*
X154107040Y-99837959D01*
X154087089Y-99989500D01*
X154107040Y-100141041D01*
X154165532Y-100282254D01*
X154199500Y-100326522D01*
X154253552Y-100396964D01*
X154253555Y-100396967D01*
X154258581Y-100403517D01*
X154265131Y-100408543D01*
X154265132Y-100408544D01*
X154303002Y-100437603D01*
X154379843Y-100496566D01*
X154521057Y-100555058D01*
X154672598Y-100575009D01*
X154824139Y-100555058D01*
X154965353Y-100496566D01*
X155042194Y-100437603D01*
X155080064Y-100408544D01*
X155080065Y-100408543D01*
X155086615Y-100403517D01*
X155091641Y-100396967D01*
X155091644Y-100396964D01*
X155105045Y-100379500D01*
X170587089Y-100379500D01*
X170607040Y-100531041D01*
X170665532Y-100672254D01*
X170697419Y-100713810D01*
X170753552Y-100786964D01*
X170753555Y-100786967D01*
X170758581Y-100793517D01*
X170879843Y-100886566D01*
X171021057Y-100945058D01*
X171172598Y-100965009D01*
X171324139Y-100945058D01*
X171465353Y-100886566D01*
X171586615Y-100793517D01*
X171591641Y-100786967D01*
X171591644Y-100786964D01*
X171647777Y-100713810D01*
X171679664Y-100672254D01*
X171738156Y-100531041D01*
X171758107Y-100379500D01*
X171738156Y-100227959D01*
X171679664Y-100086746D01*
X171611327Y-99997688D01*
X171591644Y-99972036D01*
X171591641Y-99972033D01*
X171586615Y-99965483D01*
X171540690Y-99930243D01*
X171502393Y-99900856D01*
X171460526Y-99843517D01*
X171453098Y-99800894D01*
X171453098Y-99588606D01*
X171473100Y-99520485D01*
X171502393Y-99488644D01*
X171580064Y-99429044D01*
X171580065Y-99429043D01*
X171586615Y-99424017D01*
X171591641Y-99417467D01*
X171591644Y-99417464D01*
X171647492Y-99344681D01*
X171679664Y-99302754D01*
X171738156Y-99161541D01*
X171758107Y-99010000D01*
X171738156Y-98858459D01*
X171679664Y-98717246D01*
X171602664Y-98616898D01*
X171591644Y-98602536D01*
X171591641Y-98602533D01*
X171586615Y-98595983D01*
X171535354Y-98556648D01*
X171471903Y-98507960D01*
X171465353Y-98502934D01*
X171324139Y-98444442D01*
X171172598Y-98424491D01*
X171021057Y-98444442D01*
X170879844Y-98502934D01*
X170758581Y-98595983D01*
X170665532Y-98717246D01*
X170607040Y-98858459D01*
X170587089Y-99010000D01*
X170607040Y-99161541D01*
X170665532Y-99302754D01*
X170697704Y-99344681D01*
X170753552Y-99417464D01*
X170753555Y-99417467D01*
X170758581Y-99424017D01*
X170765131Y-99429043D01*
X170765132Y-99429044D01*
X170842803Y-99488644D01*
X170884670Y-99545983D01*
X170892098Y-99588606D01*
X170892098Y-99800896D01*
X170872096Y-99869017D01*
X170842807Y-99900854D01*
X170758581Y-99965483D01*
X170665532Y-100086746D01*
X170607040Y-100227959D01*
X170587089Y-100379500D01*
X155105045Y-100379500D01*
X155145696Y-100326522D01*
X155179664Y-100282254D01*
X155185450Y-100268285D01*
X155229997Y-100213003D01*
X155301860Y-100190500D01*
X165861967Y-100190500D01*
X165864015Y-100190650D01*
X165868814Y-100192298D01*
X165914327Y-100190589D01*
X165919055Y-100190500D01*
X165936590Y-100190500D01*
X165941102Y-100189659D01*
X165943886Y-100189479D01*
X165961608Y-100188814D01*
X165961611Y-100188813D01*
X165973235Y-100188377D01*
X165983925Y-100183785D01*
X165990748Y-100182247D01*
X165995284Y-100180869D01*
X166001794Y-100178357D01*
X166013228Y-100176227D01*
X166032292Y-100164476D01*
X166048668Y-100155969D01*
X166061071Y-100150640D01*
X166069243Y-100147129D01*
X166073804Y-100143383D01*
X166076000Y-100141187D01*
X166078262Y-100139136D01*
X166078501Y-100139399D01*
X166083665Y-100135317D01*
X166083661Y-100135313D01*
X166092278Y-100127500D01*
X166102182Y-100121395D01*
X166117306Y-100101506D01*
X166128500Y-100088687D01*
X166849458Y-99367729D01*
X166911770Y-99333703D01*
X166954998Y-99331902D01*
X167060250Y-99345759D01*
X167211791Y-99325808D01*
X167353005Y-99267316D01*
X167361911Y-99260482D01*
X167467716Y-99179294D01*
X167467717Y-99179293D01*
X167474267Y-99174267D01*
X167479293Y-99167717D01*
X167479296Y-99167714D01*
X167531786Y-99099307D01*
X167567316Y-99053004D01*
X167625808Y-98911791D01*
X167645759Y-98760250D01*
X167625808Y-98608709D01*
X167567316Y-98467496D01*
X167509797Y-98392536D01*
X167479296Y-98352786D01*
X167479293Y-98352783D01*
X167474267Y-98346233D01*
X167463988Y-98338345D01*
X167359555Y-98258210D01*
X167353005Y-98253184D01*
X167211791Y-98194692D01*
X167060250Y-98174741D01*
X166908709Y-98194692D01*
X166767496Y-98253184D01*
X166646233Y-98346233D01*
X166642434Y-98351184D01*
X166580941Y-98384763D01*
X166510126Y-98379698D01*
X166454197Y-98338347D01*
X166414017Y-98285983D01*
X166377567Y-98258013D01*
X166299305Y-98197960D01*
X166292755Y-98192934D01*
X166151541Y-98134442D01*
X166000000Y-98114491D01*
X165848459Y-98134442D01*
X165707246Y-98192934D01*
X165585983Y-98285983D01*
X165492934Y-98407246D01*
X165434442Y-98548459D01*
X165414491Y-98700000D01*
X165427657Y-98800000D01*
X165428348Y-98805250D01*
X165417409Y-98875399D01*
X165392521Y-98910792D01*
X165310718Y-98992595D01*
X165248406Y-99026621D01*
X165221623Y-99029500D01*
X154330015Y-99029500D01*
X154261894Y-99009498D01*
X154240920Y-98992595D01*
X154124597Y-98876272D01*
X154090571Y-98813960D01*
X154088770Y-98770730D01*
X154093848Y-98732166D01*
X154102627Y-98665480D01*
X154082676Y-98513939D01*
X154024184Y-98372726D01*
X153962651Y-98292535D01*
X153936164Y-98258016D01*
X153936161Y-98258013D01*
X153931135Y-98251463D01*
X153861414Y-98197963D01*
X153816423Y-98163440D01*
X153809873Y-98158414D01*
X153668659Y-98099922D01*
X153517118Y-98079971D01*
X153365577Y-98099922D01*
X153224364Y-98158414D01*
X153103101Y-98251463D01*
X153010052Y-98372726D01*
X152951560Y-98513939D01*
X152931609Y-98665480D01*
X146662167Y-98665480D01*
X142296687Y-94300000D01*
X163687089Y-94300000D01*
X163707040Y-94451541D01*
X163765532Y-94592754D01*
X163793956Y-94629796D01*
X163853552Y-94707464D01*
X163853555Y-94707467D01*
X163858581Y-94714017D01*
X163865131Y-94719043D01*
X163865132Y-94719044D01*
X163973293Y-94802040D01*
X163979843Y-94807066D01*
X164121057Y-94865558D01*
X164272598Y-94885509D01*
X164424139Y-94865558D01*
X164565353Y-94807066D01*
X164571903Y-94802040D01*
X164680064Y-94719044D01*
X164680065Y-94719043D01*
X164686615Y-94714017D01*
X164751242Y-94629794D01*
X164808577Y-94587929D01*
X164851202Y-94580500D01*
X166231623Y-94580500D01*
X166299744Y-94600502D01*
X166320718Y-94617405D01*
X169007337Y-97304024D01*
X169008682Y-97305582D01*
X169010909Y-97310138D01*
X169019437Y-97318049D01*
X169019438Y-97318050D01*
X169044308Y-97341120D01*
X169047713Y-97344400D01*
X169060105Y-97356792D01*
X169063893Y-97359391D01*
X169065970Y-97361214D01*
X169087518Y-97381203D01*
X169098320Y-97385512D01*
X169104223Y-97389244D01*
X169108411Y-97391480D01*
X169114794Y-97394309D01*
X169124389Y-97400891D01*
X169146192Y-97406065D01*
X169163770Y-97411625D01*
X169184573Y-97419924D01*
X169190447Y-97420500D01*
X169193531Y-97420500D01*
X169196598Y-97420650D01*
X169196581Y-97421004D01*
X169203122Y-97421770D01*
X169203122Y-97421764D01*
X169214740Y-97422332D01*
X169226061Y-97425019D01*
X169237590Y-97423450D01*
X169237591Y-97423450D01*
X169250809Y-97421651D01*
X169267800Y-97420500D01*
X190574065Y-97420500D01*
X190576113Y-97420650D01*
X190580912Y-97422298D01*
X190626425Y-97420589D01*
X190631153Y-97420500D01*
X190648688Y-97420500D01*
X190653200Y-97419659D01*
X190655984Y-97419479D01*
X190673706Y-97418814D01*
X190673709Y-97418813D01*
X190685333Y-97418377D01*
X190696023Y-97413785D01*
X190702846Y-97412247D01*
X190707382Y-97410869D01*
X190713892Y-97408357D01*
X190725326Y-97406227D01*
X190744390Y-97394476D01*
X190760766Y-97385969D01*
X190773169Y-97380640D01*
X190781341Y-97377129D01*
X190785902Y-97373383D01*
X190788098Y-97371187D01*
X190790360Y-97369136D01*
X190790599Y-97369399D01*
X190795763Y-97365317D01*
X190795759Y-97365313D01*
X190804376Y-97357500D01*
X190814280Y-97351395D01*
X190829404Y-97331506D01*
X190840598Y-97318687D01*
X193656622Y-94502663D01*
X193658180Y-94501318D01*
X193662736Y-94499091D01*
X193693718Y-94465692D01*
X193696998Y-94462287D01*
X193709390Y-94449895D01*
X193711989Y-94446107D01*
X193713816Y-94444026D01*
X193725892Y-94431008D01*
X193733801Y-94422482D01*
X193738110Y-94411680D01*
X193741842Y-94405777D01*
X193744078Y-94401589D01*
X193746907Y-94395206D01*
X193753489Y-94385611D01*
X193758663Y-94363808D01*
X193764223Y-94346230D01*
X193772522Y-94325427D01*
X193773098Y-94319553D01*
X193773098Y-94316469D01*
X193773248Y-94313402D01*
X193773602Y-94313419D01*
X193774368Y-94306878D01*
X193774362Y-94306878D01*
X193774930Y-94295260D01*
X193777617Y-94283939D01*
X193774249Y-94259193D01*
X193773098Y-94242201D01*
X193773098Y-89588527D01*
X193773248Y-89586483D01*
X193774895Y-89581686D01*
X193773187Y-89536188D01*
X193773098Y-89531461D01*
X193773098Y-89513910D01*
X193772257Y-89509395D01*
X193772077Y-89506613D01*
X193771832Y-89500104D01*
X193770975Y-89477264D01*
X193766382Y-89466574D01*
X193764844Y-89459749D01*
X193763474Y-89455240D01*
X193760956Y-89448713D01*
X193758825Y-89437272D01*
X193747075Y-89418209D01*
X193738567Y-89401831D01*
X193733240Y-89389432D01*
X193733239Y-89389430D01*
X193729727Y-89381256D01*
X193725980Y-89376695D01*
X193723796Y-89374511D01*
X193721743Y-89372247D01*
X193722005Y-89372009D01*
X193717915Y-89366835D01*
X193717911Y-89366839D01*
X193710098Y-89358222D01*
X193703993Y-89348318D01*
X193684104Y-89333194D01*
X193671285Y-89322000D01*
X192300003Y-87950718D01*
X192265977Y-87888406D01*
X192263098Y-87861623D01*
X192263098Y-86164065D01*
X194269500Y-86164065D01*
X194269693Y-86166513D01*
X194269693Y-86166522D01*
X194269736Y-86167062D01*
X194284594Y-86355855D01*
X194285748Y-86360662D01*
X194285749Y-86360668D01*
X194313849Y-86477710D01*
X194344507Y-86605410D01*
X194346400Y-86609981D01*
X194346401Y-86609983D01*
X194434894Y-86823624D01*
X194442721Y-86842521D01*
X194576819Y-87061347D01*
X194580036Y-87065114D01*
X194580037Y-87065115D01*
X194690567Y-87194530D01*
X194743497Y-87256503D01*
X194747259Y-87259716D01*
X194933689Y-87418941D01*
X194938653Y-87423181D01*
X195157479Y-87557279D01*
X195162049Y-87559172D01*
X195162051Y-87559173D01*
X195390017Y-87653599D01*
X195394590Y-87655493D01*
X195481652Y-87676395D01*
X195639332Y-87714251D01*
X195639338Y-87714252D01*
X195644145Y-87715406D01*
X195900000Y-87735542D01*
X196155855Y-87715406D01*
X196160662Y-87714252D01*
X196160668Y-87714251D01*
X196318348Y-87676395D01*
X196405410Y-87655493D01*
X196409983Y-87653599D01*
X196637949Y-87559173D01*
X196637951Y-87559172D01*
X196642521Y-87557279D01*
X196861347Y-87423181D01*
X196866312Y-87418941D01*
X197052741Y-87259716D01*
X197056503Y-87256503D01*
X197109433Y-87194530D01*
X197219963Y-87065115D01*
X197219964Y-87065114D01*
X197223181Y-87061347D01*
X197357279Y-86842521D01*
X197365107Y-86823624D01*
X197453599Y-86609983D01*
X197453600Y-86609981D01*
X197455493Y-86605410D01*
X197486151Y-86477710D01*
X197514251Y-86360668D01*
X197514252Y-86360662D01*
X197515406Y-86355855D01*
X197530264Y-86167062D01*
X197530307Y-86166522D01*
X197530307Y-86166513D01*
X197530500Y-86164065D01*
X197530500Y-85935935D01*
X197515406Y-85744145D01*
X197514252Y-85739338D01*
X197514251Y-85739332D01*
X197456648Y-85499402D01*
X197455493Y-85494590D01*
X197453599Y-85490017D01*
X197359173Y-85262051D01*
X197359172Y-85262049D01*
X197357279Y-85257479D01*
X197223181Y-85038653D01*
X197056503Y-84843497D01*
X196937802Y-84742117D01*
X196865115Y-84680037D01*
X196865114Y-84680036D01*
X196861347Y-84676819D01*
X196642521Y-84542721D01*
X196637951Y-84540828D01*
X196637949Y-84540827D01*
X196409983Y-84446401D01*
X196409981Y-84446400D01*
X196405410Y-84444507D01*
X196318348Y-84423605D01*
X196160668Y-84385749D01*
X196160662Y-84385748D01*
X196155855Y-84384594D01*
X195900000Y-84364458D01*
X195644145Y-84384594D01*
X195639338Y-84385748D01*
X195639332Y-84385749D01*
X195481652Y-84423605D01*
X195394590Y-84444507D01*
X195390019Y-84446400D01*
X195390017Y-84446401D01*
X195162051Y-84540827D01*
X195162049Y-84540828D01*
X195157479Y-84542721D01*
X194938653Y-84676819D01*
X194934886Y-84680036D01*
X194934885Y-84680037D01*
X194862198Y-84742117D01*
X194743497Y-84843497D01*
X194576819Y-85038653D01*
X194442721Y-85257479D01*
X194440828Y-85262049D01*
X194440827Y-85262051D01*
X194346401Y-85490017D01*
X194344507Y-85494590D01*
X194343352Y-85499402D01*
X194285749Y-85739332D01*
X194285748Y-85739338D01*
X194284594Y-85744145D01*
X194269500Y-85935935D01*
X194269500Y-86164065D01*
X192263098Y-86164065D01*
X192263098Y-79942734D01*
X192283100Y-79874613D01*
X192315037Y-79840798D01*
X192428786Y-79758155D01*
X192428788Y-79758153D01*
X192434130Y-79754272D01*
X192479499Y-79703885D01*
X192562280Y-79611947D01*
X192562281Y-79611946D01*
X192566699Y-79607039D01*
X192633690Y-79491007D01*
X192662456Y-79441184D01*
X192662457Y-79441183D01*
X192665760Y-79435461D01*
X192726983Y-79247036D01*
X192747692Y-79050000D01*
X192726983Y-78852964D01*
X192665760Y-78664539D01*
X192639633Y-78619285D01*
X192570000Y-78498679D01*
X192566699Y-78492961D01*
X192434130Y-78345728D01*
X192273846Y-78229275D01*
X192267818Y-78226591D01*
X192267816Y-78226590D01*
X192098879Y-78151374D01*
X192092853Y-78148691D01*
X192086404Y-78147320D01*
X192086400Y-78147319D01*
X191988215Y-78126450D01*
X191899061Y-78107500D01*
X191700939Y-78107500D01*
X191611785Y-78126450D01*
X191513600Y-78147319D01*
X191513596Y-78147320D01*
X191507147Y-78148691D01*
X191501121Y-78151374D01*
X191332184Y-78226590D01*
X191332182Y-78226591D01*
X191326154Y-78229275D01*
X191165870Y-78345728D01*
X191033301Y-78492961D01*
X191030000Y-78498679D01*
X190960368Y-78619285D01*
X190934240Y-78664539D01*
X190873017Y-78852964D01*
X190852308Y-79050000D01*
X190873017Y-79247036D01*
X190934240Y-79435461D01*
X190937543Y-79441183D01*
X190937544Y-79441184D01*
X190966310Y-79491007D01*
X191033301Y-79607039D01*
X191037719Y-79611946D01*
X191037720Y-79611947D01*
X191120501Y-79703885D01*
X191165870Y-79754272D01*
X191171212Y-79758153D01*
X191171214Y-79758155D01*
X191284963Y-79840798D01*
X191326154Y-79870725D01*
X191332182Y-79873409D01*
X191332184Y-79873410D01*
X191336901Y-79875510D01*
X191507147Y-79951309D01*
X191585287Y-79967918D01*
X191602295Y-79971533D01*
X191664768Y-80005261D01*
X191699090Y-80067411D01*
X191702098Y-80094780D01*
X191702098Y-87981467D01*
X191701948Y-87983515D01*
X191700300Y-87988314D01*
X191700737Y-87999941D01*
X191702009Y-88033827D01*
X191702098Y-88038555D01*
X191702098Y-88056090D01*
X191702939Y-88060602D01*
X191703119Y-88063386D01*
X191703784Y-88081108D01*
X191703785Y-88081111D01*
X191704221Y-88092735D01*
X191708813Y-88103425D01*
X191710351Y-88110248D01*
X191711729Y-88114784D01*
X191714241Y-88121294D01*
X191716371Y-88132728D01*
X191722475Y-88142630D01*
X191728122Y-88151792D01*
X191736629Y-88168168D01*
X191745469Y-88188743D01*
X191749215Y-88193304D01*
X191751411Y-88195500D01*
X191753462Y-88197762D01*
X191753199Y-88198001D01*
X191757281Y-88203165D01*
X191757285Y-88203161D01*
X191765098Y-88211778D01*
X191771203Y-88221682D01*
X191791092Y-88236806D01*
X191803911Y-88248000D01*
X193175193Y-89619282D01*
X193209219Y-89681594D01*
X193212098Y-89708377D01*
X193212098Y-94101623D01*
X193192096Y-94169744D01*
X193175193Y-94190718D01*
X190543316Y-96822595D01*
X190481004Y-96856621D01*
X190454221Y-96859500D01*
X189323975Y-96859500D01*
X189255854Y-96839498D01*
X189209361Y-96785842D01*
X189199257Y-96715568D01*
X189228751Y-96650988D01*
X189234880Y-96644405D01*
X191393479Y-94485806D01*
X191455791Y-94451780D01*
X191508770Y-94451654D01*
X191522654Y-94454605D01*
X191700939Y-94492500D01*
X191899061Y-94492500D01*
X191988215Y-94473550D01*
X192086400Y-94452681D01*
X192086404Y-94452680D01*
X192092853Y-94451309D01*
X192195119Y-94405777D01*
X192267816Y-94373410D01*
X192267818Y-94373409D01*
X192273846Y-94370725D01*
X192307572Y-94346222D01*
X192428786Y-94258155D01*
X192428788Y-94258153D01*
X192434130Y-94254272D01*
X192566699Y-94107039D01*
X192634963Y-93988802D01*
X192662456Y-93941184D01*
X192662457Y-93941183D01*
X192665760Y-93935461D01*
X192726983Y-93747036D01*
X192728979Y-93728050D01*
X192747002Y-93556565D01*
X192747692Y-93550000D01*
X192726983Y-93352964D01*
X192665760Y-93164539D01*
X192658972Y-93152781D01*
X192602356Y-93054721D01*
X192566699Y-92992961D01*
X192541672Y-92965165D01*
X192438552Y-92850639D01*
X192438551Y-92850638D01*
X192434130Y-92845728D01*
X192392085Y-92815180D01*
X192279188Y-92733156D01*
X192279187Y-92733155D01*
X192273846Y-92729275D01*
X192267818Y-92726591D01*
X192267816Y-92726590D01*
X192098879Y-92651374D01*
X192092853Y-92648691D01*
X192086404Y-92647320D01*
X192086400Y-92647319D01*
X191988215Y-92626450D01*
X191899061Y-92607500D01*
X191700939Y-92607500D01*
X191611785Y-92626450D01*
X191513600Y-92647319D01*
X191513596Y-92647320D01*
X191507147Y-92648691D01*
X191501121Y-92651374D01*
X191332184Y-92726590D01*
X191332182Y-92726591D01*
X191326154Y-92729275D01*
X191320813Y-92733155D01*
X191320812Y-92733156D01*
X191207916Y-92815180D01*
X191165870Y-92845728D01*
X191161449Y-92850638D01*
X191161448Y-92850639D01*
X191058329Y-92965165D01*
X191033301Y-92992961D01*
X190997644Y-93054721D01*
X190941029Y-93152781D01*
X190934240Y-93164539D01*
X190873017Y-93352964D01*
X190852308Y-93550000D01*
X190852998Y-93556565D01*
X190871022Y-93728050D01*
X190873017Y-93747036D01*
X190934240Y-93935461D01*
X190954299Y-93970203D01*
X190965037Y-93988802D01*
X190981775Y-94057797D01*
X190958555Y-94124889D01*
X190945013Y-94140898D01*
X188683316Y-96402595D01*
X188621004Y-96436621D01*
X188594221Y-96439500D01*
X169650975Y-96439500D01*
X169582854Y-96419498D01*
X169561880Y-96402595D01*
X167768062Y-94608777D01*
X188605777Y-94608777D01*
X188615074Y-94620793D01*
X188658069Y-94650898D01*
X188667555Y-94656376D01*
X188858993Y-94745645D01*
X188869285Y-94749391D01*
X189073309Y-94804059D01*
X189084104Y-94805962D01*
X189294525Y-94824372D01*
X189305475Y-94824372D01*
X189515896Y-94805962D01*
X189526691Y-94804059D01*
X189730715Y-94749391D01*
X189741007Y-94745645D01*
X189932445Y-94656376D01*
X189941931Y-94650898D01*
X189985764Y-94620207D01*
X189994139Y-94609729D01*
X189987071Y-94596281D01*
X189312812Y-93922022D01*
X189298868Y-93914408D01*
X189297035Y-93914539D01*
X189290420Y-93918790D01*
X188612207Y-94597003D01*
X188605777Y-94608777D01*
X167768062Y-94608777D01*
X166318180Y-93158895D01*
X166316835Y-93157337D01*
X166314608Y-93152781D01*
X166281209Y-93121799D01*
X166277804Y-93118519D01*
X166265412Y-93106127D01*
X166261624Y-93103528D01*
X166259543Y-93101701D01*
X166246525Y-93089625D01*
X166237999Y-93081716D01*
X166227197Y-93077407D01*
X166221294Y-93073675D01*
X166217111Y-93071441D01*
X166210722Y-93068610D01*
X166201128Y-93062028D01*
X166189808Y-93059342D01*
X166189806Y-93059341D01*
X166179341Y-93056858D01*
X166161740Y-93051292D01*
X166140944Y-93042995D01*
X166135070Y-93042419D01*
X166131986Y-93042419D01*
X166128919Y-93042269D01*
X166128936Y-93041916D01*
X166122392Y-93041150D01*
X166122392Y-93041156D01*
X166110779Y-93040588D01*
X166099456Y-93037901D01*
X166087927Y-93039470D01*
X166087926Y-93039470D01*
X166074715Y-93041268D01*
X166057724Y-93042419D01*
X164920028Y-93042419D01*
X164851907Y-93022417D01*
X164820070Y-92993128D01*
X164755441Y-92908902D01*
X164748889Y-92903875D01*
X164743049Y-92898034D01*
X164744713Y-92896370D01*
X164709985Y-92848809D01*
X164705764Y-92777938D01*
X164728593Y-92729485D01*
X164799246Y-92637409D01*
X164857738Y-92496196D01*
X164877689Y-92344655D01*
X164876147Y-92332942D01*
X164876611Y-92329967D01*
X164876611Y-92328208D01*
X164876885Y-92328208D01*
X164887089Y-92262794D01*
X164934219Y-92209697D01*
X165001070Y-92190500D01*
X182704221Y-92190500D01*
X182772342Y-92210502D01*
X182793316Y-92227405D01*
X184279935Y-93714024D01*
X184281280Y-93715582D01*
X184283507Y-93720138D01*
X184292035Y-93728049D01*
X184292036Y-93728050D01*
X184316906Y-93751120D01*
X184320311Y-93754400D01*
X184332703Y-93766792D01*
X184336494Y-93769392D01*
X184338559Y-93771205D01*
X184360116Y-93791203D01*
X184370920Y-93795513D01*
X184376834Y-93799252D01*
X184381001Y-93801477D01*
X184387396Y-93804311D01*
X184396987Y-93810890D01*
X184408305Y-93813576D01*
X184418771Y-93816060D01*
X184436368Y-93821625D01*
X184448914Y-93826630D01*
X184457171Y-93829924D01*
X184463045Y-93830500D01*
X184466126Y-93830500D01*
X184469196Y-93830650D01*
X184469179Y-93831004D01*
X184475720Y-93831769D01*
X184475720Y-93831763D01*
X184487338Y-93832331D01*
X184498659Y-93835018D01*
X184510188Y-93833449D01*
X184510189Y-93833449D01*
X184523400Y-93831651D01*
X184540391Y-93830500D01*
X185808592Y-93830500D01*
X185876713Y-93850502D01*
X185923206Y-93904158D01*
X185928425Y-93917564D01*
X185930963Y-93925374D01*
X185934240Y-93935461D01*
X185937543Y-93941183D01*
X185937544Y-93941184D01*
X185965037Y-93988802D01*
X186033301Y-94107039D01*
X186165870Y-94254272D01*
X186171212Y-94258153D01*
X186171214Y-94258155D01*
X186292428Y-94346222D01*
X186326154Y-94370725D01*
X186332182Y-94373409D01*
X186332184Y-94373410D01*
X186404881Y-94405777D01*
X186507147Y-94451309D01*
X186513596Y-94452680D01*
X186513600Y-94452681D01*
X186611785Y-94473550D01*
X186700939Y-94492500D01*
X186899061Y-94492500D01*
X186988215Y-94473550D01*
X187086400Y-94452681D01*
X187086404Y-94452680D01*
X187092853Y-94451309D01*
X187195119Y-94405777D01*
X187267816Y-94373410D01*
X187267818Y-94373409D01*
X187273846Y-94370725D01*
X187307572Y-94346222D01*
X187428786Y-94258155D01*
X187428788Y-94258153D01*
X187434130Y-94254272D01*
X187566699Y-94107039D01*
X187634963Y-93988802D01*
X187662456Y-93941184D01*
X187662457Y-93941183D01*
X187665760Y-93935461D01*
X187726983Y-93747036D01*
X187728979Y-93728050D01*
X187747002Y-93556565D01*
X187747117Y-93555475D01*
X188025628Y-93555475D01*
X188044038Y-93765896D01*
X188045941Y-93776691D01*
X188100609Y-93980715D01*
X188104355Y-93991007D01*
X188193623Y-94182441D01*
X188199103Y-94191932D01*
X188229794Y-94235765D01*
X188240271Y-94244140D01*
X188253718Y-94237072D01*
X188927978Y-93562812D01*
X188934356Y-93551132D01*
X189664408Y-93551132D01*
X189664539Y-93552965D01*
X189668790Y-93559580D01*
X190347003Y-94237793D01*
X190358777Y-94244223D01*
X190370793Y-94234926D01*
X190400897Y-94191932D01*
X190406377Y-94182441D01*
X190495645Y-93991007D01*
X190499391Y-93980715D01*
X190554059Y-93776691D01*
X190555962Y-93765896D01*
X190574372Y-93555475D01*
X190574372Y-93544525D01*
X190555962Y-93334104D01*
X190554059Y-93323309D01*
X190499391Y-93119285D01*
X190495645Y-93108993D01*
X190406377Y-92917559D01*
X190400897Y-92908068D01*
X190370206Y-92864235D01*
X190359729Y-92855860D01*
X190346282Y-92862928D01*
X189672022Y-93537188D01*
X189664408Y-93551132D01*
X188934356Y-93551132D01*
X188935592Y-93548868D01*
X188935461Y-93547035D01*
X188931210Y-93540420D01*
X188252997Y-92862207D01*
X188241223Y-92855777D01*
X188229207Y-92865074D01*
X188199103Y-92908068D01*
X188193623Y-92917559D01*
X188104355Y-93108993D01*
X188100609Y-93119285D01*
X188045941Y-93323309D01*
X188044038Y-93334104D01*
X188025628Y-93544525D01*
X188025628Y-93555475D01*
X187747117Y-93555475D01*
X187747692Y-93550000D01*
X187726983Y-93352964D01*
X187665760Y-93164539D01*
X187658972Y-93152781D01*
X187602356Y-93054721D01*
X187566699Y-92992961D01*
X187541672Y-92965165D01*
X187438552Y-92850639D01*
X187438551Y-92850638D01*
X187434130Y-92845728D01*
X187392085Y-92815180D01*
X187279188Y-92733156D01*
X187279187Y-92733155D01*
X187273846Y-92729275D01*
X187267818Y-92726591D01*
X187267816Y-92726590D01*
X187098879Y-92651374D01*
X187092853Y-92648691D01*
X187086404Y-92647320D01*
X187086400Y-92647319D01*
X186988215Y-92626450D01*
X186899061Y-92607500D01*
X186700939Y-92607500D01*
X186611785Y-92626450D01*
X186513600Y-92647319D01*
X186513596Y-92647320D01*
X186507147Y-92648691D01*
X186501121Y-92651374D01*
X186332184Y-92726590D01*
X186332182Y-92726591D01*
X186326154Y-92729275D01*
X186320813Y-92733155D01*
X186320812Y-92733156D01*
X186207916Y-92815180D01*
X186165870Y-92845728D01*
X186161449Y-92850638D01*
X186161448Y-92850639D01*
X186058329Y-92965165D01*
X186033301Y-92992961D01*
X185997644Y-93054721D01*
X185941029Y-93152781D01*
X185934240Y-93164539D01*
X185932199Y-93170821D01*
X185932198Y-93170823D01*
X185928425Y-93182436D01*
X185888352Y-93241041D01*
X185822955Y-93268679D01*
X185808592Y-93269500D01*
X184680975Y-93269500D01*
X184612854Y-93249498D01*
X184591880Y-93232595D01*
X183849556Y-92490271D01*
X188605860Y-92490271D01*
X188612928Y-92503718D01*
X189287188Y-93177978D01*
X189301132Y-93185592D01*
X189302965Y-93185461D01*
X189309580Y-93181210D01*
X189987793Y-92502997D01*
X189994223Y-92491223D01*
X189984926Y-92479207D01*
X189941931Y-92449102D01*
X189932445Y-92443624D01*
X189741007Y-92354355D01*
X189730715Y-92350609D01*
X189526691Y-92295941D01*
X189515896Y-92294038D01*
X189305475Y-92275628D01*
X189294525Y-92275628D01*
X189084104Y-92294038D01*
X189073309Y-92295941D01*
X188869285Y-92350609D01*
X188858993Y-92354355D01*
X188667559Y-92443623D01*
X188658068Y-92449103D01*
X188614235Y-92479794D01*
X188605860Y-92490271D01*
X183849556Y-92490271D01*
X183105261Y-91745976D01*
X183103916Y-91744418D01*
X183101689Y-91739862D01*
X183083912Y-91723371D01*
X183068290Y-91708880D01*
X183064885Y-91705600D01*
X183052493Y-91693208D01*
X183048705Y-91690609D01*
X183046624Y-91688782D01*
X183046145Y-91688337D01*
X183025080Y-91668797D01*
X183014278Y-91664488D01*
X183008375Y-91660756D01*
X183004192Y-91658522D01*
X182997803Y-91655691D01*
X182988209Y-91649109D01*
X182976889Y-91646423D01*
X182976887Y-91646422D01*
X182966422Y-91643939D01*
X182948821Y-91638373D01*
X182947267Y-91637753D01*
X182928025Y-91630076D01*
X182922151Y-91629500D01*
X182919067Y-91629500D01*
X182916000Y-91629350D01*
X182916017Y-91628997D01*
X182909473Y-91628231D01*
X182909473Y-91628237D01*
X182897860Y-91627669D01*
X182886537Y-91624982D01*
X182875008Y-91626551D01*
X182875007Y-91626551D01*
X182861796Y-91628349D01*
X182844805Y-91629500D01*
X164775368Y-91629500D01*
X164773320Y-91629350D01*
X164768521Y-91627702D01*
X164724633Y-91629350D01*
X164723008Y-91629411D01*
X164718280Y-91629500D01*
X164700745Y-91629500D01*
X164696233Y-91630341D01*
X164693449Y-91630521D01*
X164675727Y-91631186D01*
X164675724Y-91631187D01*
X164664100Y-91631623D01*
X164653410Y-91636215D01*
X164646587Y-91637753D01*
X164642051Y-91639131D01*
X164635541Y-91641643D01*
X164624107Y-91643773D01*
X164605357Y-91655331D01*
X164605043Y-91655524D01*
X164588667Y-91664031D01*
X164568092Y-91672871D01*
X164563531Y-91676617D01*
X164561335Y-91678813D01*
X164559073Y-91680864D01*
X164558834Y-91680601D01*
X164553670Y-91684683D01*
X164553674Y-91684687D01*
X164545057Y-91692500D01*
X164535153Y-91698605D01*
X164520029Y-91718494D01*
X164508835Y-91731313D01*
X164502972Y-91737176D01*
X164440660Y-91771202D01*
X164397432Y-91773003D01*
X164292180Y-91759146D01*
X164140639Y-91779097D01*
X163999426Y-91837589D01*
X163878163Y-91930638D01*
X163785114Y-92051901D01*
X163726622Y-92193114D01*
X163706671Y-92344655D01*
X163726622Y-92496196D01*
X163785114Y-92637409D01*
X163795830Y-92651374D01*
X163873134Y-92752119D01*
X163873137Y-92752122D01*
X163878163Y-92758672D01*
X163884713Y-92763698D01*
X163890555Y-92769540D01*
X163888891Y-92771204D01*
X163923619Y-92818765D01*
X163927840Y-92889636D01*
X163905011Y-92938089D01*
X163834358Y-93030165D01*
X163775866Y-93171378D01*
X163755915Y-93322919D01*
X163775866Y-93474460D01*
X163834358Y-93615673D01*
X163853274Y-93640324D01*
X163897181Y-93697545D01*
X163922782Y-93763765D01*
X163908517Y-93833314D01*
X163873926Y-93874208D01*
X163858581Y-93885983D01*
X163765532Y-94007246D01*
X163707040Y-94148459D01*
X163687089Y-94300000D01*
X142296687Y-94300000D01*
X139832663Y-91835976D01*
X139831318Y-91834418D01*
X139829091Y-91829862D01*
X139795692Y-91798880D01*
X139792287Y-91795600D01*
X139779895Y-91783208D01*
X139776107Y-91780609D01*
X139774026Y-91778782D01*
X139773204Y-91778019D01*
X139752482Y-91758797D01*
X139741680Y-91754488D01*
X139735777Y-91750756D01*
X139731594Y-91748522D01*
X139725205Y-91745691D01*
X139715611Y-91739109D01*
X139704291Y-91736423D01*
X139704289Y-91736422D01*
X139693824Y-91733939D01*
X139676223Y-91728373D01*
X139655427Y-91720076D01*
X139649553Y-91719500D01*
X139646469Y-91719500D01*
X139643402Y-91719350D01*
X139643419Y-91718997D01*
X139636875Y-91718231D01*
X139636875Y-91718237D01*
X139625262Y-91717669D01*
X139613939Y-91714982D01*
X139602410Y-91716551D01*
X139602409Y-91716551D01*
X139589198Y-91718349D01*
X139572207Y-91719500D01*
X138778604Y-91719500D01*
X138710483Y-91699498D01*
X138678646Y-91670209D01*
X138614017Y-91585983D01*
X138492755Y-91492934D01*
X138351541Y-91434442D01*
X138200000Y-91414491D01*
X138048459Y-91434442D01*
X137907246Y-91492934D01*
X137785983Y-91585983D01*
X137692934Y-91707246D01*
X137634442Y-91848459D01*
X137633364Y-91856648D01*
X137633364Y-91856649D01*
X137624922Y-91920769D01*
X137596199Y-91985697D01*
X137536934Y-92024788D01*
X137465943Y-92025633D01*
X137405764Y-91987963D01*
X137375078Y-91920769D01*
X137366636Y-91856649D01*
X137366636Y-91856648D01*
X137365558Y-91848459D01*
X137307066Y-91707246D01*
X137253742Y-91637753D01*
X137219046Y-91592536D01*
X137219042Y-91592532D01*
X137214017Y-91585983D01*
X137092755Y-91492934D01*
X136951541Y-91434442D01*
X136800000Y-91414491D01*
X136648459Y-91434442D01*
X136507246Y-91492934D01*
X136385983Y-91585983D01*
X136292934Y-91707246D01*
X136234442Y-91848459D01*
X136214491Y-92000000D01*
X136234442Y-92151541D01*
X136292934Y-92292754D01*
X136332759Y-92344655D01*
X136380954Y-92407464D01*
X136380957Y-92407467D01*
X136385983Y-92414017D01*
X136507245Y-92507066D01*
X136514871Y-92510225D01*
X136514875Y-92510227D01*
X136571282Y-92533591D01*
X136626564Y-92578139D01*
X136648985Y-92645502D01*
X136631427Y-92714293D01*
X136579465Y-92762672D01*
X136571283Y-92766409D01*
X136507246Y-92792934D01*
X136385983Y-92885983D01*
X136292934Y-93007246D01*
X136234442Y-93148459D01*
X136214491Y-93300000D01*
X97879672Y-93300000D01*
X97878849Y-90500000D01*
X115714491Y-90500000D01*
X115734442Y-90651541D01*
X115792934Y-90792754D01*
X115811850Y-90817405D01*
X115880954Y-90907464D01*
X115880957Y-90907467D01*
X115885983Y-90914017D01*
X116007245Y-91007066D01*
X116148459Y-91065558D01*
X116300000Y-91085509D01*
X116451541Y-91065558D01*
X116592755Y-91007066D01*
X116714017Y-90914017D01*
X116719043Y-90907467D01*
X116719046Y-90907464D01*
X116788150Y-90817405D01*
X116807066Y-90792754D01*
X116865558Y-90651541D01*
X116885509Y-90500000D01*
X116871652Y-90394749D01*
X116882591Y-90324601D01*
X116907479Y-90289208D01*
X117679282Y-89517405D01*
X117741594Y-89483379D01*
X117768377Y-89480500D01*
X119118624Y-89480500D01*
X119186745Y-89500502D01*
X119233238Y-89554158D01*
X119243342Y-89624432D01*
X119213848Y-89689012D01*
X119207719Y-89695595D01*
X119010793Y-89892521D01*
X118948481Y-89926547D01*
X118905253Y-89928348D01*
X118800000Y-89914491D01*
X118648459Y-89934442D01*
X118507246Y-89992934D01*
X118385983Y-90085983D01*
X118292934Y-90207246D01*
X118234442Y-90348459D01*
X118214491Y-90500000D01*
X118234442Y-90651541D01*
X118292934Y-90792754D01*
X118311850Y-90817405D01*
X118380954Y-90907464D01*
X118380957Y-90907467D01*
X118385983Y-90914017D01*
X118507245Y-91007066D01*
X118648459Y-91065558D01*
X118800000Y-91085509D01*
X118951541Y-91065558D01*
X119092755Y-91007066D01*
X119214017Y-90914017D01*
X119219043Y-90907467D01*
X119219046Y-90907464D01*
X119288150Y-90817405D01*
X119307066Y-90792754D01*
X119365558Y-90651541D01*
X119385509Y-90500000D01*
X119371652Y-90394749D01*
X119382591Y-90324601D01*
X119407479Y-90289208D01*
X119664617Y-90032070D01*
X119726929Y-89998044D01*
X119753712Y-89995165D01*
X120800167Y-89995165D01*
X120868288Y-90015167D01*
X120914781Y-90068823D01*
X120924885Y-90139097D01*
X120901979Y-90193480D01*
X120902090Y-90193544D01*
X120901579Y-90194429D01*
X120900131Y-90197866D01*
X120892934Y-90207246D01*
X120834442Y-90348459D01*
X120814491Y-90500000D01*
X120834442Y-90651541D01*
X120892934Y-90792754D01*
X120911850Y-90817405D01*
X120980954Y-90907464D01*
X120980957Y-90907467D01*
X120985983Y-90914017D01*
X121107245Y-91007066D01*
X121248459Y-91065558D01*
X121400000Y-91085509D01*
X121551541Y-91065558D01*
X121692755Y-91007066D01*
X121814017Y-90914017D01*
X121819043Y-90907467D01*
X121819046Y-90907464D01*
X121888150Y-90817405D01*
X121907066Y-90792754D01*
X121965558Y-90651541D01*
X121985509Y-90500000D01*
X121985236Y-90497924D01*
X122004433Y-90432544D01*
X122058089Y-90386051D01*
X122110431Y-90374665D01*
X123899272Y-90374665D01*
X123967393Y-90394667D01*
X124013886Y-90448323D01*
X124023990Y-90518597D01*
X123994496Y-90583177D01*
X123934770Y-90621561D01*
X123915718Y-90625587D01*
X123902088Y-90627381D01*
X123848459Y-90634442D01*
X123707246Y-90692934D01*
X123585983Y-90785983D01*
X123492934Y-90907246D01*
X123434442Y-91048459D01*
X123414491Y-91200000D01*
X123434442Y-91351541D01*
X123492934Y-91492754D01*
X123539458Y-91553385D01*
X123580954Y-91607464D01*
X123580957Y-91607467D01*
X123585983Y-91614017D01*
X123592533Y-91619043D01*
X123592534Y-91619044D01*
X123697382Y-91699498D01*
X123707245Y-91707066D01*
X123848459Y-91765558D01*
X124000000Y-91785509D01*
X124151541Y-91765558D01*
X124292755Y-91707066D01*
X124302618Y-91699498D01*
X124407466Y-91619044D01*
X124407467Y-91619043D01*
X124414017Y-91614017D01*
X124419043Y-91607467D01*
X124419046Y-91607464D01*
X124460541Y-91553386D01*
X124507066Y-91492754D01*
X124565558Y-91351541D01*
X124585509Y-91200000D01*
X124571652Y-91094749D01*
X124582591Y-91024601D01*
X124607479Y-90989208D01*
X124779282Y-90817405D01*
X124841594Y-90783379D01*
X124868377Y-90780500D01*
X125957236Y-90780500D01*
X126025357Y-90800502D01*
X126071850Y-90854158D01*
X126081954Y-90924432D01*
X126073646Y-90954715D01*
X126030666Y-91058478D01*
X126010715Y-91210019D01*
X126030666Y-91361560D01*
X126089158Y-91502773D01*
X126135682Y-91563404D01*
X126177178Y-91617483D01*
X126177181Y-91617486D01*
X126182207Y-91624036D01*
X126188757Y-91629062D01*
X126188758Y-91629063D01*
X126282107Y-91700693D01*
X126303469Y-91717085D01*
X126444683Y-91775577D01*
X126596224Y-91795528D01*
X126747765Y-91775577D01*
X126888979Y-91717085D01*
X126910341Y-91700693D01*
X127003690Y-91629063D01*
X127003691Y-91629062D01*
X127010241Y-91624036D01*
X127015267Y-91617486D01*
X127015270Y-91617483D01*
X127056766Y-91563404D01*
X127103290Y-91502773D01*
X127161782Y-91361560D01*
X127173829Y-91270054D01*
X127202551Y-91205127D01*
X127261816Y-91166035D01*
X127298751Y-91160500D01*
X172371467Y-91160500D01*
X172373515Y-91160650D01*
X172378314Y-91162298D01*
X172423827Y-91160589D01*
X172428555Y-91160500D01*
X172446090Y-91160500D01*
X172450602Y-91159659D01*
X172453386Y-91159479D01*
X172471108Y-91158814D01*
X172471111Y-91158813D01*
X172472511Y-91158761D01*
X172472514Y-91158761D01*
X172481663Y-91158417D01*
X172482734Y-91158377D01*
X172482781Y-91159641D01*
X172531890Y-91163850D01*
X172532852Y-91160260D01*
X172540828Y-91162397D01*
X172548459Y-91165558D01*
X172700000Y-91185509D01*
X172851541Y-91165558D01*
X172992755Y-91107066D01*
X173045444Y-91066636D01*
X173107466Y-91019044D01*
X173107467Y-91019043D01*
X173114017Y-91014017D01*
X173119043Y-91007467D01*
X173119046Y-91007464D01*
X173182758Y-90924432D01*
X173207066Y-90892754D01*
X173265558Y-90751541D01*
X173285509Y-90600000D01*
X173265558Y-90448459D01*
X173207066Y-90307246D01*
X173130333Y-90207246D01*
X173119046Y-90192536D01*
X173119043Y-90192533D01*
X173114017Y-90185983D01*
X172992755Y-90092934D01*
X172851541Y-90034442D01*
X172700000Y-90014491D01*
X172548459Y-90034442D01*
X172407246Y-90092934D01*
X172285983Y-90185983D01*
X172192934Y-90307246D01*
X172180939Y-90336205D01*
X172137603Y-90440828D01*
X172134442Y-90448459D01*
X172133364Y-90456647D01*
X172128980Y-90489947D01*
X172100257Y-90554874D01*
X172040992Y-90593965D01*
X172004058Y-90599500D01*
X170701377Y-90599500D01*
X170633256Y-90579498D01*
X170586763Y-90525842D01*
X170576659Y-90455568D01*
X170606153Y-90390988D01*
X170612282Y-90384405D01*
X171389208Y-89607479D01*
X171451520Y-89573453D01*
X171494748Y-89571652D01*
X171600000Y-89585509D01*
X171751541Y-89565558D01*
X171892755Y-89507066D01*
X171954419Y-89459749D01*
X172007466Y-89419044D01*
X172007467Y-89419043D01*
X172014017Y-89414017D01*
X172019043Y-89407467D01*
X172019046Y-89407464D01*
X172079992Y-89328037D01*
X172107066Y-89292754D01*
X172165558Y-89151541D01*
X172185509Y-89000000D01*
X172165558Y-88848459D01*
X172107066Y-88707246D01*
X172036760Y-88615622D01*
X172019046Y-88592536D01*
X172019043Y-88592533D01*
X172014017Y-88585983D01*
X171970153Y-88552324D01*
X171899305Y-88497960D01*
X171892755Y-88492934D01*
X171751541Y-88434442D01*
X171708828Y-88428819D01*
X171643901Y-88400097D01*
X171604809Y-88340833D01*
X171603964Y-88269841D01*
X171641633Y-88209662D01*
X171668856Y-88191234D01*
X171747138Y-88152033D01*
X171747140Y-88152032D01*
X171750882Y-88150158D01*
X171918340Y-88036354D01*
X171994022Y-87984921D01*
X171994025Y-87984919D01*
X171997481Y-87982570D01*
X172219749Y-87783839D01*
X172329755Y-87655493D01*
X172411062Y-87560631D01*
X172411065Y-87560627D01*
X172413782Y-87557457D01*
X172416056Y-87553955D01*
X172416060Y-87553950D01*
X172573890Y-87310913D01*
X172573893Y-87310908D01*
X172576169Y-87307403D01*
X172602125Y-87252741D01*
X172702263Y-87041850D01*
X172704059Y-87038068D01*
X172712676Y-87011231D01*
X172793924Y-86758172D01*
X172793924Y-86758171D01*
X172795204Y-86754185D01*
X172827323Y-86575673D01*
X172847263Y-86464850D01*
X172847264Y-86464845D01*
X172848002Y-86460741D01*
X172849842Y-86420243D01*
X172861339Y-86167062D01*
X172861339Y-86167056D01*
X172861528Y-86162892D01*
X172860401Y-86150011D01*
X172835907Y-85870036D01*
X172835906Y-85870028D01*
X172835542Y-85865870D01*
X172810781Y-85755095D01*
X172771415Y-85578983D01*
X172771414Y-85578980D01*
X172770501Y-85574895D01*
X172769056Y-85570966D01*
X172711045Y-85413299D01*
X172667548Y-85295077D01*
X172660995Y-85282647D01*
X172569380Y-85108885D01*
X172528492Y-85031334D01*
X172355776Y-84788299D01*
X172352932Y-84785249D01*
X172352927Y-84785243D01*
X172155284Y-84573297D01*
X172155282Y-84573295D01*
X172152434Y-84570241D01*
X171922039Y-84380992D01*
X171668638Y-84223877D01*
X171478023Y-84138211D01*
X171400501Y-84103371D01*
X171400495Y-84103369D01*
X171396684Y-84101656D01*
X171392678Y-84100462D01*
X171392676Y-84100461D01*
X171188043Y-84039458D01*
X171110954Y-84016477D01*
X170816469Y-83969835D01*
X170771197Y-83967779D01*
X170724629Y-83965664D01*
X170724610Y-83965664D01*
X170723210Y-83965600D01*
X170536973Y-83965600D01*
X170315097Y-83980337D01*
X170022824Y-84039270D01*
X169740912Y-84136340D01*
X169737179Y-84138209D01*
X169737175Y-84138211D01*
X169497007Y-84258478D01*
X169474314Y-84269842D01*
X169452369Y-84284756D01*
X169231176Y-84435078D01*
X169227715Y-84437430D01*
X169224600Y-84440215D01*
X169224599Y-84440216D01*
X169183782Y-84476711D01*
X169005447Y-84636161D01*
X169002730Y-84639331D01*
X169002729Y-84639332D01*
X168875050Y-84788298D01*
X168811414Y-84862543D01*
X168809140Y-84866045D01*
X168809136Y-84866050D01*
X168651307Y-85109086D01*
X168649027Y-85112597D01*
X168647233Y-85116376D01*
X168647232Y-85116377D01*
X168600242Y-85215337D01*
X168521137Y-85381932D01*
X168519858Y-85385915D01*
X168519857Y-85385918D01*
X168459183Y-85574895D01*
X168429992Y-85665815D01*
X168429251Y-85669933D01*
X168429251Y-85669934D01*
X168378159Y-85953898D01*
X168377194Y-85959259D01*
X168377005Y-85963426D01*
X168377004Y-85963433D01*
X168367757Y-86167061D01*
X168363668Y-86257108D01*
X168364031Y-86261256D01*
X168364031Y-86261260D01*
X168389289Y-86549964D01*
X168389290Y-86549972D01*
X168389654Y-86554130D01*
X168390568Y-86558218D01*
X168390568Y-86558219D01*
X168434795Y-86756076D01*
X168454695Y-86845105D01*
X168557648Y-87124923D01*
X168559595Y-87128616D01*
X168559596Y-87128618D01*
X168594348Y-87194530D01*
X168696704Y-87388666D01*
X168869420Y-87631701D01*
X168872264Y-87634751D01*
X168872269Y-87634757D01*
X169069911Y-87846702D01*
X169072762Y-87849759D01*
X169303157Y-88039008D01*
X169537254Y-88184154D01*
X169584608Y-88237050D01*
X169595848Y-88307151D01*
X169567404Y-88372200D01*
X169508307Y-88411546D01*
X169487304Y-88416162D01*
X169391169Y-88428819D01*
X169348459Y-88434442D01*
X169207246Y-88492934D01*
X169085983Y-88585983D01*
X169080957Y-88592533D01*
X169028568Y-88660807D01*
X168971230Y-88702674D01*
X168900359Y-88706896D01*
X168838456Y-88672132D01*
X168828654Y-88660820D01*
X168797829Y-88620648D01*
X168761190Y-88592533D01*
X168683117Y-88532625D01*
X168676567Y-88527599D01*
X168535353Y-88469107D01*
X168383812Y-88449156D01*
X168232271Y-88469107D01*
X168091058Y-88527599D01*
X167969795Y-88620648D01*
X167876746Y-88741911D01*
X167835405Y-88841718D01*
X167790857Y-88896999D01*
X167718996Y-88919500D01*
X117648534Y-88919500D01*
X117646485Y-88919350D01*
X117641686Y-88917702D01*
X117630062Y-88918138D01*
X117630059Y-88918138D01*
X117596162Y-88919411D01*
X117591435Y-88919500D01*
X117573910Y-88919500D01*
X117569400Y-88920340D01*
X117566628Y-88920520D01*
X117537265Y-88921622D01*
X117526578Y-88926214D01*
X117519759Y-88927750D01*
X117515227Y-88929127D01*
X117508705Y-88931644D01*
X117497272Y-88933773D01*
X117478206Y-88945525D01*
X117461835Y-88954029D01*
X117449430Y-88959359D01*
X117449428Y-88959360D01*
X117441257Y-88962871D01*
X117436696Y-88966617D01*
X117434506Y-88968807D01*
X117432238Y-88970864D01*
X117431999Y-88970601D01*
X117426835Y-88974683D01*
X117426839Y-88974687D01*
X117418222Y-88982500D01*
X117408318Y-88988605D01*
X117393194Y-89008494D01*
X117382000Y-89021313D01*
X116510792Y-89892521D01*
X116448480Y-89926547D01*
X116405252Y-89928348D01*
X116300000Y-89914491D01*
X116148459Y-89934442D01*
X116007246Y-89992934D01*
X115885983Y-90085983D01*
X115792934Y-90207246D01*
X115734442Y-90348459D01*
X115714491Y-90500000D01*
X97878849Y-90500000D01*
X97877566Y-86136222D01*
X98388520Y-86136222D01*
X98388615Y-86139852D01*
X98388615Y-86139853D01*
X98394687Y-86371720D01*
X98397518Y-86479824D01*
X98398028Y-86483410D01*
X98398029Y-86483418D01*
X98409552Y-86564379D01*
X98445948Y-86820116D01*
X98446867Y-86823619D01*
X98446868Y-86823624D01*
X98517517Y-87092919D01*
X98533170Y-87152586D01*
X98658027Y-87472828D01*
X98659731Y-87476046D01*
X98796922Y-87735154D01*
X98818864Y-87776596D01*
X98820921Y-87779589D01*
X99011493Y-88056873D01*
X99011499Y-88056880D01*
X99013550Y-88059865D01*
X99239503Y-88318881D01*
X99242188Y-88321324D01*
X99474409Y-88532628D01*
X99493730Y-88550209D01*
X99772860Y-88750784D01*
X100073193Y-88917948D01*
X100390750Y-89049484D01*
X100394244Y-89050479D01*
X100394246Y-89050480D01*
X100717819Y-89142652D01*
X100717824Y-89142653D01*
X100721320Y-89143649D01*
X100724901Y-89144235D01*
X100724908Y-89144237D01*
X101056943Y-89198610D01*
X101056947Y-89198610D01*
X101060523Y-89199196D01*
X101064149Y-89199367D01*
X101400235Y-89215216D01*
X101400236Y-89215216D01*
X101403862Y-89215387D01*
X101415640Y-89214584D01*
X101743156Y-89192257D01*
X101743164Y-89192256D01*
X101746787Y-89192009D01*
X101750363Y-89191346D01*
X101750365Y-89191346D01*
X102081187Y-89130032D01*
X102081191Y-89130031D01*
X102084752Y-89129371D01*
X102344428Y-89049484D01*
X102409800Y-89029373D01*
X102413278Y-89028303D01*
X102728010Y-88890145D01*
X102785334Y-88856648D01*
X103021637Y-88718564D01*
X103021639Y-88718563D01*
X103024777Y-88716729D01*
X103037407Y-88707246D01*
X103296738Y-88512535D01*
X103296742Y-88512532D01*
X103299645Y-88510352D01*
X103548971Y-88273750D01*
X103769451Y-88010060D01*
X103783736Y-87988314D01*
X103873005Y-87852414D01*
X103958161Y-87722775D01*
X104108841Y-87423181D01*
X104110974Y-87418941D01*
X104110977Y-87418933D01*
X104112601Y-87415705D01*
X104150772Y-87311399D01*
X104229476Y-87096330D01*
X104229477Y-87096326D01*
X104230724Y-87092919D01*
X104231569Y-87089397D01*
X104231572Y-87089389D01*
X104287357Y-86857026D01*
X104310964Y-86758696D01*
X104312008Y-86750066D01*
X104351922Y-86420243D01*
X104351923Y-86420236D01*
X104352258Y-86417464D01*
X104353696Y-86371720D01*
X104357167Y-86261259D01*
X104358149Y-86230000D01*
X104354040Y-86158739D01*
X104353879Y-86155951D01*
X106837509Y-86155951D01*
X106847226Y-86365894D01*
X106848630Y-86371719D01*
X106848630Y-86371720D01*
X106893577Y-86558218D01*
X106896467Y-86570211D01*
X106898949Y-86575669D01*
X106898950Y-86575673D01*
X106910283Y-86600598D01*
X106983455Y-86761531D01*
X107105051Y-86932950D01*
X107190695Y-87014936D01*
X107243113Y-87065115D01*
X107256868Y-87078283D01*
X107433428Y-87192287D01*
X107438994Y-87194530D01*
X107622792Y-87268603D01*
X107622795Y-87268604D01*
X107628361Y-87270847D01*
X107731322Y-87290954D01*
X107830185Y-87310261D01*
X107830188Y-87310261D01*
X107834631Y-87311129D01*
X107840152Y-87311399D01*
X107995109Y-87311399D01*
X108131379Y-87298398D01*
X108145841Y-87297018D01*
X108151815Y-87296448D01*
X108157569Y-87294760D01*
X108347730Y-87238973D01*
X108347732Y-87238972D01*
X108353483Y-87237285D01*
X108436497Y-87194530D01*
X108534994Y-87143801D01*
X108534997Y-87143799D01*
X108540325Y-87141055D01*
X108625513Y-87074139D01*
X108700883Y-87014936D01*
X108700888Y-87014932D01*
X108705600Y-87011230D01*
X108709532Y-87006699D01*
X108839413Y-86857026D01*
X108839417Y-86857021D01*
X108843344Y-86852495D01*
X108948586Y-86670576D01*
X108950555Y-86664907D01*
X108950556Y-86664904D01*
X109015561Y-86477709D01*
X109017530Y-86472039D01*
X109018572Y-86464850D01*
X109046826Y-86269987D01*
X109046826Y-86269984D01*
X109047687Y-86264047D01*
X109047366Y-86257107D01*
X110773668Y-86257107D01*
X110774031Y-86261255D01*
X110774031Y-86261259D01*
X110799289Y-86549963D01*
X110799290Y-86549971D01*
X110799654Y-86554129D01*
X110800568Y-86558218D01*
X110863096Y-86837949D01*
X110864695Y-86845104D01*
X110866139Y-86849029D01*
X110866140Y-86849032D01*
X110867414Y-86852495D01*
X110967648Y-87124922D01*
X110969595Y-87128615D01*
X110969596Y-87128617D01*
X111026890Y-87237285D01*
X111106704Y-87388665D01*
X111279420Y-87631700D01*
X111282264Y-87634750D01*
X111282269Y-87634756D01*
X111479912Y-87846702D01*
X111482762Y-87849758D01*
X111713157Y-88039007D01*
X111966558Y-88196122D01*
X111986366Y-88205024D01*
X112234695Y-88316628D01*
X112234698Y-88316629D01*
X112238512Y-88318343D01*
X112242518Y-88319537D01*
X112242520Y-88319538D01*
X112313954Y-88340833D01*
X112524242Y-88403522D01*
X112818727Y-88450164D01*
X112863999Y-88452220D01*
X112910567Y-88454335D01*
X112910586Y-88454335D01*
X112911986Y-88454399D01*
X113098223Y-88454399D01*
X113320099Y-88439662D01*
X113612372Y-88380729D01*
X113894284Y-88283659D01*
X113898017Y-88281790D01*
X113898021Y-88281788D01*
X114157138Y-88152032D01*
X114157140Y-88152031D01*
X114160882Y-88150157D01*
X114298146Y-88056873D01*
X114404022Y-87984920D01*
X114404025Y-87984918D01*
X114407481Y-87982569D01*
X114629749Y-87783838D01*
X114679493Y-87725801D01*
X114821062Y-87560630D01*
X114821065Y-87560626D01*
X114823782Y-87557456D01*
X114826059Y-87553950D01*
X114826060Y-87553949D01*
X114983890Y-87310912D01*
X114983893Y-87310907D01*
X114986169Y-87307402D01*
X114992172Y-87294761D01*
X115093419Y-87081534D01*
X115114059Y-87038067D01*
X115115338Y-87034084D01*
X115115339Y-87034081D01*
X115203924Y-86758171D01*
X115203924Y-86758170D01*
X115205204Y-86754184D01*
X115221268Y-86664904D01*
X115257263Y-86464849D01*
X115257264Y-86464844D01*
X115258002Y-86460740D01*
X115259968Y-86417464D01*
X115271339Y-86167061D01*
X115271339Y-86167055D01*
X115271528Y-86162891D01*
X115270401Y-86150011D01*
X115245907Y-85870035D01*
X115245906Y-85870027D01*
X115245542Y-85865869D01*
X115218333Y-85744145D01*
X115181415Y-85578982D01*
X115181414Y-85578979D01*
X115180501Y-85574894D01*
X115172012Y-85551820D01*
X115134657Y-85450294D01*
X115077548Y-85295076D01*
X115070996Y-85282648D01*
X114940439Y-85035026D01*
X114938492Y-85031333D01*
X114765776Y-84788298D01*
X114762932Y-84785248D01*
X114762927Y-84785242D01*
X114565284Y-84573296D01*
X114565282Y-84573294D01*
X114562434Y-84570240D01*
X114332039Y-84380991D01*
X114078638Y-84223876D01*
X113883862Y-84136340D01*
X113810501Y-84103370D01*
X113810495Y-84103368D01*
X113806684Y-84101655D01*
X113802678Y-84100461D01*
X113802676Y-84100460D01*
X113598043Y-84039457D01*
X113520954Y-84016476D01*
X113226469Y-83969834D01*
X113181197Y-83967778D01*
X113134629Y-83965663D01*
X113134610Y-83965663D01*
X113133210Y-83965599D01*
X112946973Y-83965599D01*
X112725097Y-83980336D01*
X112432824Y-84039269D01*
X112150912Y-84136339D01*
X112147179Y-84138208D01*
X112147175Y-84138210D01*
X111907005Y-84258478D01*
X111884314Y-84269841D01*
X111868986Y-84280258D01*
X111715460Y-84384594D01*
X111637715Y-84437429D01*
X111634599Y-84440215D01*
X111629799Y-84444507D01*
X111415447Y-84636160D01*
X111412730Y-84639330D01*
X111412729Y-84639331D01*
X111224134Y-84859368D01*
X111224131Y-84859372D01*
X111221414Y-84862542D01*
X111219140Y-84866044D01*
X111219136Y-84866049D01*
X111061306Y-85109086D01*
X111061303Y-85109091D01*
X111059027Y-85112596D01*
X111057233Y-85116375D01*
X111057232Y-85116376D01*
X111024428Y-85185461D01*
X110931137Y-85381931D01*
X110929858Y-85385914D01*
X110929857Y-85385917D01*
X110841272Y-85661827D01*
X110839992Y-85665814D01*
X110839251Y-85669933D01*
X110788159Y-85953897D01*
X110787194Y-85959258D01*
X110787005Y-85963425D01*
X110787004Y-85963432D01*
X110777757Y-86167061D01*
X110773668Y-86257107D01*
X109047366Y-86257107D01*
X109037970Y-86054104D01*
X109006189Y-85922232D01*
X108990135Y-85855620D01*
X108990134Y-85855618D01*
X108988729Y-85849787D01*
X108963302Y-85793862D01*
X108905081Y-85665814D01*
X108901741Y-85658467D01*
X108780145Y-85487048D01*
X108666389Y-85378150D01*
X108632658Y-85345860D01*
X108628328Y-85341715D01*
X108451768Y-85227711D01*
X108346932Y-85185461D01*
X108262404Y-85151395D01*
X108262401Y-85151394D01*
X108256835Y-85149151D01*
X108146721Y-85127647D01*
X108055011Y-85109737D01*
X108055008Y-85109737D01*
X108050565Y-85108869D01*
X108045044Y-85108599D01*
X107890087Y-85108599D01*
X107733381Y-85123550D01*
X107727627Y-85125238D01*
X107537466Y-85181025D01*
X107537464Y-85181026D01*
X107531713Y-85182713D01*
X107526381Y-85185459D01*
X107526379Y-85185460D01*
X107350202Y-85276197D01*
X107350199Y-85276199D01*
X107344871Y-85278943D01*
X107319341Y-85298997D01*
X107184313Y-85405062D01*
X107184308Y-85405066D01*
X107179596Y-85408768D01*
X107175665Y-85413298D01*
X107175664Y-85413299D01*
X107045783Y-85562972D01*
X107045779Y-85562977D01*
X107041852Y-85567503D01*
X106936610Y-85749422D01*
X106934641Y-85755091D01*
X106934640Y-85755094D01*
X106890126Y-85883280D01*
X106867666Y-85947959D01*
X106866805Y-85953897D01*
X106840370Y-86136222D01*
X106837509Y-86155951D01*
X104353879Y-86155951D01*
X104338572Y-85890469D01*
X104338571Y-85890464D01*
X104338363Y-85886849D01*
X104297651Y-85653580D01*
X104279891Y-85551820D01*
X104279889Y-85551813D01*
X104279267Y-85548247D01*
X104277511Y-85542317D01*
X104222861Y-85357820D01*
X104181646Y-85218681D01*
X104167477Y-85185461D01*
X104073110Y-84964223D01*
X104046791Y-84902519D01*
X104043225Y-84896266D01*
X103878283Y-84607092D01*
X103876492Y-84603952D01*
X103844895Y-84560937D01*
X103759368Y-84444507D01*
X103673005Y-84326938D01*
X103622137Y-84272197D01*
X103465253Y-84103371D01*
X103439027Y-84075148D01*
X103177659Y-83851919D01*
X103066412Y-83777164D01*
X115080464Y-83777164D01*
X115115550Y-84034969D01*
X115116858Y-84039455D01*
X115116858Y-84039457D01*
X115117201Y-84040633D01*
X115188356Y-84284756D01*
X115190316Y-84289009D01*
X115190317Y-84289010D01*
X115206052Y-84323141D01*
X115297284Y-84521038D01*
X115299844Y-84524943D01*
X115299847Y-84524948D01*
X115437373Y-84734711D01*
X115437374Y-84734712D01*
X115439939Y-84738624D01*
X115613189Y-84932734D01*
X115813227Y-85099104D01*
X116035659Y-85234079D01*
X116039973Y-85235888D01*
X116039975Y-85235889D01*
X116271284Y-85332885D01*
X116271287Y-85332886D01*
X116275599Y-85334694D01*
X116280131Y-85335845D01*
X116280134Y-85335846D01*
X116405413Y-85367662D01*
X116527775Y-85398738D01*
X116743884Y-85420499D01*
X116898642Y-85420499D01*
X116900967Y-85420326D01*
X116901000Y-85420325D01*
X117066517Y-85408024D01*
X117135933Y-85422922D01*
X117186274Y-85472984D01*
X117201558Y-85542316D01*
X117184920Y-85596770D01*
X117096610Y-85749422D01*
X117094641Y-85755091D01*
X117094640Y-85755094D01*
X117050126Y-85883280D01*
X117027666Y-85947959D01*
X117026805Y-85953897D01*
X117000370Y-86136222D01*
X116997509Y-86155951D01*
X117007226Y-86365894D01*
X117008630Y-86371719D01*
X117008630Y-86371720D01*
X117053577Y-86558218D01*
X117056467Y-86570211D01*
X117058949Y-86575669D01*
X117058950Y-86575673D01*
X117070283Y-86600598D01*
X117143455Y-86761531D01*
X117265051Y-86932950D01*
X117350695Y-87014936D01*
X117403113Y-87065115D01*
X117416868Y-87078283D01*
X117593428Y-87192287D01*
X117598994Y-87194530D01*
X117782792Y-87268603D01*
X117782795Y-87268604D01*
X117788361Y-87270847D01*
X117891322Y-87290954D01*
X117990185Y-87310261D01*
X117990188Y-87310261D01*
X117994631Y-87311129D01*
X118000152Y-87311399D01*
X118155109Y-87311399D01*
X118291379Y-87298398D01*
X118305841Y-87297018D01*
X118311815Y-87296448D01*
X118317569Y-87294760D01*
X118507730Y-87238973D01*
X118507732Y-87238972D01*
X118513483Y-87237285D01*
X118596497Y-87194530D01*
X118694994Y-87143801D01*
X118694997Y-87143799D01*
X118700325Y-87141055D01*
X118785513Y-87074139D01*
X118860883Y-87014936D01*
X118860888Y-87014932D01*
X118865600Y-87011230D01*
X118869532Y-87006699D01*
X118999413Y-86857026D01*
X118999417Y-86857021D01*
X119003344Y-86852495D01*
X119108586Y-86670576D01*
X119110555Y-86664907D01*
X119110556Y-86664904D01*
X119175561Y-86477709D01*
X119177530Y-86472039D01*
X119178572Y-86464850D01*
X119206826Y-86269987D01*
X119206826Y-86269984D01*
X119207687Y-86264047D01*
X119202684Y-86155952D01*
X126017509Y-86155952D01*
X126027226Y-86365895D01*
X126028630Y-86371720D01*
X126073577Y-86558219D01*
X126076467Y-86570212D01*
X126078949Y-86575670D01*
X126078950Y-86575674D01*
X126119521Y-86664904D01*
X126163455Y-86761532D01*
X126285051Y-86932951D01*
X126370694Y-87014936D01*
X126398809Y-87041850D01*
X126436868Y-87078284D01*
X126613428Y-87192288D01*
X126618994Y-87194531D01*
X126802792Y-87268604D01*
X126802795Y-87268605D01*
X126808361Y-87270848D01*
X126911322Y-87290955D01*
X127010185Y-87310262D01*
X127010188Y-87310262D01*
X127014631Y-87311130D01*
X127020152Y-87311400D01*
X127175109Y-87311400D01*
X127331815Y-87296449D01*
X127415161Y-87271998D01*
X127527730Y-87238974D01*
X127527732Y-87238973D01*
X127533483Y-87237286D01*
X127620854Y-87192287D01*
X127714994Y-87143802D01*
X127714997Y-87143800D01*
X127720325Y-87141056D01*
X127800239Y-87078283D01*
X127880883Y-87014937D01*
X127880888Y-87014933D01*
X127885600Y-87011231D01*
X127889533Y-87006699D01*
X128019413Y-86857027D01*
X128019417Y-86857022D01*
X128023344Y-86852496D01*
X128128586Y-86670577D01*
X128161543Y-86575673D01*
X128195561Y-86477710D01*
X128195561Y-86477709D01*
X128197530Y-86472040D01*
X128198391Y-86466101D01*
X128226826Y-86269988D01*
X128226826Y-86269985D01*
X128227687Y-86264048D01*
X128227366Y-86257108D01*
X129953668Y-86257108D01*
X129954031Y-86261256D01*
X129954031Y-86261260D01*
X129979289Y-86549964D01*
X129979290Y-86549972D01*
X129979654Y-86554130D01*
X129980568Y-86558218D01*
X129980568Y-86558219D01*
X130024795Y-86756076D01*
X130044695Y-86845105D01*
X130147648Y-87124923D01*
X130149595Y-87128616D01*
X130149596Y-87128618D01*
X130184348Y-87194530D01*
X130286704Y-87388666D01*
X130459420Y-87631701D01*
X130462264Y-87634751D01*
X130462269Y-87634757D01*
X130659911Y-87846702D01*
X130662762Y-87849759D01*
X130893157Y-88039008D01*
X131146558Y-88196123D01*
X131162227Y-88203165D01*
X131414695Y-88316629D01*
X131414701Y-88316631D01*
X131418512Y-88318344D01*
X131422518Y-88319538D01*
X131422520Y-88319539D01*
X131561377Y-88360934D01*
X131704242Y-88403523D01*
X131998727Y-88450165D01*
X132043999Y-88452221D01*
X132090567Y-88454336D01*
X132090586Y-88454336D01*
X132091986Y-88454400D01*
X132278223Y-88454400D01*
X132500099Y-88439663D01*
X132792372Y-88380730D01*
X133074284Y-88283660D01*
X133078017Y-88281791D01*
X133078021Y-88281789D01*
X133337138Y-88152033D01*
X133337140Y-88152032D01*
X133340882Y-88150158D01*
X133508340Y-88036354D01*
X133584022Y-87984921D01*
X133584025Y-87984919D01*
X133587481Y-87982570D01*
X133809749Y-87783839D01*
X133919755Y-87655493D01*
X134001062Y-87560631D01*
X134001065Y-87560627D01*
X134003782Y-87557457D01*
X134006056Y-87553955D01*
X134006060Y-87553950D01*
X134163890Y-87310913D01*
X134163893Y-87310908D01*
X134166169Y-87307403D01*
X134192125Y-87252741D01*
X134292263Y-87041850D01*
X134294059Y-87038068D01*
X134302676Y-87011231D01*
X134383924Y-86758172D01*
X134383924Y-86758171D01*
X134385204Y-86754185D01*
X134417323Y-86575673D01*
X134437263Y-86464850D01*
X134437264Y-86464845D01*
X134438002Y-86460741D01*
X134439842Y-86420243D01*
X134451339Y-86167062D01*
X134451339Y-86167056D01*
X134451528Y-86162892D01*
X134450401Y-86150011D01*
X134425907Y-85870036D01*
X134425906Y-85870028D01*
X134425542Y-85865870D01*
X134400781Y-85755095D01*
X134361415Y-85578983D01*
X134361414Y-85578980D01*
X134360501Y-85574895D01*
X134359056Y-85570966D01*
X134301045Y-85413299D01*
X134257548Y-85295077D01*
X134250995Y-85282647D01*
X134159380Y-85108885D01*
X134118492Y-85031334D01*
X133945776Y-84788299D01*
X133942932Y-84785249D01*
X133942927Y-84785243D01*
X133745284Y-84573297D01*
X133745282Y-84573295D01*
X133742434Y-84570241D01*
X133512039Y-84380992D01*
X133258638Y-84223877D01*
X133068023Y-84138211D01*
X132990501Y-84103371D01*
X132990495Y-84103369D01*
X132986684Y-84101656D01*
X132982678Y-84100462D01*
X132982676Y-84100461D01*
X132778043Y-84039458D01*
X132700954Y-84016477D01*
X132406469Y-83969835D01*
X132361197Y-83967779D01*
X132314629Y-83965664D01*
X132314610Y-83965664D01*
X132313210Y-83965600D01*
X132126973Y-83965600D01*
X131905097Y-83980337D01*
X131612824Y-84039270D01*
X131330912Y-84136340D01*
X131327179Y-84138209D01*
X131327175Y-84138211D01*
X131087007Y-84258478D01*
X131064314Y-84269842D01*
X131042369Y-84284756D01*
X130821176Y-84435078D01*
X130817715Y-84437430D01*
X130814600Y-84440215D01*
X130814599Y-84440216D01*
X130773782Y-84476711D01*
X130595447Y-84636161D01*
X130592730Y-84639331D01*
X130592729Y-84639332D01*
X130465050Y-84788298D01*
X130401414Y-84862543D01*
X130399140Y-84866045D01*
X130399136Y-84866050D01*
X130241307Y-85109086D01*
X130239027Y-85112597D01*
X130237233Y-85116376D01*
X130237232Y-85116377D01*
X130190242Y-85215337D01*
X130111137Y-85381932D01*
X130109858Y-85385915D01*
X130109857Y-85385918D01*
X130049183Y-85574895D01*
X130019992Y-85665815D01*
X130019251Y-85669933D01*
X130019251Y-85669934D01*
X129968159Y-85953898D01*
X129967194Y-85959259D01*
X129967005Y-85963426D01*
X129967004Y-85963433D01*
X129957757Y-86167061D01*
X129953668Y-86257108D01*
X128227366Y-86257108D01*
X128217970Y-86054105D01*
X128172605Y-85865869D01*
X128170135Y-85855621D01*
X128170134Y-85855619D01*
X128168729Y-85849788D01*
X128166246Y-85844325D01*
X128084221Y-85663923D01*
X128081741Y-85658468D01*
X127960145Y-85487049D01*
X127849689Y-85381311D01*
X127812658Y-85345861D01*
X127812657Y-85345860D01*
X127808328Y-85341716D01*
X127631768Y-85227712D01*
X127571294Y-85203341D01*
X127442404Y-85151396D01*
X127442401Y-85151395D01*
X127436835Y-85149152D01*
X127333874Y-85129045D01*
X127235011Y-85109738D01*
X127235008Y-85109738D01*
X127230565Y-85108870D01*
X127225044Y-85108600D01*
X127070087Y-85108600D01*
X126933817Y-85121601D01*
X126919366Y-85122980D01*
X126913381Y-85123551D01*
X126907627Y-85125239D01*
X126717466Y-85181026D01*
X126717464Y-85181027D01*
X126711713Y-85182714D01*
X126706381Y-85185460D01*
X126706379Y-85185461D01*
X126530202Y-85276198D01*
X126530199Y-85276200D01*
X126524871Y-85278944D01*
X126473211Y-85319524D01*
X126364313Y-85405063D01*
X126364308Y-85405067D01*
X126359596Y-85408769D01*
X126355665Y-85413299D01*
X126355664Y-85413300D01*
X126225783Y-85562973D01*
X126225779Y-85562978D01*
X126221852Y-85567504D01*
X126116610Y-85749423D01*
X126114641Y-85755092D01*
X126114640Y-85755095D01*
X126074726Y-85870035D01*
X126047666Y-85947960D01*
X126046805Y-85953897D01*
X126046805Y-85953898D01*
X126020370Y-86136222D01*
X126017509Y-86155952D01*
X119202684Y-86155952D01*
X119197970Y-86054104D01*
X119166189Y-85922232D01*
X119150135Y-85855620D01*
X119150134Y-85855618D01*
X119148729Y-85849787D01*
X119123302Y-85793862D01*
X119065081Y-85665814D01*
X119061741Y-85658467D01*
X118940145Y-85487048D01*
X118826389Y-85378150D01*
X118792658Y-85345860D01*
X118788328Y-85341715D01*
X118611768Y-85227711D01*
X118506932Y-85185461D01*
X118422404Y-85151395D01*
X118422401Y-85151394D01*
X118416835Y-85149151D01*
X118306721Y-85127647D01*
X118215011Y-85109737D01*
X118215008Y-85109737D01*
X118210565Y-85108869D01*
X118205044Y-85108599D01*
X118174236Y-85108599D01*
X118106115Y-85088597D01*
X118059622Y-85034941D01*
X118049518Y-84964667D01*
X118082461Y-84896266D01*
X118184026Y-84788299D01*
X118196806Y-84774713D01*
X118338655Y-84570240D01*
X118342444Y-84564778D01*
X118342446Y-84564775D01*
X118345109Y-84560936D01*
X118347177Y-84556743D01*
X118458119Y-84331774D01*
X118458120Y-84331771D01*
X118460184Y-84327586D01*
X118539504Y-84079791D01*
X118581326Y-83822993D01*
X118581926Y-83777165D01*
X134260464Y-83777165D01*
X134295550Y-84034970D01*
X134296858Y-84039456D01*
X134296858Y-84039458D01*
X134306574Y-84072793D01*
X134368356Y-84284757D01*
X134370316Y-84289010D01*
X134370317Y-84289011D01*
X134388101Y-84327587D01*
X134477284Y-84521039D01*
X134479844Y-84524944D01*
X134479847Y-84524949D01*
X134617373Y-84734712D01*
X134617377Y-84734717D01*
X134619939Y-84738625D01*
X134661546Y-84785242D01*
X134769199Y-84905856D01*
X134793189Y-84932735D01*
X134993227Y-85099105D01*
X135215659Y-85234080D01*
X135219973Y-85235889D01*
X135219975Y-85235890D01*
X135451284Y-85332886D01*
X135451289Y-85332888D01*
X135455599Y-85334695D01*
X135460131Y-85335846D01*
X135460134Y-85335847D01*
X135585413Y-85367663D01*
X135707775Y-85398739D01*
X135923884Y-85420500D01*
X136078642Y-85420500D01*
X136080967Y-85420327D01*
X136081000Y-85420326D01*
X136246517Y-85408025D01*
X136315933Y-85422923D01*
X136366274Y-85472985D01*
X136381558Y-85542317D01*
X136364920Y-85596771D01*
X136276610Y-85749423D01*
X136274641Y-85755092D01*
X136274640Y-85755095D01*
X136234726Y-85870035D01*
X136207666Y-85947960D01*
X136206805Y-85953897D01*
X136206805Y-85953898D01*
X136180370Y-86136222D01*
X136177509Y-86155952D01*
X136187226Y-86365895D01*
X136188630Y-86371720D01*
X136233577Y-86558219D01*
X136236467Y-86570212D01*
X136238949Y-86575670D01*
X136238950Y-86575674D01*
X136279521Y-86664904D01*
X136323455Y-86761532D01*
X136445051Y-86932951D01*
X136530694Y-87014936D01*
X136558809Y-87041850D01*
X136596868Y-87078284D01*
X136773428Y-87192288D01*
X136778994Y-87194531D01*
X136962792Y-87268604D01*
X136962795Y-87268605D01*
X136968361Y-87270848D01*
X137071322Y-87290955D01*
X137170185Y-87310262D01*
X137170188Y-87310262D01*
X137174631Y-87311130D01*
X137180152Y-87311400D01*
X137335109Y-87311400D01*
X137491815Y-87296449D01*
X137575161Y-87271998D01*
X137687730Y-87238974D01*
X137687732Y-87238973D01*
X137693483Y-87237286D01*
X137780854Y-87192287D01*
X137874994Y-87143802D01*
X137874997Y-87143800D01*
X137880325Y-87141056D01*
X137960239Y-87078283D01*
X138040883Y-87014937D01*
X138040888Y-87014933D01*
X138045600Y-87011231D01*
X138049533Y-87006699D01*
X138179413Y-86857027D01*
X138179417Y-86857022D01*
X138183344Y-86852496D01*
X138288586Y-86670577D01*
X138321543Y-86575673D01*
X138355561Y-86477710D01*
X138355561Y-86477709D01*
X138357530Y-86472040D01*
X138358391Y-86466101D01*
X138386826Y-86269988D01*
X138386826Y-86269985D01*
X138387687Y-86264048D01*
X138382684Y-86155952D01*
X145217509Y-86155952D01*
X145227226Y-86365895D01*
X145228630Y-86371720D01*
X145273577Y-86558219D01*
X145276467Y-86570212D01*
X145278949Y-86575670D01*
X145278950Y-86575674D01*
X145319521Y-86664904D01*
X145363455Y-86761532D01*
X145485051Y-86932951D01*
X145570694Y-87014936D01*
X145598809Y-87041850D01*
X145636868Y-87078284D01*
X145813428Y-87192288D01*
X145818994Y-87194531D01*
X146002792Y-87268604D01*
X146002795Y-87268605D01*
X146008361Y-87270848D01*
X146111322Y-87290955D01*
X146210185Y-87310262D01*
X146210188Y-87310262D01*
X146214631Y-87311130D01*
X146220152Y-87311400D01*
X146375109Y-87311400D01*
X146531815Y-87296449D01*
X146615161Y-87271998D01*
X146727730Y-87238974D01*
X146727732Y-87238973D01*
X146733483Y-87237286D01*
X146820854Y-87192287D01*
X146914994Y-87143802D01*
X146914997Y-87143800D01*
X146920325Y-87141056D01*
X147000239Y-87078283D01*
X147080883Y-87014937D01*
X147080888Y-87014933D01*
X147085600Y-87011231D01*
X147089533Y-87006699D01*
X147219413Y-86857027D01*
X147219417Y-86857022D01*
X147223344Y-86852496D01*
X147328586Y-86670577D01*
X147361543Y-86575673D01*
X147395561Y-86477710D01*
X147395561Y-86477709D01*
X147397530Y-86472040D01*
X147398391Y-86466101D01*
X147426826Y-86269988D01*
X147426826Y-86269985D01*
X147427687Y-86264048D01*
X147427366Y-86257108D01*
X149153668Y-86257108D01*
X149154031Y-86261256D01*
X149154031Y-86261260D01*
X149179289Y-86549964D01*
X149179290Y-86549972D01*
X149179654Y-86554130D01*
X149180568Y-86558218D01*
X149180568Y-86558219D01*
X149224795Y-86756076D01*
X149244695Y-86845105D01*
X149347648Y-87124923D01*
X149349595Y-87128616D01*
X149349596Y-87128618D01*
X149384348Y-87194530D01*
X149486704Y-87388666D01*
X149659420Y-87631701D01*
X149662264Y-87634751D01*
X149662269Y-87634757D01*
X149859911Y-87846702D01*
X149862762Y-87849759D01*
X150093157Y-88039008D01*
X150346558Y-88196123D01*
X150362227Y-88203165D01*
X150614695Y-88316629D01*
X150614701Y-88316631D01*
X150618512Y-88318344D01*
X150622518Y-88319538D01*
X150622520Y-88319539D01*
X150761377Y-88360934D01*
X150904242Y-88403523D01*
X151198727Y-88450165D01*
X151243999Y-88452221D01*
X151290567Y-88454336D01*
X151290586Y-88454336D01*
X151291986Y-88454400D01*
X151478223Y-88454400D01*
X151700099Y-88439663D01*
X151992372Y-88380730D01*
X152274284Y-88283660D01*
X152278017Y-88281791D01*
X152278021Y-88281789D01*
X152537138Y-88152033D01*
X152537140Y-88152032D01*
X152540882Y-88150158D01*
X152708340Y-88036354D01*
X152784022Y-87984921D01*
X152784025Y-87984919D01*
X152787481Y-87982570D01*
X153009749Y-87783839D01*
X153119755Y-87655493D01*
X153201062Y-87560631D01*
X153201065Y-87560627D01*
X153203782Y-87557457D01*
X153206056Y-87553955D01*
X153206060Y-87553950D01*
X153363890Y-87310913D01*
X153363893Y-87310908D01*
X153366169Y-87307403D01*
X153392125Y-87252741D01*
X153492263Y-87041850D01*
X153494059Y-87038068D01*
X153502676Y-87011231D01*
X153583924Y-86758172D01*
X153583924Y-86758171D01*
X153585204Y-86754185D01*
X153617323Y-86575673D01*
X153637263Y-86464850D01*
X153637264Y-86464845D01*
X153638002Y-86460741D01*
X153639842Y-86420243D01*
X153651339Y-86167062D01*
X153651339Y-86167056D01*
X153651528Y-86162892D01*
X153650401Y-86150011D01*
X153625907Y-85870036D01*
X153625906Y-85870028D01*
X153625542Y-85865870D01*
X153600781Y-85755095D01*
X153561415Y-85578983D01*
X153561414Y-85578980D01*
X153560501Y-85574895D01*
X153559056Y-85570966D01*
X153501045Y-85413299D01*
X153457548Y-85295077D01*
X153450995Y-85282647D01*
X153359380Y-85108885D01*
X153318492Y-85031334D01*
X153145776Y-84788299D01*
X153142932Y-84785249D01*
X153142927Y-84785243D01*
X152945284Y-84573297D01*
X152945282Y-84573295D01*
X152942434Y-84570241D01*
X152712039Y-84380992D01*
X152458638Y-84223877D01*
X152268023Y-84138211D01*
X152190501Y-84103371D01*
X152190495Y-84103369D01*
X152186684Y-84101656D01*
X152182678Y-84100462D01*
X152182676Y-84100461D01*
X151978043Y-84039458D01*
X151900954Y-84016477D01*
X151606469Y-83969835D01*
X151561197Y-83967779D01*
X151514629Y-83965664D01*
X151514610Y-83965664D01*
X151513210Y-83965600D01*
X151326973Y-83965600D01*
X151105097Y-83980337D01*
X150812824Y-84039270D01*
X150530912Y-84136340D01*
X150527179Y-84138209D01*
X150527175Y-84138211D01*
X150287007Y-84258478D01*
X150264314Y-84269842D01*
X150242369Y-84284756D01*
X150021176Y-84435078D01*
X150017715Y-84437430D01*
X150014600Y-84440215D01*
X150014599Y-84440216D01*
X149973782Y-84476711D01*
X149795447Y-84636161D01*
X149792730Y-84639331D01*
X149792729Y-84639332D01*
X149665050Y-84788298D01*
X149601414Y-84862543D01*
X149599140Y-84866045D01*
X149599136Y-84866050D01*
X149441307Y-85109086D01*
X149439027Y-85112597D01*
X149437233Y-85116376D01*
X149437232Y-85116377D01*
X149390242Y-85215337D01*
X149311137Y-85381932D01*
X149309858Y-85385915D01*
X149309857Y-85385918D01*
X149249183Y-85574895D01*
X149219992Y-85665815D01*
X149219251Y-85669933D01*
X149219251Y-85669934D01*
X149168159Y-85953898D01*
X149167194Y-85959259D01*
X149167005Y-85963426D01*
X149167004Y-85963433D01*
X149157757Y-86167061D01*
X149153668Y-86257108D01*
X147427366Y-86257108D01*
X147417970Y-86054105D01*
X147372605Y-85865869D01*
X147370135Y-85855621D01*
X147370134Y-85855619D01*
X147368729Y-85849788D01*
X147366246Y-85844325D01*
X147284221Y-85663923D01*
X147281741Y-85658468D01*
X147160145Y-85487049D01*
X147049689Y-85381311D01*
X147012658Y-85345861D01*
X147012657Y-85345860D01*
X147008328Y-85341716D01*
X146831768Y-85227712D01*
X146771294Y-85203341D01*
X146642404Y-85151396D01*
X146642401Y-85151395D01*
X146636835Y-85149152D01*
X146533874Y-85129045D01*
X146435011Y-85109738D01*
X146435008Y-85109738D01*
X146430565Y-85108870D01*
X146425044Y-85108600D01*
X146270087Y-85108600D01*
X146133817Y-85121601D01*
X146119366Y-85122980D01*
X146113381Y-85123551D01*
X146107627Y-85125239D01*
X145917466Y-85181026D01*
X145917464Y-85181027D01*
X145911713Y-85182714D01*
X145906381Y-85185460D01*
X145906379Y-85185461D01*
X145730202Y-85276198D01*
X145730199Y-85276200D01*
X145724871Y-85278944D01*
X145673211Y-85319524D01*
X145564313Y-85405063D01*
X145564308Y-85405067D01*
X145559596Y-85408769D01*
X145555665Y-85413299D01*
X145555664Y-85413300D01*
X145425783Y-85562973D01*
X145425779Y-85562978D01*
X145421852Y-85567504D01*
X145316610Y-85749423D01*
X145314641Y-85755092D01*
X145314640Y-85755095D01*
X145274726Y-85870035D01*
X145247666Y-85947960D01*
X145246805Y-85953897D01*
X145246805Y-85953898D01*
X145220370Y-86136222D01*
X145217509Y-86155952D01*
X138382684Y-86155952D01*
X138377970Y-86054105D01*
X138332605Y-85865869D01*
X138330135Y-85855621D01*
X138330134Y-85855619D01*
X138328729Y-85849788D01*
X138326246Y-85844325D01*
X138244221Y-85663923D01*
X138241741Y-85658468D01*
X138120145Y-85487049D01*
X138009689Y-85381311D01*
X137972658Y-85345861D01*
X137972657Y-85345860D01*
X137968328Y-85341716D01*
X137791768Y-85227712D01*
X137731294Y-85203341D01*
X137602404Y-85151396D01*
X137602401Y-85151395D01*
X137596835Y-85149152D01*
X137493874Y-85129045D01*
X137395011Y-85109738D01*
X137395008Y-85109738D01*
X137390565Y-85108870D01*
X137385044Y-85108600D01*
X137354236Y-85108600D01*
X137286115Y-85088598D01*
X137239622Y-85034942D01*
X137229518Y-84964668D01*
X137262461Y-84896267D01*
X137360819Y-84791709D01*
X137376806Y-84774714D01*
X137518655Y-84570241D01*
X137522444Y-84564779D01*
X137522446Y-84564776D01*
X137525109Y-84560937D01*
X137535026Y-84540827D01*
X137638119Y-84331775D01*
X137638120Y-84331772D01*
X137640184Y-84327587D01*
X137655335Y-84280257D01*
X137711956Y-84103371D01*
X137719504Y-84079792D01*
X137761326Y-83822994D01*
X137761926Y-83777165D01*
X153460464Y-83777165D01*
X153495550Y-84034970D01*
X153496858Y-84039456D01*
X153496858Y-84039458D01*
X153506574Y-84072793D01*
X153568356Y-84284757D01*
X153570316Y-84289010D01*
X153570317Y-84289011D01*
X153588101Y-84327587D01*
X153677284Y-84521039D01*
X153679844Y-84524944D01*
X153679847Y-84524949D01*
X153817373Y-84734712D01*
X153817377Y-84734717D01*
X153819939Y-84738625D01*
X153861546Y-84785242D01*
X153969199Y-84905856D01*
X153993189Y-84932735D01*
X154193227Y-85099105D01*
X154415659Y-85234080D01*
X154419973Y-85235889D01*
X154419975Y-85235890D01*
X154651284Y-85332886D01*
X154651289Y-85332888D01*
X154655599Y-85334695D01*
X154660131Y-85335846D01*
X154660134Y-85335847D01*
X154785413Y-85367663D01*
X154907775Y-85398739D01*
X155123884Y-85420500D01*
X155278642Y-85420500D01*
X155280967Y-85420327D01*
X155281000Y-85420326D01*
X155446517Y-85408025D01*
X155515933Y-85422923D01*
X155566274Y-85472985D01*
X155581558Y-85542317D01*
X155564920Y-85596771D01*
X155476610Y-85749423D01*
X155474641Y-85755092D01*
X155474640Y-85755095D01*
X155434726Y-85870035D01*
X155407666Y-85947960D01*
X155406805Y-85953897D01*
X155406805Y-85953898D01*
X155380370Y-86136222D01*
X155377509Y-86155952D01*
X155387226Y-86365895D01*
X155388630Y-86371720D01*
X155433577Y-86558219D01*
X155436467Y-86570212D01*
X155438949Y-86575670D01*
X155438950Y-86575674D01*
X155479521Y-86664904D01*
X155523455Y-86761532D01*
X155645051Y-86932951D01*
X155730694Y-87014936D01*
X155758809Y-87041850D01*
X155796868Y-87078284D01*
X155973428Y-87192288D01*
X155978994Y-87194531D01*
X156162792Y-87268604D01*
X156162795Y-87268605D01*
X156168361Y-87270848D01*
X156271322Y-87290955D01*
X156370185Y-87310262D01*
X156370188Y-87310262D01*
X156374631Y-87311130D01*
X156380152Y-87311400D01*
X156535109Y-87311400D01*
X156691815Y-87296449D01*
X156775161Y-87271998D01*
X156887730Y-87238974D01*
X156887732Y-87238973D01*
X156893483Y-87237286D01*
X156980854Y-87192287D01*
X157074994Y-87143802D01*
X157074997Y-87143800D01*
X157080325Y-87141056D01*
X157160239Y-87078283D01*
X157240883Y-87014937D01*
X157240888Y-87014933D01*
X157245600Y-87011231D01*
X157249533Y-87006699D01*
X157379413Y-86857027D01*
X157379417Y-86857022D01*
X157383344Y-86852496D01*
X157488586Y-86670577D01*
X157521543Y-86575673D01*
X157555561Y-86477710D01*
X157555561Y-86477709D01*
X157557530Y-86472040D01*
X157558391Y-86466101D01*
X157586826Y-86269988D01*
X157586826Y-86269985D01*
X157587687Y-86264048D01*
X157582684Y-86155952D01*
X164427509Y-86155952D01*
X164437226Y-86365895D01*
X164438630Y-86371720D01*
X164483577Y-86558219D01*
X164486467Y-86570212D01*
X164488949Y-86575670D01*
X164488950Y-86575674D01*
X164529521Y-86664904D01*
X164573455Y-86761532D01*
X164695051Y-86932951D01*
X164780694Y-87014936D01*
X164808809Y-87041850D01*
X164846868Y-87078284D01*
X165023428Y-87192288D01*
X165028994Y-87194531D01*
X165212792Y-87268604D01*
X165212795Y-87268605D01*
X165218361Y-87270848D01*
X165321322Y-87290955D01*
X165420185Y-87310262D01*
X165420188Y-87310262D01*
X165424631Y-87311130D01*
X165430152Y-87311400D01*
X165585109Y-87311400D01*
X165741815Y-87296449D01*
X165825161Y-87271998D01*
X165937730Y-87238974D01*
X165937732Y-87238973D01*
X165943483Y-87237286D01*
X166030854Y-87192287D01*
X166124994Y-87143802D01*
X166124997Y-87143800D01*
X166130325Y-87141056D01*
X166210239Y-87078283D01*
X166290883Y-87014937D01*
X166290888Y-87014933D01*
X166295600Y-87011231D01*
X166299533Y-87006699D01*
X166429413Y-86857027D01*
X166429417Y-86857022D01*
X166433344Y-86852496D01*
X166538586Y-86670577D01*
X166571543Y-86575673D01*
X166605561Y-86477710D01*
X166605561Y-86477709D01*
X166607530Y-86472040D01*
X166608391Y-86466101D01*
X166636826Y-86269988D01*
X166636826Y-86269985D01*
X166637687Y-86264048D01*
X166627970Y-86054105D01*
X166582605Y-85865869D01*
X166580135Y-85855621D01*
X166580134Y-85855619D01*
X166578729Y-85849788D01*
X166576246Y-85844325D01*
X166494221Y-85663923D01*
X166491741Y-85658468D01*
X166370145Y-85487049D01*
X166259689Y-85381311D01*
X166222658Y-85345861D01*
X166222657Y-85345860D01*
X166218328Y-85341716D01*
X166041768Y-85227712D01*
X165981294Y-85203341D01*
X165852404Y-85151396D01*
X165852401Y-85151395D01*
X165846835Y-85149152D01*
X165743874Y-85129045D01*
X165645011Y-85109738D01*
X165645008Y-85109738D01*
X165640565Y-85108870D01*
X165635044Y-85108600D01*
X165480087Y-85108600D01*
X165343817Y-85121601D01*
X165329366Y-85122980D01*
X165323381Y-85123551D01*
X165317627Y-85125239D01*
X165127466Y-85181026D01*
X165127464Y-85181027D01*
X165121713Y-85182714D01*
X165116381Y-85185460D01*
X165116379Y-85185461D01*
X164940202Y-85276198D01*
X164940199Y-85276200D01*
X164934871Y-85278944D01*
X164883211Y-85319523D01*
X164774313Y-85405063D01*
X164774308Y-85405067D01*
X164769596Y-85408769D01*
X164765665Y-85413299D01*
X164765664Y-85413300D01*
X164635783Y-85562973D01*
X164635779Y-85562978D01*
X164631852Y-85567504D01*
X164526610Y-85749423D01*
X164524641Y-85755092D01*
X164524640Y-85755095D01*
X164484726Y-85870035D01*
X164457666Y-85947960D01*
X164456805Y-85953897D01*
X164456805Y-85953898D01*
X164430370Y-86136222D01*
X164427509Y-86155952D01*
X157582684Y-86155952D01*
X157577970Y-86054105D01*
X157532605Y-85865869D01*
X157530135Y-85855621D01*
X157530134Y-85855619D01*
X157528729Y-85849788D01*
X157526246Y-85844325D01*
X157444221Y-85663923D01*
X157441741Y-85658468D01*
X157320145Y-85487049D01*
X157209689Y-85381311D01*
X157172658Y-85345861D01*
X157172657Y-85345860D01*
X157168328Y-85341716D01*
X156991768Y-85227712D01*
X156931294Y-85203341D01*
X156802404Y-85151396D01*
X156802401Y-85151395D01*
X156796835Y-85149152D01*
X156693874Y-85129045D01*
X156595011Y-85109738D01*
X156595008Y-85109738D01*
X156590565Y-85108870D01*
X156585044Y-85108600D01*
X156554236Y-85108600D01*
X156486115Y-85088598D01*
X156439622Y-85034942D01*
X156429518Y-84964668D01*
X156462461Y-84896267D01*
X156560819Y-84791709D01*
X156576806Y-84774714D01*
X156718655Y-84570241D01*
X156722444Y-84564779D01*
X156722446Y-84564776D01*
X156725109Y-84560937D01*
X156735026Y-84540827D01*
X156838119Y-84331775D01*
X156838120Y-84331772D01*
X156840184Y-84327587D01*
X156855335Y-84280257D01*
X156911956Y-84103371D01*
X156919504Y-84079792D01*
X156961326Y-83822994D01*
X156961926Y-83777165D01*
X172670464Y-83777165D01*
X172705550Y-84034970D01*
X172706858Y-84039456D01*
X172706858Y-84039458D01*
X172716574Y-84072793D01*
X172778356Y-84284757D01*
X172780316Y-84289010D01*
X172780317Y-84289011D01*
X172798101Y-84327587D01*
X172887284Y-84521039D01*
X172889844Y-84524944D01*
X172889847Y-84524949D01*
X173027373Y-84734712D01*
X173027377Y-84734717D01*
X173029939Y-84738625D01*
X173071546Y-84785242D01*
X173179199Y-84905856D01*
X173203189Y-84932735D01*
X173403227Y-85099105D01*
X173625659Y-85234080D01*
X173629973Y-85235889D01*
X173629975Y-85235890D01*
X173861284Y-85332886D01*
X173861289Y-85332888D01*
X173865599Y-85334695D01*
X173870131Y-85335846D01*
X173870134Y-85335847D01*
X173995413Y-85367663D01*
X174117775Y-85398739D01*
X174333884Y-85420500D01*
X174488642Y-85420500D01*
X174490967Y-85420327D01*
X174491000Y-85420326D01*
X174656517Y-85408025D01*
X174725933Y-85422923D01*
X174776274Y-85472985D01*
X174791558Y-85542317D01*
X174774920Y-85596771D01*
X174686610Y-85749423D01*
X174684641Y-85755092D01*
X174684640Y-85755095D01*
X174644726Y-85870035D01*
X174617666Y-85947960D01*
X174616805Y-85953897D01*
X174616805Y-85953898D01*
X174590370Y-86136222D01*
X174587509Y-86155952D01*
X174597226Y-86365895D01*
X174598630Y-86371720D01*
X174643577Y-86558219D01*
X174646467Y-86570212D01*
X174648949Y-86575670D01*
X174648950Y-86575674D01*
X174689521Y-86664904D01*
X174733455Y-86761532D01*
X174855051Y-86932951D01*
X174940694Y-87014936D01*
X174968809Y-87041850D01*
X175006868Y-87078284D01*
X175183428Y-87192288D01*
X175188994Y-87194531D01*
X175372792Y-87268604D01*
X175372795Y-87268605D01*
X175378361Y-87270848D01*
X175481322Y-87290955D01*
X175580185Y-87310262D01*
X175580188Y-87310262D01*
X175584631Y-87311130D01*
X175590152Y-87311400D01*
X175745109Y-87311400D01*
X175901815Y-87296449D01*
X175985161Y-87271998D01*
X176097730Y-87238974D01*
X176097732Y-87238973D01*
X176103483Y-87237286D01*
X176190854Y-87192287D01*
X176284994Y-87143802D01*
X176284997Y-87143800D01*
X176290325Y-87141056D01*
X176370239Y-87078283D01*
X176450883Y-87014937D01*
X176450888Y-87014933D01*
X176455600Y-87011231D01*
X176459533Y-87006699D01*
X176589413Y-86857027D01*
X176589417Y-86857022D01*
X176593344Y-86852496D01*
X176698586Y-86670577D01*
X176731543Y-86575673D01*
X176765561Y-86477710D01*
X176765561Y-86477709D01*
X176767530Y-86472040D01*
X176768391Y-86466101D01*
X176796826Y-86269988D01*
X176796826Y-86269985D01*
X176797687Y-86264048D01*
X176793059Y-86164065D01*
X181069500Y-86164065D01*
X181069693Y-86166513D01*
X181069693Y-86166522D01*
X181069736Y-86167062D01*
X181084594Y-86355855D01*
X181085748Y-86360662D01*
X181085749Y-86360668D01*
X181113849Y-86477710D01*
X181144507Y-86605410D01*
X181146400Y-86609981D01*
X181146401Y-86609983D01*
X181234894Y-86823624D01*
X181242721Y-86842521D01*
X181376819Y-87061347D01*
X181380036Y-87065114D01*
X181380037Y-87065115D01*
X181490567Y-87194530D01*
X181543497Y-87256503D01*
X181547259Y-87259716D01*
X181733689Y-87418941D01*
X181738653Y-87423181D01*
X181957479Y-87557279D01*
X181962049Y-87559172D01*
X181962051Y-87559173D01*
X182190017Y-87653599D01*
X182194590Y-87655493D01*
X182281652Y-87676395D01*
X182439332Y-87714251D01*
X182439338Y-87714252D01*
X182444145Y-87715406D01*
X182700000Y-87735542D01*
X182955855Y-87715406D01*
X182960662Y-87714252D01*
X182960668Y-87714251D01*
X183118348Y-87676395D01*
X183205410Y-87655493D01*
X183209983Y-87653599D01*
X183437949Y-87559173D01*
X183437951Y-87559172D01*
X183442521Y-87557279D01*
X183661347Y-87423181D01*
X183666312Y-87418941D01*
X183852741Y-87259716D01*
X183856503Y-87256503D01*
X183909433Y-87194530D01*
X184019963Y-87065115D01*
X184019964Y-87065114D01*
X184023181Y-87061347D01*
X184157279Y-86842521D01*
X184165107Y-86823624D01*
X184253599Y-86609983D01*
X184253600Y-86609981D01*
X184255493Y-86605410D01*
X184286151Y-86477710D01*
X184314251Y-86360668D01*
X184314252Y-86360662D01*
X184315406Y-86355855D01*
X184330264Y-86167062D01*
X184330307Y-86166522D01*
X184330307Y-86166513D01*
X184330500Y-86164065D01*
X184330500Y-85935935D01*
X184315406Y-85744145D01*
X184314252Y-85739338D01*
X184314251Y-85739332D01*
X184256648Y-85499402D01*
X184255493Y-85494590D01*
X184253599Y-85490017D01*
X184159173Y-85262051D01*
X184159172Y-85262049D01*
X184157279Y-85257479D01*
X184023181Y-85038653D01*
X183856503Y-84843497D01*
X183737802Y-84742117D01*
X183665115Y-84680037D01*
X183665114Y-84680036D01*
X183661347Y-84676819D01*
X183442521Y-84542721D01*
X183437951Y-84540828D01*
X183437949Y-84540827D01*
X183209983Y-84446401D01*
X183209981Y-84446400D01*
X183205410Y-84444507D01*
X183118348Y-84423605D01*
X182960668Y-84385749D01*
X182960662Y-84385748D01*
X182955855Y-84384594D01*
X182700000Y-84364458D01*
X182444145Y-84384594D01*
X182439338Y-84385748D01*
X182439332Y-84385749D01*
X182281652Y-84423605D01*
X182194590Y-84444507D01*
X182190019Y-84446400D01*
X182190017Y-84446401D01*
X181962051Y-84540827D01*
X181962049Y-84540828D01*
X181957479Y-84542721D01*
X181738653Y-84676819D01*
X181734886Y-84680036D01*
X181734885Y-84680037D01*
X181662198Y-84742117D01*
X181543497Y-84843497D01*
X181376819Y-85038653D01*
X181242721Y-85257479D01*
X181240828Y-85262049D01*
X181240827Y-85262051D01*
X181146401Y-85490017D01*
X181144507Y-85494590D01*
X181143352Y-85499402D01*
X181085749Y-85739332D01*
X181085748Y-85739338D01*
X181084594Y-85744145D01*
X181069500Y-85935935D01*
X181069500Y-86164065D01*
X176793059Y-86164065D01*
X176787970Y-86054105D01*
X176742605Y-85865869D01*
X176740135Y-85855621D01*
X176740134Y-85855619D01*
X176738729Y-85849788D01*
X176736246Y-85844325D01*
X176654221Y-85663923D01*
X176651741Y-85658468D01*
X176530145Y-85487049D01*
X176419689Y-85381311D01*
X176382658Y-85345861D01*
X176382657Y-85345860D01*
X176378328Y-85341716D01*
X176201768Y-85227712D01*
X176141294Y-85203341D01*
X176012404Y-85151396D01*
X176012401Y-85151395D01*
X176006835Y-85149152D01*
X175903874Y-85129045D01*
X175805011Y-85109738D01*
X175805008Y-85109738D01*
X175800565Y-85108870D01*
X175795044Y-85108600D01*
X175764236Y-85108600D01*
X175696115Y-85088598D01*
X175649622Y-85034942D01*
X175639518Y-84964668D01*
X175672461Y-84896267D01*
X175770819Y-84791709D01*
X175786806Y-84774714D01*
X175928655Y-84570241D01*
X175932444Y-84564779D01*
X175932446Y-84564776D01*
X175935109Y-84560937D01*
X175945026Y-84540827D01*
X176048119Y-84331775D01*
X176048120Y-84331772D01*
X176050184Y-84327587D01*
X176065335Y-84280257D01*
X176121956Y-84103371D01*
X176129504Y-84079792D01*
X176171326Y-83822994D01*
X176174732Y-83562835D01*
X176139646Y-83305030D01*
X176124464Y-83252941D01*
X176068151Y-83059742D01*
X176068151Y-83059741D01*
X176066840Y-83055243D01*
X176064879Y-83050988D01*
X175986282Y-82880500D01*
X175957912Y-82818961D01*
X175951864Y-82809736D01*
X175817823Y-82605288D01*
X175817819Y-82605283D01*
X175815257Y-82601375D01*
X175654106Y-82420821D01*
X175645124Y-82410757D01*
X175645122Y-82410755D01*
X175642007Y-82407265D01*
X175441969Y-82240895D01*
X175219537Y-82105920D01*
X175215221Y-82104110D01*
X174983912Y-82007114D01*
X174983907Y-82007112D01*
X174979597Y-82005305D01*
X174975065Y-82004154D01*
X174975062Y-82004153D01*
X174849783Y-81972337D01*
X174727421Y-81941261D01*
X174511312Y-81919500D01*
X174356554Y-81919500D01*
X174354229Y-81919673D01*
X174354223Y-81919673D01*
X174167784Y-81933528D01*
X174167780Y-81933529D01*
X174163132Y-81933874D01*
X173909366Y-81991295D01*
X173905014Y-81992987D01*
X173905012Y-81992988D01*
X173671228Y-82083902D01*
X173671226Y-82083903D01*
X173666875Y-82085595D01*
X173662821Y-82087912D01*
X173662819Y-82087913D01*
X173627067Y-82108347D01*
X173440986Y-82214701D01*
X173236662Y-82375777D01*
X173058390Y-82565286D01*
X172910087Y-82779063D01*
X172908021Y-82783253D01*
X172908019Y-82783256D01*
X172797078Y-83008224D01*
X172795012Y-83012413D01*
X172715692Y-83260208D01*
X172708392Y-83305030D01*
X172675952Y-83504225D01*
X172673870Y-83517006D01*
X172670464Y-83777165D01*
X156961926Y-83777165D01*
X156964732Y-83562835D01*
X156929646Y-83305030D01*
X156914464Y-83252941D01*
X156858151Y-83059742D01*
X156858151Y-83059741D01*
X156856840Y-83055243D01*
X156854879Y-83050988D01*
X156776282Y-82880500D01*
X156747912Y-82818961D01*
X156741864Y-82809736D01*
X156607823Y-82605288D01*
X156607819Y-82605283D01*
X156605257Y-82601375D01*
X156444106Y-82420821D01*
X156435124Y-82410757D01*
X156435122Y-82410755D01*
X156432007Y-82407265D01*
X156231969Y-82240895D01*
X156009537Y-82105920D01*
X156005221Y-82104110D01*
X155773912Y-82007114D01*
X155773907Y-82007112D01*
X155769597Y-82005305D01*
X155765065Y-82004154D01*
X155765062Y-82004153D01*
X155639783Y-81972337D01*
X155517421Y-81941261D01*
X155301312Y-81919500D01*
X155146554Y-81919500D01*
X155144229Y-81919673D01*
X155144223Y-81919673D01*
X154957784Y-81933528D01*
X154957780Y-81933529D01*
X154953132Y-81933874D01*
X154699366Y-81991295D01*
X154695014Y-81992987D01*
X154695012Y-81992988D01*
X154461228Y-82083902D01*
X154461226Y-82083903D01*
X154456875Y-82085595D01*
X154452821Y-82087912D01*
X154452819Y-82087913D01*
X154417067Y-82108347D01*
X154230986Y-82214701D01*
X154026662Y-82375777D01*
X153848390Y-82565286D01*
X153700087Y-82779063D01*
X153698021Y-82783253D01*
X153698019Y-82783256D01*
X153587078Y-83008224D01*
X153585012Y-83012413D01*
X153505692Y-83260208D01*
X153498392Y-83305030D01*
X153465952Y-83504225D01*
X153463870Y-83517006D01*
X153460464Y-83777165D01*
X137761926Y-83777165D01*
X137764732Y-83562835D01*
X137729646Y-83305030D01*
X137714464Y-83252941D01*
X137658151Y-83059742D01*
X137658151Y-83059741D01*
X137656840Y-83055243D01*
X137654879Y-83050988D01*
X137576282Y-82880500D01*
X137547912Y-82818961D01*
X137541864Y-82809736D01*
X137407823Y-82605288D01*
X137407819Y-82605283D01*
X137405257Y-82601375D01*
X137244106Y-82420821D01*
X137235124Y-82410757D01*
X137235122Y-82410755D01*
X137232007Y-82407265D01*
X137031969Y-82240895D01*
X136809537Y-82105920D01*
X136805221Y-82104110D01*
X136573912Y-82007114D01*
X136573907Y-82007112D01*
X136569597Y-82005305D01*
X136565065Y-82004154D01*
X136565062Y-82004153D01*
X136439783Y-81972337D01*
X136317421Y-81941261D01*
X136101312Y-81919500D01*
X135946554Y-81919500D01*
X135944229Y-81919673D01*
X135944223Y-81919673D01*
X135757784Y-81933528D01*
X135757780Y-81933529D01*
X135753132Y-81933874D01*
X135499366Y-81991295D01*
X135495014Y-81992987D01*
X135495012Y-81992988D01*
X135261228Y-82083902D01*
X135261226Y-82083903D01*
X135256875Y-82085595D01*
X135252821Y-82087912D01*
X135252819Y-82087913D01*
X135217067Y-82108347D01*
X135030986Y-82214701D01*
X134826662Y-82375777D01*
X134648390Y-82565286D01*
X134500087Y-82779063D01*
X134498021Y-82783253D01*
X134498019Y-82783256D01*
X134387078Y-83008224D01*
X134385012Y-83012413D01*
X134305692Y-83260208D01*
X134298392Y-83305030D01*
X134265952Y-83504225D01*
X134263870Y-83517006D01*
X134260464Y-83777165D01*
X118581926Y-83777165D01*
X118584732Y-83562834D01*
X118549646Y-83305029D01*
X118476840Y-83055242D01*
X118457096Y-83012413D01*
X118396282Y-82880499D01*
X118367912Y-82818960D01*
X118365352Y-82815055D01*
X118365349Y-82815050D01*
X118227823Y-82605287D01*
X118227819Y-82605282D01*
X118225257Y-82601374D01*
X118052007Y-82407264D01*
X117851969Y-82240894D01*
X117629537Y-82105919D01*
X117625221Y-82104109D01*
X117393912Y-82007113D01*
X117393907Y-82007111D01*
X117389597Y-82005304D01*
X117385065Y-82004153D01*
X117385062Y-82004152D01*
X117259783Y-81972336D01*
X117137421Y-81941260D01*
X116921312Y-81919499D01*
X116766554Y-81919499D01*
X116764229Y-81919672D01*
X116764223Y-81919672D01*
X116577784Y-81933527D01*
X116577780Y-81933528D01*
X116573132Y-81933873D01*
X116319366Y-81991294D01*
X116315014Y-81992986D01*
X116315012Y-81992987D01*
X116081228Y-82083901D01*
X116081226Y-82083902D01*
X116076875Y-82085594D01*
X116072821Y-82087911D01*
X116072819Y-82087912D01*
X116041312Y-82105920D01*
X115850986Y-82214700D01*
X115646662Y-82375776D01*
X115468390Y-82565285D01*
X115377786Y-82695890D01*
X115322752Y-82775220D01*
X115322750Y-82775223D01*
X115320087Y-82779062D01*
X115318021Y-82783252D01*
X115318019Y-82783255D01*
X115270064Y-82880500D01*
X115205012Y-83012412D01*
X115203590Y-83016855D01*
X115203589Y-83016857D01*
X115165352Y-83136310D01*
X115125692Y-83260207D01*
X115083870Y-83517005D01*
X115080464Y-83777164D01*
X103066412Y-83777164D01*
X102892367Y-83660211D01*
X102586931Y-83502563D01*
X102265400Y-83381067D01*
X101932034Y-83297331D01*
X101788814Y-83278476D01*
X101594858Y-83252941D01*
X101594850Y-83252940D01*
X101591254Y-83252467D01*
X101448377Y-83250222D01*
X101251218Y-83247125D01*
X101251214Y-83247125D01*
X101247576Y-83247068D01*
X101243962Y-83247429D01*
X101243956Y-83247429D01*
X101002232Y-83271556D01*
X100905555Y-83281206D01*
X100569724Y-83354429D01*
X100566297Y-83355602D01*
X100566291Y-83355604D01*
X100488170Y-83382351D01*
X100244535Y-83465766D01*
X99934298Y-83613742D01*
X99643125Y-83796394D01*
X99640289Y-83798666D01*
X99640282Y-83798671D01*
X99431747Y-83965739D01*
X99374874Y-84011303D01*
X99372331Y-84013873D01*
X99372323Y-84013880D01*
X99251140Y-84136340D01*
X99133103Y-84255620D01*
X99130862Y-84258478D01*
X98990547Y-84437429D01*
X98921015Y-84526106D01*
X98741422Y-84819176D01*
X98739895Y-84822466D01*
X98739890Y-84822475D01*
X98619182Y-85082519D01*
X98596703Y-85130945D01*
X98595563Y-85134392D01*
X98489916Y-85453837D01*
X98489913Y-85453847D01*
X98488777Y-85457283D01*
X98488041Y-85460838D01*
X98488040Y-85460841D01*
X98428349Y-85749079D01*
X98419075Y-85793862D01*
X98388520Y-86136222D01*
X97877566Y-86136222D01*
X97876126Y-81237164D01*
X108730464Y-81237164D01*
X108765550Y-81494969D01*
X108838356Y-81744756D01*
X108840316Y-81749009D01*
X108840317Y-81749010D01*
X108856052Y-81783141D01*
X108947284Y-81981038D01*
X108949844Y-81984943D01*
X108949847Y-81984948D01*
X109087373Y-82194711D01*
X109087374Y-82194712D01*
X109089939Y-82198624D01*
X109130335Y-82243884D01*
X109251091Y-82379179D01*
X109263189Y-82392734D01*
X109463227Y-82559104D01*
X109685659Y-82694079D01*
X109689973Y-82695888D01*
X109689975Y-82695889D01*
X109921284Y-82792885D01*
X109921287Y-82792886D01*
X109925599Y-82794694D01*
X109930131Y-82795845D01*
X109930134Y-82795846D01*
X110021147Y-82818960D01*
X110177775Y-82858738D01*
X110393884Y-82880499D01*
X110548642Y-82880499D01*
X110550967Y-82880326D01*
X110550973Y-82880326D01*
X110737412Y-82866471D01*
X110737416Y-82866470D01*
X110742064Y-82866125D01*
X110995830Y-82808704D01*
X111028892Y-82795847D01*
X111233968Y-82716097D01*
X111233970Y-82716096D01*
X111238321Y-82714404D01*
X111273883Y-82694079D01*
X111321636Y-82666785D01*
X111464210Y-82585298D01*
X111668534Y-82424222D01*
X111846806Y-82234713D01*
X111995109Y-82020936D01*
X112001926Y-82007113D01*
X112108119Y-81791774D01*
X112108120Y-81791771D01*
X112110184Y-81787586D01*
X112189504Y-81539791D01*
X112231326Y-81282993D01*
X112231926Y-81237165D01*
X127910464Y-81237165D01*
X127945550Y-81494970D01*
X128018356Y-81744757D01*
X128020316Y-81749010D01*
X128020317Y-81749011D01*
X128038101Y-81787587D01*
X128127284Y-81981039D01*
X128129844Y-81984944D01*
X128129847Y-81984949D01*
X128267373Y-82194712D01*
X128267377Y-82194717D01*
X128269939Y-82198625D01*
X128443189Y-82392735D01*
X128643227Y-82559105D01*
X128865659Y-82694080D01*
X128869973Y-82695889D01*
X128869975Y-82695890D01*
X129101284Y-82792886D01*
X129101289Y-82792888D01*
X129105599Y-82794695D01*
X129110131Y-82795846D01*
X129110134Y-82795847D01*
X129201143Y-82818960D01*
X129357775Y-82858739D01*
X129573884Y-82880500D01*
X129728642Y-82880500D01*
X129730967Y-82880327D01*
X129730973Y-82880327D01*
X129917412Y-82866472D01*
X129917416Y-82866471D01*
X129922064Y-82866126D01*
X130175830Y-82808705D01*
X130180184Y-82807012D01*
X130413968Y-82716098D01*
X130413970Y-82716097D01*
X130418321Y-82714405D01*
X130422379Y-82712086D01*
X130609238Y-82605287D01*
X130644210Y-82585299D01*
X130848534Y-82424223D01*
X131026806Y-82234714D01*
X131172445Y-82024778D01*
X131172446Y-82024776D01*
X131175109Y-82020937D01*
X131182818Y-82005305D01*
X131288119Y-81791775D01*
X131288120Y-81791772D01*
X131290184Y-81787587D01*
X131305335Y-81740257D01*
X131368081Y-81544237D01*
X131368081Y-81544236D01*
X131369504Y-81539792D01*
X131411326Y-81282994D01*
X131411926Y-81237165D01*
X147110464Y-81237165D01*
X147145550Y-81494970D01*
X147218356Y-81744757D01*
X147220316Y-81749010D01*
X147220317Y-81749011D01*
X147238101Y-81787587D01*
X147327284Y-81981039D01*
X147329844Y-81984944D01*
X147329847Y-81984949D01*
X147467373Y-82194712D01*
X147467377Y-82194717D01*
X147469939Y-82198625D01*
X147643189Y-82392735D01*
X147843227Y-82559105D01*
X148065659Y-82694080D01*
X148069973Y-82695889D01*
X148069975Y-82695890D01*
X148301284Y-82792886D01*
X148301289Y-82792888D01*
X148305599Y-82794695D01*
X148310131Y-82795846D01*
X148310134Y-82795847D01*
X148401143Y-82818960D01*
X148557775Y-82858739D01*
X148773884Y-82880500D01*
X148928642Y-82880500D01*
X148930967Y-82880327D01*
X148930973Y-82880327D01*
X149117412Y-82866472D01*
X149117416Y-82866471D01*
X149122064Y-82866126D01*
X149375830Y-82808705D01*
X149380184Y-82807012D01*
X149613968Y-82716098D01*
X149613970Y-82716097D01*
X149618321Y-82714405D01*
X149622379Y-82712086D01*
X149809238Y-82605287D01*
X149844210Y-82585299D01*
X150048534Y-82424223D01*
X150226806Y-82234714D01*
X150372445Y-82024778D01*
X150372446Y-82024776D01*
X150375109Y-82020937D01*
X150382818Y-82005305D01*
X150488119Y-81791775D01*
X150488120Y-81791772D01*
X150490184Y-81787587D01*
X150505335Y-81740257D01*
X150568081Y-81544237D01*
X150568081Y-81544236D01*
X150569504Y-81539792D01*
X150611326Y-81282994D01*
X150611926Y-81237165D01*
X166320464Y-81237165D01*
X166355550Y-81494970D01*
X166428356Y-81744757D01*
X166430316Y-81749010D01*
X166430317Y-81749011D01*
X166448101Y-81787587D01*
X166537284Y-81981039D01*
X166539844Y-81984944D01*
X166539847Y-81984949D01*
X166677373Y-82194712D01*
X166677377Y-82194717D01*
X166679939Y-82198625D01*
X166853189Y-82392735D01*
X167053227Y-82559105D01*
X167275659Y-82694080D01*
X167279973Y-82695889D01*
X167279975Y-82695890D01*
X167511284Y-82792886D01*
X167511289Y-82792888D01*
X167515599Y-82794695D01*
X167520131Y-82795846D01*
X167520134Y-82795847D01*
X167611143Y-82818960D01*
X167767775Y-82858739D01*
X167983884Y-82880500D01*
X168138642Y-82880500D01*
X168140967Y-82880327D01*
X168140973Y-82880327D01*
X168327412Y-82866472D01*
X168327416Y-82866471D01*
X168332064Y-82866126D01*
X168585830Y-82808705D01*
X168590184Y-82807012D01*
X168823968Y-82716098D01*
X168823970Y-82716097D01*
X168828321Y-82714405D01*
X168832379Y-82712086D01*
X169019238Y-82605287D01*
X169054210Y-82585299D01*
X169258534Y-82424223D01*
X169436806Y-82234714D01*
X169582445Y-82024778D01*
X169582446Y-82024776D01*
X169585109Y-82020937D01*
X169592818Y-82005305D01*
X169698119Y-81791775D01*
X169698120Y-81791772D01*
X169700184Y-81787587D01*
X169715335Y-81740257D01*
X169778081Y-81544237D01*
X169778081Y-81544236D01*
X169779504Y-81539792D01*
X169821326Y-81282994D01*
X169824732Y-81022835D01*
X169789646Y-80765030D01*
X169716840Y-80515243D01*
X169714879Y-80510988D01*
X169628847Y-80324372D01*
X169607912Y-80278961D01*
X169605348Y-80275050D01*
X169496335Y-80108777D01*
X186105777Y-80108777D01*
X186115074Y-80120793D01*
X186158069Y-80150898D01*
X186167555Y-80156376D01*
X186358993Y-80245645D01*
X186369285Y-80249391D01*
X186573309Y-80304059D01*
X186584104Y-80305962D01*
X186794525Y-80324372D01*
X186805475Y-80324372D01*
X187015896Y-80305962D01*
X187026691Y-80304059D01*
X187230715Y-80249391D01*
X187241007Y-80245645D01*
X187432445Y-80156376D01*
X187441931Y-80150898D01*
X187485764Y-80120207D01*
X187494139Y-80109729D01*
X187487071Y-80096281D01*
X186812812Y-79422022D01*
X186798868Y-79414408D01*
X186797035Y-79414539D01*
X186790420Y-79418790D01*
X186112207Y-80097003D01*
X186105777Y-80108777D01*
X169496335Y-80108777D01*
X169467823Y-80065288D01*
X169467819Y-80065283D01*
X169465257Y-80061375D01*
X169299366Y-79875510D01*
X169295124Y-79870757D01*
X169295122Y-79870755D01*
X169292007Y-79867265D01*
X169091969Y-79700895D01*
X168869537Y-79565920D01*
X168865221Y-79564110D01*
X168633912Y-79467114D01*
X168633907Y-79467112D01*
X168629597Y-79465305D01*
X168625065Y-79464154D01*
X168625062Y-79464153D01*
X168499783Y-79432337D01*
X168377421Y-79401261D01*
X168161312Y-79379500D01*
X168006554Y-79379500D01*
X168004229Y-79379673D01*
X168004223Y-79379673D01*
X167817784Y-79393528D01*
X167817780Y-79393529D01*
X167813132Y-79393874D01*
X167559366Y-79451295D01*
X167555014Y-79452987D01*
X167555012Y-79452988D01*
X167321228Y-79543902D01*
X167321226Y-79543903D01*
X167316875Y-79545595D01*
X167312821Y-79547912D01*
X167312819Y-79547913D01*
X167277067Y-79568347D01*
X167090986Y-79674701D01*
X166886662Y-79835777D01*
X166708390Y-80025286D01*
X166560087Y-80239063D01*
X166558021Y-80243253D01*
X166558019Y-80243256D01*
X166447078Y-80468224D01*
X166445012Y-80472413D01*
X166365692Y-80720208D01*
X166323870Y-80977006D01*
X166320464Y-81237165D01*
X150611926Y-81237165D01*
X150614732Y-81022835D01*
X150579646Y-80765030D01*
X150506840Y-80515243D01*
X150504879Y-80510988D01*
X150418847Y-80324372D01*
X150397912Y-80278961D01*
X150395348Y-80275050D01*
X150257823Y-80065288D01*
X150257819Y-80065283D01*
X150255257Y-80061375D01*
X150089366Y-79875510D01*
X150085124Y-79870757D01*
X150085122Y-79870755D01*
X150082007Y-79867265D01*
X149881969Y-79700895D01*
X149659537Y-79565920D01*
X149655221Y-79564110D01*
X149423912Y-79467114D01*
X149423907Y-79467112D01*
X149419597Y-79465305D01*
X149415065Y-79464154D01*
X149415062Y-79464153D01*
X149289783Y-79432337D01*
X149167421Y-79401261D01*
X148951312Y-79379500D01*
X148796554Y-79379500D01*
X148794229Y-79379673D01*
X148794223Y-79379673D01*
X148607784Y-79393528D01*
X148607780Y-79393529D01*
X148603132Y-79393874D01*
X148349366Y-79451295D01*
X148345014Y-79452987D01*
X148345012Y-79452988D01*
X148111228Y-79543902D01*
X148111226Y-79543903D01*
X148106875Y-79545595D01*
X148102821Y-79547912D01*
X148102819Y-79547913D01*
X148067067Y-79568347D01*
X147880986Y-79674701D01*
X147676662Y-79835777D01*
X147498390Y-80025286D01*
X147350087Y-80239063D01*
X147348021Y-80243253D01*
X147348019Y-80243256D01*
X147237078Y-80468224D01*
X147235012Y-80472413D01*
X147155692Y-80720208D01*
X147113870Y-80977006D01*
X147110464Y-81237165D01*
X131411926Y-81237165D01*
X131414732Y-81022835D01*
X131379646Y-80765030D01*
X131306840Y-80515243D01*
X131304879Y-80510988D01*
X131218847Y-80324372D01*
X131197912Y-80278961D01*
X131195348Y-80275050D01*
X131057823Y-80065288D01*
X131057819Y-80065283D01*
X131055257Y-80061375D01*
X130889366Y-79875510D01*
X130885124Y-79870757D01*
X130885122Y-79870755D01*
X130882007Y-79867265D01*
X130681969Y-79700895D01*
X130459537Y-79565920D01*
X130455221Y-79564110D01*
X130223912Y-79467114D01*
X130223907Y-79467112D01*
X130219597Y-79465305D01*
X130215065Y-79464154D01*
X130215062Y-79464153D01*
X130089783Y-79432337D01*
X129967421Y-79401261D01*
X129751312Y-79379500D01*
X129596554Y-79379500D01*
X129594229Y-79379673D01*
X129594223Y-79379673D01*
X129407784Y-79393528D01*
X129407780Y-79393529D01*
X129403132Y-79393874D01*
X129149366Y-79451295D01*
X129145014Y-79452987D01*
X129145012Y-79452988D01*
X128911228Y-79543902D01*
X128911226Y-79543903D01*
X128906875Y-79545595D01*
X128902821Y-79547912D01*
X128902819Y-79547913D01*
X128867067Y-79568347D01*
X128680986Y-79674701D01*
X128476662Y-79835777D01*
X128298390Y-80025286D01*
X128150087Y-80239063D01*
X128148021Y-80243253D01*
X128148019Y-80243256D01*
X128037078Y-80468224D01*
X128035012Y-80472413D01*
X127955692Y-80720208D01*
X127913870Y-80977006D01*
X127910464Y-81237165D01*
X112231926Y-81237165D01*
X112234732Y-81022834D01*
X112199646Y-80765029D01*
X112126840Y-80515242D01*
X112107096Y-80472413D01*
X112030360Y-80305962D01*
X112017912Y-80278960D01*
X112015352Y-80275055D01*
X112015349Y-80275050D01*
X111877823Y-80065287D01*
X111877819Y-80065282D01*
X111875257Y-80061374D01*
X111702007Y-79867264D01*
X111501969Y-79700894D01*
X111279537Y-79565919D01*
X111275221Y-79564109D01*
X111043912Y-79467113D01*
X111043907Y-79467111D01*
X111039597Y-79465304D01*
X111035065Y-79464153D01*
X111035062Y-79464152D01*
X110856446Y-79418790D01*
X110787421Y-79401260D01*
X110571312Y-79379499D01*
X110416554Y-79379499D01*
X110414229Y-79379672D01*
X110414223Y-79379672D01*
X110227784Y-79393527D01*
X110227780Y-79393528D01*
X110223132Y-79393873D01*
X109969366Y-79451294D01*
X109965014Y-79452986D01*
X109965012Y-79452987D01*
X109731228Y-79543901D01*
X109731226Y-79543902D01*
X109726875Y-79545594D01*
X109722821Y-79547911D01*
X109722819Y-79547912D01*
X109691312Y-79565920D01*
X109500986Y-79674700D01*
X109296662Y-79835776D01*
X109118390Y-80025285D01*
X109031249Y-80150898D01*
X108972752Y-80235220D01*
X108972750Y-80235223D01*
X108970087Y-80239062D01*
X108968021Y-80243252D01*
X108968019Y-80243255D01*
X108937096Y-80305962D01*
X108855012Y-80472412D01*
X108853590Y-80476855D01*
X108853589Y-80476857D01*
X108815352Y-80596309D01*
X108775692Y-80720207D01*
X108733870Y-80977005D01*
X108730464Y-81237164D01*
X97876126Y-81237164D01*
X97875484Y-79055475D01*
X185525628Y-79055475D01*
X185544038Y-79265896D01*
X185545941Y-79276691D01*
X185600609Y-79480715D01*
X185604355Y-79491007D01*
X185693623Y-79682441D01*
X185699103Y-79691932D01*
X185729794Y-79735765D01*
X185740271Y-79744140D01*
X185753718Y-79737072D01*
X186427978Y-79062812D01*
X186434356Y-79051132D01*
X187164408Y-79051132D01*
X187164539Y-79052965D01*
X187168790Y-79059580D01*
X187847003Y-79737793D01*
X187858777Y-79744223D01*
X187870793Y-79734926D01*
X187900897Y-79691932D01*
X187906377Y-79682441D01*
X187995645Y-79491007D01*
X187999391Y-79480715D01*
X188054059Y-79276691D01*
X188055962Y-79265896D01*
X188074372Y-79055475D01*
X188074372Y-79044525D01*
X188055962Y-78834104D01*
X188054059Y-78823309D01*
X187999391Y-78619285D01*
X187995645Y-78608993D01*
X187906377Y-78417559D01*
X187900897Y-78408068D01*
X187870206Y-78364235D01*
X187859729Y-78355860D01*
X187846282Y-78362928D01*
X187172022Y-79037188D01*
X187164408Y-79051132D01*
X186434356Y-79051132D01*
X186435592Y-79048868D01*
X186435461Y-79047035D01*
X186431210Y-79040420D01*
X185752997Y-78362207D01*
X185741223Y-78355777D01*
X185729207Y-78365074D01*
X185699103Y-78408068D01*
X185693623Y-78417559D01*
X185604355Y-78608993D01*
X185600609Y-78619285D01*
X185545941Y-78823309D01*
X185544038Y-78834104D01*
X185525628Y-79044525D01*
X185525628Y-79055475D01*
X97875484Y-79055475D01*
X97875171Y-77990271D01*
X186105860Y-77990271D01*
X186112928Y-78003718D01*
X186787188Y-78677978D01*
X186801132Y-78685592D01*
X186802965Y-78685461D01*
X186809580Y-78681210D01*
X187487793Y-78002997D01*
X187494223Y-77991223D01*
X187484926Y-77979207D01*
X187441931Y-77949102D01*
X187432445Y-77943624D01*
X187241007Y-77854355D01*
X187230715Y-77850609D01*
X187026691Y-77795941D01*
X187015896Y-77794038D01*
X186805475Y-77775628D01*
X186794525Y-77775628D01*
X186584104Y-77794038D01*
X186573309Y-77795941D01*
X186369285Y-77850609D01*
X186358993Y-77854355D01*
X186167559Y-77943623D01*
X186158068Y-77949103D01*
X186114235Y-77979794D01*
X186105860Y-77990271D01*
X97875171Y-77990271D01*
X97873598Y-72640611D01*
X97873598Y-71214119D01*
X97873868Y-71205878D01*
X97875497Y-71181030D01*
X97884541Y-71043038D01*
X97884588Y-71042354D01*
X97891011Y-70952550D01*
X97893111Y-70936958D01*
X97921472Y-70794378D01*
X97921930Y-70792177D01*
X97945416Y-70684210D01*
X97949223Y-70670495D01*
X97994666Y-70536625D01*
X97995921Y-70533099D01*
X98035895Y-70425925D01*
X98040945Y-70414230D01*
X98102756Y-70288889D01*
X98105174Y-70284232D01*
X98160719Y-70182508D01*
X98166537Y-70172899D01*
X98243766Y-70057318D01*
X98247663Y-70051811D01*
X98317506Y-69958512D01*
X98323642Y-69950944D01*
X98415076Y-69846683D01*
X98420712Y-69840665D01*
X98503259Y-69758117D01*
X98509278Y-69752480D01*
X98613549Y-69661037D01*
X98621117Y-69654901D01*
X98621124Y-69654896D01*
X98714428Y-69585049D01*
X98719906Y-69581174D01*
X98760469Y-69554071D01*
X98835491Y-69503943D01*
X98845106Y-69498121D01*
X98894521Y-69471138D01*
X98946850Y-69442564D01*
X98951475Y-69440163D01*
X99009041Y-69411775D01*
X99076829Y-69378346D01*
X99088523Y-69373297D01*
X99195696Y-69333323D01*
X99199228Y-69332065D01*
X99333096Y-69286623D01*
X99346813Y-69282816D01*
X99454747Y-69259336D01*
X99456903Y-69258887D01*
X99542242Y-69241911D01*
X99566772Y-69239492D01*
X99992563Y-69239364D01*
X194537648Y-69211000D01*
X195868480Y-69211000D01*
X195876721Y-69211270D01*
G37*
G04 #@! TD.AperFunction*
M02*
