M48
; DRILL file {KiCad 6.0.11-2627ca5db0~126~ubuntu22.04.1} date Sun 05 May 2024 05:07:32 PM
; FORMAT={-:-/ absolute / metric / decimal}
; #@! TF.CreationDate,2024-05-05T17:07:32-04:00
; #@! TF.GenerationSoftware,Kicad,Pcbnew,6.0.11-2627ca5db0~126~ubuntu22.04.1
; #@! TF.FileFunction,Plated,1,2,PTH
FMAT,2
METRIC
; #@! TA.AperFunction,Plated,PTH,ViaDrill
T1C0.400
; #@! TA.AperFunction,Plated,PTH,ComponentDrill
T2C1.000
; #@! TA.AperFunction,Plated,PTH,ComponentDrill
T3C2.100
; #@! TA.AperFunction,Plated,PTH,ComponentDrill
T4C3.200
%
G90
G05
T1
X120.583Y-85.81
X139.813Y-85.81
X153.517Y-98.665
X154.673Y-99.989
X158.073Y-97.41
X158.923Y-92.99
X159.003Y-85.86
X164.173Y-97.21
X164.273Y-91.91
X164.273Y-92.91
X164.273Y-93.91
X165.973Y-98.81
X167.073Y-98.81
X168.453Y-94.63
X169.073Y-98.71
X171.173Y-99.01
X171.173Y-100.41
X178.213Y-85.7
T2
X185.973Y-79.16
X185.973Y-93.66
X188.473Y-93.66
X190.973Y-79.16
X190.973Y-93.66
T4
X101.373Y-86.23
X194.373Y-99.74
T3
X181.873Y-86.11G85X181.873Y-86.21
G05
X195.073Y-86.11G85X195.073Y-86.21
G05
T0
M30
