M48
; DRILL file {KiCad 6.0.11-2627ca5db0~126~ubuntu22.04.1} date Sun 05 May 2024 03:56:38 PM
; FORMAT={-:-/ absolute / metric / decimal}
; #@! TF.CreationDate,2024-05-05T15:56:38-04:00
; #@! TF.GenerationSoftware,Kicad,Pcbnew,6.0.11-2627ca5db0~126~ubuntu22.04.1
; #@! TF.FileFunction,Plated,1,2,PTH
FMAT,2
METRIC
; #@! TA.AperFunction,Plated,PTH,ViaDrill
T1C0.400
; #@! TA.AperFunction,Plated,PTH,ComponentDrill
T2C0.600
; #@! TA.AperFunction,Plated,PTH,ComponentDrill
T3C1.000
; #@! TA.AperFunction,Plated,PTH,ComponentDrill
T4C1.020
; #@! TA.AperFunction,Plated,PTH,ComponentDrill
T5C1.520
; #@! TA.AperFunction,Plated,PTH,ComponentDrill
T6C3.200
%
G90
G05
T1
X100.66Y-70.875
X101.375Y-60.86
X101.385Y-59.7
X101.39Y-61.865
X101.395Y-62.9
X101.4Y-67.475
X103.675Y-63.99
X106.275Y-89.19
X107.85Y-86.45
X107.875Y-87.89
X108.215Y-67.89
X108.475Y-61.49
X108.875Y-64.721
X109.345Y-79.97
X109.375Y-75.88
X110.275Y-88.29
X110.655Y-83.38
X111.975Y-60.49
X112.375Y-80.09
X112.465Y-78.19
X113.115Y-74.29
X113.125Y-75.27
X113.125Y-76.28
X114.475Y-87.99
X115.805Y-66.21
X117.175Y-71.79
X117.305Y-86.76
X117.465Y-66.98
X117.684Y-79.4
X117.705Y-80.5
X118.565Y-85.21
X118.985Y-66.99
X118.995Y-62.9
X119.035Y-79.42
X119.045Y-77.53
X119.685Y-83.36
X119.925Y-69.15
X121.065Y-77.51
X121.165Y-79.48
X121.425Y-68.4
X121.425Y-71.279
X121.875Y-85.89
X122.451Y-76.012
X122.525Y-79.43
X122.765Y-69.84
X122.775Y-71.31
X123.695Y-72.49
X124.005Y-83.25
X125.145Y-61.27
X127.425Y-77.9
X127.45Y-80.825
X127.455Y-78.94
X127.512Y-66.312
X128.3Y-74.3
X128.795Y-77.195
X129.4Y-74.3
X129.945Y-87.12
X130.675Y-81.95
X131.275Y-61.34
X132.605Y-77.14
X132.725Y-81.95
X136.405Y-78.01
X138.63Y-77.37
X140.489Y-77.62
X140.68Y-87.565
X141.091Y-76.191
X143.805Y-75.06
X143.815Y-76.84
X144.375Y-78.36
X145.925Y-83.65
X146.845Y-69.79
X147.115Y-80.78
X147.65Y-59.85
X147.685Y-73.98
X147.785Y-69.79
X148.555Y-74.01
X149.925Y-85.15
X151.675Y-84.97
X153.132Y-77.692
X153.675Y-83.65
X154.322Y-77.692
X154.85Y-87.4
X156.215Y-76.22
X157.427Y-74.652
X157.765Y-84.04
X157.875Y-81.19
X158.175Y-72.69
X160.75Y-87.45
X161.025Y-75.0
X162.865Y-79.2
X163.295Y-74.94
X166.455Y-83.65
T3
X169.725Y-86.925
X169.725Y-89.465
X172.265Y-86.925
X172.265Y-89.465
T4
X163.855Y-67.52
X163.855Y-82.51
T5
X192.275Y-62.65
X192.275Y-67.73
T6
X100.5Y-88.507
X193.5Y-75.007
T2
X100.54Y-75.0G85X99.74Y-75.0
G05
X100.54Y-83.64G85X99.74Y-83.64
G05
X104.89Y-75.0G85X103.79Y-75.0
G05
X104.89Y-83.64G85X103.79Y-83.64
G05
T0
M30
