G04 #@! TF.GenerationSoftware,KiCad,Pcbnew,6.0.11-2627ca5db0~126~ubuntu22.04.1*
G04 #@! TF.CreationDate,2024-05-05T15:56:36-04:00*
G04 #@! TF.ProjectId,board,626f6172-642e-46b6-9963-61645f706362,rev?*
G04 #@! TF.SameCoordinates,Original*
G04 #@! TF.FileFunction,Legend,Top*
G04 #@! TF.FilePolarity,Positive*
%FSLAX46Y46*%
G04 Gerber Fmt 4.6, Leading zero omitted, Abs format (unit mm)*
G04 Created by KiCad (PCBNEW 6.0.11-2627ca5db0~126~ubuntu22.04.1) date 2024-05-05 15:56:36*
%MOMM*%
%LPD*%
G01*
G04 APERTURE LIST*
G04 Aperture macros list*
%AMRoundRect*
0 Rectangle with rounded corners*
0 $1 Rounding radius*
0 $2 $3 $4 $5 $6 $7 $8 $9 X,Y pos of 4 corners*
0 Add a 4 corners polygon primitive as box body*
4,1,4,$2,$3,$4,$5,$6,$7,$8,$9,$2,$3,0*
0 Add four circle primitives for the rounded corners*
1,1,$1+$1,$2,$3*
1,1,$1+$1,$4,$5*
1,1,$1+$1,$6,$7*
1,1,$1+$1,$8,$9*
0 Add four rect primitives between the rounded corners*
20,1,$1+$1,$2,$3,$4,$5,0*
20,1,$1+$1,$4,$5,$6,$7,0*
20,1,$1+$1,$6,$7,$8,$9,0*
20,1,$1+$1,$8,$9,$2,$3,0*%
G04 Aperture macros list end*
%ADD10C,0.300000*%
%ADD11C,0.150000*%
%ADD12C,0.120000*%
%ADD13R,0.900000X1.200000*%
%ADD14RoundRect,0.225000X0.250000X-0.225000X0.250000X0.225000X-0.250000X0.225000X-0.250000X-0.225000X0*%
%ADD15RoundRect,0.200000X0.275000X-0.200000X0.275000X0.200000X-0.275000X0.200000X-0.275000X-0.200000X0*%
%ADD16RoundRect,0.140000X0.140000X0.170000X-0.140000X0.170000X-0.140000X-0.170000X0.140000X-0.170000X0*%
%ADD17RoundRect,0.200000X-0.275000X0.200000X-0.275000X-0.200000X0.275000X-0.200000X0.275000X0.200000X0*%
%ADD18RoundRect,0.150000X0.512500X0.150000X-0.512500X0.150000X-0.512500X-0.150000X0.512500X-0.150000X0*%
%ADD19RoundRect,0.225000X-0.250000X0.225000X-0.250000X-0.225000X0.250000X-0.225000X0.250000X0.225000X0*%
%ADD20R,3.000000X3.000000*%
%ADD21C,3.000000*%
%ADD22R,0.360000X0.250000*%
%ADD23R,0.510000X0.700000*%
%ADD24RoundRect,0.140000X-0.140000X-0.170000X0.140000X-0.170000X0.140000X0.170000X-0.140000X0.170000X0*%
%ADD25RoundRect,0.200000X0.200000X0.275000X-0.200000X0.275000X-0.200000X-0.275000X0.200000X-0.275000X0*%
%ADD26C,5.600000*%
%ADD27RoundRect,0.225000X-0.225000X-0.250000X0.225000X-0.250000X0.225000X0.250000X-0.225000X0.250000X0*%
%ADD28RoundRect,0.200000X-0.200000X-0.275000X0.200000X-0.275000X0.200000X0.275000X-0.200000X0.275000X0*%
%ADD29RoundRect,0.050000X0.050000X-0.387500X0.050000X0.387500X-0.050000X0.387500X-0.050000X-0.387500X0*%
%ADD30RoundRect,0.050000X0.387500X-0.050000X0.387500X0.050000X-0.387500X0.050000X-0.387500X-0.050000X0*%
%ADD31R,3.200000X3.200000*%
%ADD32R,1.100000X0.850000*%
%ADD33R,1.100000X0.750000*%
%ADD34R,1.000000X1.200000*%
%ADD35R,1.350000X1.900000*%
%ADD36R,1.800000X1.170000*%
%ADD37R,1.350000X1.550000*%
%ADD38RoundRect,0.062500X-0.375000X-0.062500X0.375000X-0.062500X0.375000X0.062500X-0.375000X0.062500X0*%
%ADD39RoundRect,0.062500X-0.062500X-0.375000X0.062500X-0.375000X0.062500X0.375000X-0.062500X0.375000X0*%
%ADD40R,1.600000X1.600000*%
%ADD41RoundRect,0.243750X-0.243750X-0.456250X0.243750X-0.456250X0.243750X0.456250X-0.243750X0.456250X0*%
%ADD42RoundRect,0.140000X0.170000X-0.140000X0.170000X0.140000X-0.170000X0.140000X-0.170000X-0.140000X0*%
%ADD43C,0.650000*%
%ADD44R,1.240000X0.600000*%
%ADD45R,1.240000X0.300000*%
%ADD46O,2.100000X1.000000*%
%ADD47O,1.800000X1.000000*%
%ADD48R,0.500000X0.250000*%
%ADD49R,0.900000X1.600000*%
%ADD50RoundRect,0.225000X0.225000X0.250000X-0.225000X0.250000X-0.225000X-0.250000X0.225000X-0.250000X0*%
%ADD51R,2.500000X1.900000*%
%ADD52RoundRect,0.150000X0.650000X0.150000X-0.650000X0.150000X-0.650000X-0.150000X0.650000X-0.150000X0*%
%ADD53R,1.800000X1.100000*%
%ADD54R,1.700000X1.700000*%
%ADD55O,1.700000X1.700000*%
%ADD56RoundRect,0.250000X-0.250000X-2.500000X0.250000X-2.500000X0.250000X2.500000X-0.250000X2.500000X0*%
%ADD57RoundRect,0.250000X-0.550000X-1.250000X0.550000X-1.250000X0.550000X1.250000X-0.550000X1.250000X0*%
%ADD58RoundRect,0.250000X-0.262500X-0.450000X0.262500X-0.450000X0.262500X0.450000X-0.262500X0.450000X0*%
%ADD59R,1.400000X1.200000*%
%ADD60RoundRect,0.150000X0.150000X-0.587500X0.150000X0.587500X-0.150000X0.587500X-0.150000X-0.587500X0*%
%ADD61C,3.300000*%
%ADD62R,2.000000X2.000000*%
%ADD63C,2.000000*%
G04 APERTURE END LIST*
D10*
X139815000Y-67490000D02*
G75*
G03*
X139815000Y-67490000I-3110016J0D01*
G01*
X139705000Y-82490000D02*
G75*
G03*
X139705000Y-82490000I-3040075J0D01*
G01*
D11*
X174233333Y-90052380D02*
X174233333Y-89052380D01*
X174614285Y-89052380D01*
X174709523Y-89100000D01*
X174757142Y-89147619D01*
X174804761Y-89242857D01*
X174804761Y-89385714D01*
X174757142Y-89480952D01*
X174709523Y-89528571D01*
X174614285Y-89576190D01*
X174233333Y-89576190D01*
X175423809Y-89052380D02*
X175614285Y-89052380D01*
X175709523Y-89100000D01*
X175804761Y-89195238D01*
X175852380Y-89385714D01*
X175852380Y-89719047D01*
X175804761Y-89909523D01*
X175709523Y-90004761D01*
X175614285Y-90052380D01*
X175423809Y-90052380D01*
X175328571Y-90004761D01*
X175233333Y-89909523D01*
X175185714Y-89719047D01*
X175185714Y-89385714D01*
X175233333Y-89195238D01*
X175328571Y-89100000D01*
X175423809Y-89052380D01*
X176185714Y-89052380D02*
X176423809Y-90052380D01*
X176614285Y-89338095D01*
X176804761Y-90052380D01*
X177042857Y-89052380D01*
X177423809Y-89528571D02*
X177757142Y-89528571D01*
X177900000Y-90052380D02*
X177423809Y-90052380D01*
X177423809Y-89052380D01*
X177900000Y-89052380D01*
X178900000Y-90052380D02*
X178566666Y-89576190D01*
X178328571Y-90052380D02*
X178328571Y-89052380D01*
X178709523Y-89052380D01*
X178804761Y-89100000D01*
X178852380Y-89147619D01*
X178900000Y-89242857D01*
X178900000Y-89385714D01*
X178852380Y-89480952D01*
X178804761Y-89528571D01*
X178709523Y-89576190D01*
X178328571Y-89576190D01*
X179090476Y-90147619D02*
X179852380Y-90147619D01*
X180090476Y-89528571D02*
X180423809Y-89528571D01*
X180566666Y-90052380D02*
X180090476Y-90052380D01*
X180090476Y-89052380D01*
X180566666Y-89052380D01*
X180995238Y-90052380D02*
X180995238Y-89052380D01*
X181566666Y-90052380D01*
X181566666Y-89052380D01*
X174252380Y-87104761D02*
X174395238Y-87152380D01*
X174633333Y-87152380D01*
X174728571Y-87104761D01*
X174776190Y-87057142D01*
X174823809Y-86961904D01*
X174823809Y-86866666D01*
X174776190Y-86771428D01*
X174728571Y-86723809D01*
X174633333Y-86676190D01*
X174442857Y-86628571D01*
X174347619Y-86580952D01*
X174300000Y-86533333D01*
X174252380Y-86438095D01*
X174252380Y-86342857D01*
X174300000Y-86247619D01*
X174347619Y-86200000D01*
X174442857Y-86152380D01*
X174680952Y-86152380D01*
X174823809Y-86200000D01*
X175157142Y-86152380D02*
X175395238Y-87152380D01*
X175585714Y-86438095D01*
X175776190Y-87152380D01*
X176014285Y-86152380D01*
X176966666Y-87057142D02*
X176919047Y-87104761D01*
X176776190Y-87152380D01*
X176680952Y-87152380D01*
X176538095Y-87104761D01*
X176442857Y-87009523D01*
X176395238Y-86914285D01*
X176347619Y-86723809D01*
X176347619Y-86580952D01*
X176395238Y-86390476D01*
X176442857Y-86295238D01*
X176538095Y-86200000D01*
X176680952Y-86152380D01*
X176776190Y-86152380D01*
X176919047Y-86200000D01*
X176966666Y-86247619D01*
X177871428Y-87152380D02*
X177395238Y-87152380D01*
X177395238Y-86152380D01*
X178204761Y-87152380D02*
X178204761Y-86152380D01*
X178776190Y-87152380D02*
X178347619Y-86580952D01*
X178776190Y-86152380D02*
X178204761Y-86723809D01*
X179252380Y-87104761D02*
X179252380Y-87152380D01*
X179204761Y-87247619D01*
X179157142Y-87295238D01*
X179633333Y-87104761D02*
X179776190Y-87152380D01*
X180014285Y-87152380D01*
X180109523Y-87104761D01*
X180157142Y-87057142D01*
X180204761Y-86961904D01*
X180204761Y-86866666D01*
X180157142Y-86771428D01*
X180109523Y-86723809D01*
X180014285Y-86676190D01*
X179823809Y-86628571D01*
X179728571Y-86580952D01*
X179680952Y-86533333D01*
X179633333Y-86438095D01*
X179633333Y-86342857D01*
X179680952Y-86247619D01*
X179728571Y-86200000D01*
X179823809Y-86152380D01*
X180061904Y-86152380D01*
X180204761Y-86200000D01*
X180538095Y-86152380D02*
X180776190Y-87152380D01*
X180966666Y-86438095D01*
X181157142Y-87152380D01*
X181395238Y-86152380D01*
X181776190Y-87152380D02*
X181776190Y-86152380D01*
X182014285Y-86152380D01*
X182157142Y-86200000D01*
X182252380Y-86295238D01*
X182300000Y-86390476D01*
X182347619Y-86580952D01*
X182347619Y-86723809D01*
X182300000Y-86914285D01*
X182252380Y-87009523D01*
X182157142Y-87104761D01*
X182014285Y-87152380D01*
X181776190Y-87152380D01*
D10*
X126867857Y-72382857D02*
X126367857Y-72382857D01*
X126367857Y-73168571D02*
X126367857Y-71668571D01*
X127082142Y-71668571D01*
X127939285Y-71668571D02*
X128225000Y-71668571D01*
X128367857Y-71740000D01*
X128510714Y-71882857D01*
X128582142Y-72168571D01*
X128582142Y-72668571D01*
X128510714Y-72954285D01*
X128367857Y-73097142D01*
X128225000Y-73168571D01*
X127939285Y-73168571D01*
X127796428Y-73097142D01*
X127653571Y-72954285D01*
X127582142Y-72668571D01*
X127582142Y-72168571D01*
X127653571Y-71882857D01*
X127796428Y-71740000D01*
X127939285Y-71668571D01*
X130082142Y-73168571D02*
X129582142Y-72454285D01*
X129225000Y-73168571D02*
X129225000Y-71668571D01*
X129796428Y-71668571D01*
X129939285Y-71740000D01*
X130010714Y-71811428D01*
X130082142Y-71954285D01*
X130082142Y-72168571D01*
X130010714Y-72311428D01*
X129939285Y-72382857D01*
X129796428Y-72454285D01*
X129225000Y-72454285D01*
X130725000Y-72382857D02*
X131225000Y-72382857D01*
X131439285Y-73168571D02*
X130725000Y-73168571D01*
X130725000Y-71668571D01*
X131439285Y-71668571D01*
X131867857Y-71668571D02*
X132367857Y-73168571D01*
X132867857Y-71668571D01*
X133367857Y-72382857D02*
X133867857Y-72382857D01*
X134082142Y-73168571D02*
X133367857Y-73168571D01*
X133367857Y-71668571D01*
X134082142Y-71668571D01*
X135582142Y-73168571D02*
X135082142Y-72454285D01*
X134725000Y-73168571D02*
X134725000Y-71668571D01*
X135296428Y-71668571D01*
X135439285Y-71740000D01*
X135510714Y-71811428D01*
X135582142Y-71954285D01*
X135582142Y-72168571D01*
X135510714Y-72311428D01*
X135439285Y-72382857D01*
X135296428Y-72454285D01*
X134725000Y-72454285D01*
X137225000Y-71668571D02*
X137582142Y-73168571D01*
X137867857Y-72097142D01*
X138153571Y-73168571D01*
X138510714Y-71668571D01*
X139082142Y-73168571D02*
X139082142Y-71668571D01*
X139796428Y-73168571D02*
X139796428Y-71668571D01*
X140367857Y-71668571D01*
X140510714Y-71740000D01*
X140582142Y-71811428D01*
X140653571Y-71954285D01*
X140653571Y-72168571D01*
X140582142Y-72311428D01*
X140510714Y-72382857D01*
X140367857Y-72454285D01*
X139796428Y-72454285D01*
X142225000Y-71668571D02*
X142725000Y-73168571D01*
X143225000Y-71668571D01*
X144010714Y-71668571D02*
X144153571Y-71668571D01*
X144296428Y-71740000D01*
X144367857Y-71811428D01*
X144439285Y-71954285D01*
X144510714Y-72240000D01*
X144510714Y-72597142D01*
X144439285Y-72882857D01*
X144367857Y-73025714D01*
X144296428Y-73097142D01*
X144153571Y-73168571D01*
X144010714Y-73168571D01*
X143867857Y-73097142D01*
X143796428Y-73025714D01*
X143725000Y-72882857D01*
X143653571Y-72597142D01*
X143653571Y-72240000D01*
X143725000Y-71954285D01*
X143796428Y-71811428D01*
X143867857Y-71740000D01*
X144010714Y-71668571D01*
X145153571Y-73025714D02*
X145225000Y-73097142D01*
X145153571Y-73168571D01*
X145082142Y-73097142D01*
X145153571Y-73025714D01*
X145153571Y-73168571D01*
X145796428Y-71811428D02*
X145867857Y-71740000D01*
X146010714Y-71668571D01*
X146367857Y-71668571D01*
X146510714Y-71740000D01*
X146582142Y-71811428D01*
X146653571Y-71954285D01*
X146653571Y-72097142D01*
X146582142Y-72311428D01*
X145725000Y-73168571D01*
X146653571Y-73168571D01*
D11*
X152883095Y-72392380D02*
X152883095Y-73201904D01*
X152930714Y-73297142D01*
X152978333Y-73344761D01*
X153073571Y-73392380D01*
X153264047Y-73392380D01*
X153359285Y-73344761D01*
X153406904Y-73297142D01*
X153454523Y-73201904D01*
X153454523Y-72392380D01*
X154359285Y-72725714D02*
X154359285Y-73392380D01*
X154121190Y-72344761D02*
X153883095Y-73059047D01*
X154502142Y-73059047D01*
X147533095Y-84932380D02*
X147533095Y-85741904D01*
X147580714Y-85837142D01*
X147628333Y-85884761D01*
X147723571Y-85932380D01*
X147914047Y-85932380D01*
X148009285Y-85884761D01*
X148056904Y-85837142D01*
X148104523Y-85741904D01*
X148104523Y-84932380D01*
X148485476Y-84932380D02*
X149104523Y-84932380D01*
X148771190Y-85313333D01*
X148914047Y-85313333D01*
X149009285Y-85360952D01*
X149056904Y-85408571D01*
X149104523Y-85503809D01*
X149104523Y-85741904D01*
X149056904Y-85837142D01*
X149009285Y-85884761D01*
X148914047Y-85932380D01*
X148628333Y-85932380D01*
X148533095Y-85884761D01*
X148485476Y-85837142D01*
X188488095Y-75459880D02*
X188488095Y-74459880D01*
X188488095Y-74936071D02*
X189059523Y-74936071D01*
X189059523Y-75459880D02*
X189059523Y-74459880D01*
X190059523Y-75459880D02*
X189488095Y-75459880D01*
X189773809Y-75459880D02*
X189773809Y-74459880D01*
X189678571Y-74602738D01*
X189583333Y-74697976D01*
X189488095Y-74745595D01*
X114787380Y-82601904D02*
X115596904Y-82601904D01*
X115692142Y-82554285D01*
X115739761Y-82506666D01*
X115787380Y-82411428D01*
X115787380Y-82220952D01*
X115739761Y-82125714D01*
X115692142Y-82078095D01*
X115596904Y-82030476D01*
X114787380Y-82030476D01*
X114787380Y-81125714D02*
X114787380Y-81316190D01*
X114835000Y-81411428D01*
X114882619Y-81459047D01*
X115025476Y-81554285D01*
X115215952Y-81601904D01*
X115596904Y-81601904D01*
X115692142Y-81554285D01*
X115739761Y-81506666D01*
X115787380Y-81411428D01*
X115787380Y-81220952D01*
X115739761Y-81125714D01*
X115692142Y-81078095D01*
X115596904Y-81030476D01*
X115358809Y-81030476D01*
X115263571Y-81078095D01*
X115215952Y-81125714D01*
X115168333Y-81220952D01*
X115168333Y-81411428D01*
X115215952Y-81506666D01*
X115263571Y-81554285D01*
X115358809Y-81601904D01*
X109921666Y-72492380D02*
X109921666Y-73206666D01*
X109874047Y-73349523D01*
X109778809Y-73444761D01*
X109635952Y-73492380D01*
X109540714Y-73492380D01*
X110302619Y-72492380D02*
X110921666Y-72492380D01*
X110588333Y-72873333D01*
X110731190Y-72873333D01*
X110826428Y-72920952D01*
X110874047Y-72968571D01*
X110921666Y-73063809D01*
X110921666Y-73301904D01*
X110874047Y-73397142D01*
X110826428Y-73444761D01*
X110731190Y-73492380D01*
X110445476Y-73492380D01*
X110350238Y-73444761D01*
X110302619Y-73397142D01*
X103738095Y-90959880D02*
X103738095Y-89959880D01*
X103738095Y-90436071D02*
X104309523Y-90436071D01*
X104309523Y-90959880D02*
X104309523Y-89959880D01*
X104738095Y-90055119D02*
X104785714Y-90007500D01*
X104880952Y-89959880D01*
X105119047Y-89959880D01*
X105214285Y-90007500D01*
X105261904Y-90055119D01*
X105309523Y-90150357D01*
X105309523Y-90245595D01*
X105261904Y-90388452D01*
X104690476Y-90959880D01*
X105309523Y-90959880D01*
X158383095Y-80672380D02*
X158383095Y-81481904D01*
X158430714Y-81577142D01*
X158478333Y-81624761D01*
X158573571Y-81672380D01*
X158764047Y-81672380D01*
X158859285Y-81624761D01*
X158906904Y-81577142D01*
X158954523Y-81481904D01*
X158954523Y-80672380D01*
X159906904Y-80672380D02*
X159430714Y-80672380D01*
X159383095Y-81148571D01*
X159430714Y-81100952D01*
X159525952Y-81053333D01*
X159764047Y-81053333D01*
X159859285Y-81100952D01*
X159906904Y-81148571D01*
X159954523Y-81243809D01*
X159954523Y-81481904D01*
X159906904Y-81577142D01*
X159859285Y-81624761D01*
X159764047Y-81672380D01*
X159525952Y-81672380D01*
X159430714Y-81624761D01*
X159383095Y-81577142D01*
X103991666Y-85002380D02*
X103991666Y-85716666D01*
X103944047Y-85859523D01*
X103848809Y-85954761D01*
X103705952Y-86002380D01*
X103610714Y-86002380D01*
X104991666Y-86002380D02*
X104420238Y-86002380D01*
X104705952Y-86002380D02*
X104705952Y-85002380D01*
X104610714Y-85145238D01*
X104515476Y-85240476D01*
X104420238Y-85288095D01*
X138723095Y-78832380D02*
X138723095Y-79641904D01*
X138770714Y-79737142D01*
X138818333Y-79784761D01*
X138913571Y-79832380D01*
X139104047Y-79832380D01*
X139199285Y-79784761D01*
X139246904Y-79737142D01*
X139294523Y-79641904D01*
X139294523Y-78832380D01*
X139723095Y-78927619D02*
X139770714Y-78880000D01*
X139865952Y-78832380D01*
X140104047Y-78832380D01*
X140199285Y-78880000D01*
X140246904Y-78927619D01*
X140294523Y-79022857D01*
X140294523Y-79118095D01*
X140246904Y-79260952D01*
X139675476Y-79832380D01*
X140294523Y-79832380D01*
X143148333Y-87212380D02*
X142672142Y-87212380D01*
X142672142Y-86212380D01*
X144005476Y-87212380D02*
X143434047Y-87212380D01*
X143719761Y-87212380D02*
X143719761Y-86212380D01*
X143624523Y-86355238D01*
X143529285Y-86450476D01*
X143434047Y-86498095D01*
X111973095Y-83102380D02*
X111973095Y-83911904D01*
X112020714Y-84007142D01*
X112068333Y-84054761D01*
X112163571Y-84102380D01*
X112354047Y-84102380D01*
X112449285Y-84054761D01*
X112496904Y-84007142D01*
X112544523Y-83911904D01*
X112544523Y-83102380D01*
X112925476Y-83102380D02*
X113592142Y-83102380D01*
X113163571Y-84102380D01*
X126841666Y-61204761D02*
X126984523Y-61252380D01*
X127222619Y-61252380D01*
X127317857Y-61204761D01*
X127365476Y-61157142D01*
X127413095Y-61061904D01*
X127413095Y-60966666D01*
X127365476Y-60871428D01*
X127317857Y-60823809D01*
X127222619Y-60776190D01*
X127032142Y-60728571D01*
X126936904Y-60680952D01*
X126889285Y-60633333D01*
X126841666Y-60538095D01*
X126841666Y-60442857D01*
X126889285Y-60347619D01*
X126936904Y-60300000D01*
X127032142Y-60252380D01*
X127270238Y-60252380D01*
X127413095Y-60300000D01*
X127746428Y-60252380D02*
X127984523Y-61252380D01*
X128175000Y-60538095D01*
X128365476Y-61252380D01*
X128603571Y-60252380D01*
X129413095Y-60252380D02*
X129222619Y-60252380D01*
X129127380Y-60300000D01*
X129079761Y-60347619D01*
X128984523Y-60490476D01*
X128936904Y-60680952D01*
X128936904Y-61061904D01*
X128984523Y-61157142D01*
X129032142Y-61204761D01*
X129127380Y-61252380D01*
X129317857Y-61252380D01*
X129413095Y-61204761D01*
X129460714Y-61157142D01*
X129508333Y-61061904D01*
X129508333Y-60823809D01*
X129460714Y-60728571D01*
X129413095Y-60680952D01*
X129317857Y-60633333D01*
X129127380Y-60633333D01*
X129032142Y-60680952D01*
X128984523Y-60728571D01*
X128936904Y-60823809D01*
X170661666Y-84047380D02*
X170661666Y-84761666D01*
X170614047Y-84904523D01*
X170518809Y-84999761D01*
X170375952Y-85047380D01*
X170280714Y-85047380D01*
X171566428Y-84047380D02*
X171375952Y-84047380D01*
X171280714Y-84095000D01*
X171233095Y-84142619D01*
X171137857Y-84285476D01*
X171090238Y-84475952D01*
X171090238Y-84856904D01*
X171137857Y-84952142D01*
X171185476Y-84999761D01*
X171280714Y-85047380D01*
X171471190Y-85047380D01*
X171566428Y-84999761D01*
X171614047Y-84952142D01*
X171661666Y-84856904D01*
X171661666Y-84618809D01*
X171614047Y-84523571D01*
X171566428Y-84475952D01*
X171471190Y-84428333D01*
X171280714Y-84428333D01*
X171185476Y-84475952D01*
X171137857Y-84523571D01*
X171090238Y-84618809D01*
X156931666Y-64522380D02*
X156931666Y-65236666D01*
X156884047Y-65379523D01*
X156788809Y-65474761D01*
X156645952Y-65522380D01*
X156550714Y-65522380D01*
X157836428Y-64855714D02*
X157836428Y-65522380D01*
X157598333Y-64474761D02*
X157360238Y-65189047D01*
X157979285Y-65189047D01*
X129298809Y-82886190D02*
X129298809Y-83362380D01*
X128965476Y-82362380D02*
X129298809Y-82886190D01*
X129632142Y-82362380D01*
X130489285Y-83362380D02*
X129917857Y-83362380D01*
X130203571Y-83362380D02*
X130203571Y-82362380D01*
X130108333Y-82505238D01*
X130013095Y-82600476D01*
X129917857Y-82648095D01*
X133169761Y-86247619D02*
X133074523Y-86200000D01*
X132979285Y-86104761D01*
X132836428Y-85961904D01*
X132741190Y-85914285D01*
X132645952Y-85914285D01*
X132693571Y-86152380D02*
X132598333Y-86104761D01*
X132503095Y-86009523D01*
X132455476Y-85819047D01*
X132455476Y-85485714D01*
X132503095Y-85295238D01*
X132598333Y-85200000D01*
X132693571Y-85152380D01*
X132884047Y-85152380D01*
X132979285Y-85200000D01*
X133074523Y-85295238D01*
X133122142Y-85485714D01*
X133122142Y-85819047D01*
X133074523Y-86009523D01*
X132979285Y-86104761D01*
X132884047Y-86152380D01*
X132693571Y-86152380D01*
X134074523Y-86152380D02*
X133503095Y-86152380D01*
X133788809Y-86152380D02*
X133788809Y-85152380D01*
X133693571Y-85295238D01*
X133598333Y-85390476D01*
X133503095Y-85438095D01*
D12*
X130395000Y-89720000D02*
X126495000Y-89720000D01*
X130395000Y-89720000D02*
X130395000Y-87720000D01*
X130395000Y-87720000D02*
X126495000Y-87720000D01*
X112485000Y-62730580D02*
X112485000Y-62449420D01*
X111465000Y-62730580D02*
X111465000Y-62449420D01*
X135647500Y-77427258D02*
X135647500Y-76952742D01*
X134602500Y-77427258D02*
X134602500Y-76952742D01*
X121322836Y-83710000D02*
X121107164Y-83710000D01*
X121322836Y-82990000D02*
X121107164Y-82990000D01*
X128272500Y-78892742D02*
X128272500Y-79367258D01*
X129317500Y-78892742D02*
X129317500Y-79367258D01*
X151905000Y-76980000D02*
X153705000Y-76980000D01*
X151905000Y-73860000D02*
X151105000Y-73860000D01*
X151905000Y-73860000D02*
X152705000Y-73860000D01*
X151905000Y-76980000D02*
X151105000Y-76980000D01*
X146545000Y-82759420D02*
X146545000Y-83040580D01*
X147565000Y-82759420D02*
X147565000Y-83040580D01*
X114632836Y-74630000D02*
X114417164Y-74630000D01*
X114632836Y-73910000D02*
X114417164Y-73910000D01*
X156257836Y-87040000D02*
X156042164Y-87040000D01*
X156257836Y-87760000D02*
X156042164Y-87760000D01*
X196085000Y-70270000D02*
X196085000Y-60110000D01*
X188465000Y-70270000D02*
X196085000Y-70270000D01*
X188465000Y-60110000D02*
X188465000Y-70270000D01*
X194815000Y-60110000D02*
X194815000Y-70270000D01*
X196085000Y-60110000D02*
X188465000Y-60110000D01*
X108517500Y-80375000D02*
X107217500Y-80375000D01*
X108517500Y-79575000D02*
X107217500Y-79575000D01*
X107217500Y-79575000D02*
X107217500Y-80375000D01*
X114642836Y-76680000D02*
X114427164Y-76680000D01*
X114642836Y-75960000D02*
X114427164Y-75960000D01*
X148215000Y-82100000D02*
X148215000Y-84400000D01*
X151415000Y-83700000D02*
X151415000Y-82100000D01*
X125977164Y-78240000D02*
X126192836Y-78240000D01*
X125977164Y-77520000D02*
X126192836Y-77520000D01*
X123112258Y-88707500D02*
X122637742Y-88707500D01*
X123112258Y-89752500D02*
X122637742Y-89752500D01*
X162785000Y-77100580D02*
X162785000Y-76819420D01*
X163805000Y-77100580D02*
X163805000Y-76819420D01*
X114897500Y-63832742D02*
X114897500Y-64307258D01*
X113852500Y-63832742D02*
X113852500Y-64307258D01*
X113882836Y-77930000D02*
X113667164Y-77930000D01*
X113882836Y-78650000D02*
X113667164Y-78650000D01*
X127542258Y-82872500D02*
X127067742Y-82872500D01*
X127542258Y-81827500D02*
X127067742Y-81827500D01*
X150594420Y-77690000D02*
X150875580Y-77690000D01*
X150594420Y-78710000D02*
X150875580Y-78710000D01*
X108287742Y-79247500D02*
X108762258Y-79247500D01*
X108287742Y-78202500D02*
X108762258Y-78202500D01*
X115352500Y-63852742D02*
X115352500Y-64327258D01*
X116397500Y-63852742D02*
X116397500Y-64327258D01*
X143082500Y-76247258D02*
X143082500Y-75772742D01*
X142037500Y-76247258D02*
X142037500Y-75772742D01*
X129455000Y-85009420D02*
X129455000Y-85290580D01*
X130475000Y-85009420D02*
X130475000Y-85290580D01*
X108565000Y-76290000D02*
X107265000Y-76290000D01*
X108565000Y-75490000D02*
X107265000Y-75490000D01*
X107265000Y-75490000D02*
X107265000Y-76290000D01*
X125967164Y-79250000D02*
X126182836Y-79250000D01*
X125967164Y-78530000D02*
X126182836Y-78530000D01*
X120052500Y-65462742D02*
X120052500Y-65937258D01*
X121097500Y-65462742D02*
X121097500Y-65937258D01*
X154435000Y-75319420D02*
X154435000Y-75600580D01*
X155455000Y-75319420D02*
X155455000Y-75600580D01*
X123715000Y-75480000D02*
X123715000Y-74830000D01*
X116495000Y-75480000D02*
X116495000Y-74830000D01*
X123715000Y-74830000D02*
X123065000Y-74830000D01*
X116495000Y-81400000D02*
X116495000Y-82050000D01*
X123715000Y-81400000D02*
X123715000Y-82050000D01*
X116495000Y-74830000D02*
X117145000Y-74830000D01*
X123715000Y-82050000D02*
X123065000Y-82050000D01*
X110295000Y-60430000D02*
X110295000Y-59200000D01*
X105875000Y-71380000D02*
X108175000Y-71380000D01*
X110295000Y-59200000D02*
X100475000Y-59200000D01*
X110295000Y-71380000D02*
X110295000Y-68700000D01*
X98655000Y-69900000D02*
X98655000Y-69040000D01*
X109575000Y-71380000D02*
X110295000Y-71380000D01*
X100025000Y-71380000D02*
X104475000Y-71380000D01*
X110295000Y-66400000D02*
X110295000Y-62730000D01*
X119507500Y-65147258D02*
X119507500Y-64672742D01*
X118462500Y-65147258D02*
X118462500Y-64672742D01*
X134087500Y-77427258D02*
X134087500Y-76952742D01*
X133042500Y-77427258D02*
X133042500Y-76952742D01*
X159345000Y-82430000D02*
X159345000Y-82905000D01*
X158870000Y-82430000D02*
X159345000Y-82430000D01*
X156600000Y-82430000D02*
X156125000Y-82430000D01*
X156125000Y-85650000D02*
X156125000Y-85175000D01*
X156600000Y-85650000D02*
X156125000Y-85650000D01*
X158870000Y-85650000D02*
X159345000Y-85650000D01*
X159345000Y-85650000D02*
X159345000Y-85175000D01*
X145450000Y-79520000D02*
X148135000Y-79520000D01*
X145450000Y-77600000D02*
X145450000Y-79520000D01*
X148135000Y-77600000D02*
X145450000Y-77600000D01*
X146267742Y-76762500D02*
X146742258Y-76762500D01*
X146267742Y-75717500D02*
X146742258Y-75717500D01*
X152852500Y-79867258D02*
X152852500Y-79392742D01*
X153897500Y-79867258D02*
X153897500Y-79392742D01*
X118057164Y-83000000D02*
X118272836Y-83000000D01*
X118057164Y-83720000D02*
X118272836Y-83720000D01*
X120725000Y-72767836D02*
X120725000Y-72552164D01*
X121445000Y-72767836D02*
X121445000Y-72552164D01*
X103065000Y-74740000D02*
X101145000Y-74740000D01*
X99135000Y-83900000D02*
X97430000Y-83900000D01*
X97430000Y-74740000D02*
X99135000Y-74740000D01*
X101145000Y-83900000D02*
X103065000Y-83900000D01*
X97430000Y-83900000D02*
X97430000Y-74740000D01*
X108912258Y-82807500D02*
X108437742Y-82807500D01*
X108912258Y-83852500D02*
X108437742Y-83852500D01*
X113882836Y-79730000D02*
X113667164Y-79730000D01*
X113882836Y-80450000D02*
X113667164Y-80450000D01*
X142127742Y-77837500D02*
X142602258Y-77837500D01*
X142127742Y-78882500D02*
X142602258Y-78882500D01*
X116615000Y-73397836D02*
X116615000Y-73182164D01*
X117335000Y-73397836D02*
X117335000Y-73182164D01*
X111555000Y-88907836D02*
X111555000Y-88692164D01*
X110835000Y-88907836D02*
X110835000Y-88692164D01*
X108287742Y-77722500D02*
X108762258Y-77722500D01*
X108287742Y-76677500D02*
X108762258Y-76677500D01*
X137130000Y-76250000D02*
X139130000Y-76250000D01*
X139130000Y-78490000D02*
X138130000Y-78490000D01*
X117997500Y-64652742D02*
X117997500Y-65127258D01*
X116952500Y-64652742D02*
X116952500Y-65127258D01*
X152055000Y-82769420D02*
X152055000Y-83050580D01*
X153075000Y-82769420D02*
X153075000Y-83050580D01*
X140180580Y-75400000D02*
X139899420Y-75400000D01*
X140180580Y-74380000D02*
X139899420Y-74380000D01*
X114632836Y-74920000D02*
X114417164Y-74920000D01*
X114632836Y-75640000D02*
X114417164Y-75640000D01*
X140485000Y-79930000D02*
X141835000Y-79930000D01*
X146085000Y-85730000D02*
X144735000Y-85730000D01*
X146085000Y-79930000D02*
X146085000Y-85730000D01*
X146085000Y-79930000D02*
X144735000Y-79930000D01*
X140485000Y-79930000D02*
X140485000Y-85730000D01*
X140485000Y-85730000D02*
X141835000Y-85730000D01*
X119290000Y-84585000D02*
X119290000Y-84845000D01*
X113840000Y-84585000D02*
X113840000Y-84845000D01*
X116565000Y-84585000D02*
X119290000Y-84585000D01*
X116565000Y-84585000D02*
X113840000Y-84585000D01*
X119290000Y-89775000D02*
X120965000Y-89775000D01*
X116565000Y-90035000D02*
X113840000Y-90035000D01*
X116565000Y-90035000D02*
X119290000Y-90035000D01*
X113840000Y-90035000D02*
X113840000Y-89775000D01*
X119290000Y-90035000D02*
X119290000Y-89775000D01*
X105787500Y-86040000D02*
X105787500Y-86840000D01*
X107087500Y-86840000D02*
X105787500Y-86840000D01*
X107087500Y-86040000D02*
X105787500Y-86040000D01*
X121552500Y-65472742D02*
X121552500Y-65947258D01*
X122597500Y-65472742D02*
X122597500Y-65947258D01*
X129625000Y-67120000D02*
X130115000Y-66630000D01*
X126725000Y-61680000D02*
X126235000Y-62170000D01*
X126725000Y-67120000D02*
X126235000Y-66630000D01*
X130895000Y-65440000D02*
X130895000Y-63360000D01*
X126725000Y-61680000D02*
X129625000Y-61680000D01*
X125455000Y-65440000D02*
X125455000Y-63360000D01*
X129625000Y-61680000D02*
X130115000Y-62170000D01*
X126725000Y-67120000D02*
X129625000Y-67120000D01*
X170995000Y-88195000D02*
X170995000Y-85595000D01*
X170995000Y-85595000D02*
X173595000Y-85595000D01*
X168395000Y-85595000D02*
X169725000Y-85595000D01*
X168395000Y-88195000D02*
X168395000Y-90795000D01*
X168395000Y-90795000D02*
X173595000Y-90795000D01*
X168395000Y-88195000D02*
X170995000Y-88195000D01*
X168395000Y-86925000D02*
X168395000Y-85595000D01*
X173595000Y-85595000D02*
X173595000Y-90795000D01*
X107912258Y-73452500D02*
X107437742Y-73452500D01*
X107912258Y-74497500D02*
X107437742Y-74497500D01*
X146815000Y-64035000D02*
X146815000Y-66425000D01*
X144490000Y-59665000D02*
X144490000Y-58815000D01*
X144490000Y-58815000D02*
X158660000Y-58815000D01*
X158660000Y-64035000D02*
X156335000Y-64035000D01*
X158660000Y-58815000D02*
X158660000Y-59665000D01*
X158660000Y-63185000D02*
X158660000Y-64035000D01*
X144490000Y-64035000D02*
X146815000Y-64035000D01*
X144490000Y-63185000D02*
X144490000Y-64035000D01*
X123485000Y-85039420D02*
X123485000Y-85320580D01*
X124505000Y-85039420D02*
X124505000Y-85320580D01*
X150657936Y-79275000D02*
X151112064Y-79275000D01*
X150657936Y-80745000D02*
X151112064Y-80745000D01*
X158684420Y-87935000D02*
X158965580Y-87935000D01*
X158684420Y-86915000D02*
X158965580Y-86915000D01*
X161535000Y-76859420D02*
X161535000Y-77140580D01*
X160515000Y-76859420D02*
X160515000Y-77140580D01*
X124955000Y-83420000D02*
X124955000Y-86720000D01*
X124955000Y-86720000D02*
X128955000Y-86720000D01*
X135745000Y-88502500D02*
X135745000Y-87852500D01*
X132625000Y-88502500D02*
X132625000Y-87852500D01*
X132625000Y-88502500D02*
X132625000Y-90177500D01*
X135745000Y-88502500D02*
X135745000Y-89152500D01*
X136794420Y-74400000D02*
X137075580Y-74400000D01*
X136794420Y-75420000D02*
X137075580Y-75420000D01*
%LPC*%
D13*
X129795000Y-88720000D03*
X126495000Y-88720000D03*
D14*
X111975000Y-63365000D03*
X111975000Y-61815000D03*
D15*
X135125000Y-78015000D03*
X135125000Y-76365000D03*
D16*
X121695000Y-83350000D03*
X120735000Y-83350000D03*
D17*
X128795000Y-78305000D03*
X128795000Y-79955000D03*
D18*
X153042500Y-76370000D03*
X153042500Y-74470000D03*
X150767500Y-75420000D03*
D19*
X147055000Y-82125000D03*
X147055000Y-83675000D03*
D16*
X115005000Y-74270000D03*
X114045000Y-74270000D03*
X156630000Y-87400000D03*
X155670000Y-87400000D03*
D20*
X192275000Y-67730000D03*
D21*
X192275000Y-62650000D03*
D22*
X107597500Y-79975000D03*
X108437500Y-79975000D03*
D16*
X115015000Y-76320000D03*
X114055000Y-76320000D03*
D23*
X148865000Y-84060000D03*
X149815000Y-84060000D03*
X150765000Y-84060000D03*
X150765000Y-81740000D03*
X149815000Y-81740000D03*
X148865000Y-81740000D03*
D24*
X125605000Y-77880000D03*
X126565000Y-77880000D03*
D25*
X123700000Y-89230000D03*
X122050000Y-89230000D03*
D14*
X163295000Y-77735000D03*
X163295000Y-76185000D03*
D26*
X193500000Y-75007500D03*
D17*
X114375000Y-63245000D03*
X114375000Y-64895000D03*
D16*
X114255000Y-78290000D03*
X113295000Y-78290000D03*
D25*
X128130000Y-82350000D03*
X126480000Y-82350000D03*
D27*
X149960000Y-78200000D03*
X151510000Y-78200000D03*
D28*
X107700000Y-78725000D03*
X109350000Y-78725000D03*
D17*
X115875000Y-63265000D03*
X115875000Y-64915000D03*
D15*
X142560000Y-76835000D03*
X142560000Y-75185000D03*
D19*
X129965000Y-84375000D03*
X129965000Y-85925000D03*
D22*
X107645000Y-75890000D03*
X108485000Y-75890000D03*
D24*
X125595000Y-78890000D03*
X126555000Y-78890000D03*
D17*
X120575000Y-64875000D03*
X120575000Y-66525000D03*
D19*
X154945000Y-74685000D03*
X154945000Y-76235000D03*
D29*
X117505000Y-81877500D03*
X117905000Y-81877500D03*
X118305000Y-81877500D03*
X118705000Y-81877500D03*
X119105000Y-81877500D03*
X119505000Y-81877500D03*
X119905000Y-81877500D03*
X120305000Y-81877500D03*
X120705000Y-81877500D03*
X121105000Y-81877500D03*
X121505000Y-81877500D03*
X121905000Y-81877500D03*
X122305000Y-81877500D03*
X122705000Y-81877500D03*
D30*
X123542500Y-81040000D03*
X123542500Y-80640000D03*
X123542500Y-80240000D03*
X123542500Y-79840000D03*
X123542500Y-79440000D03*
X123542500Y-79040000D03*
X123542500Y-78640000D03*
X123542500Y-78240000D03*
X123542500Y-77840000D03*
X123542500Y-77440000D03*
X123542500Y-77040000D03*
X123542500Y-76640000D03*
X123542500Y-76240000D03*
X123542500Y-75840000D03*
D29*
X122705000Y-75002500D03*
X122305000Y-75002500D03*
X121905000Y-75002500D03*
X121505000Y-75002500D03*
X121105000Y-75002500D03*
X120705000Y-75002500D03*
X120305000Y-75002500D03*
X119905000Y-75002500D03*
X119505000Y-75002500D03*
X119105000Y-75002500D03*
X118705000Y-75002500D03*
X118305000Y-75002500D03*
X117905000Y-75002500D03*
X117505000Y-75002500D03*
D30*
X116667500Y-75840000D03*
X116667500Y-76240000D03*
X116667500Y-76640000D03*
X116667500Y-77040000D03*
X116667500Y-77440000D03*
X116667500Y-77840000D03*
X116667500Y-78240000D03*
X116667500Y-78640000D03*
X116667500Y-79040000D03*
X116667500Y-79440000D03*
X116667500Y-79840000D03*
X116667500Y-80240000D03*
X116667500Y-80640000D03*
X116667500Y-81040000D03*
D31*
X120105000Y-78440000D03*
D32*
X99025000Y-68415000D03*
X99025000Y-67315000D03*
X99025000Y-66215000D03*
X99025000Y-65115000D03*
X99025000Y-64015000D03*
X99025000Y-62915000D03*
X99025000Y-61815000D03*
D33*
X99025000Y-60765000D03*
D34*
X105175000Y-71050000D03*
X108875000Y-71050000D03*
D35*
X109850000Y-67550000D03*
D36*
X99375000Y-59555000D03*
D35*
X109850000Y-61580000D03*
D37*
X99150000Y-70875000D03*
D15*
X118985000Y-65735000D03*
X118985000Y-64085000D03*
D26*
X100500000Y-88507500D03*
D15*
X133565000Y-78015000D03*
X133565000Y-76365000D03*
D38*
X156297500Y-83290000D03*
X156297500Y-83790000D03*
X156297500Y-84290000D03*
X156297500Y-84790000D03*
D39*
X156985000Y-85477500D03*
X157485000Y-85477500D03*
X157985000Y-85477500D03*
X158485000Y-85477500D03*
D38*
X159172500Y-84790000D03*
X159172500Y-84290000D03*
X159172500Y-83790000D03*
X159172500Y-83290000D03*
D39*
X158485000Y-82602500D03*
X157985000Y-82602500D03*
X157485000Y-82602500D03*
X156985000Y-82602500D03*
D40*
X157735000Y-84040000D03*
D41*
X146197500Y-78560000D03*
X148072500Y-78560000D03*
D28*
X145680000Y-76240000D03*
X147330000Y-76240000D03*
D15*
X153375000Y-80455000D03*
X153375000Y-78805000D03*
D24*
X117685000Y-83360000D03*
X118645000Y-83360000D03*
D42*
X121085000Y-73140000D03*
X121085000Y-72180000D03*
D43*
X103820000Y-76430000D03*
X103820000Y-82210000D03*
D44*
X104940000Y-76120000D03*
X104940000Y-76920000D03*
D45*
X104940000Y-78070000D03*
X104940000Y-79070000D03*
X104940000Y-79570000D03*
X104940000Y-80570000D03*
D44*
X104940000Y-81720000D03*
X104940000Y-82520000D03*
X104940000Y-82520000D03*
X104940000Y-81720000D03*
D45*
X104940000Y-81070000D03*
X104940000Y-80070000D03*
X104940000Y-78570000D03*
X104940000Y-77570000D03*
D44*
X104940000Y-76920000D03*
X104940000Y-76120000D03*
D46*
X104340000Y-83640000D03*
D47*
X100140000Y-75000000D03*
D46*
X104340000Y-75000000D03*
D47*
X100140000Y-83640000D03*
D25*
X109500000Y-83330000D03*
X107850000Y-83330000D03*
D16*
X114255000Y-80090000D03*
X113295000Y-80090000D03*
D28*
X141540000Y-78360000D03*
X143190000Y-78360000D03*
D42*
X116975000Y-73770000D03*
X116975000Y-72810000D03*
X111195000Y-89280000D03*
X111195000Y-88320000D03*
D28*
X107700000Y-77200000D03*
X109350000Y-77200000D03*
D48*
X137680000Y-76620000D03*
X137680000Y-77120000D03*
X137680000Y-77620000D03*
X137680000Y-78120000D03*
X139580000Y-78120000D03*
X139580000Y-77620000D03*
X139580000Y-77120000D03*
X139580000Y-76620000D03*
D49*
X138630000Y-77370000D03*
D17*
X117475000Y-64065000D03*
X117475000Y-65715000D03*
D19*
X152565000Y-82135000D03*
X152565000Y-83685000D03*
D50*
X140815000Y-74890000D03*
X139265000Y-74890000D03*
D16*
X115005000Y-75280000D03*
X114045000Y-75280000D03*
D51*
X143285000Y-80780000D03*
X143285000Y-84880000D03*
D52*
X120165000Y-89215000D03*
X120165000Y-87945000D03*
X120165000Y-86675000D03*
X120165000Y-85405000D03*
X112965000Y-85405000D03*
X112965000Y-86675000D03*
X112965000Y-87945000D03*
X112965000Y-89215000D03*
D22*
X106167500Y-86440000D03*
X107007500Y-86440000D03*
D17*
X122075000Y-64885000D03*
X122075000Y-66535000D03*
D53*
X131275000Y-62550000D03*
X125075000Y-62550000D03*
X131275000Y-66250000D03*
X125075000Y-66250000D03*
D54*
X169725000Y-86925000D03*
D55*
X172265000Y-86925000D03*
X169725000Y-89465000D03*
X172265000Y-89465000D03*
D25*
X108500000Y-73975000D03*
X106850000Y-73975000D03*
D56*
X147575000Y-63675000D03*
X149575000Y-63675000D03*
X151575000Y-63675000D03*
X153575000Y-63675000D03*
X155575000Y-63675000D03*
D57*
X145175000Y-61425000D03*
X157975000Y-61425000D03*
D19*
X123995000Y-84405000D03*
X123995000Y-85955000D03*
D58*
X149972500Y-80010000D03*
X151797500Y-80010000D03*
D27*
X158050000Y-87425000D03*
X159600000Y-87425000D03*
D19*
X161025000Y-76225000D03*
X161025000Y-77775000D03*
D59*
X125855000Y-85920000D03*
X128055000Y-85920000D03*
X128055000Y-84220000D03*
X125855000Y-84220000D03*
D60*
X133235000Y-89440000D03*
X135135000Y-89440000D03*
X134185000Y-87565000D03*
D27*
X136160000Y-74910000D03*
X137710000Y-74910000D03*
D61*
X136690000Y-67520000D03*
X136690000Y-82510000D03*
D62*
X163855000Y-67520000D03*
D63*
X163855000Y-82510000D03*
M02*
