%TF.GenerationSoftware,KiCad,Pcbnew,6.0.11-2627ca5db0~126~ubuntu22.04.1*%
%TF.CreationDate,2024-06-10T16:45:36-04:00*%
%TF.ProjectId,board,626f6172-642e-46b6-9963-61645f706362,rev?*%
%TF.SameCoordinates,Original*%
%TF.FileFunction,Drillmap*%
%TF.FilePolarity,Positive*%
%FSLAX45Y45*%
G04 Gerber Fmt 4.5, Leading zero omitted, Abs format (unit mm)*
G04 Created by KiCad (PCBNEW 6.0.11-2627ca5db0~126~ubuntu22.04.1) date 2024-06-10 16:45:36*
%MOMM*%
%LPD*%
G01*
G04 APERTURE LIST*
%ADD10C,0.100000*%
%ADD11C,0.200000*%
%ADD12C,0.040000*%
%ADD13C,0.060000*%
%ADD14C,0.090000*%
%ADD15C,0.102000*%
%ADD16C,0.120000*%
%ADD17C,0.152000*%
%ADD18C,0.320000*%
G04 APERTURE END LIST*
D10*
X19497500Y-9199000D02*
X9897500Y-9199000D01*
X19497500Y-5799000D02*
X9897500Y-5799000D01*
X19497500Y-9199000D02*
G75*
G03*
X19697500Y-8999000I0J200000D01*
G01*
X9697500Y-5999000D02*
X9697500Y-8999000D01*
X19697500Y-8999000D02*
X19697500Y-5999000D01*
X9897500Y-5799000D02*
G75*
G03*
X9697500Y-5999000I0J-200000D01*
G01*
X19697500Y-5999000D02*
G75*
G03*
X19497500Y-5799000I-200000J0D01*
G01*
X9697500Y-8999000D02*
G75*
G03*
X9897500Y-9199000I200000J0D01*
G01*
D11*
D12*
X10046000Y-7067500D02*
X10086000Y-7107500D01*
X10086000Y-7067500D02*
X10046000Y-7107500D01*
X10118500Y-5950000D02*
X10158500Y-5990000D01*
X10158500Y-5950000D02*
X10118500Y-5990000D01*
X10119000Y-6166500D02*
X10159000Y-6206500D01*
X10159000Y-6166500D02*
X10119000Y-6206500D01*
X10119500Y-6270000D02*
X10159500Y-6310000D01*
X10159500Y-6270000D02*
X10119500Y-6310000D01*
X10120000Y-6727500D02*
X10160000Y-6767500D01*
X10160000Y-6727500D02*
X10120000Y-6767500D01*
X10347500Y-6379000D02*
X10387500Y-6419000D01*
X10387500Y-6379000D02*
X10347500Y-6419000D01*
X10607500Y-8899000D02*
X10647500Y-8939000D01*
X10647500Y-8899000D02*
X10607500Y-8939000D01*
X10750000Y-6140000D02*
X10790000Y-6180000D01*
X10790000Y-6140000D02*
X10750000Y-6180000D01*
X10750000Y-6770000D02*
X10790000Y-6810000D01*
X10790000Y-6770000D02*
X10750000Y-6810000D01*
X10765000Y-8625000D02*
X10805000Y-8665000D01*
X10805000Y-8625000D02*
X10765000Y-8665000D01*
X10767500Y-8769000D02*
X10807500Y-8809000D01*
X10807500Y-8769000D02*
X10767500Y-8809000D01*
X10867500Y-6452050D02*
X10907500Y-6492050D01*
X10907500Y-6452050D02*
X10867500Y-6492050D01*
X10914500Y-7977000D02*
X10954500Y-8017000D01*
X10954500Y-7977000D02*
X10914500Y-8017000D01*
X10917500Y-7568000D02*
X10957500Y-7608000D01*
X10957500Y-7568000D02*
X10917500Y-7608000D01*
X11007500Y-8809000D02*
X11047500Y-8849000D01*
X11047500Y-8809000D02*
X11007500Y-8849000D01*
X11045500Y-8318000D02*
X11085500Y-8358000D01*
X11085500Y-8318000D02*
X11045500Y-8358000D01*
X11090000Y-5970000D02*
X11130000Y-6010000D01*
X11130000Y-5970000D02*
X11090000Y-6010000D01*
X11217500Y-7989000D02*
X11257500Y-8029000D01*
X11257500Y-7989000D02*
X11217500Y-8029000D01*
X11226500Y-7799000D02*
X11266500Y-7839000D01*
X11266500Y-7799000D02*
X11226500Y-7839000D01*
X11291500Y-7409000D02*
X11331500Y-7449000D01*
X11331500Y-7409000D02*
X11291500Y-7449000D01*
X11292500Y-7507000D02*
X11332500Y-7547000D01*
X11332500Y-7507000D02*
X11292500Y-7547000D01*
X11292500Y-7608000D02*
X11332500Y-7648000D01*
X11332500Y-7608000D02*
X11292500Y-7648000D01*
X11427500Y-8779000D02*
X11467500Y-8819000D01*
X11467500Y-8779000D02*
X11427500Y-8819000D01*
X11630000Y-7000000D02*
X11670000Y-7040000D01*
X11670000Y-7000000D02*
X11630000Y-7040000D01*
X11697500Y-7159000D02*
X11737500Y-7199000D01*
X11737500Y-7159000D02*
X11697500Y-7199000D01*
X11710500Y-8656000D02*
X11750500Y-8696000D01*
X11750500Y-8656000D02*
X11710500Y-8696000D01*
X11726500Y-6678050D02*
X11766500Y-6718050D01*
X11766500Y-6678050D02*
X11726500Y-6718050D01*
X11748450Y-7920000D02*
X11788450Y-7960000D01*
X11788450Y-7920000D02*
X11748450Y-7960000D01*
X11750500Y-8030000D02*
X11790500Y-8070000D01*
X11790500Y-8030000D02*
X11750500Y-8070000D01*
X11760000Y-7000000D02*
X11800000Y-7040000D01*
X11800000Y-7000000D02*
X11760000Y-7040000D01*
X11836500Y-8501000D02*
X11876500Y-8541000D01*
X11876500Y-8501000D02*
X11836500Y-8541000D01*
X11878500Y-6679000D02*
X11918500Y-6719000D01*
X11918500Y-6679000D02*
X11878500Y-6719000D01*
X11879500Y-6270000D02*
X11919500Y-6310000D01*
X11919500Y-6270000D02*
X11879500Y-6310000D01*
X11883500Y-7922000D02*
X11923500Y-7962000D01*
X11923500Y-7922000D02*
X11883500Y-7962000D01*
X11884500Y-7733000D02*
X11924500Y-7773000D01*
X11924500Y-7733000D02*
X11884500Y-7773000D01*
X11948500Y-8316000D02*
X11988500Y-8356000D01*
X11988500Y-8316000D02*
X11948500Y-8356000D01*
X11972500Y-6895000D02*
X12012500Y-6935000D01*
X12012500Y-6895000D02*
X11972500Y-6935000D01*
X12086500Y-7731000D02*
X12126500Y-7771000D01*
X12126500Y-7731000D02*
X12086500Y-7771000D01*
X12096500Y-7928000D02*
X12136500Y-7968000D01*
X12136500Y-7928000D02*
X12096500Y-7968000D01*
X12122500Y-6820000D02*
X12162500Y-6860000D01*
X12162500Y-6820000D02*
X12122500Y-6860000D01*
X12167500Y-8569000D02*
X12207500Y-8609000D01*
X12207500Y-8569000D02*
X12167500Y-8609000D01*
X12190000Y-7050000D02*
X12230000Y-7090000D01*
X12230000Y-7050000D02*
X12190000Y-7090000D01*
X12226034Y-7582080D02*
X12266034Y-7622080D01*
X12266034Y-7582080D02*
X12226034Y-7622080D01*
X12232500Y-7923000D02*
X12272500Y-7963000D01*
X12272500Y-7923000D02*
X12232500Y-7963000D01*
X12380500Y-8305000D02*
X12420500Y-8345000D01*
X12420500Y-8305000D02*
X12380500Y-8345000D01*
X12420000Y-6110000D02*
X12460000Y-6150000D01*
X12460000Y-6110000D02*
X12420000Y-6150000D01*
X12530000Y-6750000D02*
X12570000Y-6790000D01*
X12570000Y-6750000D02*
X12530000Y-6790000D01*
X12530000Y-6880000D02*
X12570000Y-6920000D01*
X12570000Y-6880000D02*
X12530000Y-6920000D01*
X12610000Y-7022050D02*
X12650000Y-7062050D01*
X12650000Y-7022050D02*
X12610000Y-7062050D01*
X12722500Y-7770000D02*
X12762500Y-7810000D01*
X12762500Y-7770000D02*
X12722500Y-7810000D01*
X12725000Y-8062500D02*
X12765000Y-8102500D01*
X12765000Y-8062500D02*
X12725000Y-8102500D01*
X12725500Y-7874000D02*
X12765500Y-7914000D01*
X12765500Y-7874000D02*
X12725500Y-7914000D01*
X12731250Y-6611250D02*
X12771250Y-6651250D01*
X12771250Y-6611250D02*
X12731250Y-6651250D01*
X12810000Y-6760000D02*
X12850000Y-6800000D01*
X12850000Y-6760000D02*
X12810000Y-6800000D01*
X12810000Y-6880000D02*
X12850000Y-6920000D01*
X12850000Y-6880000D02*
X12810000Y-6920000D01*
X12810000Y-7499052D02*
X12850000Y-7539052D01*
X12850000Y-7499052D02*
X12810000Y-7539052D01*
X12840000Y-7020000D02*
X12880000Y-7060000D01*
X12880000Y-7020000D02*
X12840000Y-7060000D01*
X12859500Y-7699500D02*
X12899500Y-7739500D01*
X12899500Y-7699500D02*
X12859500Y-7739500D01*
X12940000Y-7020000D02*
X12980000Y-7060000D01*
X12980000Y-7020000D02*
X12940000Y-7060000D01*
X12974500Y-8692000D02*
X13014500Y-8732000D01*
X13014500Y-8692000D02*
X12974500Y-8732000D01*
X13028048Y-7561952D02*
X13068048Y-7601952D01*
X13068048Y-7561952D02*
X13028048Y-7601952D01*
X13030000Y-6100000D02*
X13070000Y-6140000D01*
X13070000Y-6100000D02*
X13030000Y-6140000D01*
X13030000Y-7380000D02*
X13070000Y-7420000D01*
X13070000Y-7380000D02*
X13030000Y-7420000D01*
X13047500Y-8175000D02*
X13087500Y-8215000D01*
X13087500Y-8175000D02*
X13047500Y-8215000D01*
X13130000Y-7380000D02*
X13170000Y-7420000D01*
X13170000Y-7380000D02*
X13130000Y-7420000D01*
X13280000Y-8640000D02*
X13320000Y-8680000D01*
X13320000Y-8640000D02*
X13280000Y-8680000D01*
X13285641Y-7606150D02*
X13325641Y-7646150D01*
X13325641Y-7606150D02*
X13285641Y-7646150D01*
X13350726Y-7532950D02*
X13390726Y-7572950D01*
X13390726Y-7532950D02*
X13350726Y-7572950D01*
X13780000Y-7720000D02*
X13820000Y-7760000D01*
X13820000Y-7720000D02*
X13780000Y-7760000D01*
X14110000Y-8790000D02*
X14150000Y-8830000D01*
X14150000Y-8790000D02*
X14110000Y-8830000D01*
X14110000Y-9000000D02*
X14150000Y-9040000D01*
X14150000Y-9000000D02*
X14110000Y-9040000D01*
X14120000Y-8590000D02*
X14160000Y-8630000D01*
X14160000Y-8590000D02*
X14120000Y-8630000D01*
X14130000Y-8310000D02*
X14170000Y-8350000D01*
X14170000Y-8310000D02*
X14130000Y-8350000D01*
X14312250Y-7930000D02*
X14352250Y-7970000D01*
X14352250Y-7930000D02*
X14312250Y-7970000D01*
X14462250Y-7930000D02*
X14502250Y-7970000D01*
X14502250Y-7930000D02*
X14462250Y-7970000D01*
X14490000Y-8720000D02*
X14530000Y-8760000D01*
X14530000Y-8720000D02*
X14490000Y-8760000D01*
X14713750Y-7604000D02*
X14753750Y-7644000D01*
X14753750Y-7604000D02*
X14713750Y-7644000D01*
X14713750Y-7758000D02*
X14753750Y-7798000D01*
X14753750Y-7758000D02*
X14713750Y-7798000D01*
X14713750Y-7874000D02*
X14753750Y-7914000D01*
X14753750Y-7874000D02*
X14713750Y-7914000D01*
X14745000Y-5965000D02*
X14785000Y-6005000D01*
X14785000Y-5965000D02*
X14745000Y-6005000D01*
X14893000Y-7583250D02*
X14933000Y-7623250D01*
X14933000Y-7583250D02*
X14893000Y-7623250D01*
X14940916Y-7784012D02*
X14980916Y-7824012D01*
X14980916Y-7784012D02*
X14940916Y-7824012D01*
X15091500Y-7966000D02*
X15131500Y-8006000D01*
X15131500Y-7966000D02*
X15091500Y-8006000D01*
X15202500Y-8010000D02*
X15242500Y-8050000D01*
X15242500Y-8010000D02*
X15202500Y-8050000D01*
X15210000Y-8430000D02*
X15250000Y-8470000D01*
X15250000Y-8430000D02*
X15210000Y-8470000D01*
X15212050Y-7703452D02*
X15252050Y-7743452D01*
X15252050Y-7703452D02*
X15212050Y-7743452D01*
X15250000Y-7540000D02*
X15290000Y-7580000D01*
X15290000Y-7540000D02*
X15250000Y-7580000D01*
X15480000Y-8490000D02*
X15520000Y-8530000D01*
X15520000Y-8490000D02*
X15480000Y-8530000D01*
X15590000Y-8500000D02*
X15630000Y-8540000D01*
X15630000Y-8500000D02*
X15590000Y-8540000D01*
X15665750Y-7759250D02*
X15705750Y-7799250D01*
X15705750Y-7759250D02*
X15665750Y-7799250D01*
X15700000Y-6902050D02*
X15740000Y-6942050D01*
X15740000Y-6902050D02*
X15700000Y-6942050D01*
X15742500Y-8460000D02*
X15782500Y-8500000D01*
X15782500Y-8460000D02*
X15742500Y-8500000D01*
X15784750Y-7759250D02*
X15824750Y-7799250D01*
X15824750Y-7759250D02*
X15784750Y-7799250D01*
X15800000Y-7240000D02*
X15840000Y-7280000D01*
X15840000Y-7240000D02*
X15800000Y-7280000D01*
X15882500Y-7760000D02*
X15922500Y-7800000D01*
X15922500Y-7760000D02*
X15882500Y-7800000D01*
X16000000Y-7760000D02*
X16040000Y-7800000D01*
X16040000Y-7760000D02*
X16000000Y-7800000D01*
X16070000Y-7090000D02*
X16110000Y-7130000D01*
X16110000Y-7090000D02*
X16070000Y-7130000D01*
X16200312Y-7329687D02*
X16240312Y-7369687D01*
X16240312Y-7329687D02*
X16200312Y-7369687D01*
X16390000Y-7750000D02*
X16430000Y-7790000D01*
X16430000Y-7750000D02*
X16390000Y-7790000D01*
X16400000Y-7910000D02*
X16440000Y-7950000D01*
X16440000Y-7910000D02*
X16400000Y-7950000D01*
X16625500Y-8345000D02*
X16665500Y-8385000D01*
X16665500Y-8345000D02*
X16625500Y-8385000D01*
X16890000Y-6930000D02*
X16930000Y-6970000D01*
X16930000Y-6930000D02*
X16890000Y-6970000D01*
X17090000Y-6930000D02*
X17130000Y-6970000D01*
X17130000Y-6930000D02*
X17090000Y-6970000D01*
X17200000Y-8110000D02*
X17240000Y-8150000D01*
X17240000Y-8110000D02*
X17200000Y-8150000D01*
X18185000Y-8110000D02*
X18225000Y-8150000D01*
X18225000Y-8110000D02*
X18185000Y-8150000D01*
D13*
X10044000Y-7500000D02*
G75*
G03*
X10044000Y-7500000I-30000J0D01*
G01*
D11*
X10054000Y-7470000D02*
X9974000Y-7470000D01*
X10054000Y-7530000D02*
X9974000Y-7530000D01*
X9974000Y-7470000D02*
G75*
G03*
X9974000Y-7530000I0J-30000D01*
G01*
X10054000Y-7530000D02*
G75*
G03*
X10054000Y-7470000I0J30000D01*
G01*
D13*
X10044000Y-8364000D02*
G75*
G03*
X10044000Y-8364000I-30000J0D01*
G01*
D11*
X10054000Y-8334000D02*
X9974000Y-8334000D01*
X10054000Y-8394000D02*
X9974000Y-8394000D01*
X9974000Y-8334000D02*
G75*
G03*
X9974000Y-8394000I0J-30000D01*
G01*
X10054000Y-8394000D02*
G75*
G03*
X10054000Y-8334000I0J30000D01*
G01*
D13*
X10464000Y-7500000D02*
G75*
G03*
X10464000Y-7500000I-30000J0D01*
G01*
D11*
X10489000Y-7470000D02*
X10379000Y-7470000D01*
X10489000Y-7530000D02*
X10379000Y-7530000D01*
X10379000Y-7470000D02*
G75*
G03*
X10379000Y-7530000I0J-30000D01*
G01*
X10489000Y-7530000D02*
G75*
G03*
X10489000Y-7470000I0J30000D01*
G01*
D13*
X10464000Y-8364000D02*
G75*
G03*
X10464000Y-8364000I-30000J0D01*
G01*
D11*
X10489000Y-8334000D02*
X10379000Y-8334000D01*
X10489000Y-8394000D02*
X10379000Y-8394000D01*
X10379000Y-8334000D02*
G75*
G03*
X10379000Y-8394000I0J-30000D01*
G01*
X10489000Y-8394000D02*
G75*
G03*
X10489000Y-8334000I0J30000D01*
G01*
D14*
X17654250Y-8581750D02*
X17654250Y-8671750D01*
X17609250Y-8626750D02*
X17699250Y-8626750D01*
X18054250Y-8581750D02*
X18054250Y-8671750D01*
X18009250Y-8626750D02*
X18099250Y-8626750D01*
X18454250Y-8581750D02*
X18454250Y-8671750D01*
X18409250Y-8626750D02*
X18499250Y-8626750D01*
D10*
X16905356Y-8735356D02*
X16905356Y-8664644D01*
X16834644Y-8664644D01*
X16834644Y-8735356D01*
X16905356Y-8735356D01*
X16905356Y-8989356D02*
X16905356Y-8918644D01*
X16834644Y-8918644D01*
X16834644Y-8989356D01*
X16905356Y-8989356D01*
X17159356Y-8735356D02*
X17159356Y-8664644D01*
X17088644Y-8664644D01*
X17088644Y-8735356D01*
X17159356Y-8735356D01*
X17159356Y-8989356D02*
X17159356Y-8918644D01*
X17088644Y-8918644D01*
X17088644Y-8989356D01*
X17159356Y-8989356D01*
D15*
X16385500Y-6803000D02*
X16436500Y-6752000D01*
X16385500Y-6701000D01*
X16334500Y-6752000D01*
X16385500Y-6803000D01*
X16385500Y-8302000D02*
X16436500Y-8251000D01*
X16385500Y-8200000D01*
X16334500Y-8251000D01*
X16385500Y-8302000D01*
D16*
X17394250Y-8391750D02*
X17514250Y-8511750D01*
X17514250Y-8391750D02*
X17394250Y-8511750D01*
X17514250Y-8451750D02*
G75*
G03*
X17514250Y-8451750I-60000J0D01*
G01*
X17394250Y-8991750D02*
X17514250Y-9111750D01*
X17514250Y-8991750D02*
X17394250Y-9111750D01*
X17514250Y-9051750D02*
G75*
G03*
X17514250Y-9051750I-60000J0D01*
G01*
X18594250Y-8391750D02*
X18714250Y-8511750D01*
X18714250Y-8391750D02*
X18594250Y-8511750D01*
X18714250Y-8451750D02*
G75*
G03*
X18714250Y-8451750I-60000J0D01*
G01*
X18594250Y-8991750D02*
X18714250Y-9111750D01*
X18714250Y-8991750D02*
X18594250Y-9111750D01*
X18714250Y-9051750D02*
G75*
G03*
X18714250Y-9051750I-60000J0D01*
G01*
D17*
X17044000Y-6030000D02*
X17196000Y-6182000D01*
X17196000Y-6030000D02*
X17044000Y-6182000D01*
X17120000Y-6030000D02*
X17120000Y-6182000D01*
X17044000Y-6106000D02*
X17196000Y-6106000D01*
X17044000Y-6538000D02*
X17196000Y-6690000D01*
X17196000Y-6538000D02*
X17044000Y-6690000D01*
X17120000Y-6538000D02*
X17120000Y-6690000D01*
X17044000Y-6614000D02*
X17196000Y-6614000D01*
D18*
X9890000Y-8690750D02*
X10210000Y-9010750D01*
X10210000Y-8690750D02*
X9890000Y-9010750D01*
X10163138Y-8963888D02*
X10163138Y-8737612D01*
X9936862Y-8737612D01*
X9936862Y-8963888D01*
X10163138Y-8963888D01*
X19190000Y-7340750D02*
X19510000Y-7660750D01*
X19510000Y-7340750D02*
X19190000Y-7660750D01*
X19463138Y-7613888D02*
X19463138Y-7387612D01*
X19236862Y-7387612D01*
X19236862Y-7613888D01*
X19463138Y-7613888D01*
D11*
X9950119Y-9514476D02*
X9950119Y-9314476D01*
X9997738Y-9314476D01*
X10026310Y-9324000D01*
X10045357Y-9343048D01*
X10054881Y-9362095D01*
X10064405Y-9400190D01*
X10064405Y-9428762D01*
X10054881Y-9466857D01*
X10045357Y-9485905D01*
X10026310Y-9504952D01*
X9997738Y-9514476D01*
X9950119Y-9514476D01*
X10150119Y-9514476D02*
X10150119Y-9381143D01*
X10150119Y-9419238D02*
X10159643Y-9400190D01*
X10169167Y-9390667D01*
X10188214Y-9381143D01*
X10207262Y-9381143D01*
X10273929Y-9514476D02*
X10273929Y-9381143D01*
X10273929Y-9314476D02*
X10264405Y-9324000D01*
X10273929Y-9333524D01*
X10283452Y-9324000D01*
X10273929Y-9314476D01*
X10273929Y-9333524D01*
X10397738Y-9514476D02*
X10378690Y-9504952D01*
X10369167Y-9485905D01*
X10369167Y-9314476D01*
X10502500Y-9514476D02*
X10483452Y-9504952D01*
X10473929Y-9485905D01*
X10473929Y-9314476D01*
X10731071Y-9514476D02*
X10731071Y-9314476D01*
X10797738Y-9457333D01*
X10864405Y-9314476D01*
X10864405Y-9514476D01*
X11045357Y-9514476D02*
X11045357Y-9409714D01*
X11035833Y-9390667D01*
X11016786Y-9381143D01*
X10978690Y-9381143D01*
X10959643Y-9390667D01*
X11045357Y-9504952D02*
X11026310Y-9514476D01*
X10978690Y-9514476D01*
X10959643Y-9504952D01*
X10950119Y-9485905D01*
X10950119Y-9466857D01*
X10959643Y-9447810D01*
X10978690Y-9438286D01*
X11026310Y-9438286D01*
X11045357Y-9428762D01*
X11140595Y-9381143D02*
X11140595Y-9581143D01*
X11140595Y-9390667D02*
X11159643Y-9381143D01*
X11197738Y-9381143D01*
X11216786Y-9390667D01*
X11226309Y-9400190D01*
X11235833Y-9419238D01*
X11235833Y-9476381D01*
X11226309Y-9495429D01*
X11216786Y-9504952D01*
X11197738Y-9514476D01*
X11159643Y-9514476D01*
X11140595Y-9504952D01*
X11321548Y-9495429D02*
X11331071Y-9504952D01*
X11321548Y-9514476D01*
X11312024Y-9504952D01*
X11321548Y-9495429D01*
X11321548Y-9514476D01*
X11321548Y-9390667D02*
X11331071Y-9400190D01*
X11321548Y-9409714D01*
X11312024Y-9400190D01*
X11321548Y-9390667D01*
X11321548Y-9409714D01*
D12*
X9652500Y-9824000D02*
X9692500Y-9864000D01*
X9692500Y-9824000D02*
X9652500Y-9864000D01*
D11*
X9988214Y-9734476D02*
X10007262Y-9734476D01*
X10026310Y-9744000D01*
X10035833Y-9753524D01*
X10045357Y-9772571D01*
X10054881Y-9810667D01*
X10054881Y-9858286D01*
X10045357Y-9896381D01*
X10035833Y-9915429D01*
X10026310Y-9924952D01*
X10007262Y-9934476D01*
X9988214Y-9934476D01*
X9969167Y-9924952D01*
X9959643Y-9915429D01*
X9950119Y-9896381D01*
X9940595Y-9858286D01*
X9940595Y-9810667D01*
X9950119Y-9772571D01*
X9959643Y-9753524D01*
X9969167Y-9744000D01*
X9988214Y-9734476D01*
X10140595Y-9915429D02*
X10150119Y-9924952D01*
X10140595Y-9934476D01*
X10131071Y-9924952D01*
X10140595Y-9915429D01*
X10140595Y-9934476D01*
X10321548Y-9801143D02*
X10321548Y-9934476D01*
X10273929Y-9724952D02*
X10226310Y-9867810D01*
X10350119Y-9867810D01*
X10464405Y-9734476D02*
X10483452Y-9734476D01*
X10502500Y-9744000D01*
X10512024Y-9753524D01*
X10521548Y-9772571D01*
X10531071Y-9810667D01*
X10531071Y-9858286D01*
X10521548Y-9896381D01*
X10512024Y-9915429D01*
X10502500Y-9924952D01*
X10483452Y-9934476D01*
X10464405Y-9934476D01*
X10445357Y-9924952D01*
X10435833Y-9915429D01*
X10426310Y-9896381D01*
X10416786Y-9858286D01*
X10416786Y-9810667D01*
X10426310Y-9772571D01*
X10435833Y-9753524D01*
X10445357Y-9744000D01*
X10464405Y-9734476D01*
X10654881Y-9734476D02*
X10673929Y-9734476D01*
X10692976Y-9744000D01*
X10702500Y-9753524D01*
X10712024Y-9772571D01*
X10721548Y-9810667D01*
X10721548Y-9858286D01*
X10712024Y-9896381D01*
X10702500Y-9915429D01*
X10692976Y-9924952D01*
X10673929Y-9934476D01*
X10654881Y-9934476D01*
X10635833Y-9924952D01*
X10626310Y-9915429D01*
X10616786Y-9896381D01*
X10607262Y-9858286D01*
X10607262Y-9810667D01*
X10616786Y-9772571D01*
X10626310Y-9753524D01*
X10635833Y-9744000D01*
X10654881Y-9734476D01*
X10807262Y-9934476D02*
X10807262Y-9801143D01*
X10807262Y-9820190D02*
X10816786Y-9810667D01*
X10835833Y-9801143D01*
X10864405Y-9801143D01*
X10883452Y-9810667D01*
X10892976Y-9829714D01*
X10892976Y-9934476D01*
X10892976Y-9829714D02*
X10902500Y-9810667D01*
X10921548Y-9801143D01*
X10950119Y-9801143D01*
X10969167Y-9810667D01*
X10978690Y-9829714D01*
X10978690Y-9934476D01*
X11073929Y-9934476D02*
X11073929Y-9801143D01*
X11073929Y-9820190D02*
X11083452Y-9810667D01*
X11102500Y-9801143D01*
X11131071Y-9801143D01*
X11150119Y-9810667D01*
X11159643Y-9829714D01*
X11159643Y-9934476D01*
X11159643Y-9829714D02*
X11169167Y-9810667D01*
X11188214Y-9801143D01*
X11216786Y-9801143D01*
X11235833Y-9810667D01*
X11245357Y-9829714D01*
X11245357Y-9934476D01*
X11635833Y-9724952D02*
X11464405Y-9982095D01*
X11892976Y-9734476D02*
X11912024Y-9734476D01*
X11931071Y-9744000D01*
X11940595Y-9753524D01*
X11950119Y-9772571D01*
X11959643Y-9810667D01*
X11959643Y-9858286D01*
X11950119Y-9896381D01*
X11940595Y-9915429D01*
X11931071Y-9924952D01*
X11912024Y-9934476D01*
X11892976Y-9934476D01*
X11873928Y-9924952D01*
X11864405Y-9915429D01*
X11854881Y-9896381D01*
X11845357Y-9858286D01*
X11845357Y-9810667D01*
X11854881Y-9772571D01*
X11864405Y-9753524D01*
X11873928Y-9744000D01*
X11892976Y-9734476D01*
X12045357Y-9915429D02*
X12054881Y-9924952D01*
X12045357Y-9934476D01*
X12035833Y-9924952D01*
X12045357Y-9915429D01*
X12045357Y-9934476D01*
X12178690Y-9734476D02*
X12197738Y-9734476D01*
X12216786Y-9744000D01*
X12226309Y-9753524D01*
X12235833Y-9772571D01*
X12245357Y-9810667D01*
X12245357Y-9858286D01*
X12235833Y-9896381D01*
X12226309Y-9915429D01*
X12216786Y-9924952D01*
X12197738Y-9934476D01*
X12178690Y-9934476D01*
X12159643Y-9924952D01*
X12150119Y-9915429D01*
X12140595Y-9896381D01*
X12131071Y-9858286D01*
X12131071Y-9810667D01*
X12140595Y-9772571D01*
X12150119Y-9753524D01*
X12159643Y-9744000D01*
X12178690Y-9734476D01*
X12435833Y-9934476D02*
X12321548Y-9934476D01*
X12378690Y-9934476D02*
X12378690Y-9734476D01*
X12359643Y-9763048D01*
X12340595Y-9782095D01*
X12321548Y-9791619D01*
X12616786Y-9734476D02*
X12521548Y-9734476D01*
X12512024Y-9829714D01*
X12521548Y-9820190D01*
X12540595Y-9810667D01*
X12588214Y-9810667D01*
X12607262Y-9820190D01*
X12616786Y-9829714D01*
X12626309Y-9848762D01*
X12626309Y-9896381D01*
X12616786Y-9915429D01*
X12607262Y-9924952D01*
X12588214Y-9934476D01*
X12540595Y-9934476D01*
X12521548Y-9924952D01*
X12512024Y-9915429D01*
X12692976Y-9734476D02*
X12826309Y-9734476D01*
X12740595Y-9934476D01*
X12892976Y-9734476D02*
X12892976Y-9772571D01*
X12969167Y-9734476D02*
X12969167Y-9772571D01*
X13264405Y-10010667D02*
X13254881Y-10001143D01*
X13235833Y-9972571D01*
X13226309Y-9953524D01*
X13216786Y-9924952D01*
X13207262Y-9877333D01*
X13207262Y-9839238D01*
X13216786Y-9791619D01*
X13226309Y-9763048D01*
X13235833Y-9744000D01*
X13254881Y-9715429D01*
X13264405Y-9705905D01*
X13445357Y-9934476D02*
X13331071Y-9934476D01*
X13388214Y-9934476D02*
X13388214Y-9734476D01*
X13369167Y-9763048D01*
X13350119Y-9782095D01*
X13331071Y-9791619D01*
X13569167Y-9734476D02*
X13588214Y-9734476D01*
X13607262Y-9744000D01*
X13616786Y-9753524D01*
X13626309Y-9772571D01*
X13635833Y-9810667D01*
X13635833Y-9858286D01*
X13626309Y-9896381D01*
X13616786Y-9915429D01*
X13607262Y-9924952D01*
X13588214Y-9934476D01*
X13569167Y-9934476D01*
X13550119Y-9924952D01*
X13540595Y-9915429D01*
X13531071Y-9896381D01*
X13521548Y-9858286D01*
X13521548Y-9810667D01*
X13531071Y-9772571D01*
X13540595Y-9753524D01*
X13550119Y-9744000D01*
X13569167Y-9734476D01*
X13816786Y-9734476D02*
X13721548Y-9734476D01*
X13712024Y-9829714D01*
X13721548Y-9820190D01*
X13740595Y-9810667D01*
X13788214Y-9810667D01*
X13807262Y-9820190D01*
X13816786Y-9829714D01*
X13826309Y-9848762D01*
X13826309Y-9896381D01*
X13816786Y-9915429D01*
X13807262Y-9924952D01*
X13788214Y-9934476D01*
X13740595Y-9934476D01*
X13721548Y-9924952D01*
X13712024Y-9915429D01*
X14064405Y-9934476D02*
X14064405Y-9734476D01*
X14150119Y-9934476D02*
X14150119Y-9829714D01*
X14140595Y-9810667D01*
X14121548Y-9801143D01*
X14092976Y-9801143D01*
X14073928Y-9810667D01*
X14064405Y-9820190D01*
X14273928Y-9934476D02*
X14254881Y-9924952D01*
X14245357Y-9915429D01*
X14235833Y-9896381D01*
X14235833Y-9839238D01*
X14245357Y-9820190D01*
X14254881Y-9810667D01*
X14273928Y-9801143D01*
X14302500Y-9801143D01*
X14321548Y-9810667D01*
X14331071Y-9820190D01*
X14340595Y-9839238D01*
X14340595Y-9896381D01*
X14331071Y-9915429D01*
X14321548Y-9924952D01*
X14302500Y-9934476D01*
X14273928Y-9934476D01*
X14454881Y-9934476D02*
X14435833Y-9924952D01*
X14426309Y-9905905D01*
X14426309Y-9734476D01*
X14607262Y-9924952D02*
X14588214Y-9934476D01*
X14550119Y-9934476D01*
X14531071Y-9924952D01*
X14521548Y-9905905D01*
X14521548Y-9829714D01*
X14531071Y-9810667D01*
X14550119Y-9801143D01*
X14588214Y-9801143D01*
X14607262Y-9810667D01*
X14616786Y-9829714D01*
X14616786Y-9848762D01*
X14521548Y-9867810D01*
X14692976Y-9924952D02*
X14712024Y-9934476D01*
X14750119Y-9934476D01*
X14769167Y-9924952D01*
X14778690Y-9905905D01*
X14778690Y-9896381D01*
X14769167Y-9877333D01*
X14750119Y-9867810D01*
X14721548Y-9867810D01*
X14702500Y-9858286D01*
X14692976Y-9839238D01*
X14692976Y-9829714D01*
X14702500Y-9810667D01*
X14721548Y-9801143D01*
X14750119Y-9801143D01*
X14769167Y-9810667D01*
X14845357Y-10010667D02*
X14854881Y-10001143D01*
X14873928Y-9972571D01*
X14883452Y-9953524D01*
X14892976Y-9924952D01*
X14902500Y-9877333D01*
X14902500Y-9839238D01*
X14892976Y-9791619D01*
X14883452Y-9763048D01*
X14873928Y-9744000D01*
X14854881Y-9715429D01*
X14845357Y-9705905D01*
D13*
X9692500Y-10108000D02*
G75*
G03*
X9692500Y-10108000I-30000J0D01*
G01*
D11*
X9988214Y-9998476D02*
X10007262Y-9998476D01*
X10026310Y-10008000D01*
X10035833Y-10017524D01*
X10045357Y-10036571D01*
X10054881Y-10074667D01*
X10054881Y-10122286D01*
X10045357Y-10160381D01*
X10035833Y-10179429D01*
X10026310Y-10188952D01*
X10007262Y-10198476D01*
X9988214Y-10198476D01*
X9969167Y-10188952D01*
X9959643Y-10179429D01*
X9950119Y-10160381D01*
X9940595Y-10122286D01*
X9940595Y-10074667D01*
X9950119Y-10036571D01*
X9959643Y-10017524D01*
X9969167Y-10008000D01*
X9988214Y-9998476D01*
X10140595Y-10179429D02*
X10150119Y-10188952D01*
X10140595Y-10198476D01*
X10131071Y-10188952D01*
X10140595Y-10179429D01*
X10140595Y-10198476D01*
X10321548Y-9998476D02*
X10283452Y-9998476D01*
X10264405Y-10008000D01*
X10254881Y-10017524D01*
X10235833Y-10046095D01*
X10226310Y-10084190D01*
X10226310Y-10160381D01*
X10235833Y-10179429D01*
X10245357Y-10188952D01*
X10264405Y-10198476D01*
X10302500Y-10198476D01*
X10321548Y-10188952D01*
X10331071Y-10179429D01*
X10340595Y-10160381D01*
X10340595Y-10112762D01*
X10331071Y-10093714D01*
X10321548Y-10084190D01*
X10302500Y-10074667D01*
X10264405Y-10074667D01*
X10245357Y-10084190D01*
X10235833Y-10093714D01*
X10226310Y-10112762D01*
X10464405Y-9998476D02*
X10483452Y-9998476D01*
X10502500Y-10008000D01*
X10512024Y-10017524D01*
X10521548Y-10036571D01*
X10531071Y-10074667D01*
X10531071Y-10122286D01*
X10521548Y-10160381D01*
X10512024Y-10179429D01*
X10502500Y-10188952D01*
X10483452Y-10198476D01*
X10464405Y-10198476D01*
X10445357Y-10188952D01*
X10435833Y-10179429D01*
X10426310Y-10160381D01*
X10416786Y-10122286D01*
X10416786Y-10074667D01*
X10426310Y-10036571D01*
X10435833Y-10017524D01*
X10445357Y-10008000D01*
X10464405Y-9998476D01*
X10654881Y-9998476D02*
X10673929Y-9998476D01*
X10692976Y-10008000D01*
X10702500Y-10017524D01*
X10712024Y-10036571D01*
X10721548Y-10074667D01*
X10721548Y-10122286D01*
X10712024Y-10160381D01*
X10702500Y-10179429D01*
X10692976Y-10188952D01*
X10673929Y-10198476D01*
X10654881Y-10198476D01*
X10635833Y-10188952D01*
X10626310Y-10179429D01*
X10616786Y-10160381D01*
X10607262Y-10122286D01*
X10607262Y-10074667D01*
X10616786Y-10036571D01*
X10626310Y-10017524D01*
X10635833Y-10008000D01*
X10654881Y-9998476D01*
X10807262Y-10198476D02*
X10807262Y-10065143D01*
X10807262Y-10084190D02*
X10816786Y-10074667D01*
X10835833Y-10065143D01*
X10864405Y-10065143D01*
X10883452Y-10074667D01*
X10892976Y-10093714D01*
X10892976Y-10198476D01*
X10892976Y-10093714D02*
X10902500Y-10074667D01*
X10921548Y-10065143D01*
X10950119Y-10065143D01*
X10969167Y-10074667D01*
X10978690Y-10093714D01*
X10978690Y-10198476D01*
X11073929Y-10198476D02*
X11073929Y-10065143D01*
X11073929Y-10084190D02*
X11083452Y-10074667D01*
X11102500Y-10065143D01*
X11131071Y-10065143D01*
X11150119Y-10074667D01*
X11159643Y-10093714D01*
X11159643Y-10198476D01*
X11159643Y-10093714D02*
X11169167Y-10074667D01*
X11188214Y-10065143D01*
X11216786Y-10065143D01*
X11235833Y-10074667D01*
X11245357Y-10093714D01*
X11245357Y-10198476D01*
X11635833Y-9988952D02*
X11464405Y-10246095D01*
X11892976Y-9998476D02*
X11912024Y-9998476D01*
X11931071Y-10008000D01*
X11940595Y-10017524D01*
X11950119Y-10036571D01*
X11959643Y-10074667D01*
X11959643Y-10122286D01*
X11950119Y-10160381D01*
X11940595Y-10179429D01*
X11931071Y-10188952D01*
X11912024Y-10198476D01*
X11892976Y-10198476D01*
X11873928Y-10188952D01*
X11864405Y-10179429D01*
X11854881Y-10160381D01*
X11845357Y-10122286D01*
X11845357Y-10074667D01*
X11854881Y-10036571D01*
X11864405Y-10017524D01*
X11873928Y-10008000D01*
X11892976Y-9998476D01*
X12045357Y-10179429D02*
X12054881Y-10188952D01*
X12045357Y-10198476D01*
X12035833Y-10188952D01*
X12045357Y-10179429D01*
X12045357Y-10198476D01*
X12178690Y-9998476D02*
X12197738Y-9998476D01*
X12216786Y-10008000D01*
X12226309Y-10017524D01*
X12235833Y-10036571D01*
X12245357Y-10074667D01*
X12245357Y-10122286D01*
X12235833Y-10160381D01*
X12226309Y-10179429D01*
X12216786Y-10188952D01*
X12197738Y-10198476D01*
X12178690Y-10198476D01*
X12159643Y-10188952D01*
X12150119Y-10179429D01*
X12140595Y-10160381D01*
X12131071Y-10122286D01*
X12131071Y-10074667D01*
X12140595Y-10036571D01*
X12150119Y-10017524D01*
X12159643Y-10008000D01*
X12178690Y-9998476D01*
X12321548Y-10017524D02*
X12331071Y-10008000D01*
X12350119Y-9998476D01*
X12397738Y-9998476D01*
X12416786Y-10008000D01*
X12426309Y-10017524D01*
X12435833Y-10036571D01*
X12435833Y-10055619D01*
X12426309Y-10084190D01*
X12312024Y-10198476D01*
X12435833Y-10198476D01*
X12502500Y-9998476D02*
X12626309Y-9998476D01*
X12559643Y-10074667D01*
X12588214Y-10074667D01*
X12607262Y-10084190D01*
X12616786Y-10093714D01*
X12626309Y-10112762D01*
X12626309Y-10160381D01*
X12616786Y-10179429D01*
X12607262Y-10188952D01*
X12588214Y-10198476D01*
X12531071Y-10198476D01*
X12512024Y-10188952D01*
X12502500Y-10179429D01*
X12797738Y-9998476D02*
X12759643Y-9998476D01*
X12740595Y-10008000D01*
X12731071Y-10017524D01*
X12712024Y-10046095D01*
X12702500Y-10084190D01*
X12702500Y-10160381D01*
X12712024Y-10179429D01*
X12721548Y-10188952D01*
X12740595Y-10198476D01*
X12778690Y-10198476D01*
X12797738Y-10188952D01*
X12807262Y-10179429D01*
X12816786Y-10160381D01*
X12816786Y-10112762D01*
X12807262Y-10093714D01*
X12797738Y-10084190D01*
X12778690Y-10074667D01*
X12740595Y-10074667D01*
X12721548Y-10084190D01*
X12712024Y-10093714D01*
X12702500Y-10112762D01*
X12892976Y-9998476D02*
X12892976Y-10036571D01*
X12969167Y-9998476D02*
X12969167Y-10036571D01*
X13264405Y-10274667D02*
X13254881Y-10265143D01*
X13235833Y-10236571D01*
X13226309Y-10217524D01*
X13216786Y-10188952D01*
X13207262Y-10141333D01*
X13207262Y-10103238D01*
X13216786Y-10055619D01*
X13226309Y-10027048D01*
X13235833Y-10008000D01*
X13254881Y-9979429D01*
X13264405Y-9969905D01*
X13378690Y-9998476D02*
X13397738Y-9998476D01*
X13416786Y-10008000D01*
X13426309Y-10017524D01*
X13435833Y-10036571D01*
X13445357Y-10074667D01*
X13445357Y-10122286D01*
X13435833Y-10160381D01*
X13426309Y-10179429D01*
X13416786Y-10188952D01*
X13397738Y-10198476D01*
X13378690Y-10198476D01*
X13359643Y-10188952D01*
X13350119Y-10179429D01*
X13340595Y-10160381D01*
X13331071Y-10122286D01*
X13331071Y-10074667D01*
X13340595Y-10036571D01*
X13350119Y-10017524D01*
X13359643Y-10008000D01*
X13378690Y-9998476D01*
X13683452Y-10198476D02*
X13683452Y-9998476D01*
X13769167Y-10198476D02*
X13769167Y-10093714D01*
X13759643Y-10074667D01*
X13740595Y-10065143D01*
X13712024Y-10065143D01*
X13692976Y-10074667D01*
X13683452Y-10084190D01*
X13892976Y-10198476D02*
X13873928Y-10188952D01*
X13864405Y-10179429D01*
X13854881Y-10160381D01*
X13854881Y-10103238D01*
X13864405Y-10084190D01*
X13873928Y-10074667D01*
X13892976Y-10065143D01*
X13921548Y-10065143D01*
X13940595Y-10074667D01*
X13950119Y-10084190D01*
X13959643Y-10103238D01*
X13959643Y-10160381D01*
X13950119Y-10179429D01*
X13940595Y-10188952D01*
X13921548Y-10198476D01*
X13892976Y-10198476D01*
X14073928Y-10198476D02*
X14054881Y-10188952D01*
X14045357Y-10169905D01*
X14045357Y-9998476D01*
X14226309Y-10188952D02*
X14207262Y-10198476D01*
X14169167Y-10198476D01*
X14150119Y-10188952D01*
X14140595Y-10169905D01*
X14140595Y-10093714D01*
X14150119Y-10074667D01*
X14169167Y-10065143D01*
X14207262Y-10065143D01*
X14226309Y-10074667D01*
X14235833Y-10093714D01*
X14235833Y-10112762D01*
X14140595Y-10131810D01*
X14312024Y-10188952D02*
X14331071Y-10198476D01*
X14369167Y-10198476D01*
X14388214Y-10188952D01*
X14397738Y-10169905D01*
X14397738Y-10160381D01*
X14388214Y-10141333D01*
X14369167Y-10131810D01*
X14340595Y-10131810D01*
X14321548Y-10122286D01*
X14312024Y-10103238D01*
X14312024Y-10093714D01*
X14321548Y-10074667D01*
X14340595Y-10065143D01*
X14369167Y-10065143D01*
X14388214Y-10074667D01*
X14635833Y-10122286D02*
X14788214Y-10122286D01*
X14712024Y-10198476D02*
X14712024Y-10046095D01*
X15121548Y-10065143D02*
X15121548Y-10198476D01*
X15073928Y-9988952D02*
X15026309Y-10131810D01*
X15150119Y-10131810D01*
X15369167Y-10188952D02*
X15388214Y-10198476D01*
X15426309Y-10198476D01*
X15445357Y-10188952D01*
X15454881Y-10169905D01*
X15454881Y-10160381D01*
X15445357Y-10141333D01*
X15426309Y-10131810D01*
X15397738Y-10131810D01*
X15378690Y-10122286D01*
X15369167Y-10103238D01*
X15369167Y-10093714D01*
X15378690Y-10074667D01*
X15397738Y-10065143D01*
X15426309Y-10065143D01*
X15445357Y-10074667D01*
X15569167Y-10198476D02*
X15550119Y-10188952D01*
X15540595Y-10169905D01*
X15540595Y-9998476D01*
X15673928Y-10198476D02*
X15654881Y-10188952D01*
X15645357Y-10179429D01*
X15635833Y-10160381D01*
X15635833Y-10103238D01*
X15645357Y-10084190D01*
X15654881Y-10074667D01*
X15673928Y-10065143D01*
X15702500Y-10065143D01*
X15721548Y-10074667D01*
X15731071Y-10084190D01*
X15740595Y-10103238D01*
X15740595Y-10160381D01*
X15731071Y-10179429D01*
X15721548Y-10188952D01*
X15702500Y-10198476D01*
X15673928Y-10198476D01*
X15797738Y-10065143D02*
X15873928Y-10065143D01*
X15826309Y-9998476D02*
X15826309Y-10169905D01*
X15835833Y-10188952D01*
X15854881Y-10198476D01*
X15873928Y-10198476D01*
X15931071Y-10188952D02*
X15950119Y-10198476D01*
X15988214Y-10198476D01*
X16007262Y-10188952D01*
X16016786Y-10169905D01*
X16016786Y-10160381D01*
X16007262Y-10141333D01*
X15988214Y-10131810D01*
X15959643Y-10131810D01*
X15940595Y-10122286D01*
X15931071Y-10103238D01*
X15931071Y-10093714D01*
X15940595Y-10074667D01*
X15959643Y-10065143D01*
X15988214Y-10065143D01*
X16007262Y-10074667D01*
X16083452Y-10274667D02*
X16092976Y-10265143D01*
X16112024Y-10236571D01*
X16121548Y-10217524D01*
X16131071Y-10188952D01*
X16140595Y-10141333D01*
X16140595Y-10103238D01*
X16131071Y-10055619D01*
X16121548Y-10027048D01*
X16112024Y-10008000D01*
X16092976Y-9979429D01*
X16083452Y-9969905D01*
D14*
X9647500Y-10327000D02*
X9647500Y-10417000D01*
X9602500Y-10372000D02*
X9692500Y-10372000D01*
D11*
X9988214Y-10262476D02*
X10007262Y-10262476D01*
X10026310Y-10272000D01*
X10035833Y-10281524D01*
X10045357Y-10300571D01*
X10054881Y-10338667D01*
X10054881Y-10386286D01*
X10045357Y-10424381D01*
X10035833Y-10443429D01*
X10026310Y-10452952D01*
X10007262Y-10462476D01*
X9988214Y-10462476D01*
X9969167Y-10452952D01*
X9959643Y-10443429D01*
X9950119Y-10424381D01*
X9940595Y-10386286D01*
X9940595Y-10338667D01*
X9950119Y-10300571D01*
X9959643Y-10281524D01*
X9969167Y-10272000D01*
X9988214Y-10262476D01*
X10140595Y-10443429D02*
X10150119Y-10452952D01*
X10140595Y-10462476D01*
X10131071Y-10452952D01*
X10140595Y-10443429D01*
X10140595Y-10462476D01*
X10245357Y-10462476D02*
X10283452Y-10462476D01*
X10302500Y-10452952D01*
X10312024Y-10443429D01*
X10331071Y-10414857D01*
X10340595Y-10376762D01*
X10340595Y-10300571D01*
X10331071Y-10281524D01*
X10321548Y-10272000D01*
X10302500Y-10262476D01*
X10264405Y-10262476D01*
X10245357Y-10272000D01*
X10235833Y-10281524D01*
X10226310Y-10300571D01*
X10226310Y-10348190D01*
X10235833Y-10367238D01*
X10245357Y-10376762D01*
X10264405Y-10386286D01*
X10302500Y-10386286D01*
X10321548Y-10376762D01*
X10331071Y-10367238D01*
X10340595Y-10348190D01*
X10464405Y-10262476D02*
X10483452Y-10262476D01*
X10502500Y-10272000D01*
X10512024Y-10281524D01*
X10521548Y-10300571D01*
X10531071Y-10338667D01*
X10531071Y-10386286D01*
X10521548Y-10424381D01*
X10512024Y-10443429D01*
X10502500Y-10452952D01*
X10483452Y-10462476D01*
X10464405Y-10462476D01*
X10445357Y-10452952D01*
X10435833Y-10443429D01*
X10426310Y-10424381D01*
X10416786Y-10386286D01*
X10416786Y-10338667D01*
X10426310Y-10300571D01*
X10435833Y-10281524D01*
X10445357Y-10272000D01*
X10464405Y-10262476D01*
X10654881Y-10262476D02*
X10673929Y-10262476D01*
X10692976Y-10272000D01*
X10702500Y-10281524D01*
X10712024Y-10300571D01*
X10721548Y-10338667D01*
X10721548Y-10386286D01*
X10712024Y-10424381D01*
X10702500Y-10443429D01*
X10692976Y-10452952D01*
X10673929Y-10462476D01*
X10654881Y-10462476D01*
X10635833Y-10452952D01*
X10626310Y-10443429D01*
X10616786Y-10424381D01*
X10607262Y-10386286D01*
X10607262Y-10338667D01*
X10616786Y-10300571D01*
X10626310Y-10281524D01*
X10635833Y-10272000D01*
X10654881Y-10262476D01*
X10807262Y-10462476D02*
X10807262Y-10329143D01*
X10807262Y-10348190D02*
X10816786Y-10338667D01*
X10835833Y-10329143D01*
X10864405Y-10329143D01*
X10883452Y-10338667D01*
X10892976Y-10357714D01*
X10892976Y-10462476D01*
X10892976Y-10357714D02*
X10902500Y-10338667D01*
X10921548Y-10329143D01*
X10950119Y-10329143D01*
X10969167Y-10338667D01*
X10978690Y-10357714D01*
X10978690Y-10462476D01*
X11073929Y-10462476D02*
X11073929Y-10329143D01*
X11073929Y-10348190D02*
X11083452Y-10338667D01*
X11102500Y-10329143D01*
X11131071Y-10329143D01*
X11150119Y-10338667D01*
X11159643Y-10357714D01*
X11159643Y-10462476D01*
X11159643Y-10357714D02*
X11169167Y-10338667D01*
X11188214Y-10329143D01*
X11216786Y-10329143D01*
X11235833Y-10338667D01*
X11245357Y-10357714D01*
X11245357Y-10462476D01*
X11635833Y-10252952D02*
X11464405Y-10510095D01*
X11892976Y-10262476D02*
X11912024Y-10262476D01*
X11931071Y-10272000D01*
X11940595Y-10281524D01*
X11950119Y-10300571D01*
X11959643Y-10338667D01*
X11959643Y-10386286D01*
X11950119Y-10424381D01*
X11940595Y-10443429D01*
X11931071Y-10452952D01*
X11912024Y-10462476D01*
X11892976Y-10462476D01*
X11873928Y-10452952D01*
X11864405Y-10443429D01*
X11854881Y-10424381D01*
X11845357Y-10386286D01*
X11845357Y-10338667D01*
X11854881Y-10300571D01*
X11864405Y-10281524D01*
X11873928Y-10272000D01*
X11892976Y-10262476D01*
X12045357Y-10443429D02*
X12054881Y-10452952D01*
X12045357Y-10462476D01*
X12035833Y-10452952D01*
X12045357Y-10443429D01*
X12045357Y-10462476D01*
X12178690Y-10262476D02*
X12197738Y-10262476D01*
X12216786Y-10272000D01*
X12226309Y-10281524D01*
X12235833Y-10300571D01*
X12245357Y-10338667D01*
X12245357Y-10386286D01*
X12235833Y-10424381D01*
X12226309Y-10443429D01*
X12216786Y-10452952D01*
X12197738Y-10462476D01*
X12178690Y-10462476D01*
X12159643Y-10452952D01*
X12150119Y-10443429D01*
X12140595Y-10424381D01*
X12131071Y-10386286D01*
X12131071Y-10338667D01*
X12140595Y-10300571D01*
X12150119Y-10281524D01*
X12159643Y-10272000D01*
X12178690Y-10262476D01*
X12312024Y-10262476D02*
X12435833Y-10262476D01*
X12369167Y-10338667D01*
X12397738Y-10338667D01*
X12416786Y-10348190D01*
X12426309Y-10357714D01*
X12435833Y-10376762D01*
X12435833Y-10424381D01*
X12426309Y-10443429D01*
X12416786Y-10452952D01*
X12397738Y-10462476D01*
X12340595Y-10462476D01*
X12321548Y-10452952D01*
X12312024Y-10443429D01*
X12616786Y-10262476D02*
X12521548Y-10262476D01*
X12512024Y-10357714D01*
X12521548Y-10348190D01*
X12540595Y-10338667D01*
X12588214Y-10338667D01*
X12607262Y-10348190D01*
X12616786Y-10357714D01*
X12626309Y-10376762D01*
X12626309Y-10424381D01*
X12616786Y-10443429D01*
X12607262Y-10452952D01*
X12588214Y-10462476D01*
X12540595Y-10462476D01*
X12521548Y-10452952D01*
X12512024Y-10443429D01*
X12797738Y-10329143D02*
X12797738Y-10462476D01*
X12750119Y-10252952D02*
X12702500Y-10395810D01*
X12826309Y-10395810D01*
X12892976Y-10262476D02*
X12892976Y-10300571D01*
X12969167Y-10262476D02*
X12969167Y-10300571D01*
X13264405Y-10538667D02*
X13254881Y-10529143D01*
X13235833Y-10500571D01*
X13226309Y-10481524D01*
X13216786Y-10452952D01*
X13207262Y-10405333D01*
X13207262Y-10367238D01*
X13216786Y-10319619D01*
X13226309Y-10291048D01*
X13235833Y-10272000D01*
X13254881Y-10243429D01*
X13264405Y-10233905D01*
X13321548Y-10262476D02*
X13445357Y-10262476D01*
X13378690Y-10338667D01*
X13407262Y-10338667D01*
X13426309Y-10348190D01*
X13435833Y-10357714D01*
X13445357Y-10376762D01*
X13445357Y-10424381D01*
X13435833Y-10443429D01*
X13426309Y-10452952D01*
X13407262Y-10462476D01*
X13350119Y-10462476D01*
X13331071Y-10452952D01*
X13321548Y-10443429D01*
X13683452Y-10462476D02*
X13683452Y-10262476D01*
X13769167Y-10462476D02*
X13769167Y-10357714D01*
X13759643Y-10338667D01*
X13740595Y-10329143D01*
X13712024Y-10329143D01*
X13692976Y-10338667D01*
X13683452Y-10348190D01*
X13892976Y-10462476D02*
X13873928Y-10452952D01*
X13864405Y-10443429D01*
X13854881Y-10424381D01*
X13854881Y-10367238D01*
X13864405Y-10348190D01*
X13873928Y-10338667D01*
X13892976Y-10329143D01*
X13921548Y-10329143D01*
X13940595Y-10338667D01*
X13950119Y-10348190D01*
X13959643Y-10367238D01*
X13959643Y-10424381D01*
X13950119Y-10443429D01*
X13940595Y-10452952D01*
X13921548Y-10462476D01*
X13892976Y-10462476D01*
X14073928Y-10462476D02*
X14054881Y-10452952D01*
X14045357Y-10433905D01*
X14045357Y-10262476D01*
X14226309Y-10452952D02*
X14207262Y-10462476D01*
X14169167Y-10462476D01*
X14150119Y-10452952D01*
X14140595Y-10433905D01*
X14140595Y-10357714D01*
X14150119Y-10338667D01*
X14169167Y-10329143D01*
X14207262Y-10329143D01*
X14226309Y-10338667D01*
X14235833Y-10357714D01*
X14235833Y-10376762D01*
X14140595Y-10395810D01*
X14312024Y-10452952D02*
X14331071Y-10462476D01*
X14369167Y-10462476D01*
X14388214Y-10452952D01*
X14397738Y-10433905D01*
X14397738Y-10424381D01*
X14388214Y-10405333D01*
X14369167Y-10395810D01*
X14340595Y-10395810D01*
X14321548Y-10386286D01*
X14312024Y-10367238D01*
X14312024Y-10357714D01*
X14321548Y-10338667D01*
X14340595Y-10329143D01*
X14369167Y-10329143D01*
X14388214Y-10338667D01*
X14464405Y-10538667D02*
X14473928Y-10529143D01*
X14492976Y-10500571D01*
X14502500Y-10481524D01*
X14512024Y-10452952D01*
X14521548Y-10405333D01*
X14521548Y-10367238D01*
X14512024Y-10319619D01*
X14502500Y-10291048D01*
X14492976Y-10272000D01*
X14473928Y-10243429D01*
X14464405Y-10233905D01*
D10*
X9677856Y-10671356D02*
X9677856Y-10600644D01*
X9607144Y-10600644D01*
X9607144Y-10671356D01*
X9677856Y-10671356D01*
D11*
X10054881Y-10726476D02*
X9940595Y-10726476D01*
X9997738Y-10726476D02*
X9997738Y-10526476D01*
X9978690Y-10555048D01*
X9959643Y-10574095D01*
X9940595Y-10583619D01*
X10140595Y-10707429D02*
X10150119Y-10716952D01*
X10140595Y-10726476D01*
X10131071Y-10716952D01*
X10140595Y-10707429D01*
X10140595Y-10726476D01*
X10273929Y-10526476D02*
X10292976Y-10526476D01*
X10312024Y-10536000D01*
X10321548Y-10545524D01*
X10331071Y-10564571D01*
X10340595Y-10602667D01*
X10340595Y-10650286D01*
X10331071Y-10688381D01*
X10321548Y-10707429D01*
X10312024Y-10716952D01*
X10292976Y-10726476D01*
X10273929Y-10726476D01*
X10254881Y-10716952D01*
X10245357Y-10707429D01*
X10235833Y-10688381D01*
X10226310Y-10650286D01*
X10226310Y-10602667D01*
X10235833Y-10564571D01*
X10245357Y-10545524D01*
X10254881Y-10536000D01*
X10273929Y-10526476D01*
X10464405Y-10526476D02*
X10483452Y-10526476D01*
X10502500Y-10536000D01*
X10512024Y-10545524D01*
X10521548Y-10564571D01*
X10531071Y-10602667D01*
X10531071Y-10650286D01*
X10521548Y-10688381D01*
X10512024Y-10707429D01*
X10502500Y-10716952D01*
X10483452Y-10726476D01*
X10464405Y-10726476D01*
X10445357Y-10716952D01*
X10435833Y-10707429D01*
X10426310Y-10688381D01*
X10416786Y-10650286D01*
X10416786Y-10602667D01*
X10426310Y-10564571D01*
X10435833Y-10545524D01*
X10445357Y-10536000D01*
X10464405Y-10526476D01*
X10654881Y-10526476D02*
X10673929Y-10526476D01*
X10692976Y-10536000D01*
X10702500Y-10545524D01*
X10712024Y-10564571D01*
X10721548Y-10602667D01*
X10721548Y-10650286D01*
X10712024Y-10688381D01*
X10702500Y-10707429D01*
X10692976Y-10716952D01*
X10673929Y-10726476D01*
X10654881Y-10726476D01*
X10635833Y-10716952D01*
X10626310Y-10707429D01*
X10616786Y-10688381D01*
X10607262Y-10650286D01*
X10607262Y-10602667D01*
X10616786Y-10564571D01*
X10626310Y-10545524D01*
X10635833Y-10536000D01*
X10654881Y-10526476D01*
X10807262Y-10726476D02*
X10807262Y-10593143D01*
X10807262Y-10612190D02*
X10816786Y-10602667D01*
X10835833Y-10593143D01*
X10864405Y-10593143D01*
X10883452Y-10602667D01*
X10892976Y-10621714D01*
X10892976Y-10726476D01*
X10892976Y-10621714D02*
X10902500Y-10602667D01*
X10921548Y-10593143D01*
X10950119Y-10593143D01*
X10969167Y-10602667D01*
X10978690Y-10621714D01*
X10978690Y-10726476D01*
X11073929Y-10726476D02*
X11073929Y-10593143D01*
X11073929Y-10612190D02*
X11083452Y-10602667D01*
X11102500Y-10593143D01*
X11131071Y-10593143D01*
X11150119Y-10602667D01*
X11159643Y-10621714D01*
X11159643Y-10726476D01*
X11159643Y-10621714D02*
X11169167Y-10602667D01*
X11188214Y-10593143D01*
X11216786Y-10593143D01*
X11235833Y-10602667D01*
X11245357Y-10621714D01*
X11245357Y-10726476D01*
X11635833Y-10516952D02*
X11464405Y-10774095D01*
X11892976Y-10526476D02*
X11912024Y-10526476D01*
X11931071Y-10536000D01*
X11940595Y-10545524D01*
X11950119Y-10564571D01*
X11959643Y-10602667D01*
X11959643Y-10650286D01*
X11950119Y-10688381D01*
X11940595Y-10707429D01*
X11931071Y-10716952D01*
X11912024Y-10726476D01*
X11892976Y-10726476D01*
X11873928Y-10716952D01*
X11864405Y-10707429D01*
X11854881Y-10688381D01*
X11845357Y-10650286D01*
X11845357Y-10602667D01*
X11854881Y-10564571D01*
X11864405Y-10545524D01*
X11873928Y-10536000D01*
X11892976Y-10526476D01*
X12045357Y-10707429D02*
X12054881Y-10716952D01*
X12045357Y-10726476D01*
X12035833Y-10716952D01*
X12045357Y-10707429D01*
X12045357Y-10726476D01*
X12178690Y-10526476D02*
X12197738Y-10526476D01*
X12216786Y-10536000D01*
X12226309Y-10545524D01*
X12235833Y-10564571D01*
X12245357Y-10602667D01*
X12245357Y-10650286D01*
X12235833Y-10688381D01*
X12226309Y-10707429D01*
X12216786Y-10716952D01*
X12197738Y-10726476D01*
X12178690Y-10726476D01*
X12159643Y-10716952D01*
X12150119Y-10707429D01*
X12140595Y-10688381D01*
X12131071Y-10650286D01*
X12131071Y-10602667D01*
X12140595Y-10564571D01*
X12150119Y-10545524D01*
X12159643Y-10536000D01*
X12178690Y-10526476D01*
X12312024Y-10526476D02*
X12435833Y-10526476D01*
X12369167Y-10602667D01*
X12397738Y-10602667D01*
X12416786Y-10612190D01*
X12426309Y-10621714D01*
X12435833Y-10640762D01*
X12435833Y-10688381D01*
X12426309Y-10707429D01*
X12416786Y-10716952D01*
X12397738Y-10726476D01*
X12340595Y-10726476D01*
X12321548Y-10716952D01*
X12312024Y-10707429D01*
X12531071Y-10726476D02*
X12569167Y-10726476D01*
X12588214Y-10716952D01*
X12597738Y-10707429D01*
X12616786Y-10678857D01*
X12626309Y-10640762D01*
X12626309Y-10564571D01*
X12616786Y-10545524D01*
X12607262Y-10536000D01*
X12588214Y-10526476D01*
X12550119Y-10526476D01*
X12531071Y-10536000D01*
X12521548Y-10545524D01*
X12512024Y-10564571D01*
X12512024Y-10612190D01*
X12521548Y-10631238D01*
X12531071Y-10640762D01*
X12550119Y-10650286D01*
X12588214Y-10650286D01*
X12607262Y-10640762D01*
X12616786Y-10631238D01*
X12626309Y-10612190D01*
X12797738Y-10593143D02*
X12797738Y-10726476D01*
X12750119Y-10516952D02*
X12702500Y-10659810D01*
X12826309Y-10659810D01*
X12892976Y-10526476D02*
X12892976Y-10564571D01*
X12969167Y-10526476D02*
X12969167Y-10564571D01*
X13264405Y-10802667D02*
X13254881Y-10793143D01*
X13235833Y-10764571D01*
X13226309Y-10745524D01*
X13216786Y-10716952D01*
X13207262Y-10669333D01*
X13207262Y-10631238D01*
X13216786Y-10583619D01*
X13226309Y-10555048D01*
X13235833Y-10536000D01*
X13254881Y-10507429D01*
X13264405Y-10497905D01*
X13426309Y-10593143D02*
X13426309Y-10726476D01*
X13378690Y-10516952D02*
X13331071Y-10659810D01*
X13454881Y-10659810D01*
X13683452Y-10726476D02*
X13683452Y-10526476D01*
X13769167Y-10726476D02*
X13769167Y-10621714D01*
X13759643Y-10602667D01*
X13740595Y-10593143D01*
X13712024Y-10593143D01*
X13692976Y-10602667D01*
X13683452Y-10612190D01*
X13892976Y-10726476D02*
X13873928Y-10716952D01*
X13864405Y-10707429D01*
X13854881Y-10688381D01*
X13854881Y-10631238D01*
X13864405Y-10612190D01*
X13873928Y-10602667D01*
X13892976Y-10593143D01*
X13921548Y-10593143D01*
X13940595Y-10602667D01*
X13950119Y-10612190D01*
X13959643Y-10631238D01*
X13959643Y-10688381D01*
X13950119Y-10707429D01*
X13940595Y-10716952D01*
X13921548Y-10726476D01*
X13892976Y-10726476D01*
X14073928Y-10726476D02*
X14054881Y-10716952D01*
X14045357Y-10697905D01*
X14045357Y-10526476D01*
X14226309Y-10716952D02*
X14207262Y-10726476D01*
X14169167Y-10726476D01*
X14150119Y-10716952D01*
X14140595Y-10697905D01*
X14140595Y-10621714D01*
X14150119Y-10602667D01*
X14169167Y-10593143D01*
X14207262Y-10593143D01*
X14226309Y-10602667D01*
X14235833Y-10621714D01*
X14235833Y-10640762D01*
X14140595Y-10659810D01*
X14312024Y-10716952D02*
X14331071Y-10726476D01*
X14369167Y-10726476D01*
X14388214Y-10716952D01*
X14397738Y-10697905D01*
X14397738Y-10688381D01*
X14388214Y-10669333D01*
X14369167Y-10659810D01*
X14340595Y-10659810D01*
X14321548Y-10650286D01*
X14312024Y-10631238D01*
X14312024Y-10621714D01*
X14321548Y-10602667D01*
X14340595Y-10593143D01*
X14369167Y-10593143D01*
X14388214Y-10602667D01*
X14464405Y-10802667D02*
X14473928Y-10793143D01*
X14492976Y-10764571D01*
X14502500Y-10745524D01*
X14512024Y-10716952D01*
X14521548Y-10669333D01*
X14521548Y-10631238D01*
X14512024Y-10583619D01*
X14502500Y-10555048D01*
X14492976Y-10536000D01*
X14473928Y-10507429D01*
X14464405Y-10497905D01*
D15*
X9641500Y-10951000D02*
X9692500Y-10900000D01*
X9641500Y-10849000D01*
X9590500Y-10900000D01*
X9641500Y-10951000D01*
D11*
X10054881Y-10990476D02*
X9940595Y-10990476D01*
X9997738Y-10990476D02*
X9997738Y-10790476D01*
X9978690Y-10819048D01*
X9959643Y-10838095D01*
X9940595Y-10847619D01*
X10140595Y-10971429D02*
X10150119Y-10980952D01*
X10140595Y-10990476D01*
X10131071Y-10980952D01*
X10140595Y-10971429D01*
X10140595Y-10990476D01*
X10273929Y-10790476D02*
X10292976Y-10790476D01*
X10312024Y-10800000D01*
X10321548Y-10809524D01*
X10331071Y-10828571D01*
X10340595Y-10866667D01*
X10340595Y-10914286D01*
X10331071Y-10952381D01*
X10321548Y-10971429D01*
X10312024Y-10980952D01*
X10292976Y-10990476D01*
X10273929Y-10990476D01*
X10254881Y-10980952D01*
X10245357Y-10971429D01*
X10235833Y-10952381D01*
X10226310Y-10914286D01*
X10226310Y-10866667D01*
X10235833Y-10828571D01*
X10245357Y-10809524D01*
X10254881Y-10800000D01*
X10273929Y-10790476D01*
X10416786Y-10809524D02*
X10426310Y-10800000D01*
X10445357Y-10790476D01*
X10492976Y-10790476D01*
X10512024Y-10800000D01*
X10521548Y-10809524D01*
X10531071Y-10828571D01*
X10531071Y-10847619D01*
X10521548Y-10876190D01*
X10407262Y-10990476D01*
X10531071Y-10990476D01*
X10654881Y-10790476D02*
X10673929Y-10790476D01*
X10692976Y-10800000D01*
X10702500Y-10809524D01*
X10712024Y-10828571D01*
X10721548Y-10866667D01*
X10721548Y-10914286D01*
X10712024Y-10952381D01*
X10702500Y-10971429D01*
X10692976Y-10980952D01*
X10673929Y-10990476D01*
X10654881Y-10990476D01*
X10635833Y-10980952D01*
X10626310Y-10971429D01*
X10616786Y-10952381D01*
X10607262Y-10914286D01*
X10607262Y-10866667D01*
X10616786Y-10828571D01*
X10626310Y-10809524D01*
X10635833Y-10800000D01*
X10654881Y-10790476D01*
X10807262Y-10990476D02*
X10807262Y-10857143D01*
X10807262Y-10876190D02*
X10816786Y-10866667D01*
X10835833Y-10857143D01*
X10864405Y-10857143D01*
X10883452Y-10866667D01*
X10892976Y-10885714D01*
X10892976Y-10990476D01*
X10892976Y-10885714D02*
X10902500Y-10866667D01*
X10921548Y-10857143D01*
X10950119Y-10857143D01*
X10969167Y-10866667D01*
X10978690Y-10885714D01*
X10978690Y-10990476D01*
X11073929Y-10990476D02*
X11073929Y-10857143D01*
X11073929Y-10876190D02*
X11083452Y-10866667D01*
X11102500Y-10857143D01*
X11131071Y-10857143D01*
X11150119Y-10866667D01*
X11159643Y-10885714D01*
X11159643Y-10990476D01*
X11159643Y-10885714D02*
X11169167Y-10866667D01*
X11188214Y-10857143D01*
X11216786Y-10857143D01*
X11235833Y-10866667D01*
X11245357Y-10885714D01*
X11245357Y-10990476D01*
X11635833Y-10780952D02*
X11464405Y-11038095D01*
X11892976Y-10790476D02*
X11912024Y-10790476D01*
X11931071Y-10800000D01*
X11940595Y-10809524D01*
X11950119Y-10828571D01*
X11959643Y-10866667D01*
X11959643Y-10914286D01*
X11950119Y-10952381D01*
X11940595Y-10971429D01*
X11931071Y-10980952D01*
X11912024Y-10990476D01*
X11892976Y-10990476D01*
X11873928Y-10980952D01*
X11864405Y-10971429D01*
X11854881Y-10952381D01*
X11845357Y-10914286D01*
X11845357Y-10866667D01*
X11854881Y-10828571D01*
X11864405Y-10809524D01*
X11873928Y-10800000D01*
X11892976Y-10790476D01*
X12045357Y-10971429D02*
X12054881Y-10980952D01*
X12045357Y-10990476D01*
X12035833Y-10980952D01*
X12045357Y-10971429D01*
X12045357Y-10990476D01*
X12178690Y-10790476D02*
X12197738Y-10790476D01*
X12216786Y-10800000D01*
X12226309Y-10809524D01*
X12235833Y-10828571D01*
X12245357Y-10866667D01*
X12245357Y-10914286D01*
X12235833Y-10952381D01*
X12226309Y-10971429D01*
X12216786Y-10980952D01*
X12197738Y-10990476D01*
X12178690Y-10990476D01*
X12159643Y-10980952D01*
X12150119Y-10971429D01*
X12140595Y-10952381D01*
X12131071Y-10914286D01*
X12131071Y-10866667D01*
X12140595Y-10828571D01*
X12150119Y-10809524D01*
X12159643Y-10800000D01*
X12178690Y-10790476D01*
X12416786Y-10857143D02*
X12416786Y-10990476D01*
X12369167Y-10780952D02*
X12321548Y-10923810D01*
X12445357Y-10923810D01*
X12559643Y-10790476D02*
X12578690Y-10790476D01*
X12597738Y-10800000D01*
X12607262Y-10809524D01*
X12616786Y-10828571D01*
X12626309Y-10866667D01*
X12626309Y-10914286D01*
X12616786Y-10952381D01*
X12607262Y-10971429D01*
X12597738Y-10980952D01*
X12578690Y-10990476D01*
X12559643Y-10990476D01*
X12540595Y-10980952D01*
X12531071Y-10971429D01*
X12521548Y-10952381D01*
X12512024Y-10914286D01*
X12512024Y-10866667D01*
X12521548Y-10828571D01*
X12531071Y-10809524D01*
X12540595Y-10800000D01*
X12559643Y-10790476D01*
X12702500Y-10809524D02*
X12712024Y-10800000D01*
X12731071Y-10790476D01*
X12778690Y-10790476D01*
X12797738Y-10800000D01*
X12807262Y-10809524D01*
X12816786Y-10828571D01*
X12816786Y-10847619D01*
X12807262Y-10876190D01*
X12692976Y-10990476D01*
X12816786Y-10990476D01*
X12892976Y-10790476D02*
X12892976Y-10828571D01*
X12969167Y-10790476D02*
X12969167Y-10828571D01*
X13264405Y-11066667D02*
X13254881Y-11057143D01*
X13235833Y-11028571D01*
X13226309Y-11009524D01*
X13216786Y-10980952D01*
X13207262Y-10933333D01*
X13207262Y-10895238D01*
X13216786Y-10847619D01*
X13226309Y-10819048D01*
X13235833Y-10800000D01*
X13254881Y-10771429D01*
X13264405Y-10761905D01*
X13331071Y-10809524D02*
X13340595Y-10800000D01*
X13359643Y-10790476D01*
X13407262Y-10790476D01*
X13426309Y-10800000D01*
X13435833Y-10809524D01*
X13445357Y-10828571D01*
X13445357Y-10847619D01*
X13435833Y-10876190D01*
X13321548Y-10990476D01*
X13445357Y-10990476D01*
X13683452Y-10990476D02*
X13683452Y-10790476D01*
X13769167Y-10990476D02*
X13769167Y-10885714D01*
X13759643Y-10866667D01*
X13740595Y-10857143D01*
X13712024Y-10857143D01*
X13692976Y-10866667D01*
X13683452Y-10876190D01*
X13892976Y-10990476D02*
X13873928Y-10980952D01*
X13864405Y-10971429D01*
X13854881Y-10952381D01*
X13854881Y-10895238D01*
X13864405Y-10876190D01*
X13873928Y-10866667D01*
X13892976Y-10857143D01*
X13921548Y-10857143D01*
X13940595Y-10866667D01*
X13950119Y-10876190D01*
X13959643Y-10895238D01*
X13959643Y-10952381D01*
X13950119Y-10971429D01*
X13940595Y-10980952D01*
X13921548Y-10990476D01*
X13892976Y-10990476D01*
X14073928Y-10990476D02*
X14054881Y-10980952D01*
X14045357Y-10961905D01*
X14045357Y-10790476D01*
X14226309Y-10980952D02*
X14207262Y-10990476D01*
X14169167Y-10990476D01*
X14150119Y-10980952D01*
X14140595Y-10961905D01*
X14140595Y-10885714D01*
X14150119Y-10866667D01*
X14169167Y-10857143D01*
X14207262Y-10857143D01*
X14226309Y-10866667D01*
X14235833Y-10885714D01*
X14235833Y-10904762D01*
X14140595Y-10923810D01*
X14312024Y-10980952D02*
X14331071Y-10990476D01*
X14369167Y-10990476D01*
X14388214Y-10980952D01*
X14397738Y-10961905D01*
X14397738Y-10952381D01*
X14388214Y-10933333D01*
X14369167Y-10923810D01*
X14340595Y-10923810D01*
X14321548Y-10914286D01*
X14312024Y-10895238D01*
X14312024Y-10885714D01*
X14321548Y-10866667D01*
X14340595Y-10857143D01*
X14369167Y-10857143D01*
X14388214Y-10866667D01*
X14464405Y-11066667D02*
X14473928Y-11057143D01*
X14492976Y-11028571D01*
X14502500Y-11009524D01*
X14512024Y-10980952D01*
X14521548Y-10933333D01*
X14521548Y-10895238D01*
X14512024Y-10847619D01*
X14502500Y-10819048D01*
X14492976Y-10800000D01*
X14473928Y-10771429D01*
X14464405Y-10761905D01*
D16*
X9572500Y-11104000D02*
X9692500Y-11224000D01*
X9692500Y-11104000D02*
X9572500Y-11224000D01*
X9692500Y-11164000D02*
G75*
G03*
X9692500Y-11164000I-60000J0D01*
G01*
D11*
X10054881Y-11254476D02*
X9940595Y-11254476D01*
X9997738Y-11254476D02*
X9997738Y-11054476D01*
X9978690Y-11083048D01*
X9959643Y-11102095D01*
X9940595Y-11111619D01*
X10140595Y-11235428D02*
X10150119Y-11244952D01*
X10140595Y-11254476D01*
X10131071Y-11244952D01*
X10140595Y-11235428D01*
X10140595Y-11254476D01*
X10226310Y-11073524D02*
X10235833Y-11064000D01*
X10254881Y-11054476D01*
X10302500Y-11054476D01*
X10321548Y-11064000D01*
X10331071Y-11073524D01*
X10340595Y-11092571D01*
X10340595Y-11111619D01*
X10331071Y-11140190D01*
X10216786Y-11254476D01*
X10340595Y-11254476D01*
X10464405Y-11054476D02*
X10483452Y-11054476D01*
X10502500Y-11064000D01*
X10512024Y-11073524D01*
X10521548Y-11092571D01*
X10531071Y-11130667D01*
X10531071Y-11178286D01*
X10521548Y-11216381D01*
X10512024Y-11235428D01*
X10502500Y-11244952D01*
X10483452Y-11254476D01*
X10464405Y-11254476D01*
X10445357Y-11244952D01*
X10435833Y-11235428D01*
X10426310Y-11216381D01*
X10416786Y-11178286D01*
X10416786Y-11130667D01*
X10426310Y-11092571D01*
X10435833Y-11073524D01*
X10445357Y-11064000D01*
X10464405Y-11054476D01*
X10654881Y-11054476D02*
X10673929Y-11054476D01*
X10692976Y-11064000D01*
X10702500Y-11073524D01*
X10712024Y-11092571D01*
X10721548Y-11130667D01*
X10721548Y-11178286D01*
X10712024Y-11216381D01*
X10702500Y-11235428D01*
X10692976Y-11244952D01*
X10673929Y-11254476D01*
X10654881Y-11254476D01*
X10635833Y-11244952D01*
X10626310Y-11235428D01*
X10616786Y-11216381D01*
X10607262Y-11178286D01*
X10607262Y-11130667D01*
X10616786Y-11092571D01*
X10626310Y-11073524D01*
X10635833Y-11064000D01*
X10654881Y-11054476D01*
X10807262Y-11254476D02*
X10807262Y-11121143D01*
X10807262Y-11140190D02*
X10816786Y-11130667D01*
X10835833Y-11121143D01*
X10864405Y-11121143D01*
X10883452Y-11130667D01*
X10892976Y-11149714D01*
X10892976Y-11254476D01*
X10892976Y-11149714D02*
X10902500Y-11130667D01*
X10921548Y-11121143D01*
X10950119Y-11121143D01*
X10969167Y-11130667D01*
X10978690Y-11149714D01*
X10978690Y-11254476D01*
X11073929Y-11254476D02*
X11073929Y-11121143D01*
X11073929Y-11140190D02*
X11083452Y-11130667D01*
X11102500Y-11121143D01*
X11131071Y-11121143D01*
X11150119Y-11130667D01*
X11159643Y-11149714D01*
X11159643Y-11254476D01*
X11159643Y-11149714D02*
X11169167Y-11130667D01*
X11188214Y-11121143D01*
X11216786Y-11121143D01*
X11235833Y-11130667D01*
X11245357Y-11149714D01*
X11245357Y-11254476D01*
X11635833Y-11044952D02*
X11464405Y-11302095D01*
X11892976Y-11054476D02*
X11912024Y-11054476D01*
X11931071Y-11064000D01*
X11940595Y-11073524D01*
X11950119Y-11092571D01*
X11959643Y-11130667D01*
X11959643Y-11178286D01*
X11950119Y-11216381D01*
X11940595Y-11235428D01*
X11931071Y-11244952D01*
X11912024Y-11254476D01*
X11892976Y-11254476D01*
X11873928Y-11244952D01*
X11864405Y-11235428D01*
X11854881Y-11216381D01*
X11845357Y-11178286D01*
X11845357Y-11130667D01*
X11854881Y-11092571D01*
X11864405Y-11073524D01*
X11873928Y-11064000D01*
X11892976Y-11054476D01*
X12045357Y-11235428D02*
X12054881Y-11244952D01*
X12045357Y-11254476D01*
X12035833Y-11244952D01*
X12045357Y-11235428D01*
X12045357Y-11254476D01*
X12178690Y-11054476D02*
X12197738Y-11054476D01*
X12216786Y-11064000D01*
X12226309Y-11073524D01*
X12235833Y-11092571D01*
X12245357Y-11130667D01*
X12245357Y-11178286D01*
X12235833Y-11216381D01*
X12226309Y-11235428D01*
X12216786Y-11244952D01*
X12197738Y-11254476D01*
X12178690Y-11254476D01*
X12159643Y-11244952D01*
X12150119Y-11235428D01*
X12140595Y-11216381D01*
X12131071Y-11178286D01*
X12131071Y-11130667D01*
X12140595Y-11092571D01*
X12150119Y-11073524D01*
X12159643Y-11064000D01*
X12178690Y-11054476D01*
X12416786Y-11121143D02*
X12416786Y-11254476D01*
X12369167Y-11044952D02*
X12321548Y-11187809D01*
X12445357Y-11187809D01*
X12502500Y-11054476D02*
X12635833Y-11054476D01*
X12550119Y-11254476D01*
X12702500Y-11073524D02*
X12712024Y-11064000D01*
X12731071Y-11054476D01*
X12778690Y-11054476D01*
X12797738Y-11064000D01*
X12807262Y-11073524D01*
X12816786Y-11092571D01*
X12816786Y-11111619D01*
X12807262Y-11140190D01*
X12692976Y-11254476D01*
X12816786Y-11254476D01*
X12892976Y-11054476D02*
X12892976Y-11092571D01*
X12969167Y-11054476D02*
X12969167Y-11092571D01*
X13264405Y-11330667D02*
X13254881Y-11321143D01*
X13235833Y-11292571D01*
X13226309Y-11273524D01*
X13216786Y-11244952D01*
X13207262Y-11197333D01*
X13207262Y-11159238D01*
X13216786Y-11111619D01*
X13226309Y-11083048D01*
X13235833Y-11064000D01*
X13254881Y-11035429D01*
X13264405Y-11025905D01*
X13426309Y-11121143D02*
X13426309Y-11254476D01*
X13378690Y-11044952D02*
X13331071Y-11187809D01*
X13454881Y-11187809D01*
X13683452Y-11254476D02*
X13683452Y-11054476D01*
X13769167Y-11254476D02*
X13769167Y-11149714D01*
X13759643Y-11130667D01*
X13740595Y-11121143D01*
X13712024Y-11121143D01*
X13692976Y-11130667D01*
X13683452Y-11140190D01*
X13892976Y-11254476D02*
X13873928Y-11244952D01*
X13864405Y-11235428D01*
X13854881Y-11216381D01*
X13854881Y-11159238D01*
X13864405Y-11140190D01*
X13873928Y-11130667D01*
X13892976Y-11121143D01*
X13921548Y-11121143D01*
X13940595Y-11130667D01*
X13950119Y-11140190D01*
X13959643Y-11159238D01*
X13959643Y-11216381D01*
X13950119Y-11235428D01*
X13940595Y-11244952D01*
X13921548Y-11254476D01*
X13892976Y-11254476D01*
X14073928Y-11254476D02*
X14054881Y-11244952D01*
X14045357Y-11225905D01*
X14045357Y-11054476D01*
X14226309Y-11244952D02*
X14207262Y-11254476D01*
X14169167Y-11254476D01*
X14150119Y-11244952D01*
X14140595Y-11225905D01*
X14140595Y-11149714D01*
X14150119Y-11130667D01*
X14169167Y-11121143D01*
X14207262Y-11121143D01*
X14226309Y-11130667D01*
X14235833Y-11149714D01*
X14235833Y-11168762D01*
X14140595Y-11187809D01*
X14312024Y-11244952D02*
X14331071Y-11254476D01*
X14369167Y-11254476D01*
X14388214Y-11244952D01*
X14397738Y-11225905D01*
X14397738Y-11216381D01*
X14388214Y-11197333D01*
X14369167Y-11187809D01*
X14340595Y-11187809D01*
X14321548Y-11178286D01*
X14312024Y-11159238D01*
X14312024Y-11149714D01*
X14321548Y-11130667D01*
X14340595Y-11121143D01*
X14369167Y-11121143D01*
X14388214Y-11130667D01*
X14464405Y-11330667D02*
X14473928Y-11321143D01*
X14492976Y-11292571D01*
X14502500Y-11273524D01*
X14512024Y-11244952D01*
X14521548Y-11197333D01*
X14521548Y-11159238D01*
X14512024Y-11111619D01*
X14502500Y-11083048D01*
X14492976Y-11064000D01*
X14473928Y-11035429D01*
X14464405Y-11025905D01*
D17*
X9540500Y-11352000D02*
X9692500Y-11504000D01*
X9692500Y-11352000D02*
X9540500Y-11504000D01*
X9616500Y-11352000D02*
X9616500Y-11504000D01*
X9540500Y-11428000D02*
X9692500Y-11428000D01*
D11*
X10054881Y-11518476D02*
X9940595Y-11518476D01*
X9997738Y-11518476D02*
X9997738Y-11318476D01*
X9978690Y-11347048D01*
X9959643Y-11366095D01*
X9940595Y-11375619D01*
X10140595Y-11499428D02*
X10150119Y-11508952D01*
X10140595Y-11518476D01*
X10131071Y-11508952D01*
X10140595Y-11499428D01*
X10140595Y-11518476D01*
X10331071Y-11318476D02*
X10235833Y-11318476D01*
X10226310Y-11413714D01*
X10235833Y-11404190D01*
X10254881Y-11394667D01*
X10302500Y-11394667D01*
X10321548Y-11404190D01*
X10331071Y-11413714D01*
X10340595Y-11432762D01*
X10340595Y-11480381D01*
X10331071Y-11499428D01*
X10321548Y-11508952D01*
X10302500Y-11518476D01*
X10254881Y-11518476D01*
X10235833Y-11508952D01*
X10226310Y-11499428D01*
X10416786Y-11337524D02*
X10426310Y-11328000D01*
X10445357Y-11318476D01*
X10492976Y-11318476D01*
X10512024Y-11328000D01*
X10521548Y-11337524D01*
X10531071Y-11356571D01*
X10531071Y-11375619D01*
X10521548Y-11404190D01*
X10407262Y-11518476D01*
X10531071Y-11518476D01*
X10654881Y-11318476D02*
X10673929Y-11318476D01*
X10692976Y-11328000D01*
X10702500Y-11337524D01*
X10712024Y-11356571D01*
X10721548Y-11394667D01*
X10721548Y-11442286D01*
X10712024Y-11480381D01*
X10702500Y-11499428D01*
X10692976Y-11508952D01*
X10673929Y-11518476D01*
X10654881Y-11518476D01*
X10635833Y-11508952D01*
X10626310Y-11499428D01*
X10616786Y-11480381D01*
X10607262Y-11442286D01*
X10607262Y-11394667D01*
X10616786Y-11356571D01*
X10626310Y-11337524D01*
X10635833Y-11328000D01*
X10654881Y-11318476D01*
X10807262Y-11518476D02*
X10807262Y-11385143D01*
X10807262Y-11404190D02*
X10816786Y-11394667D01*
X10835833Y-11385143D01*
X10864405Y-11385143D01*
X10883452Y-11394667D01*
X10892976Y-11413714D01*
X10892976Y-11518476D01*
X10892976Y-11413714D02*
X10902500Y-11394667D01*
X10921548Y-11385143D01*
X10950119Y-11385143D01*
X10969167Y-11394667D01*
X10978690Y-11413714D01*
X10978690Y-11518476D01*
X11073929Y-11518476D02*
X11073929Y-11385143D01*
X11073929Y-11404190D02*
X11083452Y-11394667D01*
X11102500Y-11385143D01*
X11131071Y-11385143D01*
X11150119Y-11394667D01*
X11159643Y-11413714D01*
X11159643Y-11518476D01*
X11159643Y-11413714D02*
X11169167Y-11394667D01*
X11188214Y-11385143D01*
X11216786Y-11385143D01*
X11235833Y-11394667D01*
X11245357Y-11413714D01*
X11245357Y-11518476D01*
X11635833Y-11308952D02*
X11464405Y-11566095D01*
X11892976Y-11318476D02*
X11912024Y-11318476D01*
X11931071Y-11328000D01*
X11940595Y-11337524D01*
X11950119Y-11356571D01*
X11959643Y-11394667D01*
X11959643Y-11442286D01*
X11950119Y-11480381D01*
X11940595Y-11499428D01*
X11931071Y-11508952D01*
X11912024Y-11518476D01*
X11892976Y-11518476D01*
X11873928Y-11508952D01*
X11864405Y-11499428D01*
X11854881Y-11480381D01*
X11845357Y-11442286D01*
X11845357Y-11394667D01*
X11854881Y-11356571D01*
X11864405Y-11337524D01*
X11873928Y-11328000D01*
X11892976Y-11318476D01*
X12045357Y-11499428D02*
X12054881Y-11508952D01*
X12045357Y-11518476D01*
X12035833Y-11508952D01*
X12045357Y-11499428D01*
X12045357Y-11518476D01*
X12178690Y-11318476D02*
X12197738Y-11318476D01*
X12216786Y-11328000D01*
X12226309Y-11337524D01*
X12235833Y-11356571D01*
X12245357Y-11394667D01*
X12245357Y-11442286D01*
X12235833Y-11480381D01*
X12226309Y-11499428D01*
X12216786Y-11508952D01*
X12197738Y-11518476D01*
X12178690Y-11518476D01*
X12159643Y-11508952D01*
X12150119Y-11499428D01*
X12140595Y-11480381D01*
X12131071Y-11442286D01*
X12131071Y-11394667D01*
X12140595Y-11356571D01*
X12150119Y-11337524D01*
X12159643Y-11328000D01*
X12178690Y-11318476D01*
X12426309Y-11318476D02*
X12331071Y-11318476D01*
X12321548Y-11413714D01*
X12331071Y-11404190D01*
X12350119Y-11394667D01*
X12397738Y-11394667D01*
X12416786Y-11404190D01*
X12426309Y-11413714D01*
X12435833Y-11432762D01*
X12435833Y-11480381D01*
X12426309Y-11499428D01*
X12416786Y-11508952D01*
X12397738Y-11518476D01*
X12350119Y-11518476D01*
X12331071Y-11508952D01*
X12321548Y-11499428D01*
X12531071Y-11518476D02*
X12569167Y-11518476D01*
X12588214Y-11508952D01*
X12597738Y-11499428D01*
X12616786Y-11470857D01*
X12626309Y-11432762D01*
X12626309Y-11356571D01*
X12616786Y-11337524D01*
X12607262Y-11328000D01*
X12588214Y-11318476D01*
X12550119Y-11318476D01*
X12531071Y-11328000D01*
X12521548Y-11337524D01*
X12512024Y-11356571D01*
X12512024Y-11404190D01*
X12521548Y-11423238D01*
X12531071Y-11432762D01*
X12550119Y-11442286D01*
X12588214Y-11442286D01*
X12607262Y-11432762D01*
X12616786Y-11423238D01*
X12626309Y-11404190D01*
X12740595Y-11404190D02*
X12721548Y-11394667D01*
X12712024Y-11385143D01*
X12702500Y-11366095D01*
X12702500Y-11356571D01*
X12712024Y-11337524D01*
X12721548Y-11328000D01*
X12740595Y-11318476D01*
X12778690Y-11318476D01*
X12797738Y-11328000D01*
X12807262Y-11337524D01*
X12816786Y-11356571D01*
X12816786Y-11366095D01*
X12807262Y-11385143D01*
X12797738Y-11394667D01*
X12778690Y-11404190D01*
X12740595Y-11404190D01*
X12721548Y-11413714D01*
X12712024Y-11423238D01*
X12702500Y-11442286D01*
X12702500Y-11480381D01*
X12712024Y-11499428D01*
X12721548Y-11508952D01*
X12740595Y-11518476D01*
X12778690Y-11518476D01*
X12797738Y-11508952D01*
X12807262Y-11499428D01*
X12816786Y-11480381D01*
X12816786Y-11442286D01*
X12807262Y-11423238D01*
X12797738Y-11413714D01*
X12778690Y-11404190D01*
X12892976Y-11318476D02*
X12892976Y-11356571D01*
X12969167Y-11318476D02*
X12969167Y-11356571D01*
X13264405Y-11594667D02*
X13254881Y-11585143D01*
X13235833Y-11556571D01*
X13226309Y-11537524D01*
X13216786Y-11508952D01*
X13207262Y-11461333D01*
X13207262Y-11423238D01*
X13216786Y-11375619D01*
X13226309Y-11347048D01*
X13235833Y-11328000D01*
X13254881Y-11299428D01*
X13264405Y-11289905D01*
X13331071Y-11337524D02*
X13340595Y-11328000D01*
X13359643Y-11318476D01*
X13407262Y-11318476D01*
X13426309Y-11328000D01*
X13435833Y-11337524D01*
X13445357Y-11356571D01*
X13445357Y-11375619D01*
X13435833Y-11404190D01*
X13321548Y-11518476D01*
X13445357Y-11518476D01*
X13683452Y-11518476D02*
X13683452Y-11318476D01*
X13769167Y-11518476D02*
X13769167Y-11413714D01*
X13759643Y-11394667D01*
X13740595Y-11385143D01*
X13712024Y-11385143D01*
X13692976Y-11394667D01*
X13683452Y-11404190D01*
X13892976Y-11518476D02*
X13873928Y-11508952D01*
X13864405Y-11499428D01*
X13854881Y-11480381D01*
X13854881Y-11423238D01*
X13864405Y-11404190D01*
X13873928Y-11394667D01*
X13892976Y-11385143D01*
X13921548Y-11385143D01*
X13940595Y-11394667D01*
X13950119Y-11404190D01*
X13959643Y-11423238D01*
X13959643Y-11480381D01*
X13950119Y-11499428D01*
X13940595Y-11508952D01*
X13921548Y-11518476D01*
X13892976Y-11518476D01*
X14073928Y-11518476D02*
X14054881Y-11508952D01*
X14045357Y-11489905D01*
X14045357Y-11318476D01*
X14226309Y-11508952D02*
X14207262Y-11518476D01*
X14169167Y-11518476D01*
X14150119Y-11508952D01*
X14140595Y-11489905D01*
X14140595Y-11413714D01*
X14150119Y-11394667D01*
X14169167Y-11385143D01*
X14207262Y-11385143D01*
X14226309Y-11394667D01*
X14235833Y-11413714D01*
X14235833Y-11432762D01*
X14140595Y-11451809D01*
X14312024Y-11508952D02*
X14331071Y-11518476D01*
X14369167Y-11518476D01*
X14388214Y-11508952D01*
X14397738Y-11489905D01*
X14397738Y-11480381D01*
X14388214Y-11461333D01*
X14369167Y-11451809D01*
X14340595Y-11451809D01*
X14321548Y-11442286D01*
X14312024Y-11423238D01*
X14312024Y-11413714D01*
X14321548Y-11394667D01*
X14340595Y-11385143D01*
X14369167Y-11385143D01*
X14388214Y-11394667D01*
X14464405Y-11594667D02*
X14473928Y-11585143D01*
X14492976Y-11556571D01*
X14502500Y-11537524D01*
X14512024Y-11508952D01*
X14521548Y-11461333D01*
X14521548Y-11423238D01*
X14512024Y-11375619D01*
X14502500Y-11347048D01*
X14492976Y-11328000D01*
X14473928Y-11299428D01*
X14464405Y-11289905D01*
X9492500Y-11600000D02*
X9692500Y-11800000D01*
X9692500Y-11600000D02*
X9492500Y-11800000D01*
X9663211Y-11770711D02*
X9663211Y-11629289D01*
X9521789Y-11629289D01*
X9521789Y-11770711D01*
X9663211Y-11770711D01*
X9931071Y-11590476D02*
X10054881Y-11590476D01*
X9988214Y-11666667D01*
X10016786Y-11666667D01*
X10035833Y-11676190D01*
X10045357Y-11685714D01*
X10054881Y-11704762D01*
X10054881Y-11752381D01*
X10045357Y-11771428D01*
X10035833Y-11780952D01*
X10016786Y-11790476D01*
X9959643Y-11790476D01*
X9940595Y-11780952D01*
X9931071Y-11771428D01*
X10140595Y-11771428D02*
X10150119Y-11780952D01*
X10140595Y-11790476D01*
X10131071Y-11780952D01*
X10140595Y-11771428D01*
X10140595Y-11790476D01*
X10226310Y-11609524D02*
X10235833Y-11600000D01*
X10254881Y-11590476D01*
X10302500Y-11590476D01*
X10321548Y-11600000D01*
X10331071Y-11609524D01*
X10340595Y-11628571D01*
X10340595Y-11647619D01*
X10331071Y-11676190D01*
X10216786Y-11790476D01*
X10340595Y-11790476D01*
X10464405Y-11590476D02*
X10483452Y-11590476D01*
X10502500Y-11600000D01*
X10512024Y-11609524D01*
X10521548Y-11628571D01*
X10531071Y-11666667D01*
X10531071Y-11714286D01*
X10521548Y-11752381D01*
X10512024Y-11771428D01*
X10502500Y-11780952D01*
X10483452Y-11790476D01*
X10464405Y-11790476D01*
X10445357Y-11780952D01*
X10435833Y-11771428D01*
X10426310Y-11752381D01*
X10416786Y-11714286D01*
X10416786Y-11666667D01*
X10426310Y-11628571D01*
X10435833Y-11609524D01*
X10445357Y-11600000D01*
X10464405Y-11590476D01*
X10654881Y-11590476D02*
X10673929Y-11590476D01*
X10692976Y-11600000D01*
X10702500Y-11609524D01*
X10712024Y-11628571D01*
X10721548Y-11666667D01*
X10721548Y-11714286D01*
X10712024Y-11752381D01*
X10702500Y-11771428D01*
X10692976Y-11780952D01*
X10673929Y-11790476D01*
X10654881Y-11790476D01*
X10635833Y-11780952D01*
X10626310Y-11771428D01*
X10616786Y-11752381D01*
X10607262Y-11714286D01*
X10607262Y-11666667D01*
X10616786Y-11628571D01*
X10626310Y-11609524D01*
X10635833Y-11600000D01*
X10654881Y-11590476D01*
X10807262Y-11790476D02*
X10807262Y-11657143D01*
X10807262Y-11676190D02*
X10816786Y-11666667D01*
X10835833Y-11657143D01*
X10864405Y-11657143D01*
X10883452Y-11666667D01*
X10892976Y-11685714D01*
X10892976Y-11790476D01*
X10892976Y-11685714D02*
X10902500Y-11666667D01*
X10921548Y-11657143D01*
X10950119Y-11657143D01*
X10969167Y-11666667D01*
X10978690Y-11685714D01*
X10978690Y-11790476D01*
X11073929Y-11790476D02*
X11073929Y-11657143D01*
X11073929Y-11676190D02*
X11083452Y-11666667D01*
X11102500Y-11657143D01*
X11131071Y-11657143D01*
X11150119Y-11666667D01*
X11159643Y-11685714D01*
X11159643Y-11790476D01*
X11159643Y-11685714D02*
X11169167Y-11666667D01*
X11188214Y-11657143D01*
X11216786Y-11657143D01*
X11235833Y-11666667D01*
X11245357Y-11685714D01*
X11245357Y-11790476D01*
X11635833Y-11580952D02*
X11464405Y-11838095D01*
X11892976Y-11590476D02*
X11912024Y-11590476D01*
X11931071Y-11600000D01*
X11940595Y-11609524D01*
X11950119Y-11628571D01*
X11959643Y-11666667D01*
X11959643Y-11714286D01*
X11950119Y-11752381D01*
X11940595Y-11771428D01*
X11931071Y-11780952D01*
X11912024Y-11790476D01*
X11892976Y-11790476D01*
X11873928Y-11780952D01*
X11864405Y-11771428D01*
X11854881Y-11752381D01*
X11845357Y-11714286D01*
X11845357Y-11666667D01*
X11854881Y-11628571D01*
X11864405Y-11609524D01*
X11873928Y-11600000D01*
X11892976Y-11590476D01*
X12045357Y-11771428D02*
X12054881Y-11780952D01*
X12045357Y-11790476D01*
X12035833Y-11780952D01*
X12045357Y-11771428D01*
X12045357Y-11790476D01*
X12245357Y-11790476D02*
X12131071Y-11790476D01*
X12188214Y-11790476D02*
X12188214Y-11590476D01*
X12169167Y-11619048D01*
X12150119Y-11638095D01*
X12131071Y-11647619D01*
X12321548Y-11609524D02*
X12331071Y-11600000D01*
X12350119Y-11590476D01*
X12397738Y-11590476D01*
X12416786Y-11600000D01*
X12426309Y-11609524D01*
X12435833Y-11628571D01*
X12435833Y-11647619D01*
X12426309Y-11676190D01*
X12312024Y-11790476D01*
X12435833Y-11790476D01*
X12607262Y-11590476D02*
X12569167Y-11590476D01*
X12550119Y-11600000D01*
X12540595Y-11609524D01*
X12521548Y-11638095D01*
X12512024Y-11676190D01*
X12512024Y-11752381D01*
X12521548Y-11771428D01*
X12531071Y-11780952D01*
X12550119Y-11790476D01*
X12588214Y-11790476D01*
X12607262Y-11780952D01*
X12616786Y-11771428D01*
X12626309Y-11752381D01*
X12626309Y-11704762D01*
X12616786Y-11685714D01*
X12607262Y-11676190D01*
X12588214Y-11666667D01*
X12550119Y-11666667D01*
X12531071Y-11676190D01*
X12521548Y-11685714D01*
X12512024Y-11704762D01*
X12750119Y-11590476D02*
X12769167Y-11590476D01*
X12788214Y-11600000D01*
X12797738Y-11609524D01*
X12807262Y-11628571D01*
X12816786Y-11666667D01*
X12816786Y-11714286D01*
X12807262Y-11752381D01*
X12797738Y-11771428D01*
X12788214Y-11780952D01*
X12769167Y-11790476D01*
X12750119Y-11790476D01*
X12731071Y-11780952D01*
X12721548Y-11771428D01*
X12712024Y-11752381D01*
X12702500Y-11714286D01*
X12702500Y-11666667D01*
X12712024Y-11628571D01*
X12721548Y-11609524D01*
X12731071Y-11600000D01*
X12750119Y-11590476D01*
X12892976Y-11590476D02*
X12892976Y-11628571D01*
X12969167Y-11590476D02*
X12969167Y-11628571D01*
X13264405Y-11866667D02*
X13254881Y-11857143D01*
X13235833Y-11828571D01*
X13226309Y-11809524D01*
X13216786Y-11780952D01*
X13207262Y-11733333D01*
X13207262Y-11695238D01*
X13216786Y-11647619D01*
X13226309Y-11619048D01*
X13235833Y-11600000D01*
X13254881Y-11571428D01*
X13264405Y-11561905D01*
X13331071Y-11609524D02*
X13340595Y-11600000D01*
X13359643Y-11590476D01*
X13407262Y-11590476D01*
X13426309Y-11600000D01*
X13435833Y-11609524D01*
X13445357Y-11628571D01*
X13445357Y-11647619D01*
X13435833Y-11676190D01*
X13321548Y-11790476D01*
X13445357Y-11790476D01*
X13683452Y-11790476D02*
X13683452Y-11590476D01*
X13769167Y-11790476D02*
X13769167Y-11685714D01*
X13759643Y-11666667D01*
X13740595Y-11657143D01*
X13712024Y-11657143D01*
X13692976Y-11666667D01*
X13683452Y-11676190D01*
X13892976Y-11790476D02*
X13873928Y-11780952D01*
X13864405Y-11771428D01*
X13854881Y-11752381D01*
X13854881Y-11695238D01*
X13864405Y-11676190D01*
X13873928Y-11666667D01*
X13892976Y-11657143D01*
X13921548Y-11657143D01*
X13940595Y-11666667D01*
X13950119Y-11676190D01*
X13959643Y-11695238D01*
X13959643Y-11752381D01*
X13950119Y-11771428D01*
X13940595Y-11780952D01*
X13921548Y-11790476D01*
X13892976Y-11790476D01*
X14073928Y-11790476D02*
X14054881Y-11780952D01*
X14045357Y-11761905D01*
X14045357Y-11590476D01*
X14226309Y-11780952D02*
X14207262Y-11790476D01*
X14169167Y-11790476D01*
X14150119Y-11780952D01*
X14140595Y-11761905D01*
X14140595Y-11685714D01*
X14150119Y-11666667D01*
X14169167Y-11657143D01*
X14207262Y-11657143D01*
X14226309Y-11666667D01*
X14235833Y-11685714D01*
X14235833Y-11704762D01*
X14140595Y-11723809D01*
X14312024Y-11780952D02*
X14331071Y-11790476D01*
X14369167Y-11790476D01*
X14388214Y-11780952D01*
X14397738Y-11761905D01*
X14397738Y-11752381D01*
X14388214Y-11733333D01*
X14369167Y-11723809D01*
X14340595Y-11723809D01*
X14321548Y-11714286D01*
X14312024Y-11695238D01*
X14312024Y-11685714D01*
X14321548Y-11666667D01*
X14340595Y-11657143D01*
X14369167Y-11657143D01*
X14388214Y-11666667D01*
X14464405Y-11866667D02*
X14473928Y-11857143D01*
X14492976Y-11828571D01*
X14502500Y-11809524D01*
X14512024Y-11780952D01*
X14521548Y-11733333D01*
X14521548Y-11695238D01*
X14512024Y-11647619D01*
X14502500Y-11619048D01*
X14492976Y-11600000D01*
X14473928Y-11571428D01*
X14464405Y-11561905D01*
M02*
