G04 #@! TF.GenerationSoftware,KiCad,Pcbnew,6.0.11-2627ca5db0~126~ubuntu22.04.1*
G04 #@! TF.CreationDate,2024-06-10T16:45:34-04:00*
G04 #@! TF.ProjectId,board,626f6172-642e-46b6-9963-61645f706362,rev?*
G04 #@! TF.SameCoordinates,Original*
G04 #@! TF.FileFunction,Legend,Top*
G04 #@! TF.FilePolarity,Positive*
%FSLAX46Y46*%
G04 Gerber Fmt 4.6, Leading zero omitted, Abs format (unit mm)*
G04 Created by KiCad (PCBNEW 6.0.11-2627ca5db0~126~ubuntu22.04.1) date 2024-06-10 16:45:34*
%MOMM*%
%LPD*%
G01*
G04 APERTURE LIST*
G04 Aperture macros list*
%AMRoundRect*
0 Rectangle with rounded corners*
0 $1 Rounding radius*
0 $2 $3 $4 $5 $6 $7 $8 $9 X,Y pos of 4 corners*
0 Add a 4 corners polygon primitive as box body*
4,1,4,$2,$3,$4,$5,$6,$7,$8,$9,$2,$3,0*
0 Add four circle primitives for the rounded corners*
1,1,$1+$1,$2,$3*
1,1,$1+$1,$4,$5*
1,1,$1+$1,$6,$7*
1,1,$1+$1,$8,$9*
0 Add four rect primitives between the rounded corners*
20,1,$1+$1,$2,$3,$4,$5,0*
20,1,$1+$1,$4,$5,$6,$7,0*
20,1,$1+$1,$6,$7,$8,$9,0*
20,1,$1+$1,$8,$9,$2,$3,0*%
%AMFreePoly0*
4,1,22,0.500000,-0.750000,0.000000,-0.750000,0.000000,-0.745033,-0.079941,-0.743568,-0.215256,-0.701293,-0.333266,-0.622738,-0.424486,-0.514219,-0.481581,-0.384460,-0.499164,-0.250000,-0.500000,-0.250000,-0.500000,0.250000,-0.499164,0.250000,-0.499963,0.256109,-0.478152,0.396186,-0.417904,0.524511,-0.324060,0.630769,-0.204165,0.706417,-0.067858,0.745374,0.000000,0.744959,0.000000,0.750000,
0.500000,0.750000,0.500000,-0.750000,0.500000,-0.750000,$1*%
%AMFreePoly1*
4,1,20,0.000000,0.744959,0.073905,0.744508,0.209726,0.703889,0.328688,0.626782,0.421226,0.519385,0.479903,0.390333,0.500000,0.250000,0.500000,-0.250000,0.499851,-0.262216,0.476331,-0.402017,0.414519,-0.529596,0.319384,-0.634700,0.198574,-0.708877,0.061801,-0.746166,0.000000,-0.745033,0.000000,-0.750000,-0.500000,-0.750000,-0.500000,0.750000,0.000000,0.750000,0.000000,0.744959,
0.000000,0.744959,$1*%
G04 Aperture macros list end*
%ADD10C,0.300000*%
%ADD11C,0.100000*%
%ADD12C,0.150000*%
%ADD13C,0.120000*%
%ADD14R,0.900000X1.200000*%
%ADD15RoundRect,0.225000X0.250000X-0.225000X0.250000X0.225000X-0.250000X0.225000X-0.250000X-0.225000X0*%
%ADD16RoundRect,0.200000X0.275000X-0.200000X0.275000X0.200000X-0.275000X0.200000X-0.275000X-0.200000X0*%
%ADD17RoundRect,0.140000X0.140000X0.170000X-0.140000X0.170000X-0.140000X-0.170000X0.140000X-0.170000X0*%
%ADD18RoundRect,0.200000X-0.275000X0.200000X-0.275000X-0.200000X0.275000X-0.200000X0.275000X0.200000X0*%
%ADD19RoundRect,0.150000X0.512500X0.150000X-0.512500X0.150000X-0.512500X-0.150000X0.512500X-0.150000X0*%
%ADD20FreePoly0,180.000000*%
%ADD21FreePoly1,180.000000*%
%ADD22FreePoly0,90.000000*%
%ADD23FreePoly1,90.000000*%
%ADD24RoundRect,0.200000X-0.200000X-0.275000X0.200000X-0.275000X0.200000X0.275000X-0.200000X0.275000X0*%
%ADD25RoundRect,0.225000X-0.250000X0.225000X-0.250000X-0.225000X0.250000X-0.225000X0.250000X0.225000X0*%
%ADD26R,3.000000X3.000000*%
%ADD27C,3.000000*%
%ADD28R,0.360000X0.250000*%
%ADD29R,0.510000X0.700000*%
%ADD30RoundRect,0.140000X-0.140000X-0.170000X0.140000X-0.170000X0.140000X0.170000X-0.140000X0.170000X0*%
%ADD31RoundRect,0.200000X0.200000X0.275000X-0.200000X0.275000X-0.200000X-0.275000X0.200000X-0.275000X0*%
%ADD32C,2.000000*%
%ADD33C,1.700000*%
%ADD34C,5.600000*%
%ADD35RoundRect,0.150000X0.150000X-0.587500X0.150000X0.587500X-0.150000X0.587500X-0.150000X-0.587500X0*%
%ADD36RoundRect,0.225000X-0.225000X-0.250000X0.225000X-0.250000X0.225000X0.250000X-0.225000X0.250000X0*%
%ADD37RoundRect,0.050000X0.050000X-0.387500X0.050000X0.387500X-0.050000X0.387500X-0.050000X-0.387500X0*%
%ADD38RoundRect,0.050000X0.387500X-0.050000X0.387500X0.050000X-0.387500X0.050000X-0.387500X-0.050000X0*%
%ADD39R,3.200000X3.200000*%
%ADD40R,1.100000X0.850000*%
%ADD41R,1.100000X0.750000*%
%ADD42R,1.000000X1.200000*%
%ADD43R,1.350000X1.900000*%
%ADD44R,1.800000X1.170000*%
%ADD45R,1.350000X1.550000*%
%ADD46RoundRect,0.062500X-0.375000X-0.062500X0.375000X-0.062500X0.375000X0.062500X-0.375000X0.062500X0*%
%ADD47RoundRect,0.062500X-0.062500X-0.375000X0.062500X-0.375000X0.062500X0.375000X-0.062500X0.375000X0*%
%ADD48R,1.600000X1.600000*%
%ADD49RoundRect,0.243750X0.243750X0.456250X-0.243750X0.456250X-0.243750X-0.456250X0.243750X-0.456250X0*%
%ADD50RoundRect,0.140000X0.170000X-0.140000X0.170000X0.140000X-0.170000X0.140000X-0.170000X-0.140000X0*%
%ADD51C,0.650000*%
%ADD52R,1.240000X0.600000*%
%ADD53R,1.240000X0.300000*%
%ADD54O,2.100000X1.000000*%
%ADD55O,1.800000X1.000000*%
%ADD56R,0.500000X0.250000*%
%ADD57R,0.900000X1.600000*%
%ADD58RoundRect,0.225000X0.225000X0.250000X-0.225000X0.250000X-0.225000X-0.250000X0.225000X-0.250000X0*%
%ADD59R,2.500000X1.900000*%
%ADD60RoundRect,0.150000X0.650000X0.150000X-0.650000X0.150000X-0.650000X-0.150000X0.650000X-0.150000X0*%
%ADD61R,1.800000X1.100000*%
%ADD62R,1.700000X1.700000*%
%ADD63O,1.700000X1.700000*%
%ADD64RoundRect,0.250000X-0.250000X-2.500000X0.250000X-2.500000X0.250000X2.500000X-0.250000X2.500000X0*%
%ADD65RoundRect,0.250000X-0.550000X-1.250000X0.550000X-1.250000X0.550000X1.250000X-0.550000X1.250000X0*%
%ADD66RoundRect,0.250000X-0.262500X-0.450000X0.262500X-0.450000X0.262500X0.450000X-0.262500X0.450000X0*%
%ADD67R,1.400000X1.200000*%
%ADD68C,3.300000*%
%ADD69R,2.000000X2.000000*%
G04 APERTURE END LIST*
D10*
X139815000Y-67490000D02*
G75*
G03*
X139815000Y-67490000I-3110016J0D01*
G01*
X139705000Y-82490000D02*
G75*
G03*
X139705000Y-82490000I-3040075J0D01*
G01*
X176714285Y-62042857D02*
X176714285Y-59757142D01*
D11*
X137152380Y-85926190D02*
X137319047Y-86426190D01*
X137485714Y-85926190D01*
X137533333Y-86473809D02*
X137914285Y-86473809D01*
X138009523Y-86402380D02*
X138080952Y-86426190D01*
X138200000Y-86426190D01*
X138247619Y-86402380D01*
X138271428Y-86378571D01*
X138295238Y-86330952D01*
X138295238Y-86283333D01*
X138271428Y-86235714D01*
X138247619Y-86211904D01*
X138200000Y-86188095D01*
X138104761Y-86164285D01*
X138057142Y-86140476D01*
X138033333Y-86116666D01*
X138009523Y-86069047D01*
X138009523Y-86021428D01*
X138033333Y-85973809D01*
X138057142Y-85950000D01*
X138104761Y-85926190D01*
X138223809Y-85926190D01*
X138295238Y-85950000D01*
X138509523Y-86164285D02*
X138676190Y-86164285D01*
X138747619Y-86426190D02*
X138509523Y-86426190D01*
X138509523Y-85926190D01*
X138747619Y-85926190D01*
X138961904Y-86426190D02*
X138961904Y-85926190D01*
X139247619Y-86426190D01*
X139247619Y-85926190D01*
X139461904Y-86402380D02*
X139533333Y-86426190D01*
X139652380Y-86426190D01*
X139700000Y-86402380D01*
X139723809Y-86378571D01*
X139747619Y-86330952D01*
X139747619Y-86283333D01*
X139723809Y-86235714D01*
X139700000Y-86211904D01*
X139652380Y-86188095D01*
X139557142Y-86164285D01*
X139509523Y-86140476D01*
X139485714Y-86116666D01*
X139461904Y-86069047D01*
X139461904Y-86021428D01*
X139485714Y-85973809D01*
X139509523Y-85950000D01*
X139557142Y-85926190D01*
X139676190Y-85926190D01*
X139747619Y-85950000D01*
X139961904Y-86164285D02*
X140128571Y-86164285D01*
X140200000Y-86426190D02*
X139961904Y-86426190D01*
X139961904Y-85926190D01*
X140200000Y-85926190D01*
X167800000Y-91671428D02*
X167800000Y-91071428D01*
X168028571Y-91071428D01*
X168085714Y-91100000D01*
X168114285Y-91128571D01*
X168142857Y-91185714D01*
X168142857Y-91271428D01*
X168114285Y-91328571D01*
X168085714Y-91357142D01*
X168028571Y-91385714D01*
X167800000Y-91385714D01*
X168514285Y-91071428D02*
X168628571Y-91071428D01*
X168685714Y-91100000D01*
X168742857Y-91157142D01*
X168771428Y-91271428D01*
X168771428Y-91471428D01*
X168742857Y-91585714D01*
X168685714Y-91642857D01*
X168628571Y-91671428D01*
X168514285Y-91671428D01*
X168457142Y-91642857D01*
X168400000Y-91585714D01*
X168371428Y-91471428D01*
X168371428Y-91271428D01*
X168400000Y-91157142D01*
X168457142Y-91100000D01*
X168514285Y-91071428D01*
X168971428Y-91071428D02*
X169114285Y-91671428D01*
X169228571Y-91242857D01*
X169342857Y-91671428D01*
X169485714Y-91071428D01*
X169714285Y-91357142D02*
X169914285Y-91357142D01*
X170000000Y-91671428D02*
X169714285Y-91671428D01*
X169714285Y-91071428D01*
X170000000Y-91071428D01*
X170600000Y-91671428D02*
X170400000Y-91385714D01*
X170257142Y-91671428D02*
X170257142Y-91071428D01*
X170485714Y-91071428D01*
X170542857Y-91100000D01*
X170571428Y-91128571D01*
X170600000Y-91185714D01*
X170600000Y-91271428D01*
X170571428Y-91328571D01*
X170542857Y-91357142D01*
X170485714Y-91385714D01*
X170257142Y-91385714D01*
X170714285Y-91728571D02*
X171171428Y-91728571D01*
X171314285Y-91357142D02*
X171514285Y-91357142D01*
X171600000Y-91671428D02*
X171314285Y-91671428D01*
X171314285Y-91071428D01*
X171600000Y-91071428D01*
X171857142Y-91671428D02*
X171857142Y-91071428D01*
X172200000Y-91671428D01*
X172200000Y-91071428D01*
X142778571Y-85526190D02*
X142802380Y-85550000D01*
X142826190Y-85621428D01*
X142826190Y-85669047D01*
X142802380Y-85740476D01*
X142754761Y-85788095D01*
X142707142Y-85811904D01*
X142611904Y-85835714D01*
X142540476Y-85835714D01*
X142445238Y-85811904D01*
X142397619Y-85788095D01*
X142350000Y-85740476D01*
X142326190Y-85669047D01*
X142326190Y-85621428D01*
X142350000Y-85550000D01*
X142373809Y-85526190D01*
X142826190Y-85311904D02*
X142326190Y-85311904D01*
X142564285Y-85311904D02*
X142564285Y-85026190D01*
X142826190Y-85026190D02*
X142326190Y-85026190D01*
X142826190Y-84502380D02*
X142588095Y-84669047D01*
X142826190Y-84788095D02*
X142326190Y-84788095D01*
X142326190Y-84597619D01*
X142350000Y-84550000D01*
X142373809Y-84526190D01*
X142421428Y-84502380D01*
X142492857Y-84502380D01*
X142540476Y-84526190D01*
X142564285Y-84550000D01*
X142588095Y-84597619D01*
X142588095Y-84788095D01*
X142873809Y-84407142D02*
X142873809Y-84026190D01*
X142826190Y-83669047D02*
X142826190Y-83907142D01*
X142326190Y-83907142D01*
X142564285Y-83502380D02*
X142564285Y-83335714D01*
X142826190Y-83264285D02*
X142826190Y-83502380D01*
X142326190Y-83502380D01*
X142326190Y-83264285D01*
X142826190Y-83050000D02*
X142326190Y-83050000D01*
X142326190Y-82930952D01*
X142350000Y-82859523D01*
X142397619Y-82811904D01*
X142445238Y-82788095D01*
X142540476Y-82764285D01*
X142611904Y-82764285D01*
X142707142Y-82788095D01*
X142754761Y-82811904D01*
X142802380Y-82859523D01*
X142826190Y-82930952D01*
X142826190Y-83050000D01*
X140259523Y-75478571D02*
X140235714Y-75502380D01*
X140164285Y-75526190D01*
X140116666Y-75526190D01*
X140045238Y-75502380D01*
X139997619Y-75454761D01*
X139973809Y-75407142D01*
X139950000Y-75311904D01*
X139950000Y-75240476D01*
X139973809Y-75145238D01*
X139997619Y-75097619D01*
X140045238Y-75050000D01*
X140116666Y-75026190D01*
X140164285Y-75026190D01*
X140235714Y-75050000D01*
X140259523Y-75073809D01*
X140473809Y-75526190D02*
X140473809Y-75026190D01*
X140473809Y-75264285D02*
X140759523Y-75264285D01*
X140759523Y-75526190D02*
X140759523Y-75026190D01*
X141283333Y-75526190D02*
X141116666Y-75288095D01*
X140997619Y-75526190D02*
X140997619Y-75026190D01*
X141188095Y-75026190D01*
X141235714Y-75050000D01*
X141259523Y-75073809D01*
X141283333Y-75121428D01*
X141283333Y-75192857D01*
X141259523Y-75240476D01*
X141235714Y-75264285D01*
X141188095Y-75288095D01*
X140997619Y-75288095D01*
X141378571Y-75573809D02*
X141759523Y-75573809D01*
X142164285Y-75478571D02*
X142140476Y-75502380D01*
X142069047Y-75526190D01*
X142021428Y-75526190D01*
X141950000Y-75502380D01*
X141902380Y-75454761D01*
X141878571Y-75407142D01*
X141854761Y-75311904D01*
X141854761Y-75240476D01*
X141878571Y-75145238D01*
X141902380Y-75097619D01*
X141950000Y-75050000D01*
X142021428Y-75026190D01*
X142069047Y-75026190D01*
X142140476Y-75050000D01*
X142164285Y-75073809D01*
X142307142Y-75026190D02*
X142592857Y-75026190D01*
X142450000Y-75526190D02*
X142450000Y-75026190D01*
X143045238Y-75526190D02*
X142878571Y-75288095D01*
X142759523Y-75526190D02*
X142759523Y-75026190D01*
X142950000Y-75026190D01*
X142997619Y-75050000D01*
X143021428Y-75073809D01*
X143045238Y-75121428D01*
X143045238Y-75192857D01*
X143021428Y-75240476D01*
X142997619Y-75264285D01*
X142950000Y-75288095D01*
X142759523Y-75288095D01*
X143497619Y-75526190D02*
X143259523Y-75526190D01*
X143259523Y-75026190D01*
X171188095Y-78376190D02*
X171188095Y-77876190D01*
X171378571Y-77876190D01*
X171426190Y-77900000D01*
X171450000Y-77923809D01*
X171473809Y-77971428D01*
X171473809Y-78042857D01*
X171450000Y-78090476D01*
X171426190Y-78114285D01*
X171378571Y-78138095D01*
X171188095Y-78138095D01*
X171640476Y-77876190D02*
X171759523Y-78376190D01*
X171854761Y-78019047D01*
X171950000Y-78376190D01*
X172069047Y-77876190D01*
X172545238Y-78376190D02*
X172378571Y-78138095D01*
X172259523Y-78376190D02*
X172259523Y-77876190D01*
X172450000Y-77876190D01*
X172497619Y-77900000D01*
X172521428Y-77923809D01*
X172545238Y-77971428D01*
X172545238Y-78042857D01*
X172521428Y-78090476D01*
X172497619Y-78114285D01*
X172450000Y-78138095D01*
X172259523Y-78138095D01*
X172640476Y-78423809D02*
X173021428Y-78423809D01*
X173140476Y-78114285D02*
X173307142Y-78114285D01*
X173378571Y-78376190D02*
X173140476Y-78376190D01*
X173140476Y-77876190D01*
X173378571Y-77876190D01*
X173592857Y-78376190D02*
X173592857Y-77876190D01*
X173878571Y-78376190D01*
X173878571Y-77876190D01*
X173997619Y-78423809D02*
X174378571Y-78423809D01*
X174497619Y-78376190D02*
X174497619Y-77876190D01*
X174688095Y-77876190D01*
X174735714Y-77900000D01*
X174759523Y-77923809D01*
X174783333Y-77971428D01*
X174783333Y-78042857D01*
X174759523Y-78090476D01*
X174735714Y-78114285D01*
X174688095Y-78138095D01*
X174497619Y-78138095D01*
X174997619Y-77876190D02*
X174997619Y-78280952D01*
X175021428Y-78328571D01*
X175045238Y-78352380D01*
X175092857Y-78376190D01*
X175188095Y-78376190D01*
X175235714Y-78352380D01*
X175259523Y-78328571D01*
X175283333Y-78280952D01*
X175283333Y-77876190D01*
X175759523Y-78376190D02*
X175521428Y-78376190D01*
X175521428Y-77876190D01*
X176164285Y-78376190D02*
X175926190Y-78376190D01*
X175926190Y-77876190D01*
X176330952Y-78376190D02*
X176330952Y-77876190D01*
X176450000Y-77876190D01*
X176521428Y-77900000D01*
X176569047Y-77947619D01*
X176592857Y-77995238D01*
X176616666Y-78090476D01*
X176616666Y-78161904D01*
X176592857Y-78257142D01*
X176569047Y-78304761D01*
X176521428Y-78352380D01*
X176450000Y-78376190D01*
X176330952Y-78376190D01*
X176926190Y-77876190D02*
X177021428Y-77876190D01*
X177069047Y-77900000D01*
X177116666Y-77947619D01*
X177140476Y-78042857D01*
X177140476Y-78209523D01*
X177116666Y-78304761D01*
X177069047Y-78352380D01*
X177021428Y-78376190D01*
X176926190Y-78376190D01*
X176878571Y-78352380D01*
X176830952Y-78304761D01*
X176807142Y-78209523D01*
X176807142Y-78042857D01*
X176830952Y-77947619D01*
X176878571Y-77900000D01*
X176926190Y-77876190D01*
X177307142Y-77876190D02*
X177426190Y-78376190D01*
X177521428Y-78019047D01*
X177616666Y-78376190D01*
X177735714Y-77876190D01*
X177926190Y-78376190D02*
X177926190Y-77876190D01*
X178211904Y-78376190D01*
X178211904Y-77876190D01*
D10*
X176714285Y-67642857D02*
X176714285Y-65357142D01*
X177857142Y-66500000D02*
X175571428Y-66500000D01*
X183664285Y-80678571D02*
X183950000Y-80678571D01*
X184092857Y-80750000D01*
X184235714Y-80892857D01*
X184307142Y-81178571D01*
X184307142Y-81678571D01*
X184235714Y-81964285D01*
X184092857Y-82107142D01*
X183950000Y-82178571D01*
X183664285Y-82178571D01*
X183521428Y-82107142D01*
X183378571Y-81964285D01*
X183307142Y-81678571D01*
X183307142Y-81178571D01*
X183378571Y-80892857D01*
X183521428Y-80750000D01*
X183664285Y-80678571D01*
X184950000Y-82178571D02*
X184950000Y-80678571D01*
X185807142Y-82178571D01*
X185807142Y-80678571D01*
X187592857Y-80607142D02*
X186307142Y-82535714D01*
X188378571Y-80678571D02*
X188664285Y-80678571D01*
X188807142Y-80750000D01*
X188950000Y-80892857D01*
X189021428Y-81178571D01*
X189021428Y-81678571D01*
X188950000Y-81964285D01*
X188807142Y-82107142D01*
X188664285Y-82178571D01*
X188378571Y-82178571D01*
X188235714Y-82107142D01*
X188092857Y-81964285D01*
X188021428Y-81678571D01*
X188021428Y-81178571D01*
X188092857Y-80892857D01*
X188235714Y-80750000D01*
X188378571Y-80678571D01*
X190164285Y-81392857D02*
X189664285Y-81392857D01*
X189664285Y-82178571D02*
X189664285Y-80678571D01*
X190378571Y-80678571D01*
X191450000Y-81392857D02*
X190950000Y-81392857D01*
X190950000Y-82178571D02*
X190950000Y-80678571D01*
X191664285Y-80678571D01*
D11*
X167876190Y-84902380D02*
X167947619Y-84926190D01*
X168066666Y-84926190D01*
X168114285Y-84902380D01*
X168138095Y-84878571D01*
X168161904Y-84830952D01*
X168161904Y-84783333D01*
X168138095Y-84735714D01*
X168114285Y-84711904D01*
X168066666Y-84688095D01*
X167971428Y-84664285D01*
X167923809Y-84640476D01*
X167900000Y-84616666D01*
X167876190Y-84569047D01*
X167876190Y-84521428D01*
X167900000Y-84473809D01*
X167923809Y-84450000D01*
X167971428Y-84426190D01*
X168090476Y-84426190D01*
X168161904Y-84450000D01*
X168328571Y-84426190D02*
X168447619Y-84926190D01*
X168542857Y-84569047D01*
X168638095Y-84926190D01*
X168757142Y-84426190D01*
X169233333Y-84878571D02*
X169209523Y-84902380D01*
X169138095Y-84926190D01*
X169090476Y-84926190D01*
X169019047Y-84902380D01*
X168971428Y-84854761D01*
X168947619Y-84807142D01*
X168923809Y-84711904D01*
X168923809Y-84640476D01*
X168947619Y-84545238D01*
X168971428Y-84497619D01*
X169019047Y-84450000D01*
X169090476Y-84426190D01*
X169138095Y-84426190D01*
X169209523Y-84450000D01*
X169233333Y-84473809D01*
X169685714Y-84926190D02*
X169447619Y-84926190D01*
X169447619Y-84426190D01*
X169852380Y-84926190D02*
X169852380Y-84426190D01*
X170138095Y-84926190D02*
X169923809Y-84640476D01*
X170138095Y-84426190D02*
X169852380Y-84711904D01*
X170376190Y-84902380D02*
X170376190Y-84926190D01*
X170352380Y-84973809D01*
X170328571Y-84997619D01*
X170566666Y-84902380D02*
X170638095Y-84926190D01*
X170757142Y-84926190D01*
X170804761Y-84902380D01*
X170828571Y-84878571D01*
X170852380Y-84830952D01*
X170852380Y-84783333D01*
X170828571Y-84735714D01*
X170804761Y-84711904D01*
X170757142Y-84688095D01*
X170661904Y-84664285D01*
X170614285Y-84640476D01*
X170590476Y-84616666D01*
X170566666Y-84569047D01*
X170566666Y-84521428D01*
X170590476Y-84473809D01*
X170614285Y-84450000D01*
X170661904Y-84426190D01*
X170780952Y-84426190D01*
X170852380Y-84450000D01*
X171019047Y-84426190D02*
X171138095Y-84926190D01*
X171233333Y-84569047D01*
X171328571Y-84926190D01*
X171447619Y-84426190D01*
X171638095Y-84926190D02*
X171638095Y-84426190D01*
X171757142Y-84426190D01*
X171828571Y-84450000D01*
X171876190Y-84497619D01*
X171900000Y-84545238D01*
X171923809Y-84640476D01*
X171923809Y-84711904D01*
X171900000Y-84807142D01*
X171876190Y-84854761D01*
X171828571Y-84902380D01*
X171757142Y-84926190D01*
X171638095Y-84926190D01*
D10*
X126867857Y-72382857D02*
X126367857Y-72382857D01*
X126367857Y-73168571D02*
X126367857Y-71668571D01*
X127082142Y-71668571D01*
X127939285Y-71668571D02*
X128225000Y-71668571D01*
X128367857Y-71740000D01*
X128510714Y-71882857D01*
X128582142Y-72168571D01*
X128582142Y-72668571D01*
X128510714Y-72954285D01*
X128367857Y-73097142D01*
X128225000Y-73168571D01*
X127939285Y-73168571D01*
X127796428Y-73097142D01*
X127653571Y-72954285D01*
X127582142Y-72668571D01*
X127582142Y-72168571D01*
X127653571Y-71882857D01*
X127796428Y-71740000D01*
X127939285Y-71668571D01*
X130082142Y-73168571D02*
X129582142Y-72454285D01*
X129225000Y-73168571D02*
X129225000Y-71668571D01*
X129796428Y-71668571D01*
X129939285Y-71740000D01*
X130010714Y-71811428D01*
X130082142Y-71954285D01*
X130082142Y-72168571D01*
X130010714Y-72311428D01*
X129939285Y-72382857D01*
X129796428Y-72454285D01*
X129225000Y-72454285D01*
X130725000Y-72382857D02*
X131225000Y-72382857D01*
X131439285Y-73168571D02*
X130725000Y-73168571D01*
X130725000Y-71668571D01*
X131439285Y-71668571D01*
X131867857Y-71668571D02*
X132367857Y-73168571D01*
X132867857Y-71668571D01*
X133367857Y-72382857D02*
X133867857Y-72382857D01*
X134082142Y-73168571D02*
X133367857Y-73168571D01*
X133367857Y-71668571D01*
X134082142Y-71668571D01*
X135582142Y-73168571D02*
X135082142Y-72454285D01*
X134725000Y-73168571D02*
X134725000Y-71668571D01*
X135296428Y-71668571D01*
X135439285Y-71740000D01*
X135510714Y-71811428D01*
X135582142Y-71954285D01*
X135582142Y-72168571D01*
X135510714Y-72311428D01*
X135439285Y-72382857D01*
X135296428Y-72454285D01*
X134725000Y-72454285D01*
X137225000Y-71668571D02*
X137582142Y-73168571D01*
X137867857Y-72097142D01*
X138153571Y-73168571D01*
X138510714Y-71668571D01*
X139082142Y-73168571D02*
X139082142Y-71668571D01*
X139796428Y-73168571D02*
X139796428Y-71668571D01*
X140367857Y-71668571D01*
X140510714Y-71740000D01*
X140582142Y-71811428D01*
X140653571Y-71954285D01*
X140653571Y-72168571D01*
X140582142Y-72311428D01*
X140510714Y-72382857D01*
X140367857Y-72454285D01*
X139796428Y-72454285D01*
X142225000Y-71668571D02*
X142725000Y-73168571D01*
X143225000Y-71668571D01*
X144010714Y-71668571D02*
X144153571Y-71668571D01*
X144296428Y-71740000D01*
X144367857Y-71811428D01*
X144439285Y-71954285D01*
X144510714Y-72240000D01*
X144510714Y-72597142D01*
X144439285Y-72882857D01*
X144367857Y-73025714D01*
X144296428Y-73097142D01*
X144153571Y-73168571D01*
X144010714Y-73168571D01*
X143867857Y-73097142D01*
X143796428Y-73025714D01*
X143725000Y-72882857D01*
X143653571Y-72597142D01*
X143653571Y-72240000D01*
X143725000Y-71954285D01*
X143796428Y-71811428D01*
X143867857Y-71740000D01*
X144010714Y-71668571D01*
X145153571Y-73025714D02*
X145225000Y-73097142D01*
X145153571Y-73168571D01*
X145082142Y-73097142D01*
X145153571Y-73025714D01*
X145153571Y-73168571D01*
X145725000Y-71668571D02*
X146653571Y-71668571D01*
X146153571Y-72240000D01*
X146367857Y-72240000D01*
X146510714Y-72311428D01*
X146582142Y-72382857D01*
X146653571Y-72525714D01*
X146653571Y-72882857D01*
X146582142Y-73025714D01*
X146510714Y-73097142D01*
X146367857Y-73168571D01*
X145939285Y-73168571D01*
X145796428Y-73097142D01*
X145725000Y-73025714D01*
D12*
X155138095Y-72552380D02*
X155138095Y-73361904D01*
X155185714Y-73457142D01*
X155233333Y-73504761D01*
X155328571Y-73552380D01*
X155519047Y-73552380D01*
X155614285Y-73504761D01*
X155661904Y-73457142D01*
X155709523Y-73361904D01*
X155709523Y-72552380D01*
X156614285Y-72885714D02*
X156614285Y-73552380D01*
X156376190Y-72504761D02*
X156138095Y-73219047D01*
X156757142Y-73219047D01*
X154738095Y-85702380D02*
X154738095Y-86511904D01*
X154785714Y-86607142D01*
X154833333Y-86654761D01*
X154928571Y-86702380D01*
X155119047Y-86702380D01*
X155214285Y-86654761D01*
X155261904Y-86607142D01*
X155309523Y-86511904D01*
X155309523Y-85702380D01*
X155690476Y-85702380D02*
X156309523Y-85702380D01*
X155976190Y-86083333D01*
X156119047Y-86083333D01*
X156214285Y-86130952D01*
X156261904Y-86178571D01*
X156309523Y-86273809D01*
X156309523Y-86511904D01*
X156261904Y-86607142D01*
X156214285Y-86654761D01*
X156119047Y-86702380D01*
X155833333Y-86702380D01*
X155738095Y-86654761D01*
X155690476Y-86607142D01*
X136147619Y-76895238D02*
X136100000Y-76990476D01*
X136004761Y-77085714D01*
X135861904Y-77228571D01*
X135814285Y-77323809D01*
X135814285Y-77419047D01*
X136052380Y-77371428D02*
X136004761Y-77466666D01*
X135909523Y-77561904D01*
X135719047Y-77609523D01*
X135385714Y-77609523D01*
X135195238Y-77561904D01*
X135100000Y-77466666D01*
X135052380Y-77371428D01*
X135052380Y-77180952D01*
X135100000Y-77085714D01*
X135195238Y-76990476D01*
X135385714Y-76942857D01*
X135719047Y-76942857D01*
X135909523Y-76990476D01*
X136004761Y-77085714D01*
X136052380Y-77180952D01*
X136052380Y-77371428D01*
X135147619Y-76561904D02*
X135100000Y-76514285D01*
X135052380Y-76419047D01*
X135052380Y-76180952D01*
X135100000Y-76085714D01*
X135147619Y-76038095D01*
X135242857Y-75990476D01*
X135338095Y-75990476D01*
X135480952Y-76038095D01*
X136052380Y-76609523D01*
X136052380Y-75990476D01*
X114787380Y-82601904D02*
X115596904Y-82601904D01*
X115692142Y-82554285D01*
X115739761Y-82506666D01*
X115787380Y-82411428D01*
X115787380Y-82220952D01*
X115739761Y-82125714D01*
X115692142Y-82078095D01*
X115596904Y-82030476D01*
X114787380Y-82030476D01*
X114787380Y-81125714D02*
X114787380Y-81316190D01*
X114835000Y-81411428D01*
X114882619Y-81459047D01*
X115025476Y-81554285D01*
X115215952Y-81601904D01*
X115596904Y-81601904D01*
X115692142Y-81554285D01*
X115739761Y-81506666D01*
X115787380Y-81411428D01*
X115787380Y-81220952D01*
X115739761Y-81125714D01*
X115692142Y-81078095D01*
X115596904Y-81030476D01*
X115358809Y-81030476D01*
X115263571Y-81078095D01*
X115215952Y-81125714D01*
X115168333Y-81220952D01*
X115168333Y-81411428D01*
X115215952Y-81506666D01*
X115263571Y-81554285D01*
X115358809Y-81601904D01*
X110866666Y-71152380D02*
X110866666Y-71866666D01*
X110819047Y-72009523D01*
X110723809Y-72104761D01*
X110580952Y-72152380D01*
X110485714Y-72152380D01*
X111247619Y-71152380D02*
X111866666Y-71152380D01*
X111533333Y-71533333D01*
X111676190Y-71533333D01*
X111771428Y-71580952D01*
X111819047Y-71628571D01*
X111866666Y-71723809D01*
X111866666Y-71961904D01*
X111819047Y-72057142D01*
X111771428Y-72104761D01*
X111676190Y-72152380D01*
X111390476Y-72152380D01*
X111295238Y-72104761D01*
X111247619Y-72057142D01*
X162869345Y-70147380D02*
X162869345Y-70956904D01*
X162916964Y-71052142D01*
X162964583Y-71099761D01*
X163059821Y-71147380D01*
X163250297Y-71147380D01*
X163345535Y-71099761D01*
X163393154Y-71052142D01*
X163440773Y-70956904D01*
X163440773Y-70147380D01*
X164393154Y-70147380D02*
X163916964Y-70147380D01*
X163869345Y-70623571D01*
X163916964Y-70575952D01*
X164012202Y-70528333D01*
X164250297Y-70528333D01*
X164345535Y-70575952D01*
X164393154Y-70623571D01*
X164440773Y-70718809D01*
X164440773Y-70956904D01*
X164393154Y-71052142D01*
X164345535Y-71099761D01*
X164250297Y-71147380D01*
X164012202Y-71147380D01*
X163916964Y-71099761D01*
X163869345Y-71052142D01*
X103991666Y-85002380D02*
X103991666Y-85716666D01*
X103944047Y-85859523D01*
X103848809Y-85954761D01*
X103705952Y-86002380D01*
X103610714Y-86002380D01*
X104991666Y-86002380D02*
X104420238Y-86002380D01*
X104705952Y-86002380D02*
X104705952Y-85002380D01*
X104610714Y-85145238D01*
X104515476Y-85240476D01*
X104420238Y-85288095D01*
X147400595Y-78972380D02*
X147400595Y-79781904D01*
X147448214Y-79877142D01*
X147495833Y-79924761D01*
X147591071Y-79972380D01*
X147781547Y-79972380D01*
X147876785Y-79924761D01*
X147924404Y-79877142D01*
X147972023Y-79781904D01*
X147972023Y-78972380D01*
X148400595Y-79067619D02*
X148448214Y-79020000D01*
X148543452Y-78972380D01*
X148781547Y-78972380D01*
X148876785Y-79020000D01*
X148924404Y-79067619D01*
X148972023Y-79162857D01*
X148972023Y-79258095D01*
X148924404Y-79400952D01*
X148352976Y-79972380D01*
X148972023Y-79972380D01*
X148663333Y-87982380D02*
X148187142Y-87982380D01*
X148187142Y-86982380D01*
X149520476Y-87982380D02*
X148949047Y-87982380D01*
X149234761Y-87982380D02*
X149234761Y-86982380D01*
X149139523Y-87125238D01*
X149044285Y-87220476D01*
X148949047Y-87268095D01*
X111973095Y-83102380D02*
X111973095Y-83911904D01*
X112020714Y-84007142D01*
X112068333Y-84054761D01*
X112163571Y-84102380D01*
X112354047Y-84102380D01*
X112449285Y-84054761D01*
X112496904Y-84007142D01*
X112544523Y-83911904D01*
X112544523Y-83102380D01*
X112925476Y-83102380D02*
X113592142Y-83102380D01*
X113163571Y-84102380D01*
X126266666Y-61204761D02*
X126409523Y-61252380D01*
X126647619Y-61252380D01*
X126742857Y-61204761D01*
X126790476Y-61157142D01*
X126838095Y-61061904D01*
X126838095Y-60966666D01*
X126790476Y-60871428D01*
X126742857Y-60823809D01*
X126647619Y-60776190D01*
X126457142Y-60728571D01*
X126361904Y-60680952D01*
X126314285Y-60633333D01*
X126266666Y-60538095D01*
X126266666Y-60442857D01*
X126314285Y-60347619D01*
X126361904Y-60300000D01*
X126457142Y-60252380D01*
X126695238Y-60252380D01*
X126838095Y-60300000D01*
X127171428Y-60252380D02*
X127409523Y-61252380D01*
X127600000Y-60538095D01*
X127790476Y-61252380D01*
X128028571Y-60252380D01*
X128838095Y-60252380D02*
X128647619Y-60252380D01*
X128552380Y-60300000D01*
X128504761Y-60347619D01*
X128409523Y-60490476D01*
X128361904Y-60680952D01*
X128361904Y-61061904D01*
X128409523Y-61157142D01*
X128457142Y-61204761D01*
X128552380Y-61252380D01*
X128742857Y-61252380D01*
X128838095Y-61204761D01*
X128885714Y-61157142D01*
X128933333Y-61061904D01*
X128933333Y-60823809D01*
X128885714Y-60728571D01*
X128838095Y-60680952D01*
X128742857Y-60633333D01*
X128552380Y-60633333D01*
X128457142Y-60680952D01*
X128409523Y-60728571D01*
X128361904Y-60823809D01*
X156931666Y-64522380D02*
X156931666Y-65236666D01*
X156884047Y-65379523D01*
X156788809Y-65474761D01*
X156645952Y-65522380D01*
X156550714Y-65522380D01*
X157836428Y-64855714D02*
X157836428Y-65522380D01*
X157598333Y-64474761D02*
X157360238Y-65189047D01*
X157979285Y-65189047D01*
X129298809Y-82886190D02*
X129298809Y-83362380D01*
X128965476Y-82362380D02*
X129298809Y-82886190D01*
X129632142Y-82362380D01*
X130489285Y-83362380D02*
X129917857Y-83362380D01*
X130203571Y-83362380D02*
X130203571Y-82362380D01*
X130108333Y-82505238D01*
X130013095Y-82600476D01*
X129917857Y-82648095D01*
X144004761Y-91447619D02*
X143909523Y-91400000D01*
X143814285Y-91304761D01*
X143671428Y-91161904D01*
X143576190Y-91114285D01*
X143480952Y-91114285D01*
X143528571Y-91352380D02*
X143433333Y-91304761D01*
X143338095Y-91209523D01*
X143290476Y-91019047D01*
X143290476Y-90685714D01*
X143338095Y-90495238D01*
X143433333Y-90400000D01*
X143528571Y-90352380D01*
X143719047Y-90352380D01*
X143814285Y-90400000D01*
X143909523Y-90495238D01*
X143957142Y-90685714D01*
X143957142Y-91019047D01*
X143909523Y-91209523D01*
X143814285Y-91304761D01*
X143719047Y-91352380D01*
X143528571Y-91352380D01*
X144909523Y-91352380D02*
X144338095Y-91352380D01*
X144623809Y-91352380D02*
X144623809Y-90352380D01*
X144528571Y-90495238D01*
X144433333Y-90590476D01*
X144338095Y-90638095D01*
D13*
X129350000Y-90300000D02*
X125450000Y-90300000D01*
X129350000Y-90300000D02*
X129350000Y-88300000D01*
X129350000Y-88300000D02*
X125450000Y-88300000D01*
X111610000Y-62140580D02*
X111610000Y-61859420D01*
X110590000Y-62140580D02*
X110590000Y-61859420D01*
X145330000Y-77847258D02*
X145330000Y-77372742D01*
X144285000Y-77847258D02*
X144285000Y-77372742D01*
X121322836Y-83710000D02*
X121107164Y-83710000D01*
X121322836Y-82990000D02*
X121107164Y-82990000D01*
X128272500Y-78892742D02*
X128272500Y-79367258D01*
X129317500Y-78892742D02*
X129317500Y-79367258D01*
X155630000Y-77080000D02*
X157430000Y-77080000D01*
X155630000Y-73960000D02*
X154830000Y-73960000D01*
X155630000Y-73960000D02*
X156430000Y-73960000D01*
X155630000Y-77080000D02*
X154830000Y-77080000D01*
X175150000Y-81600000D02*
X175150000Y-81000000D01*
X177250000Y-82300000D02*
X175850000Y-82300000D01*
X175850000Y-80300000D02*
X177250000Y-80300000D01*
X177950000Y-81000000D02*
X177950000Y-81600000D01*
X175850000Y-80300000D02*
G75*
G03*
X175150000Y-81000000I0J-700000D01*
G01*
X177950000Y-81000000D02*
G75*
G03*
X177250000Y-80300000I-699999J1D01*
G01*
X177250000Y-82300000D02*
G75*
G03*
X177950000Y-81600000I1J699999D01*
G01*
X175150000Y-81600000D02*
G75*
G03*
X175850000Y-82300000I700000J0D01*
G01*
X135250000Y-90300000D02*
X135250000Y-88300000D01*
X135250000Y-90300000D02*
X131350000Y-90300000D01*
X135250000Y-88300000D02*
X131350000Y-88300000D01*
X140200000Y-78200000D02*
X140200000Y-76800000D01*
X142200000Y-76800000D02*
X142200000Y-78200000D01*
X140900000Y-76100000D02*
X141500000Y-76100000D01*
X141500000Y-78900000D02*
X140900000Y-78900000D01*
X141500000Y-78900000D02*
G75*
G03*
X142200000Y-78200000I1J699999D01*
G01*
X140200000Y-78200000D02*
G75*
G03*
X140900000Y-78900000I699999J-1D01*
G01*
X142200000Y-76800000D02*
G75*
G03*
X141500000Y-76100000I-700000J0D01*
G01*
X140900000Y-76100000D02*
G75*
G03*
X140200000Y-76800000I0J-700000D01*
G01*
X179662742Y-80777500D02*
X180137258Y-80777500D01*
X179662742Y-81822500D02*
X180137258Y-81822500D01*
X151990000Y-82429420D02*
X151990000Y-82710580D01*
X153010000Y-82429420D02*
X153010000Y-82710580D01*
X114632836Y-74630000D02*
X114417164Y-74630000D01*
X114632836Y-73910000D02*
X114417164Y-73910000D01*
X160829086Y-76250000D02*
X160613414Y-76250000D01*
X160829086Y-76970000D02*
X160613414Y-76970000D01*
X175010000Y-68680000D02*
X175010000Y-58520000D01*
X167390000Y-68680000D02*
X175010000Y-68680000D01*
X167390000Y-58520000D02*
X167390000Y-68680000D01*
X173740000Y-58520000D02*
X173740000Y-68680000D01*
X175010000Y-58520000D02*
X167390000Y-58520000D01*
X108517500Y-80375000D02*
X107217500Y-80375000D01*
X108517500Y-79575000D02*
X107217500Y-79575000D01*
X107217500Y-79575000D02*
X107217500Y-80375000D01*
X114642836Y-76680000D02*
X114427164Y-76680000D01*
X114642836Y-75960000D02*
X114427164Y-75960000D01*
X153500000Y-82100000D02*
X153500000Y-84400000D01*
X156700000Y-83700000D02*
X156700000Y-82100000D01*
X125977164Y-78240000D02*
X126192836Y-78240000D01*
X125977164Y-77520000D02*
X126192836Y-77520000D01*
X123112258Y-88707500D02*
X122637742Y-88707500D01*
X123112258Y-89752500D02*
X122637742Y-89752500D01*
X135262742Y-86777500D02*
X135737258Y-86777500D01*
X135262742Y-87822500D02*
X135737258Y-87822500D01*
X170590000Y-71540580D02*
X170590000Y-71259420D01*
X171610000Y-71540580D02*
X171610000Y-71259420D01*
X175592500Y-84167500D02*
X185492500Y-84167500D01*
X187542500Y-84917500D02*
X187542500Y-90117500D01*
X173242500Y-84517500D02*
X173242500Y-83217500D01*
X173542500Y-90117500D02*
X173542500Y-84917500D01*
X173242500Y-83217500D02*
X174542500Y-83217500D01*
X185492500Y-90867500D02*
X175592500Y-90867500D01*
X139560000Y-76800000D02*
X139560000Y-77450000D01*
X136440000Y-76800000D02*
X136440000Y-78475000D01*
X136440000Y-76800000D02*
X136440000Y-76150000D01*
X139560000Y-76800000D02*
X139560000Y-76150000D01*
X111822500Y-69062742D02*
X111822500Y-69537258D01*
X110777500Y-69062742D02*
X110777500Y-69537258D01*
X113882836Y-77930000D02*
X113667164Y-77930000D01*
X113882836Y-78650000D02*
X113667164Y-78650000D01*
X127542258Y-82872500D02*
X127067742Y-82872500D01*
X127542258Y-81827500D02*
X127067742Y-81827500D01*
X154319420Y-77790000D02*
X154600580Y-77790000D01*
X154319420Y-78810000D02*
X154600580Y-78810000D01*
X108287742Y-79247500D02*
X108762258Y-79247500D01*
X108287742Y-78202500D02*
X108762258Y-78202500D01*
X113422500Y-62237258D02*
X113422500Y-61762742D01*
X112377500Y-62237258D02*
X112377500Y-61762742D01*
X151822500Y-76637258D02*
X151822500Y-76162742D01*
X150777500Y-76637258D02*
X150777500Y-76162742D01*
X129455000Y-85009420D02*
X129455000Y-85290580D01*
X130475000Y-85009420D02*
X130475000Y-85290580D01*
X108565000Y-76290000D02*
X107265000Y-76290000D01*
X108565000Y-75490000D02*
X107265000Y-75490000D01*
X107265000Y-75490000D02*
X107265000Y-76290000D01*
X125967164Y-79250000D02*
X126182836Y-79250000D01*
X125967164Y-78530000D02*
X126182836Y-78530000D01*
X120052500Y-65462742D02*
X120052500Y-65937258D01*
X121097500Y-65462742D02*
X121097500Y-65937258D01*
X158160000Y-75419420D02*
X158160000Y-75700580D01*
X159180000Y-75419420D02*
X159180000Y-75700580D01*
X123715000Y-75480000D02*
X123715000Y-74830000D01*
X116495000Y-75480000D02*
X116495000Y-74830000D01*
X123715000Y-74830000D02*
X123065000Y-74830000D01*
X116495000Y-81400000D02*
X116495000Y-82050000D01*
X123715000Y-81400000D02*
X123715000Y-82050000D01*
X116495000Y-74830000D02*
X117145000Y-74830000D01*
X123715000Y-82050000D02*
X123065000Y-82050000D01*
X109520000Y-60720000D02*
X109520000Y-59490000D01*
X105100000Y-71670000D02*
X107400000Y-71670000D01*
X109520000Y-59490000D02*
X99700000Y-59490000D01*
X109520000Y-71670000D02*
X109520000Y-68990000D01*
X97880000Y-70190000D02*
X97880000Y-69330000D01*
X108800000Y-71670000D02*
X109520000Y-71670000D01*
X99250000Y-71670000D02*
X103700000Y-71670000D01*
X109520000Y-66690000D02*
X109520000Y-63020000D01*
X144000000Y-82100000D02*
X144600000Y-82100000D01*
X143300000Y-84200000D02*
X143300000Y-82800000D01*
X145300000Y-82800000D02*
X145300000Y-84200000D01*
X144600000Y-84900000D02*
X144000000Y-84900000D01*
X144600000Y-84900000D02*
G75*
G03*
X145300000Y-84200000I1J699999D01*
G01*
X143300000Y-84200000D02*
G75*
G03*
X144000000Y-84900000I699999J-1D01*
G01*
X145300000Y-82800000D02*
G75*
G03*
X144600000Y-82100000I-700000J0D01*
G01*
X144000000Y-82100000D02*
G75*
G03*
X143300000Y-82800000I0J-700000D01*
G01*
X137350000Y-88200000D02*
X137350000Y-87600000D01*
X138050000Y-86900000D02*
X139450000Y-86900000D01*
X140150000Y-87600000D02*
X140150000Y-88200000D01*
X139450000Y-88900000D02*
X138050000Y-88900000D01*
X137350000Y-88200000D02*
G75*
G03*
X138050000Y-88900000I700000J0D01*
G01*
X140150000Y-87600000D02*
G75*
G03*
X139450000Y-86900000I-699999J1D01*
G01*
X139450000Y-88900000D02*
G75*
G03*
X140150000Y-88200000I1J699999D01*
G01*
X138050000Y-86900000D02*
G75*
G03*
X137350000Y-87600000I0J-700000D01*
G01*
X119507500Y-65147258D02*
X119507500Y-64672742D01*
X118462500Y-65147258D02*
X118462500Y-64672742D01*
X143745000Y-77847258D02*
X143745000Y-77372742D01*
X142700000Y-77847258D02*
X142700000Y-77372742D01*
X163831250Y-71905000D02*
X163831250Y-72380000D01*
X163356250Y-71905000D02*
X163831250Y-71905000D01*
X161086250Y-71905000D02*
X160611250Y-71905000D01*
X160611250Y-75125000D02*
X160611250Y-74650000D01*
X161086250Y-75125000D02*
X160611250Y-75125000D01*
X163356250Y-75125000D02*
X163831250Y-75125000D01*
X163831250Y-75125000D02*
X163831250Y-74650000D01*
X140485000Y-89840000D02*
X137800000Y-89840000D01*
X140485000Y-91760000D02*
X140485000Y-89840000D01*
X137800000Y-91760000D02*
X140485000Y-91760000D01*
X143762742Y-81422500D02*
X144237258Y-81422500D01*
X143762742Y-80377500D02*
X144237258Y-80377500D01*
X156877500Y-79837258D02*
X156877500Y-79362742D01*
X157922500Y-79837258D02*
X157922500Y-79362742D01*
X118057164Y-83000000D02*
X118272836Y-83000000D01*
X118057164Y-83720000D02*
X118272836Y-83720000D01*
X120740000Y-72207836D02*
X120740000Y-71992164D01*
X121460000Y-72207836D02*
X121460000Y-71992164D01*
X103065000Y-74740000D02*
X101145000Y-74740000D01*
X99135000Y-83900000D02*
X97430000Y-83900000D01*
X97430000Y-74740000D02*
X99135000Y-74740000D01*
X101145000Y-83900000D02*
X103065000Y-83900000D01*
X97430000Y-83900000D02*
X97430000Y-74740000D01*
X108912258Y-82807500D02*
X108437742Y-82807500D01*
X108912258Y-83852500D02*
X108437742Y-83852500D01*
X113882836Y-79730000D02*
X113667164Y-79730000D01*
X113882836Y-80450000D02*
X113667164Y-80450000D01*
X151162742Y-78247500D02*
X151637258Y-78247500D01*
X151162742Y-79292500D02*
X151637258Y-79292500D01*
X116615000Y-73397836D02*
X116615000Y-73182164D01*
X117335000Y-73397836D02*
X117335000Y-73182164D01*
X111555000Y-88907836D02*
X111555000Y-88692164D01*
X110835000Y-88907836D02*
X110835000Y-88692164D01*
X108287742Y-77722500D02*
X108762258Y-77722500D01*
X108287742Y-76677500D02*
X108762258Y-76677500D01*
X145807500Y-76390000D02*
X147807500Y-76390000D01*
X147807500Y-78630000D02*
X146807500Y-78630000D01*
X117997500Y-64652742D02*
X117997500Y-65127258D01*
X116952500Y-64652742D02*
X116952500Y-65127258D01*
X157190000Y-82759420D02*
X157190000Y-83040580D01*
X158210000Y-82759420D02*
X158210000Y-83040580D01*
X148888080Y-75810000D02*
X148606920Y-75810000D01*
X148888080Y-74790000D02*
X148606920Y-74790000D01*
X114632836Y-74920000D02*
X114417164Y-74920000D01*
X114632836Y-75640000D02*
X114417164Y-75640000D01*
X146000000Y-80700000D02*
X147350000Y-80700000D01*
X151600000Y-86500000D02*
X150250000Y-86500000D01*
X151600000Y-80700000D02*
X151600000Y-86500000D01*
X151600000Y-80700000D02*
X150250000Y-80700000D01*
X146000000Y-80700000D02*
X146000000Y-86500000D01*
X146000000Y-86500000D02*
X147350000Y-86500000D01*
X119290000Y-84585000D02*
X119290000Y-84845000D01*
X113840000Y-84585000D02*
X113840000Y-84845000D01*
X116565000Y-84585000D02*
X119290000Y-84585000D01*
X116565000Y-84585000D02*
X113840000Y-84585000D01*
X119290000Y-89775000D02*
X120965000Y-89775000D01*
X116565000Y-90035000D02*
X113840000Y-90035000D01*
X116565000Y-90035000D02*
X119290000Y-90035000D01*
X113840000Y-90035000D02*
X113840000Y-89775000D01*
X119290000Y-90035000D02*
X119290000Y-89775000D01*
X105787500Y-86040000D02*
X105787500Y-86840000D01*
X107087500Y-86840000D02*
X105787500Y-86840000D01*
X107087500Y-86040000D02*
X105787500Y-86040000D01*
X121552500Y-65472742D02*
X121552500Y-65947258D01*
X122597500Y-65472742D02*
X122597500Y-65947258D01*
X129050000Y-67120000D02*
X129540000Y-66630000D01*
X126150000Y-61680000D02*
X125660000Y-62170000D01*
X126150000Y-67120000D02*
X125660000Y-66630000D01*
X130320000Y-65440000D02*
X130320000Y-63360000D01*
X126150000Y-61680000D02*
X129050000Y-61680000D01*
X124880000Y-65440000D02*
X124880000Y-63360000D01*
X129050000Y-61680000D02*
X129540000Y-62170000D01*
X126150000Y-67120000D02*
X129050000Y-67120000D01*
X140977500Y-81537258D02*
X140977500Y-81062742D01*
X142022500Y-81537258D02*
X142022500Y-81062742D01*
X169970000Y-88270000D02*
X169970000Y-85670000D01*
X169970000Y-85670000D02*
X172570000Y-85670000D01*
X167370000Y-85670000D02*
X168700000Y-85670000D01*
X167370000Y-88270000D02*
X167370000Y-90870000D01*
X167370000Y-90870000D02*
X172570000Y-90870000D01*
X167370000Y-88270000D02*
X169970000Y-88270000D01*
X167370000Y-87000000D02*
X167370000Y-85670000D01*
X172570000Y-85670000D02*
X172570000Y-90870000D01*
X107912258Y-73452500D02*
X107437742Y-73452500D01*
X107912258Y-74497500D02*
X107437742Y-74497500D01*
X146815000Y-64035000D02*
X146815000Y-66425000D01*
X144490000Y-59665000D02*
X144490000Y-58815000D01*
X144490000Y-58815000D02*
X158660000Y-58815000D01*
X158660000Y-64035000D02*
X156335000Y-64035000D01*
X158660000Y-58815000D02*
X158660000Y-59665000D01*
X158660000Y-63185000D02*
X158660000Y-64035000D01*
X144490000Y-64035000D02*
X146815000Y-64035000D01*
X144490000Y-63185000D02*
X144490000Y-64035000D01*
X123485000Y-85039420D02*
X123485000Y-85320580D01*
X124505000Y-85039420D02*
X124505000Y-85320580D01*
X154672936Y-79375000D02*
X155127064Y-79375000D01*
X154672936Y-80845000D02*
X155127064Y-80845000D01*
X163180670Y-77020000D02*
X163461830Y-77020000D01*
X163180670Y-76000000D02*
X163461830Y-76000000D01*
X169610000Y-71259420D02*
X169610000Y-71540580D01*
X168590000Y-71259420D02*
X168590000Y-71540580D01*
X124955000Y-83420000D02*
X124955000Y-86720000D01*
X124955000Y-86720000D02*
X128955000Y-86720000D01*
X145560000Y-88300000D02*
X145560000Y-87650000D01*
X142440000Y-88300000D02*
X142440000Y-87650000D01*
X142440000Y-88300000D02*
X142440000Y-89975000D01*
X145560000Y-88300000D02*
X145560000Y-88950000D01*
X145501920Y-74810000D02*
X145783080Y-74810000D01*
X145501920Y-75830000D02*
X145783080Y-75830000D01*
%LPC*%
D14*
X128750000Y-89300000D03*
X125450000Y-89300000D03*
D15*
X111100000Y-62775000D03*
X111100000Y-61225000D03*
D16*
X144807500Y-78435000D03*
X144807500Y-76785000D03*
D17*
X121695000Y-83350000D03*
X120735000Y-83350000D03*
D18*
X128795000Y-78305000D03*
X128795000Y-79955000D03*
D19*
X156767500Y-76470000D03*
X156767500Y-74570000D03*
X154492500Y-75520000D03*
D20*
X177200000Y-81300000D03*
D21*
X175900000Y-81300000D03*
D14*
X134650000Y-89300000D03*
X131350000Y-89300000D03*
D22*
X141200000Y-78150000D03*
D23*
X141200000Y-76850000D03*
D24*
X179075000Y-81300000D03*
X180725000Y-81300000D03*
D25*
X152500000Y-81795000D03*
X152500000Y-83345000D03*
D17*
X115005000Y-74270000D03*
X114045000Y-74270000D03*
X161201250Y-76610000D03*
X160241250Y-76610000D03*
D26*
X171200000Y-66140000D03*
D27*
X171200000Y-61060000D03*
D28*
X107597500Y-79975000D03*
X108437500Y-79975000D03*
D17*
X115015000Y-76320000D03*
X114055000Y-76320000D03*
D29*
X154150000Y-84060000D03*
X155100000Y-84060000D03*
X156050000Y-84060000D03*
X156050000Y-81740000D03*
X155100000Y-81740000D03*
X154150000Y-81740000D03*
D30*
X125605000Y-77880000D03*
X126565000Y-77880000D03*
D31*
X123700000Y-89230000D03*
X122050000Y-89230000D03*
D24*
X134675000Y-87300000D03*
X136325000Y-87300000D03*
D15*
X171100000Y-72175000D03*
X171100000Y-70625000D03*
D32*
X174542500Y-90517500D03*
X174542500Y-84517500D03*
X186542500Y-84517500D03*
X186542500Y-90517500D03*
D33*
X176542500Y-86267500D03*
X180542500Y-86267500D03*
X184542500Y-86267500D03*
D34*
X193500000Y-75007500D03*
D35*
X137050000Y-77737500D03*
X138950000Y-77737500D03*
X138000000Y-75862500D03*
D18*
X111300000Y-68475000D03*
X111300000Y-70125000D03*
D17*
X114255000Y-78290000D03*
X113295000Y-78290000D03*
D31*
X128130000Y-82350000D03*
X126480000Y-82350000D03*
D36*
X153685000Y-78300000D03*
X155235000Y-78300000D03*
D24*
X107700000Y-78725000D03*
X109350000Y-78725000D03*
D16*
X112900000Y-62825000D03*
X112900000Y-61175000D03*
X151300000Y-77225000D03*
X151300000Y-75575000D03*
D25*
X129965000Y-84375000D03*
X129965000Y-85925000D03*
D28*
X107645000Y-75890000D03*
X108485000Y-75890000D03*
D30*
X125595000Y-78890000D03*
X126555000Y-78890000D03*
D18*
X120575000Y-64875000D03*
X120575000Y-66525000D03*
D25*
X158670000Y-74785000D03*
X158670000Y-76335000D03*
D37*
X117505000Y-81877500D03*
X117905000Y-81877500D03*
X118305000Y-81877500D03*
X118705000Y-81877500D03*
X119105000Y-81877500D03*
X119505000Y-81877500D03*
X119905000Y-81877500D03*
X120305000Y-81877500D03*
X120705000Y-81877500D03*
X121105000Y-81877500D03*
X121505000Y-81877500D03*
X121905000Y-81877500D03*
X122305000Y-81877500D03*
X122705000Y-81877500D03*
D38*
X123542500Y-81040000D03*
X123542500Y-80640000D03*
X123542500Y-80240000D03*
X123542500Y-79840000D03*
X123542500Y-79440000D03*
X123542500Y-79040000D03*
X123542500Y-78640000D03*
X123542500Y-78240000D03*
X123542500Y-77840000D03*
X123542500Y-77440000D03*
X123542500Y-77040000D03*
X123542500Y-76640000D03*
X123542500Y-76240000D03*
X123542500Y-75840000D03*
D37*
X122705000Y-75002500D03*
X122305000Y-75002500D03*
X121905000Y-75002500D03*
X121505000Y-75002500D03*
X121105000Y-75002500D03*
X120705000Y-75002500D03*
X120305000Y-75002500D03*
X119905000Y-75002500D03*
X119505000Y-75002500D03*
X119105000Y-75002500D03*
X118705000Y-75002500D03*
X118305000Y-75002500D03*
X117905000Y-75002500D03*
X117505000Y-75002500D03*
D38*
X116667500Y-75840000D03*
X116667500Y-76240000D03*
X116667500Y-76640000D03*
X116667500Y-77040000D03*
X116667500Y-77440000D03*
X116667500Y-77840000D03*
X116667500Y-78240000D03*
X116667500Y-78640000D03*
X116667500Y-79040000D03*
X116667500Y-79440000D03*
X116667500Y-79840000D03*
X116667500Y-80240000D03*
X116667500Y-80640000D03*
X116667500Y-81040000D03*
D39*
X120105000Y-78440000D03*
D40*
X98250000Y-68705000D03*
X98250000Y-67605000D03*
X98250000Y-66505000D03*
X98250000Y-65405000D03*
X98250000Y-64305000D03*
X98250000Y-63205000D03*
X98250000Y-62105000D03*
D41*
X98250000Y-61055000D03*
D42*
X104400000Y-71340000D03*
X108100000Y-71340000D03*
D43*
X109075000Y-67840000D03*
D44*
X98600000Y-59845000D03*
D43*
X109075000Y-61870000D03*
D45*
X98375000Y-71165000D03*
D22*
X144300000Y-84150000D03*
D23*
X144300000Y-82850000D03*
D20*
X139400000Y-87900000D03*
D21*
X138100000Y-87900000D03*
D16*
X118985000Y-65735000D03*
X118985000Y-64085000D03*
D34*
X100500000Y-88507500D03*
D16*
X143222500Y-78435000D03*
X143222500Y-76785000D03*
D46*
X160783750Y-72765000D03*
X160783750Y-73265000D03*
X160783750Y-73765000D03*
X160783750Y-74265000D03*
D47*
X161471250Y-74952500D03*
X161971250Y-74952500D03*
X162471250Y-74952500D03*
X162971250Y-74952500D03*
D46*
X163658750Y-74265000D03*
X163658750Y-73765000D03*
X163658750Y-73265000D03*
X163658750Y-72765000D03*
D47*
X162971250Y-72077500D03*
X162471250Y-72077500D03*
X161971250Y-72077500D03*
X161471250Y-72077500D03*
D48*
X162221250Y-73515000D03*
D49*
X139737500Y-90800000D03*
X137862500Y-90800000D03*
D24*
X143175000Y-80900000D03*
X144825000Y-80900000D03*
D16*
X157400000Y-80425000D03*
X157400000Y-78775000D03*
D30*
X117685000Y-83360000D03*
X118645000Y-83360000D03*
D50*
X121100000Y-72580000D03*
X121100000Y-71620000D03*
D51*
X103820000Y-76430000D03*
X103820000Y-82210000D03*
D52*
X104940000Y-76120000D03*
X104940000Y-76920000D03*
D53*
X104940000Y-78070000D03*
X104940000Y-79070000D03*
X104940000Y-79570000D03*
X104940000Y-80570000D03*
D52*
X104940000Y-81720000D03*
X104940000Y-82520000D03*
X104940000Y-82520000D03*
X104940000Y-81720000D03*
D53*
X104940000Y-81070000D03*
X104940000Y-80070000D03*
X104940000Y-78570000D03*
X104940000Y-77570000D03*
D52*
X104940000Y-76920000D03*
X104940000Y-76120000D03*
D54*
X104340000Y-83640000D03*
D55*
X100140000Y-75000000D03*
D54*
X104340000Y-75000000D03*
D55*
X100140000Y-83640000D03*
D31*
X109500000Y-83330000D03*
X107850000Y-83330000D03*
D17*
X114255000Y-80090000D03*
X113295000Y-80090000D03*
D24*
X150575000Y-78770000D03*
X152225000Y-78770000D03*
D50*
X116975000Y-73770000D03*
X116975000Y-72810000D03*
X111195000Y-89280000D03*
X111195000Y-88320000D03*
D24*
X107700000Y-77200000D03*
X109350000Y-77200000D03*
D56*
X146357500Y-76760000D03*
X146357500Y-77260000D03*
X146357500Y-77760000D03*
X146357500Y-78260000D03*
X148257500Y-78260000D03*
X148257500Y-77760000D03*
X148257500Y-77260000D03*
X148257500Y-76760000D03*
D57*
X147307500Y-77510000D03*
D18*
X117475000Y-64065000D03*
X117475000Y-65715000D03*
D25*
X157700000Y-82125000D03*
X157700000Y-83675000D03*
D58*
X149522500Y-75300000D03*
X147972500Y-75300000D03*
D17*
X115005000Y-75280000D03*
X114045000Y-75280000D03*
D59*
X148800000Y-81550000D03*
X148800000Y-85650000D03*
D60*
X120165000Y-89215000D03*
X120165000Y-87945000D03*
X120165000Y-86675000D03*
X120165000Y-85405000D03*
X112965000Y-85405000D03*
X112965000Y-86675000D03*
X112965000Y-87945000D03*
X112965000Y-89215000D03*
D28*
X106167500Y-86440000D03*
X107007500Y-86440000D03*
D18*
X122075000Y-64885000D03*
X122075000Y-66535000D03*
D61*
X130700000Y-62550000D03*
X124500000Y-62550000D03*
X130700000Y-66250000D03*
X124500000Y-66250000D03*
D16*
X141500000Y-82125000D03*
X141500000Y-80475000D03*
D62*
X168700000Y-87000000D03*
D63*
X171240000Y-87000000D03*
X168700000Y-89540000D03*
X171240000Y-89540000D03*
D31*
X108500000Y-73975000D03*
X106850000Y-73975000D03*
D64*
X147575000Y-63675000D03*
X149575000Y-63675000D03*
X151575000Y-63675000D03*
X153575000Y-63675000D03*
X155575000Y-63675000D03*
D65*
X145175000Y-61425000D03*
X157975000Y-61425000D03*
D25*
X123995000Y-84405000D03*
X123995000Y-85955000D03*
D66*
X153987500Y-80110000D03*
X155812500Y-80110000D03*
D36*
X162546250Y-76510000D03*
X164096250Y-76510000D03*
D25*
X169100000Y-70625000D03*
X169100000Y-72175000D03*
D67*
X125855000Y-85920000D03*
X128055000Y-85920000D03*
X128055000Y-84220000D03*
X125855000Y-84220000D03*
D35*
X143050000Y-89237500D03*
X144950000Y-89237500D03*
X144000000Y-87362500D03*
D36*
X144867500Y-75320000D03*
X146417500Y-75320000D03*
D68*
X136690000Y-67520000D03*
X136690000Y-82510000D03*
D69*
X163855000Y-67520000D03*
D32*
X163855000Y-82510000D03*
M02*
