G04 #@! TF.GenerationSoftware,KiCad,Pcbnew,6.0.11-2627ca5db0~126~ubuntu22.04.1*
G04 #@! TF.CreationDate,2024-06-10T16:45:34-04:00*
G04 #@! TF.ProjectId,board,626f6172-642e-46b6-9963-61645f706362,rev?*
G04 #@! TF.SameCoordinates,Original*
G04 #@! TF.FileFunction,Soldermask,Top*
G04 #@! TF.FilePolarity,Negative*
%FSLAX46Y46*%
G04 Gerber Fmt 4.6, Leading zero omitted, Abs format (unit mm)*
G04 Created by KiCad (PCBNEW 6.0.11-2627ca5db0~126~ubuntu22.04.1) date 2024-06-10 16:45:34*
%MOMM*%
%LPD*%
G01*
G04 APERTURE LIST*
G04 Aperture macros list*
%AMRoundRect*
0 Rectangle with rounded corners*
0 $1 Rounding radius*
0 $2 $3 $4 $5 $6 $7 $8 $9 X,Y pos of 4 corners*
0 Add a 4 corners polygon primitive as box body*
4,1,4,$2,$3,$4,$5,$6,$7,$8,$9,$2,$3,0*
0 Add four circle primitives for the rounded corners*
1,1,$1+$1,$2,$3*
1,1,$1+$1,$4,$5*
1,1,$1+$1,$6,$7*
1,1,$1+$1,$8,$9*
0 Add four rect primitives between the rounded corners*
20,1,$1+$1,$2,$3,$4,$5,0*
20,1,$1+$1,$4,$5,$6,$7,0*
20,1,$1+$1,$6,$7,$8,$9,0*
20,1,$1+$1,$8,$9,$2,$3,0*%
%AMFreePoly0*
4,1,22,0.500000,-0.750000,0.000000,-0.750000,0.000000,-0.745033,-0.079941,-0.743568,-0.215256,-0.701293,-0.333266,-0.622738,-0.424486,-0.514219,-0.481581,-0.384460,-0.499164,-0.250000,-0.500000,-0.250000,-0.500000,0.250000,-0.499164,0.250000,-0.499963,0.256109,-0.478152,0.396186,-0.417904,0.524511,-0.324060,0.630769,-0.204165,0.706417,-0.067858,0.745374,0.000000,0.744959,0.000000,0.750000,
0.500000,0.750000,0.500000,-0.750000,0.500000,-0.750000,$1*%
%AMFreePoly1*
4,1,20,0.000000,0.744959,0.073905,0.744508,0.209726,0.703889,0.328688,0.626782,0.421226,0.519385,0.479903,0.390333,0.500000,0.250000,0.500000,-0.250000,0.499851,-0.262216,0.476331,-0.402017,0.414519,-0.529596,0.319384,-0.634700,0.198574,-0.708877,0.061801,-0.746166,0.000000,-0.745033,0.000000,-0.750000,-0.500000,-0.750000,-0.500000,0.750000,0.000000,0.750000,0.000000,0.744959,
0.000000,0.744959,$1*%
G04 Aperture macros list end*
%ADD10R,0.900000X1.200000*%
%ADD11RoundRect,0.225000X0.250000X-0.225000X0.250000X0.225000X-0.250000X0.225000X-0.250000X-0.225000X0*%
%ADD12RoundRect,0.200000X0.275000X-0.200000X0.275000X0.200000X-0.275000X0.200000X-0.275000X-0.200000X0*%
%ADD13RoundRect,0.140000X0.140000X0.170000X-0.140000X0.170000X-0.140000X-0.170000X0.140000X-0.170000X0*%
%ADD14RoundRect,0.200000X-0.275000X0.200000X-0.275000X-0.200000X0.275000X-0.200000X0.275000X0.200000X0*%
%ADD15RoundRect,0.150000X0.512500X0.150000X-0.512500X0.150000X-0.512500X-0.150000X0.512500X-0.150000X0*%
%ADD16FreePoly0,180.000000*%
%ADD17FreePoly1,180.000000*%
%ADD18FreePoly0,90.000000*%
%ADD19FreePoly1,90.000000*%
%ADD20RoundRect,0.200000X-0.200000X-0.275000X0.200000X-0.275000X0.200000X0.275000X-0.200000X0.275000X0*%
%ADD21RoundRect,0.225000X-0.250000X0.225000X-0.250000X-0.225000X0.250000X-0.225000X0.250000X0.225000X0*%
%ADD22R,3.000000X3.000000*%
%ADD23C,3.000000*%
%ADD24R,0.360000X0.250000*%
%ADD25R,0.510000X0.700000*%
%ADD26RoundRect,0.140000X-0.140000X-0.170000X0.140000X-0.170000X0.140000X0.170000X-0.140000X0.170000X0*%
%ADD27RoundRect,0.200000X0.200000X0.275000X-0.200000X0.275000X-0.200000X-0.275000X0.200000X-0.275000X0*%
%ADD28C,2.000000*%
%ADD29C,1.700000*%
%ADD30C,5.600000*%
%ADD31RoundRect,0.150000X0.150000X-0.587500X0.150000X0.587500X-0.150000X0.587500X-0.150000X-0.587500X0*%
%ADD32RoundRect,0.225000X-0.225000X-0.250000X0.225000X-0.250000X0.225000X0.250000X-0.225000X0.250000X0*%
%ADD33RoundRect,0.050000X0.050000X-0.387500X0.050000X0.387500X-0.050000X0.387500X-0.050000X-0.387500X0*%
%ADD34RoundRect,0.050000X0.387500X-0.050000X0.387500X0.050000X-0.387500X0.050000X-0.387500X-0.050000X0*%
%ADD35R,3.200000X3.200000*%
%ADD36R,1.100000X0.850000*%
%ADD37R,1.100000X0.750000*%
%ADD38R,1.000000X1.200000*%
%ADD39R,1.350000X1.900000*%
%ADD40R,1.800000X1.170000*%
%ADD41R,1.350000X1.550000*%
%ADD42RoundRect,0.062500X-0.375000X-0.062500X0.375000X-0.062500X0.375000X0.062500X-0.375000X0.062500X0*%
%ADD43RoundRect,0.062500X-0.062500X-0.375000X0.062500X-0.375000X0.062500X0.375000X-0.062500X0.375000X0*%
%ADD44R,1.600000X1.600000*%
%ADD45RoundRect,0.243750X0.243750X0.456250X-0.243750X0.456250X-0.243750X-0.456250X0.243750X-0.456250X0*%
%ADD46RoundRect,0.140000X0.170000X-0.140000X0.170000X0.140000X-0.170000X0.140000X-0.170000X-0.140000X0*%
%ADD47C,0.650000*%
%ADD48R,1.240000X0.600000*%
%ADD49R,1.240000X0.300000*%
%ADD50O,2.100000X1.000000*%
%ADD51O,1.800000X1.000000*%
%ADD52R,0.500000X0.250000*%
%ADD53R,0.900000X1.600000*%
%ADD54RoundRect,0.225000X0.225000X0.250000X-0.225000X0.250000X-0.225000X-0.250000X0.225000X-0.250000X0*%
%ADD55R,2.500000X1.900000*%
%ADD56RoundRect,0.150000X0.650000X0.150000X-0.650000X0.150000X-0.650000X-0.150000X0.650000X-0.150000X0*%
%ADD57R,1.800000X1.100000*%
%ADD58R,1.700000X1.700000*%
%ADD59O,1.700000X1.700000*%
%ADD60RoundRect,0.250000X-0.250000X-2.500000X0.250000X-2.500000X0.250000X2.500000X-0.250000X2.500000X0*%
%ADD61RoundRect,0.250000X-0.550000X-1.250000X0.550000X-1.250000X0.550000X1.250000X-0.550000X1.250000X0*%
%ADD62RoundRect,0.250000X-0.262500X-0.450000X0.262500X-0.450000X0.262500X0.450000X-0.262500X0.450000X0*%
%ADD63R,1.400000X1.200000*%
%ADD64C,3.300000*%
%ADD65R,2.000000X2.000000*%
G04 APERTURE END LIST*
D10*
X128750000Y-89300000D03*
X125450000Y-89300000D03*
D11*
X111100000Y-62775000D03*
X111100000Y-61225000D03*
D12*
X144807500Y-78435000D03*
X144807500Y-76785000D03*
D13*
X121695000Y-83350000D03*
X120735000Y-83350000D03*
D14*
X128795000Y-78305000D03*
X128795000Y-79955000D03*
D15*
X156767500Y-76470000D03*
X156767500Y-74570000D03*
X154492500Y-75520000D03*
D16*
X177200000Y-81300000D03*
D17*
X175900000Y-81300000D03*
D10*
X134650000Y-89300000D03*
X131350000Y-89300000D03*
D18*
X141200000Y-78150000D03*
D19*
X141200000Y-76850000D03*
D20*
X179075000Y-81300000D03*
X180725000Y-81300000D03*
D21*
X152500000Y-81795000D03*
X152500000Y-83345000D03*
D13*
X115005000Y-74270000D03*
X114045000Y-74270000D03*
X161201250Y-76610000D03*
X160241250Y-76610000D03*
D22*
X171200000Y-66140000D03*
D23*
X171200000Y-61060000D03*
D24*
X107597500Y-79975000D03*
X108437500Y-79975000D03*
D13*
X115015000Y-76320000D03*
X114055000Y-76320000D03*
D25*
X154150000Y-84060000D03*
X155100000Y-84060000D03*
X156050000Y-84060000D03*
X156050000Y-81740000D03*
X155100000Y-81740000D03*
X154150000Y-81740000D03*
D26*
X125605000Y-77880000D03*
X126565000Y-77880000D03*
D27*
X123700000Y-89230000D03*
X122050000Y-89230000D03*
D20*
X134675000Y-87300000D03*
X136325000Y-87300000D03*
D11*
X171100000Y-72175000D03*
X171100000Y-70625000D03*
D28*
X174542500Y-90517500D03*
X174542500Y-84517500D03*
X186542500Y-84517500D03*
X186542500Y-90517500D03*
D29*
X176542500Y-86267500D03*
X180542500Y-86267500D03*
X184542500Y-86267500D03*
D30*
X193500000Y-75007500D03*
D31*
X137050000Y-77737500D03*
X138950000Y-77737500D03*
X138000000Y-75862500D03*
D14*
X111300000Y-68475000D03*
X111300000Y-70125000D03*
D13*
X114255000Y-78290000D03*
X113295000Y-78290000D03*
D27*
X128130000Y-82350000D03*
X126480000Y-82350000D03*
D32*
X153685000Y-78300000D03*
X155235000Y-78300000D03*
D20*
X107700000Y-78725000D03*
X109350000Y-78725000D03*
D12*
X112900000Y-62825000D03*
X112900000Y-61175000D03*
X151300000Y-77225000D03*
X151300000Y-75575000D03*
D21*
X129965000Y-84375000D03*
X129965000Y-85925000D03*
D24*
X107645000Y-75890000D03*
X108485000Y-75890000D03*
D26*
X125595000Y-78890000D03*
X126555000Y-78890000D03*
D14*
X120575000Y-64875000D03*
X120575000Y-66525000D03*
D21*
X158670000Y-74785000D03*
X158670000Y-76335000D03*
D33*
X117505000Y-81877500D03*
X117905000Y-81877500D03*
X118305000Y-81877500D03*
X118705000Y-81877500D03*
X119105000Y-81877500D03*
X119505000Y-81877500D03*
X119905000Y-81877500D03*
X120305000Y-81877500D03*
X120705000Y-81877500D03*
X121105000Y-81877500D03*
X121505000Y-81877500D03*
X121905000Y-81877500D03*
X122305000Y-81877500D03*
X122705000Y-81877500D03*
D34*
X123542500Y-81040000D03*
X123542500Y-80640000D03*
X123542500Y-80240000D03*
X123542500Y-79840000D03*
X123542500Y-79440000D03*
X123542500Y-79040000D03*
X123542500Y-78640000D03*
X123542500Y-78240000D03*
X123542500Y-77840000D03*
X123542500Y-77440000D03*
X123542500Y-77040000D03*
X123542500Y-76640000D03*
X123542500Y-76240000D03*
X123542500Y-75840000D03*
D33*
X122705000Y-75002500D03*
X122305000Y-75002500D03*
X121905000Y-75002500D03*
X121505000Y-75002500D03*
X121105000Y-75002500D03*
X120705000Y-75002500D03*
X120305000Y-75002500D03*
X119905000Y-75002500D03*
X119505000Y-75002500D03*
X119105000Y-75002500D03*
X118705000Y-75002500D03*
X118305000Y-75002500D03*
X117905000Y-75002500D03*
X117505000Y-75002500D03*
D34*
X116667500Y-75840000D03*
X116667500Y-76240000D03*
X116667500Y-76640000D03*
X116667500Y-77040000D03*
X116667500Y-77440000D03*
X116667500Y-77840000D03*
X116667500Y-78240000D03*
X116667500Y-78640000D03*
X116667500Y-79040000D03*
X116667500Y-79440000D03*
X116667500Y-79840000D03*
X116667500Y-80240000D03*
X116667500Y-80640000D03*
X116667500Y-81040000D03*
D35*
X120105000Y-78440000D03*
D36*
X98250000Y-68705000D03*
X98250000Y-67605000D03*
X98250000Y-66505000D03*
X98250000Y-65405000D03*
X98250000Y-64305000D03*
X98250000Y-63205000D03*
X98250000Y-62105000D03*
D37*
X98250000Y-61055000D03*
D38*
X104400000Y-71340000D03*
X108100000Y-71340000D03*
D39*
X109075000Y-67840000D03*
D40*
X98600000Y-59845000D03*
D39*
X109075000Y-61870000D03*
D41*
X98375000Y-71165000D03*
D18*
X144300000Y-84150000D03*
D19*
X144300000Y-82850000D03*
D16*
X139400000Y-87900000D03*
D17*
X138100000Y-87900000D03*
D12*
X118985000Y-65735000D03*
X118985000Y-64085000D03*
D30*
X100500000Y-88507500D03*
D12*
X143222500Y-78435000D03*
X143222500Y-76785000D03*
D42*
X160783750Y-72765000D03*
X160783750Y-73265000D03*
X160783750Y-73765000D03*
X160783750Y-74265000D03*
D43*
X161471250Y-74952500D03*
X161971250Y-74952500D03*
X162471250Y-74952500D03*
X162971250Y-74952500D03*
D42*
X163658750Y-74265000D03*
X163658750Y-73765000D03*
X163658750Y-73265000D03*
X163658750Y-72765000D03*
D43*
X162971250Y-72077500D03*
X162471250Y-72077500D03*
X161971250Y-72077500D03*
X161471250Y-72077500D03*
D44*
X162221250Y-73515000D03*
D45*
X139737500Y-90800000D03*
X137862500Y-90800000D03*
D20*
X143175000Y-80900000D03*
X144825000Y-80900000D03*
D12*
X157400000Y-80425000D03*
X157400000Y-78775000D03*
D26*
X117685000Y-83360000D03*
X118645000Y-83360000D03*
D46*
X121100000Y-72580000D03*
X121100000Y-71620000D03*
D47*
X103820000Y-76430000D03*
X103820000Y-82210000D03*
D48*
X104940000Y-76120000D03*
X104940000Y-76920000D03*
D49*
X104940000Y-78070000D03*
X104940000Y-79070000D03*
X104940000Y-79570000D03*
X104940000Y-80570000D03*
D48*
X104940000Y-81720000D03*
X104940000Y-82520000D03*
X104940000Y-82520000D03*
X104940000Y-81720000D03*
D49*
X104940000Y-81070000D03*
X104940000Y-80070000D03*
X104940000Y-78570000D03*
X104940000Y-77570000D03*
D48*
X104940000Y-76920000D03*
X104940000Y-76120000D03*
D50*
X104340000Y-83640000D03*
D51*
X100140000Y-75000000D03*
D50*
X104340000Y-75000000D03*
D51*
X100140000Y-83640000D03*
D27*
X109500000Y-83330000D03*
X107850000Y-83330000D03*
D13*
X114255000Y-80090000D03*
X113295000Y-80090000D03*
D20*
X150575000Y-78770000D03*
X152225000Y-78770000D03*
D46*
X116975000Y-73770000D03*
X116975000Y-72810000D03*
X111195000Y-89280000D03*
X111195000Y-88320000D03*
D20*
X107700000Y-77200000D03*
X109350000Y-77200000D03*
D52*
X146357500Y-76760000D03*
X146357500Y-77260000D03*
X146357500Y-77760000D03*
X146357500Y-78260000D03*
X148257500Y-78260000D03*
X148257500Y-77760000D03*
X148257500Y-77260000D03*
X148257500Y-76760000D03*
D53*
X147307500Y-77510000D03*
D14*
X117475000Y-64065000D03*
X117475000Y-65715000D03*
D21*
X157700000Y-82125000D03*
X157700000Y-83675000D03*
D54*
X149522500Y-75300000D03*
X147972500Y-75300000D03*
D13*
X115005000Y-75280000D03*
X114045000Y-75280000D03*
D55*
X148800000Y-81550000D03*
X148800000Y-85650000D03*
D56*
X120165000Y-89215000D03*
X120165000Y-87945000D03*
X120165000Y-86675000D03*
X120165000Y-85405000D03*
X112965000Y-85405000D03*
X112965000Y-86675000D03*
X112965000Y-87945000D03*
X112965000Y-89215000D03*
D24*
X106167500Y-86440000D03*
X107007500Y-86440000D03*
D14*
X122075000Y-64885000D03*
X122075000Y-66535000D03*
D57*
X130700000Y-62550000D03*
X124500000Y-62550000D03*
X130700000Y-66250000D03*
X124500000Y-66250000D03*
D12*
X141500000Y-82125000D03*
X141500000Y-80475000D03*
D58*
X168700000Y-87000000D03*
D59*
X171240000Y-87000000D03*
X168700000Y-89540000D03*
X171240000Y-89540000D03*
D27*
X108500000Y-73975000D03*
X106850000Y-73975000D03*
D60*
X147575000Y-63675000D03*
X149575000Y-63675000D03*
X151575000Y-63675000D03*
X153575000Y-63675000D03*
X155575000Y-63675000D03*
D61*
X145175000Y-61425000D03*
X157975000Y-61425000D03*
D21*
X123995000Y-84405000D03*
X123995000Y-85955000D03*
D62*
X153987500Y-80110000D03*
X155812500Y-80110000D03*
D32*
X162546250Y-76510000D03*
X164096250Y-76510000D03*
D21*
X169100000Y-70625000D03*
X169100000Y-72175000D03*
D63*
X125855000Y-85920000D03*
X128055000Y-85920000D03*
X128055000Y-84220000D03*
X125855000Y-84220000D03*
D31*
X143050000Y-89237500D03*
X144950000Y-89237500D03*
X144000000Y-87362500D03*
D32*
X144867500Y-75320000D03*
X146417500Y-75320000D03*
D64*
X136690000Y-67520000D03*
X136690000Y-82510000D03*
D65*
X163855000Y-67520000D03*
D28*
X163855000Y-82510000D03*
M02*
