G04 #@! TF.GenerationSoftware,KiCad,Pcbnew,6.0.11-2627ca5db0~126~ubuntu22.04.1*
G04 #@! TF.CreationDate,2024-05-05T15:56:36-04:00*
G04 #@! TF.ProjectId,board,626f6172-642e-46b6-9963-61645f706362,rev?*
G04 #@! TF.SameCoordinates,Original*
G04 #@! TF.FileFunction,Paste,Top*
G04 #@! TF.FilePolarity,Positive*
%FSLAX46Y46*%
G04 Gerber Fmt 4.6, Leading zero omitted, Abs format (unit mm)*
G04 Created by KiCad (PCBNEW 6.0.11-2627ca5db0~126~ubuntu22.04.1) date 2024-05-05 15:56:36*
%MOMM*%
%LPD*%
G01*
G04 APERTURE LIST*
G04 Aperture macros list*
%AMRoundRect*
0 Rectangle with rounded corners*
0 $1 Rounding radius*
0 $2 $3 $4 $5 $6 $7 $8 $9 X,Y pos of 4 corners*
0 Add a 4 corners polygon primitive as box body*
4,1,4,$2,$3,$4,$5,$6,$7,$8,$9,$2,$3,0*
0 Add four circle primitives for the rounded corners*
1,1,$1+$1,$2,$3*
1,1,$1+$1,$4,$5*
1,1,$1+$1,$6,$7*
1,1,$1+$1,$8,$9*
0 Add four rect primitives between the rounded corners*
20,1,$1+$1,$2,$3,$4,$5,0*
20,1,$1+$1,$4,$5,$6,$7,0*
20,1,$1+$1,$6,$7,$8,$9,0*
20,1,$1+$1,$8,$9,$2,$3,0*%
G04 Aperture macros list end*
%ADD10R,0.900000X1.200000*%
%ADD11RoundRect,0.225000X0.250000X-0.225000X0.250000X0.225000X-0.250000X0.225000X-0.250000X-0.225000X0*%
%ADD12RoundRect,0.200000X0.275000X-0.200000X0.275000X0.200000X-0.275000X0.200000X-0.275000X-0.200000X0*%
%ADD13RoundRect,0.140000X0.140000X0.170000X-0.140000X0.170000X-0.140000X-0.170000X0.140000X-0.170000X0*%
%ADD14RoundRect,0.200000X-0.275000X0.200000X-0.275000X-0.200000X0.275000X-0.200000X0.275000X0.200000X0*%
%ADD15RoundRect,0.150000X0.512500X0.150000X-0.512500X0.150000X-0.512500X-0.150000X0.512500X-0.150000X0*%
%ADD16RoundRect,0.225000X-0.250000X0.225000X-0.250000X-0.225000X0.250000X-0.225000X0.250000X0.225000X0*%
%ADD17R,0.360000X0.250000*%
%ADD18R,0.510000X0.700000*%
%ADD19RoundRect,0.140000X-0.140000X-0.170000X0.140000X-0.170000X0.140000X0.170000X-0.140000X0.170000X0*%
%ADD20RoundRect,0.200000X0.200000X0.275000X-0.200000X0.275000X-0.200000X-0.275000X0.200000X-0.275000X0*%
%ADD21RoundRect,0.225000X-0.225000X-0.250000X0.225000X-0.250000X0.225000X0.250000X-0.225000X0.250000X0*%
%ADD22RoundRect,0.200000X-0.200000X-0.275000X0.200000X-0.275000X0.200000X0.275000X-0.200000X0.275000X0*%
%ADD23RoundRect,0.249999X0.395001X-0.395001X0.395001X0.395001X-0.395001X0.395001X-0.395001X-0.395001X0*%
%ADD24RoundRect,0.050000X0.050000X-0.387500X0.050000X0.387500X-0.050000X0.387500X-0.050000X-0.387500X0*%
%ADD25RoundRect,0.050000X0.387500X-0.050000X0.387500X0.050000X-0.387500X0.050000X-0.387500X-0.050000X0*%
%ADD26R,1.100000X0.850000*%
%ADD27R,1.100000X0.750000*%
%ADD28R,1.000000X1.200000*%
%ADD29R,1.350000X1.900000*%
%ADD30R,1.800000X1.170000*%
%ADD31R,1.350000X1.550000*%
%ADD32RoundRect,0.160000X-0.160000X-0.160000X0.160000X-0.160000X0.160000X0.160000X-0.160000X0.160000X0*%
%ADD33RoundRect,0.062500X-0.375000X-0.062500X0.375000X-0.062500X0.375000X0.062500X-0.375000X0.062500X0*%
%ADD34RoundRect,0.062500X-0.062500X-0.375000X0.062500X-0.375000X0.062500X0.375000X-0.062500X0.375000X0*%
%ADD35RoundRect,0.243750X-0.243750X-0.456250X0.243750X-0.456250X0.243750X0.456250X-0.243750X0.456250X0*%
%ADD36RoundRect,0.140000X0.170000X-0.140000X0.170000X0.140000X-0.170000X0.140000X-0.170000X-0.140000X0*%
%ADD37R,1.240000X0.600000*%
%ADD38R,1.240000X0.300000*%
%ADD39R,0.750000X0.650000*%
%ADD40R,0.500000X0.250000*%
%ADD41RoundRect,0.225000X0.225000X0.250000X-0.225000X0.250000X-0.225000X-0.250000X0.225000X-0.250000X0*%
%ADD42R,2.500000X1.900000*%
%ADD43RoundRect,0.150000X0.650000X0.150000X-0.650000X0.150000X-0.650000X-0.150000X0.650000X-0.150000X0*%
%ADD44R,1.800000X1.100000*%
%ADD45RoundRect,0.250000X-0.250000X-2.500000X0.250000X-2.500000X0.250000X2.500000X-0.250000X2.500000X0*%
%ADD46RoundRect,0.250000X-0.550000X-1.250000X0.550000X-1.250000X0.550000X1.250000X-0.550000X1.250000X0*%
%ADD47RoundRect,0.250000X-0.262500X-0.450000X0.262500X-0.450000X0.262500X0.450000X-0.262500X0.450000X0*%
%ADD48R,1.400000X1.200000*%
%ADD49RoundRect,0.150000X0.150000X-0.587500X0.150000X0.587500X-0.150000X0.587500X-0.150000X-0.587500X0*%
G04 APERTURE END LIST*
D10*
X129795000Y-88720000D03*
X126495000Y-88720000D03*
D11*
X111975000Y-63365000D03*
X111975000Y-61815000D03*
D12*
X135125000Y-78015000D03*
X135125000Y-76365000D03*
D13*
X121695000Y-83350000D03*
X120735000Y-83350000D03*
D14*
X128795000Y-78305000D03*
X128795000Y-79955000D03*
D15*
X153042500Y-76370000D03*
X153042500Y-74470000D03*
X150767500Y-75420000D03*
D16*
X147055000Y-82125000D03*
X147055000Y-83675000D03*
D13*
X115005000Y-74270000D03*
X114045000Y-74270000D03*
X156630000Y-87400000D03*
X155670000Y-87400000D03*
D17*
X107597500Y-79975000D03*
X108437500Y-79975000D03*
D13*
X115015000Y-76320000D03*
X114055000Y-76320000D03*
D18*
X148865000Y-84060000D03*
X149815000Y-84060000D03*
X150765000Y-84060000D03*
X150765000Y-81740000D03*
X149815000Y-81740000D03*
X148865000Y-81740000D03*
D19*
X125605000Y-77880000D03*
X126565000Y-77880000D03*
D20*
X123700000Y-89230000D03*
X122050000Y-89230000D03*
D11*
X163295000Y-77735000D03*
X163295000Y-76185000D03*
D14*
X114375000Y-63245000D03*
X114375000Y-64895000D03*
D13*
X114255000Y-78290000D03*
X113295000Y-78290000D03*
D20*
X128130000Y-82350000D03*
X126480000Y-82350000D03*
D21*
X149960000Y-78200000D03*
X151510000Y-78200000D03*
D22*
X107700000Y-78725000D03*
X109350000Y-78725000D03*
D14*
X115875000Y-63265000D03*
X115875000Y-64915000D03*
D12*
X142560000Y-76835000D03*
X142560000Y-75185000D03*
D16*
X129965000Y-84375000D03*
X129965000Y-85925000D03*
D17*
X107645000Y-75890000D03*
X108485000Y-75890000D03*
D19*
X125595000Y-78890000D03*
X126555000Y-78890000D03*
D14*
X120575000Y-64875000D03*
X120575000Y-66525000D03*
D16*
X154945000Y-74685000D03*
X154945000Y-76235000D03*
D23*
X120905000Y-79240000D03*
X119305000Y-77640000D03*
X120905000Y-77640000D03*
X119305000Y-79240000D03*
D24*
X117505000Y-81877500D03*
X117905000Y-81877500D03*
X118305000Y-81877500D03*
X118705000Y-81877500D03*
X119105000Y-81877500D03*
X119505000Y-81877500D03*
X119905000Y-81877500D03*
X120305000Y-81877500D03*
X120705000Y-81877500D03*
X121105000Y-81877500D03*
X121505000Y-81877500D03*
X121905000Y-81877500D03*
X122305000Y-81877500D03*
X122705000Y-81877500D03*
D25*
X123542500Y-81040000D03*
X123542500Y-80640000D03*
X123542500Y-80240000D03*
X123542500Y-79840000D03*
X123542500Y-79440000D03*
X123542500Y-79040000D03*
X123542500Y-78640000D03*
X123542500Y-78240000D03*
X123542500Y-77840000D03*
X123542500Y-77440000D03*
X123542500Y-77040000D03*
X123542500Y-76640000D03*
X123542500Y-76240000D03*
X123542500Y-75840000D03*
D24*
X122705000Y-75002500D03*
X122305000Y-75002500D03*
X121905000Y-75002500D03*
X121505000Y-75002500D03*
X121105000Y-75002500D03*
X120705000Y-75002500D03*
X120305000Y-75002500D03*
X119905000Y-75002500D03*
X119505000Y-75002500D03*
X119105000Y-75002500D03*
X118705000Y-75002500D03*
X118305000Y-75002500D03*
X117905000Y-75002500D03*
X117505000Y-75002500D03*
D25*
X116667500Y-75840000D03*
X116667500Y-76240000D03*
X116667500Y-76640000D03*
X116667500Y-77040000D03*
X116667500Y-77440000D03*
X116667500Y-77840000D03*
X116667500Y-78240000D03*
X116667500Y-78640000D03*
X116667500Y-79040000D03*
X116667500Y-79440000D03*
X116667500Y-79840000D03*
X116667500Y-80240000D03*
X116667500Y-80640000D03*
X116667500Y-81040000D03*
D26*
X99025000Y-68415000D03*
X99025000Y-67315000D03*
X99025000Y-66215000D03*
X99025000Y-65115000D03*
X99025000Y-64015000D03*
X99025000Y-62915000D03*
X99025000Y-61815000D03*
D27*
X99025000Y-60765000D03*
D28*
X105175000Y-71050000D03*
X108875000Y-71050000D03*
D29*
X109850000Y-67550000D03*
D30*
X99375000Y-59555000D03*
D29*
X109850000Y-61580000D03*
D31*
X99150000Y-70875000D03*
D12*
X118985000Y-65735000D03*
X118985000Y-64085000D03*
X133565000Y-78015000D03*
X133565000Y-76365000D03*
D32*
X158135000Y-84440000D03*
X158135000Y-83640000D03*
X157335000Y-84440000D03*
X157335000Y-83640000D03*
D33*
X156297500Y-83290000D03*
X156297500Y-83790000D03*
X156297500Y-84290000D03*
X156297500Y-84790000D03*
D34*
X156985000Y-85477500D03*
X157485000Y-85477500D03*
X157985000Y-85477500D03*
X158485000Y-85477500D03*
D33*
X159172500Y-84790000D03*
X159172500Y-84290000D03*
X159172500Y-83790000D03*
X159172500Y-83290000D03*
D34*
X158485000Y-82602500D03*
X157985000Y-82602500D03*
X157485000Y-82602500D03*
X156985000Y-82602500D03*
D35*
X146197500Y-78560000D03*
X148072500Y-78560000D03*
D22*
X145680000Y-76240000D03*
X147330000Y-76240000D03*
D12*
X153375000Y-80455000D03*
X153375000Y-78805000D03*
D19*
X117685000Y-83360000D03*
X118645000Y-83360000D03*
D36*
X121085000Y-73140000D03*
X121085000Y-72180000D03*
D37*
X104940000Y-76120000D03*
X104940000Y-76920000D03*
D38*
X104940000Y-78070000D03*
X104940000Y-79070000D03*
X104940000Y-79570000D03*
X104940000Y-80570000D03*
D37*
X104940000Y-81720000D03*
X104940000Y-82520000D03*
X104940000Y-82520000D03*
X104940000Y-81720000D03*
D38*
X104940000Y-81070000D03*
X104940000Y-80070000D03*
X104940000Y-78570000D03*
X104940000Y-77570000D03*
D37*
X104940000Y-76920000D03*
X104940000Y-76120000D03*
D20*
X109500000Y-83330000D03*
X107850000Y-83330000D03*
D13*
X114255000Y-80090000D03*
X113295000Y-80090000D03*
D22*
X141540000Y-78360000D03*
X143190000Y-78360000D03*
D36*
X116975000Y-73770000D03*
X116975000Y-72810000D03*
X111195000Y-89280000D03*
X111195000Y-88320000D03*
D22*
X107700000Y-77200000D03*
X109350000Y-77200000D03*
D39*
X138630000Y-76970000D03*
X138630000Y-77770000D03*
D40*
X137680000Y-76620000D03*
X137680000Y-77120000D03*
X137680000Y-77620000D03*
X137680000Y-78120000D03*
X139580000Y-78120000D03*
X139580000Y-77620000D03*
X139580000Y-77120000D03*
X139580000Y-76620000D03*
D14*
X117475000Y-64065000D03*
X117475000Y-65715000D03*
D16*
X152565000Y-82135000D03*
X152565000Y-83685000D03*
D41*
X140815000Y-74890000D03*
X139265000Y-74890000D03*
D13*
X115005000Y-75280000D03*
X114045000Y-75280000D03*
D42*
X143285000Y-80780000D03*
X143285000Y-84880000D03*
D43*
X120165000Y-89215000D03*
X120165000Y-87945000D03*
X120165000Y-86675000D03*
X120165000Y-85405000D03*
X112965000Y-85405000D03*
X112965000Y-86675000D03*
X112965000Y-87945000D03*
X112965000Y-89215000D03*
D17*
X106167500Y-86440000D03*
X107007500Y-86440000D03*
D14*
X122075000Y-64885000D03*
X122075000Y-66535000D03*
D44*
X131275000Y-62550000D03*
X125075000Y-62550000D03*
X131275000Y-66250000D03*
X125075000Y-66250000D03*
D20*
X108500000Y-73975000D03*
X106850000Y-73975000D03*
D45*
X147575000Y-63675000D03*
X149575000Y-63675000D03*
X151575000Y-63675000D03*
X153575000Y-63675000D03*
X155575000Y-63675000D03*
D46*
X145175000Y-61425000D03*
X157975000Y-61425000D03*
D16*
X123995000Y-84405000D03*
X123995000Y-85955000D03*
D47*
X149972500Y-80010000D03*
X151797500Y-80010000D03*
D21*
X158050000Y-87425000D03*
X159600000Y-87425000D03*
D16*
X161025000Y-76225000D03*
X161025000Y-77775000D03*
D48*
X125855000Y-85920000D03*
X128055000Y-85920000D03*
X128055000Y-84220000D03*
X125855000Y-84220000D03*
D49*
X133235000Y-89440000D03*
X135135000Y-89440000D03*
X134185000Y-87565000D03*
D21*
X136160000Y-74910000D03*
X137710000Y-74910000D03*
M02*
