G04 #@! TF.GenerationSoftware,KiCad,Pcbnew,6.0.11-2627ca5db0~126~ubuntu22.04.1*
G04 #@! TF.CreationDate,2024-06-10T16:45:34-04:00*
G04 #@! TF.ProjectId,board,626f6172-642e-46b6-9963-61645f706362,rev?*
G04 #@! TF.SameCoordinates,Original*
G04 #@! TF.FileFunction,Copper,L2,Bot*
G04 #@! TF.FilePolarity,Positive*
%FSLAX46Y46*%
G04 Gerber Fmt 4.6, Leading zero omitted, Abs format (unit mm)*
G04 Created by KiCad (PCBNEW 6.0.11-2627ca5db0~126~ubuntu22.04.1) date 2024-06-10 16:45:34*
%MOMM*%
%LPD*%
G01*
G04 APERTURE LIST*
G04 #@! TA.AperFunction,NonConductor*
%ADD10C,0.100000*%
G04 #@! TD*
G04 #@! TA.AperFunction,ComponentPad*
%ADD11R,3.000000X3.000000*%
G04 #@! TD*
G04 #@! TA.AperFunction,ComponentPad*
%ADD12C,3.000000*%
G04 #@! TD*
G04 #@! TA.AperFunction,ComponentPad*
%ADD13C,2.000000*%
G04 #@! TD*
G04 #@! TA.AperFunction,ComponentPad*
%ADD14C,1.700000*%
G04 #@! TD*
G04 #@! TA.AperFunction,ComponentPad*
%ADD15C,5.600000*%
G04 #@! TD*
G04 #@! TA.AperFunction,ComponentPad*
%ADD16O,2.100000X1.000000*%
G04 #@! TD*
G04 #@! TA.AperFunction,ComponentPad*
%ADD17O,1.800000X1.000000*%
G04 #@! TD*
G04 #@! TA.AperFunction,ComponentPad*
%ADD18R,1.700000X1.700000*%
G04 #@! TD*
G04 #@! TA.AperFunction,ComponentPad*
%ADD19O,1.700000X1.700000*%
G04 #@! TD*
G04 #@! TA.AperFunction,ComponentPad*
%ADD20R,2.000000X2.000000*%
G04 #@! TD*
G04 #@! TA.AperFunction,ViaPad*
%ADD21C,0.800000*%
G04 #@! TD*
G04 #@! TA.AperFunction,Conductor*
%ADD22C,0.200000*%
G04 #@! TD*
G04 #@! TA.AperFunction,Conductor*
%ADD23C,0.500000*%
G04 #@! TD*
G04 #@! TA.AperFunction,Conductor*
%ADD24C,0.800000*%
G04 #@! TD*
G04 #@! TA.AperFunction,Conductor*
%ADD25C,0.600000*%
G04 #@! TD*
G04 #@! TA.AperFunction,Conductor*
%ADD26C,0.300000*%
G04 #@! TD*
G04 APERTURE END LIST*
D10*
X139705000Y-82490000D02*
G75*
G03*
X139705000Y-82490000I-3040075J0D01*
G01*
X139815000Y-67490000D02*
G75*
G03*
X139815000Y-67490000I-3110016J0D01*
G01*
D11*
X171200000Y-66140000D03*
D12*
X171200000Y-61060000D03*
D13*
X174542500Y-90517500D03*
X174542500Y-84517500D03*
X186542500Y-84517500D03*
X186542500Y-90517500D03*
D14*
X176542500Y-86267500D03*
X180542500Y-86267500D03*
X184542500Y-86267500D03*
D15*
X193500000Y-75007500D03*
X100500000Y-88507500D03*
D16*
X104340000Y-83640000D03*
D17*
X100140000Y-75000000D03*
D16*
X104340000Y-75000000D03*
D17*
X100140000Y-83640000D03*
D18*
X168700000Y-87000000D03*
D19*
X171240000Y-87000000D03*
X168700000Y-89540000D03*
X171240000Y-89540000D03*
D20*
X163855000Y-67520000D03*
D13*
X163855000Y-82510000D03*
D21*
X145100000Y-87400000D03*
X149130000Y-76032500D03*
X141400000Y-86100000D03*
X166455000Y-83650000D03*
X141500000Y-83300000D03*
X152300000Y-84500000D03*
X107700000Y-67900000D03*
X147337500Y-78940000D03*
X152700000Y-75600000D03*
X112375000Y-80090000D03*
X112465000Y-78190000D03*
X119685000Y-83360000D03*
X121065000Y-77510000D03*
X122100000Y-70700000D03*
X113115000Y-74290000D03*
X118995000Y-62900000D03*
X109375000Y-75880000D03*
X138000000Y-77400000D03*
X147337500Y-76240000D03*
X158047500Y-77792500D03*
X113125000Y-76280000D03*
X117175000Y-71790000D03*
X113125000Y-75270000D03*
X160900000Y-71100000D03*
X119035000Y-79420000D03*
X147650000Y-59850000D03*
X110275000Y-88290000D03*
X100660000Y-70875000D03*
X143322500Y-79500000D03*
X171100000Y-69500000D03*
X182050000Y-81300000D03*
X127425000Y-77900000D03*
X124400000Y-61300000D03*
X164100000Y-77700000D03*
X109345000Y-79970000D03*
X157625000Y-84800000D03*
X162203125Y-73496875D03*
X122525000Y-79430000D03*
X169100000Y-69500000D03*
X155000000Y-85100000D03*
X144822500Y-79500000D03*
X127455000Y-78940000D03*
X118565000Y-85210000D03*
X156857500Y-77792500D03*
X151115000Y-79860000D03*
X147337500Y-77780000D03*
X111100000Y-59900000D03*
X101385000Y-59700000D03*
X121165000Y-79480000D03*
X107700000Y-61600000D03*
X101395000Y-62900000D03*
X160200000Y-77800000D03*
X107850000Y-86450000D03*
X159025000Y-77800000D03*
X130500000Y-61200000D03*
X119045000Y-77530000D03*
X110655000Y-83380000D03*
X129945000Y-87120000D03*
X124005000Y-83250000D03*
X130675000Y-81950000D03*
X107875000Y-87890000D03*
X131500000Y-74000000D03*
X128600000Y-70400000D03*
X133000000Y-86600000D03*
X130500000Y-74000000D03*
X106275000Y-89190000D03*
X129600000Y-70400000D03*
X152225000Y-80300000D03*
X164200000Y-79300000D03*
X141300000Y-90200000D03*
X141300000Y-88100000D03*
X119925000Y-69150000D03*
X101400000Y-67475000D03*
X108875000Y-64720500D03*
X117465000Y-66980500D03*
X103675000Y-63990000D03*
X118985000Y-66990000D03*
X121425000Y-68400000D03*
X101390000Y-61865000D03*
X122460340Y-76020801D03*
X126300000Y-70420500D03*
X152320500Y-77234520D03*
X149609161Y-78040124D03*
X128795000Y-77195000D03*
X127512500Y-66312500D03*
X121875000Y-85890000D03*
X127450000Y-80825000D03*
X158200000Y-72600000D03*
X157200000Y-69220500D03*
X130480480Y-75819520D03*
X128300000Y-75190520D03*
X114475000Y-87990000D03*
X117684500Y-79400000D03*
X117305000Y-86760000D03*
X117705000Y-80500000D03*
X128300000Y-69000000D03*
X125500000Y-69000000D03*
X117800000Y-70200000D03*
X133707256Y-75529500D03*
X133056406Y-76261497D03*
X116500000Y-70200000D03*
X128300000Y-67800000D03*
X125500000Y-67700000D03*
X172200000Y-81300000D03*
X156100000Y-85200000D03*
D22*
X144200000Y-86500000D02*
X145100000Y-87400000D01*
D23*
X145300000Y-87200000D02*
X145300000Y-83600000D01*
D22*
X141400000Y-86100000D02*
X141800000Y-86500000D01*
D23*
X148779161Y-76383339D02*
X149130000Y-76032500D01*
X145300000Y-83600000D02*
X148779161Y-80120839D01*
X145100000Y-87400000D02*
X145300000Y-87200000D01*
D22*
X141800000Y-86500000D02*
X144200000Y-86500000D01*
D24*
X166455000Y-83650000D02*
X166455000Y-70120000D01*
X166455000Y-70120000D02*
X163855000Y-67520000D01*
D23*
X148779161Y-80120839D02*
X148779161Y-76383339D01*
D24*
X131200000Y-73000000D02*
X131500000Y-73000000D01*
X129600000Y-71100000D02*
X131500000Y-73000000D01*
X130500000Y-72300000D02*
X128600000Y-70400000D01*
X130500000Y-74000000D02*
X130500000Y-72300000D01*
X130500000Y-74000000D02*
X131000000Y-73500000D01*
X128600000Y-70400000D02*
X129600000Y-70400000D01*
X128600000Y-70400000D02*
X131200000Y-73000000D01*
X106275000Y-89190000D02*
X106575000Y-89190000D01*
D23*
X133000000Y-86600000D02*
X130675000Y-84275000D01*
D24*
X131500000Y-73000000D02*
X131500000Y-74000000D01*
X131500000Y-74000000D02*
X131500000Y-72300000D01*
X131500000Y-72300000D02*
X129600000Y-70400000D01*
X106575000Y-89190000D02*
X107875000Y-87890000D01*
X131500000Y-74000000D02*
X130500000Y-74000000D01*
D23*
X130675000Y-84275000D02*
X130675000Y-81950000D01*
D24*
X129600000Y-70400000D02*
X129600000Y-71100000D01*
D25*
X153225000Y-79375000D02*
X152300000Y-80300000D01*
X152300000Y-80300000D02*
X152225000Y-80300000D01*
X153225000Y-79300000D02*
X153225000Y-79375000D01*
X164200000Y-79300000D02*
X153225000Y-79300000D01*
D26*
X141300000Y-90200000D02*
X141300000Y-88100000D01*
D22*
X113675000Y-66990000D02*
X115875000Y-69190000D01*
X119885000Y-69190000D02*
X119925000Y-69150000D01*
X101885000Y-66990000D02*
X113675000Y-66990000D01*
X115875000Y-69190000D02*
X119885000Y-69190000D01*
X101400000Y-67475000D02*
X101885000Y-66990000D01*
X108875000Y-64720500D02*
X108944500Y-64790000D01*
X115346666Y-64790000D02*
X117465000Y-66908334D01*
X108944500Y-64790000D02*
X115346666Y-64790000D01*
X117465000Y-66908334D02*
X117465000Y-66980500D01*
X116293834Y-67660500D02*
X114523334Y-65890000D01*
X118314500Y-67660500D02*
X116293834Y-67660500D01*
X105575000Y-65890000D02*
X103675000Y-63990000D01*
X114523334Y-65890000D02*
X105575000Y-65890000D01*
X118985000Y-66990000D02*
X118314500Y-67660500D01*
X116175000Y-68390000D02*
X121415000Y-68390000D01*
X121415000Y-68390000D02*
X121425000Y-68400000D01*
X104703334Y-66390000D02*
X114175000Y-66390000D01*
X114175000Y-66390000D02*
X116175000Y-68390000D01*
X101390000Y-61865000D02*
X102160000Y-61865000D01*
X102160000Y-61865000D02*
X102675000Y-62380000D01*
X102675000Y-64361666D02*
X104703334Y-66390000D01*
X102675000Y-62380000D02*
X102675000Y-64361666D01*
X122460340Y-76020801D02*
X126300000Y-72181141D01*
X126300000Y-72181141D02*
X126300000Y-70420500D01*
X149965480Y-77234520D02*
X152320500Y-77234520D01*
X149609161Y-77590839D02*
X149965480Y-77234520D01*
X149609161Y-78040124D02*
X149609161Y-77590839D01*
X127425000Y-75825000D02*
X128795000Y-77195000D01*
X127512500Y-66312500D02*
X127425000Y-66400000D01*
X127425000Y-66400000D02*
X127425000Y-75825000D01*
X121875000Y-85890000D02*
X122326666Y-85890000D01*
X122326666Y-85890000D02*
X127391666Y-80825000D01*
X127391666Y-80825000D02*
X127450000Y-80825000D01*
X158200000Y-72600000D02*
X157200000Y-71600000D01*
X157200000Y-71600000D02*
X157200000Y-69220500D01*
X135137402Y-86900000D02*
X142900000Y-86900000D01*
X145680000Y-88220000D02*
X146200000Y-87700000D01*
X146200000Y-87700000D02*
X168000000Y-87700000D01*
X132100000Y-77596666D02*
X132100000Y-83862598D01*
X142900000Y-86900000D02*
X144220000Y-88220000D01*
X144220000Y-88220000D02*
X145680000Y-88220000D01*
X130480480Y-75819520D02*
X130480480Y-75977146D01*
X168000000Y-87700000D02*
X168700000Y-87000000D01*
X132100000Y-83862598D02*
X135137402Y-86900000D01*
X130480480Y-75977146D02*
X132100000Y-77596666D01*
X128300000Y-75190520D02*
X128890520Y-75190520D01*
X146100000Y-88600000D02*
X146500000Y-88200000D01*
X131600000Y-77900000D02*
X131600000Y-83900000D01*
X131600000Y-83900000D02*
X135000000Y-87300000D01*
X135000000Y-87300000D02*
X142700000Y-87300000D01*
X144000000Y-88600000D02*
X146100000Y-88600000D01*
X170040000Y-88200000D02*
X171240000Y-87000000D01*
X146500000Y-88200000D02*
X170040000Y-88200000D01*
X142700000Y-87300000D02*
X144000000Y-88600000D01*
X128890520Y-75190520D02*
X131600000Y-77900000D01*
X114475000Y-87990000D02*
X116625000Y-85840000D01*
X116625000Y-79860000D02*
X117085000Y-79400000D01*
X117085000Y-79400000D02*
X117684500Y-79400000D01*
X116625000Y-85840000D02*
X116625000Y-79860000D01*
X117305000Y-86760000D02*
X117705000Y-86360000D01*
X117705000Y-86360000D02*
X117705000Y-80500000D01*
X129161666Y-69000000D02*
X128300000Y-69000000D01*
X122200000Y-69000000D02*
X125500000Y-69000000D01*
X121000000Y-70200000D02*
X122200000Y-69000000D01*
X117800000Y-70200000D02*
X121000000Y-70200000D01*
X133707256Y-75529500D02*
X133707256Y-73545590D01*
X133707256Y-73545590D02*
X129161666Y-69000000D01*
X134400000Y-75798422D02*
X134400000Y-73700000D01*
X121200500Y-70599500D02*
X118800500Y-70599500D01*
X126400000Y-68600000D02*
X126400000Y-69200000D01*
X122120000Y-69680000D02*
X121200500Y-70599500D01*
X126400000Y-69200000D02*
X125920000Y-69680000D01*
X125500000Y-67700000D02*
X126400000Y-68600000D01*
X125920000Y-69680000D02*
X122120000Y-69680000D01*
X118520000Y-70880000D02*
X117180000Y-70880000D01*
X128500000Y-67800000D02*
X128300000Y-67800000D01*
X118800500Y-70599500D02*
X118520000Y-70880000D01*
X133936925Y-76261497D02*
X134400000Y-75798422D01*
X133056406Y-76261497D02*
X133936925Y-76261497D01*
X134400000Y-73700000D02*
X128500000Y-67800000D01*
X117180000Y-70880000D02*
X116500000Y-70200000D01*
X172200000Y-81300000D02*
X171100000Y-81300000D01*
X171100000Y-81300000D02*
X167200000Y-85200000D01*
X167200000Y-85200000D02*
X165900000Y-85200000D01*
X156300000Y-85900000D02*
X156100000Y-85700000D01*
X165900000Y-85200000D02*
X165200000Y-85900000D01*
X156100000Y-85700000D02*
X156100000Y-85200000D01*
X165200000Y-85900000D02*
X156300000Y-85900000D01*
G04 #@! TA.AperFunction,Conductor*
G36*
X195588211Y-58098663D02*
G01*
X195628577Y-58105347D01*
X195648467Y-58112099D01*
X195651870Y-58113311D01*
X195759074Y-58153297D01*
X195770764Y-58158344D01*
X195896111Y-58220158D01*
X195900768Y-58222576D01*
X196002491Y-58278121D01*
X196012107Y-58283944D01*
X196087445Y-58334282D01*
X196127694Y-58361177D01*
X196133174Y-58365054D01*
X196199383Y-58414617D01*
X196226478Y-58434901D01*
X196234046Y-58441036D01*
X196338336Y-58532496D01*
X196344353Y-58538133D01*
X196426867Y-58620647D01*
X196432504Y-58626664D01*
X196523964Y-58730954D01*
X196530099Y-58738522D01*
X196599946Y-58831826D01*
X196603830Y-58837315D01*
X196681056Y-58952893D01*
X196686878Y-58962508D01*
X196713861Y-59011923D01*
X196742435Y-59064252D01*
X196744843Y-59068890D01*
X196806653Y-59194231D01*
X196811703Y-59205925D01*
X196851677Y-59313099D01*
X196852932Y-59316625D01*
X196898376Y-59450498D01*
X196902180Y-59464200D01*
X196922121Y-59555869D01*
X196925000Y-59582652D01*
X196925000Y-90397348D01*
X196922121Y-90424130D01*
X196902180Y-90515800D01*
X196898376Y-90529502D01*
X196871912Y-90607464D01*
X196852934Y-90663370D01*
X196851686Y-90666875D01*
X196811703Y-90774075D01*
X196806653Y-90785769D01*
X196744843Y-90911110D01*
X196742435Y-90915748D01*
X196740938Y-90918490D01*
X196686878Y-91017492D01*
X196681056Y-91027107D01*
X196603830Y-91142685D01*
X196599946Y-91148174D01*
X196563519Y-91196835D01*
X196530099Y-91241478D01*
X196523964Y-91249046D01*
X196432504Y-91353336D01*
X196426867Y-91359353D01*
X196344353Y-91441867D01*
X196338336Y-91447504D01*
X196234046Y-91538964D01*
X196226478Y-91545099D01*
X196133174Y-91614946D01*
X196127694Y-91618823D01*
X196091883Y-91642752D01*
X196012107Y-91696056D01*
X196002492Y-91701878D01*
X195953077Y-91728861D01*
X195900748Y-91757435D01*
X195896129Y-91759833D01*
X195838557Y-91788224D01*
X195770769Y-91821653D01*
X195759080Y-91826701D01*
X195651875Y-91866686D01*
X195648375Y-91867932D01*
X195514502Y-91913376D01*
X195500795Y-91917181D01*
X195464488Y-91925079D01*
X195392823Y-91940668D01*
X195390622Y-91941126D01*
X195248042Y-91969487D01*
X195232453Y-91971587D01*
X195142430Y-91978025D01*
X195142113Y-91978047D01*
X194979122Y-91988730D01*
X194970882Y-91989000D01*
X98979118Y-91989000D01*
X98970878Y-91988730D01*
X98807887Y-91978047D01*
X98807570Y-91978025D01*
X98717547Y-91971587D01*
X98701958Y-91969487D01*
X98559378Y-91941126D01*
X98557177Y-91940668D01*
X98485512Y-91925079D01*
X98449205Y-91917181D01*
X98435498Y-91913376D01*
X98301625Y-91867932D01*
X98298125Y-91866686D01*
X98190920Y-91826701D01*
X98179231Y-91821653D01*
X98111443Y-91788224D01*
X98053871Y-91759833D01*
X98049252Y-91757435D01*
X97996923Y-91728861D01*
X97947508Y-91701878D01*
X97937893Y-91696056D01*
X97858117Y-91642752D01*
X97822306Y-91618823D01*
X97816826Y-91614946D01*
X97723522Y-91545099D01*
X97715954Y-91538964D01*
X97611664Y-91447504D01*
X97605647Y-91441867D01*
X97523133Y-91359353D01*
X97517496Y-91353336D01*
X97426036Y-91249046D01*
X97419901Y-91241478D01*
X97386481Y-91196835D01*
X97350054Y-91148174D01*
X97346170Y-91142685D01*
X97268944Y-91027107D01*
X97263122Y-91017492D01*
X97209062Y-90918490D01*
X97207565Y-90915748D01*
X97205157Y-90911110D01*
X97143347Y-90785769D01*
X97138297Y-90774075D01*
X97098314Y-90666875D01*
X97097066Y-90663370D01*
X97078088Y-90607464D01*
X97051624Y-90529502D01*
X97047819Y-90515795D01*
X97025000Y-90410896D01*
X97024332Y-90407823D01*
X97023874Y-90405622D01*
X96995513Y-90263042D01*
X96993413Y-90247451D01*
X96990605Y-90208188D01*
X96986975Y-90157430D01*
X96986953Y-90157113D01*
X96976270Y-89994122D01*
X96976000Y-89985882D01*
X96976000Y-88413722D01*
X97515922Y-88413722D01*
X97516017Y-88417352D01*
X97516017Y-88417353D01*
X97522972Y-88682934D01*
X97524920Y-88757324D01*
X97525430Y-88760910D01*
X97525431Y-88760918D01*
X97542644Y-88881861D01*
X97573350Y-89097616D01*
X97574269Y-89101119D01*
X97574270Y-89101124D01*
X97647337Y-89379638D01*
X97660572Y-89430086D01*
X97785429Y-89750328D01*
X97807777Y-89792536D01*
X97910149Y-89985882D01*
X97946266Y-90054096D01*
X97948323Y-90057089D01*
X98138895Y-90334373D01*
X98138901Y-90334380D01*
X98140952Y-90337365D01*
X98193278Y-90397348D01*
X98328241Y-90552059D01*
X98366905Y-90596381D01*
X98440525Y-90663370D01*
X98579729Y-90790035D01*
X98621132Y-90827709D01*
X98900262Y-91028284D01*
X99200595Y-91195448D01*
X99518152Y-91326984D01*
X99521646Y-91327979D01*
X99521648Y-91327980D01*
X99845221Y-91420152D01*
X99845226Y-91420153D01*
X99848722Y-91421149D01*
X99852303Y-91421735D01*
X99852310Y-91421737D01*
X100184345Y-91476110D01*
X100184349Y-91476110D01*
X100187925Y-91476696D01*
X100191551Y-91476867D01*
X100527637Y-91492716D01*
X100527638Y-91492716D01*
X100531264Y-91492887D01*
X100561027Y-91490858D01*
X100870558Y-91469757D01*
X100870566Y-91469756D01*
X100874189Y-91469509D01*
X100877765Y-91468846D01*
X100877767Y-91468846D01*
X101208589Y-91407532D01*
X101208593Y-91407531D01*
X101212154Y-91406871D01*
X101471830Y-91326984D01*
X101537202Y-91306873D01*
X101540680Y-91305803D01*
X101855412Y-91167645D01*
X101953585Y-91110278D01*
X102149039Y-90996064D01*
X102149041Y-90996063D01*
X102152179Y-90994229D01*
X102155088Y-90992045D01*
X102424140Y-90790035D01*
X102424144Y-90790032D01*
X102427047Y-90787852D01*
X102676373Y-90551250D01*
X102896853Y-90287560D01*
X102903957Y-90276746D01*
X103050209Y-90054096D01*
X103085563Y-90000275D01*
X103193341Y-89785983D01*
X103238376Y-89696441D01*
X103238379Y-89696433D01*
X103240003Y-89693205D01*
X103301359Y-89525542D01*
X103356878Y-89373830D01*
X103356879Y-89373826D01*
X103358126Y-89370419D01*
X103358971Y-89366897D01*
X103358974Y-89366889D01*
X103401441Y-89190000D01*
X105689491Y-89190000D01*
X105709442Y-89341541D01*
X105767934Y-89482754D01*
X105796067Y-89519417D01*
X105855954Y-89597464D01*
X105855957Y-89597467D01*
X105860983Y-89604017D01*
X105982245Y-89697066D01*
X106123459Y-89755558D01*
X106275000Y-89775509D01*
X106283188Y-89774431D01*
X106304859Y-89771578D01*
X106321305Y-89770500D01*
X106528702Y-89770500D01*
X106545147Y-89771578D01*
X106575000Y-89775508D01*
X106583189Y-89774430D01*
X106583190Y-89774430D01*
X106613035Y-89770501D01*
X106613045Y-89770500D01*
X106613047Y-89770500D01*
X106726541Y-89755558D01*
X106867754Y-89697066D01*
X106898066Y-89673807D01*
X106958572Y-89627379D01*
X106958574Y-89627377D01*
X106989017Y-89604017D01*
X107007357Y-89580116D01*
X107018218Y-89567733D01*
X108252733Y-88333218D01*
X108265116Y-88322357D01*
X108289017Y-88304017D01*
X108312377Y-88273574D01*
X108312379Y-88273572D01*
X108382066Y-88182754D01*
X108440558Y-88041541D01*
X108447344Y-87990000D01*
X113889491Y-87990000D01*
X113909442Y-88141541D01*
X113967934Y-88282754D01*
X113998318Y-88322351D01*
X114055954Y-88397464D01*
X114055957Y-88397467D01*
X114060983Y-88404017D01*
X114067533Y-88409043D01*
X114067534Y-88409044D01*
X114159436Y-88479564D01*
X114182245Y-88497066D01*
X114323459Y-88555558D01*
X114475000Y-88575509D01*
X114626541Y-88555558D01*
X114767755Y-88497066D01*
X114790564Y-88479564D01*
X114882466Y-88409044D01*
X114882467Y-88409043D01*
X114889017Y-88404017D01*
X114894043Y-88397467D01*
X114894046Y-88397464D01*
X114951682Y-88322351D01*
X114982066Y-88282754D01*
X115040558Y-88141541D01*
X115060509Y-87990000D01*
X115046652Y-87884749D01*
X115057591Y-87814601D01*
X115082479Y-87779208D01*
X116789024Y-86072663D01*
X116790582Y-86071318D01*
X116795138Y-86069091D01*
X116810798Y-86052210D01*
X116826120Y-86035692D01*
X116829400Y-86032287D01*
X116841792Y-86019895D01*
X116844392Y-86016104D01*
X116846205Y-86014039D01*
X116866203Y-85992482D01*
X116870513Y-85981678D01*
X116874252Y-85975764D01*
X116876477Y-85971597D01*
X116879311Y-85965202D01*
X116885890Y-85955611D01*
X116891060Y-85933827D01*
X116896625Y-85916230D01*
X116901630Y-85903684D01*
X116901630Y-85903683D01*
X116904924Y-85895427D01*
X116905500Y-85889553D01*
X116905500Y-85886472D01*
X116905650Y-85883402D01*
X116906004Y-85883419D01*
X116906769Y-85876878D01*
X116906763Y-85876878D01*
X116907331Y-85865260D01*
X116910018Y-85853939D01*
X116906651Y-85829198D01*
X116905500Y-85812207D01*
X116905500Y-80720200D01*
X116925502Y-80652079D01*
X116979158Y-80605586D01*
X117049432Y-80595482D01*
X117114012Y-80624976D01*
X117147909Y-80671982D01*
X117197934Y-80792754D01*
X117228961Y-80833189D01*
X117285954Y-80907464D01*
X117285957Y-80907467D01*
X117290983Y-80914017D01*
X117297533Y-80919043D01*
X117297534Y-80919044D01*
X117375205Y-80978644D01*
X117417072Y-81035983D01*
X117424500Y-81078606D01*
X117424500Y-86049569D01*
X117404498Y-86117690D01*
X117350842Y-86164183D01*
X117304957Y-86174164D01*
X117305000Y-86174491D01*
X117153459Y-86194442D01*
X117012246Y-86252934D01*
X116890983Y-86345983D01*
X116797934Y-86467246D01*
X116739442Y-86608459D01*
X116719491Y-86760000D01*
X116739442Y-86911541D01*
X116797934Y-87052754D01*
X116831637Y-87096676D01*
X116885954Y-87167464D01*
X116885957Y-87167467D01*
X116890983Y-87174017D01*
X116897533Y-87179043D01*
X116897534Y-87179044D01*
X116963171Y-87229410D01*
X117012245Y-87267066D01*
X117153459Y-87325558D01*
X117305000Y-87345509D01*
X117456541Y-87325558D01*
X117597755Y-87267066D01*
X117646829Y-87229410D01*
X117712466Y-87179044D01*
X117712467Y-87179043D01*
X117719017Y-87174017D01*
X117724043Y-87167467D01*
X117724046Y-87167464D01*
X117778363Y-87096676D01*
X117812066Y-87052754D01*
X117870558Y-86911541D01*
X117890509Y-86760000D01*
X117876652Y-86654749D01*
X117887591Y-86584601D01*
X117912479Y-86549208D01*
X117921792Y-86539895D01*
X117924391Y-86536107D01*
X117926218Y-86534026D01*
X117938293Y-86521010D01*
X117938295Y-86521007D01*
X117946203Y-86512482D01*
X117950514Y-86501677D01*
X117954251Y-86495765D01*
X117956479Y-86491592D01*
X117959309Y-86485206D01*
X117965890Y-86475612D01*
X117971063Y-86453813D01*
X117976623Y-86436235D01*
X117984924Y-86415427D01*
X117985500Y-86409553D01*
X117985500Y-86406469D01*
X117985650Y-86403402D01*
X117986004Y-86403419D01*
X117986769Y-86396878D01*
X117986763Y-86396878D01*
X117987331Y-86385260D01*
X117990018Y-86373939D01*
X117987121Y-86352648D01*
X117986651Y-86349198D01*
X117985500Y-86332207D01*
X117985500Y-85890000D01*
X121289491Y-85890000D01*
X121309442Y-86041541D01*
X121367934Y-86182754D01*
X121399101Y-86223371D01*
X121455954Y-86297464D01*
X121455957Y-86297467D01*
X121460983Y-86304017D01*
X121467533Y-86309043D01*
X121467534Y-86309044D01*
X121484425Y-86322005D01*
X121582245Y-86397066D01*
X121723459Y-86455558D01*
X121875000Y-86475509D01*
X122026541Y-86455558D01*
X122167755Y-86397066D01*
X122265575Y-86322005D01*
X122282466Y-86309044D01*
X122282467Y-86309043D01*
X122289017Y-86304017D01*
X122372003Y-86195868D01*
X122423532Y-86157319D01*
X122429394Y-86156227D01*
X122448458Y-86144476D01*
X122464834Y-86135969D01*
X122477237Y-86130640D01*
X122485409Y-86127129D01*
X122489970Y-86123383D01*
X122492166Y-86121187D01*
X122494428Y-86119136D01*
X122494667Y-86119399D01*
X122499831Y-86115317D01*
X122499827Y-86115313D01*
X122508444Y-86107500D01*
X122518348Y-86101395D01*
X122533472Y-86081506D01*
X122544666Y-86068687D01*
X127188225Y-81425128D01*
X127250537Y-81391102D01*
X127298238Y-81392237D01*
X127298459Y-81390558D01*
X127450000Y-81410509D01*
X127601541Y-81390558D01*
X127742755Y-81332066D01*
X127810574Y-81280026D01*
X127857466Y-81244044D01*
X127857467Y-81244043D01*
X127864017Y-81239017D01*
X127869043Y-81232467D01*
X127869046Y-81232464D01*
X127910542Y-81178385D01*
X127957066Y-81117754D01*
X128015558Y-80976541D01*
X128035509Y-80825000D01*
X128015558Y-80673459D01*
X127957066Y-80532246D01*
X127899669Y-80457445D01*
X127869046Y-80417536D01*
X127869043Y-80417533D01*
X127864017Y-80410983D01*
X127846492Y-80397535D01*
X127749305Y-80322960D01*
X127742755Y-80317934D01*
X127601541Y-80259442D01*
X127450000Y-80239491D01*
X127298459Y-80259442D01*
X127157246Y-80317934D01*
X127035983Y-80410983D01*
X126942934Y-80532246D01*
X126884442Y-80673459D01*
X126864491Y-80825000D01*
X126865569Y-80833188D01*
X126865569Y-80833189D01*
X126871561Y-80878704D01*
X126860622Y-80948853D01*
X126835734Y-80984245D01*
X122398261Y-85421718D01*
X122335949Y-85455744D01*
X122265134Y-85450679D01*
X122232462Y-85432585D01*
X122174309Y-85387962D01*
X122174303Y-85387959D01*
X122167755Y-85382934D01*
X122026541Y-85324442D01*
X121875000Y-85304491D01*
X121723459Y-85324442D01*
X121582246Y-85382934D01*
X121460983Y-85475983D01*
X121367934Y-85597246D01*
X121309442Y-85738459D01*
X121289491Y-85890000D01*
X117985500Y-85890000D01*
X117985500Y-81078606D01*
X118005502Y-81010485D01*
X118034795Y-80978644D01*
X118112466Y-80919044D01*
X118112467Y-80919043D01*
X118119017Y-80914017D01*
X118124043Y-80907467D01*
X118124046Y-80907464D01*
X118181039Y-80833189D01*
X118212066Y-80792754D01*
X118270558Y-80651541D01*
X118290509Y-80500000D01*
X118270558Y-80348459D01*
X118212066Y-80207246D01*
X118150845Y-80127462D01*
X118124046Y-80092536D01*
X118124043Y-80092533D01*
X118119017Y-80085983D01*
X118112467Y-80080957D01*
X118112463Y-80080953D01*
X118061825Y-80042097D01*
X118019958Y-79984759D01*
X118015736Y-79913888D01*
X118050500Y-79851985D01*
X118061824Y-79842173D01*
X118091966Y-79819044D01*
X118091967Y-79819043D01*
X118098517Y-79814017D01*
X118103543Y-79807467D01*
X118103546Y-79807464D01*
X118151945Y-79744389D01*
X118191566Y-79692754D01*
X118250058Y-79551541D01*
X118270009Y-79400000D01*
X118250058Y-79248459D01*
X118191566Y-79107246D01*
X118114833Y-79007246D01*
X118103546Y-78992536D01*
X118103543Y-78992533D01*
X118098517Y-78985983D01*
X118084237Y-78975025D01*
X117983805Y-78897960D01*
X117977255Y-78892934D01*
X117836041Y-78834442D01*
X117684500Y-78814491D01*
X117532959Y-78834442D01*
X117391746Y-78892934D01*
X117270483Y-78985983D01*
X117234036Y-79033482D01*
X117206731Y-79069066D01*
X117149393Y-79110933D01*
X117111497Y-79118273D01*
X117088540Y-79119135D01*
X117081187Y-79119411D01*
X117076461Y-79119500D01*
X117058910Y-79119500D01*
X117054395Y-79120341D01*
X117051613Y-79120521D01*
X117033892Y-79121186D01*
X117033889Y-79121187D01*
X117022265Y-79121623D01*
X117011575Y-79126215D01*
X117004752Y-79127753D01*
X117000221Y-79129130D01*
X116993710Y-79131642D01*
X116982272Y-79133773D01*
X116972367Y-79139879D01*
X116972366Y-79139879D01*
X116963211Y-79145522D01*
X116946833Y-79154030D01*
X116934428Y-79159359D01*
X116934421Y-79159363D01*
X116926256Y-79162871D01*
X116921696Y-79166617D01*
X116919506Y-79168807D01*
X116917249Y-79170854D01*
X116917011Y-79170591D01*
X116911835Y-79174683D01*
X116911839Y-79174687D01*
X116903222Y-79182500D01*
X116893318Y-79188605D01*
X116878194Y-79208494D01*
X116867000Y-79221313D01*
X116460976Y-79627337D01*
X116459418Y-79628682D01*
X116454862Y-79630909D01*
X116446951Y-79639437D01*
X116446950Y-79639438D01*
X116423880Y-79664308D01*
X116420600Y-79667713D01*
X116408208Y-79680105D01*
X116405609Y-79683893D01*
X116403786Y-79685970D01*
X116383797Y-79707518D01*
X116379488Y-79718320D01*
X116375756Y-79724223D01*
X116373522Y-79728406D01*
X116370691Y-79734795D01*
X116364109Y-79744389D01*
X116361423Y-79755709D01*
X116361422Y-79755711D01*
X116358939Y-79766176D01*
X116353373Y-79783776D01*
X116345076Y-79804573D01*
X116344500Y-79810447D01*
X116344500Y-79813531D01*
X116344350Y-79816598D01*
X116343997Y-79816581D01*
X116343231Y-79823125D01*
X116343237Y-79823125D01*
X116342669Y-79834738D01*
X116339982Y-79846061D01*
X116341551Y-79857590D01*
X116341551Y-79857591D01*
X116343349Y-79870802D01*
X116344500Y-79887793D01*
X116344500Y-85671623D01*
X116324498Y-85739744D01*
X116307595Y-85760718D01*
X114685792Y-87382521D01*
X114623480Y-87416547D01*
X114580252Y-87418348D01*
X114475000Y-87404491D01*
X114323459Y-87424442D01*
X114182246Y-87482934D01*
X114060983Y-87575983D01*
X113967934Y-87697246D01*
X113909442Y-87838459D01*
X113889491Y-87990000D01*
X108447344Y-87990000D01*
X108460509Y-87890000D01*
X108442561Y-87753664D01*
X108441637Y-87746645D01*
X108441636Y-87746643D01*
X108440559Y-87738459D01*
X108382066Y-87597246D01*
X108289018Y-87475982D01*
X108194842Y-87403719D01*
X108167755Y-87382934D01*
X108077402Y-87345509D01*
X108026542Y-87324442D01*
X107875000Y-87304491D01*
X107723459Y-87324442D01*
X107582246Y-87382934D01*
X107491428Y-87452621D01*
X107491426Y-87452623D01*
X107460983Y-87475983D01*
X107442643Y-87499884D01*
X107431782Y-87512267D01*
X106375385Y-88568664D01*
X106313073Y-88602690D01*
X106286290Y-88605569D01*
X106283188Y-88605569D01*
X106275000Y-88604491D01*
X106236953Y-88609500D01*
X106123459Y-88624442D01*
X106115832Y-88627601D01*
X106115829Y-88627602D01*
X106085321Y-88640239D01*
X105982246Y-88682934D01*
X105921615Y-88729458D01*
X105867536Y-88770954D01*
X105867533Y-88770957D01*
X105860983Y-88775983D01*
X105855957Y-88782533D01*
X105855956Y-88782534D01*
X105779746Y-88881851D01*
X105767934Y-88897245D01*
X105744018Y-88954985D01*
X105709442Y-89038459D01*
X105689491Y-89190000D01*
X103401441Y-89190000D01*
X103437519Y-89039725D01*
X103437520Y-89039721D01*
X103438366Y-89036196D01*
X103456661Y-88885019D01*
X103479324Y-88697743D01*
X103479325Y-88697736D01*
X103479660Y-88694964D01*
X103479959Y-88685472D01*
X103485463Y-88510297D01*
X103485551Y-88507500D01*
X103485380Y-88504539D01*
X103465974Y-88167969D01*
X103465973Y-88167964D01*
X103465765Y-88164349D01*
X103439059Y-88011330D01*
X103407293Y-87829320D01*
X103407291Y-87829313D01*
X103406669Y-87825747D01*
X103403368Y-87814601D01*
X103339949Y-87600502D01*
X103309048Y-87496181D01*
X103303227Y-87482532D01*
X103216718Y-87279717D01*
X103174193Y-87180019D01*
X103166560Y-87166636D01*
X103005685Y-86884592D01*
X103003894Y-86881452D01*
X102946711Y-86803606D01*
X102866221Y-86694033D01*
X102800407Y-86604438D01*
X102797053Y-86600828D01*
X102661006Y-86454425D01*
X102566429Y-86352648D01*
X102305061Y-86129419D01*
X102296079Y-86123383D01*
X102251608Y-86093500D01*
X102019769Y-85937711D01*
X101959877Y-85906798D01*
X101723480Y-85784784D01*
X101714333Y-85780063D01*
X101392802Y-85658567D01*
X101059436Y-85574831D01*
X100916216Y-85555976D01*
X100722260Y-85530441D01*
X100722252Y-85530440D01*
X100718656Y-85529967D01*
X100572693Y-85527674D01*
X100378620Y-85524625D01*
X100378616Y-85524625D01*
X100374978Y-85524568D01*
X100371364Y-85524929D01*
X100371358Y-85524929D01*
X100129634Y-85549056D01*
X100032957Y-85558706D01*
X99821202Y-85604876D01*
X99754131Y-85619500D01*
X99697126Y-85631929D01*
X99693699Y-85633102D01*
X99693693Y-85633104D01*
X99427218Y-85724339D01*
X99371937Y-85743266D01*
X99061700Y-85891242D01*
X99058621Y-85893173D01*
X99058620Y-85893174D01*
X98990270Y-85936050D01*
X98770527Y-86073894D01*
X98767691Y-86076166D01*
X98767684Y-86076171D01*
X98549454Y-86251006D01*
X98502276Y-86288803D01*
X98499733Y-86291373D01*
X98499725Y-86291380D01*
X98280928Y-86512482D01*
X98260505Y-86533120D01*
X98258264Y-86535978D01*
X98161872Y-86658912D01*
X98048417Y-86803606D01*
X97868824Y-87096676D01*
X97867297Y-87099966D01*
X97867292Y-87099975D01*
X97781396Y-87285022D01*
X97724105Y-87408445D01*
X97722965Y-87411892D01*
X97617318Y-87731337D01*
X97617315Y-87731347D01*
X97616179Y-87734783D01*
X97615443Y-87738338D01*
X97615442Y-87738341D01*
X97551072Y-88049172D01*
X97546477Y-88071362D01*
X97535951Y-88189305D01*
X97516340Y-88409044D01*
X97515922Y-88413722D01*
X96976000Y-88413722D01*
X96976000Y-83905768D01*
X98767425Y-83905768D01*
X98799138Y-84013521D01*
X98803731Y-84024889D01*
X98889607Y-84189154D01*
X98896321Y-84199415D01*
X99012468Y-84343873D01*
X99021046Y-84352632D01*
X99163039Y-84471778D01*
X99173159Y-84478708D01*
X99335585Y-84568002D01*
X99346858Y-84572834D01*
X99523538Y-84628880D01*
X99535532Y-84631430D01*
X99679761Y-84647607D01*
X99686785Y-84648000D01*
X99867885Y-84648000D01*
X99883124Y-84643525D01*
X99884329Y-84642135D01*
X99886000Y-84634452D01*
X99886000Y-84629885D01*
X100394000Y-84629885D01*
X100398475Y-84645124D01*
X100399865Y-84646329D01*
X100407548Y-84648000D01*
X100586657Y-84648000D01*
X100592805Y-84647699D01*
X100730603Y-84634188D01*
X100742638Y-84631805D01*
X100920076Y-84578233D01*
X100931416Y-84573559D01*
X101095077Y-84486540D01*
X101105294Y-84479751D01*
X101248933Y-84362603D01*
X101257637Y-84353959D01*
X101375784Y-84211144D01*
X101382644Y-84200973D01*
X101470804Y-84037924D01*
X101475556Y-84026619D01*
X101511250Y-83911308D01*
X101511331Y-83905768D01*
X102817425Y-83905768D01*
X102849138Y-84013521D01*
X102853731Y-84024889D01*
X102939607Y-84189154D01*
X102946321Y-84199415D01*
X103062468Y-84343873D01*
X103071046Y-84352632D01*
X103213039Y-84471778D01*
X103223159Y-84478708D01*
X103385585Y-84568002D01*
X103396858Y-84572834D01*
X103573538Y-84628880D01*
X103585532Y-84631430D01*
X103729761Y-84647607D01*
X103736785Y-84648000D01*
X104067885Y-84648000D01*
X104083124Y-84643525D01*
X104084329Y-84642135D01*
X104086000Y-84634452D01*
X104086000Y-84629885D01*
X104594000Y-84629885D01*
X104598475Y-84645124D01*
X104599865Y-84646329D01*
X104607548Y-84648000D01*
X104936657Y-84648000D01*
X104942805Y-84647699D01*
X105080603Y-84634188D01*
X105092638Y-84631805D01*
X105270076Y-84578233D01*
X105281416Y-84573559D01*
X105445077Y-84486540D01*
X105455294Y-84479751D01*
X105598933Y-84362603D01*
X105607637Y-84353959D01*
X105725784Y-84211144D01*
X105732644Y-84200973D01*
X105820804Y-84037924D01*
X105825556Y-84026619D01*
X105861250Y-83911308D01*
X105861456Y-83897205D01*
X105854701Y-83894000D01*
X104612115Y-83894000D01*
X104596876Y-83898475D01*
X104595671Y-83899865D01*
X104594000Y-83907548D01*
X104594000Y-84629885D01*
X104086000Y-84629885D01*
X104086000Y-83912115D01*
X104081525Y-83896876D01*
X104080135Y-83895671D01*
X104072452Y-83894000D01*
X102832076Y-83894000D01*
X102818545Y-83897973D01*
X102817425Y-83905768D01*
X101511331Y-83905768D01*
X101511456Y-83897205D01*
X101504701Y-83894000D01*
X100412115Y-83894000D01*
X100396876Y-83898475D01*
X100395671Y-83899865D01*
X100394000Y-83907548D01*
X100394000Y-84629885D01*
X99886000Y-84629885D01*
X99886000Y-83912115D01*
X99881525Y-83896876D01*
X99880135Y-83895671D01*
X99872452Y-83894000D01*
X98782076Y-83894000D01*
X98768545Y-83897973D01*
X98767425Y-83905768D01*
X96976000Y-83905768D01*
X96976000Y-83382795D01*
X98768544Y-83382795D01*
X98775299Y-83386000D01*
X99867885Y-83386000D01*
X99883124Y-83381525D01*
X99884329Y-83380135D01*
X99886000Y-83372452D01*
X99886000Y-83367885D01*
X100394000Y-83367885D01*
X100398475Y-83383124D01*
X100399865Y-83384329D01*
X100407548Y-83386000D01*
X101497924Y-83386000D01*
X101508839Y-83382795D01*
X102818544Y-83382795D01*
X102825299Y-83386000D01*
X105847924Y-83386000D01*
X105861455Y-83382027D01*
X105862575Y-83374232D01*
X105830862Y-83266479D01*
X105826269Y-83255111D01*
X105740393Y-83090846D01*
X105733679Y-83080585D01*
X105617532Y-82936127D01*
X105608954Y-82927368D01*
X105466961Y-82808222D01*
X105456841Y-82801292D01*
X105294415Y-82711998D01*
X105283142Y-82707166D01*
X105106462Y-82651120D01*
X105094468Y-82648570D01*
X104950239Y-82632393D01*
X104943215Y-82632000D01*
X104456691Y-82632000D01*
X104388570Y-82611998D01*
X104342077Y-82558342D01*
X104331973Y-82488068D01*
X104340282Y-82457782D01*
X104377527Y-82367865D01*
X104380687Y-82360236D01*
X104400466Y-82210000D01*
X104380687Y-82059764D01*
X104322698Y-81919767D01*
X104230451Y-81799549D01*
X104110233Y-81707302D01*
X103970236Y-81649313D01*
X103962048Y-81648235D01*
X103861807Y-81635038D01*
X103861806Y-81635038D01*
X103857720Y-81634500D01*
X103782280Y-81634500D01*
X103778194Y-81635038D01*
X103778193Y-81635038D01*
X103677952Y-81648235D01*
X103669764Y-81649313D01*
X103529767Y-81707302D01*
X103409549Y-81799549D01*
X103317302Y-81919767D01*
X103259313Y-82059764D01*
X103239534Y-82210000D01*
X103259313Y-82360236D01*
X103317302Y-82500233D01*
X103362629Y-82559303D01*
X103388228Y-82625523D01*
X103373963Y-82695071D01*
X103321818Y-82747258D01*
X103234923Y-82793460D01*
X103224706Y-82800249D01*
X103081067Y-82917397D01*
X103072363Y-82926041D01*
X102954216Y-83068856D01*
X102947356Y-83079027D01*
X102859196Y-83242076D01*
X102854444Y-83253381D01*
X102818750Y-83368692D01*
X102818544Y-83382795D01*
X101508839Y-83382795D01*
X101511455Y-83382027D01*
X101512575Y-83374232D01*
X101480862Y-83266479D01*
X101476269Y-83255111D01*
X101390393Y-83090846D01*
X101383679Y-83080585D01*
X101267532Y-82936127D01*
X101258954Y-82927368D01*
X101116961Y-82808222D01*
X101106841Y-82801292D01*
X100944415Y-82711998D01*
X100933142Y-82707166D01*
X100756462Y-82651120D01*
X100744468Y-82648570D01*
X100600239Y-82632393D01*
X100593215Y-82632000D01*
X100412115Y-82632000D01*
X100396876Y-82636475D01*
X100395671Y-82637865D01*
X100394000Y-82645548D01*
X100394000Y-83367885D01*
X99886000Y-83367885D01*
X99886000Y-82650115D01*
X99881525Y-82634876D01*
X99880135Y-82633671D01*
X99872452Y-82632000D01*
X99693343Y-82632000D01*
X99687195Y-82632301D01*
X99549397Y-82645812D01*
X99537362Y-82648195D01*
X99359924Y-82701767D01*
X99348584Y-82706441D01*
X99184923Y-82793460D01*
X99174706Y-82800249D01*
X99031067Y-82917397D01*
X99022363Y-82926041D01*
X98904216Y-83068856D01*
X98897356Y-83079027D01*
X98809196Y-83242076D01*
X98804444Y-83253381D01*
X98768750Y-83368692D01*
X98768544Y-83382795D01*
X96976000Y-83382795D01*
X96976000Y-75265768D01*
X98767425Y-75265768D01*
X98799138Y-75373521D01*
X98803731Y-75384889D01*
X98889607Y-75549154D01*
X98896321Y-75559415D01*
X99012468Y-75703873D01*
X99021046Y-75712632D01*
X99163039Y-75831778D01*
X99173159Y-75838708D01*
X99335585Y-75928002D01*
X99346858Y-75932834D01*
X99523538Y-75988880D01*
X99535532Y-75991430D01*
X99679761Y-76007607D01*
X99686785Y-76008000D01*
X99867885Y-76008000D01*
X99883124Y-76003525D01*
X99884329Y-76002135D01*
X99886000Y-75994452D01*
X99886000Y-75989885D01*
X100394000Y-75989885D01*
X100398475Y-76005124D01*
X100399865Y-76006329D01*
X100407548Y-76008000D01*
X100586657Y-76008000D01*
X100592805Y-76007699D01*
X100730603Y-75994188D01*
X100742638Y-75991805D01*
X100920076Y-75938233D01*
X100931416Y-75933559D01*
X101095077Y-75846540D01*
X101105294Y-75839751D01*
X101248933Y-75722603D01*
X101257637Y-75713959D01*
X101375784Y-75571144D01*
X101382644Y-75560973D01*
X101470804Y-75397924D01*
X101475556Y-75386619D01*
X101511250Y-75271308D01*
X101511331Y-75265768D01*
X102817425Y-75265768D01*
X102849138Y-75373521D01*
X102853731Y-75384889D01*
X102939607Y-75549154D01*
X102946321Y-75559415D01*
X103062468Y-75703873D01*
X103071046Y-75712632D01*
X103213039Y-75831778D01*
X103223156Y-75838705D01*
X103323250Y-75893733D01*
X103373308Y-75944078D01*
X103388201Y-76013495D01*
X103362510Y-76080851D01*
X103317302Y-76139767D01*
X103259313Y-76279764D01*
X103239534Y-76430000D01*
X103259313Y-76580236D01*
X103317302Y-76720233D01*
X103409549Y-76840451D01*
X103529767Y-76932698D01*
X103669764Y-76990687D01*
X103677952Y-76991765D01*
X103757328Y-77002215D01*
X103782280Y-77005500D01*
X103857720Y-77005500D01*
X103882673Y-77002215D01*
X103962048Y-76991765D01*
X103970236Y-76990687D01*
X104110233Y-76932698D01*
X104230451Y-76840451D01*
X104322698Y-76720233D01*
X104380687Y-76580236D01*
X104400466Y-76430000D01*
X104380687Y-76279764D01*
X104366359Y-76245174D01*
X104340282Y-76182218D01*
X104332693Y-76111628D01*
X104364472Y-76048141D01*
X104425530Y-76011914D01*
X104456691Y-76008000D01*
X104936657Y-76008000D01*
X104942805Y-76007699D01*
X105080603Y-75994188D01*
X105092638Y-75991805D01*
X105270076Y-75938233D01*
X105281416Y-75933559D01*
X105445077Y-75846540D01*
X105455294Y-75839751D01*
X105598933Y-75722603D01*
X105607637Y-75713959D01*
X105725784Y-75571144D01*
X105732644Y-75560973D01*
X105820804Y-75397924D01*
X105825556Y-75386619D01*
X105861250Y-75271308D01*
X105861456Y-75257205D01*
X105854701Y-75254000D01*
X102832076Y-75254000D01*
X102818545Y-75257973D01*
X102817425Y-75265768D01*
X101511331Y-75265768D01*
X101511456Y-75257205D01*
X101504701Y-75254000D01*
X100412115Y-75254000D01*
X100396876Y-75258475D01*
X100395671Y-75259865D01*
X100394000Y-75267548D01*
X100394000Y-75989885D01*
X99886000Y-75989885D01*
X99886000Y-75272115D01*
X99881525Y-75256876D01*
X99880135Y-75255671D01*
X99872452Y-75254000D01*
X98782076Y-75254000D01*
X98768545Y-75257973D01*
X98767425Y-75265768D01*
X96976000Y-75265768D01*
X96976000Y-74742795D01*
X98768544Y-74742795D01*
X98775299Y-74746000D01*
X99867885Y-74746000D01*
X99883124Y-74741525D01*
X99884329Y-74740135D01*
X99886000Y-74732452D01*
X99886000Y-74727885D01*
X100394000Y-74727885D01*
X100398475Y-74743124D01*
X100399865Y-74744329D01*
X100407548Y-74746000D01*
X101497924Y-74746000D01*
X101508839Y-74742795D01*
X102818544Y-74742795D01*
X102825299Y-74746000D01*
X104067885Y-74746000D01*
X104083124Y-74741525D01*
X104084329Y-74740135D01*
X104086000Y-74732452D01*
X104086000Y-74727885D01*
X104594000Y-74727885D01*
X104598475Y-74743124D01*
X104599865Y-74744329D01*
X104607548Y-74746000D01*
X105847924Y-74746000D01*
X105861455Y-74742027D01*
X105862575Y-74734232D01*
X105830862Y-74626479D01*
X105826269Y-74615111D01*
X105740393Y-74450846D01*
X105733679Y-74440585D01*
X105617532Y-74296127D01*
X105608954Y-74287368D01*
X105466961Y-74168222D01*
X105456841Y-74161292D01*
X105294415Y-74071998D01*
X105283142Y-74067166D01*
X105106462Y-74011120D01*
X105094468Y-74008570D01*
X104950239Y-73992393D01*
X104943215Y-73992000D01*
X104612115Y-73992000D01*
X104596876Y-73996475D01*
X104595671Y-73997865D01*
X104594000Y-74005548D01*
X104594000Y-74727885D01*
X104086000Y-74727885D01*
X104086000Y-74010115D01*
X104081525Y-73994876D01*
X104080135Y-73993671D01*
X104072452Y-73992000D01*
X103743343Y-73992000D01*
X103737195Y-73992301D01*
X103599397Y-74005812D01*
X103587362Y-74008195D01*
X103409924Y-74061767D01*
X103398584Y-74066441D01*
X103234923Y-74153460D01*
X103224706Y-74160249D01*
X103081067Y-74277397D01*
X103072363Y-74286041D01*
X102954216Y-74428856D01*
X102947356Y-74439027D01*
X102859196Y-74602076D01*
X102854444Y-74613381D01*
X102818750Y-74728692D01*
X102818544Y-74742795D01*
X101508839Y-74742795D01*
X101511455Y-74742027D01*
X101512575Y-74734232D01*
X101480862Y-74626479D01*
X101476269Y-74615111D01*
X101390393Y-74450846D01*
X101383679Y-74440585D01*
X101267532Y-74296127D01*
X101258954Y-74287368D01*
X101116961Y-74168222D01*
X101106841Y-74161292D01*
X100944415Y-74071998D01*
X100933142Y-74067166D01*
X100756462Y-74011120D01*
X100744468Y-74008570D01*
X100600239Y-73992393D01*
X100593215Y-73992000D01*
X100412115Y-73992000D01*
X100396876Y-73996475D01*
X100395671Y-73997865D01*
X100394000Y-74005548D01*
X100394000Y-74727885D01*
X99886000Y-74727885D01*
X99886000Y-74010115D01*
X99881525Y-73994876D01*
X99880135Y-73993671D01*
X99872452Y-73992000D01*
X99693343Y-73992000D01*
X99687195Y-73992301D01*
X99549397Y-74005812D01*
X99537362Y-74008195D01*
X99359924Y-74061767D01*
X99348584Y-74066441D01*
X99184923Y-74153460D01*
X99174706Y-74160249D01*
X99031067Y-74277397D01*
X99022363Y-74286041D01*
X98904216Y-74428856D01*
X98897356Y-74439027D01*
X98809196Y-74602076D01*
X98804444Y-74613381D01*
X98768750Y-74728692D01*
X98768544Y-74742795D01*
X96976000Y-74742795D01*
X96976000Y-61865000D01*
X100804491Y-61865000D01*
X100824442Y-62016541D01*
X100882934Y-62157754D01*
X100924558Y-62211999D01*
X100970954Y-62272464D01*
X100970957Y-62272467D01*
X100975983Y-62279017D01*
X100982533Y-62284043D01*
X100982534Y-62284044D01*
X101060940Y-62344208D01*
X101097245Y-62372066D01*
X101238459Y-62430558D01*
X101390000Y-62450509D01*
X101541541Y-62430558D01*
X101682755Y-62372066D01*
X101719060Y-62344208D01*
X101797466Y-62284044D01*
X101797467Y-62284043D01*
X101804017Y-62279017D01*
X101868644Y-62194794D01*
X101925979Y-62152929D01*
X101968604Y-62145500D01*
X101991623Y-62145500D01*
X102059744Y-62165502D01*
X102080718Y-62182405D01*
X102357595Y-62459282D01*
X102391621Y-62521594D01*
X102394500Y-62548377D01*
X102394500Y-64313133D01*
X102394350Y-64315181D01*
X102392702Y-64319980D01*
X102393139Y-64331607D01*
X102394411Y-64365493D01*
X102394500Y-64370221D01*
X102394500Y-64387756D01*
X102395341Y-64392268D01*
X102395521Y-64395052D01*
X102396186Y-64412774D01*
X102396187Y-64412777D01*
X102396623Y-64424401D01*
X102401215Y-64435091D01*
X102402753Y-64441914D01*
X102404131Y-64446450D01*
X102406643Y-64452960D01*
X102408773Y-64464394D01*
X102414877Y-64474296D01*
X102420524Y-64483458D01*
X102429031Y-64499834D01*
X102437871Y-64520409D01*
X102441617Y-64524970D01*
X102443813Y-64527166D01*
X102445864Y-64529428D01*
X102445601Y-64529667D01*
X102449683Y-64534831D01*
X102449687Y-64534827D01*
X102457500Y-64543444D01*
X102463605Y-64553348D01*
X102483494Y-64568472D01*
X102496313Y-64579666D01*
X104411052Y-66494405D01*
X104445078Y-66556717D01*
X104440013Y-66627532D01*
X104397466Y-66684368D01*
X104330946Y-66709179D01*
X104321957Y-66709500D01*
X101933534Y-66709500D01*
X101931485Y-66709350D01*
X101926686Y-66707702D01*
X101915062Y-66708138D01*
X101915059Y-66708138D01*
X101881162Y-66709411D01*
X101876435Y-66709500D01*
X101858910Y-66709500D01*
X101854400Y-66710340D01*
X101851628Y-66710520D01*
X101822265Y-66711622D01*
X101811578Y-66716214D01*
X101804759Y-66717750D01*
X101800227Y-66719127D01*
X101793705Y-66721644D01*
X101782272Y-66723773D01*
X101765505Y-66734108D01*
X101763206Y-66735525D01*
X101746835Y-66744029D01*
X101734430Y-66749359D01*
X101734428Y-66749360D01*
X101726257Y-66752871D01*
X101721696Y-66756617D01*
X101719506Y-66758807D01*
X101717238Y-66760864D01*
X101716999Y-66760601D01*
X101711835Y-66764683D01*
X101711839Y-66764687D01*
X101703222Y-66772500D01*
X101693318Y-66778605D01*
X101678194Y-66798494D01*
X101667000Y-66811313D01*
X101610792Y-66867521D01*
X101548480Y-66901547D01*
X101505252Y-66903348D01*
X101400000Y-66889491D01*
X101248459Y-66909442D01*
X101107246Y-66967934D01*
X100985983Y-67060983D01*
X100892934Y-67182246D01*
X100834442Y-67323459D01*
X100814491Y-67475000D01*
X100834442Y-67626541D01*
X100892934Y-67767754D01*
X100927229Y-67812448D01*
X100980954Y-67882464D01*
X100980957Y-67882467D01*
X100985983Y-67889017D01*
X100992533Y-67894043D01*
X100992534Y-67894044D01*
X101056071Y-67942798D01*
X101107245Y-67982066D01*
X101248459Y-68040558D01*
X101400000Y-68060509D01*
X101551541Y-68040558D01*
X101692755Y-67982066D01*
X101743929Y-67942798D01*
X101807466Y-67894044D01*
X101807467Y-67894043D01*
X101814017Y-67889017D01*
X101819043Y-67882467D01*
X101819046Y-67882464D01*
X101872771Y-67812448D01*
X101907066Y-67767754D01*
X101965558Y-67626541D01*
X101985509Y-67475000D01*
X101977339Y-67412945D01*
X101988278Y-67342799D01*
X102035405Y-67289700D01*
X102102261Y-67270500D01*
X113506623Y-67270500D01*
X113574744Y-67290502D01*
X113595718Y-67307405D01*
X115642337Y-69354024D01*
X115643682Y-69355582D01*
X115645909Y-69360138D01*
X115654437Y-69368049D01*
X115654438Y-69368050D01*
X115679308Y-69391120D01*
X115682713Y-69394400D01*
X115695105Y-69406792D01*
X115698893Y-69409391D01*
X115700970Y-69411214D01*
X115722518Y-69431203D01*
X115733320Y-69435512D01*
X115739223Y-69439244D01*
X115743411Y-69441480D01*
X115749794Y-69444309D01*
X115759389Y-69450891D01*
X115781192Y-69456065D01*
X115798770Y-69461625D01*
X115819573Y-69469924D01*
X115825447Y-69470500D01*
X115828531Y-69470500D01*
X115831598Y-69470650D01*
X115831581Y-69471004D01*
X115838122Y-69471770D01*
X115838122Y-69471764D01*
X115849740Y-69472332D01*
X115861061Y-69475019D01*
X115872589Y-69473450D01*
X115872590Y-69473450D01*
X115885807Y-69471651D01*
X115902799Y-69470500D01*
X116125944Y-69470500D01*
X116194065Y-69490502D01*
X116240558Y-69544158D01*
X116250662Y-69614432D01*
X116221168Y-69679012D01*
X116202648Y-69696462D01*
X116150564Y-69736428D01*
X116085983Y-69785983D01*
X115992934Y-69907246D01*
X115934442Y-70048459D01*
X115914491Y-70200000D01*
X115934442Y-70351541D01*
X115992934Y-70492754D01*
X116015678Y-70522394D01*
X116080954Y-70607464D01*
X116080957Y-70607467D01*
X116085983Y-70614017D01*
X116092533Y-70619043D01*
X116092534Y-70619044D01*
X116197131Y-70699305D01*
X116207245Y-70707066D01*
X116348459Y-70765558D01*
X116500000Y-70785509D01*
X116605251Y-70771652D01*
X116675399Y-70782591D01*
X116710792Y-70807479D01*
X116947337Y-71044024D01*
X116948682Y-71045582D01*
X116950909Y-71050138D01*
X116959437Y-71058049D01*
X116959438Y-71058050D01*
X116984308Y-71081120D01*
X116987713Y-71084400D01*
X117000105Y-71096792D01*
X117003896Y-71099392D01*
X117005961Y-71101205D01*
X117027518Y-71121203D01*
X117038322Y-71125513D01*
X117044236Y-71129252D01*
X117048403Y-71131477D01*
X117054798Y-71134311D01*
X117064389Y-71140890D01*
X117075707Y-71143576D01*
X117086173Y-71146060D01*
X117103770Y-71151625D01*
X117116316Y-71156630D01*
X117124573Y-71159924D01*
X117130447Y-71160500D01*
X117133528Y-71160500D01*
X117136598Y-71160650D01*
X117136581Y-71161004D01*
X117143122Y-71161769D01*
X117143122Y-71161763D01*
X117154740Y-71162331D01*
X117166061Y-71165018D01*
X117177590Y-71163449D01*
X117177591Y-71163449D01*
X117190802Y-71161651D01*
X117207793Y-71160500D01*
X118471467Y-71160500D01*
X118473515Y-71160650D01*
X118478314Y-71162298D01*
X118523827Y-71160589D01*
X118528555Y-71160500D01*
X118546090Y-71160500D01*
X118550602Y-71159659D01*
X118553386Y-71159479D01*
X118571108Y-71158814D01*
X118571111Y-71158813D01*
X118582735Y-71158377D01*
X118593425Y-71153785D01*
X118600248Y-71152247D01*
X118604784Y-71150869D01*
X118611294Y-71148357D01*
X118622728Y-71146227D01*
X118641792Y-71134476D01*
X118658168Y-71125969D01*
X118670571Y-71120640D01*
X118678743Y-71117129D01*
X118683304Y-71113383D01*
X118685500Y-71111187D01*
X118687762Y-71109136D01*
X118688001Y-71109399D01*
X118693165Y-71105317D01*
X118693161Y-71105313D01*
X118701778Y-71097500D01*
X118711682Y-71091395D01*
X118726806Y-71071506D01*
X118738000Y-71058687D01*
X118879782Y-70916905D01*
X118942094Y-70882879D01*
X118968877Y-70880000D01*
X121151967Y-70880000D01*
X121154015Y-70880150D01*
X121158814Y-70881798D01*
X121204327Y-70880089D01*
X121209055Y-70880000D01*
X121226590Y-70880000D01*
X121231102Y-70879159D01*
X121233886Y-70878979D01*
X121251608Y-70878314D01*
X121251611Y-70878313D01*
X121263235Y-70877877D01*
X121273925Y-70873285D01*
X121280748Y-70871747D01*
X121285284Y-70870369D01*
X121291794Y-70867857D01*
X121303228Y-70865727D01*
X121322292Y-70853976D01*
X121338668Y-70845469D01*
X121351071Y-70840140D01*
X121359243Y-70836629D01*
X121363804Y-70832883D01*
X121366000Y-70830687D01*
X121368262Y-70828636D01*
X121368501Y-70828899D01*
X121373665Y-70824817D01*
X121373661Y-70824813D01*
X121382278Y-70817000D01*
X121392182Y-70810895D01*
X121407306Y-70791006D01*
X121418500Y-70778187D01*
X122199282Y-69997405D01*
X122261594Y-69963379D01*
X122288377Y-69960500D01*
X125673637Y-69960500D01*
X125741758Y-69980502D01*
X125788251Y-70034158D01*
X125798355Y-70104432D01*
X125790046Y-70134718D01*
X125783777Y-70149852D01*
X125734442Y-70268959D01*
X125714491Y-70420500D01*
X125734442Y-70572041D01*
X125792934Y-70713254D01*
X125829174Y-70760482D01*
X125880954Y-70827964D01*
X125880957Y-70827967D01*
X125885983Y-70834517D01*
X125892533Y-70839543D01*
X125892534Y-70839544D01*
X125970205Y-70899144D01*
X126012072Y-70956483D01*
X126019500Y-70999106D01*
X126019500Y-72012764D01*
X125999498Y-72080885D01*
X125982595Y-72101859D01*
X122671132Y-75413322D01*
X122608820Y-75447348D01*
X122565592Y-75449149D01*
X122460340Y-75435292D01*
X122308799Y-75455243D01*
X122167586Y-75513735D01*
X122046323Y-75606784D01*
X121953274Y-75728047D01*
X121894782Y-75869260D01*
X121874831Y-76020801D01*
X121894782Y-76172342D01*
X121953274Y-76313555D01*
X121997943Y-76371768D01*
X122041294Y-76428265D01*
X122041297Y-76428268D01*
X122046323Y-76434818D01*
X122052873Y-76439844D01*
X122052874Y-76439845D01*
X122135570Y-76503301D01*
X122167585Y-76527867D01*
X122308799Y-76586359D01*
X122460340Y-76606310D01*
X122611881Y-76586359D01*
X122753095Y-76527867D01*
X122785110Y-76503301D01*
X122867806Y-76439845D01*
X122867807Y-76439844D01*
X122874357Y-76434818D01*
X122879383Y-76428268D01*
X122879386Y-76428265D01*
X122922737Y-76371768D01*
X122967406Y-76313555D01*
X123025898Y-76172342D01*
X123045849Y-76020801D01*
X123031992Y-75915550D01*
X123042931Y-75845402D01*
X123067819Y-75810009D01*
X126464024Y-72413804D01*
X126465582Y-72412459D01*
X126470138Y-72410232D01*
X126501120Y-72376833D01*
X126504400Y-72373428D01*
X126516792Y-72361036D01*
X126519392Y-72357245D01*
X126521205Y-72355180D01*
X126541203Y-72333623D01*
X126545513Y-72322819D01*
X126549252Y-72316905D01*
X126551477Y-72312738D01*
X126554311Y-72306343D01*
X126560890Y-72296752D01*
X126566060Y-72274968D01*
X126571625Y-72257371D01*
X126576630Y-72244825D01*
X126576630Y-72244824D01*
X126579924Y-72236568D01*
X126580500Y-72230694D01*
X126580500Y-72227613D01*
X126580650Y-72224543D01*
X126581004Y-72224560D01*
X126581769Y-72218019D01*
X126581763Y-72218019D01*
X126582331Y-72206401D01*
X126585018Y-72195080D01*
X126581651Y-72170339D01*
X126580500Y-72153348D01*
X126580500Y-70999106D01*
X126600502Y-70930985D01*
X126629795Y-70899144D01*
X126707466Y-70839544D01*
X126707467Y-70839543D01*
X126714017Y-70834517D01*
X126719043Y-70827967D01*
X126719046Y-70827964D01*
X126770826Y-70760482D01*
X126807066Y-70713254D01*
X126865558Y-70572041D01*
X126885509Y-70420500D01*
X126865558Y-70268959D01*
X126807066Y-70127746D01*
X126735253Y-70034158D01*
X126719046Y-70013036D01*
X126719043Y-70013033D01*
X126714017Y-70006483D01*
X126702187Y-69997405D01*
X126599305Y-69918460D01*
X126592755Y-69913434D01*
X126451541Y-69854942D01*
X126435126Y-69852781D01*
X126431102Y-69852251D01*
X126366174Y-69823528D01*
X126327083Y-69764263D01*
X126326238Y-69693272D01*
X126358453Y-69638234D01*
X126564024Y-69432663D01*
X126565582Y-69431318D01*
X126570138Y-69429091D01*
X126578108Y-69420500D01*
X126601120Y-69395692D01*
X126604400Y-69392287D01*
X126616792Y-69379895D01*
X126619391Y-69376107D01*
X126621218Y-69374026D01*
X126623060Y-69372041D01*
X126641203Y-69352482D01*
X126645512Y-69341680D01*
X126649244Y-69335777D01*
X126651480Y-69331589D01*
X126654309Y-69325206D01*
X126660891Y-69315611D01*
X126666065Y-69293808D01*
X126671625Y-69276230D01*
X126679924Y-69255427D01*
X126680500Y-69249553D01*
X126680500Y-69246469D01*
X126680650Y-69243402D01*
X126681004Y-69243419D01*
X126681770Y-69236878D01*
X126681764Y-69236878D01*
X126682332Y-69225260D01*
X126685019Y-69213939D01*
X126681651Y-69189191D01*
X126680500Y-69172200D01*
X126680500Y-68648527D01*
X126680650Y-68646483D01*
X126682297Y-68641686D01*
X126681738Y-68626771D01*
X126680589Y-68596188D01*
X126680500Y-68591461D01*
X126680500Y-68573910D01*
X126679659Y-68569395D01*
X126679479Y-68566613D01*
X126678814Y-68548892D01*
X126678813Y-68548889D01*
X126678377Y-68537265D01*
X126673785Y-68526575D01*
X126672247Y-68519752D01*
X126670869Y-68515216D01*
X126668357Y-68508706D01*
X126666227Y-68497272D01*
X126654476Y-68478208D01*
X126645969Y-68461832D01*
X126640640Y-68449429D01*
X126637129Y-68441257D01*
X126633383Y-68436696D01*
X126631187Y-68434500D01*
X126629136Y-68432238D01*
X126629399Y-68431999D01*
X126625317Y-68426835D01*
X126625313Y-68426839D01*
X126617500Y-68418222D01*
X126611395Y-68408318D01*
X126591506Y-68393194D01*
X126578687Y-68382000D01*
X126107479Y-67910792D01*
X126073453Y-67848480D01*
X126071652Y-67805250D01*
X126072344Y-67800000D01*
X126085509Y-67700000D01*
X126065558Y-67548459D01*
X126007066Y-67407246D01*
X125949057Y-67331648D01*
X125919046Y-67292536D01*
X125919043Y-67292533D01*
X125914017Y-67285983D01*
X125899866Y-67275124D01*
X125799305Y-67197960D01*
X125792755Y-67192934D01*
X125651541Y-67134442D01*
X125500000Y-67114491D01*
X125348459Y-67134442D01*
X125207246Y-67192934D01*
X125085983Y-67285983D01*
X124992934Y-67407246D01*
X124934442Y-67548459D01*
X124914491Y-67700000D01*
X124934442Y-67851541D01*
X124992934Y-67992754D01*
X125025997Y-68035842D01*
X125080954Y-68107464D01*
X125080957Y-68107467D01*
X125085983Y-68114017D01*
X125092533Y-68119043D01*
X125092534Y-68119044D01*
X125194089Y-68196971D01*
X125207245Y-68207066D01*
X125214871Y-68210225D01*
X125214875Y-68210227D01*
X125271282Y-68233591D01*
X125326564Y-68278139D01*
X125348985Y-68345502D01*
X125331427Y-68414293D01*
X125279465Y-68462672D01*
X125271283Y-68466409D01*
X125261817Y-68470330D01*
X125207246Y-68492934D01*
X125085983Y-68585983D01*
X125021356Y-68670206D01*
X124964021Y-68712071D01*
X124921396Y-68719500D01*
X122248527Y-68719500D01*
X122246483Y-68719350D01*
X122241686Y-68717703D01*
X122230061Y-68718139D01*
X122230059Y-68718139D01*
X122196188Y-68719411D01*
X122191461Y-68719500D01*
X122173910Y-68719500D01*
X122169395Y-68720341D01*
X122166613Y-68720521D01*
X122148893Y-68721186D01*
X122148890Y-68721187D01*
X122137265Y-68721623D01*
X122130858Y-68724375D01*
X122063031Y-68720031D01*
X122005880Y-68677909D01*
X121980574Y-68611575D01*
X121987512Y-68567751D01*
X121985260Y-68567148D01*
X121987397Y-68559172D01*
X121990558Y-68551541D01*
X122010509Y-68400000D01*
X121990558Y-68248459D01*
X121932066Y-68107246D01*
X121878469Y-68037397D01*
X121844046Y-67992536D01*
X121844043Y-67992533D01*
X121839017Y-67985983D01*
X121827363Y-67977040D01*
X121724305Y-67897960D01*
X121717755Y-67892934D01*
X121576541Y-67834442D01*
X121425000Y-67814491D01*
X121273459Y-67834442D01*
X121132246Y-67892934D01*
X121010983Y-67985983D01*
X120986135Y-68018366D01*
X120954031Y-68060204D01*
X120896693Y-68102071D01*
X120854069Y-68109500D01*
X118566323Y-68109500D01*
X118498202Y-68089498D01*
X118451709Y-68035842D01*
X118441605Y-67965568D01*
X118471099Y-67900988D01*
X118477927Y-67894006D01*
X118477804Y-67893883D01*
X118479096Y-67892591D01*
X118480044Y-67891842D01*
X118481712Y-67890136D01*
X118482288Y-67889614D01*
X118482528Y-67889878D01*
X118487665Y-67885817D01*
X118487661Y-67885813D01*
X118496278Y-67878000D01*
X118506182Y-67871895D01*
X118521306Y-67852006D01*
X118532500Y-67839187D01*
X118774208Y-67597479D01*
X118836520Y-67563453D01*
X118879748Y-67561652D01*
X118985000Y-67575509D01*
X119136541Y-67555558D01*
X119277755Y-67497066D01*
X119284593Y-67491819D01*
X119392466Y-67409044D01*
X119392467Y-67409043D01*
X119399017Y-67404017D01*
X119404043Y-67397467D01*
X119404046Y-67397464D01*
X119455301Y-67330667D01*
X119492066Y-67282754D01*
X119550558Y-67141541D01*
X119570509Y-66990000D01*
X119550558Y-66838459D01*
X119492066Y-66697246D01*
X119415623Y-66597624D01*
X119404046Y-66582536D01*
X119404043Y-66582533D01*
X119399017Y-66575983D01*
X119380086Y-66561456D01*
X119284305Y-66487960D01*
X119277755Y-66482934D01*
X119136541Y-66424442D01*
X118985000Y-66404491D01*
X118833459Y-66424442D01*
X118692246Y-66482934D01*
X118570983Y-66575983D01*
X118477934Y-66697246D01*
X118419442Y-66838459D01*
X118399491Y-66990000D01*
X118400569Y-66998188D01*
X118413348Y-67095250D01*
X118402409Y-67165399D01*
X118377521Y-67200792D01*
X118235218Y-67343095D01*
X118172906Y-67377121D01*
X118146123Y-67380000D01*
X118116423Y-67380000D01*
X118048302Y-67359998D01*
X118001809Y-67306342D01*
X117991705Y-67236068D01*
X118000014Y-67205783D01*
X118027396Y-67139675D01*
X118027396Y-67139674D01*
X118030558Y-67132041D01*
X118050509Y-66980500D01*
X118030558Y-66828959D01*
X117972066Y-66687746D01*
X117912166Y-66609683D01*
X117884046Y-66573036D01*
X117884043Y-66573033D01*
X117879017Y-66566483D01*
X117864268Y-66555165D01*
X117764305Y-66478460D01*
X117757755Y-66473434D01*
X117616541Y-66414942D01*
X117465000Y-66394991D01*
X117456812Y-66396069D01*
X117456811Y-66396069D01*
X117423519Y-66400452D01*
X117353371Y-66389513D01*
X117317978Y-66364625D01*
X117265853Y-66312500D01*
X126926991Y-66312500D01*
X126946942Y-66464041D01*
X127005434Y-66605254D01*
X127098483Y-66726517D01*
X127105034Y-66731544D01*
X127107598Y-66734108D01*
X127141621Y-66796421D01*
X127144500Y-66823201D01*
X127144500Y-75776467D01*
X127144350Y-75778515D01*
X127142702Y-75783314D01*
X127143754Y-75811332D01*
X127144411Y-75828827D01*
X127144500Y-75833555D01*
X127144500Y-75851090D01*
X127145341Y-75855602D01*
X127145521Y-75858386D01*
X127146186Y-75876108D01*
X127146187Y-75876111D01*
X127146623Y-75887735D01*
X127151215Y-75898425D01*
X127152753Y-75905248D01*
X127154131Y-75909784D01*
X127156643Y-75916294D01*
X127158773Y-75927728D01*
X127168851Y-75944078D01*
X127170524Y-75946792D01*
X127179031Y-75963168D01*
X127187871Y-75983743D01*
X127191617Y-75988304D01*
X127193813Y-75990500D01*
X127195864Y-75992762D01*
X127195601Y-75993001D01*
X127199683Y-75998165D01*
X127199687Y-75998161D01*
X127207500Y-76006778D01*
X127213605Y-76016682D01*
X127233494Y-76031806D01*
X127246313Y-76043000D01*
X128187521Y-76984208D01*
X128221547Y-77046520D01*
X128223348Y-77089748D01*
X128209491Y-77195000D01*
X128229442Y-77346541D01*
X128287934Y-77487754D01*
X128317455Y-77526226D01*
X128375954Y-77602464D01*
X128375957Y-77602467D01*
X128380983Y-77609017D01*
X128387533Y-77614043D01*
X128387534Y-77614044D01*
X128428128Y-77645193D01*
X128502245Y-77702066D01*
X128643459Y-77760558D01*
X128795000Y-77780509D01*
X128946541Y-77760558D01*
X129087755Y-77702066D01*
X129161872Y-77645193D01*
X129202466Y-77614044D01*
X129202467Y-77614043D01*
X129209017Y-77609017D01*
X129214043Y-77602467D01*
X129214046Y-77602464D01*
X129272545Y-77526226D01*
X129302066Y-77487754D01*
X129360558Y-77346541D01*
X129380509Y-77195000D01*
X129360558Y-77043459D01*
X129302066Y-76902246D01*
X129239342Y-76820503D01*
X129214046Y-76787536D01*
X129214043Y-76787533D01*
X129209017Y-76780983D01*
X129087755Y-76687934D01*
X128946541Y-76629442D01*
X128795000Y-76609491D01*
X128689749Y-76623348D01*
X128619601Y-76612409D01*
X128584208Y-76587521D01*
X127920880Y-75924193D01*
X127886854Y-75861881D01*
X127891919Y-75791066D01*
X127934466Y-75734230D01*
X128000986Y-75709419D01*
X128058193Y-75718689D01*
X128148459Y-75756078D01*
X128300000Y-75776029D01*
X128451541Y-75756078D01*
X128592755Y-75697586D01*
X128687307Y-75625033D01*
X128707471Y-75609560D01*
X128714017Y-75604537D01*
X128719040Y-75597991D01*
X128721077Y-75595954D01*
X128783389Y-75561928D01*
X128854204Y-75566993D01*
X128899267Y-75595954D01*
X131282595Y-77979282D01*
X131316621Y-78041594D01*
X131319500Y-78068377D01*
X131319500Y-81465171D01*
X131299498Y-81533292D01*
X131245842Y-81579785D01*
X131175568Y-81589889D01*
X131110988Y-81560395D01*
X131096046Y-81544537D01*
X131094046Y-81542537D01*
X131089017Y-81535983D01*
X130996735Y-81465171D01*
X130974305Y-81447960D01*
X130967755Y-81442934D01*
X130826541Y-81384442D01*
X130675000Y-81364491D01*
X130523459Y-81384442D01*
X130382246Y-81442934D01*
X130260983Y-81535983D01*
X130167934Y-81657246D01*
X130109442Y-81798459D01*
X130089491Y-81950000D01*
X130109442Y-82101541D01*
X130167934Y-82242754D01*
X130212716Y-82301115D01*
X130218462Y-82308603D01*
X130244063Y-82374823D01*
X130244500Y-82385307D01*
X130244500Y-84241971D01*
X130243627Y-84256781D01*
X130239852Y-84288675D01*
X130241544Y-84297939D01*
X130241544Y-84297940D01*
X130249909Y-84343740D01*
X130250559Y-84347644D01*
X130258883Y-84403014D01*
X130261871Y-84409236D01*
X130263110Y-84416022D01*
X130267449Y-84424375D01*
X130267450Y-84424378D01*
X130288922Y-84465712D01*
X130290691Y-84469253D01*
X130299913Y-84488457D01*
X130314920Y-84519710D01*
X130319603Y-84524776D01*
X130322784Y-84530900D01*
X130326898Y-84535717D01*
X130362412Y-84571231D01*
X130365841Y-84574797D01*
X130402792Y-84614771D01*
X130408930Y-84618336D01*
X130414565Y-84623384D01*
X132387781Y-86596600D01*
X132421807Y-86658912D01*
X132423607Y-86669245D01*
X132434442Y-86751541D01*
X132492934Y-86892754D01*
X132524033Y-86933283D01*
X132580954Y-87007464D01*
X132580957Y-87007467D01*
X132585983Y-87014017D01*
X132707245Y-87107066D01*
X132848459Y-87165558D01*
X133000000Y-87185509D01*
X133151541Y-87165558D01*
X133292755Y-87107066D01*
X133414017Y-87014017D01*
X133419043Y-87007467D01*
X133419046Y-87007464D01*
X133475967Y-86933283D01*
X133507066Y-86892754D01*
X133565558Y-86751541D01*
X133585509Y-86600000D01*
X133584431Y-86591812D01*
X133584431Y-86585308D01*
X133604433Y-86517187D01*
X133658089Y-86470694D01*
X133728363Y-86460590D01*
X133792943Y-86490084D01*
X133799526Y-86496213D01*
X134767337Y-87464024D01*
X134768682Y-87465582D01*
X134770909Y-87470138D01*
X134779437Y-87478049D01*
X134779438Y-87478050D01*
X134804308Y-87501120D01*
X134807713Y-87504400D01*
X134820105Y-87516792D01*
X134823893Y-87519391D01*
X134825970Y-87521214D01*
X134847518Y-87541203D01*
X134858320Y-87545512D01*
X134864223Y-87549244D01*
X134868406Y-87551478D01*
X134874795Y-87554309D01*
X134884389Y-87560891D01*
X134895709Y-87563577D01*
X134895711Y-87563578D01*
X134906176Y-87566061D01*
X134923776Y-87571627D01*
X134944573Y-87579924D01*
X134950447Y-87580500D01*
X134953531Y-87580500D01*
X134956598Y-87580650D01*
X134956581Y-87581003D01*
X134963125Y-87581769D01*
X134963125Y-87581763D01*
X134974738Y-87582331D01*
X134986061Y-87585018D01*
X134997590Y-87583449D01*
X134997591Y-87583449D01*
X135010802Y-87581651D01*
X135027793Y-87580500D01*
X140711420Y-87580500D01*
X140779541Y-87600502D01*
X140826034Y-87654158D01*
X140836138Y-87724432D01*
X140811384Y-87783202D01*
X140792934Y-87807246D01*
X140734442Y-87948459D01*
X140714491Y-88100000D01*
X140734442Y-88251541D01*
X140792934Y-88392754D01*
X140833768Y-88445969D01*
X140880954Y-88507464D01*
X140880957Y-88507467D01*
X140885983Y-88514017D01*
X140892533Y-88519043D01*
X140892534Y-88519044D01*
X140920205Y-88540277D01*
X140962072Y-88597616D01*
X140969500Y-88640239D01*
X140969500Y-89659762D01*
X140949498Y-89727883D01*
X140920204Y-89759724D01*
X140885983Y-89785983D01*
X140792934Y-89907246D01*
X140734442Y-90048459D01*
X140714491Y-90200000D01*
X140734442Y-90351541D01*
X140792934Y-90492754D01*
X140814765Y-90521204D01*
X140880954Y-90607464D01*
X140880957Y-90607467D01*
X140885983Y-90614017D01*
X141007245Y-90707066D01*
X141148459Y-90765558D01*
X141300000Y-90785509D01*
X141451541Y-90765558D01*
X141592755Y-90707066D01*
X141714017Y-90614017D01*
X141719043Y-90607467D01*
X141719046Y-90607464D01*
X141785235Y-90521204D01*
X141807066Y-90492754D01*
X141865558Y-90351541D01*
X141885509Y-90200000D01*
X141865558Y-90048459D01*
X141807066Y-89907246D01*
X141760541Y-89846614D01*
X141719046Y-89792536D01*
X141719043Y-89792533D01*
X141714017Y-89785983D01*
X141700042Y-89775259D01*
X141679795Y-89759723D01*
X141637928Y-89702384D01*
X141630500Y-89659761D01*
X141630500Y-88640239D01*
X141650502Y-88572118D01*
X141679795Y-88540277D01*
X141707466Y-88519044D01*
X141707467Y-88519043D01*
X141714017Y-88514017D01*
X141719043Y-88507467D01*
X141719046Y-88507464D01*
X141766232Y-88445969D01*
X141807066Y-88392754D01*
X141865558Y-88251541D01*
X141885509Y-88100000D01*
X141865558Y-87948459D01*
X141807066Y-87807246D01*
X141788616Y-87783202D01*
X141763017Y-87716983D01*
X141777282Y-87647435D01*
X141826883Y-87596639D01*
X141888580Y-87580500D01*
X142531623Y-87580500D01*
X142599744Y-87600502D01*
X142620718Y-87617405D01*
X143767337Y-88764024D01*
X143768682Y-88765582D01*
X143770909Y-88770138D01*
X143779437Y-88778049D01*
X143779438Y-88778050D01*
X143804308Y-88801120D01*
X143807713Y-88804400D01*
X143820105Y-88816792D01*
X143823893Y-88819391D01*
X143825970Y-88821214D01*
X143847518Y-88841203D01*
X143858320Y-88845512D01*
X143864223Y-88849244D01*
X143868411Y-88851480D01*
X143874794Y-88854309D01*
X143884389Y-88860891D01*
X143906192Y-88866065D01*
X143923770Y-88871625D01*
X143944573Y-88879924D01*
X143950447Y-88880500D01*
X143953531Y-88880500D01*
X143956598Y-88880650D01*
X143956581Y-88881004D01*
X143963122Y-88881770D01*
X143963122Y-88881764D01*
X143974740Y-88882332D01*
X143986061Y-88885019D01*
X143997590Y-88883450D01*
X143997591Y-88883450D01*
X144010809Y-88881651D01*
X144027800Y-88880500D01*
X146051467Y-88880500D01*
X146053515Y-88880650D01*
X146058314Y-88882298D01*
X146103827Y-88880589D01*
X146108555Y-88880500D01*
X146126090Y-88880500D01*
X146130602Y-88879659D01*
X146133386Y-88879479D01*
X146151108Y-88878814D01*
X146151111Y-88878813D01*
X146162735Y-88878377D01*
X146173425Y-88873785D01*
X146180248Y-88872247D01*
X146184784Y-88870869D01*
X146191294Y-88868357D01*
X146202728Y-88866227D01*
X146221792Y-88854476D01*
X146238168Y-88845969D01*
X146250571Y-88840640D01*
X146258743Y-88837129D01*
X146263304Y-88833383D01*
X146265500Y-88831187D01*
X146267762Y-88829136D01*
X146268001Y-88829399D01*
X146273165Y-88825317D01*
X146273161Y-88825313D01*
X146281778Y-88817500D01*
X146291682Y-88811395D01*
X146306806Y-88791506D01*
X146318000Y-88778687D01*
X146579282Y-88517405D01*
X146641594Y-88483379D01*
X146668377Y-88480500D01*
X168015306Y-88480500D01*
X168083427Y-88500502D01*
X168129920Y-88554158D01*
X168140024Y-88624432D01*
X168110530Y-88689012D01*
X168094258Y-88704696D01*
X167975508Y-88800174D01*
X167971550Y-88804891D01*
X167971547Y-88804894D01*
X167916852Y-88870078D01*
X167845607Y-88954985D01*
X167842641Y-88960380D01*
X167842637Y-88960386D01*
X167751220Y-89126672D01*
X167751218Y-89126677D01*
X167748248Y-89132079D01*
X167746385Y-89137953D01*
X167746383Y-89137957D01*
X167729874Y-89190000D01*
X167687142Y-89324710D01*
X167664615Y-89525542D01*
X167668672Y-89573852D01*
X167679019Y-89697066D01*
X167681526Y-89726925D01*
X167683225Y-89732850D01*
X167730594Y-89898048D01*
X167737229Y-89921188D01*
X167740048Y-89926673D01*
X167826787Y-90095449D01*
X167826790Y-90095454D01*
X167829605Y-90100931D01*
X167955134Y-90259309D01*
X167959828Y-90263304D01*
X168063506Y-90351541D01*
X168109034Y-90390289D01*
X168114412Y-90393295D01*
X168114414Y-90393296D01*
X168145906Y-90410896D01*
X168285444Y-90488881D01*
X168477645Y-90551330D01*
X168678314Y-90575259D01*
X168684449Y-90574787D01*
X168684451Y-90574787D01*
X168873668Y-90560228D01*
X168873672Y-90560227D01*
X168879810Y-90559755D01*
X168885742Y-90558099D01*
X168885746Y-90558098D01*
X169068513Y-90507068D01*
X169068517Y-90507067D01*
X169074457Y-90505408D01*
X169079961Y-90502628D01*
X169079963Y-90502627D01*
X169249340Y-90417069D01*
X169249342Y-90417068D01*
X169254841Y-90414290D01*
X169414091Y-90289870D01*
X169418697Y-90284534D01*
X169542113Y-90141556D01*
X169542114Y-90141554D01*
X169546142Y-90136888D01*
X169645964Y-89961170D01*
X169709754Y-89769410D01*
X169712593Y-89746940D01*
X169734643Y-89572391D01*
X169734644Y-89572382D01*
X169735082Y-89568912D01*
X169735486Y-89540000D01*
X169734068Y-89525542D01*
X170204615Y-89525542D01*
X170208672Y-89573852D01*
X170219019Y-89697066D01*
X170221526Y-89726925D01*
X170223225Y-89732850D01*
X170270594Y-89898048D01*
X170277229Y-89921188D01*
X170280048Y-89926673D01*
X170366787Y-90095449D01*
X170366790Y-90095454D01*
X170369605Y-90100931D01*
X170495134Y-90259309D01*
X170499828Y-90263304D01*
X170603506Y-90351541D01*
X170649034Y-90390289D01*
X170654412Y-90393295D01*
X170654414Y-90393296D01*
X170685906Y-90410896D01*
X170825444Y-90488881D01*
X171017645Y-90551330D01*
X171218314Y-90575259D01*
X171224449Y-90574787D01*
X171224451Y-90574787D01*
X171413668Y-90560228D01*
X171413672Y-90560227D01*
X171419810Y-90559755D01*
X171425742Y-90558099D01*
X171425746Y-90558098D01*
X171608513Y-90507068D01*
X171608517Y-90507067D01*
X171614457Y-90505408D01*
X171619961Y-90502628D01*
X171619963Y-90502627D01*
X171651957Y-90486466D01*
X173357349Y-90486466D01*
X173371539Y-90702962D01*
X173372960Y-90708558D01*
X173372961Y-90708563D01*
X173396117Y-90799737D01*
X173424945Y-90913247D01*
X173515778Y-91110278D01*
X173519108Y-91114990D01*
X173519111Y-91114995D01*
X173586780Y-91210745D01*
X173640995Y-91287458D01*
X173796405Y-91438851D01*
X173801209Y-91442061D01*
X173877275Y-91492887D01*
X173976801Y-91559388D01*
X173982104Y-91561666D01*
X173982107Y-91561668D01*
X174115156Y-91618830D01*
X174176143Y-91645032D01*
X174253009Y-91662425D01*
X174382117Y-91691639D01*
X174382122Y-91691640D01*
X174387754Y-91692914D01*
X174393525Y-91693141D01*
X174393527Y-91693141D01*
X174459044Y-91695715D01*
X174604547Y-91701432D01*
X174713387Y-91685651D01*
X174813542Y-91671130D01*
X174813547Y-91671129D01*
X174819263Y-91670300D01*
X174824735Y-91668442D01*
X174824737Y-91668442D01*
X175019245Y-91602415D01*
X175019247Y-91602414D01*
X175024709Y-91600560D01*
X175214007Y-91494549D01*
X175380815Y-91355815D01*
X175437668Y-91287458D01*
X175515858Y-91193445D01*
X175515858Y-91193444D01*
X175519549Y-91189007D01*
X175625560Y-90999709D01*
X175653131Y-90918490D01*
X175693442Y-90799737D01*
X175693442Y-90799735D01*
X175695300Y-90794263D01*
X175696129Y-90788547D01*
X175696130Y-90788542D01*
X175725899Y-90583221D01*
X175726432Y-90579547D01*
X175728057Y-90517500D01*
X175725205Y-90486466D01*
X185357349Y-90486466D01*
X185371539Y-90702962D01*
X185372960Y-90708558D01*
X185372961Y-90708563D01*
X185396117Y-90799737D01*
X185424945Y-90913247D01*
X185515778Y-91110278D01*
X185519108Y-91114990D01*
X185519111Y-91114995D01*
X185586780Y-91210745D01*
X185640995Y-91287458D01*
X185796405Y-91438851D01*
X185801209Y-91442061D01*
X185877275Y-91492887D01*
X185976801Y-91559388D01*
X185982104Y-91561666D01*
X185982107Y-91561668D01*
X186115156Y-91618830D01*
X186176143Y-91645032D01*
X186253009Y-91662425D01*
X186382117Y-91691639D01*
X186382122Y-91691640D01*
X186387754Y-91692914D01*
X186393525Y-91693141D01*
X186393527Y-91693141D01*
X186459044Y-91695715D01*
X186604547Y-91701432D01*
X186713387Y-91685651D01*
X186813542Y-91671130D01*
X186813547Y-91671129D01*
X186819263Y-91670300D01*
X186824735Y-91668442D01*
X186824737Y-91668442D01*
X187019245Y-91602415D01*
X187019247Y-91602414D01*
X187024709Y-91600560D01*
X187214007Y-91494549D01*
X187380815Y-91355815D01*
X187437668Y-91287458D01*
X187515858Y-91193445D01*
X187515858Y-91193444D01*
X187519549Y-91189007D01*
X187625560Y-90999709D01*
X187653131Y-90918490D01*
X187693442Y-90799737D01*
X187693442Y-90799735D01*
X187695300Y-90794263D01*
X187696129Y-90788547D01*
X187696130Y-90788542D01*
X187725899Y-90583221D01*
X187726432Y-90579547D01*
X187728057Y-90517500D01*
X187708205Y-90301449D01*
X187706010Y-90293664D01*
X187650881Y-90098193D01*
X187650880Y-90098191D01*
X187649313Y-90092634D01*
X187637817Y-90069321D01*
X187555909Y-89903229D01*
X187553354Y-89898048D01*
X187461850Y-89775509D01*
X187426994Y-89728832D01*
X187426994Y-89728831D01*
X187423541Y-89724208D01*
X187318790Y-89627377D01*
X187268461Y-89580853D01*
X187268458Y-89580851D01*
X187264221Y-89576934D01*
X187080732Y-89461161D01*
X186879216Y-89380765D01*
X186873556Y-89379639D01*
X186873552Y-89379638D01*
X186672091Y-89339565D01*
X186672088Y-89339565D01*
X186666424Y-89338438D01*
X186660649Y-89338362D01*
X186660645Y-89338362D01*
X186551791Y-89336937D01*
X186449482Y-89335598D01*
X186443785Y-89336577D01*
X186443784Y-89336577D01*
X186241352Y-89371361D01*
X186235655Y-89372340D01*
X186032105Y-89447434D01*
X186027143Y-89450386D01*
X185890491Y-89531685D01*
X185845647Y-89558364D01*
X185682527Y-89701416D01*
X185678960Y-89705941D01*
X185678955Y-89705946D01*
X185551782Y-89867265D01*
X185548208Y-89871799D01*
X185447188Y-90063807D01*
X185382850Y-90271009D01*
X185357349Y-90486466D01*
X175725205Y-90486466D01*
X175708205Y-90301449D01*
X175706010Y-90293664D01*
X175650881Y-90098193D01*
X175650880Y-90098191D01*
X175649313Y-90092634D01*
X175637817Y-90069321D01*
X175555909Y-89903229D01*
X175553354Y-89898048D01*
X175461850Y-89775509D01*
X175426994Y-89728832D01*
X175426994Y-89728831D01*
X175423541Y-89724208D01*
X175318790Y-89627377D01*
X175268461Y-89580853D01*
X175268458Y-89580851D01*
X175264221Y-89576934D01*
X175080732Y-89461161D01*
X174879216Y-89380765D01*
X174873556Y-89379639D01*
X174873552Y-89379638D01*
X174672091Y-89339565D01*
X174672088Y-89339565D01*
X174666424Y-89338438D01*
X174660649Y-89338362D01*
X174660645Y-89338362D01*
X174551791Y-89336937D01*
X174449482Y-89335598D01*
X174443785Y-89336577D01*
X174443784Y-89336577D01*
X174241352Y-89371361D01*
X174235655Y-89372340D01*
X174032105Y-89447434D01*
X174027143Y-89450386D01*
X173890491Y-89531685D01*
X173845647Y-89558364D01*
X173682527Y-89701416D01*
X173678960Y-89705941D01*
X173678955Y-89705946D01*
X173551782Y-89867265D01*
X173548208Y-89871799D01*
X173447188Y-90063807D01*
X173382850Y-90271009D01*
X173357349Y-90486466D01*
X171651957Y-90486466D01*
X171789340Y-90417069D01*
X171789342Y-90417068D01*
X171794841Y-90414290D01*
X171954091Y-90289870D01*
X171958697Y-90284534D01*
X172082113Y-90141556D01*
X172082114Y-90141554D01*
X172086142Y-90136888D01*
X172185964Y-89961170D01*
X172249754Y-89769410D01*
X172252593Y-89746940D01*
X172274643Y-89572391D01*
X172274644Y-89572382D01*
X172275082Y-89568912D01*
X172275486Y-89540000D01*
X172255765Y-89338873D01*
X172253337Y-89330829D01*
X172199135Y-89151306D01*
X172197354Y-89145407D01*
X172102478Y-88966971D01*
X171974751Y-88810361D01*
X171819036Y-88681543D01*
X171813617Y-88678613D01*
X171813614Y-88678611D01*
X171646687Y-88588354D01*
X171646682Y-88588352D01*
X171641267Y-88585424D01*
X171548268Y-88556636D01*
X171454100Y-88527486D01*
X171454097Y-88527485D01*
X171448213Y-88525664D01*
X171442088Y-88525020D01*
X171442087Y-88525020D01*
X171253357Y-88505183D01*
X171253356Y-88505183D01*
X171247229Y-88504539D01*
X171162847Y-88512218D01*
X171052108Y-88522296D01*
X171052105Y-88522297D01*
X171045969Y-88522855D01*
X171040063Y-88524593D01*
X171040059Y-88524594D01*
X170899064Y-88566092D01*
X170852100Y-88579914D01*
X170673006Y-88673542D01*
X170515508Y-88800174D01*
X170511550Y-88804891D01*
X170511547Y-88804894D01*
X170456852Y-88870078D01*
X170385607Y-88954985D01*
X170382641Y-88960380D01*
X170382637Y-88960386D01*
X170291220Y-89126672D01*
X170291218Y-89126677D01*
X170288248Y-89132079D01*
X170286385Y-89137953D01*
X170286383Y-89137957D01*
X170269874Y-89190000D01*
X170227142Y-89324710D01*
X170204615Y-89525542D01*
X169734068Y-89525542D01*
X169715765Y-89338873D01*
X169713337Y-89330829D01*
X169659135Y-89151306D01*
X169657354Y-89145407D01*
X169562478Y-88966971D01*
X169434751Y-88810361D01*
X169305680Y-88703584D01*
X169265942Y-88644751D01*
X169264319Y-88573773D01*
X169301328Y-88513186D01*
X169365218Y-88482225D01*
X169385995Y-88480500D01*
X169991467Y-88480500D01*
X169993515Y-88480650D01*
X169998314Y-88482298D01*
X170043827Y-88480589D01*
X170048555Y-88480500D01*
X170066090Y-88480500D01*
X170070602Y-88479659D01*
X170073386Y-88479479D01*
X170091108Y-88478814D01*
X170091111Y-88478813D01*
X170102735Y-88478377D01*
X170113425Y-88473785D01*
X170120248Y-88472247D01*
X170124784Y-88470869D01*
X170131294Y-88468357D01*
X170142728Y-88466227D01*
X170161792Y-88454476D01*
X170178168Y-88445969D01*
X170190571Y-88440640D01*
X170198743Y-88437129D01*
X170203304Y-88433383D01*
X170205500Y-88431187D01*
X170207762Y-88429136D01*
X170208001Y-88429399D01*
X170213165Y-88425317D01*
X170213161Y-88425313D01*
X170221778Y-88417500D01*
X170231682Y-88411395D01*
X170246806Y-88391506D01*
X170258000Y-88378687D01*
X170669769Y-87966918D01*
X170732081Y-87932892D01*
X170802896Y-87937957D01*
X170819060Y-87945436D01*
X170820067Y-87945876D01*
X170825444Y-87948881D01*
X171017645Y-88011330D01*
X171218314Y-88035259D01*
X171224449Y-88034787D01*
X171224451Y-88034787D01*
X171413668Y-88020228D01*
X171413672Y-88020227D01*
X171419810Y-88019755D01*
X171425742Y-88018099D01*
X171425746Y-88018098D01*
X171608513Y-87967068D01*
X171608517Y-87967067D01*
X171614457Y-87965408D01*
X171619961Y-87962628D01*
X171619963Y-87962627D01*
X171789340Y-87877069D01*
X171789342Y-87877068D01*
X171794841Y-87874290D01*
X171954091Y-87749870D01*
X171970088Y-87731337D01*
X172082113Y-87601556D01*
X172082114Y-87601554D01*
X172086142Y-87596888D01*
X172185964Y-87421170D01*
X172249754Y-87229410D01*
X172252633Y-87206623D01*
X172274643Y-87032391D01*
X172274644Y-87032382D01*
X172275082Y-87028912D01*
X172275290Y-87014017D01*
X172275437Y-87003522D01*
X172275437Y-87003518D01*
X172275486Y-87000000D01*
X172255765Y-86798873D01*
X172253337Y-86790829D01*
X172199135Y-86611306D01*
X172197354Y-86605407D01*
X172102478Y-86426971D01*
X171974751Y-86270361D01*
X171953816Y-86253042D01*
X175507115Y-86253042D01*
X175509648Y-86283208D01*
X175523220Y-86444821D01*
X175524026Y-86454425D01*
X175525725Y-86460350D01*
X175571360Y-86619500D01*
X175579729Y-86648688D01*
X175590296Y-86669249D01*
X175669287Y-86822949D01*
X175669290Y-86822954D01*
X175672105Y-86828431D01*
X175797634Y-86986809D01*
X175802328Y-86990804D01*
X175938935Y-87107066D01*
X175951534Y-87117789D01*
X175956912Y-87120795D01*
X175956914Y-87120796D01*
X175994479Y-87141790D01*
X176127944Y-87216381D01*
X176320145Y-87278830D01*
X176520814Y-87302759D01*
X176526949Y-87302287D01*
X176526951Y-87302287D01*
X176716168Y-87287728D01*
X176716172Y-87287727D01*
X176722310Y-87287255D01*
X176728242Y-87285599D01*
X176728246Y-87285598D01*
X176911013Y-87234568D01*
X176911017Y-87234567D01*
X176916957Y-87232908D01*
X176922461Y-87230128D01*
X176922463Y-87230127D01*
X177091840Y-87144569D01*
X177091842Y-87144568D01*
X177097341Y-87141790D01*
X177256591Y-87017370D01*
X177268544Y-87003522D01*
X177384613Y-86869056D01*
X177384614Y-86869054D01*
X177388642Y-86864388D01*
X177488464Y-86688670D01*
X177552254Y-86496910D01*
X177554009Y-86483017D01*
X177577143Y-86299891D01*
X177577144Y-86299882D01*
X177577582Y-86296412D01*
X177577986Y-86267500D01*
X177576568Y-86253042D01*
X179507115Y-86253042D01*
X179509648Y-86283208D01*
X179523220Y-86444821D01*
X179524026Y-86454425D01*
X179525725Y-86460350D01*
X179571360Y-86619500D01*
X179579729Y-86648688D01*
X179590296Y-86669249D01*
X179669287Y-86822949D01*
X179669290Y-86822954D01*
X179672105Y-86828431D01*
X179797634Y-86986809D01*
X179802328Y-86990804D01*
X179938935Y-87107066D01*
X179951534Y-87117789D01*
X179956912Y-87120795D01*
X179956914Y-87120796D01*
X179994479Y-87141790D01*
X180127944Y-87216381D01*
X180320145Y-87278830D01*
X180520814Y-87302759D01*
X180526949Y-87302287D01*
X180526951Y-87302287D01*
X180716168Y-87287728D01*
X180716172Y-87287727D01*
X180722310Y-87287255D01*
X180728242Y-87285599D01*
X180728246Y-87285598D01*
X180911013Y-87234568D01*
X180911017Y-87234567D01*
X180916957Y-87232908D01*
X180922461Y-87230128D01*
X180922463Y-87230127D01*
X181091840Y-87144569D01*
X181091842Y-87144568D01*
X181097341Y-87141790D01*
X181256591Y-87017370D01*
X181268544Y-87003522D01*
X181384613Y-86869056D01*
X181384614Y-86869054D01*
X181388642Y-86864388D01*
X181488464Y-86688670D01*
X181552254Y-86496910D01*
X181554009Y-86483017D01*
X181577143Y-86299891D01*
X181577144Y-86299882D01*
X181577582Y-86296412D01*
X181577986Y-86267500D01*
X181576568Y-86253042D01*
X183507115Y-86253042D01*
X183509648Y-86283208D01*
X183523220Y-86444821D01*
X183524026Y-86454425D01*
X183525725Y-86460350D01*
X183571360Y-86619500D01*
X183579729Y-86648688D01*
X183590296Y-86669249D01*
X183669287Y-86822949D01*
X183669290Y-86822954D01*
X183672105Y-86828431D01*
X183797634Y-86986809D01*
X183802328Y-86990804D01*
X183938935Y-87107066D01*
X183951534Y-87117789D01*
X183956912Y-87120795D01*
X183956914Y-87120796D01*
X183994479Y-87141790D01*
X184127944Y-87216381D01*
X184320145Y-87278830D01*
X184520814Y-87302759D01*
X184526949Y-87302287D01*
X184526951Y-87302287D01*
X184716168Y-87287728D01*
X184716172Y-87287727D01*
X184722310Y-87287255D01*
X184728242Y-87285599D01*
X184728246Y-87285598D01*
X184911013Y-87234568D01*
X184911017Y-87234567D01*
X184916957Y-87232908D01*
X184922461Y-87230128D01*
X184922463Y-87230127D01*
X185091840Y-87144569D01*
X185091842Y-87144568D01*
X185097341Y-87141790D01*
X185256591Y-87017370D01*
X185268544Y-87003522D01*
X185384613Y-86869056D01*
X185384614Y-86869054D01*
X185388642Y-86864388D01*
X185488464Y-86688670D01*
X185552254Y-86496910D01*
X185554009Y-86483017D01*
X185577143Y-86299891D01*
X185577144Y-86299882D01*
X185577582Y-86296412D01*
X185577986Y-86267500D01*
X185558265Y-86066373D01*
X185555837Y-86058329D01*
X185501635Y-85878806D01*
X185499854Y-85872907D01*
X185404978Y-85694471D01*
X185277251Y-85537861D01*
X185121536Y-85409043D01*
X185116117Y-85406113D01*
X185116114Y-85406111D01*
X184949187Y-85315854D01*
X184949182Y-85315852D01*
X184943767Y-85312924D01*
X184898550Y-85298927D01*
X184756600Y-85254986D01*
X184756597Y-85254985D01*
X184750713Y-85253164D01*
X184744588Y-85252520D01*
X184744587Y-85252520D01*
X184555857Y-85232683D01*
X184555856Y-85232683D01*
X184549729Y-85232039D01*
X184465347Y-85239718D01*
X184354608Y-85249796D01*
X184354605Y-85249797D01*
X184348469Y-85250355D01*
X184342563Y-85252093D01*
X184342559Y-85252094D01*
X184238441Y-85282738D01*
X184154600Y-85307414D01*
X184115982Y-85327603D01*
X184022254Y-85376603D01*
X183975506Y-85401042D01*
X183818008Y-85527674D01*
X183814050Y-85532391D01*
X183814047Y-85532394D01*
X183759215Y-85597741D01*
X183688107Y-85682485D01*
X183685141Y-85687880D01*
X183685137Y-85687886D01*
X183593720Y-85854172D01*
X183593718Y-85854177D01*
X183590748Y-85859579D01*
X183588885Y-85865453D01*
X183588883Y-85865457D01*
X183533026Y-86041541D01*
X183529642Y-86052210D01*
X183507115Y-86253042D01*
X181576568Y-86253042D01*
X181558265Y-86066373D01*
X181555837Y-86058329D01*
X181501635Y-85878806D01*
X181499854Y-85872907D01*
X181404978Y-85694471D01*
X181277251Y-85537861D01*
X181121536Y-85409043D01*
X181116117Y-85406113D01*
X181116114Y-85406111D01*
X180949187Y-85315854D01*
X180949182Y-85315852D01*
X180943767Y-85312924D01*
X180898550Y-85298927D01*
X180756600Y-85254986D01*
X180756597Y-85254985D01*
X180750713Y-85253164D01*
X180744588Y-85252520D01*
X180744587Y-85252520D01*
X180555857Y-85232683D01*
X180555856Y-85232683D01*
X180549729Y-85232039D01*
X180465347Y-85239718D01*
X180354608Y-85249796D01*
X180354605Y-85249797D01*
X180348469Y-85250355D01*
X180342563Y-85252093D01*
X180342559Y-85252094D01*
X180238441Y-85282738D01*
X180154600Y-85307414D01*
X180115982Y-85327603D01*
X180022254Y-85376603D01*
X179975506Y-85401042D01*
X179818008Y-85527674D01*
X179814050Y-85532391D01*
X179814047Y-85532394D01*
X179759215Y-85597741D01*
X179688107Y-85682485D01*
X179685141Y-85687880D01*
X179685137Y-85687886D01*
X179593720Y-85854172D01*
X179593718Y-85854177D01*
X179590748Y-85859579D01*
X179588885Y-85865453D01*
X179588883Y-85865457D01*
X179533026Y-86041541D01*
X179529642Y-86052210D01*
X179507115Y-86253042D01*
X177576568Y-86253042D01*
X177558265Y-86066373D01*
X177555837Y-86058329D01*
X177501635Y-85878806D01*
X177499854Y-85872907D01*
X177404978Y-85694471D01*
X177277251Y-85537861D01*
X177121536Y-85409043D01*
X177116117Y-85406113D01*
X177116114Y-85406111D01*
X176949187Y-85315854D01*
X176949182Y-85315852D01*
X176943767Y-85312924D01*
X176898550Y-85298927D01*
X176756600Y-85254986D01*
X176756597Y-85254985D01*
X176750713Y-85253164D01*
X176744588Y-85252520D01*
X176744587Y-85252520D01*
X176555857Y-85232683D01*
X176555856Y-85232683D01*
X176549729Y-85232039D01*
X176465347Y-85239718D01*
X176354608Y-85249796D01*
X176354605Y-85249797D01*
X176348469Y-85250355D01*
X176342563Y-85252093D01*
X176342559Y-85252094D01*
X176238441Y-85282738D01*
X176154600Y-85307414D01*
X176115982Y-85327603D01*
X176022254Y-85376603D01*
X175975506Y-85401042D01*
X175818008Y-85527674D01*
X175814050Y-85532391D01*
X175814047Y-85532394D01*
X175759215Y-85597741D01*
X175688107Y-85682485D01*
X175685141Y-85687880D01*
X175685137Y-85687886D01*
X175593720Y-85854172D01*
X175593718Y-85854177D01*
X175590748Y-85859579D01*
X175588885Y-85865453D01*
X175588883Y-85865457D01*
X175533026Y-86041541D01*
X175529642Y-86052210D01*
X175507115Y-86253042D01*
X171953816Y-86253042D01*
X171819036Y-86141543D01*
X171813617Y-86138613D01*
X171813614Y-86138611D01*
X171646687Y-86048354D01*
X171646682Y-86048352D01*
X171641267Y-86045424D01*
X171592031Y-86030183D01*
X171454100Y-85987486D01*
X171454097Y-85987485D01*
X171448213Y-85985664D01*
X171442088Y-85985020D01*
X171442087Y-85985020D01*
X171253357Y-85965183D01*
X171253356Y-85965183D01*
X171247229Y-85964539D01*
X171192717Y-85969500D01*
X171052108Y-85982296D01*
X171052105Y-85982297D01*
X171045969Y-85982855D01*
X171040063Y-85984593D01*
X171040059Y-85984594D01*
X170920118Y-86019895D01*
X170852100Y-86039914D01*
X170777934Y-86078687D01*
X170680893Y-86129419D01*
X170673006Y-86133542D01*
X170515508Y-86260174D01*
X170511550Y-86264891D01*
X170511547Y-86264894D01*
X170452860Y-86334835D01*
X170385607Y-86414985D01*
X170382641Y-86420380D01*
X170382637Y-86420386D01*
X170291220Y-86586672D01*
X170291218Y-86586677D01*
X170288248Y-86592079D01*
X170286385Y-86597953D01*
X170286383Y-86597957D01*
X170255906Y-86694033D01*
X170227142Y-86784710D01*
X170204615Y-86985542D01*
X170205131Y-86991685D01*
X170219403Y-87161638D01*
X170221526Y-87186925D01*
X170223225Y-87192850D01*
X170261278Y-87325558D01*
X170277229Y-87381188D01*
X170280046Y-87386669D01*
X170280047Y-87386672D01*
X170297997Y-87421600D01*
X170311344Y-87491330D01*
X170284873Y-87557208D01*
X170275025Y-87568288D01*
X169960718Y-87882595D01*
X169898406Y-87916621D01*
X169871623Y-87919500D01*
X169856500Y-87919500D01*
X169788379Y-87899498D01*
X169741886Y-87845842D01*
X169730500Y-87793500D01*
X169730499Y-86138413D01*
X169730499Y-86132224D01*
X169720027Y-86079572D01*
X169710401Y-86065165D01*
X169687026Y-86030183D01*
X169680133Y-86019867D01*
X169620428Y-85979973D01*
X169567777Y-85969500D01*
X168700141Y-85969500D01*
X167832224Y-85969501D01*
X167779572Y-85979973D01*
X167769252Y-85986868D01*
X167769251Y-85986869D01*
X167730183Y-86012974D01*
X167719867Y-86019867D01*
X167679973Y-86079572D01*
X167669500Y-86132223D01*
X167669501Y-86772813D01*
X167669501Y-87293500D01*
X167649499Y-87361621D01*
X167595843Y-87408114D01*
X167543501Y-87419500D01*
X146248527Y-87419500D01*
X146246483Y-87419350D01*
X146241686Y-87417703D01*
X146230061Y-87418139D01*
X146230059Y-87418139D01*
X146196188Y-87419411D01*
X146191461Y-87419500D01*
X146173910Y-87419500D01*
X146169395Y-87420341D01*
X146166613Y-87420521D01*
X146148892Y-87421186D01*
X146148889Y-87421187D01*
X146137265Y-87421623D01*
X146126575Y-87426215D01*
X146119752Y-87427753D01*
X146115216Y-87429131D01*
X146108706Y-87431643D01*
X146097272Y-87433773D01*
X146078522Y-87445331D01*
X146078208Y-87445524D01*
X146061832Y-87454031D01*
X146041257Y-87462871D01*
X146036696Y-87466617D01*
X146034500Y-87468813D01*
X146032238Y-87470864D01*
X146031999Y-87470601D01*
X146026835Y-87474683D01*
X146026839Y-87474687D01*
X146018222Y-87482500D01*
X146008318Y-87488605D01*
X145993194Y-87508494D01*
X145982000Y-87521313D01*
X145884631Y-87618682D01*
X145822319Y-87652708D01*
X145751504Y-87647643D01*
X145694668Y-87605096D01*
X145669857Y-87538576D01*
X145670614Y-87513140D01*
X145682908Y-87419763D01*
X145691390Y-87391666D01*
X145690968Y-87391533D01*
X145707855Y-87338139D01*
X145709107Y-87334387D01*
X145724531Y-87290464D01*
X145724531Y-87290463D01*
X145727651Y-87281579D01*
X145727922Y-87274686D01*
X145730003Y-87268106D01*
X145730500Y-87261791D01*
X145730500Y-87211571D01*
X145730597Y-87206623D01*
X145731766Y-87176873D01*
X145732735Y-87152226D01*
X145730916Y-87145365D01*
X145730500Y-87137810D01*
X145730500Y-85200000D01*
X155514491Y-85200000D01*
X155534442Y-85351541D01*
X155592934Y-85492754D01*
X155624923Y-85534442D01*
X155680954Y-85607464D01*
X155680957Y-85607467D01*
X155685983Y-85614017D01*
X155692533Y-85619043D01*
X155692534Y-85619044D01*
X155775916Y-85683026D01*
X155817783Y-85740364D01*
X155821227Y-85752194D01*
X155821623Y-85762735D01*
X155826214Y-85773422D01*
X155827751Y-85780243D01*
X155829131Y-85784784D01*
X155831643Y-85791294D01*
X155833773Y-85802728D01*
X155839877Y-85812630D01*
X155845524Y-85821792D01*
X155854031Y-85838168D01*
X155862871Y-85858743D01*
X155866617Y-85863304D01*
X155868813Y-85865500D01*
X155870864Y-85867762D01*
X155870601Y-85868001D01*
X155874683Y-85873165D01*
X155874687Y-85873161D01*
X155882500Y-85881778D01*
X155888605Y-85891682D01*
X155908494Y-85906806D01*
X155921313Y-85918000D01*
X156067337Y-86064024D01*
X156068682Y-86065582D01*
X156070909Y-86070138D01*
X156079437Y-86078049D01*
X156079438Y-86078050D01*
X156104308Y-86101120D01*
X156107713Y-86104400D01*
X156120105Y-86116792D01*
X156123893Y-86119391D01*
X156125970Y-86121214D01*
X156147518Y-86141203D01*
X156158320Y-86145512D01*
X156164223Y-86149244D01*
X156168411Y-86151480D01*
X156174794Y-86154309D01*
X156184389Y-86160891D01*
X156206192Y-86166065D01*
X156223770Y-86171625D01*
X156244573Y-86179924D01*
X156250447Y-86180500D01*
X156253531Y-86180500D01*
X156256598Y-86180650D01*
X156256581Y-86181004D01*
X156263122Y-86181770D01*
X156263122Y-86181764D01*
X156274740Y-86182332D01*
X156286061Y-86185019D01*
X156297589Y-86183450D01*
X156297590Y-86183450D01*
X156310807Y-86181651D01*
X156327799Y-86180500D01*
X165151467Y-86180500D01*
X165153515Y-86180650D01*
X165158314Y-86182298D01*
X165203827Y-86180589D01*
X165208555Y-86180500D01*
X165226090Y-86180500D01*
X165230602Y-86179659D01*
X165233386Y-86179479D01*
X165251108Y-86178814D01*
X165251111Y-86178813D01*
X165262735Y-86178377D01*
X165273425Y-86173785D01*
X165280248Y-86172247D01*
X165284784Y-86170869D01*
X165291294Y-86168357D01*
X165302728Y-86166227D01*
X165321792Y-86154476D01*
X165338168Y-86145969D01*
X165350571Y-86140640D01*
X165358743Y-86137129D01*
X165363304Y-86133383D01*
X165365500Y-86131187D01*
X165367762Y-86129136D01*
X165368001Y-86129399D01*
X165373165Y-86125317D01*
X165373161Y-86125313D01*
X165381778Y-86117500D01*
X165391682Y-86111395D01*
X165406806Y-86091506D01*
X165418000Y-86078687D01*
X165979282Y-85517405D01*
X166041594Y-85483379D01*
X166068377Y-85480500D01*
X167151467Y-85480500D01*
X167153515Y-85480650D01*
X167158314Y-85482298D01*
X167203827Y-85480589D01*
X167208555Y-85480500D01*
X167226090Y-85480500D01*
X167230602Y-85479659D01*
X167233386Y-85479479D01*
X167251108Y-85478814D01*
X167251111Y-85478813D01*
X167262735Y-85478377D01*
X167273425Y-85473785D01*
X167280248Y-85472247D01*
X167284784Y-85470869D01*
X167291294Y-85468357D01*
X167302728Y-85466227D01*
X167321792Y-85454476D01*
X167338168Y-85445969D01*
X167350571Y-85440640D01*
X167358743Y-85437129D01*
X167363304Y-85433383D01*
X167365500Y-85431187D01*
X167367762Y-85429136D01*
X167368001Y-85429399D01*
X167373165Y-85425317D01*
X167373161Y-85425313D01*
X167381778Y-85417500D01*
X167391682Y-85411395D01*
X167406806Y-85391506D01*
X167418000Y-85378687D01*
X168310221Y-84486466D01*
X173357349Y-84486466D01*
X173371539Y-84702962D01*
X173372960Y-84708558D01*
X173372961Y-84708563D01*
X173411981Y-84862203D01*
X173424945Y-84913247D01*
X173427362Y-84918489D01*
X173427362Y-84918490D01*
X173467125Y-85004742D01*
X173515778Y-85110278D01*
X173519108Y-85114990D01*
X173519111Y-85114995D01*
X173637659Y-85282738D01*
X173640995Y-85287458D01*
X173645137Y-85291493D01*
X173739004Y-85382934D01*
X173796405Y-85438851D01*
X173801209Y-85442061D01*
X173851356Y-85475568D01*
X173976801Y-85559388D01*
X173982104Y-85561666D01*
X173982107Y-85561668D01*
X174145645Y-85631929D01*
X174176143Y-85645032D01*
X174253009Y-85662425D01*
X174382117Y-85691639D01*
X174382122Y-85691640D01*
X174387754Y-85692914D01*
X174393525Y-85693141D01*
X174393527Y-85693141D01*
X174459044Y-85695715D01*
X174604547Y-85701432D01*
X174713387Y-85685651D01*
X174813542Y-85671130D01*
X174813547Y-85671129D01*
X174819263Y-85670300D01*
X174824735Y-85668442D01*
X174824737Y-85668442D01*
X175019245Y-85602415D01*
X175019247Y-85602414D01*
X175024709Y-85600560D01*
X175178398Y-85514491D01*
X175208970Y-85497370D01*
X175208971Y-85497369D01*
X175214007Y-85494549D01*
X175262189Y-85454476D01*
X175376382Y-85359502D01*
X175380815Y-85355815D01*
X175391181Y-85343352D01*
X175515858Y-85193445D01*
X175515858Y-85193444D01*
X175519549Y-85189007D01*
X175625560Y-84999709D01*
X175628964Y-84989683D01*
X175693442Y-84799737D01*
X175693442Y-84799735D01*
X175695300Y-84794263D01*
X175696129Y-84788547D01*
X175696130Y-84788542D01*
X175716507Y-84648000D01*
X175726432Y-84579547D01*
X175728057Y-84517500D01*
X175725205Y-84486466D01*
X185357349Y-84486466D01*
X185371539Y-84702962D01*
X185372960Y-84708558D01*
X185372961Y-84708563D01*
X185411981Y-84862203D01*
X185424945Y-84913247D01*
X185427362Y-84918489D01*
X185427362Y-84918490D01*
X185467125Y-85004742D01*
X185515778Y-85110278D01*
X185519108Y-85114990D01*
X185519111Y-85114995D01*
X185637659Y-85282738D01*
X185640995Y-85287458D01*
X185645137Y-85291493D01*
X185739004Y-85382934D01*
X185796405Y-85438851D01*
X185801209Y-85442061D01*
X185851356Y-85475568D01*
X185976801Y-85559388D01*
X185982104Y-85561666D01*
X185982107Y-85561668D01*
X186145645Y-85631929D01*
X186176143Y-85645032D01*
X186253009Y-85662425D01*
X186382117Y-85691639D01*
X186382122Y-85691640D01*
X186387754Y-85692914D01*
X186393525Y-85693141D01*
X186393527Y-85693141D01*
X186459044Y-85695715D01*
X186604547Y-85701432D01*
X186713387Y-85685651D01*
X186813542Y-85671130D01*
X186813547Y-85671129D01*
X186819263Y-85670300D01*
X186824735Y-85668442D01*
X186824737Y-85668442D01*
X187019245Y-85602415D01*
X187019247Y-85602414D01*
X187024709Y-85600560D01*
X187178398Y-85514491D01*
X187208970Y-85497370D01*
X187208971Y-85497369D01*
X187214007Y-85494549D01*
X187262189Y-85454476D01*
X187376382Y-85359502D01*
X187380815Y-85355815D01*
X187391181Y-85343352D01*
X187515858Y-85193445D01*
X187515858Y-85193444D01*
X187519549Y-85189007D01*
X187625560Y-84999709D01*
X187628964Y-84989683D01*
X187693442Y-84799737D01*
X187693442Y-84799735D01*
X187695300Y-84794263D01*
X187696129Y-84788547D01*
X187696130Y-84788542D01*
X187716507Y-84648000D01*
X187726432Y-84579547D01*
X187728057Y-84517500D01*
X187708205Y-84301449D01*
X187704603Y-84288675D01*
X187650881Y-84098193D01*
X187650880Y-84098191D01*
X187649313Y-84092634D01*
X187637817Y-84069321D01*
X187555909Y-83903229D01*
X187553354Y-83898048D01*
X187540940Y-83881423D01*
X187426994Y-83728832D01*
X187426994Y-83728831D01*
X187423541Y-83724208D01*
X187302487Y-83612307D01*
X187268461Y-83580853D01*
X187268458Y-83580851D01*
X187264221Y-83576934D01*
X187080732Y-83461161D01*
X186879216Y-83380765D01*
X186873556Y-83379639D01*
X186873552Y-83379638D01*
X186672091Y-83339565D01*
X186672088Y-83339565D01*
X186666424Y-83338438D01*
X186660649Y-83338362D01*
X186660645Y-83338362D01*
X186551791Y-83336937D01*
X186449482Y-83335598D01*
X186443785Y-83336577D01*
X186443784Y-83336577D01*
X186241352Y-83371361D01*
X186235655Y-83372340D01*
X186032105Y-83447434D01*
X186027143Y-83450386D01*
X185903627Y-83523870D01*
X185845647Y-83558364D01*
X185682527Y-83701416D01*
X185678960Y-83705941D01*
X185678955Y-83705946D01*
X185557756Y-83859687D01*
X185548208Y-83871799D01*
X185447188Y-84063807D01*
X185434545Y-84104525D01*
X185391867Y-84241971D01*
X185382850Y-84271009D01*
X185357349Y-84486466D01*
X175725205Y-84486466D01*
X175708205Y-84301449D01*
X175704603Y-84288675D01*
X175650881Y-84098193D01*
X175650880Y-84098191D01*
X175649313Y-84092634D01*
X175637817Y-84069321D01*
X175555909Y-83903229D01*
X175553354Y-83898048D01*
X175540940Y-83881423D01*
X175426994Y-83728832D01*
X175426994Y-83728831D01*
X175423541Y-83724208D01*
X175302487Y-83612307D01*
X175268461Y-83580853D01*
X175268458Y-83580851D01*
X175264221Y-83576934D01*
X175080732Y-83461161D01*
X174879216Y-83380765D01*
X174873556Y-83379639D01*
X174873552Y-83379638D01*
X174672091Y-83339565D01*
X174672088Y-83339565D01*
X174666424Y-83338438D01*
X174660649Y-83338362D01*
X174660645Y-83338362D01*
X174551791Y-83336937D01*
X174449482Y-83335598D01*
X174443785Y-83336577D01*
X174443784Y-83336577D01*
X174241352Y-83371361D01*
X174235655Y-83372340D01*
X174032105Y-83447434D01*
X174027143Y-83450386D01*
X173903627Y-83523870D01*
X173845647Y-83558364D01*
X173682527Y-83701416D01*
X173678960Y-83705941D01*
X173678955Y-83705946D01*
X173557756Y-83859687D01*
X173548208Y-83871799D01*
X173447188Y-84063807D01*
X173434545Y-84104525D01*
X173391867Y-84241971D01*
X173382850Y-84271009D01*
X173357349Y-84486466D01*
X168310221Y-84486466D01*
X171179282Y-81617405D01*
X171241594Y-81583379D01*
X171268377Y-81580500D01*
X171621396Y-81580500D01*
X171689517Y-81600502D01*
X171721354Y-81629791D01*
X171785983Y-81714017D01*
X171792533Y-81719043D01*
X171792534Y-81719044D01*
X171890899Y-81794523D01*
X171907245Y-81807066D01*
X172048459Y-81865558D01*
X172200000Y-81885509D01*
X172351541Y-81865558D01*
X172492755Y-81807066D01*
X172509101Y-81794523D01*
X172607466Y-81719044D01*
X172607467Y-81719043D01*
X172614017Y-81714017D01*
X172619043Y-81707467D01*
X172619046Y-81707464D01*
X172669155Y-81642160D01*
X172707066Y-81592754D01*
X172765558Y-81451541D01*
X172785509Y-81300000D01*
X172765558Y-81148459D01*
X172707066Y-81007246D01*
X172639386Y-80919044D01*
X172619046Y-80892536D01*
X172619043Y-80892533D01*
X172614017Y-80885983D01*
X172592907Y-80869784D01*
X172499305Y-80797960D01*
X172492755Y-80792934D01*
X172351541Y-80734442D01*
X172200000Y-80714491D01*
X172048459Y-80734442D01*
X171907246Y-80792934D01*
X171785983Y-80885983D01*
X171721356Y-80970206D01*
X171664021Y-81012071D01*
X171621396Y-81019500D01*
X171148533Y-81019500D01*
X171146485Y-81019350D01*
X171141686Y-81017702D01*
X171096731Y-81019390D01*
X171096173Y-81019411D01*
X171091445Y-81019500D01*
X171073910Y-81019500D01*
X171069398Y-81020341D01*
X171066614Y-81020521D01*
X171048892Y-81021186D01*
X171048889Y-81021187D01*
X171037265Y-81021623D01*
X171026575Y-81026215D01*
X171019752Y-81027753D01*
X171015216Y-81029131D01*
X171008706Y-81031643D01*
X170997272Y-81033773D01*
X170978522Y-81045331D01*
X170978208Y-81045524D01*
X170961832Y-81054031D01*
X170941257Y-81062871D01*
X170936696Y-81066617D01*
X170934500Y-81068813D01*
X170932238Y-81070864D01*
X170931999Y-81070601D01*
X170926835Y-81074683D01*
X170926839Y-81074687D01*
X170918222Y-81082500D01*
X170908318Y-81088605D01*
X170893194Y-81108494D01*
X170882000Y-81121313D01*
X167120718Y-84882595D01*
X167058406Y-84916621D01*
X167031623Y-84919500D01*
X165948527Y-84919500D01*
X165946483Y-84919350D01*
X165941686Y-84917703D01*
X165930061Y-84918139D01*
X165930059Y-84918139D01*
X165896188Y-84919411D01*
X165891461Y-84919500D01*
X165873910Y-84919500D01*
X165869395Y-84920341D01*
X165866613Y-84920521D01*
X165860104Y-84920766D01*
X165837264Y-84921623D01*
X165826574Y-84926216D01*
X165819749Y-84927754D01*
X165815240Y-84929124D01*
X165808713Y-84931642D01*
X165797272Y-84933773D01*
X165787368Y-84939878D01*
X165778210Y-84945523D01*
X165761831Y-84954031D01*
X165749432Y-84959358D01*
X165749430Y-84959359D01*
X165741256Y-84962871D01*
X165736695Y-84966618D01*
X165734511Y-84968802D01*
X165732247Y-84970855D01*
X165732009Y-84970593D01*
X165726835Y-84974683D01*
X165726839Y-84974687D01*
X165718222Y-84982500D01*
X165708318Y-84988605D01*
X165693194Y-85008494D01*
X165682000Y-85021313D01*
X165120718Y-85582595D01*
X165058406Y-85616621D01*
X165031623Y-85619500D01*
X156743138Y-85619500D01*
X156675017Y-85599498D01*
X156628524Y-85545842D01*
X156618420Y-85475568D01*
X156626729Y-85445282D01*
X156628064Y-85442061D01*
X156665558Y-85351541D01*
X156685509Y-85200000D01*
X156665558Y-85048459D01*
X156607066Y-84907246D01*
X156520371Y-84794263D01*
X156519046Y-84792536D01*
X156519043Y-84792533D01*
X156514017Y-84785983D01*
X156479321Y-84759359D01*
X156399305Y-84697960D01*
X156392755Y-84692934D01*
X156251541Y-84634442D01*
X156100000Y-84614491D01*
X155948459Y-84634442D01*
X155807246Y-84692934D01*
X155685983Y-84785983D01*
X155592934Y-84907246D01*
X155534442Y-85048459D01*
X155514491Y-85200000D01*
X145730500Y-85200000D01*
X145730500Y-83830509D01*
X145750502Y-83762388D01*
X145766393Y-83742670D01*
X162987160Y-83742670D01*
X162992887Y-83750320D01*
X163164042Y-83855205D01*
X163172837Y-83859687D01*
X163382988Y-83946734D01*
X163392373Y-83949783D01*
X163613554Y-84002885D01*
X163623301Y-84004428D01*
X163850070Y-84022275D01*
X163859930Y-84022275D01*
X164086699Y-84004428D01*
X164096446Y-84002885D01*
X164317627Y-83949783D01*
X164327012Y-83946734D01*
X164537163Y-83859687D01*
X164545958Y-83855205D01*
X164713445Y-83752568D01*
X164722907Y-83742110D01*
X164719124Y-83733334D01*
X163867812Y-82882022D01*
X163853868Y-82874408D01*
X163852035Y-82874539D01*
X163845420Y-82878790D01*
X162993920Y-83730290D01*
X162987160Y-83742670D01*
X145766393Y-83742670D01*
X145767405Y-83741414D01*
X146993889Y-82514930D01*
X162342725Y-82514930D01*
X162360572Y-82741699D01*
X162362115Y-82751446D01*
X162415217Y-82972627D01*
X162418266Y-82982012D01*
X162505313Y-83192163D01*
X162509795Y-83200958D01*
X162612432Y-83368445D01*
X162622890Y-83377907D01*
X162631666Y-83374124D01*
X163482978Y-82522812D01*
X163489356Y-82511132D01*
X164219408Y-82511132D01*
X164219539Y-82512965D01*
X164223790Y-82519580D01*
X165075290Y-83371080D01*
X165087670Y-83377840D01*
X165095320Y-83372113D01*
X165200205Y-83200958D01*
X165204687Y-83192163D01*
X165291734Y-82982012D01*
X165294783Y-82972627D01*
X165347885Y-82751446D01*
X165349428Y-82741699D01*
X165367275Y-82514930D01*
X165367275Y-82505070D01*
X165349428Y-82278301D01*
X165347885Y-82268554D01*
X165294783Y-82047373D01*
X165291734Y-82037988D01*
X165204687Y-81827837D01*
X165200205Y-81819042D01*
X165097568Y-81651555D01*
X165087110Y-81642093D01*
X165078334Y-81645876D01*
X164227022Y-82497188D01*
X164219408Y-82511132D01*
X163489356Y-82511132D01*
X163490592Y-82508868D01*
X163490461Y-82507035D01*
X163486210Y-82500420D01*
X162634710Y-81648920D01*
X162622330Y-81642160D01*
X162614680Y-81647887D01*
X162509795Y-81819042D01*
X162505313Y-81827837D01*
X162418266Y-82037988D01*
X162415217Y-82047373D01*
X162362115Y-82268554D01*
X162360572Y-82278301D01*
X162342725Y-82505070D01*
X162342725Y-82514930D01*
X146993889Y-82514930D01*
X148230929Y-81277890D01*
X162987093Y-81277890D01*
X162990876Y-81286666D01*
X163842188Y-82137978D01*
X163856132Y-82145592D01*
X163857965Y-82145461D01*
X163864580Y-82141210D01*
X164716080Y-81289710D01*
X164722840Y-81277330D01*
X164717113Y-81269680D01*
X164545958Y-81164795D01*
X164537163Y-81160313D01*
X164327012Y-81073266D01*
X164317627Y-81070217D01*
X164096446Y-81017115D01*
X164086699Y-81015572D01*
X163859930Y-80997725D01*
X163850070Y-80997725D01*
X163623301Y-81015572D01*
X163613554Y-81017115D01*
X163392373Y-81070217D01*
X163382988Y-81073266D01*
X163172837Y-81160313D01*
X163164042Y-81164795D01*
X162996555Y-81267432D01*
X162987093Y-81277890D01*
X148230929Y-81277890D01*
X149060214Y-80448605D01*
X149071303Y-80438750D01*
X149071352Y-80438711D01*
X149096527Y-80418865D01*
X149128356Y-80372813D01*
X149130654Y-80369598D01*
X149158323Y-80332137D01*
X149158325Y-80332133D01*
X149163920Y-80324558D01*
X149166206Y-80318048D01*
X149170129Y-80312372D01*
X149174042Y-80300000D01*
X151639491Y-80300000D01*
X151659442Y-80451541D01*
X151717934Y-80592754D01*
X151763043Y-80651541D01*
X151805954Y-80707464D01*
X151805957Y-80707467D01*
X151810983Y-80714017D01*
X151817533Y-80719043D01*
X151817534Y-80719044D01*
X151913828Y-80792934D01*
X151932245Y-80807066D01*
X152073459Y-80865558D01*
X152225000Y-80885509D01*
X152376541Y-80865558D01*
X152517755Y-80807066D01*
X152536172Y-80792934D01*
X152632466Y-80719044D01*
X152632467Y-80719043D01*
X152639017Y-80714017D01*
X152644043Y-80707467D01*
X152644046Y-80707464D01*
X152686957Y-80651541D01*
X152732066Y-80592754D01*
X152754501Y-80538592D01*
X152781814Y-80497716D01*
X153462125Y-79817405D01*
X153524437Y-79783379D01*
X153551220Y-79780500D01*
X163829852Y-79780500D01*
X163892903Y-79799013D01*
X163893540Y-79797909D01*
X163900694Y-79802039D01*
X163907245Y-79807066D01*
X164048459Y-79865558D01*
X164200000Y-79885509D01*
X164351541Y-79865558D01*
X164492755Y-79807066D01*
X164499305Y-79802040D01*
X164607466Y-79719044D01*
X164607467Y-79719043D01*
X164614017Y-79714017D01*
X164619043Y-79707467D01*
X164619046Y-79707464D01*
X164701679Y-79599774D01*
X164707066Y-79592754D01*
X164765558Y-79451541D01*
X164785509Y-79300000D01*
X164765558Y-79148459D01*
X164707066Y-79007246D01*
X164638313Y-78917646D01*
X164619046Y-78892536D01*
X164619043Y-78892533D01*
X164614017Y-78885983D01*
X164605793Y-78879672D01*
X164499305Y-78797960D01*
X164492755Y-78792934D01*
X164351541Y-78734442D01*
X164200000Y-78714491D01*
X164048459Y-78734442D01*
X164040827Y-78737603D01*
X164040828Y-78737603D01*
X163914874Y-78789774D01*
X163914872Y-78789775D01*
X163907246Y-78792934D01*
X163900697Y-78797960D01*
X163893541Y-78802091D01*
X163891843Y-78799149D01*
X163840346Y-78819062D01*
X163829853Y-78819500D01*
X153233206Y-78819500D01*
X153232436Y-78819498D01*
X153231677Y-78819493D01*
X153159118Y-78819050D01*
X153132703Y-78826599D01*
X153115944Y-78830177D01*
X153111194Y-78830857D01*
X153097640Y-78832798D01*
X153097638Y-78832798D01*
X153088753Y-78834071D01*
X153067138Y-78843899D01*
X153049610Y-78850348D01*
X153035413Y-78854405D01*
X153035409Y-78854407D01*
X153026780Y-78856873D01*
X153019192Y-78861661D01*
X153019187Y-78861663D01*
X153003550Y-78871530D01*
X152988469Y-78879668D01*
X152963459Y-78891039D01*
X152956658Y-78896899D01*
X152956652Y-78896903D01*
X152945469Y-78906539D01*
X152930459Y-78917646D01*
X152917970Y-78925526D01*
X152917967Y-78925528D01*
X152910376Y-78930318D01*
X152904436Y-78937043D01*
X152904432Y-78937047D01*
X152892191Y-78950908D01*
X152880001Y-78962950D01*
X152859189Y-78980883D01*
X152851638Y-78992533D01*
X152846274Y-79000809D01*
X152834983Y-79015685D01*
X152819265Y-79033482D01*
X152815451Y-79041605D01*
X152815448Y-79041610D01*
X152807590Y-79058347D01*
X152799270Y-79073327D01*
X152790112Y-79087457D01*
X152784328Y-79096381D01*
X152781757Y-79104978D01*
X152781755Y-79104982D01*
X152777522Y-79119135D01*
X152770867Y-79136564D01*
X152768698Y-79141184D01*
X152743737Y-79176734D01*
X152233340Y-79687131D01*
X152171028Y-79721157D01*
X152160698Y-79722957D01*
X152073459Y-79734442D01*
X152065832Y-79737601D01*
X152065829Y-79737602D01*
X152002852Y-79763688D01*
X151932246Y-79792934D01*
X151810983Y-79885983D01*
X151717934Y-80007246D01*
X151659442Y-80148459D01*
X151639491Y-80300000D01*
X149174042Y-80300000D01*
X149176631Y-80291812D01*
X149187016Y-80258978D01*
X149188268Y-80255226D01*
X149203692Y-80211303D01*
X149203692Y-80211302D01*
X149206812Y-80202418D01*
X149207083Y-80195525D01*
X149209164Y-80188945D01*
X149209661Y-80182630D01*
X149209661Y-80132410D01*
X149209758Y-80127462D01*
X149211526Y-80082477D01*
X149211896Y-80073065D01*
X149210077Y-80066204D01*
X149209661Y-80058649D01*
X149209661Y-78691547D01*
X149229663Y-78623426D01*
X149283319Y-78576933D01*
X149353593Y-78566829D01*
X149383878Y-78575138D01*
X149449986Y-78602520D01*
X149457620Y-78605682D01*
X149609161Y-78625633D01*
X149760702Y-78605682D01*
X149901916Y-78547190D01*
X150023178Y-78454141D01*
X150028204Y-78447591D01*
X150028207Y-78447588D01*
X150069703Y-78393509D01*
X150116227Y-78332878D01*
X150174719Y-78191665D01*
X150194670Y-78040124D01*
X150174719Y-77888583D01*
X150116227Y-77747370D01*
X150093477Y-77717722D01*
X150067878Y-77651503D01*
X150082143Y-77581954D01*
X150131744Y-77531159D01*
X150193441Y-77515020D01*
X151741896Y-77515020D01*
X151810017Y-77535022D01*
X151841854Y-77564311D01*
X151906483Y-77648537D01*
X151913033Y-77653563D01*
X151913034Y-77653564D01*
X151967618Y-77695448D01*
X152027745Y-77741586D01*
X152168959Y-77800078D01*
X152320500Y-77820029D01*
X152472041Y-77800078D01*
X152613255Y-77741586D01*
X152673382Y-77695448D01*
X152727966Y-77653564D01*
X152727967Y-77653563D01*
X152734517Y-77648537D01*
X152739543Y-77641987D01*
X152739546Y-77641984D01*
X152794679Y-77570133D01*
X152827566Y-77527274D01*
X152886058Y-77386061D01*
X152906009Y-77234520D01*
X152886058Y-77082979D01*
X152827566Y-76941766D01*
X152754854Y-76847006D01*
X152739546Y-76827056D01*
X152739543Y-76827053D01*
X152734517Y-76820503D01*
X152695205Y-76790337D01*
X152619805Y-76732480D01*
X152613255Y-76727454D01*
X152472041Y-76668962D01*
X152320500Y-76649011D01*
X152168959Y-76668962D01*
X152027746Y-76727454D01*
X151906483Y-76820503D01*
X151841856Y-76904726D01*
X151784521Y-76946591D01*
X151741896Y-76954020D01*
X150014007Y-76954020D01*
X150011963Y-76953870D01*
X150007166Y-76952223D01*
X149995541Y-76952659D01*
X149995539Y-76952659D01*
X149961668Y-76953931D01*
X149956941Y-76954020D01*
X149939390Y-76954020D01*
X149934875Y-76954861D01*
X149932093Y-76955041D01*
X149914372Y-76955706D01*
X149914369Y-76955707D01*
X149902745Y-76956143D01*
X149892055Y-76960735D01*
X149885232Y-76962273D01*
X149880696Y-76963651D01*
X149874186Y-76966163D01*
X149862752Y-76968293D01*
X149844002Y-76979851D01*
X149843688Y-76980044D01*
X149827312Y-76988551D01*
X149806737Y-76997391D01*
X149802176Y-77001137D01*
X149799980Y-77003333D01*
X149797718Y-77005384D01*
X149797479Y-77005121D01*
X149792315Y-77009203D01*
X149792319Y-77009207D01*
X149783702Y-77017020D01*
X149773798Y-77023125D01*
X149758674Y-77043014D01*
X149747480Y-77055833D01*
X149445137Y-77358176D01*
X149443579Y-77359521D01*
X149439023Y-77361748D01*
X149428034Y-77373594D01*
X149367044Y-77409931D01*
X149296088Y-77407526D01*
X149237696Y-77367141D01*
X149210408Y-77301599D01*
X149209661Y-77287902D01*
X149209661Y-76712022D01*
X149229663Y-76643901D01*
X149287444Y-76595613D01*
X149415125Y-76542727D01*
X149415129Y-76542725D01*
X149422755Y-76539566D01*
X149476108Y-76498626D01*
X149537466Y-76451544D01*
X149537467Y-76451543D01*
X149544017Y-76446517D01*
X149549043Y-76439967D01*
X149549046Y-76439964D01*
X149590541Y-76385886D01*
X149637066Y-76325254D01*
X149695558Y-76184041D01*
X149715509Y-76032500D01*
X149695558Y-75880959D01*
X149637066Y-75739746D01*
X149578456Y-75663364D01*
X149549046Y-75625036D01*
X149549043Y-75625033D01*
X149544017Y-75618483D01*
X149532389Y-75609560D01*
X149429305Y-75530460D01*
X149422755Y-75525434D01*
X149281541Y-75466942D01*
X149130000Y-75446991D01*
X148978459Y-75466942D01*
X148837246Y-75525434D01*
X148715983Y-75618483D01*
X148622934Y-75739746D01*
X148564442Y-75880959D01*
X148554738Y-75954670D01*
X148553608Y-75963251D01*
X148524886Y-76028178D01*
X148517781Y-76035900D01*
X148498108Y-76055573D01*
X148487019Y-76065428D01*
X148461795Y-76085313D01*
X148429941Y-76131402D01*
X148427699Y-76134539D01*
X148394402Y-76179619D01*
X148392115Y-76186131D01*
X148388193Y-76191806D01*
X148385353Y-76200787D01*
X148371315Y-76245174D01*
X148370062Y-76248930D01*
X148354629Y-76292875D01*
X148354628Y-76292882D01*
X148351510Y-76301760D01*
X148351239Y-76308653D01*
X148349158Y-76315233D01*
X148348661Y-76321548D01*
X148348661Y-76371768D01*
X148348564Y-76376716D01*
X148346426Y-76431113D01*
X148348245Y-76437974D01*
X148348661Y-76445529D01*
X148348661Y-79890330D01*
X148328659Y-79958451D01*
X148311756Y-79979425D01*
X145018947Y-83272234D01*
X145007858Y-83282089D01*
X144982634Y-83301974D01*
X144950780Y-83348063D01*
X144948552Y-83351180D01*
X144915241Y-83396280D01*
X144912954Y-83402792D01*
X144909032Y-83408467D01*
X144895775Y-83450386D01*
X144892154Y-83461835D01*
X144890901Y-83465591D01*
X144875468Y-83509536D01*
X144875467Y-83509543D01*
X144872349Y-83518421D01*
X144872078Y-83525314D01*
X144869997Y-83531894D01*
X144869500Y-83538209D01*
X144869500Y-83588429D01*
X144869403Y-83593377D01*
X144867265Y-83647774D01*
X144869084Y-83654635D01*
X144869500Y-83662190D01*
X144869500Y-86468623D01*
X144849498Y-86536744D01*
X144795842Y-86583237D01*
X144725568Y-86593341D01*
X144660988Y-86563847D01*
X144654405Y-86557718D01*
X144432662Y-86335975D01*
X144431318Y-86334418D01*
X144429091Y-86329862D01*
X144395692Y-86298880D01*
X144392287Y-86295600D01*
X144379895Y-86283208D01*
X144376107Y-86280609D01*
X144374026Y-86278782D01*
X144361008Y-86266706D01*
X144352482Y-86258797D01*
X144341680Y-86254488D01*
X144335777Y-86250756D01*
X144331594Y-86248522D01*
X144325205Y-86245691D01*
X144315611Y-86239109D01*
X144304291Y-86236423D01*
X144304289Y-86236422D01*
X144293824Y-86233939D01*
X144276223Y-86228373D01*
X144255427Y-86220076D01*
X144249553Y-86219500D01*
X144246469Y-86219500D01*
X144243402Y-86219350D01*
X144243419Y-86218997D01*
X144236875Y-86218231D01*
X144236875Y-86218237D01*
X144225262Y-86217669D01*
X144213939Y-86214982D01*
X144202410Y-86216551D01*
X144202409Y-86216551D01*
X144189198Y-86218349D01*
X144172207Y-86219500D01*
X142110431Y-86219500D01*
X142042310Y-86199498D01*
X141995817Y-86145842D01*
X141985836Y-86099957D01*
X141985509Y-86100000D01*
X141984994Y-86096088D01*
X141965558Y-85948459D01*
X141907066Y-85807246D01*
X141854284Y-85738459D01*
X141819046Y-85692536D01*
X141819043Y-85692533D01*
X141814017Y-85685983D01*
X141794661Y-85671130D01*
X141699305Y-85597960D01*
X141692755Y-85592934D01*
X141551541Y-85534442D01*
X141400000Y-85514491D01*
X141248459Y-85534442D01*
X141107246Y-85592934D01*
X140985983Y-85685983D01*
X140892934Y-85807246D01*
X140834442Y-85948459D01*
X140814491Y-86100000D01*
X140834442Y-86251541D01*
X140892934Y-86392754D01*
X140911384Y-86416798D01*
X140936983Y-86483017D01*
X140922718Y-86552565D01*
X140873117Y-86603361D01*
X140811420Y-86619500D01*
X135305779Y-86619500D01*
X135237658Y-86599498D01*
X135216684Y-86582595D01*
X132417405Y-83783316D01*
X132383379Y-83721004D01*
X132380500Y-83694221D01*
X132380500Y-82478567D01*
X133389566Y-82478567D01*
X133389738Y-82481962D01*
X133389738Y-82481963D01*
X133397339Y-82632000D01*
X133407489Y-82832370D01*
X133408026Y-82835725D01*
X133408027Y-82835731D01*
X133435679Y-83008366D01*
X133463518Y-83182169D01*
X133556996Y-83523870D01*
X133686832Y-83853477D01*
X133690092Y-83859687D01*
X133849922Y-84164118D01*
X133849927Y-84164126D01*
X133851506Y-84167134D01*
X133853400Y-84169952D01*
X133853405Y-84169961D01*
X134041773Y-84450281D01*
X134049091Y-84461172D01*
X134277276Y-84732151D01*
X134533393Y-84976901D01*
X134814444Y-85192559D01*
X135117142Y-85376603D01*
X135163221Y-85398188D01*
X135434862Y-85525435D01*
X135434872Y-85525439D01*
X135437946Y-85526879D01*
X135441164Y-85527981D01*
X135441167Y-85527982D01*
X135769881Y-85640526D01*
X135769889Y-85640528D01*
X135773104Y-85641629D01*
X136118694Y-85719511D01*
X136199027Y-85728664D01*
X136467291Y-85759229D01*
X136467299Y-85759229D01*
X136470674Y-85759614D01*
X136474078Y-85759632D01*
X136474081Y-85759632D01*
X136666752Y-85760641D01*
X136824927Y-85761469D01*
X136828313Y-85761119D01*
X136828315Y-85761119D01*
X137173915Y-85725405D01*
X137173924Y-85725404D01*
X137177307Y-85725054D01*
X137180640Y-85724340D01*
X137180643Y-85724339D01*
X137383001Y-85680957D01*
X137523694Y-85650795D01*
X137860035Y-85539561D01*
X138182395Y-85392653D01*
X138185332Y-85390909D01*
X138185338Y-85390906D01*
X138473514Y-85219799D01*
X138487004Y-85211789D01*
X138770298Y-84999086D01*
X139028963Y-84757031D01*
X139185709Y-84574798D01*
X139257755Y-84491037D01*
X139257756Y-84491035D01*
X139259974Y-84488457D01*
X139265958Y-84479751D01*
X139324452Y-84394641D01*
X139460627Y-84196504D01*
X139462239Y-84193510D01*
X139462244Y-84193502D01*
X139600250Y-83937198D01*
X139628577Y-83884589D01*
X139746826Y-83593377D01*
X139760577Y-83559512D01*
X139760579Y-83559507D01*
X139761857Y-83556359D01*
X139770701Y-83525314D01*
X139821205Y-83348015D01*
X139858909Y-83215655D01*
X139918597Y-82866463D01*
X139928385Y-82706441D01*
X139940114Y-82514663D01*
X139940224Y-82512866D01*
X139940279Y-82497188D01*
X139940298Y-82491819D01*
X139940298Y-82491806D01*
X139940304Y-82490000D01*
X139921146Y-82136261D01*
X139863897Y-81786660D01*
X139769226Y-81445287D01*
X139767968Y-81442125D01*
X139767965Y-81442117D01*
X139639500Y-81119300D01*
X139639496Y-81119292D01*
X139638240Y-81116135D01*
X139636647Y-81113126D01*
X139474067Y-80806065D01*
X139474065Y-80806061D01*
X139472473Y-80803055D01*
X139273862Y-80509709D01*
X139271657Y-80507109D01*
X139271651Y-80507101D01*
X139116843Y-80324558D01*
X139044732Y-80239528D01*
X138787763Y-79995673D01*
X138785056Y-79993611D01*
X138785048Y-79993604D01*
X138599145Y-79851985D01*
X138505961Y-79780998D01*
X138202622Y-79598012D01*
X138191097Y-79592662D01*
X137884376Y-79450287D01*
X137884374Y-79450286D01*
X137881295Y-79448857D01*
X137878083Y-79447770D01*
X137878076Y-79447767D01*
X137548966Y-79336370D01*
X137548961Y-79336369D01*
X137545739Y-79335278D01*
X137320682Y-79285384D01*
X137203209Y-79259340D01*
X137203205Y-79259339D01*
X137199879Y-79258602D01*
X137038884Y-79240828D01*
X136851144Y-79220101D01*
X136851137Y-79220101D01*
X136847762Y-79219728D01*
X136844363Y-79219722D01*
X136844362Y-79219722D01*
X136677005Y-79219430D01*
X136493505Y-79219110D01*
X136362122Y-79233151D01*
X136144638Y-79256393D01*
X136144632Y-79256394D01*
X136141254Y-79256755D01*
X136137931Y-79257479D01*
X136137928Y-79257480D01*
X135798448Y-79331498D01*
X135798446Y-79331499D01*
X135795128Y-79332222D01*
X135791907Y-79333300D01*
X135791906Y-79333300D01*
X135782731Y-79336370D01*
X135459178Y-79444630D01*
X135137332Y-79592662D01*
X135134398Y-79594418D01*
X135134396Y-79594419D01*
X135079394Y-79627337D01*
X134833356Y-79774588D01*
X134550806Y-79988279D01*
X134548324Y-79990618D01*
X134548318Y-79990623D01*
X134295473Y-80228893D01*
X134292988Y-80231235D01*
X134290776Y-80233825D01*
X134290774Y-80233827D01*
X134269293Y-80258978D01*
X134062916Y-80500614D01*
X134060997Y-80503426D01*
X134060994Y-80503431D01*
X133865664Y-80789775D01*
X133863283Y-80793265D01*
X133861676Y-80796275D01*
X133861674Y-80796278D01*
X133698029Y-81102758D01*
X133698025Y-81102767D01*
X133696424Y-81105765D01*
X133695155Y-81108922D01*
X133695153Y-81108926D01*
X133653659Y-81212147D01*
X133564290Y-81434458D01*
X133563370Y-81437732D01*
X133563368Y-81437737D01*
X133469989Y-81769946D01*
X133468428Y-81775498D01*
X133467866Y-81778855D01*
X133467866Y-81778856D01*
X133430378Y-82002876D01*
X133409958Y-82124897D01*
X133393995Y-82401749D01*
X133389566Y-82478567D01*
X132380500Y-82478567D01*
X132380500Y-77645193D01*
X132380650Y-77643149D01*
X132382297Y-77638352D01*
X132381838Y-77626107D01*
X132380589Y-77592854D01*
X132380500Y-77588127D01*
X132380500Y-77570576D01*
X132379659Y-77566061D01*
X132379479Y-77563279D01*
X132378814Y-77545558D01*
X132378813Y-77545555D01*
X132378377Y-77533931D01*
X132373785Y-77523241D01*
X132372247Y-77516418D01*
X132370869Y-77511882D01*
X132368357Y-77505372D01*
X132366227Y-77493938D01*
X132354476Y-77474874D01*
X132345969Y-77458498D01*
X132340640Y-77446095D01*
X132337129Y-77437923D01*
X132333383Y-77433362D01*
X132331187Y-77431166D01*
X132329136Y-77428904D01*
X132329399Y-77428665D01*
X132325317Y-77423501D01*
X132325313Y-77423505D01*
X132317500Y-77414888D01*
X132311395Y-77404984D01*
X132291506Y-77389860D01*
X132278687Y-77378666D01*
X131054327Y-76154306D01*
X131020301Y-76091994D01*
X131027013Y-76016994D01*
X131042876Y-75978695D01*
X131046038Y-75971061D01*
X131065989Y-75819520D01*
X131046038Y-75667979D01*
X130987546Y-75526766D01*
X130926332Y-75446991D01*
X130899526Y-75412056D01*
X130899523Y-75412053D01*
X130894497Y-75405503D01*
X130869274Y-75386148D01*
X130779785Y-75317480D01*
X130773235Y-75312454D01*
X130632021Y-75253962D01*
X130480480Y-75234011D01*
X130328939Y-75253962D01*
X130187726Y-75312454D01*
X130066463Y-75405503D01*
X129973414Y-75526766D01*
X129959245Y-75560973D01*
X129943076Y-75600008D01*
X129898527Y-75655289D01*
X129831164Y-75677710D01*
X129762373Y-75660152D01*
X129737572Y-75640885D01*
X129123183Y-75026496D01*
X129121838Y-75024938D01*
X129119611Y-75020382D01*
X129086212Y-74989400D01*
X129082807Y-74986120D01*
X129070415Y-74973728D01*
X129066627Y-74971129D01*
X129064546Y-74969302D01*
X129051528Y-74957226D01*
X129043002Y-74949317D01*
X129032200Y-74945008D01*
X129026297Y-74941276D01*
X129022114Y-74939042D01*
X129015725Y-74936211D01*
X129006131Y-74929629D01*
X128994811Y-74926943D01*
X128994809Y-74926942D01*
X128984344Y-74924459D01*
X128966743Y-74918893D01*
X128962883Y-74917353D01*
X128945947Y-74910596D01*
X128940073Y-74910020D01*
X128936989Y-74910020D01*
X128933922Y-74909870D01*
X128933939Y-74909517D01*
X128927395Y-74908751D01*
X128927395Y-74908757D01*
X128915782Y-74908189D01*
X128904459Y-74905502D01*
X128892929Y-74907071D01*
X128881312Y-74906503D01*
X128881386Y-74904987D01*
X128823903Y-74896282D01*
X128777144Y-74858771D01*
X128714017Y-74776503D01*
X128668434Y-74741525D01*
X128599305Y-74688480D01*
X128592755Y-74683454D01*
X128451541Y-74624962D01*
X128300000Y-74605011D01*
X128148459Y-74624962D01*
X128007246Y-74683454D01*
X127931567Y-74741525D01*
X127908204Y-74759452D01*
X127841984Y-74785053D01*
X127772435Y-74770788D01*
X127721639Y-74721187D01*
X127705500Y-74659490D01*
X127705500Y-69531031D01*
X127725502Y-69462910D01*
X127779158Y-69416417D01*
X127849432Y-69406313D01*
X127908205Y-69431069D01*
X127953944Y-69466166D01*
X128007245Y-69507066D01*
X128148459Y-69565558D01*
X128300000Y-69585509D01*
X128451541Y-69565558D01*
X128592755Y-69507066D01*
X128646056Y-69466166D01*
X128707466Y-69419044D01*
X128707467Y-69419043D01*
X128714017Y-69414017D01*
X128778644Y-69329794D01*
X128835979Y-69287929D01*
X128878604Y-69280500D01*
X128993289Y-69280500D01*
X129061410Y-69300502D01*
X129082384Y-69317405D01*
X129369384Y-69604405D01*
X129403410Y-69666717D01*
X129398345Y-69737532D01*
X129355798Y-69794368D01*
X129289278Y-69819179D01*
X129280289Y-69819500D01*
X128646305Y-69819500D01*
X128629859Y-69818422D01*
X128608188Y-69815569D01*
X128600000Y-69814491D01*
X128570141Y-69818422D01*
X128561953Y-69819500D01*
X128522017Y-69824758D01*
X128522016Y-69824758D01*
X128499093Y-69827776D01*
X128448459Y-69834441D01*
X128318168Y-69888410D01*
X128307246Y-69892934D01*
X128300696Y-69897960D01*
X128192536Y-69980954D01*
X128192533Y-69980957D01*
X128185983Y-69985983D01*
X128180957Y-69992533D01*
X128180956Y-69992534D01*
X128112337Y-70081959D01*
X128092934Y-70107245D01*
X128034442Y-70248459D01*
X128014491Y-70400000D01*
X128030605Y-70522394D01*
X128034442Y-70551541D01*
X128092934Y-70692754D01*
X128162621Y-70783572D01*
X128162623Y-70783574D01*
X128185983Y-70814017D01*
X128209884Y-70832357D01*
X128222267Y-70843218D01*
X129882595Y-72503546D01*
X129916621Y-72565858D01*
X129919500Y-72592641D01*
X129919500Y-73953695D01*
X129918422Y-73970141D01*
X129914491Y-74000000D01*
X129924466Y-74075770D01*
X129934441Y-74151541D01*
X129981302Y-74264672D01*
X129992934Y-74292754D01*
X129997960Y-74299304D01*
X130080954Y-74407464D01*
X130080957Y-74407467D01*
X130085983Y-74414017D01*
X130092533Y-74419043D01*
X130092534Y-74419044D01*
X130133979Y-74450846D01*
X130207245Y-74507066D01*
X130348459Y-74565558D01*
X130500000Y-74585509D01*
X130508188Y-74584431D01*
X130529859Y-74581578D01*
X130546305Y-74580500D01*
X131453695Y-74580500D01*
X131470141Y-74581578D01*
X131500000Y-74585509D01*
X131651541Y-74565558D01*
X131766606Y-74517897D01*
X131792755Y-74507066D01*
X131914017Y-74414017D01*
X131971357Y-74339291D01*
X132007066Y-74292755D01*
X132065558Y-74151541D01*
X132085509Y-74000000D01*
X132081578Y-73970141D01*
X132080500Y-73953695D01*
X132080500Y-73046305D01*
X132081578Y-73029859D01*
X132084431Y-73008188D01*
X132085509Y-73000000D01*
X132081578Y-72970141D01*
X132080500Y-72953695D01*
X132080500Y-72619711D01*
X132100502Y-72551590D01*
X132154158Y-72505097D01*
X132224432Y-72494993D01*
X132289012Y-72524487D01*
X132295595Y-72530616D01*
X133389851Y-73624872D01*
X133423877Y-73687184D01*
X133426756Y-73713967D01*
X133426756Y-74950896D01*
X133406754Y-75019017D01*
X133377465Y-75050854D01*
X133293239Y-75115483D01*
X133200190Y-75236746D01*
X133141698Y-75377959D01*
X133121747Y-75529500D01*
X133122825Y-75537688D01*
X133123145Y-75540119D01*
X133122825Y-75542170D01*
X133122825Y-75545947D01*
X133122236Y-75545947D01*
X133112203Y-75610267D01*
X133065073Y-75663364D01*
X133014668Y-75681483D01*
X132904865Y-75695939D01*
X132763652Y-75754431D01*
X132642389Y-75847480D01*
X132549340Y-75968743D01*
X132490848Y-76109956D01*
X132470897Y-76261497D01*
X132490848Y-76413038D01*
X132549340Y-76554251D01*
X132582955Y-76598058D01*
X132637360Y-76668961D01*
X132637361Y-76668962D01*
X132642389Y-76675514D01*
X132648939Y-76680540D01*
X132648940Y-76680541D01*
X132716627Y-76732480D01*
X132763651Y-76768563D01*
X132904865Y-76827055D01*
X133056406Y-76847006D01*
X133207947Y-76827055D01*
X133349161Y-76768563D01*
X133396185Y-76732480D01*
X133463872Y-76680541D01*
X133463873Y-76680540D01*
X133470423Y-76675514D01*
X133535050Y-76591291D01*
X133592385Y-76549426D01*
X133635010Y-76541997D01*
X133888392Y-76541997D01*
X133890440Y-76542147D01*
X133895239Y-76543795D01*
X133940752Y-76542086D01*
X133945480Y-76541997D01*
X133963015Y-76541997D01*
X133967527Y-76541156D01*
X133970311Y-76540976D01*
X133988033Y-76540311D01*
X133988036Y-76540310D01*
X133999660Y-76539874D01*
X134010350Y-76535282D01*
X134017173Y-76533744D01*
X134021709Y-76532366D01*
X134028219Y-76529854D01*
X134039653Y-76527724D01*
X134058717Y-76515973D01*
X134075093Y-76507466D01*
X134087496Y-76502137D01*
X134095668Y-76498626D01*
X134100229Y-76494880D01*
X134102425Y-76492684D01*
X134104687Y-76490633D01*
X134104926Y-76490896D01*
X134110090Y-76486814D01*
X134110086Y-76486810D01*
X134118703Y-76478997D01*
X134128607Y-76472892D01*
X134143731Y-76453003D01*
X134154925Y-76440184D01*
X134564024Y-76031085D01*
X134565582Y-76029740D01*
X134570138Y-76027513D01*
X134588604Y-76007607D01*
X134601120Y-75994114D01*
X134604400Y-75990709D01*
X134616792Y-75978317D01*
X134619391Y-75974529D01*
X134621218Y-75972448D01*
X134629750Y-75963251D01*
X134641203Y-75950904D01*
X134645512Y-75940102D01*
X134649244Y-75934199D01*
X134651480Y-75930011D01*
X134654309Y-75923628D01*
X134660891Y-75914033D01*
X134666065Y-75892230D01*
X134671625Y-75874652D01*
X134679924Y-75853849D01*
X134680500Y-75847975D01*
X134680500Y-75844891D01*
X134680650Y-75841824D01*
X134681004Y-75841841D01*
X134681770Y-75835300D01*
X134681764Y-75835300D01*
X134682332Y-75823682D01*
X134685019Y-75812361D01*
X134683440Y-75800755D01*
X134681651Y-75787615D01*
X134680500Y-75770623D01*
X134680500Y-73748533D01*
X134680650Y-73746485D01*
X134682298Y-73741686D01*
X134680589Y-73696173D01*
X134680500Y-73691445D01*
X134680500Y-73673910D01*
X134679659Y-73669398D01*
X134679479Y-73666614D01*
X134678814Y-73648892D01*
X134678813Y-73648889D01*
X134678377Y-73637265D01*
X134673785Y-73626575D01*
X134672247Y-73619752D01*
X134670869Y-73615216D01*
X134668357Y-73608706D01*
X134666227Y-73597272D01*
X134654476Y-73578208D01*
X134645969Y-73561832D01*
X134640640Y-73549429D01*
X134637129Y-73541257D01*
X134633383Y-73536696D01*
X134631187Y-73534500D01*
X134629136Y-73532238D01*
X134629399Y-73531999D01*
X134625317Y-73526835D01*
X134625313Y-73526839D01*
X134617500Y-73518222D01*
X134611395Y-73508318D01*
X134591506Y-73493194D01*
X134578687Y-73482000D01*
X128914058Y-67817371D01*
X128880032Y-67755059D01*
X128878231Y-67744722D01*
X128877366Y-67738146D01*
X128865558Y-67648459D01*
X128859641Y-67634172D01*
X128832144Y-67567789D01*
X128807066Y-67507246D01*
X128784872Y-67478322D01*
X133359582Y-67478322D01*
X133377889Y-67839692D01*
X133378426Y-67843047D01*
X133378427Y-67843053D01*
X133407223Y-68022832D01*
X133435115Y-68196971D01*
X133530593Y-68545979D01*
X133663206Y-68882635D01*
X133664789Y-68885650D01*
X133829817Y-69199983D01*
X133829822Y-69199991D01*
X133831401Y-69202999D01*
X133833295Y-69205817D01*
X133833300Y-69205826D01*
X134011100Y-69470420D01*
X134033211Y-69503325D01*
X134266276Y-69780099D01*
X134268736Y-69782450D01*
X134268739Y-69782453D01*
X134525407Y-70027730D01*
X134525414Y-70027736D01*
X134527870Y-70030083D01*
X134814931Y-70250353D01*
X134918311Y-70313209D01*
X135121187Y-70436560D01*
X135121192Y-70436563D01*
X135124102Y-70438332D01*
X135451767Y-70591821D01*
X135454985Y-70592923D01*
X135454988Y-70592924D01*
X135790869Y-70707922D01*
X135790877Y-70707924D01*
X135794092Y-70709025D01*
X135797420Y-70709775D01*
X136143747Y-70787824D01*
X136143753Y-70787825D01*
X136147072Y-70788573D01*
X136150451Y-70788958D01*
X136150457Y-70788959D01*
X136301133Y-70806126D01*
X136506579Y-70829533D01*
X136509984Y-70829551D01*
X136509987Y-70829551D01*
X136704307Y-70830569D01*
X136868407Y-70831428D01*
X136871793Y-70831078D01*
X136871795Y-70831078D01*
X137224931Y-70794585D01*
X137224939Y-70794584D01*
X137228323Y-70794234D01*
X137231656Y-70793520D01*
X137231659Y-70793519D01*
X137405886Y-70756168D01*
X137582117Y-70718387D01*
X137925651Y-70604775D01*
X138254905Y-70454725D01*
X138360863Y-70391812D01*
X138563083Y-70271743D01*
X138563088Y-70271740D01*
X138566028Y-70269994D01*
X138592188Y-70250353D01*
X138852643Y-70054797D01*
X138855380Y-70052742D01*
X138868112Y-70040828D01*
X139117080Y-69807848D01*
X139117083Y-69807845D01*
X139119577Y-69805511D01*
X139129162Y-69794368D01*
X139353301Y-69533781D01*
X139355527Y-69531193D01*
X139491774Y-69332953D01*
X139558542Y-69235806D01*
X139558547Y-69235799D01*
X139560472Y-69232997D01*
X139567201Y-69220500D01*
X156614491Y-69220500D01*
X156634442Y-69372041D01*
X156692934Y-69513254D01*
X156739458Y-69573885D01*
X156780954Y-69627964D01*
X156780957Y-69627967D01*
X156785983Y-69634517D01*
X156792533Y-69639543D01*
X156792534Y-69639544D01*
X156870205Y-69699144D01*
X156912072Y-69756483D01*
X156919500Y-69799106D01*
X156919500Y-71551467D01*
X156919350Y-71553515D01*
X156917702Y-71558314D01*
X156918139Y-71569941D01*
X156919411Y-71603827D01*
X156919500Y-71608555D01*
X156919500Y-71626090D01*
X156920341Y-71630602D01*
X156920521Y-71633386D01*
X156921186Y-71651108D01*
X156921187Y-71651111D01*
X156921623Y-71662735D01*
X156926215Y-71673425D01*
X156927753Y-71680248D01*
X156929131Y-71684784D01*
X156931643Y-71691294D01*
X156933773Y-71702728D01*
X156939877Y-71712630D01*
X156945524Y-71721792D01*
X156954031Y-71738168D01*
X156962871Y-71758743D01*
X156966617Y-71763304D01*
X156968813Y-71765500D01*
X156970864Y-71767762D01*
X156970601Y-71768001D01*
X156974683Y-71773165D01*
X156974687Y-71773161D01*
X156982500Y-71781778D01*
X156988605Y-71791682D01*
X157008494Y-71806806D01*
X157021313Y-71818000D01*
X157592521Y-72389208D01*
X157626547Y-72451520D01*
X157628348Y-72494748D01*
X157614491Y-72600000D01*
X157634442Y-72751541D01*
X157692934Y-72892754D01*
X157739458Y-72953385D01*
X157780954Y-73007464D01*
X157780957Y-73007467D01*
X157785983Y-73014017D01*
X157907245Y-73107066D01*
X158048459Y-73165558D01*
X158200000Y-73185509D01*
X158351541Y-73165558D01*
X158492755Y-73107066D01*
X158614017Y-73014017D01*
X158619043Y-73007467D01*
X158619046Y-73007464D01*
X158660541Y-72953386D01*
X158707066Y-72892754D01*
X158765558Y-72751541D01*
X158785509Y-72600000D01*
X158765558Y-72448459D01*
X158707066Y-72307246D01*
X158657072Y-72242093D01*
X158619046Y-72192536D01*
X158619043Y-72192533D01*
X158614017Y-72185983D01*
X158582609Y-72161882D01*
X158499305Y-72097960D01*
X158492755Y-72092934D01*
X158351541Y-72034442D01*
X158200000Y-72014491D01*
X158094749Y-72028348D01*
X158024601Y-72017409D01*
X157989208Y-71992521D01*
X157517405Y-71520718D01*
X157483379Y-71458406D01*
X157480500Y-71431623D01*
X157480500Y-69799106D01*
X157500502Y-69730985D01*
X157529795Y-69699144D01*
X157607466Y-69639544D01*
X157607467Y-69639543D01*
X157614017Y-69634517D01*
X157619043Y-69627967D01*
X157619046Y-69627964D01*
X157660542Y-69573885D01*
X157707066Y-69513254D01*
X157765558Y-69372041D01*
X157785509Y-69220500D01*
X157765558Y-69068959D01*
X157707066Y-68927746D01*
X157646227Y-68848459D01*
X157619046Y-68813036D01*
X157619043Y-68813033D01*
X157614017Y-68806483D01*
X157562064Y-68766617D01*
X157499305Y-68718460D01*
X157492755Y-68713434D01*
X157351541Y-68654942D01*
X157200000Y-68634991D01*
X157048459Y-68654942D01*
X156907246Y-68713434D01*
X156785983Y-68806483D01*
X156692934Y-68927746D01*
X156634442Y-69068959D01*
X156614491Y-69220500D01*
X139567201Y-69220500D01*
X139732012Y-68914411D01*
X139868143Y-68579163D01*
X139883007Y-68526984D01*
X139909995Y-68432238D01*
X139967270Y-68231173D01*
X139996673Y-68059157D01*
X140027663Y-67877860D01*
X140027663Y-67877858D01*
X140028235Y-67874513D01*
X140028962Y-67862637D01*
X140050214Y-67515153D01*
X140050324Y-67513355D01*
X140050363Y-67502303D01*
X140050400Y-67491819D01*
X140050400Y-67491806D01*
X140050406Y-67490000D01*
X140030839Y-67128697D01*
X139972365Y-66771620D01*
X139897654Y-66502223D01*
X162674500Y-66502223D01*
X162674501Y-68537776D01*
X162684973Y-68590428D01*
X162724867Y-68650133D01*
X162784572Y-68690027D01*
X162837223Y-68700500D01*
X162983197Y-68700500D01*
X164162358Y-68700499D01*
X164230479Y-68720501D01*
X164251453Y-68737404D01*
X165837595Y-70323546D01*
X165871621Y-70385858D01*
X165874500Y-70412641D01*
X165874500Y-83603695D01*
X165873422Y-83620141D01*
X165869491Y-83650000D01*
X165889442Y-83801541D01*
X165947934Y-83942754D01*
X165984105Y-83989892D01*
X166035954Y-84057464D01*
X166035957Y-84057467D01*
X166040983Y-84064017D01*
X166047533Y-84069043D01*
X166047534Y-84069044D01*
X166149932Y-84147618D01*
X166162245Y-84157066D01*
X166303459Y-84215558D01*
X166455000Y-84235509D01*
X166606541Y-84215558D01*
X166615112Y-84212008D01*
X166747755Y-84157066D01*
X166760068Y-84147618D01*
X166862466Y-84069044D01*
X166862467Y-84069043D01*
X166869017Y-84064017D01*
X166874043Y-84057467D01*
X166874046Y-84057464D01*
X166925895Y-83989892D01*
X166962066Y-83942754D01*
X167020558Y-83801541D01*
X167040509Y-83650000D01*
X167036578Y-83620141D01*
X167035500Y-83603695D01*
X167035500Y-74913722D01*
X190515922Y-74913722D01*
X190516017Y-74917352D01*
X190516017Y-74917353D01*
X190524309Y-75234011D01*
X190524920Y-75257324D01*
X190525430Y-75260910D01*
X190525431Y-75260918D01*
X190543075Y-75384889D01*
X190573350Y-75597616D01*
X190574269Y-75601119D01*
X190574270Y-75601124D01*
X190644615Y-75869260D01*
X190660572Y-75930086D01*
X190724781Y-76094774D01*
X190783420Y-76245174D01*
X190785429Y-76250328D01*
X190821060Y-76317624D01*
X190940581Y-76543358D01*
X190946266Y-76554096D01*
X190948323Y-76557089D01*
X191138895Y-76834373D01*
X191138901Y-76834380D01*
X191140952Y-76837365D01*
X191241149Y-76952223D01*
X191326267Y-77049796D01*
X191366905Y-77096381D01*
X191369590Y-77098824D01*
X191579729Y-77290035D01*
X191621132Y-77327709D01*
X191900262Y-77528284D01*
X192200595Y-77695448D01*
X192518152Y-77826984D01*
X192521646Y-77827979D01*
X192521648Y-77827980D01*
X192845221Y-77920152D01*
X192845226Y-77920153D01*
X192848722Y-77921149D01*
X192852303Y-77921735D01*
X192852310Y-77921737D01*
X193184345Y-77976110D01*
X193184349Y-77976110D01*
X193187925Y-77976696D01*
X193191551Y-77976867D01*
X193527637Y-77992716D01*
X193527638Y-77992716D01*
X193531264Y-77992887D01*
X193543042Y-77992084D01*
X193870558Y-77969757D01*
X193870566Y-77969756D01*
X193874189Y-77969509D01*
X193877765Y-77968846D01*
X193877767Y-77968846D01*
X194208589Y-77907532D01*
X194208593Y-77907531D01*
X194212154Y-77906871D01*
X194471830Y-77826984D01*
X194537202Y-77806873D01*
X194540680Y-77805803D01*
X194855412Y-77667645D01*
X194896585Y-77643586D01*
X195149039Y-77496064D01*
X195149041Y-77496063D01*
X195152179Y-77494229D01*
X195177486Y-77475228D01*
X195424140Y-77290035D01*
X195424144Y-77290032D01*
X195427047Y-77287852D01*
X195676373Y-77051250D01*
X195896853Y-76787560D01*
X195901174Y-76780983D01*
X196028253Y-76587521D01*
X196085563Y-76500275D01*
X196175453Y-76321548D01*
X196238376Y-76196441D01*
X196238379Y-76196433D01*
X196240003Y-76193205D01*
X196241248Y-76189803D01*
X196356878Y-75873830D01*
X196356879Y-75873826D01*
X196358126Y-75870419D01*
X196358971Y-75866897D01*
X196358974Y-75866889D01*
X196437519Y-75539725D01*
X196437520Y-75539721D01*
X196438366Y-75536196D01*
X196447780Y-75458404D01*
X196479324Y-75197743D01*
X196479325Y-75197736D01*
X196479660Y-75194964D01*
X196482201Y-75114123D01*
X196485463Y-75010297D01*
X196485551Y-75007500D01*
X196485390Y-75004704D01*
X196465974Y-74667969D01*
X196465973Y-74667964D01*
X196465765Y-74664349D01*
X196438866Y-74510225D01*
X196407293Y-74329320D01*
X196407291Y-74329313D01*
X196406669Y-74325747D01*
X196398837Y-74299304D01*
X196331506Y-74071998D01*
X196309048Y-73996181D01*
X196307433Y-73992393D01*
X196180072Y-73693803D01*
X196174193Y-73680019D01*
X196170457Y-73673468D01*
X196005685Y-73384592D01*
X196003894Y-73381452D01*
X195946711Y-73303606D01*
X195928703Y-73279092D01*
X195800407Y-73104438D01*
X195746387Y-73046305D01*
X195603698Y-72892754D01*
X195566429Y-72852648D01*
X195305061Y-72629419D01*
X195019769Y-72437711D01*
X194859850Y-72355170D01*
X194717553Y-72281725D01*
X194714333Y-72280063D01*
X194392802Y-72158567D01*
X194059436Y-72074831D01*
X193916216Y-72055976D01*
X193722260Y-72030441D01*
X193722252Y-72030440D01*
X193718656Y-72029967D01*
X193575779Y-72027722D01*
X193378620Y-72024625D01*
X193378616Y-72024625D01*
X193374978Y-72024568D01*
X193371364Y-72024929D01*
X193371358Y-72024929D01*
X193129634Y-72049056D01*
X193032957Y-72058706D01*
X192697126Y-72131929D01*
X192693699Y-72133102D01*
X192693693Y-72133104D01*
X192426622Y-72224543D01*
X192371937Y-72243266D01*
X192061700Y-72391242D01*
X191770527Y-72573894D01*
X191767691Y-72576166D01*
X191767684Y-72576171D01*
X191559008Y-72743352D01*
X191502276Y-72788803D01*
X191499733Y-72791373D01*
X191499725Y-72791380D01*
X191285177Y-73008188D01*
X191260505Y-73033120D01*
X191258264Y-73035978D01*
X191202297Y-73107356D01*
X191048417Y-73303606D01*
X190868824Y-73596676D01*
X190867297Y-73599966D01*
X190867292Y-73599975D01*
X190814379Y-73713967D01*
X190724105Y-73908445D01*
X190722965Y-73911892D01*
X190617318Y-74231337D01*
X190617315Y-74231347D01*
X190616179Y-74234783D01*
X190615443Y-74238338D01*
X190615442Y-74238341D01*
X190547679Y-74565558D01*
X190546477Y-74571362D01*
X190531177Y-74742795D01*
X190516366Y-74908751D01*
X190515922Y-74913722D01*
X167035500Y-74913722D01*
X167035500Y-70166298D01*
X167036578Y-70149852D01*
X167039430Y-70128188D01*
X167040508Y-70120000D01*
X167035500Y-70081959D01*
X167035500Y-70081953D01*
X167020558Y-69968459D01*
X167017262Y-69960500D01*
X167000279Y-69919500D01*
X166962066Y-69827246D01*
X166917744Y-69769485D01*
X166892379Y-69736428D01*
X166892377Y-69736426D01*
X166869017Y-69705983D01*
X166845116Y-69687643D01*
X166832733Y-69676782D01*
X165072405Y-67916454D01*
X165038379Y-67854142D01*
X165035500Y-67827359D01*
X165035499Y-66508413D01*
X165035499Y-66502224D01*
X165025027Y-66449572D01*
X165011936Y-66429979D01*
X164992026Y-66400183D01*
X164985133Y-66389867D01*
X164925428Y-66349973D01*
X164872777Y-66339500D01*
X163855165Y-66339500D01*
X162837224Y-66339501D01*
X162784572Y-66349973D01*
X162774252Y-66356868D01*
X162774251Y-66356869D01*
X162762644Y-66364625D01*
X162724867Y-66389867D01*
X162684973Y-66449572D01*
X162674500Y-66502223D01*
X139897654Y-66502223D01*
X139875669Y-66422947D01*
X139873742Y-66418103D01*
X139743142Y-66089920D01*
X139741883Y-66086756D01*
X139645667Y-65905036D01*
X139574169Y-65769999D01*
X139574165Y-65769992D01*
X139572570Y-65766980D01*
X139570663Y-65764164D01*
X139570658Y-65764155D01*
X139371625Y-65470185D01*
X139369713Y-65467361D01*
X139364225Y-65460889D01*
X139270271Y-65350103D01*
X139135683Y-65191402D01*
X138873219Y-64942333D01*
X138610573Y-64742250D01*
X138588097Y-64725128D01*
X138588095Y-64725126D01*
X138585390Y-64723066D01*
X138582478Y-64721309D01*
X138582473Y-64721306D01*
X138418220Y-64622223D01*
X169519500Y-64622223D01*
X169519501Y-67657776D01*
X169529973Y-67710428D01*
X169536868Y-67720748D01*
X169536869Y-67720749D01*
X169557906Y-67752232D01*
X169569867Y-67770133D01*
X169629572Y-67810027D01*
X169682223Y-67820500D01*
X171199754Y-67820500D01*
X172717776Y-67820499D01*
X172770428Y-67810027D01*
X172780748Y-67803132D01*
X172780749Y-67803131D01*
X172819817Y-67777026D01*
X172830133Y-67770133D01*
X172870027Y-67710428D01*
X172880500Y-67657777D01*
X172880499Y-64622224D01*
X172870027Y-64569572D01*
X172859187Y-64553348D01*
X172837026Y-64520183D01*
X172830133Y-64509867D01*
X172770428Y-64469973D01*
X172717777Y-64459500D01*
X171200246Y-64459500D01*
X169682224Y-64459501D01*
X169629572Y-64469973D01*
X169619252Y-64476868D01*
X169619251Y-64476869D01*
X169609390Y-64483458D01*
X169569867Y-64509867D01*
X169529973Y-64569572D01*
X169519500Y-64622223D01*
X138418220Y-64622223D01*
X138278479Y-64537926D01*
X138278473Y-64537923D01*
X138275564Y-64536168D01*
X138041990Y-64427746D01*
X137950462Y-64385260D01*
X137950460Y-64385259D01*
X137947366Y-64383823D01*
X137789037Y-64330232D01*
X137607870Y-64268910D01*
X137607865Y-64268908D01*
X137604634Y-64267815D01*
X137251378Y-64189500D01*
X137123552Y-64175388D01*
X136895111Y-64150167D01*
X136895106Y-64150167D01*
X136891730Y-64149794D01*
X136888331Y-64149788D01*
X136888330Y-64149788D01*
X136717144Y-64149490D01*
X136529898Y-64149163D01*
X136446245Y-64158103D01*
X136173498Y-64187251D01*
X136173492Y-64187252D01*
X136170114Y-64187613D01*
X136166791Y-64188337D01*
X136166788Y-64188338D01*
X136109669Y-64200792D01*
X135816587Y-64264694D01*
X135473452Y-64379505D01*
X135470359Y-64380927D01*
X135470358Y-64380928D01*
X135351980Y-64435376D01*
X135144724Y-64530703D01*
X135141790Y-64532459D01*
X135141788Y-64532460D01*
X134927784Y-64660539D01*
X134834248Y-64716519D01*
X134831522Y-64718581D01*
X134831520Y-64718582D01*
X134618522Y-64879672D01*
X134545656Y-64934780D01*
X134543171Y-64937122D01*
X134543166Y-64937126D01*
X134284809Y-65180590D01*
X134282324Y-65182932D01*
X134280112Y-65185522D01*
X134280110Y-65185524D01*
X134244203Y-65227566D01*
X134047332Y-65458072D01*
X134045413Y-65460884D01*
X134045410Y-65460889D01*
X134040995Y-65467361D01*
X133843430Y-65756981D01*
X133795567Y-65846621D01*
X133674908Y-66072595D01*
X133673002Y-66076164D01*
X133669704Y-66084368D01*
X133560161Y-66356866D01*
X133538043Y-66411885D01*
X133497769Y-66555165D01*
X133443184Y-66749359D01*
X133440131Y-66760219D01*
X133439569Y-66763576D01*
X133439569Y-66763577D01*
X133401679Y-66990000D01*
X133380411Y-67117089D01*
X133364124Y-67399552D01*
X133359582Y-67478322D01*
X128784872Y-67478322D01*
X128736188Y-67414876D01*
X128719046Y-67392536D01*
X128719043Y-67392533D01*
X128714017Y-67385983D01*
X128657740Y-67342799D01*
X128599305Y-67297960D01*
X128592755Y-67292934D01*
X128451541Y-67234442D01*
X128300000Y-67214491D01*
X128148459Y-67234442D01*
X128007246Y-67292934D01*
X127921413Y-67358796D01*
X127908204Y-67368932D01*
X127841984Y-67394533D01*
X127772435Y-67380268D01*
X127721639Y-67330667D01*
X127705500Y-67268970D01*
X127705500Y-66945076D01*
X127725502Y-66876955D01*
X127783281Y-66828668D01*
X127805255Y-66819566D01*
X127878220Y-66763577D01*
X127919966Y-66731544D01*
X127919967Y-66731543D01*
X127926517Y-66726517D01*
X127931543Y-66719967D01*
X127931546Y-66719964D01*
X128002471Y-66627532D01*
X128019566Y-66605254D01*
X128078058Y-66464041D01*
X128098009Y-66312500D01*
X128078058Y-66160959D01*
X128019566Y-66019746D01*
X127945527Y-65923257D01*
X127931546Y-65905036D01*
X127931543Y-65905033D01*
X127926517Y-65898483D01*
X127902149Y-65879784D01*
X127811805Y-65810460D01*
X127805255Y-65805434D01*
X127664041Y-65746942D01*
X127512500Y-65726991D01*
X127360959Y-65746942D01*
X127219746Y-65805434D01*
X127098483Y-65898483D01*
X127005434Y-66019746D01*
X126946942Y-66160959D01*
X126926991Y-66312500D01*
X117265853Y-66312500D01*
X115579329Y-64625976D01*
X115577984Y-64624418D01*
X115575757Y-64619862D01*
X115542358Y-64588880D01*
X115538953Y-64585600D01*
X115526561Y-64573208D01*
X115522773Y-64570609D01*
X115520692Y-64568782D01*
X115507674Y-64556706D01*
X115499148Y-64548797D01*
X115488346Y-64544488D01*
X115482443Y-64540756D01*
X115478260Y-64538522D01*
X115471871Y-64535691D01*
X115462277Y-64529109D01*
X115450957Y-64526423D01*
X115450955Y-64526422D01*
X115440490Y-64523939D01*
X115422889Y-64518373D01*
X115402093Y-64510076D01*
X115396219Y-64509500D01*
X115393135Y-64509500D01*
X115390068Y-64509350D01*
X115390085Y-64508997D01*
X115383541Y-64508231D01*
X115383541Y-64508237D01*
X115371928Y-64507669D01*
X115360605Y-64504982D01*
X115349076Y-64506551D01*
X115349075Y-64506551D01*
X115335864Y-64508349D01*
X115318873Y-64509500D01*
X109500120Y-64509500D01*
X109431999Y-64489498D01*
X109391642Y-64441209D01*
X109389356Y-64442529D01*
X109385227Y-64435376D01*
X109382066Y-64427746D01*
X109356979Y-64395052D01*
X109294046Y-64313036D01*
X109294043Y-64313033D01*
X109289017Y-64306483D01*
X109167755Y-64213434D01*
X109026541Y-64154942D01*
X108875000Y-64134991D01*
X108723459Y-64154942D01*
X108582246Y-64213434D01*
X108460983Y-64306483D01*
X108367934Y-64427746D01*
X108309442Y-64568959D01*
X108289491Y-64720500D01*
X108309442Y-64872041D01*
X108367934Y-65013254D01*
X108411861Y-65070500D01*
X108455954Y-65127964D01*
X108455957Y-65127967D01*
X108460983Y-65134517D01*
X108467533Y-65139543D01*
X108467534Y-65139544D01*
X108538508Y-65194005D01*
X108582245Y-65227566D01*
X108723459Y-65286058D01*
X108875000Y-65306009D01*
X109026541Y-65286058D01*
X109167755Y-65227566D01*
X109211492Y-65194005D01*
X109282466Y-65139544D01*
X109282467Y-65139543D01*
X109289017Y-65134517D01*
X109300314Y-65119794D01*
X109357651Y-65077928D01*
X109400275Y-65070500D01*
X115178289Y-65070500D01*
X115246410Y-65090502D01*
X115267384Y-65107405D01*
X116867795Y-66707816D01*
X116901821Y-66770128D01*
X116900480Y-66826453D01*
X116899442Y-66828959D01*
X116879491Y-66980500D01*
X116899442Y-67132041D01*
X116902604Y-67139674D01*
X116902604Y-67139675D01*
X116929986Y-67205783D01*
X116937575Y-67276372D01*
X116905795Y-67339859D01*
X116844737Y-67376086D01*
X116813577Y-67380000D01*
X116462211Y-67380000D01*
X116394090Y-67359998D01*
X116373116Y-67343095D01*
X114755997Y-65725976D01*
X114754652Y-65724418D01*
X114752425Y-65719862D01*
X114719026Y-65688880D01*
X114715621Y-65685600D01*
X114703229Y-65673208D01*
X114699441Y-65670609D01*
X114697360Y-65668782D01*
X114684342Y-65656706D01*
X114675816Y-65648797D01*
X114665014Y-65644488D01*
X114659111Y-65640756D01*
X114654928Y-65638522D01*
X114648539Y-65635691D01*
X114638945Y-65629109D01*
X114627625Y-65626423D01*
X114627623Y-65626422D01*
X114617158Y-65623939D01*
X114599557Y-65618373D01*
X114578761Y-65610076D01*
X114572887Y-65609500D01*
X114569803Y-65609500D01*
X114566736Y-65609350D01*
X114566753Y-65608997D01*
X114560209Y-65608231D01*
X114560209Y-65608237D01*
X114548596Y-65607669D01*
X114537273Y-65604982D01*
X114525744Y-65606551D01*
X114525743Y-65606551D01*
X114512532Y-65608349D01*
X114495541Y-65609500D01*
X105743377Y-65609500D01*
X105675256Y-65589498D01*
X105654282Y-65572595D01*
X104282479Y-64200792D01*
X104248453Y-64138480D01*
X104246652Y-64095250D01*
X104259431Y-63998188D01*
X104260509Y-63990000D01*
X104240558Y-63838459D01*
X104182066Y-63697246D01*
X104129106Y-63628228D01*
X104094046Y-63582536D01*
X104094043Y-63582533D01*
X104089017Y-63575983D01*
X103967755Y-63482934D01*
X103826541Y-63424442D01*
X103675000Y-63404491D01*
X103523459Y-63424442D01*
X103382246Y-63482934D01*
X103260983Y-63575983D01*
X103255957Y-63582533D01*
X103181462Y-63679616D01*
X103124124Y-63721483D01*
X103053253Y-63725705D01*
X102991350Y-63690941D01*
X102958069Y-63628228D01*
X102955500Y-63602912D01*
X102955500Y-62428533D01*
X102955650Y-62426485D01*
X102957298Y-62421686D01*
X102955589Y-62376173D01*
X102955500Y-62371445D01*
X102955500Y-62353910D01*
X102954659Y-62349398D01*
X102954479Y-62346614D01*
X102953814Y-62328892D01*
X102953813Y-62328889D01*
X102953377Y-62317265D01*
X102948785Y-62306575D01*
X102947247Y-62299752D01*
X102945869Y-62295216D01*
X102943357Y-62288706D01*
X102941227Y-62277272D01*
X102929476Y-62258208D01*
X102920969Y-62241832D01*
X102915640Y-62229429D01*
X102912129Y-62221257D01*
X102908383Y-62216696D01*
X102906187Y-62214500D01*
X102904136Y-62212238D01*
X102904399Y-62211999D01*
X102900317Y-62206835D01*
X102900313Y-62206839D01*
X102892500Y-62198222D01*
X102886395Y-62188318D01*
X102866506Y-62173194D01*
X102853687Y-62162000D01*
X102392663Y-61700976D01*
X102391318Y-61699418D01*
X102389091Y-61694862D01*
X102355692Y-61663880D01*
X102352287Y-61660600D01*
X102339895Y-61648208D01*
X102336107Y-61645609D01*
X102334026Y-61643782D01*
X102321008Y-61631706D01*
X102312482Y-61623797D01*
X102301680Y-61619488D01*
X102295777Y-61615756D01*
X102291594Y-61613522D01*
X102285205Y-61610691D01*
X102275611Y-61604109D01*
X102264291Y-61601423D01*
X102264289Y-61601422D01*
X102253824Y-61598939D01*
X102236223Y-61593373D01*
X102215427Y-61585076D01*
X102209553Y-61584500D01*
X102206469Y-61584500D01*
X102203402Y-61584350D01*
X102203419Y-61583997D01*
X102196875Y-61583231D01*
X102196875Y-61583237D01*
X102185262Y-61582669D01*
X102173939Y-61579982D01*
X102162410Y-61581551D01*
X102162409Y-61581551D01*
X102149198Y-61583349D01*
X102132207Y-61584500D01*
X101968604Y-61584500D01*
X101900483Y-61564498D01*
X101868646Y-61535209D01*
X101804017Y-61450983D01*
X101738203Y-61400481D01*
X101689305Y-61362960D01*
X101682755Y-61357934D01*
X101541541Y-61299442D01*
X101390000Y-61279491D01*
X101238459Y-61299442D01*
X101097246Y-61357934D01*
X100975983Y-61450983D01*
X100882934Y-61572246D01*
X100824442Y-61713459D01*
X100804491Y-61865000D01*
X96976000Y-61865000D01*
X96976000Y-61015886D01*
X169515365Y-61015886D01*
X169515589Y-61020552D01*
X169515589Y-61020557D01*
X169517484Y-61060000D01*
X169527349Y-61265376D01*
X169576078Y-61510353D01*
X169660482Y-61745437D01*
X169778707Y-61965464D01*
X169928154Y-62165599D01*
X169931461Y-62168877D01*
X169931466Y-62168883D01*
X170063483Y-62299752D01*
X170105542Y-62341445D01*
X170109308Y-62344207D01*
X170109310Y-62344208D01*
X170115690Y-62348886D01*
X170306974Y-62489141D01*
X170311109Y-62491317D01*
X170311113Y-62491319D01*
X170419563Y-62548377D01*
X170528023Y-62605441D01*
X170763835Y-62687790D01*
X170768428Y-62688662D01*
X171004640Y-62733508D01*
X171004643Y-62733508D01*
X171009229Y-62734379D01*
X171127862Y-62739040D01*
X171254145Y-62744002D01*
X171254150Y-62744002D01*
X171258813Y-62744185D01*
X171346681Y-62734562D01*
X171502452Y-62717503D01*
X171502458Y-62717502D01*
X171507105Y-62716993D01*
X171511629Y-62715802D01*
X171744128Y-62654590D01*
X171744130Y-62654589D01*
X171748651Y-62653399D01*
X171856685Y-62606984D01*
X171973850Y-62556646D01*
X171973852Y-62556645D01*
X171978144Y-62554801D01*
X172190543Y-62423365D01*
X172368790Y-62272468D01*
X172377615Y-62264997D01*
X172377616Y-62264996D01*
X172381181Y-62261978D01*
X172451952Y-62181279D01*
X172542788Y-62077701D01*
X172542791Y-62077696D01*
X172545870Y-62074186D01*
X172613393Y-61969210D01*
X172678468Y-61868040D01*
X172678470Y-61868037D01*
X172680993Y-61864114D01*
X172783581Y-61636376D01*
X172851381Y-61395977D01*
X172856623Y-61354774D01*
X172882504Y-61151327D01*
X172882504Y-61151323D01*
X172882902Y-61148197D01*
X172885212Y-61060000D01*
X172866701Y-60810910D01*
X172811576Y-60567292D01*
X172721048Y-60334498D01*
X172597104Y-60117641D01*
X172442469Y-59921487D01*
X172260538Y-59750344D01*
X172055310Y-59607972D01*
X172051120Y-59605906D01*
X172051117Y-59605904D01*
X171835480Y-59499564D01*
X171835477Y-59499563D01*
X171831292Y-59497499D01*
X171787466Y-59483470D01*
X171684435Y-59450490D01*
X171593405Y-59421351D01*
X171588798Y-59420601D01*
X171588795Y-59420600D01*
X171351487Y-59381952D01*
X171351488Y-59381952D01*
X171346876Y-59381201D01*
X171225444Y-59379611D01*
X171101797Y-59377992D01*
X171101794Y-59377992D01*
X171097120Y-59377931D01*
X170849625Y-59411614D01*
X170609826Y-59481509D01*
X170605573Y-59483470D01*
X170605572Y-59483470D01*
X170559826Y-59504559D01*
X170382993Y-59586080D01*
X170379084Y-59588643D01*
X170178021Y-59720465D01*
X170178016Y-59720469D01*
X170174108Y-59723031D01*
X169987760Y-59889353D01*
X169828043Y-60081392D01*
X169698465Y-60294930D01*
X169601874Y-60525274D01*
X169540390Y-60767366D01*
X169515365Y-61015886D01*
X96976000Y-61015886D01*
X96976000Y-59994118D01*
X96976270Y-59985877D01*
X96980700Y-59918287D01*
X96986953Y-59822887D01*
X96986975Y-59822570D01*
X96993413Y-59732547D01*
X96995513Y-59716958D01*
X97023874Y-59574378D01*
X97024332Y-59572177D01*
X97040886Y-59496076D01*
X97047819Y-59464205D01*
X97051624Y-59450498D01*
X97097068Y-59316625D01*
X97098323Y-59313099D01*
X97138297Y-59205925D01*
X97143347Y-59194231D01*
X97205157Y-59068890D01*
X97207565Y-59064252D01*
X97236139Y-59011923D01*
X97263122Y-58962508D01*
X97268944Y-58952893D01*
X97346170Y-58837315D01*
X97350054Y-58831826D01*
X97419901Y-58738522D01*
X97426036Y-58730954D01*
X97517496Y-58626664D01*
X97523133Y-58620647D01*
X97605647Y-58538133D01*
X97611664Y-58532496D01*
X97715954Y-58441036D01*
X97723522Y-58434901D01*
X97750617Y-58414617D01*
X97816826Y-58365054D01*
X97822306Y-58361177D01*
X97862555Y-58334282D01*
X97937893Y-58283944D01*
X97947508Y-58278122D01*
X97996923Y-58251139D01*
X98049252Y-58222565D01*
X98053871Y-58220167D01*
X98111443Y-58191776D01*
X98179231Y-58158347D01*
X98190920Y-58153299D01*
X98298125Y-58113314D01*
X98301630Y-58112066D01*
X98435498Y-58066624D01*
X98449205Y-58062819D01*
X98485512Y-58054921D01*
X98557177Y-58039332D01*
X98559378Y-58038874D01*
X98701958Y-58010513D01*
X98717549Y-58008413D01*
X98736534Y-58007055D01*
X98804566Y-58002189D01*
X98813657Y-58001869D01*
X195588211Y-58098663D01*
G37*
G04 #@! TD.AperFunction*
M02*
