M48
; DRILL file {KiCad 6.0.11-2627ca5db0~126~ubuntu22.04.1} date Mon 10 Jun 2024 04:45:36 PM
; FORMAT={-:-/ absolute / metric / decimal}
; #@! TF.CreationDate,2024-06-10T16:45:36-04:00
; #@! TF.GenerationSoftware,Kicad,Pcbnew,6.0.11-2627ca5db0~126~ubuntu22.04.1
; #@! TF.FileFunction,Plated,1,2,PTH
FMAT,2
METRIC
; #@! TA.AperFunction,Plated,PTH,ViaDrill
T1C0.400
; #@! TA.AperFunction,Plated,PTH,ComponentDrill
T2C0.600
; #@! TA.AperFunction,Plated,PTH,ComponentDrill
T3C0.900
; #@! TA.AperFunction,Plated,PTH,ComponentDrill
T4C1.000
; #@! TA.AperFunction,Plated,PTH,ComponentDrill
T5C1.020
; #@! TA.AperFunction,Plated,PTH,ComponentDrill
T6C1.200
; #@! TA.AperFunction,Plated,PTH,ComponentDrill
T7C1.520
; #@! TA.AperFunction,Plated,PTH,ComponentDrill
T8C3.200
%
G90
G05
T1
X100.66Y-70.875
X101.385Y-59.7
X101.39Y-61.865
X101.395Y-62.9
X101.4Y-67.475
X103.675Y-63.99
X106.275Y-89.19
X107.7Y-61.6
X107.7Y-67.9
X107.85Y-86.45
X107.875Y-87.89
X108.875Y-64.721
X109.345Y-79.97
X109.375Y-75.88
X110.275Y-88.29
X110.655Y-83.38
X111.1Y-59.9
X112.375Y-80.09
X112.465Y-78.19
X113.115Y-74.29
X113.125Y-75.27
X113.125Y-76.28
X114.475Y-87.99
X116.5Y-70.2
X117.175Y-71.79
X117.305Y-86.76
X117.465Y-66.98
X117.684Y-79.4
X117.705Y-80.5
X117.8Y-70.2
X118.565Y-85.21
X118.985Y-66.99
X118.995Y-62.9
X119.035Y-79.42
X119.045Y-77.53
X119.685Y-83.36
X119.925Y-69.15
X121.065Y-77.51
X121.165Y-79.48
X121.425Y-68.4
X121.875Y-85.89
X122.1Y-70.7
X122.46Y-76.021
X122.525Y-79.43
X124.005Y-83.25
X124.4Y-61.3
X125.5Y-67.7
X125.5Y-69.0
X126.3Y-70.42
X127.425Y-77.9
X127.45Y-80.825
X127.455Y-78.94
X127.512Y-66.312
X128.3Y-67.8
X128.3Y-69.0
X128.3Y-75.191
X128.6Y-70.4
X128.795Y-77.195
X129.6Y-70.4
X129.945Y-87.12
X130.48Y-75.82
X130.5Y-61.2
X130.5Y-74.0
X130.675Y-81.95
X131.5Y-74.0
X133.0Y-86.6
X133.056Y-76.261
X133.707Y-75.529
X138.0Y-77.4
X141.3Y-88.1
X141.3Y-90.2
X141.4Y-86.1
X141.5Y-83.3
X143.322Y-79.5
X144.822Y-79.5
X145.1Y-87.4
X147.338Y-76.24
X147.338Y-77.78
X147.338Y-78.94
X147.65Y-59.85
X149.13Y-76.032
X149.609Y-78.04
X151.115Y-79.86
X152.225Y-80.3
X152.3Y-84.5
X152.32Y-77.235
X152.7Y-75.6
X155.0Y-85.1
X156.1Y-85.2
X156.857Y-77.792
X157.2Y-69.221
X157.625Y-84.8
X158.047Y-77.792
X158.2Y-72.6
X159.025Y-77.8
X160.2Y-77.8
X160.9Y-71.1
X162.203Y-73.497
X164.1Y-77.7
X164.2Y-79.3
X166.455Y-83.65
X169.1Y-69.5
X171.1Y-69.5
X172.2Y-81.3
X182.05Y-81.3
T3
X176.542Y-86.267
X180.542Y-86.267
X184.542Y-86.267
T4
X168.7Y-87.0
X168.7Y-89.54
X171.24Y-87.0
X171.24Y-89.54
T5
X163.855Y-67.52
X163.855Y-82.51
T6
X174.542Y-84.517
X174.542Y-90.517
X186.542Y-84.517
X186.542Y-90.517
T7
X171.2Y-61.06
X171.2Y-66.14
T8
X100.5Y-88.507
X193.5Y-75.007
T2
X100.54Y-75.0G85X99.74Y-75.0
G05
X100.54Y-83.64G85X99.74Y-83.64
G05
X104.89Y-75.0G85X103.79Y-75.0
G05
X104.89Y-83.64G85X103.79Y-83.64
G05
T0
M30
