G04 #@! TF.GenerationSoftware,KiCad,Pcbnew,6.0.11-2627ca5db0~126~ubuntu22.04.1*
G04 #@! TF.CreationDate,2024-06-10T16:45:34-04:00*
G04 #@! TF.ProjectId,board,626f6172-642e-46b6-9963-61645f706362,rev?*
G04 #@! TF.SameCoordinates,Original*
G04 #@! TF.FileFunction,Legend,Bot*
G04 #@! TF.FilePolarity,Positive*
%FSLAX46Y46*%
G04 Gerber Fmt 4.6, Leading zero omitted, Abs format (unit mm)*
G04 Created by KiCad (PCBNEW 6.0.11-2627ca5db0~126~ubuntu22.04.1) date 2024-06-10 16:45:34*
%MOMM*%
%LPD*%
G01*
G04 APERTURE LIST*
%ADD10C,0.150000*%
%ADD11C,0.120000*%
%ADD12R,3.000000X3.000000*%
%ADD13C,3.000000*%
%ADD14C,2.000000*%
%ADD15C,1.700000*%
%ADD16C,5.600000*%
%ADD17C,0.650000*%
%ADD18O,2.100000X1.000000*%
%ADD19O,1.800000X1.000000*%
%ADD20R,1.700000X1.700000*%
%ADD21O,1.700000X1.700000*%
%ADD22C,3.300000*%
%ADD23R,2.000000X2.000000*%
G04 APERTURE END LIST*
D10*
X164640714Y-57288571D02*
X164497857Y-57336190D01*
X164450238Y-57383809D01*
X164402619Y-57479047D01*
X164402619Y-57621904D01*
X164450238Y-57717142D01*
X164497857Y-57764761D01*
X164593095Y-57812380D01*
X164974047Y-57812380D01*
X164974047Y-56812380D01*
X164640714Y-56812380D01*
X164545476Y-56860000D01*
X164497857Y-56907619D01*
X164450238Y-57002857D01*
X164450238Y-57098095D01*
X164497857Y-57193333D01*
X164545476Y-57240952D01*
X164640714Y-57288571D01*
X164974047Y-57288571D01*
X164116904Y-56812380D02*
X163545476Y-56812380D01*
X163831190Y-57812380D02*
X163831190Y-56812380D01*
X162688333Y-57812380D02*
X163259761Y-57812380D01*
X162974047Y-57812380D02*
X162974047Y-56812380D01*
X163069285Y-56955238D01*
X163164523Y-57050476D01*
X163259761Y-57098095D01*
X168236428Y-82617142D02*
X167093571Y-82617142D01*
X164376428Y-65307142D02*
X163233571Y-65307142D01*
X163805000Y-65878571D02*
X163805000Y-64735714D01*
X168236428Y-67627142D02*
X167093571Y-67627142D01*
X167665000Y-68198571D02*
X167665000Y-67055714D01*
X151771428Y-82687142D02*
X150628571Y-82687142D01*
X148071428Y-67627142D02*
X146928571Y-67627142D01*
X147500000Y-68198571D02*
X147500000Y-67055714D01*
D11*
X127180000Y-83780000D02*
X128450000Y-83780000D01*
X127180000Y-64980000D02*
X127180000Y-66250000D01*
X114480000Y-59725000D02*
X114480000Y-62265000D01*
X166545000Y-58455000D02*
X166545000Y-91575000D01*
X146230000Y-66250000D02*
X144960000Y-66250000D01*
X128450000Y-83780000D02*
X128450000Y-85050000D01*
X144960000Y-68790000D02*
X146230000Y-68790000D01*
X128450000Y-85050000D02*
X146230000Y-85050000D01*
X165275000Y-90305000D02*
X158930000Y-90305000D01*
X158930000Y-62265000D02*
X158930000Y-59725000D01*
X146230000Y-90305000D02*
X127180000Y-90305000D01*
X106835000Y-91575000D02*
X106835000Y-58455000D01*
X114480000Y-90305000D02*
X114480000Y-87765000D01*
X146230000Y-87765000D02*
X146230000Y-90305000D01*
X127180000Y-62265000D02*
X127180000Y-59725000D01*
X146230000Y-79970000D02*
X128450000Y-79970000D01*
X127180000Y-59725000D02*
X146230000Y-59725000D01*
X144960000Y-70060000D02*
X144960000Y-68790000D01*
X108105000Y-90305000D02*
X114480000Y-90305000D01*
X165275000Y-74761000D02*
X108105000Y-74761000D01*
X146230000Y-59725000D02*
X146230000Y-62265000D01*
X158930000Y-87765000D02*
X146230000Y-87765000D01*
X128450000Y-79970000D02*
X128450000Y-81240000D01*
X127180000Y-81240000D02*
X127180000Y-83780000D01*
X127180000Y-66250000D02*
X127180000Y-70060000D01*
X128450000Y-81240000D02*
X127180000Y-81240000D01*
X108105000Y-75269000D02*
X165275000Y-75269000D01*
X114480000Y-87765000D02*
X127180000Y-87765000D01*
X146230000Y-85050000D02*
X146230000Y-79970000D01*
X146230000Y-68790000D02*
X146230000Y-66250000D01*
X144960000Y-64980000D02*
X127180000Y-64980000D01*
X127180000Y-70060000D02*
X144960000Y-70060000D01*
X158930000Y-62265000D02*
X146230000Y-62265000D01*
X166545000Y-91575000D02*
X106835000Y-91575000D01*
X158930000Y-90305000D02*
X158930000Y-87765000D01*
X127180000Y-90305000D02*
X127180000Y-87765000D01*
X144960000Y-66250000D02*
X144960000Y-64980000D01*
X106835000Y-58455000D02*
X166545000Y-58455000D01*
X108105000Y-59725000D02*
X108105000Y-90305000D01*
X165275000Y-59725000D02*
X165275000Y-90305000D01*
X158930000Y-59725000D02*
X165275000Y-59725000D01*
X114480000Y-62265000D02*
X127180000Y-62265000D01*
X108105000Y-59725000D02*
X114480000Y-59725000D01*
%LPC*%
D12*
X171200000Y-66140000D03*
D13*
X171200000Y-61060000D03*
D14*
X174542500Y-90517500D03*
X174542500Y-84517500D03*
X186542500Y-84517500D03*
X186542500Y-90517500D03*
D15*
X176542500Y-86267500D03*
X180542500Y-86267500D03*
X184542500Y-86267500D03*
D16*
X193500000Y-75007500D03*
X100500000Y-88507500D03*
D17*
X103820000Y-76430000D03*
X103820000Y-82210000D03*
D18*
X104340000Y-83640000D03*
D19*
X100140000Y-75000000D03*
D18*
X104340000Y-75000000D03*
D19*
X100140000Y-83640000D03*
D20*
X168700000Y-87000000D03*
D21*
X171240000Y-87000000D03*
X168700000Y-89540000D03*
X171240000Y-89540000D03*
D22*
X136690000Y-67520000D03*
X136690000Y-82510000D03*
D23*
X163855000Y-67520000D03*
D14*
X163855000Y-82510000D03*
M02*
