G04 #@! TF.GenerationSoftware,KiCad,Pcbnew,6.0.11-2627ca5db0~126~ubuntu22.04.1*
G04 #@! TF.CreationDate,2024-03-16T21:36:39-04:00*
G04 #@! TF.ProjectId,board,626f6172-642e-46b6-9963-61645f706362,rev?*
G04 #@! TF.SameCoordinates,Original*
G04 #@! TF.FileFunction,Soldermask,Top*
G04 #@! TF.FilePolarity,Negative*
%FSLAX46Y46*%
G04 Gerber Fmt 4.6, Leading zero omitted, Abs format (unit mm)*
G04 Created by KiCad (PCBNEW 6.0.11-2627ca5db0~126~ubuntu22.04.1) date 2024-03-16 21:36:39*
%MOMM*%
%LPD*%
G01*
G04 APERTURE LIST*
G04 Aperture macros list*
%AMRoundRect*
0 Rectangle with rounded corners*
0 $1 Rounding radius*
0 $2 $3 $4 $5 $6 $7 $8 $9 X,Y pos of 4 corners*
0 Add a 4 corners polygon primitive as box body*
4,1,4,$2,$3,$4,$5,$6,$7,$8,$9,$2,$3,0*
0 Add four circle primitives for the rounded corners*
1,1,$1+$1,$2,$3*
1,1,$1+$1,$4,$5*
1,1,$1+$1,$6,$7*
1,1,$1+$1,$8,$9*
0 Add four rect primitives between the rounded corners*
20,1,$1+$1,$2,$3,$4,$5,0*
20,1,$1+$1,$4,$5,$6,$7,0*
20,1,$1+$1,$6,$7,$8,$9,0*
20,1,$1+$1,$8,$9,$2,$3,0*%
%AMFreePoly0*
4,1,22,0.500000,-0.750000,0.000000,-0.750000,0.000000,-0.745033,-0.079941,-0.743568,-0.215256,-0.701293,-0.333266,-0.622738,-0.424486,-0.514219,-0.481581,-0.384460,-0.499164,-0.250000,-0.500000,-0.250000,-0.500000,0.250000,-0.499164,0.250000,-0.499963,0.256109,-0.478152,0.396186,-0.417904,0.524511,-0.324060,0.630769,-0.204165,0.706417,-0.067858,0.745374,0.000000,0.744959,0.000000,0.750000,
0.500000,0.750000,0.500000,-0.750000,0.500000,-0.750000,$1*%
%AMFreePoly1*
4,1,20,0.000000,0.744959,0.073905,0.744508,0.209726,0.703889,0.328688,0.626782,0.421226,0.519385,0.479903,0.390333,0.500000,0.250000,0.500000,-0.250000,0.499851,-0.262216,0.476331,-0.402017,0.414519,-0.529596,0.319384,-0.634700,0.198574,-0.708877,0.061801,-0.746166,0.000000,-0.745033,0.000000,-0.750000,-0.500000,-0.750000,-0.500000,0.750000,0.000000,0.750000,0.000000,0.744959,
0.000000,0.744959,$1*%
G04 Aperture macros list end*
%ADD10RoundRect,0.250000X0.250000X0.475000X-0.250000X0.475000X-0.250000X-0.475000X0.250000X-0.475000X0*%
%ADD11RoundRect,0.243750X-0.243750X-0.456250X0.243750X-0.456250X0.243750X0.456250X-0.243750X0.456250X0*%
%ADD12RoundRect,0.250000X-0.262500X-0.450000X0.262500X-0.450000X0.262500X0.450000X-0.262500X0.450000X0*%
%ADD13RoundRect,0.250000X-0.450000X0.262500X-0.450000X-0.262500X0.450000X-0.262500X0.450000X0.262500X0*%
%ADD14RoundRect,0.250000X0.450000X-0.262500X0.450000X0.262500X-0.450000X0.262500X-0.450000X-0.262500X0*%
%ADD15C,5.700000*%
%ADD16R,3.000000X3.000000*%
%ADD17C,3.000000*%
%ADD18C,3.300000*%
%ADD19R,2.000000X2.000000*%
%ADD20C,2.000000*%
%ADD21RoundRect,0.150000X-0.150000X0.587500X-0.150000X-0.587500X0.150000X-0.587500X0.150000X0.587500X0*%
%ADD22RoundRect,0.150000X-0.825000X-0.150000X0.825000X-0.150000X0.825000X0.150000X-0.825000X0.150000X0*%
%ADD23FreePoly0,0.000000*%
%ADD24FreePoly1,0.000000*%
%ADD25RoundRect,0.250000X0.262500X0.450000X-0.262500X0.450000X-0.262500X-0.450000X0.262500X-0.450000X0*%
%ADD26RoundRect,0.250000X-0.250000X-0.475000X0.250000X-0.475000X0.250000X0.475000X-0.250000X0.475000X0*%
%ADD27RoundRect,0.250000X2.500000X-0.250000X2.500000X0.250000X-2.500000X0.250000X-2.500000X-0.250000X0*%
%ADD28RoundRect,0.250000X1.250000X-0.550000X1.250000X0.550000X-1.250000X0.550000X-1.250000X-0.550000X0*%
%ADD29R,0.500000X0.250000*%
%ADD30R,0.900000X1.600000*%
%ADD31R,1.700000X1.700000*%
%ADD32O,1.700000X1.700000*%
%ADD33RoundRect,0.250000X0.475000X-0.250000X0.475000X0.250000X-0.475000X0.250000X-0.475000X-0.250000X0*%
%ADD34R,0.850000X1.100000*%
%ADD35R,0.750000X1.100000*%
%ADD36R,1.200000X1.000000*%
%ADD37R,1.550000X1.350000*%
%ADD38R,1.900000X1.350000*%
%ADD39R,1.170000X1.800000*%
%ADD40R,2.350000X3.500000*%
%ADD41O,1.500000X1.500000*%
%ADD42O,1.800000X1.800000*%
%ADD43R,3.500000X1.700000*%
%ADD44R,1.700000X3.500000*%
%ADD45R,0.700000X0.510000*%
%ADD46C,0.500000*%
%ADD47RoundRect,0.250000X-0.475000X0.250000X-0.475000X-0.250000X0.475000X-0.250000X0.475000X0.250000X0*%
%ADD48RoundRect,0.062500X-0.375000X-0.062500X0.375000X-0.062500X0.375000X0.062500X-0.375000X0.062500X0*%
%ADD49RoundRect,0.062500X-0.062500X-0.375000X0.062500X-0.375000X0.062500X0.375000X-0.062500X0.375000X0*%
%ADD50R,1.600000X1.600000*%
%ADD51C,1.700000*%
%ADD52C,4.000000*%
%ADD53C,2.200000*%
%ADD54C,1.524000*%
%ADD55O,2.900000X3.000000*%
G04 APERTURE END LIST*
D10*
X176195000Y-92745000D03*
X174295000Y-92745000D03*
D11*
X185667500Y-68345000D03*
X187542500Y-68345000D03*
D10*
X179775000Y-92795000D03*
X177875000Y-92795000D03*
D12*
X106147500Y-67510000D03*
X107972500Y-67510000D03*
D13*
X120190000Y-78637500D03*
X120190000Y-80462500D03*
D12*
X176272500Y-79455000D03*
X178097500Y-79455000D03*
D14*
X177895000Y-69027500D03*
X177895000Y-67202500D03*
D15*
X106000000Y-47000000D03*
D14*
X189615000Y-66077500D03*
X189615000Y-64252500D03*
D16*
X178675000Y-134745000D03*
D17*
X183755000Y-134745000D03*
D14*
X186375000Y-83487500D03*
X186375000Y-81662500D03*
D18*
X164225000Y-105780000D03*
X164225000Y-120770000D03*
D19*
X191390000Y-120770000D03*
D20*
X191390000Y-105780000D03*
D21*
X189225000Y-59627500D03*
X187325000Y-59627500D03*
X188275000Y-61502500D03*
D22*
X106085000Y-93225000D03*
X106085000Y-94495000D03*
X106085000Y-95765000D03*
X106085000Y-97035000D03*
X106085000Y-98305000D03*
X106085000Y-99575000D03*
X106085000Y-100845000D03*
X106085000Y-102115000D03*
X111035000Y-102115000D03*
X111035000Y-100845000D03*
X111035000Y-99575000D03*
X111035000Y-98305000D03*
X111035000Y-97035000D03*
X111035000Y-95765000D03*
X111035000Y-94495000D03*
X111035000Y-93225000D03*
D23*
X172725000Y-74455000D03*
D24*
X174025000Y-74455000D03*
D10*
X183905000Y-85365000D03*
X182005000Y-85365000D03*
D25*
X190237500Y-55495000D03*
X188412500Y-55495000D03*
D13*
X114110000Y-78637500D03*
X114110000Y-80462500D03*
D12*
X140592500Y-65695000D03*
X142417500Y-65695000D03*
X174487500Y-57300000D03*
X176312500Y-57300000D03*
D26*
X188395000Y-53400000D03*
X190295000Y-53400000D03*
D27*
X139225000Y-88345000D03*
X139225000Y-86345000D03*
X139225000Y-84345000D03*
X139225000Y-82345000D03*
X139225000Y-80345000D03*
X139225000Y-78345000D03*
D28*
X136975000Y-90745000D03*
X136975000Y-75945000D03*
D15*
X191000000Y-47000000D03*
D12*
X106037500Y-72290000D03*
X107862500Y-72290000D03*
X140612500Y-68225000D03*
X142437500Y-68225000D03*
D26*
X181705000Y-92805000D03*
X183605000Y-92805000D03*
D29*
X182015000Y-66045000D03*
X182015000Y-66545000D03*
X182015000Y-67045000D03*
X182015000Y-67545000D03*
X183915000Y-67545000D03*
X183915000Y-67045000D03*
X183915000Y-66545000D03*
X183915000Y-66045000D03*
D30*
X182965000Y-66795000D03*
D14*
X179875000Y-69027500D03*
X179875000Y-67202500D03*
D31*
X181350000Y-60635000D03*
D32*
X183890000Y-60635000D03*
D12*
X140532500Y-60635000D03*
X142357500Y-60635000D03*
D15*
X127000000Y-47000000D03*
D33*
X175855000Y-89845000D03*
X175855000Y-87945000D03*
D34*
X177360000Y-44175000D03*
X178460000Y-44175000D03*
X179560000Y-44175000D03*
X180660000Y-44175000D03*
X181760000Y-44175000D03*
X182860000Y-44175000D03*
X183960000Y-44175000D03*
D35*
X185010000Y-44175000D03*
D36*
X174725000Y-50325000D03*
X174725000Y-54025000D03*
D37*
X174900000Y-44300000D03*
D38*
X178225000Y-55000000D03*
D39*
X186220000Y-44525000D03*
D38*
X184195000Y-55000000D03*
D12*
X125537500Y-99375000D03*
X127362500Y-99375000D03*
X106037500Y-69880000D03*
X107862500Y-69880000D03*
D31*
X184510000Y-89540000D03*
D32*
X187050000Y-89540000D03*
D10*
X187245000Y-92795000D03*
X185345000Y-92795000D03*
D40*
X183250000Y-74585000D03*
X177200000Y-74585000D03*
D31*
X136725000Y-64855000D03*
D32*
X136725000Y-62315000D03*
X136725000Y-59775000D03*
X136725000Y-57235000D03*
X136725000Y-54695000D03*
X136725000Y-52155000D03*
D41*
X154820000Y-48540000D03*
D42*
X159970000Y-45510000D03*
D41*
X159670000Y-48540000D03*
D42*
X154520000Y-45510000D03*
D43*
X147455000Y-45380000D03*
D32*
X148355000Y-45380000D03*
D43*
X147455000Y-47920000D03*
D32*
X148355000Y-47920000D03*
D43*
X147455000Y-50460000D03*
D31*
X148355000Y-50460000D03*
D43*
X147455000Y-53000000D03*
D32*
X148355000Y-53000000D03*
X148355000Y-55540000D03*
D43*
X147455000Y-55540000D03*
X147455000Y-58080000D03*
D32*
X148355000Y-58080000D03*
X148355000Y-60620000D03*
D43*
X147455000Y-60620000D03*
D31*
X148355000Y-63160000D03*
D43*
X147455000Y-63160000D03*
X147455000Y-65700000D03*
D32*
X148355000Y-65700000D03*
D43*
X147455000Y-68240000D03*
D32*
X148355000Y-68240000D03*
X148355000Y-70780000D03*
D43*
X147455000Y-70780000D03*
D32*
X148355000Y-73320000D03*
D43*
X147455000Y-73320000D03*
D31*
X148355000Y-75860000D03*
D43*
X147455000Y-75860000D03*
X147455000Y-78400000D03*
D32*
X148355000Y-78400000D03*
D43*
X147455000Y-80940000D03*
D32*
X148355000Y-80940000D03*
X148355000Y-83480000D03*
D43*
X147455000Y-83480000D03*
D32*
X148355000Y-86020000D03*
D43*
X147455000Y-86020000D03*
X147455000Y-88560000D03*
D31*
X148355000Y-88560000D03*
D43*
X147455000Y-91100000D03*
D32*
X148355000Y-91100000D03*
X148355000Y-93640000D03*
D43*
X147455000Y-93640000D03*
X167035000Y-93640000D03*
D32*
X166135000Y-93640000D03*
D43*
X167035000Y-91100000D03*
D32*
X166135000Y-91100000D03*
D43*
X167035000Y-88560000D03*
D31*
X166135000Y-88560000D03*
D43*
X167035000Y-86020000D03*
D32*
X166135000Y-86020000D03*
D43*
X167035000Y-83480000D03*
D32*
X166135000Y-83480000D03*
X166135000Y-80940000D03*
D43*
X167035000Y-80940000D03*
X167035000Y-78400000D03*
D32*
X166135000Y-78400000D03*
D31*
X166135000Y-75860000D03*
D43*
X167035000Y-75860000D03*
X167035000Y-73320000D03*
D32*
X166135000Y-73320000D03*
D43*
X167035000Y-70780000D03*
D32*
X166135000Y-70780000D03*
X166135000Y-68240000D03*
D43*
X167035000Y-68240000D03*
D32*
X166135000Y-65700000D03*
D43*
X167035000Y-65700000D03*
X167035000Y-63160000D03*
D31*
X166135000Y-63160000D03*
D32*
X166135000Y-60620000D03*
D43*
X167035000Y-60620000D03*
X167035000Y-58080000D03*
D32*
X166135000Y-58080000D03*
X166135000Y-55540000D03*
D43*
X167035000Y-55540000D03*
X167035000Y-53000000D03*
D32*
X166135000Y-53000000D03*
D31*
X166135000Y-50460000D03*
D43*
X167035000Y-50460000D03*
D32*
X166135000Y-47920000D03*
D43*
X167035000Y-47920000D03*
X167035000Y-45380000D03*
D32*
X166135000Y-45380000D03*
X154705000Y-93410000D03*
D44*
X154705000Y-94310000D03*
X157245000Y-94310000D03*
D31*
X157245000Y-93410000D03*
D44*
X159785000Y-94310000D03*
D32*
X159785000Y-93410000D03*
D12*
X140542500Y-58035000D03*
X142367500Y-58035000D03*
D15*
X127000000Y-136000000D03*
D45*
X181095000Y-81535000D03*
X181095000Y-82485000D03*
X181095000Y-83435000D03*
X183415000Y-83435000D03*
X183415000Y-82485000D03*
X183415000Y-81535000D03*
D46*
X131250000Y-90000000D03*
X131250000Y-90750000D03*
X131250000Y-89250000D03*
X132750000Y-90000000D03*
X132750000Y-90750000D03*
X132750000Y-89250000D03*
D15*
X106000000Y-136000000D03*
D13*
X117050000Y-78717500D03*
X117050000Y-80542500D03*
D15*
X137000000Y-47000000D03*
D46*
X132750000Y-53750000D03*
X132750000Y-52250000D03*
X131250000Y-53000000D03*
X131250000Y-52250000D03*
X131250000Y-53750000D03*
X132750000Y-53000000D03*
D10*
X184145000Y-79455000D03*
X182245000Y-79455000D03*
D12*
X125597500Y-94970000D03*
X127422500Y-94970000D03*
D47*
X113880000Y-103710000D03*
X113880000Y-105610000D03*
D12*
X185552500Y-85345000D03*
X187377500Y-85345000D03*
D46*
X132750000Y-130750000D03*
X131250000Y-130000000D03*
X131250000Y-130750000D03*
X132750000Y-129250000D03*
X131250000Y-129250000D03*
X132750000Y-130000000D03*
D26*
X180205000Y-64455000D03*
X182105000Y-64455000D03*
D22*
X105905000Y-105420000D03*
X105905000Y-106690000D03*
X105905000Y-107960000D03*
X105905000Y-109230000D03*
X105905000Y-110500000D03*
X105905000Y-111770000D03*
X105905000Y-113040000D03*
X110855000Y-113040000D03*
X110855000Y-111770000D03*
X110855000Y-110500000D03*
X110855000Y-109230000D03*
X110855000Y-107960000D03*
X110855000Y-106690000D03*
X110855000Y-105420000D03*
D12*
X185682500Y-70385000D03*
X187507500Y-70385000D03*
D31*
X177495000Y-60715000D03*
D32*
X174955000Y-60715000D03*
D33*
X113450000Y-92980000D03*
X113450000Y-91080000D03*
D12*
X125567500Y-101540000D03*
X127392500Y-101540000D03*
D26*
X188385000Y-51200000D03*
X190285000Y-51200000D03*
D10*
X185725000Y-64435000D03*
X183825000Y-64435000D03*
D27*
X108730000Y-88240000D03*
X108730000Y-86240000D03*
X108730000Y-84240000D03*
X108730000Y-82240000D03*
X108730000Y-80240000D03*
X108730000Y-78240000D03*
D28*
X106480000Y-90640000D03*
X106480000Y-75840000D03*
D14*
X187605000Y-66077500D03*
X187605000Y-64252500D03*
D33*
X173815000Y-89865000D03*
X173815000Y-87965000D03*
D15*
X136965000Y-136000000D03*
D48*
X177767500Y-88235000D03*
X177767500Y-88735000D03*
X177767500Y-89235000D03*
X177767500Y-89735000D03*
D49*
X178455000Y-90422500D03*
X178955000Y-90422500D03*
X179455000Y-90422500D03*
X179955000Y-90422500D03*
D48*
X180642500Y-89735000D03*
X180642500Y-89235000D03*
X180642500Y-88735000D03*
X180642500Y-88235000D03*
D49*
X179955000Y-87547500D03*
X179455000Y-87547500D03*
X178955000Y-87547500D03*
X178455000Y-87547500D03*
D50*
X179205000Y-88985000D03*
D15*
X191000000Y-136000000D03*
D12*
X125537500Y-97280000D03*
X127362500Y-97280000D03*
D51*
X116950000Y-103450000D03*
X116950000Y-113610000D03*
D52*
X116950000Y-108530000D03*
D53*
X122030000Y-105990000D03*
X119490000Y-112340000D03*
D51*
X116930000Y-84230000D03*
D52*
X116930000Y-89310000D03*
D51*
X116930000Y-94390000D03*
D53*
X122010000Y-86770000D03*
X119470000Y-93120000D03*
D51*
X116950000Y-132830000D03*
X116950000Y-122670000D03*
D52*
X116950000Y-127750000D03*
D53*
X122030000Y-125210000D03*
X119490000Y-131560000D03*
D51*
X116930000Y-65010000D03*
D52*
X116930000Y-70090000D03*
D51*
X116930000Y-75170000D03*
D53*
X122010000Y-67550000D03*
X119470000Y-73900000D03*
D54*
X114360000Y-44780000D03*
X119360000Y-44780000D03*
X116860000Y-44780000D03*
X114360000Y-59280000D03*
X119360000Y-59280000D03*
D55*
X123460000Y-52280000D03*
X110260000Y-52280000D03*
M02*
