M48
; DRILL file {KiCad 6.0.11-2627ca5db0~126~ubuntu22.04.1} date Sat 16 Mar 2024 09:37:07 PM
; FORMAT={-:-/ absolute / metric / decimal}
; #@! TF.CreationDate,2024-03-16T21:37:07-04:00
; #@! TF.GenerationSoftware,Kicad,Pcbnew,6.0.11-2627ca5db0~126~ubuntu22.04.1
; #@! TF.FileFunction,Plated,1,2,PTH
FMAT,2
METRIC
; #@! TA.AperFunction,Plated,PTH,ViaDrill
T1C0.400
; #@! TA.AperFunction,Plated,PTH,ComponentDrill
T2C1.000
; #@! TA.AperFunction,Plated,PTH,ComponentDrill
T3C1.020
; #@! TA.AperFunction,Plated,PTH,ComponentDrill
T4C1.500
; #@! TA.AperFunction,Plated,PTH,ComponentDrill
T5C1.520
; #@! TA.AperFunction,Plated,PTH,ComponentDrill
T6C2.100
; #@! TA.AperFunction,Plated,PTH,ComponentDrill
T7C3.200
%
G90
G05
T1
X104.81Y-104.3
X104.924Y-74.04
X106.06Y-103.05
X106.36Y-114.3
X107.73Y-107.02
X107.75Y-96.99
X108.08Y-94.53
X108.564Y-104.18
X109.06Y-90.73
X109.18Y-111.73
X109.2Y-108.69
X109.3Y-100.89
X109.56Y-69.94
X111.1Y-103.46
X112.32Y-88.45
X112.57Y-81.13
X112.64Y-97.11
X113.405Y-95.765
X113.76Y-99.91
X114.13Y-78.751
X114.13Y-113.37
X114.15Y-117.55
X115.64Y-105.3
X116.21Y-85.98
X116.7Y-81.9
X118.424Y-86.883
X119.08Y-102.06
X120.56Y-84.75
X120.89Y-96.46
X120.89Y-101.08
X121.78Y-80.41
X122.2Y-48.89
X122.37Y-92.61
X122.78Y-100.65
X122.95Y-112.53
X123.11Y-103.95
X123.85Y-97.2
X124.05Y-115.26
X125.59Y-93.25
X126.87Y-93.25
X127.43Y-103.15
X143.535Y-88.855
X151.325Y-55.985
X169.295Y-55.645
X170.955Y-62.935
X170.955Y-64.215
X171.07Y-73.32
X173.825Y-86.645
X174.245Y-94.095
X174.45Y-55.54
X175.375Y-45.895
X175.845Y-86.695
X176.355Y-54.915
X176.465Y-68.995
X176.585Y-50.245
X178.425Y-45.545
X178.6Y-85.35
X179.175Y-88.965
X179.635Y-94.215
X179.885Y-82.455
X180.535Y-47.455
X180.535Y-50.975
X180.535Y-52.155
X180.765Y-85.405
X181.025Y-79.825
X181.035Y-78.805
X181.275Y-69.185
X181.542Y-46.072
X181.705Y-94.255
X181.745Y-87.285
X181.995Y-68.525
X182.09Y-89.04
X182.095Y-90.145
X182.255Y-81.515
X182.275Y-82.625
X182.275Y-83.475
X182.905Y-86.635
X182.945Y-67.225
X182.955Y-45.475
X182.955Y-66.395
X183.875Y-46.575
X184.235Y-56.265
X185.575Y-49.165
X185.965Y-80.325
X186.185Y-46.195
X186.765Y-80.325
X187.245Y-91.375
X187.335Y-86.715
X187.415Y-49.165
X189.15Y-71.41
X189.675Y-63.005
X190.805Y-60.065
X191.495Y-52.905
X191.535Y-50.965
T2
X114.36Y-44.78
X114.36Y-59.28
X116.86Y-44.78
X119.36Y-44.78
X119.36Y-59.28
X136.725Y-52.155
X136.725Y-54.695
X136.725Y-57.235
X136.725Y-59.775
X136.725Y-62.315
X136.725Y-64.855
X174.955Y-60.715
X177.495Y-60.715
X181.35Y-60.635
X183.89Y-60.635
X184.51Y-89.54
X187.05Y-89.54
T3
X148.355Y-45.38
X148.355Y-47.92
X148.355Y-50.46
X148.355Y-53.0
X148.355Y-55.54
X148.355Y-58.08
X148.355Y-60.62
X148.355Y-63.16
X148.355Y-65.7
X148.355Y-68.24
X148.355Y-70.78
X148.355Y-73.32
X148.355Y-75.86
X148.355Y-78.4
X148.355Y-80.94
X148.355Y-83.48
X148.355Y-86.02
X148.355Y-88.56
X148.355Y-91.1
X148.355Y-93.64
X154.705Y-93.41
X157.245Y-93.41
X159.785Y-93.41
X166.135Y-45.38
X166.135Y-47.92
X166.135Y-50.46
X166.135Y-53.0
X166.135Y-55.54
X166.135Y-58.08
X166.135Y-60.62
X166.135Y-63.16
X166.135Y-65.7
X166.135Y-68.24
X166.135Y-70.78
X166.135Y-73.32
X166.135Y-75.86
X166.135Y-78.4
X166.135Y-80.94
X166.135Y-83.48
X166.135Y-86.02
X166.135Y-88.56
X166.135Y-91.1
X166.135Y-93.64
X191.39Y-105.78
X191.39Y-120.77
T4
X119.47Y-73.9
X119.47Y-93.12
X119.49Y-112.34
X119.49Y-131.56
X122.01Y-67.55
X122.01Y-86.77
X122.03Y-105.99
X122.03Y-125.21
T5
X178.675Y-134.745
X183.755Y-134.745
T7
X106.0Y-47.0
X106.0Y-136.0
X127.0Y-47.0
X127.0Y-136.0
X136.965Y-136.0
X137.0Y-47.0
X191.0Y-47.0
X191.0Y-136.0
T6
X110.26Y-52.23G85X110.26Y-52.33
G05
X123.46Y-52.23G85X123.46Y-52.33
G05
T0
M30
