G04 #@! TF.GenerationSoftware,KiCad,Pcbnew,6.0.11-2627ca5db0~126~ubuntu22.04.1*
G04 #@! TF.CreationDate,2024-03-16T21:36:39-04:00*
G04 #@! TF.ProjectId,board,626f6172-642e-46b6-9963-61645f706362,rev?*
G04 #@! TF.SameCoordinates,Original*
G04 #@! TF.FileFunction,Profile,NP*
%FSLAX46Y46*%
G04 Gerber Fmt 4.6, Leading zero omitted, Abs format (unit mm)*
G04 Created by KiCad (PCBNEW 6.0.11-2627ca5db0~126~ubuntu22.04.1) date 2024-03-16 21:36:39*
%MOMM*%
%LPD*%
G01*
G04 APERTURE LIST*
G04 #@! TA.AperFunction,Profile*
%ADD10C,0.100000*%
G04 #@! TD*
G04 APERTURE END LIST*
D10*
X102000000Y-136000000D02*
X102000000Y-47000000D01*
X131000000Y-136000000D02*
X131000000Y-132000000D01*
X195000000Y-136000000D02*
X195000000Y-47000000D01*
X131000000Y-88000000D02*
G75*
G03*
X133000000Y-88000000I1000000J0D01*
G01*
X137000000Y-43000000D02*
G75*
G03*
X133000000Y-47000000I0J-4000000D01*
G01*
X133000000Y-55000000D02*
X133000000Y-88000000D01*
X133000000Y-55000000D02*
G75*
G03*
X131000000Y-55000000I-1000000J0D01*
G01*
X191200002Y-140000035D02*
G75*
G03*
X195000000Y-136000000I-205302J4000035D01*
G01*
X106000000Y-43000000D02*
G75*
G03*
X102000000Y-47000000I0J-4000000D01*
G01*
X191000000Y-43000000D02*
X137000000Y-43000000D01*
X102000000Y-136000000D02*
G75*
G03*
X106000000Y-140000000I4000000J0D01*
G01*
X131000000Y-47000000D02*
X131000000Y-51000000D01*
X133000000Y-92000000D02*
G75*
G03*
X131000000Y-92000000I-1000000J0D01*
G01*
X127000000Y-140000000D02*
X106000000Y-140000000D01*
X131000000Y-92000000D02*
X131000000Y-128000000D01*
X133000000Y-136000000D02*
X133000000Y-132000000D01*
X133000000Y-132000000D02*
G75*
G03*
X131000000Y-132000000I-1000000J0D01*
G01*
X131000000Y-51000000D02*
G75*
G03*
X133000000Y-51000000I1000000J0D01*
G01*
X133000000Y-92000000D02*
X133000000Y-128000000D01*
X133000000Y-47000000D02*
X133000000Y-51000000D01*
X106000000Y-43000000D02*
X127000000Y-43000000D01*
X133000000Y-136000000D02*
G75*
G03*
X137000000Y-140000000I4000000J0D01*
G01*
X131000000Y-88000000D02*
X131000000Y-55000000D01*
X127000000Y-140000000D02*
G75*
G03*
X131000000Y-136000000I0J4000000D01*
G01*
X131000000Y-128000000D02*
G75*
G03*
X133000000Y-128000000I1000000J0D01*
G01*
X137000000Y-140000000D02*
X191200000Y-140000000D01*
X131000000Y-47000000D02*
G75*
G03*
X127000000Y-43000000I-4000000J0D01*
G01*
X195000000Y-47000000D02*
G75*
G03*
X191000000Y-43000000I-4000000J0D01*
G01*
M02*
