G04 #@! TF.GenerationSoftware,KiCad,Pcbnew,6.0.11-2627ca5db0~126~ubuntu22.04.1*
G04 #@! TF.CreationDate,2024-03-16T21:36:39-04:00*
G04 #@! TF.ProjectId,board,626f6172-642e-46b6-9963-61645f706362,rev?*
G04 #@! TF.SameCoordinates,Original*
G04 #@! TF.FileFunction,Legend,Bot*
G04 #@! TF.FilePolarity,Positive*
%FSLAX46Y46*%
G04 Gerber Fmt 4.6, Leading zero omitted, Abs format (unit mm)*
G04 Created by KiCad (PCBNEW 6.0.11-2627ca5db0~126~ubuntu22.04.1) date 2024-03-16 21:36:39*
%MOMM*%
%LPD*%
G01*
G04 APERTURE LIST*
%ADD10C,0.150000*%
%ADD11C,0.300000*%
%ADD12C,0.500000*%
%ADD13C,0.120000*%
%ADD14C,5.700000*%
%ADD15R,3.000000X3.000000*%
%ADD16C,3.000000*%
%ADD17C,3.300000*%
%ADD18R,2.000000X2.000000*%
%ADD19C,2.000000*%
%ADD20R,1.700000X1.700000*%
%ADD21O,1.700000X1.700000*%
%ADD22O,1.500000X1.500000*%
%ADD23O,1.800000X1.800000*%
%ADD24C,0.500000*%
%ADD25C,1.700000*%
%ADD26C,4.000000*%
%ADD27C,2.200000*%
%ADD28C,1.524000*%
%ADD29O,2.900000X3.000000*%
G04 APERTURE END LIST*
D10*
X134200000Y-96700000D02*
X194300000Y-96700000D01*
X194300000Y-96700000D02*
X194300000Y-129800000D01*
X194300000Y-129800000D02*
X134200000Y-129800000D01*
X134200000Y-129800000D02*
X134200000Y-96700000D01*
D11*
X128117857Y-108192857D02*
X128189285Y-108407142D01*
X128260714Y-108478571D01*
X128403571Y-108550000D01*
X128617857Y-108550000D01*
X128760714Y-108478571D01*
X128832142Y-108407142D01*
X128903571Y-108264285D01*
X128903571Y-107692857D01*
X127403571Y-107692857D01*
X127403571Y-108192857D01*
X127475000Y-108335714D01*
X127546428Y-108407142D01*
X127689285Y-108478571D01*
X127832142Y-108478571D01*
X127975000Y-108407142D01*
X128046428Y-108335714D01*
X128117857Y-108192857D01*
X128117857Y-107692857D01*
X127546428Y-109121428D02*
X127475000Y-109192857D01*
X127403571Y-109335714D01*
X127403571Y-109692857D01*
X127475000Y-109835714D01*
X127546428Y-109907142D01*
X127689285Y-109978571D01*
X127832142Y-109978571D01*
X128046428Y-109907142D01*
X128903571Y-109050000D01*
X128903571Y-109978571D01*
X128267857Y-88642857D02*
X128339285Y-88857142D01*
X128410714Y-88928571D01*
X128553571Y-89000000D01*
X128767857Y-89000000D01*
X128910714Y-88928571D01*
X128982142Y-88857142D01*
X129053571Y-88714285D01*
X129053571Y-88142857D01*
X127553571Y-88142857D01*
X127553571Y-88642857D01*
X127625000Y-88785714D01*
X127696428Y-88857142D01*
X127839285Y-88928571D01*
X127982142Y-88928571D01*
X128125000Y-88857142D01*
X128196428Y-88785714D01*
X128267857Y-88642857D01*
X128267857Y-88142857D01*
X129053571Y-90428571D02*
X129053571Y-89571428D01*
X129053571Y-90000000D02*
X127553571Y-90000000D01*
X127767857Y-89857142D01*
X127910714Y-89714285D01*
X127982142Y-89571428D01*
X127338571Y-50918571D02*
X128838571Y-51418571D01*
X127338571Y-51918571D01*
X127338571Y-52704285D02*
X127338571Y-52990000D01*
X127410000Y-53132857D01*
X127552857Y-53275714D01*
X127838571Y-53347142D01*
X128338571Y-53347142D01*
X128624285Y-53275714D01*
X128767142Y-53132857D01*
X128838571Y-52990000D01*
X128838571Y-52704285D01*
X128767142Y-52561428D01*
X128624285Y-52418571D01*
X128338571Y-52347142D01*
X127838571Y-52347142D01*
X127552857Y-52418571D01*
X127410000Y-52561428D01*
X127338571Y-52704285D01*
X128838571Y-54704285D02*
X128838571Y-53990000D01*
X127338571Y-53990000D01*
X127267142Y-56275714D02*
X129195714Y-54990000D01*
X128838571Y-56775714D02*
X127338571Y-56775714D01*
X128410000Y-57275714D01*
X127338571Y-57775714D01*
X128838571Y-57775714D01*
X127338571Y-58490000D02*
X128552857Y-58490000D01*
X128695714Y-58561428D01*
X128767142Y-58632857D01*
X128838571Y-58775714D01*
X128838571Y-59061428D01*
X128767142Y-59204285D01*
X128695714Y-59275714D01*
X128552857Y-59347142D01*
X127338571Y-59347142D01*
X127338571Y-59847142D02*
X127338571Y-60704285D01*
X128838571Y-60275714D02*
X127338571Y-60275714D01*
X128052857Y-61204285D02*
X128052857Y-61704285D01*
X128838571Y-61918571D02*
X128838571Y-61204285D01*
X127338571Y-61204285D01*
X127338571Y-61918571D01*
X178685238Y-112337142D02*
X178499523Y-112408571D01*
X178190000Y-112408571D01*
X178066190Y-112337142D01*
X178004285Y-112265714D01*
X177942380Y-112122857D01*
X177942380Y-111980000D01*
X178004285Y-111837142D01*
X178066190Y-111765714D01*
X178190000Y-111694285D01*
X178437619Y-111622857D01*
X178561428Y-111551428D01*
X178623333Y-111480000D01*
X178685238Y-111337142D01*
X178685238Y-111194285D01*
X178623333Y-111051428D01*
X178561428Y-110980000D01*
X178437619Y-110908571D01*
X178128095Y-110908571D01*
X177942380Y-110980000D01*
X177385238Y-112408571D02*
X177385238Y-110908571D01*
X177075714Y-110908571D01*
X176890000Y-110980000D01*
X176766190Y-111122857D01*
X176704285Y-111265714D01*
X176642380Y-111551428D01*
X176642380Y-111765714D01*
X176704285Y-112051428D01*
X176766190Y-112194285D01*
X176890000Y-112337142D01*
X177075714Y-112408571D01*
X177385238Y-112408571D01*
X175094761Y-111837142D02*
X174104285Y-111837142D01*
X172494761Y-112408571D02*
X172494761Y-110908571D01*
X172061428Y-111980000D01*
X171628095Y-110908571D01*
X171628095Y-112408571D01*
X171009047Y-112408571D02*
X171009047Y-110908571D01*
X170451904Y-112337142D02*
X170266190Y-112408571D01*
X169956666Y-112408571D01*
X169832857Y-112337142D01*
X169770952Y-112265714D01*
X169709047Y-112122857D01*
X169709047Y-111980000D01*
X169770952Y-111837142D01*
X169832857Y-111765714D01*
X169956666Y-111694285D01*
X170204285Y-111622857D01*
X170328095Y-111551428D01*
X170390000Y-111480000D01*
X170451904Y-111337142D01*
X170451904Y-111194285D01*
X170390000Y-111051428D01*
X170328095Y-110980000D01*
X170204285Y-110908571D01*
X169894761Y-110908571D01*
X169709047Y-110980000D01*
X168904285Y-110908571D02*
X168656666Y-110908571D01*
X168532857Y-110980000D01*
X168409047Y-111122857D01*
X168347142Y-111408571D01*
X168347142Y-111908571D01*
X168409047Y-112194285D01*
X168532857Y-112337142D01*
X168656666Y-112408571D01*
X168904285Y-112408571D01*
X169028095Y-112337142D01*
X169151904Y-112194285D01*
X169213809Y-111908571D01*
X169213809Y-111408571D01*
X169151904Y-111122857D01*
X169028095Y-110980000D01*
X168904285Y-110908571D01*
X167790000Y-112265714D02*
X167728095Y-112337142D01*
X167790000Y-112408571D01*
X167851904Y-112337142D01*
X167790000Y-112265714D01*
X167790000Y-112408571D01*
X167790000Y-111480000D02*
X167728095Y-111551428D01*
X167790000Y-111622857D01*
X167851904Y-111551428D01*
X167790000Y-111480000D01*
X167790000Y-111622857D01*
X165623333Y-110908571D02*
X165870952Y-110908571D01*
X165994761Y-110980000D01*
X166056666Y-111051428D01*
X166180476Y-111265714D01*
X166242380Y-111551428D01*
X166242380Y-112122857D01*
X166180476Y-112265714D01*
X166118571Y-112337142D01*
X165994761Y-112408571D01*
X165747142Y-112408571D01*
X165623333Y-112337142D01*
X165561428Y-112265714D01*
X165499523Y-112122857D01*
X165499523Y-111765714D01*
X165561428Y-111622857D01*
X165623333Y-111551428D01*
X165747142Y-111480000D01*
X165994761Y-111480000D01*
X166118571Y-111551428D01*
X166180476Y-111622857D01*
X166242380Y-111765714D01*
X164880476Y-112337142D02*
X164880476Y-112408571D01*
X164942380Y-112551428D01*
X165004285Y-112622857D01*
X162590000Y-112265714D02*
X162651904Y-112337142D01*
X162837619Y-112408571D01*
X162961428Y-112408571D01*
X163147142Y-112337142D01*
X163270952Y-112194285D01*
X163332857Y-112051428D01*
X163394761Y-111765714D01*
X163394761Y-111551428D01*
X163332857Y-111265714D01*
X163270952Y-111122857D01*
X163147142Y-110980000D01*
X162961428Y-110908571D01*
X162837619Y-110908571D01*
X162651904Y-110980000D01*
X162590000Y-111051428D01*
X162094761Y-112337142D02*
X161909047Y-112408571D01*
X161599523Y-112408571D01*
X161475714Y-112337142D01*
X161413809Y-112265714D01*
X161351904Y-112122857D01*
X161351904Y-111980000D01*
X161413809Y-111837142D01*
X161475714Y-111765714D01*
X161599523Y-111694285D01*
X161847142Y-111622857D01*
X161970952Y-111551428D01*
X162032857Y-111480000D01*
X162094761Y-111337142D01*
X162094761Y-111194285D01*
X162032857Y-111051428D01*
X161970952Y-110980000D01*
X161847142Y-110908571D01*
X161537619Y-110908571D01*
X161351904Y-110980000D01*
X160794761Y-112265714D02*
X160732857Y-112337142D01*
X160794761Y-112408571D01*
X160856666Y-112337142D01*
X160794761Y-112265714D01*
X160794761Y-112408571D01*
X160794761Y-111480000D02*
X160732857Y-111551428D01*
X160794761Y-111622857D01*
X160856666Y-111551428D01*
X160794761Y-111480000D01*
X160794761Y-111622857D01*
X159309047Y-110908571D02*
X158442380Y-110908571D01*
X158999523Y-112408571D01*
X157885238Y-112337142D02*
X157885238Y-112408571D01*
X157947142Y-112551428D01*
X158009047Y-112622857D01*
X155594761Y-112265714D02*
X155656666Y-112337142D01*
X155842380Y-112408571D01*
X155966190Y-112408571D01*
X156151904Y-112337142D01*
X156275714Y-112194285D01*
X156337619Y-112051428D01*
X156399523Y-111765714D01*
X156399523Y-111551428D01*
X156337619Y-111265714D01*
X156275714Y-111122857D01*
X156151904Y-110980000D01*
X155966190Y-110908571D01*
X155842380Y-110908571D01*
X155656666Y-110980000D01*
X155594761Y-111051428D01*
X154418571Y-112408571D02*
X155037619Y-112408571D01*
X155037619Y-110908571D01*
X153985238Y-112408571D02*
X153985238Y-110908571D01*
X153242380Y-112408571D02*
X153799523Y-111551428D01*
X153242380Y-110908571D02*
X153985238Y-111765714D01*
X152685238Y-112265714D02*
X152623333Y-112337142D01*
X152685238Y-112408571D01*
X152747142Y-112337142D01*
X152685238Y-112265714D01*
X152685238Y-112408571D01*
X152685238Y-111480000D02*
X152623333Y-111551428D01*
X152685238Y-111622857D01*
X152747142Y-111551428D01*
X152685238Y-111480000D01*
X152685238Y-111622857D01*
X151013809Y-112408571D02*
X150766190Y-112408571D01*
X150642380Y-112337142D01*
X150580476Y-112265714D01*
X150456666Y-112051428D01*
X150394761Y-111765714D01*
X150394761Y-111194285D01*
X150456666Y-111051428D01*
X150518571Y-110980000D01*
X150642380Y-110908571D01*
X150890000Y-110908571D01*
X151013809Y-110980000D01*
X151075714Y-111051428D01*
X151137619Y-111194285D01*
X151137619Y-111551428D01*
X151075714Y-111694285D01*
X151013809Y-111765714D01*
X150890000Y-111837142D01*
X150642380Y-111837142D01*
X150518571Y-111765714D01*
X150456666Y-111694285D01*
X150394761Y-111551428D01*
X149775714Y-112337142D02*
X149775714Y-112408571D01*
X149837619Y-112551428D01*
X149899523Y-112622857D01*
X148228095Y-112408571D02*
X148228095Y-110908571D01*
X147794761Y-111980000D01*
X147361428Y-110908571D01*
X147361428Y-112408571D01*
X146494761Y-110908571D02*
X146247142Y-110908571D01*
X146123333Y-110980000D01*
X145999523Y-111122857D01*
X145937619Y-111408571D01*
X145937619Y-111908571D01*
X145999523Y-112194285D01*
X146123333Y-112337142D01*
X146247142Y-112408571D01*
X146494761Y-112408571D01*
X146618571Y-112337142D01*
X146742380Y-112194285D01*
X146804285Y-111908571D01*
X146804285Y-111408571D01*
X146742380Y-111122857D01*
X146618571Y-110980000D01*
X146494761Y-110908571D01*
X145442380Y-112337142D02*
X145256666Y-112408571D01*
X144947142Y-112408571D01*
X144823333Y-112337142D01*
X144761428Y-112265714D01*
X144699523Y-112122857D01*
X144699523Y-111980000D01*
X144761428Y-111837142D01*
X144823333Y-111765714D01*
X144947142Y-111694285D01*
X145194761Y-111622857D01*
X145318571Y-111551428D01*
X145380476Y-111480000D01*
X145442380Y-111337142D01*
X145442380Y-111194285D01*
X145380476Y-111051428D01*
X145318571Y-110980000D01*
X145194761Y-110908571D01*
X144885238Y-110908571D01*
X144699523Y-110980000D01*
X144142380Y-112408571D02*
X144142380Y-110908571D01*
X143523333Y-112265714D02*
X143461428Y-112337142D01*
X143523333Y-112408571D01*
X143585238Y-112337142D01*
X143523333Y-112265714D01*
X143523333Y-112408571D01*
X143523333Y-111480000D02*
X143461428Y-111551428D01*
X143523333Y-111622857D01*
X143585238Y-111551428D01*
X143523333Y-111480000D01*
X143523333Y-111622857D01*
X141232857Y-112408571D02*
X141975714Y-112408571D01*
X141604285Y-112408571D02*
X141604285Y-110908571D01*
X141728095Y-111122857D01*
X141851904Y-111265714D01*
X141975714Y-111337142D01*
X140428095Y-110908571D02*
X140304285Y-110908571D01*
X140180476Y-110980000D01*
X140118571Y-111051428D01*
X140056666Y-111194285D01*
X139994761Y-111480000D01*
X139994761Y-111837142D01*
X140056666Y-112122857D01*
X140118571Y-112265714D01*
X140180476Y-112337142D01*
X140304285Y-112408571D01*
X140428095Y-112408571D01*
X140551904Y-112337142D01*
X140613809Y-112265714D01*
X140675714Y-112122857D01*
X140737619Y-111837142D01*
X140737619Y-111480000D01*
X140675714Y-111194285D01*
X140613809Y-111051428D01*
X140551904Y-110980000D01*
X140428095Y-110908571D01*
X180084761Y-114720000D02*
X179465714Y-114720000D01*
X180208571Y-115148571D02*
X179775238Y-113648571D01*
X179341904Y-115148571D01*
X178908571Y-115148571D02*
X178908571Y-113648571D01*
X178475238Y-114720000D01*
X178041904Y-113648571D01*
X178041904Y-115148571D01*
X177422857Y-115148571D02*
X177422857Y-113648571D01*
X176927619Y-113648571D01*
X176803809Y-113720000D01*
X176741904Y-113791428D01*
X176680000Y-113934285D01*
X176680000Y-114148571D01*
X176741904Y-114291428D01*
X176803809Y-114362857D01*
X176927619Y-114434285D01*
X177422857Y-114434285D01*
X175132380Y-114577142D02*
X174141904Y-114577142D01*
X172099047Y-114362857D02*
X171913333Y-114434285D01*
X171851428Y-114505714D01*
X171789523Y-114648571D01*
X171789523Y-114862857D01*
X171851428Y-115005714D01*
X171913333Y-115077142D01*
X172037142Y-115148571D01*
X172532380Y-115148571D01*
X172532380Y-113648571D01*
X172099047Y-113648571D01*
X171975238Y-113720000D01*
X171913333Y-113791428D01*
X171851428Y-113934285D01*
X171851428Y-114077142D01*
X171913333Y-114220000D01*
X171975238Y-114291428D01*
X172099047Y-114362857D01*
X172532380Y-114362857D01*
X170489523Y-115005714D02*
X170551428Y-115077142D01*
X170737142Y-115148571D01*
X170860952Y-115148571D01*
X171046666Y-115077142D01*
X171170476Y-114934285D01*
X171232380Y-114791428D01*
X171294285Y-114505714D01*
X171294285Y-114291428D01*
X171232380Y-114005714D01*
X171170476Y-113862857D01*
X171046666Y-113720000D01*
X170860952Y-113648571D01*
X170737142Y-113648571D01*
X170551428Y-113720000D01*
X170489523Y-113791428D01*
X169313333Y-115148571D02*
X169932380Y-115148571D01*
X169932380Y-113648571D01*
X168880000Y-115148571D02*
X168880000Y-113648571D01*
X168137142Y-115148571D02*
X168694285Y-114291428D01*
X168137142Y-113648571D02*
X168880000Y-114505714D01*
X167580000Y-115005714D02*
X167518095Y-115077142D01*
X167580000Y-115148571D01*
X167641904Y-115077142D01*
X167580000Y-115005714D01*
X167580000Y-115148571D01*
X167580000Y-114220000D02*
X167518095Y-114291428D01*
X167580000Y-114362857D01*
X167641904Y-114291428D01*
X167580000Y-114220000D01*
X167580000Y-114362857D01*
X166032380Y-113791428D02*
X165970476Y-113720000D01*
X165846666Y-113648571D01*
X165537142Y-113648571D01*
X165413333Y-113720000D01*
X165351428Y-113791428D01*
X165289523Y-113934285D01*
X165289523Y-114077142D01*
X165351428Y-114291428D01*
X166094285Y-115148571D01*
X165289523Y-115148571D01*
X164175238Y-113648571D02*
X164422857Y-113648571D01*
X164546666Y-113720000D01*
X164608571Y-113791428D01*
X164732380Y-114005714D01*
X164794285Y-114291428D01*
X164794285Y-114862857D01*
X164732380Y-115005714D01*
X164670476Y-115077142D01*
X164546666Y-115148571D01*
X164299047Y-115148571D01*
X164175238Y-115077142D01*
X164113333Y-115005714D01*
X164051428Y-114862857D01*
X164051428Y-114505714D01*
X164113333Y-114362857D01*
X164175238Y-114291428D01*
X164299047Y-114220000D01*
X164546666Y-114220000D01*
X164670476Y-114291428D01*
X164732380Y-114362857D01*
X164794285Y-114505714D01*
X163432380Y-115077142D02*
X163432380Y-115148571D01*
X163494285Y-115291428D01*
X163556190Y-115362857D01*
X161265714Y-115148571D02*
X161884761Y-115148571D01*
X161884761Y-113648571D01*
X160089523Y-115148571D02*
X160522857Y-114434285D01*
X160832380Y-115148571D02*
X160832380Y-113648571D01*
X160337142Y-113648571D01*
X160213333Y-113720000D01*
X160151428Y-113791428D01*
X160089523Y-113934285D01*
X160089523Y-114148571D01*
X160151428Y-114291428D01*
X160213333Y-114362857D01*
X160337142Y-114434285D01*
X160832380Y-114434285D01*
X158789523Y-115005714D02*
X158851428Y-115077142D01*
X159037142Y-115148571D01*
X159160952Y-115148571D01*
X159346666Y-115077142D01*
X159470476Y-114934285D01*
X159532380Y-114791428D01*
X159594285Y-114505714D01*
X159594285Y-114291428D01*
X159532380Y-114005714D01*
X159470476Y-113862857D01*
X159346666Y-113720000D01*
X159160952Y-113648571D01*
X159037142Y-113648571D01*
X158851428Y-113720000D01*
X158789523Y-113791428D01*
X157613333Y-115148571D02*
X158232380Y-115148571D01*
X158232380Y-113648571D01*
X157180000Y-115148571D02*
X157180000Y-113648571D01*
X156437142Y-115148571D02*
X156994285Y-114291428D01*
X156437142Y-113648571D02*
X157180000Y-114505714D01*
X155880000Y-115005714D02*
X155818095Y-115077142D01*
X155880000Y-115148571D01*
X155941904Y-115077142D01*
X155880000Y-115005714D01*
X155880000Y-115148571D01*
X155880000Y-114220000D02*
X155818095Y-114291428D01*
X155880000Y-114362857D01*
X155941904Y-114291428D01*
X155880000Y-114220000D01*
X155880000Y-114362857D01*
X154332380Y-113791428D02*
X154270476Y-113720000D01*
X154146666Y-113648571D01*
X153837142Y-113648571D01*
X153713333Y-113720000D01*
X153651428Y-113791428D01*
X153589523Y-113934285D01*
X153589523Y-114077142D01*
X153651428Y-114291428D01*
X154394285Y-115148571D01*
X153589523Y-115148571D01*
X153156190Y-113648571D02*
X152289523Y-113648571D01*
X152846666Y-115148571D01*
X151732380Y-115077142D02*
X151732380Y-115148571D01*
X151794285Y-115291428D01*
X151856190Y-115362857D01*
X150184761Y-115148571D02*
X150184761Y-113648571D01*
X149875238Y-113648571D01*
X149689523Y-113720000D01*
X149565714Y-113862857D01*
X149503809Y-114005714D01*
X149441904Y-114291428D01*
X149441904Y-114505714D01*
X149503809Y-114791428D01*
X149565714Y-114934285D01*
X149689523Y-115077142D01*
X149875238Y-115148571D01*
X150184761Y-115148571D01*
X148884761Y-115148571D02*
X148884761Y-113648571D01*
X148265714Y-115148571D02*
X148265714Y-113648571D01*
X147522857Y-115148571D01*
X147522857Y-113648571D01*
X146903809Y-115005714D02*
X146841904Y-115077142D01*
X146903809Y-115148571D01*
X146965714Y-115077142D01*
X146903809Y-115005714D01*
X146903809Y-115148571D01*
X146903809Y-114220000D02*
X146841904Y-114291428D01*
X146903809Y-114362857D01*
X146965714Y-114291428D01*
X146903809Y-114220000D01*
X146903809Y-114362857D01*
X145356190Y-113791428D02*
X145294285Y-113720000D01*
X145170476Y-113648571D01*
X144860952Y-113648571D01*
X144737142Y-113720000D01*
X144675238Y-113791428D01*
X144613333Y-113934285D01*
X144613333Y-114077142D01*
X144675238Y-114291428D01*
X145418095Y-115148571D01*
X144613333Y-115148571D01*
X143870476Y-114291428D02*
X143994285Y-114220000D01*
X144056190Y-114148571D01*
X144118095Y-114005714D01*
X144118095Y-113934285D01*
X144056190Y-113791428D01*
X143994285Y-113720000D01*
X143870476Y-113648571D01*
X143622857Y-113648571D01*
X143499047Y-113720000D01*
X143437142Y-113791428D01*
X143375238Y-113934285D01*
X143375238Y-114005714D01*
X143437142Y-114148571D01*
X143499047Y-114220000D01*
X143622857Y-114291428D01*
X143870476Y-114291428D01*
X143994285Y-114362857D01*
X144056190Y-114434285D01*
X144118095Y-114577142D01*
X144118095Y-114862857D01*
X144056190Y-115005714D01*
X143994285Y-115077142D01*
X143870476Y-115148571D01*
X143622857Y-115148571D01*
X143499047Y-115077142D01*
X143437142Y-115005714D01*
X143375238Y-114862857D01*
X143375238Y-114577142D01*
X143437142Y-114434285D01*
X143499047Y-114362857D01*
X143622857Y-114291428D01*
X189210714Y-120667857D02*
X188996428Y-120739285D01*
X188925000Y-120810714D01*
X188853571Y-120953571D01*
X188853571Y-121167857D01*
X188925000Y-121310714D01*
X188996428Y-121382142D01*
X189139285Y-121453571D01*
X189710714Y-121453571D01*
X189710714Y-119953571D01*
X189210714Y-119953571D01*
X189067857Y-120025000D01*
X188996428Y-120096428D01*
X188925000Y-120239285D01*
X188925000Y-120382142D01*
X188996428Y-120525000D01*
X189067857Y-120596428D01*
X189210714Y-120667857D01*
X189710714Y-120667857D01*
X188282142Y-121025000D02*
X187567857Y-121025000D01*
X188425000Y-121453571D02*
X187925000Y-119953571D01*
X187425000Y-121453571D01*
X187139285Y-119953571D02*
X186282142Y-119953571D01*
X186710714Y-121453571D02*
X186710714Y-119953571D01*
X185782142Y-120882142D02*
X184639285Y-120882142D01*
X185210714Y-121453571D02*
X185210714Y-120310714D01*
D12*
X192008571Y-101449523D02*
X192008571Y-97449523D01*
X190484761Y-97449523D01*
X190103809Y-97640000D01*
X189913333Y-97830476D01*
X189722857Y-98211428D01*
X189722857Y-98782857D01*
X189913333Y-99163809D01*
X190103809Y-99354285D01*
X190484761Y-99544761D01*
X192008571Y-99544761D01*
X186103809Y-101449523D02*
X188008571Y-101449523D01*
X188008571Y-97449523D01*
X184960952Y-100306666D02*
X183056190Y-100306666D01*
X185341904Y-101449523D02*
X184008571Y-97449523D01*
X182675238Y-101449523D01*
X179056190Y-101068571D02*
X179246666Y-101259047D01*
X179818095Y-101449523D01*
X180199047Y-101449523D01*
X180770476Y-101259047D01*
X181151428Y-100878095D01*
X181341904Y-100497142D01*
X181532380Y-99735238D01*
X181532380Y-99163809D01*
X181341904Y-98401904D01*
X181151428Y-98020952D01*
X180770476Y-97640000D01*
X180199047Y-97449523D01*
X179818095Y-97449523D01*
X179246666Y-97640000D01*
X179056190Y-97830476D01*
X177341904Y-99354285D02*
X176008571Y-99354285D01*
X175437142Y-101449523D02*
X177341904Y-101449523D01*
X177341904Y-97449523D01*
X175437142Y-97449523D01*
X169913333Y-97449523D02*
X169151428Y-97449523D01*
X168770476Y-97640000D01*
X168389523Y-98020952D01*
X168199047Y-98782857D01*
X168199047Y-100116190D01*
X168389523Y-100878095D01*
X168770476Y-101259047D01*
X169151428Y-101449523D01*
X169913333Y-101449523D01*
X170294285Y-101259047D01*
X170675238Y-100878095D01*
X170865714Y-100116190D01*
X170865714Y-98782857D01*
X170675238Y-98020952D01*
X170294285Y-97640000D01*
X169913333Y-97449523D01*
X167056190Y-97449523D02*
X164770476Y-97449523D01*
X165913333Y-101449523D02*
X165913333Y-97449523D01*
X163437142Y-101449523D02*
X163437142Y-97449523D01*
X163437142Y-99354285D02*
X161151428Y-99354285D01*
X161151428Y-101449523D02*
X161151428Y-97449523D01*
X159246666Y-99354285D02*
X157913333Y-99354285D01*
X157341904Y-101449523D02*
X159246666Y-101449523D01*
X159246666Y-97449523D01*
X157341904Y-97449523D01*
X153341904Y-101449523D02*
X154675238Y-99544761D01*
X155627619Y-101449523D02*
X155627619Y-97449523D01*
X154103809Y-97449523D01*
X153722857Y-97640000D01*
X153532380Y-97830476D01*
X153341904Y-98211428D01*
X153341904Y-98782857D01*
X153532380Y-99163809D01*
X153722857Y-99354285D01*
X154103809Y-99544761D01*
X155627619Y-99544761D01*
X148770476Y-101259047D02*
X148199047Y-101449523D01*
X147246666Y-101449523D01*
X146865714Y-101259047D01*
X146675238Y-101068571D01*
X146484761Y-100687619D01*
X146484761Y-100306666D01*
X146675238Y-99925714D01*
X146865714Y-99735238D01*
X147246666Y-99544761D01*
X148008571Y-99354285D01*
X148389523Y-99163809D01*
X148580000Y-98973333D01*
X148770476Y-98592380D01*
X148770476Y-98211428D01*
X148580000Y-97830476D01*
X148389523Y-97640000D01*
X148008571Y-97449523D01*
X147056190Y-97449523D01*
X146484761Y-97640000D01*
X144770476Y-101449523D02*
X144770476Y-97449523D01*
X142865714Y-101449523D02*
X142865714Y-97449523D01*
X141913333Y-97449523D01*
X141341904Y-97640000D01*
X140960952Y-98020952D01*
X140770476Y-98401904D01*
X140580000Y-99163809D01*
X140580000Y-99735238D01*
X140770476Y-100497142D01*
X140960952Y-100878095D01*
X141341904Y-101259047D01*
X141913333Y-101449523D01*
X142865714Y-101449523D01*
X138865714Y-99354285D02*
X137532380Y-99354285D01*
X136960952Y-101449523D02*
X138865714Y-101449523D01*
X138865714Y-97449523D01*
X136960952Y-97449523D01*
D11*
X180928095Y-117468571D02*
X180928095Y-115968571D01*
X180309047Y-116468571D02*
X180309047Y-117468571D01*
X180309047Y-116611428D02*
X180247142Y-116540000D01*
X180123333Y-116468571D01*
X179937619Y-116468571D01*
X179813809Y-116540000D01*
X179751904Y-116682857D01*
X179751904Y-117468571D01*
X179132857Y-116468571D02*
X179132857Y-117968571D01*
X179132857Y-116540000D02*
X179009047Y-116468571D01*
X178761428Y-116468571D01*
X178637619Y-116540000D01*
X178575714Y-116611428D01*
X178513809Y-116754285D01*
X178513809Y-117182857D01*
X178575714Y-117325714D01*
X178637619Y-117397142D01*
X178761428Y-117468571D01*
X179009047Y-117468571D01*
X179132857Y-117397142D01*
X177399523Y-116468571D02*
X177399523Y-117468571D01*
X177956666Y-116468571D02*
X177956666Y-117254285D01*
X177894761Y-117397142D01*
X177770952Y-117468571D01*
X177585238Y-117468571D01*
X177461428Y-117397142D01*
X177399523Y-117325714D01*
X176966190Y-116468571D02*
X176470952Y-116468571D01*
X176780476Y-115968571D02*
X176780476Y-117254285D01*
X176718571Y-117397142D01*
X176594761Y-117468571D01*
X176470952Y-117468571D01*
X175047142Y-116897142D02*
X174056666Y-116897142D01*
X172509047Y-117040000D02*
X171890000Y-117040000D01*
X172632857Y-117468571D02*
X172199523Y-115968571D01*
X171766190Y-117468571D01*
X171332857Y-117325714D02*
X171270952Y-117397142D01*
X171332857Y-117468571D01*
X171394761Y-117397142D01*
X171332857Y-117325714D01*
X171332857Y-117468571D01*
X171332857Y-116540000D02*
X171270952Y-116611428D01*
X171332857Y-116682857D01*
X171394761Y-116611428D01*
X171332857Y-116540000D01*
X171332857Y-116682857D01*
X169042380Y-117468571D02*
X169785238Y-117468571D01*
X169413809Y-117468571D02*
X169413809Y-115968571D01*
X169537619Y-116182857D01*
X169661428Y-116325714D01*
X169785238Y-116397142D01*
X167866190Y-115968571D02*
X168485238Y-115968571D01*
X168547142Y-116682857D01*
X168485238Y-116611428D01*
X168361428Y-116540000D01*
X168051904Y-116540000D01*
X167928095Y-116611428D01*
X167866190Y-116682857D01*
X167804285Y-116825714D01*
X167804285Y-117182857D01*
X167866190Y-117325714D01*
X167928095Y-117397142D01*
X168051904Y-117468571D01*
X168361428Y-117468571D01*
X168485238Y-117397142D01*
X168547142Y-117325714D01*
X167185238Y-117397142D02*
X167185238Y-117468571D01*
X167247142Y-117611428D01*
X167309047Y-117682857D01*
X165699523Y-117397142D02*
X165513809Y-117468571D01*
X165204285Y-117468571D01*
X165080476Y-117397142D01*
X165018571Y-117325714D01*
X164956666Y-117182857D01*
X164956666Y-117040000D01*
X165018571Y-116897142D01*
X165080476Y-116825714D01*
X165204285Y-116754285D01*
X165451904Y-116682857D01*
X165575714Y-116611428D01*
X165637619Y-116540000D01*
X165699523Y-116397142D01*
X165699523Y-116254285D01*
X165637619Y-116111428D01*
X165575714Y-116040000D01*
X165451904Y-115968571D01*
X165142380Y-115968571D01*
X164956666Y-116040000D01*
X164151904Y-115968571D02*
X164028095Y-115968571D01*
X163904285Y-116040000D01*
X163842380Y-116111428D01*
X163780476Y-116254285D01*
X163718571Y-116540000D01*
X163718571Y-116897142D01*
X163780476Y-117182857D01*
X163842380Y-117325714D01*
X163904285Y-117397142D01*
X164028095Y-117468571D01*
X164151904Y-117468571D01*
X164275714Y-117397142D01*
X164337619Y-117325714D01*
X164399523Y-117182857D01*
X164461428Y-116897142D01*
X164461428Y-116540000D01*
X164399523Y-116254285D01*
X164337619Y-116111428D01*
X164275714Y-116040000D01*
X164151904Y-115968571D01*
X163161428Y-117325714D02*
X163099523Y-117397142D01*
X163161428Y-117468571D01*
X163223333Y-117397142D01*
X163161428Y-117325714D01*
X163161428Y-117468571D01*
X163161428Y-116540000D02*
X163099523Y-116611428D01*
X163161428Y-116682857D01*
X163223333Y-116611428D01*
X163161428Y-116540000D01*
X163161428Y-116682857D01*
X160870952Y-117468571D02*
X161613809Y-117468571D01*
X161242380Y-117468571D02*
X161242380Y-115968571D01*
X161366190Y-116182857D01*
X161490000Y-116325714D01*
X161613809Y-116397142D01*
X160375714Y-116111428D02*
X160313809Y-116040000D01*
X160190000Y-115968571D01*
X159880476Y-115968571D01*
X159756666Y-116040000D01*
X159694761Y-116111428D01*
X159632857Y-116254285D01*
X159632857Y-116397142D01*
X159694761Y-116611428D01*
X160437619Y-117468571D01*
X159632857Y-117468571D01*
X159013809Y-117397142D02*
X159013809Y-117468571D01*
X159075714Y-117611428D01*
X159137619Y-117682857D01*
X157528095Y-117397142D02*
X157342380Y-117468571D01*
X157032857Y-117468571D01*
X156909047Y-117397142D01*
X156847142Y-117325714D01*
X156785238Y-117182857D01*
X156785238Y-117040000D01*
X156847142Y-116897142D01*
X156909047Y-116825714D01*
X157032857Y-116754285D01*
X157280476Y-116682857D01*
X157404285Y-116611428D01*
X157466190Y-116540000D01*
X157528095Y-116397142D01*
X157528095Y-116254285D01*
X157466190Y-116111428D01*
X157404285Y-116040000D01*
X157280476Y-115968571D01*
X156970952Y-115968571D01*
X156785238Y-116040000D01*
X155547142Y-117468571D02*
X156290000Y-117468571D01*
X155918571Y-117468571D02*
X155918571Y-115968571D01*
X156042380Y-116182857D01*
X156166190Y-116325714D01*
X156290000Y-116397142D01*
X154990000Y-117325714D02*
X154928095Y-117397142D01*
X154990000Y-117468571D01*
X155051904Y-117397142D01*
X154990000Y-117325714D01*
X154990000Y-117468571D01*
X154990000Y-116540000D02*
X154928095Y-116611428D01*
X154990000Y-116682857D01*
X155051904Y-116611428D01*
X154990000Y-116540000D01*
X154990000Y-116682857D01*
X152699523Y-117468571D02*
X153442380Y-117468571D01*
X153070952Y-117468571D02*
X153070952Y-115968571D01*
X153194761Y-116182857D01*
X153318571Y-116325714D01*
X153442380Y-116397142D01*
X152266190Y-115968571D02*
X151461428Y-115968571D01*
X151894761Y-116540000D01*
X151709047Y-116540000D01*
X151585238Y-116611428D01*
X151523333Y-116682857D01*
X151461428Y-116825714D01*
X151461428Y-117182857D01*
X151523333Y-117325714D01*
X151585238Y-117397142D01*
X151709047Y-117468571D01*
X152080476Y-117468571D01*
X152204285Y-117397142D01*
X152266190Y-117325714D01*
X150842380Y-117397142D02*
X150842380Y-117468571D01*
X150904285Y-117611428D01*
X150966190Y-117682857D01*
X149356666Y-117397142D02*
X149170952Y-117468571D01*
X148861428Y-117468571D01*
X148737619Y-117397142D01*
X148675714Y-117325714D01*
X148613809Y-117182857D01*
X148613809Y-117040000D01*
X148675714Y-116897142D01*
X148737619Y-116825714D01*
X148861428Y-116754285D01*
X149109047Y-116682857D01*
X149232857Y-116611428D01*
X149294761Y-116540000D01*
X149356666Y-116397142D01*
X149356666Y-116254285D01*
X149294761Y-116111428D01*
X149232857Y-116040000D01*
X149109047Y-115968571D01*
X148799523Y-115968571D01*
X148613809Y-116040000D01*
X148118571Y-116111428D02*
X148056666Y-116040000D01*
X147932857Y-115968571D01*
X147623333Y-115968571D01*
X147499523Y-116040000D01*
X147437619Y-116111428D01*
X147375714Y-116254285D01*
X147375714Y-116397142D01*
X147437619Y-116611428D01*
X148180476Y-117468571D01*
X147375714Y-117468571D01*
X146818571Y-117325714D02*
X146756666Y-117397142D01*
X146818571Y-117468571D01*
X146880476Y-117397142D01*
X146818571Y-117325714D01*
X146818571Y-117468571D01*
X146818571Y-116540000D02*
X146756666Y-116611428D01*
X146818571Y-116682857D01*
X146880476Y-116611428D01*
X146818571Y-116540000D01*
X146818571Y-116682857D01*
X144528095Y-117468571D02*
X145270952Y-117468571D01*
X144899523Y-117468571D02*
X144899523Y-115968571D01*
X145023333Y-116182857D01*
X145147142Y-116325714D01*
X145270952Y-116397142D01*
X143413809Y-116468571D02*
X143413809Y-117468571D01*
X143723333Y-115897142D02*
X144032857Y-116968571D01*
X143228095Y-116968571D01*
X128117857Y-69267857D02*
X128189285Y-69482142D01*
X128260714Y-69553571D01*
X128403571Y-69625000D01*
X128617857Y-69625000D01*
X128760714Y-69553571D01*
X128832142Y-69482142D01*
X128903571Y-69339285D01*
X128903571Y-68767857D01*
X127403571Y-68767857D01*
X127403571Y-69267857D01*
X127475000Y-69410714D01*
X127546428Y-69482142D01*
X127689285Y-69553571D01*
X127832142Y-69553571D01*
X127975000Y-69482142D01*
X128046428Y-69410714D01*
X128117857Y-69267857D01*
X128117857Y-68767857D01*
X127403571Y-70553571D02*
X127403571Y-70696428D01*
X127475000Y-70839285D01*
X127546428Y-70910714D01*
X127689285Y-70982142D01*
X127975000Y-71053571D01*
X128332142Y-71053571D01*
X128617857Y-70982142D01*
X128760714Y-70910714D01*
X128832142Y-70839285D01*
X128903571Y-70696428D01*
X128903571Y-70553571D01*
X128832142Y-70410714D01*
X128760714Y-70339285D01*
X128617857Y-70267857D01*
X128332142Y-70196428D01*
X127975000Y-70196428D01*
X127689285Y-70267857D01*
X127546428Y-70339285D01*
X127475000Y-70410714D01*
X127403571Y-70553571D01*
X128117857Y-127192857D02*
X128189285Y-127407142D01*
X128260714Y-127478571D01*
X128403571Y-127550000D01*
X128617857Y-127550000D01*
X128760714Y-127478571D01*
X128832142Y-127407142D01*
X128903571Y-127264285D01*
X128903571Y-126692857D01*
X127403571Y-126692857D01*
X127403571Y-127192857D01*
X127475000Y-127335714D01*
X127546428Y-127407142D01*
X127689285Y-127478571D01*
X127832142Y-127478571D01*
X127975000Y-127407142D01*
X128046428Y-127335714D01*
X128117857Y-127192857D01*
X128117857Y-126692857D01*
X127403571Y-128050000D02*
X127403571Y-128978571D01*
X127975000Y-128478571D01*
X127975000Y-128692857D01*
X128046428Y-128835714D01*
X128117857Y-128907142D01*
X128260714Y-128978571D01*
X128617857Y-128978571D01*
X128760714Y-128907142D01*
X128832142Y-128835714D01*
X128903571Y-128692857D01*
X128903571Y-128264285D01*
X128832142Y-128121428D01*
X128760714Y-128050000D01*
D10*
X125228761Y-107196666D02*
X125276380Y-107339523D01*
X125276380Y-107577619D01*
X125228761Y-107672857D01*
X125181142Y-107720476D01*
X125085904Y-107768095D01*
X124990666Y-107768095D01*
X124895428Y-107720476D01*
X124847809Y-107672857D01*
X124800190Y-107577619D01*
X124752571Y-107387142D01*
X124704952Y-107291904D01*
X124657333Y-107244285D01*
X124562095Y-107196666D01*
X124466857Y-107196666D01*
X124371619Y-107244285D01*
X124324000Y-107291904D01*
X124276380Y-107387142D01*
X124276380Y-107625238D01*
X124324000Y-107768095D01*
X124276380Y-108101428D02*
X125276380Y-108339523D01*
X124562095Y-108530000D01*
X125276380Y-108720476D01*
X124276380Y-108958571D01*
X124609714Y-109768095D02*
X125276380Y-109768095D01*
X124228761Y-109530000D02*
X124943047Y-109291904D01*
X124943047Y-109910952D01*
X125208761Y-87976666D02*
X125256380Y-88119523D01*
X125256380Y-88357619D01*
X125208761Y-88452857D01*
X125161142Y-88500476D01*
X125065904Y-88548095D01*
X124970666Y-88548095D01*
X124875428Y-88500476D01*
X124827809Y-88452857D01*
X124780190Y-88357619D01*
X124732571Y-88167142D01*
X124684952Y-88071904D01*
X124637333Y-88024285D01*
X124542095Y-87976666D01*
X124446857Y-87976666D01*
X124351619Y-88024285D01*
X124304000Y-88071904D01*
X124256380Y-88167142D01*
X124256380Y-88405238D01*
X124304000Y-88548095D01*
X124256380Y-88881428D02*
X125256380Y-89119523D01*
X124542095Y-89310000D01*
X125256380Y-89500476D01*
X124256380Y-89738571D01*
X124351619Y-90071904D02*
X124304000Y-90119523D01*
X124256380Y-90214761D01*
X124256380Y-90452857D01*
X124304000Y-90548095D01*
X124351619Y-90595714D01*
X124446857Y-90643333D01*
X124542095Y-90643333D01*
X124684952Y-90595714D01*
X125256380Y-90024285D01*
X125256380Y-90643333D01*
X125228761Y-126416666D02*
X125276380Y-126559523D01*
X125276380Y-126797619D01*
X125228761Y-126892857D01*
X125181142Y-126940476D01*
X125085904Y-126988095D01*
X124990666Y-126988095D01*
X124895428Y-126940476D01*
X124847809Y-126892857D01*
X124800190Y-126797619D01*
X124752571Y-126607142D01*
X124704952Y-126511904D01*
X124657333Y-126464285D01*
X124562095Y-126416666D01*
X124466857Y-126416666D01*
X124371619Y-126464285D01*
X124324000Y-126511904D01*
X124276380Y-126607142D01*
X124276380Y-126845238D01*
X124324000Y-126988095D01*
X124276380Y-127321428D02*
X125276380Y-127559523D01*
X124562095Y-127750000D01*
X125276380Y-127940476D01*
X124276380Y-128178571D01*
X124276380Y-129035714D02*
X124276380Y-128559523D01*
X124752571Y-128511904D01*
X124704952Y-128559523D01*
X124657333Y-128654761D01*
X124657333Y-128892857D01*
X124704952Y-128988095D01*
X124752571Y-129035714D01*
X124847809Y-129083333D01*
X125085904Y-129083333D01*
X125181142Y-129035714D01*
X125228761Y-128988095D01*
X125276380Y-128892857D01*
X125276380Y-128654761D01*
X125228761Y-128559523D01*
X125181142Y-128511904D01*
X125208761Y-68756666D02*
X125256380Y-68899523D01*
X125256380Y-69137619D01*
X125208761Y-69232857D01*
X125161142Y-69280476D01*
X125065904Y-69328095D01*
X124970666Y-69328095D01*
X124875428Y-69280476D01*
X124827809Y-69232857D01*
X124780190Y-69137619D01*
X124732571Y-68947142D01*
X124684952Y-68851904D01*
X124637333Y-68804285D01*
X124542095Y-68756666D01*
X124446857Y-68756666D01*
X124351619Y-68804285D01*
X124304000Y-68851904D01*
X124256380Y-68947142D01*
X124256380Y-69185238D01*
X124304000Y-69328095D01*
X124256380Y-69661428D02*
X125256380Y-69899523D01*
X124542095Y-70090000D01*
X125256380Y-70280476D01*
X124256380Y-70518571D01*
X125256380Y-71423333D02*
X125256380Y-70851904D01*
X125256380Y-71137619D02*
X124256380Y-71137619D01*
X124399238Y-71042380D01*
X124494476Y-70947142D01*
X124542095Y-70851904D01*
X125274761Y-55466666D02*
X125322380Y-55609523D01*
X125322380Y-55847619D01*
X125274761Y-55942857D01*
X125227142Y-55990476D01*
X125131904Y-56038095D01*
X125036666Y-56038095D01*
X124941428Y-55990476D01*
X124893809Y-55942857D01*
X124846190Y-55847619D01*
X124798571Y-55657142D01*
X124750952Y-55561904D01*
X124703333Y-55514285D01*
X124608095Y-55466666D01*
X124512857Y-55466666D01*
X124417619Y-55514285D01*
X124370000Y-55561904D01*
X124322380Y-55657142D01*
X124322380Y-55895238D01*
X124370000Y-56038095D01*
X124322380Y-56371428D02*
X125322380Y-56609523D01*
X124608095Y-56800000D01*
X125322380Y-56990476D01*
X124322380Y-57228571D01*
X124322380Y-57514285D02*
X124322380Y-58133333D01*
X124703333Y-57800000D01*
X124703333Y-57942857D01*
X124750952Y-58038095D01*
X124798571Y-58085714D01*
X124893809Y-58133333D01*
X125131904Y-58133333D01*
X125227142Y-58085714D01*
X125274761Y-58038095D01*
X125322380Y-57942857D01*
X125322380Y-57657142D01*
X125274761Y-57561904D01*
X125227142Y-57514285D01*
D13*
X123935000Y-115515000D02*
X123935000Y-101545000D01*
X109965000Y-115515000D02*
X123935000Y-115515000D01*
X109965000Y-101545000D02*
X109965000Y-115515000D01*
X123935000Y-101545000D02*
X109965000Y-101545000D01*
X123915000Y-96295000D02*
X123915000Y-82325000D01*
X123915000Y-82325000D02*
X109945000Y-82325000D01*
X109945000Y-82325000D02*
X109945000Y-96295000D01*
X109945000Y-96295000D02*
X123915000Y-96295000D01*
X109965000Y-134735000D02*
X123935000Y-134735000D01*
X123935000Y-134735000D02*
X123935000Y-120765000D01*
X123935000Y-120765000D02*
X109965000Y-120765000D01*
X109965000Y-120765000D02*
X109965000Y-134735000D01*
X109945000Y-77075000D02*
X123915000Y-77075000D01*
X123915000Y-77075000D02*
X123915000Y-63105000D01*
X109945000Y-63105000D02*
X109945000Y-77075000D01*
X123915000Y-63105000D02*
X109945000Y-63105000D01*
X110560000Y-54030000D02*
X110560000Y-59080000D01*
X110560000Y-45480000D02*
X110560000Y-50530000D01*
X115360000Y-59080000D02*
X118360000Y-59080000D01*
X115110000Y-45480000D02*
X116110000Y-45480000D01*
X110560000Y-59080000D02*
X113360000Y-59080000D01*
X123160000Y-59080000D02*
X123160000Y-54030000D01*
X117610000Y-45480000D02*
X118610000Y-45480000D01*
X113560000Y-45480000D02*
X110560000Y-45480000D01*
X120460000Y-59080000D02*
X123160000Y-59080000D01*
X123160000Y-50530000D02*
X123160000Y-45480000D01*
X120160000Y-45480000D02*
X123160000Y-45480000D01*
%LPC*%
D14*
X106000000Y-47000000D03*
D15*
X178675000Y-134745000D03*
D16*
X183755000Y-134745000D03*
D17*
X164225000Y-105780000D03*
X164225000Y-120770000D03*
D18*
X191390000Y-120770000D03*
D19*
X191390000Y-105780000D03*
D14*
X191000000Y-47000000D03*
D20*
X181350000Y-60635000D03*
D21*
X183890000Y-60635000D03*
D14*
X127000000Y-47000000D03*
D20*
X184510000Y-89540000D03*
D21*
X187050000Y-89540000D03*
D20*
X136725000Y-64855000D03*
D21*
X136725000Y-62315000D03*
X136725000Y-59775000D03*
X136725000Y-57235000D03*
X136725000Y-54695000D03*
X136725000Y-52155000D03*
D22*
X154820000Y-48540000D03*
D23*
X159970000Y-45510000D03*
D22*
X159670000Y-48540000D03*
D23*
X154520000Y-45510000D03*
D21*
X148355000Y-45380000D03*
X148355000Y-47920000D03*
D20*
X148355000Y-50460000D03*
D21*
X148355000Y-53000000D03*
X148355000Y-55540000D03*
X148355000Y-58080000D03*
X148355000Y-60620000D03*
D20*
X148355000Y-63160000D03*
D21*
X148355000Y-65700000D03*
X148355000Y-68240000D03*
X148355000Y-70780000D03*
X148355000Y-73320000D03*
D20*
X148355000Y-75860000D03*
D21*
X148355000Y-78400000D03*
X148355000Y-80940000D03*
X148355000Y-83480000D03*
X148355000Y-86020000D03*
D20*
X148355000Y-88560000D03*
D21*
X148355000Y-91100000D03*
X148355000Y-93640000D03*
X166135000Y-93640000D03*
X166135000Y-91100000D03*
D20*
X166135000Y-88560000D03*
D21*
X166135000Y-86020000D03*
X166135000Y-83480000D03*
X166135000Y-80940000D03*
X166135000Y-78400000D03*
D20*
X166135000Y-75860000D03*
D21*
X166135000Y-73320000D03*
X166135000Y-70780000D03*
X166135000Y-68240000D03*
X166135000Y-65700000D03*
D20*
X166135000Y-63160000D03*
D21*
X166135000Y-60620000D03*
X166135000Y-58080000D03*
X166135000Y-55540000D03*
X166135000Y-53000000D03*
D20*
X166135000Y-50460000D03*
D21*
X166135000Y-47920000D03*
X166135000Y-45380000D03*
X154705000Y-93410000D03*
D20*
X157245000Y-93410000D03*
D21*
X159785000Y-93410000D03*
D14*
X127000000Y-136000000D03*
D24*
X131250000Y-90000000D03*
X131250000Y-90750000D03*
X131250000Y-89250000D03*
X132750000Y-90000000D03*
X132750000Y-90750000D03*
X132750000Y-89250000D03*
D14*
X106000000Y-136000000D03*
X137000000Y-47000000D03*
D24*
X132750000Y-53750000D03*
X132750000Y-52250000D03*
X131250000Y-53000000D03*
X131250000Y-52250000D03*
X131250000Y-53750000D03*
X132750000Y-53000000D03*
X132750000Y-130750000D03*
X131250000Y-130000000D03*
X131250000Y-130750000D03*
X132750000Y-129250000D03*
X131250000Y-129250000D03*
X132750000Y-130000000D03*
D20*
X177495000Y-60715000D03*
D21*
X174955000Y-60715000D03*
D14*
X136965000Y-136000000D03*
X191000000Y-136000000D03*
D25*
X116950000Y-103450000D03*
X116950000Y-113610000D03*
D26*
X116950000Y-108530000D03*
D27*
X122030000Y-105990000D03*
X119490000Y-112340000D03*
D25*
X116930000Y-84230000D03*
D26*
X116930000Y-89310000D03*
D25*
X116930000Y-94390000D03*
D27*
X122010000Y-86770000D03*
X119470000Y-93120000D03*
D25*
X116950000Y-132830000D03*
X116950000Y-122670000D03*
D26*
X116950000Y-127750000D03*
D27*
X122030000Y-125210000D03*
X119490000Y-131560000D03*
D25*
X116930000Y-65010000D03*
D26*
X116930000Y-70090000D03*
D25*
X116930000Y-75170000D03*
D27*
X122010000Y-67550000D03*
X119470000Y-73900000D03*
D28*
X114360000Y-44780000D03*
X119360000Y-44780000D03*
X116860000Y-44780000D03*
X114360000Y-59280000D03*
X119360000Y-59280000D03*
D29*
X123460000Y-52280000D03*
X110260000Y-52280000D03*
M02*
