%TF.GenerationSoftware,KiCad,Pcbnew,6.0.11-2627ca5db0~126~ubuntu22.04.1*%
%TF.CreationDate,2024-03-16T21:37:13-04:00*%
%TF.ProjectId,board,626f6172-642e-46b6-9963-61645f706362,rev?*%
%TF.SameCoordinates,Original*%
%TF.FileFunction,Drillmap*%
%TF.FilePolarity,Positive*%
%FSLAX45Y45*%
G04 Gerber Fmt 4.5, Leading zero omitted, Abs format (unit mm)*
G04 Created by KiCad (PCBNEW 6.0.11-2627ca5db0~126~ubuntu22.04.1) date 2024-03-16 21:37:13*
%MOMM*%
%LPD*%
G01*
G04 APERTURE LIST*
%ADD10C,0.100000*%
%ADD11C,0.200000*%
%ADD12C,0.050000*%
%ADD13C,0.150000*%
%ADD14C,0.170000*%
%ADD15C,0.180000*%
%ADD16C,0.330000*%
%ADD17C,0.400000*%
G04 APERTURE END LIST*
D10*
X10200000Y-13600000D02*
X10200000Y-4700000D01*
X13100000Y-13600000D02*
X13100000Y-13200000D01*
X19500000Y-13600000D02*
X19500000Y-4700000D01*
X13100000Y-8800000D02*
G75*
G03*
X13300000Y-8800000I100000J0D01*
G01*
X13700000Y-4300000D02*
G75*
G03*
X13300000Y-4700000I0J-400000D01*
G01*
X13300000Y-5500000D02*
X13300000Y-8800000D01*
X13300000Y-5500000D02*
G75*
G03*
X13100000Y-5500000I-100000J0D01*
G01*
X19120000Y-14000003D02*
G75*
G03*
X19500000Y-13600000I-20530J400004D01*
G01*
X10600000Y-4300000D02*
G75*
G03*
X10200000Y-4700000I0J-400000D01*
G01*
X19100000Y-4300000D02*
X13700000Y-4300000D01*
X10200000Y-13600000D02*
G75*
G03*
X10600000Y-14000000I400000J0D01*
G01*
X13100000Y-4700000D02*
X13100000Y-5100000D01*
X13300000Y-9200000D02*
G75*
G03*
X13100000Y-9200000I-100000J0D01*
G01*
X12700000Y-14000000D02*
X10600000Y-14000000D01*
X13100000Y-9200000D02*
X13100000Y-12800000D01*
X13300000Y-13600000D02*
X13300000Y-13200000D01*
X13300000Y-13200000D02*
G75*
G03*
X13100000Y-13200000I-100000J0D01*
G01*
X13100000Y-5100000D02*
G75*
G03*
X13300000Y-5100000I100000J0D01*
G01*
X13300000Y-9200000D02*
X13300000Y-12800000D01*
X13300000Y-4700000D02*
X13300000Y-5100000D01*
X10600000Y-4300000D02*
X12700000Y-4300000D01*
X13300000Y-13600000D02*
G75*
G03*
X13700000Y-14000000I400000J0D01*
G01*
X13100000Y-8800000D02*
X13100000Y-5500000D01*
X12700000Y-14000000D02*
G75*
G03*
X13100000Y-13600000I0J400000D01*
G01*
X13100000Y-12800000D02*
G75*
G03*
X13300000Y-12800000I100000J0D01*
G01*
X13700000Y-14000000D02*
X19120000Y-14000000D01*
X13100000Y-4700000D02*
G75*
G03*
X12700000Y-4300000I-400000J0D01*
G01*
X19500000Y-4700000D02*
G75*
G03*
X19100000Y-4300000I-400000J0D01*
G01*
D11*
D12*
X13100000Y-5200000D02*
X13150000Y-5250000D01*
X13150000Y-5200000D02*
X13100000Y-5250000D01*
X13100000Y-5275000D02*
X13150000Y-5325000D01*
X13150000Y-5275000D02*
X13100000Y-5325000D01*
X13100000Y-5350000D02*
X13150000Y-5400000D01*
X13150000Y-5350000D02*
X13100000Y-5400000D01*
X13100000Y-8900000D02*
X13150000Y-8950000D01*
X13150000Y-8900000D02*
X13100000Y-8950000D01*
X13100000Y-8975000D02*
X13150000Y-9025000D01*
X13150000Y-8975000D02*
X13100000Y-9025000D01*
X13100000Y-9050000D02*
X13150000Y-9100000D01*
X13150000Y-9050000D02*
X13100000Y-9100000D01*
X13100000Y-12900000D02*
X13150000Y-12950000D01*
X13150000Y-12900000D02*
X13100000Y-12950000D01*
X13100000Y-12975000D02*
X13150000Y-13025000D01*
X13150000Y-12975000D02*
X13100000Y-13025000D01*
X13100000Y-13050000D02*
X13150000Y-13100000D01*
X13150000Y-13050000D02*
X13100000Y-13100000D01*
X13250000Y-5200000D02*
X13300000Y-5250000D01*
X13300000Y-5200000D02*
X13250000Y-5250000D01*
X13250000Y-5275000D02*
X13300000Y-5325000D01*
X13300000Y-5275000D02*
X13250000Y-5325000D01*
X13250000Y-5350000D02*
X13300000Y-5400000D01*
X13300000Y-5350000D02*
X13250000Y-5400000D01*
X13250000Y-8900000D02*
X13300000Y-8950000D01*
X13300000Y-8900000D02*
X13250000Y-8950000D01*
X13250000Y-8975000D02*
X13300000Y-9025000D01*
X13300000Y-8975000D02*
X13250000Y-9025000D01*
X13250000Y-9050000D02*
X13300000Y-9100000D01*
X13300000Y-9050000D02*
X13250000Y-9100000D01*
X13250000Y-12900000D02*
X13300000Y-12950000D01*
X13300000Y-12900000D02*
X13250000Y-12950000D01*
X13250000Y-12975000D02*
X13300000Y-13025000D01*
X13300000Y-12975000D02*
X13250000Y-13025000D01*
X13250000Y-13050000D02*
X13300000Y-13100000D01*
X13300000Y-13050000D02*
X13250000Y-13100000D01*
D13*
X15557000Y-4854000D02*
G75*
G03*
X15557000Y-4854000I-75000J0D01*
G01*
X16042000Y-4854000D02*
G75*
G03*
X16042000Y-4854000I-75000J0D01*
G01*
D14*
X11693000Y-6416000D02*
X11693000Y-6586000D01*
X11608000Y-6501000D02*
X11778000Y-6501000D01*
X11693000Y-7432000D02*
X11693000Y-7602000D01*
X11608000Y-7517000D02*
X11778000Y-7517000D01*
X11693000Y-8338000D02*
X11693000Y-8508000D01*
X11608000Y-8423000D02*
X11778000Y-8423000D01*
X11693000Y-9354000D02*
X11693000Y-9524000D01*
X11608000Y-9439000D02*
X11778000Y-9439000D01*
X11695000Y-10260000D02*
X11695000Y-10430000D01*
X11610000Y-10345000D02*
X11780000Y-10345000D01*
X11695000Y-11276000D02*
X11695000Y-11446000D01*
X11610000Y-11361000D02*
X11780000Y-11361000D01*
X11695000Y-12182000D02*
X11695000Y-12352000D01*
X11610000Y-12267000D02*
X11780000Y-12267000D01*
X11695000Y-13198000D02*
X11695000Y-13368000D01*
X11610000Y-13283000D02*
X11780000Y-13283000D01*
D15*
X15515640Y-4614640D02*
X15515640Y-4487360D01*
X15388360Y-4487360D01*
X15388360Y-4614640D01*
X15515640Y-4614640D01*
X16060640Y-4614640D02*
X16060640Y-4487360D01*
X15933360Y-4487360D01*
X15933360Y-4614640D01*
X16060640Y-4614640D01*
D16*
X16422500Y-10743000D02*
X16587500Y-10578000D01*
X16422500Y-10413000D01*
X16257500Y-10578000D01*
X16422500Y-10743000D01*
X16422500Y-12242000D02*
X16587500Y-12077000D01*
X16422500Y-11912000D01*
X16257500Y-12077000D01*
X16422500Y-12242000D01*
D17*
X11493000Y-6809000D02*
X11893000Y-7209000D01*
X11893000Y-6809000D02*
X11493000Y-7209000D01*
X11893000Y-7009000D02*
G75*
G03*
X11893000Y-7009000I-200000J0D01*
G01*
X11493000Y-8731000D02*
X11893000Y-9131000D01*
X11893000Y-8731000D02*
X11493000Y-9131000D01*
X11893000Y-8931000D02*
G75*
G03*
X11893000Y-8931000I-200000J0D01*
G01*
X11495000Y-10653000D02*
X11895000Y-11053000D01*
X11895000Y-10653000D02*
X11495000Y-11053000D01*
X11895000Y-10853000D02*
G75*
G03*
X11895000Y-10853000I-200000J0D01*
G01*
X11495000Y-12575000D02*
X11895000Y-12975000D01*
X11895000Y-12575000D02*
X11495000Y-12975000D01*
X11895000Y-12775000D02*
G75*
G03*
X11895000Y-12775000I-200000J0D01*
G01*
D11*
X10452619Y-14315476D02*
X10452619Y-14115476D01*
X10500238Y-14115476D01*
X10528810Y-14125000D01*
X10547857Y-14144048D01*
X10557381Y-14163095D01*
X10566905Y-14201190D01*
X10566905Y-14229762D01*
X10557381Y-14267857D01*
X10547857Y-14286905D01*
X10528810Y-14305952D01*
X10500238Y-14315476D01*
X10452619Y-14315476D01*
X10652619Y-14315476D02*
X10652619Y-14182143D01*
X10652619Y-14220238D02*
X10662143Y-14201190D01*
X10671667Y-14191667D01*
X10690714Y-14182143D01*
X10709762Y-14182143D01*
X10776429Y-14315476D02*
X10776429Y-14182143D01*
X10776429Y-14115476D02*
X10766905Y-14125000D01*
X10776429Y-14134524D01*
X10785952Y-14125000D01*
X10776429Y-14115476D01*
X10776429Y-14134524D01*
X10900238Y-14315476D02*
X10881190Y-14305952D01*
X10871667Y-14286905D01*
X10871667Y-14115476D01*
X11005000Y-14315476D02*
X10985952Y-14305952D01*
X10976429Y-14286905D01*
X10976429Y-14115476D01*
X11233571Y-14315476D02*
X11233571Y-14115476D01*
X11300238Y-14258333D01*
X11366905Y-14115476D01*
X11366905Y-14315476D01*
X11547857Y-14315476D02*
X11547857Y-14210714D01*
X11538333Y-14191667D01*
X11519286Y-14182143D01*
X11481190Y-14182143D01*
X11462143Y-14191667D01*
X11547857Y-14305952D02*
X11528809Y-14315476D01*
X11481190Y-14315476D01*
X11462143Y-14305952D01*
X11452619Y-14286905D01*
X11452619Y-14267857D01*
X11462143Y-14248809D01*
X11481190Y-14239286D01*
X11528809Y-14239286D01*
X11547857Y-14229762D01*
X11643095Y-14182143D02*
X11643095Y-14382143D01*
X11643095Y-14191667D02*
X11662143Y-14182143D01*
X11700238Y-14182143D01*
X11719286Y-14191667D01*
X11728809Y-14201190D01*
X11738333Y-14220238D01*
X11738333Y-14277381D01*
X11728809Y-14296428D01*
X11719286Y-14305952D01*
X11700238Y-14315476D01*
X11662143Y-14315476D01*
X11643095Y-14305952D01*
X11824048Y-14296428D02*
X11833571Y-14305952D01*
X11824048Y-14315476D01*
X11814524Y-14305952D01*
X11824048Y-14296428D01*
X11824048Y-14315476D01*
X11824048Y-14191667D02*
X11833571Y-14201190D01*
X11824048Y-14210714D01*
X11814524Y-14201190D01*
X11824048Y-14191667D01*
X11824048Y-14210714D01*
D12*
X10145000Y-14620000D02*
X10195000Y-14670000D01*
X10195000Y-14620000D02*
X10145000Y-14670000D01*
D11*
X10490714Y-14535476D02*
X10509762Y-14535476D01*
X10528810Y-14545000D01*
X10538333Y-14554524D01*
X10547857Y-14573571D01*
X10557381Y-14611667D01*
X10557381Y-14659286D01*
X10547857Y-14697381D01*
X10538333Y-14716428D01*
X10528810Y-14725952D01*
X10509762Y-14735476D01*
X10490714Y-14735476D01*
X10471667Y-14725952D01*
X10462143Y-14716428D01*
X10452619Y-14697381D01*
X10443095Y-14659286D01*
X10443095Y-14611667D01*
X10452619Y-14573571D01*
X10462143Y-14554524D01*
X10471667Y-14545000D01*
X10490714Y-14535476D01*
X10643095Y-14716428D02*
X10652619Y-14725952D01*
X10643095Y-14735476D01*
X10633571Y-14725952D01*
X10643095Y-14716428D01*
X10643095Y-14735476D01*
X10833571Y-14535476D02*
X10738333Y-14535476D01*
X10728810Y-14630714D01*
X10738333Y-14621190D01*
X10757381Y-14611667D01*
X10805000Y-14611667D01*
X10824048Y-14621190D01*
X10833571Y-14630714D01*
X10843095Y-14649762D01*
X10843095Y-14697381D01*
X10833571Y-14716428D01*
X10824048Y-14725952D01*
X10805000Y-14735476D01*
X10757381Y-14735476D01*
X10738333Y-14725952D01*
X10728810Y-14716428D01*
X10966905Y-14535476D02*
X10985952Y-14535476D01*
X11005000Y-14545000D01*
X11014524Y-14554524D01*
X11024048Y-14573571D01*
X11033571Y-14611667D01*
X11033571Y-14659286D01*
X11024048Y-14697381D01*
X11014524Y-14716428D01*
X11005000Y-14725952D01*
X10985952Y-14735476D01*
X10966905Y-14735476D01*
X10947857Y-14725952D01*
X10938333Y-14716428D01*
X10928810Y-14697381D01*
X10919286Y-14659286D01*
X10919286Y-14611667D01*
X10928810Y-14573571D01*
X10938333Y-14554524D01*
X10947857Y-14545000D01*
X10966905Y-14535476D01*
X11157381Y-14535476D02*
X11176429Y-14535476D01*
X11195476Y-14545000D01*
X11205000Y-14554524D01*
X11214524Y-14573571D01*
X11224048Y-14611667D01*
X11224048Y-14659286D01*
X11214524Y-14697381D01*
X11205000Y-14716428D01*
X11195476Y-14725952D01*
X11176429Y-14735476D01*
X11157381Y-14735476D01*
X11138333Y-14725952D01*
X11128810Y-14716428D01*
X11119286Y-14697381D01*
X11109762Y-14659286D01*
X11109762Y-14611667D01*
X11119286Y-14573571D01*
X11128810Y-14554524D01*
X11138333Y-14545000D01*
X11157381Y-14535476D01*
X11309762Y-14735476D02*
X11309762Y-14602143D01*
X11309762Y-14621190D02*
X11319286Y-14611667D01*
X11338333Y-14602143D01*
X11366905Y-14602143D01*
X11385952Y-14611667D01*
X11395476Y-14630714D01*
X11395476Y-14735476D01*
X11395476Y-14630714D02*
X11405000Y-14611667D01*
X11424048Y-14602143D01*
X11452619Y-14602143D01*
X11471667Y-14611667D01*
X11481190Y-14630714D01*
X11481190Y-14735476D01*
X11576428Y-14735476D02*
X11576428Y-14602143D01*
X11576428Y-14621190D02*
X11585952Y-14611667D01*
X11605000Y-14602143D01*
X11633571Y-14602143D01*
X11652619Y-14611667D01*
X11662143Y-14630714D01*
X11662143Y-14735476D01*
X11662143Y-14630714D02*
X11671667Y-14611667D01*
X11690714Y-14602143D01*
X11719286Y-14602143D01*
X11738333Y-14611667D01*
X11747857Y-14630714D01*
X11747857Y-14735476D01*
X12138333Y-14525952D02*
X11966905Y-14783095D01*
X12395476Y-14535476D02*
X12414524Y-14535476D01*
X12433571Y-14545000D01*
X12443095Y-14554524D01*
X12452619Y-14573571D01*
X12462143Y-14611667D01*
X12462143Y-14659286D01*
X12452619Y-14697381D01*
X12443095Y-14716428D01*
X12433571Y-14725952D01*
X12414524Y-14735476D01*
X12395476Y-14735476D01*
X12376428Y-14725952D01*
X12366905Y-14716428D01*
X12357381Y-14697381D01*
X12347857Y-14659286D01*
X12347857Y-14611667D01*
X12357381Y-14573571D01*
X12366905Y-14554524D01*
X12376428Y-14545000D01*
X12395476Y-14535476D01*
X12547857Y-14716428D02*
X12557381Y-14725952D01*
X12547857Y-14735476D01*
X12538333Y-14725952D01*
X12547857Y-14716428D01*
X12547857Y-14735476D01*
X12681190Y-14535476D02*
X12700238Y-14535476D01*
X12719286Y-14545000D01*
X12728809Y-14554524D01*
X12738333Y-14573571D01*
X12747857Y-14611667D01*
X12747857Y-14659286D01*
X12738333Y-14697381D01*
X12728809Y-14716428D01*
X12719286Y-14725952D01*
X12700238Y-14735476D01*
X12681190Y-14735476D01*
X12662143Y-14725952D01*
X12652619Y-14716428D01*
X12643095Y-14697381D01*
X12633571Y-14659286D01*
X12633571Y-14611667D01*
X12643095Y-14573571D01*
X12652619Y-14554524D01*
X12662143Y-14545000D01*
X12681190Y-14535476D01*
X12938333Y-14735476D02*
X12824048Y-14735476D01*
X12881190Y-14735476D02*
X12881190Y-14535476D01*
X12862143Y-14564048D01*
X12843095Y-14583095D01*
X12824048Y-14592619D01*
X13033571Y-14735476D02*
X13071667Y-14735476D01*
X13090714Y-14725952D01*
X13100238Y-14716428D01*
X13119286Y-14687857D01*
X13128809Y-14649762D01*
X13128809Y-14573571D01*
X13119286Y-14554524D01*
X13109762Y-14545000D01*
X13090714Y-14535476D01*
X13052619Y-14535476D01*
X13033571Y-14545000D01*
X13024048Y-14554524D01*
X13014524Y-14573571D01*
X13014524Y-14621190D01*
X13024048Y-14640238D01*
X13033571Y-14649762D01*
X13052619Y-14659286D01*
X13090714Y-14659286D01*
X13109762Y-14649762D01*
X13119286Y-14640238D01*
X13128809Y-14621190D01*
X13195476Y-14535476D02*
X13328809Y-14535476D01*
X13243095Y-14735476D01*
X13395476Y-14535476D02*
X13395476Y-14573571D01*
X13471667Y-14535476D02*
X13471667Y-14573571D01*
X13766905Y-14811667D02*
X13757381Y-14802143D01*
X13738333Y-14773571D01*
X13728809Y-14754524D01*
X13719286Y-14725952D01*
X13709762Y-14678333D01*
X13709762Y-14640238D01*
X13719286Y-14592619D01*
X13728809Y-14564048D01*
X13738333Y-14545000D01*
X13757381Y-14516428D01*
X13766905Y-14506905D01*
X13947857Y-14735476D02*
X13833571Y-14735476D01*
X13890714Y-14735476D02*
X13890714Y-14535476D01*
X13871667Y-14564048D01*
X13852619Y-14583095D01*
X13833571Y-14592619D01*
X14062143Y-14621190D02*
X14043095Y-14611667D01*
X14033571Y-14602143D01*
X14024048Y-14583095D01*
X14024048Y-14573571D01*
X14033571Y-14554524D01*
X14043095Y-14545000D01*
X14062143Y-14535476D01*
X14100238Y-14535476D01*
X14119286Y-14545000D01*
X14128809Y-14554524D01*
X14138333Y-14573571D01*
X14138333Y-14583095D01*
X14128809Y-14602143D01*
X14119286Y-14611667D01*
X14100238Y-14621190D01*
X14062143Y-14621190D01*
X14043095Y-14630714D01*
X14033571Y-14640238D01*
X14024048Y-14659286D01*
X14024048Y-14697381D01*
X14033571Y-14716428D01*
X14043095Y-14725952D01*
X14062143Y-14735476D01*
X14100238Y-14735476D01*
X14119286Y-14725952D01*
X14128809Y-14716428D01*
X14138333Y-14697381D01*
X14138333Y-14659286D01*
X14128809Y-14640238D01*
X14119286Y-14630714D01*
X14100238Y-14621190D01*
X14376428Y-14735476D02*
X14376428Y-14535476D01*
X14462143Y-14735476D02*
X14462143Y-14630714D01*
X14452619Y-14611667D01*
X14433571Y-14602143D01*
X14405000Y-14602143D01*
X14385952Y-14611667D01*
X14376428Y-14621190D01*
X14585952Y-14735476D02*
X14566905Y-14725952D01*
X14557381Y-14716428D01*
X14547857Y-14697381D01*
X14547857Y-14640238D01*
X14557381Y-14621190D01*
X14566905Y-14611667D01*
X14585952Y-14602143D01*
X14614524Y-14602143D01*
X14633571Y-14611667D01*
X14643095Y-14621190D01*
X14652619Y-14640238D01*
X14652619Y-14697381D01*
X14643095Y-14716428D01*
X14633571Y-14725952D01*
X14614524Y-14735476D01*
X14585952Y-14735476D01*
X14766905Y-14735476D02*
X14747857Y-14725952D01*
X14738333Y-14706905D01*
X14738333Y-14535476D01*
X14919286Y-14725952D02*
X14900238Y-14735476D01*
X14862143Y-14735476D01*
X14843095Y-14725952D01*
X14833571Y-14706905D01*
X14833571Y-14630714D01*
X14843095Y-14611667D01*
X14862143Y-14602143D01*
X14900238Y-14602143D01*
X14919286Y-14611667D01*
X14928809Y-14630714D01*
X14928809Y-14649762D01*
X14833571Y-14668809D01*
X15005000Y-14725952D02*
X15024048Y-14735476D01*
X15062143Y-14735476D01*
X15081190Y-14725952D01*
X15090714Y-14706905D01*
X15090714Y-14697381D01*
X15081190Y-14678333D01*
X15062143Y-14668809D01*
X15033571Y-14668809D01*
X15014524Y-14659286D01*
X15005000Y-14640238D01*
X15005000Y-14630714D01*
X15014524Y-14611667D01*
X15033571Y-14602143D01*
X15062143Y-14602143D01*
X15081190Y-14611667D01*
X15157381Y-14811667D02*
X15166905Y-14802143D01*
X15185952Y-14773571D01*
X15195476Y-14754524D01*
X15205000Y-14725952D01*
X15214524Y-14678333D01*
X15214524Y-14640238D01*
X15205000Y-14592619D01*
X15195476Y-14564048D01*
X15185952Y-14545000D01*
X15166905Y-14516428D01*
X15157381Y-14506905D01*
X15519286Y-14811667D02*
X15509762Y-14802143D01*
X15490714Y-14773571D01*
X15481190Y-14754524D01*
X15471667Y-14725952D01*
X15462143Y-14678333D01*
X15462143Y-14640238D01*
X15471667Y-14592619D01*
X15481190Y-14564048D01*
X15490714Y-14545000D01*
X15509762Y-14516428D01*
X15519286Y-14506905D01*
X15595476Y-14602143D02*
X15595476Y-14735476D01*
X15595476Y-14621190D02*
X15605000Y-14611667D01*
X15624048Y-14602143D01*
X15652619Y-14602143D01*
X15671667Y-14611667D01*
X15681190Y-14630714D01*
X15681190Y-14735476D01*
X15805000Y-14735476D02*
X15785952Y-14725952D01*
X15776428Y-14716428D01*
X15766905Y-14697381D01*
X15766905Y-14640238D01*
X15776428Y-14621190D01*
X15785952Y-14611667D01*
X15805000Y-14602143D01*
X15833571Y-14602143D01*
X15852619Y-14611667D01*
X15862143Y-14621190D01*
X15871667Y-14640238D01*
X15871667Y-14697381D01*
X15862143Y-14716428D01*
X15852619Y-14725952D01*
X15833571Y-14735476D01*
X15805000Y-14735476D01*
X15928809Y-14602143D02*
X16005000Y-14602143D01*
X15957381Y-14535476D02*
X15957381Y-14706905D01*
X15966905Y-14725952D01*
X15985952Y-14735476D01*
X16005000Y-14735476D01*
X16224048Y-14602143D02*
X16224048Y-14802143D01*
X16224048Y-14611667D02*
X16243095Y-14602143D01*
X16281190Y-14602143D01*
X16300238Y-14611667D01*
X16309762Y-14621190D01*
X16319286Y-14640238D01*
X16319286Y-14697381D01*
X16309762Y-14716428D01*
X16300238Y-14725952D01*
X16281190Y-14735476D01*
X16243095Y-14735476D01*
X16224048Y-14725952D01*
X16433571Y-14735476D02*
X16414524Y-14725952D01*
X16405000Y-14706905D01*
X16405000Y-14535476D01*
X16595476Y-14735476D02*
X16595476Y-14630714D01*
X16585952Y-14611667D01*
X16566905Y-14602143D01*
X16528809Y-14602143D01*
X16509762Y-14611667D01*
X16595476Y-14725952D02*
X16576428Y-14735476D01*
X16528809Y-14735476D01*
X16509762Y-14725952D01*
X16500238Y-14706905D01*
X16500238Y-14687857D01*
X16509762Y-14668809D01*
X16528809Y-14659286D01*
X16576428Y-14659286D01*
X16595476Y-14649762D01*
X16662143Y-14602143D02*
X16738333Y-14602143D01*
X16690714Y-14535476D02*
X16690714Y-14706905D01*
X16700238Y-14725952D01*
X16719286Y-14735476D01*
X16738333Y-14735476D01*
X16881190Y-14725952D02*
X16862143Y-14735476D01*
X16824048Y-14735476D01*
X16805000Y-14725952D01*
X16795476Y-14706905D01*
X16795476Y-14630714D01*
X16805000Y-14611667D01*
X16824048Y-14602143D01*
X16862143Y-14602143D01*
X16881190Y-14611667D01*
X16890714Y-14630714D01*
X16890714Y-14649762D01*
X16795476Y-14668809D01*
X17062143Y-14735476D02*
X17062143Y-14535476D01*
X17062143Y-14725952D02*
X17043095Y-14735476D01*
X17005000Y-14735476D01*
X16985952Y-14725952D01*
X16976429Y-14716428D01*
X16966905Y-14697381D01*
X16966905Y-14640238D01*
X16976429Y-14621190D01*
X16985952Y-14611667D01*
X17005000Y-14602143D01*
X17043095Y-14602143D01*
X17062143Y-14611667D01*
X17138333Y-14811667D02*
X17147857Y-14802143D01*
X17166905Y-14773571D01*
X17176429Y-14754524D01*
X17185952Y-14725952D01*
X17195476Y-14678333D01*
X17195476Y-14640238D01*
X17185952Y-14592619D01*
X17176429Y-14564048D01*
X17166905Y-14545000D01*
X17147857Y-14516428D01*
X17138333Y-14506905D01*
D13*
X10195000Y-14909000D02*
G75*
G03*
X10195000Y-14909000I-75000J0D01*
G01*
D11*
X10557381Y-14999476D02*
X10443095Y-14999476D01*
X10500238Y-14999476D02*
X10500238Y-14799476D01*
X10481190Y-14828048D01*
X10462143Y-14847095D01*
X10443095Y-14856619D01*
X10643095Y-14980428D02*
X10652619Y-14989952D01*
X10643095Y-14999476D01*
X10633571Y-14989952D01*
X10643095Y-14980428D01*
X10643095Y-14999476D01*
X10833571Y-14799476D02*
X10738333Y-14799476D01*
X10728810Y-14894714D01*
X10738333Y-14885190D01*
X10757381Y-14875667D01*
X10805000Y-14875667D01*
X10824048Y-14885190D01*
X10833571Y-14894714D01*
X10843095Y-14913762D01*
X10843095Y-14961381D01*
X10833571Y-14980428D01*
X10824048Y-14989952D01*
X10805000Y-14999476D01*
X10757381Y-14999476D01*
X10738333Y-14989952D01*
X10728810Y-14980428D01*
X10966905Y-14799476D02*
X10985952Y-14799476D01*
X11005000Y-14809000D01*
X11014524Y-14818524D01*
X11024048Y-14837571D01*
X11033571Y-14875667D01*
X11033571Y-14923286D01*
X11024048Y-14961381D01*
X11014524Y-14980428D01*
X11005000Y-14989952D01*
X10985952Y-14999476D01*
X10966905Y-14999476D01*
X10947857Y-14989952D01*
X10938333Y-14980428D01*
X10928810Y-14961381D01*
X10919286Y-14923286D01*
X10919286Y-14875667D01*
X10928810Y-14837571D01*
X10938333Y-14818524D01*
X10947857Y-14809000D01*
X10966905Y-14799476D01*
X11157381Y-14799476D02*
X11176429Y-14799476D01*
X11195476Y-14809000D01*
X11205000Y-14818524D01*
X11214524Y-14837571D01*
X11224048Y-14875667D01*
X11224048Y-14923286D01*
X11214524Y-14961381D01*
X11205000Y-14980428D01*
X11195476Y-14989952D01*
X11176429Y-14999476D01*
X11157381Y-14999476D01*
X11138333Y-14989952D01*
X11128810Y-14980428D01*
X11119286Y-14961381D01*
X11109762Y-14923286D01*
X11109762Y-14875667D01*
X11119286Y-14837571D01*
X11128810Y-14818524D01*
X11138333Y-14809000D01*
X11157381Y-14799476D01*
X11309762Y-14999476D02*
X11309762Y-14866143D01*
X11309762Y-14885190D02*
X11319286Y-14875667D01*
X11338333Y-14866143D01*
X11366905Y-14866143D01*
X11385952Y-14875667D01*
X11395476Y-14894714D01*
X11395476Y-14999476D01*
X11395476Y-14894714D02*
X11405000Y-14875667D01*
X11424048Y-14866143D01*
X11452619Y-14866143D01*
X11471667Y-14875667D01*
X11481190Y-14894714D01*
X11481190Y-14999476D01*
X11576428Y-14999476D02*
X11576428Y-14866143D01*
X11576428Y-14885190D02*
X11585952Y-14875667D01*
X11605000Y-14866143D01*
X11633571Y-14866143D01*
X11652619Y-14875667D01*
X11662143Y-14894714D01*
X11662143Y-14999476D01*
X11662143Y-14894714D02*
X11671667Y-14875667D01*
X11690714Y-14866143D01*
X11719286Y-14866143D01*
X11738333Y-14875667D01*
X11747857Y-14894714D01*
X11747857Y-14999476D01*
X12138333Y-14789952D02*
X11966905Y-15047095D01*
X12395476Y-14799476D02*
X12414524Y-14799476D01*
X12433571Y-14809000D01*
X12443095Y-14818524D01*
X12452619Y-14837571D01*
X12462143Y-14875667D01*
X12462143Y-14923286D01*
X12452619Y-14961381D01*
X12443095Y-14980428D01*
X12433571Y-14989952D01*
X12414524Y-14999476D01*
X12395476Y-14999476D01*
X12376428Y-14989952D01*
X12366905Y-14980428D01*
X12357381Y-14961381D01*
X12347857Y-14923286D01*
X12347857Y-14875667D01*
X12357381Y-14837571D01*
X12366905Y-14818524D01*
X12376428Y-14809000D01*
X12395476Y-14799476D01*
X12547857Y-14980428D02*
X12557381Y-14989952D01*
X12547857Y-14999476D01*
X12538333Y-14989952D01*
X12547857Y-14980428D01*
X12547857Y-14999476D01*
X12681190Y-14799476D02*
X12700238Y-14799476D01*
X12719286Y-14809000D01*
X12728809Y-14818524D01*
X12738333Y-14837571D01*
X12747857Y-14875667D01*
X12747857Y-14923286D01*
X12738333Y-14961381D01*
X12728809Y-14980428D01*
X12719286Y-14989952D01*
X12700238Y-14999476D01*
X12681190Y-14999476D01*
X12662143Y-14989952D01*
X12652619Y-14980428D01*
X12643095Y-14961381D01*
X12633571Y-14923286D01*
X12633571Y-14875667D01*
X12643095Y-14837571D01*
X12652619Y-14818524D01*
X12662143Y-14809000D01*
X12681190Y-14799476D01*
X12928809Y-14799476D02*
X12833571Y-14799476D01*
X12824048Y-14894714D01*
X12833571Y-14885190D01*
X12852619Y-14875667D01*
X12900238Y-14875667D01*
X12919286Y-14885190D01*
X12928809Y-14894714D01*
X12938333Y-14913762D01*
X12938333Y-14961381D01*
X12928809Y-14980428D01*
X12919286Y-14989952D01*
X12900238Y-14999476D01*
X12852619Y-14999476D01*
X12833571Y-14989952D01*
X12824048Y-14980428D01*
X13033571Y-14999476D02*
X13071667Y-14999476D01*
X13090714Y-14989952D01*
X13100238Y-14980428D01*
X13119286Y-14951857D01*
X13128809Y-14913762D01*
X13128809Y-14837571D01*
X13119286Y-14818524D01*
X13109762Y-14809000D01*
X13090714Y-14799476D01*
X13052619Y-14799476D01*
X13033571Y-14809000D01*
X13024048Y-14818524D01*
X13014524Y-14837571D01*
X13014524Y-14885190D01*
X13024048Y-14904238D01*
X13033571Y-14913762D01*
X13052619Y-14923286D01*
X13090714Y-14923286D01*
X13109762Y-14913762D01*
X13119286Y-14904238D01*
X13128809Y-14885190D01*
X13319286Y-14999476D02*
X13205000Y-14999476D01*
X13262143Y-14999476D02*
X13262143Y-14799476D01*
X13243095Y-14828048D01*
X13224048Y-14847095D01*
X13205000Y-14856619D01*
X13395476Y-14799476D02*
X13395476Y-14837571D01*
X13471667Y-14799476D02*
X13471667Y-14837571D01*
X13766905Y-15075667D02*
X13757381Y-15066143D01*
X13738333Y-15037571D01*
X13728809Y-15018524D01*
X13719286Y-14989952D01*
X13709762Y-14942333D01*
X13709762Y-14904238D01*
X13719286Y-14856619D01*
X13728809Y-14828048D01*
X13738333Y-14809000D01*
X13757381Y-14780428D01*
X13766905Y-14770905D01*
X13833571Y-14818524D02*
X13843095Y-14809000D01*
X13862143Y-14799476D01*
X13909762Y-14799476D01*
X13928809Y-14809000D01*
X13938333Y-14818524D01*
X13947857Y-14837571D01*
X13947857Y-14856619D01*
X13938333Y-14885190D01*
X13824048Y-14999476D01*
X13947857Y-14999476D01*
X14185952Y-14999476D02*
X14185952Y-14799476D01*
X14271667Y-14999476D02*
X14271667Y-14894714D01*
X14262143Y-14875667D01*
X14243095Y-14866143D01*
X14214524Y-14866143D01*
X14195476Y-14875667D01*
X14185952Y-14885190D01*
X14395476Y-14999476D02*
X14376428Y-14989952D01*
X14366905Y-14980428D01*
X14357381Y-14961381D01*
X14357381Y-14904238D01*
X14366905Y-14885190D01*
X14376428Y-14875667D01*
X14395476Y-14866143D01*
X14424048Y-14866143D01*
X14443095Y-14875667D01*
X14452619Y-14885190D01*
X14462143Y-14904238D01*
X14462143Y-14961381D01*
X14452619Y-14980428D01*
X14443095Y-14989952D01*
X14424048Y-14999476D01*
X14395476Y-14999476D01*
X14576428Y-14999476D02*
X14557381Y-14989952D01*
X14547857Y-14970905D01*
X14547857Y-14799476D01*
X14728809Y-14989952D02*
X14709762Y-14999476D01*
X14671667Y-14999476D01*
X14652619Y-14989952D01*
X14643095Y-14970905D01*
X14643095Y-14894714D01*
X14652619Y-14875667D01*
X14671667Y-14866143D01*
X14709762Y-14866143D01*
X14728809Y-14875667D01*
X14738333Y-14894714D01*
X14738333Y-14913762D01*
X14643095Y-14932809D01*
X14814524Y-14989952D02*
X14833571Y-14999476D01*
X14871667Y-14999476D01*
X14890714Y-14989952D01*
X14900238Y-14970905D01*
X14900238Y-14961381D01*
X14890714Y-14942333D01*
X14871667Y-14932809D01*
X14843095Y-14932809D01*
X14824048Y-14923286D01*
X14814524Y-14904238D01*
X14814524Y-14894714D01*
X14824048Y-14875667D01*
X14843095Y-14866143D01*
X14871667Y-14866143D01*
X14890714Y-14875667D01*
X14966905Y-15075667D02*
X14976428Y-15066143D01*
X14995476Y-15037571D01*
X15005000Y-15018524D01*
X15014524Y-14989952D01*
X15024048Y-14942333D01*
X15024048Y-14904238D01*
X15014524Y-14856619D01*
X15005000Y-14828048D01*
X14995476Y-14809000D01*
X14976428Y-14780428D01*
X14966905Y-14770905D01*
X15328809Y-15075667D02*
X15319286Y-15066143D01*
X15300238Y-15037571D01*
X15290714Y-15018524D01*
X15281190Y-14989952D01*
X15271667Y-14942333D01*
X15271667Y-14904238D01*
X15281190Y-14856619D01*
X15290714Y-14828048D01*
X15300238Y-14809000D01*
X15319286Y-14780428D01*
X15328809Y-14770905D01*
X15405000Y-14866143D02*
X15405000Y-14999476D01*
X15405000Y-14885190D02*
X15414524Y-14875667D01*
X15433571Y-14866143D01*
X15462143Y-14866143D01*
X15481190Y-14875667D01*
X15490714Y-14894714D01*
X15490714Y-14999476D01*
X15614524Y-14999476D02*
X15595476Y-14989952D01*
X15585952Y-14980428D01*
X15576428Y-14961381D01*
X15576428Y-14904238D01*
X15585952Y-14885190D01*
X15595476Y-14875667D01*
X15614524Y-14866143D01*
X15643095Y-14866143D01*
X15662143Y-14875667D01*
X15671667Y-14885190D01*
X15681190Y-14904238D01*
X15681190Y-14961381D01*
X15671667Y-14980428D01*
X15662143Y-14989952D01*
X15643095Y-14999476D01*
X15614524Y-14999476D01*
X15738333Y-14866143D02*
X15814524Y-14866143D01*
X15766905Y-14799476D02*
X15766905Y-14970905D01*
X15776428Y-14989952D01*
X15795476Y-14999476D01*
X15814524Y-14999476D01*
X16033571Y-14866143D02*
X16033571Y-15066143D01*
X16033571Y-14875667D02*
X16052619Y-14866143D01*
X16090714Y-14866143D01*
X16109762Y-14875667D01*
X16119286Y-14885190D01*
X16128809Y-14904238D01*
X16128809Y-14961381D01*
X16119286Y-14980428D01*
X16109762Y-14989952D01*
X16090714Y-14999476D01*
X16052619Y-14999476D01*
X16033571Y-14989952D01*
X16243095Y-14999476D02*
X16224048Y-14989952D01*
X16214524Y-14970905D01*
X16214524Y-14799476D01*
X16405000Y-14999476D02*
X16405000Y-14894714D01*
X16395476Y-14875667D01*
X16376428Y-14866143D01*
X16338333Y-14866143D01*
X16319286Y-14875667D01*
X16405000Y-14989952D02*
X16385952Y-14999476D01*
X16338333Y-14999476D01*
X16319286Y-14989952D01*
X16309762Y-14970905D01*
X16309762Y-14951857D01*
X16319286Y-14932809D01*
X16338333Y-14923286D01*
X16385952Y-14923286D01*
X16405000Y-14913762D01*
X16471667Y-14866143D02*
X16547857Y-14866143D01*
X16500238Y-14799476D02*
X16500238Y-14970905D01*
X16509762Y-14989952D01*
X16528809Y-14999476D01*
X16547857Y-14999476D01*
X16690714Y-14989952D02*
X16671667Y-14999476D01*
X16633571Y-14999476D01*
X16614524Y-14989952D01*
X16605000Y-14970905D01*
X16605000Y-14894714D01*
X16614524Y-14875667D01*
X16633571Y-14866143D01*
X16671667Y-14866143D01*
X16690714Y-14875667D01*
X16700238Y-14894714D01*
X16700238Y-14913762D01*
X16605000Y-14932809D01*
X16871667Y-14999476D02*
X16871667Y-14799476D01*
X16871667Y-14989952D02*
X16852619Y-14999476D01*
X16814524Y-14999476D01*
X16795476Y-14989952D01*
X16785952Y-14980428D01*
X16776428Y-14961381D01*
X16776428Y-14904238D01*
X16785952Y-14885190D01*
X16795476Y-14875667D01*
X16814524Y-14866143D01*
X16852619Y-14866143D01*
X16871667Y-14875667D01*
X16947857Y-15075667D02*
X16957381Y-15066143D01*
X16976429Y-15037571D01*
X16985952Y-15018524D01*
X16995476Y-14989952D01*
X17005000Y-14942333D01*
X17005000Y-14904238D01*
X16995476Y-14856619D01*
X16985952Y-14828048D01*
X16976429Y-14809000D01*
X16957381Y-14780428D01*
X16947857Y-14770905D01*
D14*
X10110000Y-15094000D02*
X10110000Y-15264000D01*
X10025000Y-15179000D02*
X10195000Y-15179000D01*
D11*
X10557381Y-15269476D02*
X10443095Y-15269476D01*
X10500238Y-15269476D02*
X10500238Y-15069476D01*
X10481190Y-15098048D01*
X10462143Y-15117095D01*
X10443095Y-15126619D01*
X10643095Y-15250428D02*
X10652619Y-15259952D01*
X10643095Y-15269476D01*
X10633571Y-15259952D01*
X10643095Y-15250428D01*
X10643095Y-15269476D01*
X10719286Y-15069476D02*
X10852619Y-15069476D01*
X10766905Y-15269476D01*
X10966905Y-15069476D02*
X10985952Y-15069476D01*
X11005000Y-15079000D01*
X11014524Y-15088524D01*
X11024048Y-15107571D01*
X11033571Y-15145667D01*
X11033571Y-15193286D01*
X11024048Y-15231381D01*
X11014524Y-15250428D01*
X11005000Y-15259952D01*
X10985952Y-15269476D01*
X10966905Y-15269476D01*
X10947857Y-15259952D01*
X10938333Y-15250428D01*
X10928810Y-15231381D01*
X10919286Y-15193286D01*
X10919286Y-15145667D01*
X10928810Y-15107571D01*
X10938333Y-15088524D01*
X10947857Y-15079000D01*
X10966905Y-15069476D01*
X11157381Y-15069476D02*
X11176429Y-15069476D01*
X11195476Y-15079000D01*
X11205000Y-15088524D01*
X11214524Y-15107571D01*
X11224048Y-15145667D01*
X11224048Y-15193286D01*
X11214524Y-15231381D01*
X11205000Y-15250428D01*
X11195476Y-15259952D01*
X11176429Y-15269476D01*
X11157381Y-15269476D01*
X11138333Y-15259952D01*
X11128810Y-15250428D01*
X11119286Y-15231381D01*
X11109762Y-15193286D01*
X11109762Y-15145667D01*
X11119286Y-15107571D01*
X11128810Y-15088524D01*
X11138333Y-15079000D01*
X11157381Y-15069476D01*
X11309762Y-15269476D02*
X11309762Y-15136143D01*
X11309762Y-15155190D02*
X11319286Y-15145667D01*
X11338333Y-15136143D01*
X11366905Y-15136143D01*
X11385952Y-15145667D01*
X11395476Y-15164714D01*
X11395476Y-15269476D01*
X11395476Y-15164714D02*
X11405000Y-15145667D01*
X11424048Y-15136143D01*
X11452619Y-15136143D01*
X11471667Y-15145667D01*
X11481190Y-15164714D01*
X11481190Y-15269476D01*
X11576428Y-15269476D02*
X11576428Y-15136143D01*
X11576428Y-15155190D02*
X11585952Y-15145667D01*
X11605000Y-15136143D01*
X11633571Y-15136143D01*
X11652619Y-15145667D01*
X11662143Y-15164714D01*
X11662143Y-15269476D01*
X11662143Y-15164714D02*
X11671667Y-15145667D01*
X11690714Y-15136143D01*
X11719286Y-15136143D01*
X11738333Y-15145667D01*
X11747857Y-15164714D01*
X11747857Y-15269476D01*
X12138333Y-15059952D02*
X11966905Y-15317095D01*
X12395476Y-15069476D02*
X12414524Y-15069476D01*
X12433571Y-15079000D01*
X12443095Y-15088524D01*
X12452619Y-15107571D01*
X12462143Y-15145667D01*
X12462143Y-15193286D01*
X12452619Y-15231381D01*
X12443095Y-15250428D01*
X12433571Y-15259952D01*
X12414524Y-15269476D01*
X12395476Y-15269476D01*
X12376428Y-15259952D01*
X12366905Y-15250428D01*
X12357381Y-15231381D01*
X12347857Y-15193286D01*
X12347857Y-15145667D01*
X12357381Y-15107571D01*
X12366905Y-15088524D01*
X12376428Y-15079000D01*
X12395476Y-15069476D01*
X12547857Y-15250428D02*
X12557381Y-15259952D01*
X12547857Y-15269476D01*
X12538333Y-15259952D01*
X12547857Y-15250428D01*
X12547857Y-15269476D01*
X12681190Y-15069476D02*
X12700238Y-15069476D01*
X12719286Y-15079000D01*
X12728809Y-15088524D01*
X12738333Y-15107571D01*
X12747857Y-15145667D01*
X12747857Y-15193286D01*
X12738333Y-15231381D01*
X12728809Y-15250428D01*
X12719286Y-15259952D01*
X12700238Y-15269476D01*
X12681190Y-15269476D01*
X12662143Y-15259952D01*
X12652619Y-15250428D01*
X12643095Y-15231381D01*
X12633571Y-15193286D01*
X12633571Y-15145667D01*
X12643095Y-15107571D01*
X12652619Y-15088524D01*
X12662143Y-15079000D01*
X12681190Y-15069476D01*
X12919286Y-15069476D02*
X12881190Y-15069476D01*
X12862143Y-15079000D01*
X12852619Y-15088524D01*
X12833571Y-15117095D01*
X12824048Y-15155190D01*
X12824048Y-15231381D01*
X12833571Y-15250428D01*
X12843095Y-15259952D01*
X12862143Y-15269476D01*
X12900238Y-15269476D01*
X12919286Y-15259952D01*
X12928809Y-15250428D01*
X12938333Y-15231381D01*
X12938333Y-15183762D01*
X12928809Y-15164714D01*
X12919286Y-15155190D01*
X12900238Y-15145667D01*
X12862143Y-15145667D01*
X12843095Y-15155190D01*
X12833571Y-15164714D01*
X12824048Y-15183762D01*
X13109762Y-15069476D02*
X13071667Y-15069476D01*
X13052619Y-15079000D01*
X13043095Y-15088524D01*
X13024048Y-15117095D01*
X13014524Y-15155190D01*
X13014524Y-15231381D01*
X13024048Y-15250428D01*
X13033571Y-15259952D01*
X13052619Y-15269476D01*
X13090714Y-15269476D01*
X13109762Y-15259952D01*
X13119286Y-15250428D01*
X13128809Y-15231381D01*
X13128809Y-15183762D01*
X13119286Y-15164714D01*
X13109762Y-15155190D01*
X13090714Y-15145667D01*
X13052619Y-15145667D01*
X13033571Y-15155190D01*
X13024048Y-15164714D01*
X13014524Y-15183762D01*
X13224048Y-15269476D02*
X13262143Y-15269476D01*
X13281190Y-15259952D01*
X13290714Y-15250428D01*
X13309762Y-15221857D01*
X13319286Y-15183762D01*
X13319286Y-15107571D01*
X13309762Y-15088524D01*
X13300238Y-15079000D01*
X13281190Y-15069476D01*
X13243095Y-15069476D01*
X13224048Y-15079000D01*
X13214524Y-15088524D01*
X13205000Y-15107571D01*
X13205000Y-15155190D01*
X13214524Y-15174238D01*
X13224048Y-15183762D01*
X13243095Y-15193286D01*
X13281190Y-15193286D01*
X13300238Y-15183762D01*
X13309762Y-15174238D01*
X13319286Y-15155190D01*
X13395476Y-15069476D02*
X13395476Y-15107571D01*
X13471667Y-15069476D02*
X13471667Y-15107571D01*
X13766905Y-15345667D02*
X13757381Y-15336143D01*
X13738333Y-15307571D01*
X13728809Y-15288524D01*
X13719286Y-15259952D01*
X13709762Y-15212333D01*
X13709762Y-15174238D01*
X13719286Y-15126619D01*
X13728809Y-15098048D01*
X13738333Y-15079000D01*
X13757381Y-15050428D01*
X13766905Y-15040905D01*
X13871667Y-15155190D02*
X13852619Y-15145667D01*
X13843095Y-15136143D01*
X13833571Y-15117095D01*
X13833571Y-15107571D01*
X13843095Y-15088524D01*
X13852619Y-15079000D01*
X13871667Y-15069476D01*
X13909762Y-15069476D01*
X13928809Y-15079000D01*
X13938333Y-15088524D01*
X13947857Y-15107571D01*
X13947857Y-15117095D01*
X13938333Y-15136143D01*
X13928809Y-15145667D01*
X13909762Y-15155190D01*
X13871667Y-15155190D01*
X13852619Y-15164714D01*
X13843095Y-15174238D01*
X13833571Y-15193286D01*
X13833571Y-15231381D01*
X13843095Y-15250428D01*
X13852619Y-15259952D01*
X13871667Y-15269476D01*
X13909762Y-15269476D01*
X13928809Y-15259952D01*
X13938333Y-15250428D01*
X13947857Y-15231381D01*
X13947857Y-15193286D01*
X13938333Y-15174238D01*
X13928809Y-15164714D01*
X13909762Y-15155190D01*
X14185952Y-15269476D02*
X14185952Y-15069476D01*
X14271667Y-15269476D02*
X14271667Y-15164714D01*
X14262143Y-15145667D01*
X14243095Y-15136143D01*
X14214524Y-15136143D01*
X14195476Y-15145667D01*
X14185952Y-15155190D01*
X14395476Y-15269476D02*
X14376428Y-15259952D01*
X14366905Y-15250428D01*
X14357381Y-15231381D01*
X14357381Y-15174238D01*
X14366905Y-15155190D01*
X14376428Y-15145667D01*
X14395476Y-15136143D01*
X14424048Y-15136143D01*
X14443095Y-15145667D01*
X14452619Y-15155190D01*
X14462143Y-15174238D01*
X14462143Y-15231381D01*
X14452619Y-15250428D01*
X14443095Y-15259952D01*
X14424048Y-15269476D01*
X14395476Y-15269476D01*
X14576428Y-15269476D02*
X14557381Y-15259952D01*
X14547857Y-15240905D01*
X14547857Y-15069476D01*
X14728809Y-15259952D02*
X14709762Y-15269476D01*
X14671667Y-15269476D01*
X14652619Y-15259952D01*
X14643095Y-15240905D01*
X14643095Y-15164714D01*
X14652619Y-15145667D01*
X14671667Y-15136143D01*
X14709762Y-15136143D01*
X14728809Y-15145667D01*
X14738333Y-15164714D01*
X14738333Y-15183762D01*
X14643095Y-15202809D01*
X14814524Y-15259952D02*
X14833571Y-15269476D01*
X14871667Y-15269476D01*
X14890714Y-15259952D01*
X14900238Y-15240905D01*
X14900238Y-15231381D01*
X14890714Y-15212333D01*
X14871667Y-15202809D01*
X14843095Y-15202809D01*
X14824048Y-15193286D01*
X14814524Y-15174238D01*
X14814524Y-15164714D01*
X14824048Y-15145667D01*
X14843095Y-15136143D01*
X14871667Y-15136143D01*
X14890714Y-15145667D01*
X14966905Y-15345667D02*
X14976428Y-15336143D01*
X14995476Y-15307571D01*
X15005000Y-15288524D01*
X15014524Y-15259952D01*
X15024048Y-15212333D01*
X15024048Y-15174238D01*
X15014524Y-15126619D01*
X15005000Y-15098048D01*
X14995476Y-15079000D01*
X14976428Y-15050428D01*
X14966905Y-15040905D01*
X15328809Y-15345667D02*
X15319286Y-15336143D01*
X15300238Y-15307571D01*
X15290714Y-15288524D01*
X15281190Y-15259952D01*
X15271667Y-15212333D01*
X15271667Y-15174238D01*
X15281190Y-15126619D01*
X15290714Y-15098048D01*
X15300238Y-15079000D01*
X15319286Y-15050428D01*
X15328809Y-15040905D01*
X15405000Y-15136143D02*
X15405000Y-15269476D01*
X15405000Y-15155190D02*
X15414524Y-15145667D01*
X15433571Y-15136143D01*
X15462143Y-15136143D01*
X15481190Y-15145667D01*
X15490714Y-15164714D01*
X15490714Y-15269476D01*
X15614524Y-15269476D02*
X15595476Y-15259952D01*
X15585952Y-15250428D01*
X15576428Y-15231381D01*
X15576428Y-15174238D01*
X15585952Y-15155190D01*
X15595476Y-15145667D01*
X15614524Y-15136143D01*
X15643095Y-15136143D01*
X15662143Y-15145667D01*
X15671667Y-15155190D01*
X15681190Y-15174238D01*
X15681190Y-15231381D01*
X15671667Y-15250428D01*
X15662143Y-15259952D01*
X15643095Y-15269476D01*
X15614524Y-15269476D01*
X15738333Y-15136143D02*
X15814524Y-15136143D01*
X15766905Y-15069476D02*
X15766905Y-15240905D01*
X15776428Y-15259952D01*
X15795476Y-15269476D01*
X15814524Y-15269476D01*
X16033571Y-15136143D02*
X16033571Y-15336143D01*
X16033571Y-15145667D02*
X16052619Y-15136143D01*
X16090714Y-15136143D01*
X16109762Y-15145667D01*
X16119286Y-15155190D01*
X16128809Y-15174238D01*
X16128809Y-15231381D01*
X16119286Y-15250428D01*
X16109762Y-15259952D01*
X16090714Y-15269476D01*
X16052619Y-15269476D01*
X16033571Y-15259952D01*
X16243095Y-15269476D02*
X16224048Y-15259952D01*
X16214524Y-15240905D01*
X16214524Y-15069476D01*
X16405000Y-15269476D02*
X16405000Y-15164714D01*
X16395476Y-15145667D01*
X16376428Y-15136143D01*
X16338333Y-15136143D01*
X16319286Y-15145667D01*
X16405000Y-15259952D02*
X16385952Y-15269476D01*
X16338333Y-15269476D01*
X16319286Y-15259952D01*
X16309762Y-15240905D01*
X16309762Y-15221857D01*
X16319286Y-15202809D01*
X16338333Y-15193286D01*
X16385952Y-15193286D01*
X16405000Y-15183762D01*
X16471667Y-15136143D02*
X16547857Y-15136143D01*
X16500238Y-15069476D02*
X16500238Y-15240905D01*
X16509762Y-15259952D01*
X16528809Y-15269476D01*
X16547857Y-15269476D01*
X16690714Y-15259952D02*
X16671667Y-15269476D01*
X16633571Y-15269476D01*
X16614524Y-15259952D01*
X16605000Y-15240905D01*
X16605000Y-15164714D01*
X16614524Y-15145667D01*
X16633571Y-15136143D01*
X16671667Y-15136143D01*
X16690714Y-15145667D01*
X16700238Y-15164714D01*
X16700238Y-15183762D01*
X16605000Y-15202809D01*
X16871667Y-15269476D02*
X16871667Y-15069476D01*
X16871667Y-15259952D02*
X16852619Y-15269476D01*
X16814524Y-15269476D01*
X16795476Y-15259952D01*
X16785952Y-15250428D01*
X16776428Y-15231381D01*
X16776428Y-15174238D01*
X16785952Y-15155190D01*
X16795476Y-15145667D01*
X16814524Y-15136143D01*
X16852619Y-15136143D01*
X16871667Y-15145667D01*
X16947857Y-15345667D02*
X16957381Y-15336143D01*
X16976429Y-15307571D01*
X16985952Y-15288524D01*
X16995476Y-15259952D01*
X17005000Y-15212333D01*
X17005000Y-15174238D01*
X16995476Y-15126619D01*
X16985952Y-15098048D01*
X16976429Y-15079000D01*
X16957381Y-15050428D01*
X16947857Y-15040905D01*
D15*
X10168640Y-15532640D02*
X10168640Y-15405360D01*
X10041360Y-15405360D01*
X10041360Y-15532640D01*
X10168640Y-15532640D01*
D11*
X10557381Y-15559476D02*
X10443095Y-15559476D01*
X10500238Y-15559476D02*
X10500238Y-15359476D01*
X10481190Y-15388048D01*
X10462143Y-15407095D01*
X10443095Y-15416619D01*
X10643095Y-15540428D02*
X10652619Y-15549952D01*
X10643095Y-15559476D01*
X10633571Y-15549952D01*
X10643095Y-15540428D01*
X10643095Y-15559476D01*
X10766905Y-15445190D02*
X10747857Y-15435667D01*
X10738333Y-15426143D01*
X10728810Y-15407095D01*
X10728810Y-15397571D01*
X10738333Y-15378524D01*
X10747857Y-15369000D01*
X10766905Y-15359476D01*
X10805000Y-15359476D01*
X10824048Y-15369000D01*
X10833571Y-15378524D01*
X10843095Y-15397571D01*
X10843095Y-15407095D01*
X10833571Y-15426143D01*
X10824048Y-15435667D01*
X10805000Y-15445190D01*
X10766905Y-15445190D01*
X10747857Y-15454714D01*
X10738333Y-15464238D01*
X10728810Y-15483286D01*
X10728810Y-15521381D01*
X10738333Y-15540428D01*
X10747857Y-15549952D01*
X10766905Y-15559476D01*
X10805000Y-15559476D01*
X10824048Y-15549952D01*
X10833571Y-15540428D01*
X10843095Y-15521381D01*
X10843095Y-15483286D01*
X10833571Y-15464238D01*
X10824048Y-15454714D01*
X10805000Y-15445190D01*
X10966905Y-15359476D02*
X10985952Y-15359476D01*
X11005000Y-15369000D01*
X11014524Y-15378524D01*
X11024048Y-15397571D01*
X11033571Y-15435667D01*
X11033571Y-15483286D01*
X11024048Y-15521381D01*
X11014524Y-15540428D01*
X11005000Y-15549952D01*
X10985952Y-15559476D01*
X10966905Y-15559476D01*
X10947857Y-15549952D01*
X10938333Y-15540428D01*
X10928810Y-15521381D01*
X10919286Y-15483286D01*
X10919286Y-15435667D01*
X10928810Y-15397571D01*
X10938333Y-15378524D01*
X10947857Y-15369000D01*
X10966905Y-15359476D01*
X11157381Y-15359476D02*
X11176429Y-15359476D01*
X11195476Y-15369000D01*
X11205000Y-15378524D01*
X11214524Y-15397571D01*
X11224048Y-15435667D01*
X11224048Y-15483286D01*
X11214524Y-15521381D01*
X11205000Y-15540428D01*
X11195476Y-15549952D01*
X11176429Y-15559476D01*
X11157381Y-15559476D01*
X11138333Y-15549952D01*
X11128810Y-15540428D01*
X11119286Y-15521381D01*
X11109762Y-15483286D01*
X11109762Y-15435667D01*
X11119286Y-15397571D01*
X11128810Y-15378524D01*
X11138333Y-15369000D01*
X11157381Y-15359476D01*
X11309762Y-15559476D02*
X11309762Y-15426143D01*
X11309762Y-15445190D02*
X11319286Y-15435667D01*
X11338333Y-15426143D01*
X11366905Y-15426143D01*
X11385952Y-15435667D01*
X11395476Y-15454714D01*
X11395476Y-15559476D01*
X11395476Y-15454714D02*
X11405000Y-15435667D01*
X11424048Y-15426143D01*
X11452619Y-15426143D01*
X11471667Y-15435667D01*
X11481190Y-15454714D01*
X11481190Y-15559476D01*
X11576428Y-15559476D02*
X11576428Y-15426143D01*
X11576428Y-15445190D02*
X11585952Y-15435667D01*
X11605000Y-15426143D01*
X11633571Y-15426143D01*
X11652619Y-15435667D01*
X11662143Y-15454714D01*
X11662143Y-15559476D01*
X11662143Y-15454714D02*
X11671667Y-15435667D01*
X11690714Y-15426143D01*
X11719286Y-15426143D01*
X11738333Y-15435667D01*
X11747857Y-15454714D01*
X11747857Y-15559476D01*
X12138333Y-15349952D02*
X11966905Y-15607095D01*
X12395476Y-15359476D02*
X12414524Y-15359476D01*
X12433571Y-15369000D01*
X12443095Y-15378524D01*
X12452619Y-15397571D01*
X12462143Y-15435667D01*
X12462143Y-15483286D01*
X12452619Y-15521381D01*
X12443095Y-15540428D01*
X12433571Y-15549952D01*
X12414524Y-15559476D01*
X12395476Y-15559476D01*
X12376428Y-15549952D01*
X12366905Y-15540428D01*
X12357381Y-15521381D01*
X12347857Y-15483286D01*
X12347857Y-15435667D01*
X12357381Y-15397571D01*
X12366905Y-15378524D01*
X12376428Y-15369000D01*
X12395476Y-15359476D01*
X12547857Y-15540428D02*
X12557381Y-15549952D01*
X12547857Y-15559476D01*
X12538333Y-15549952D01*
X12547857Y-15540428D01*
X12547857Y-15559476D01*
X12681190Y-15359476D02*
X12700238Y-15359476D01*
X12719286Y-15369000D01*
X12728809Y-15378524D01*
X12738333Y-15397571D01*
X12747857Y-15435667D01*
X12747857Y-15483286D01*
X12738333Y-15521381D01*
X12728809Y-15540428D01*
X12719286Y-15549952D01*
X12700238Y-15559476D01*
X12681190Y-15559476D01*
X12662143Y-15549952D01*
X12652619Y-15540428D01*
X12643095Y-15521381D01*
X12633571Y-15483286D01*
X12633571Y-15435667D01*
X12643095Y-15397571D01*
X12652619Y-15378524D01*
X12662143Y-15369000D01*
X12681190Y-15359476D01*
X12814524Y-15359476D02*
X12947857Y-15359476D01*
X12862143Y-15559476D01*
X13062143Y-15359476D02*
X13081190Y-15359476D01*
X13100238Y-15369000D01*
X13109762Y-15378524D01*
X13119286Y-15397571D01*
X13128809Y-15435667D01*
X13128809Y-15483286D01*
X13119286Y-15521381D01*
X13109762Y-15540428D01*
X13100238Y-15549952D01*
X13081190Y-15559476D01*
X13062143Y-15559476D01*
X13043095Y-15549952D01*
X13033571Y-15540428D01*
X13024048Y-15521381D01*
X13014524Y-15483286D01*
X13014524Y-15435667D01*
X13024048Y-15397571D01*
X13033571Y-15378524D01*
X13043095Y-15369000D01*
X13062143Y-15359476D01*
X13224048Y-15559476D02*
X13262143Y-15559476D01*
X13281190Y-15549952D01*
X13290714Y-15540428D01*
X13309762Y-15511857D01*
X13319286Y-15473762D01*
X13319286Y-15397571D01*
X13309762Y-15378524D01*
X13300238Y-15369000D01*
X13281190Y-15359476D01*
X13243095Y-15359476D01*
X13224048Y-15369000D01*
X13214524Y-15378524D01*
X13205000Y-15397571D01*
X13205000Y-15445190D01*
X13214524Y-15464238D01*
X13224048Y-15473762D01*
X13243095Y-15483286D01*
X13281190Y-15483286D01*
X13300238Y-15473762D01*
X13309762Y-15464238D01*
X13319286Y-15445190D01*
X13395476Y-15359476D02*
X13395476Y-15397571D01*
X13471667Y-15359476D02*
X13471667Y-15397571D01*
X13766905Y-15635667D02*
X13757381Y-15626143D01*
X13738333Y-15597571D01*
X13728809Y-15578524D01*
X13719286Y-15549952D01*
X13709762Y-15502333D01*
X13709762Y-15464238D01*
X13719286Y-15416619D01*
X13728809Y-15388048D01*
X13738333Y-15369000D01*
X13757381Y-15340428D01*
X13766905Y-15330905D01*
X13833571Y-15378524D02*
X13843095Y-15369000D01*
X13862143Y-15359476D01*
X13909762Y-15359476D01*
X13928809Y-15369000D01*
X13938333Y-15378524D01*
X13947857Y-15397571D01*
X13947857Y-15416619D01*
X13938333Y-15445190D01*
X13824048Y-15559476D01*
X13947857Y-15559476D01*
X14185952Y-15559476D02*
X14185952Y-15359476D01*
X14271667Y-15559476D02*
X14271667Y-15454714D01*
X14262143Y-15435667D01*
X14243095Y-15426143D01*
X14214524Y-15426143D01*
X14195476Y-15435667D01*
X14185952Y-15445190D01*
X14395476Y-15559476D02*
X14376428Y-15549952D01*
X14366905Y-15540428D01*
X14357381Y-15521381D01*
X14357381Y-15464238D01*
X14366905Y-15445190D01*
X14376428Y-15435667D01*
X14395476Y-15426143D01*
X14424048Y-15426143D01*
X14443095Y-15435667D01*
X14452619Y-15445190D01*
X14462143Y-15464238D01*
X14462143Y-15521381D01*
X14452619Y-15540428D01*
X14443095Y-15549952D01*
X14424048Y-15559476D01*
X14395476Y-15559476D01*
X14576428Y-15559476D02*
X14557381Y-15549952D01*
X14547857Y-15530905D01*
X14547857Y-15359476D01*
X14728809Y-15549952D02*
X14709762Y-15559476D01*
X14671667Y-15559476D01*
X14652619Y-15549952D01*
X14643095Y-15530905D01*
X14643095Y-15454714D01*
X14652619Y-15435667D01*
X14671667Y-15426143D01*
X14709762Y-15426143D01*
X14728809Y-15435667D01*
X14738333Y-15454714D01*
X14738333Y-15473762D01*
X14643095Y-15492809D01*
X14814524Y-15549952D02*
X14833571Y-15559476D01*
X14871667Y-15559476D01*
X14890714Y-15549952D01*
X14900238Y-15530905D01*
X14900238Y-15521381D01*
X14890714Y-15502333D01*
X14871667Y-15492809D01*
X14843095Y-15492809D01*
X14824048Y-15483286D01*
X14814524Y-15464238D01*
X14814524Y-15454714D01*
X14824048Y-15435667D01*
X14843095Y-15426143D01*
X14871667Y-15426143D01*
X14890714Y-15435667D01*
X14966905Y-15635667D02*
X14976428Y-15626143D01*
X14995476Y-15597571D01*
X15005000Y-15578524D01*
X15014524Y-15549952D01*
X15024048Y-15502333D01*
X15024048Y-15464238D01*
X15014524Y-15416619D01*
X15005000Y-15388048D01*
X14995476Y-15369000D01*
X14976428Y-15340428D01*
X14966905Y-15330905D01*
X15328809Y-15635667D02*
X15319286Y-15626143D01*
X15300238Y-15597571D01*
X15290714Y-15578524D01*
X15281190Y-15549952D01*
X15271667Y-15502333D01*
X15271667Y-15464238D01*
X15281190Y-15416619D01*
X15290714Y-15388048D01*
X15300238Y-15369000D01*
X15319286Y-15340428D01*
X15328809Y-15330905D01*
X15405000Y-15426143D02*
X15405000Y-15559476D01*
X15405000Y-15445190D02*
X15414524Y-15435667D01*
X15433571Y-15426143D01*
X15462143Y-15426143D01*
X15481190Y-15435667D01*
X15490714Y-15454714D01*
X15490714Y-15559476D01*
X15614524Y-15559476D02*
X15595476Y-15549952D01*
X15585952Y-15540428D01*
X15576428Y-15521381D01*
X15576428Y-15464238D01*
X15585952Y-15445190D01*
X15595476Y-15435667D01*
X15614524Y-15426143D01*
X15643095Y-15426143D01*
X15662143Y-15435667D01*
X15671667Y-15445190D01*
X15681190Y-15464238D01*
X15681190Y-15521381D01*
X15671667Y-15540428D01*
X15662143Y-15549952D01*
X15643095Y-15559476D01*
X15614524Y-15559476D01*
X15738333Y-15426143D02*
X15814524Y-15426143D01*
X15766905Y-15359476D02*
X15766905Y-15530905D01*
X15776428Y-15549952D01*
X15795476Y-15559476D01*
X15814524Y-15559476D01*
X16033571Y-15426143D02*
X16033571Y-15626143D01*
X16033571Y-15435667D02*
X16052619Y-15426143D01*
X16090714Y-15426143D01*
X16109762Y-15435667D01*
X16119286Y-15445190D01*
X16128809Y-15464238D01*
X16128809Y-15521381D01*
X16119286Y-15540428D01*
X16109762Y-15549952D01*
X16090714Y-15559476D01*
X16052619Y-15559476D01*
X16033571Y-15549952D01*
X16243095Y-15559476D02*
X16224048Y-15549952D01*
X16214524Y-15530905D01*
X16214524Y-15359476D01*
X16405000Y-15559476D02*
X16405000Y-15454714D01*
X16395476Y-15435667D01*
X16376428Y-15426143D01*
X16338333Y-15426143D01*
X16319286Y-15435667D01*
X16405000Y-15549952D02*
X16385952Y-15559476D01*
X16338333Y-15559476D01*
X16319286Y-15549952D01*
X16309762Y-15530905D01*
X16309762Y-15511857D01*
X16319286Y-15492809D01*
X16338333Y-15483286D01*
X16385952Y-15483286D01*
X16405000Y-15473762D01*
X16471667Y-15426143D02*
X16547857Y-15426143D01*
X16500238Y-15359476D02*
X16500238Y-15530905D01*
X16509762Y-15549952D01*
X16528809Y-15559476D01*
X16547857Y-15559476D01*
X16690714Y-15549952D02*
X16671667Y-15559476D01*
X16633571Y-15559476D01*
X16614524Y-15549952D01*
X16605000Y-15530905D01*
X16605000Y-15454714D01*
X16614524Y-15435667D01*
X16633571Y-15426143D01*
X16671667Y-15426143D01*
X16690714Y-15435667D01*
X16700238Y-15454714D01*
X16700238Y-15473762D01*
X16605000Y-15492809D01*
X16871667Y-15559476D02*
X16871667Y-15359476D01*
X16871667Y-15549952D02*
X16852619Y-15559476D01*
X16814524Y-15559476D01*
X16795476Y-15549952D01*
X16785952Y-15540428D01*
X16776428Y-15521381D01*
X16776428Y-15464238D01*
X16785952Y-15445190D01*
X16795476Y-15435667D01*
X16814524Y-15426143D01*
X16852619Y-15426143D01*
X16871667Y-15435667D01*
X16947857Y-15635667D02*
X16957381Y-15626143D01*
X16976429Y-15597571D01*
X16985952Y-15578524D01*
X16995476Y-15549952D01*
X17005000Y-15502333D01*
X17005000Y-15464238D01*
X16995476Y-15416619D01*
X16985952Y-15388048D01*
X16976429Y-15369000D01*
X16957381Y-15340428D01*
X16947857Y-15330905D01*
X10095000Y-15869000D02*
X10195000Y-15769000D01*
X10095000Y-15669000D01*
X9995000Y-15769000D01*
X10095000Y-15869000D01*
X10433571Y-15659476D02*
X10557381Y-15659476D01*
X10490714Y-15735667D01*
X10519286Y-15735667D01*
X10538333Y-15745190D01*
X10547857Y-15754714D01*
X10557381Y-15773762D01*
X10557381Y-15821381D01*
X10547857Y-15840428D01*
X10538333Y-15849952D01*
X10519286Y-15859476D01*
X10462143Y-15859476D01*
X10443095Y-15849952D01*
X10433571Y-15840428D01*
X10643095Y-15840428D02*
X10652619Y-15849952D01*
X10643095Y-15859476D01*
X10633571Y-15849952D01*
X10643095Y-15840428D01*
X10643095Y-15859476D01*
X10719286Y-15659476D02*
X10843095Y-15659476D01*
X10776429Y-15735667D01*
X10805000Y-15735667D01*
X10824048Y-15745190D01*
X10833571Y-15754714D01*
X10843095Y-15773762D01*
X10843095Y-15821381D01*
X10833571Y-15840428D01*
X10824048Y-15849952D01*
X10805000Y-15859476D01*
X10747857Y-15859476D01*
X10728810Y-15849952D01*
X10719286Y-15840428D01*
X10966905Y-15659476D02*
X10985952Y-15659476D01*
X11005000Y-15669000D01*
X11014524Y-15678524D01*
X11024048Y-15697571D01*
X11033571Y-15735667D01*
X11033571Y-15783286D01*
X11024048Y-15821381D01*
X11014524Y-15840428D01*
X11005000Y-15849952D01*
X10985952Y-15859476D01*
X10966905Y-15859476D01*
X10947857Y-15849952D01*
X10938333Y-15840428D01*
X10928810Y-15821381D01*
X10919286Y-15783286D01*
X10919286Y-15735667D01*
X10928810Y-15697571D01*
X10938333Y-15678524D01*
X10947857Y-15669000D01*
X10966905Y-15659476D01*
X11157381Y-15659476D02*
X11176429Y-15659476D01*
X11195476Y-15669000D01*
X11205000Y-15678524D01*
X11214524Y-15697571D01*
X11224048Y-15735667D01*
X11224048Y-15783286D01*
X11214524Y-15821381D01*
X11205000Y-15840428D01*
X11195476Y-15849952D01*
X11176429Y-15859476D01*
X11157381Y-15859476D01*
X11138333Y-15849952D01*
X11128810Y-15840428D01*
X11119286Y-15821381D01*
X11109762Y-15783286D01*
X11109762Y-15735667D01*
X11119286Y-15697571D01*
X11128810Y-15678524D01*
X11138333Y-15669000D01*
X11157381Y-15659476D01*
X11309762Y-15859476D02*
X11309762Y-15726143D01*
X11309762Y-15745190D02*
X11319286Y-15735667D01*
X11338333Y-15726143D01*
X11366905Y-15726143D01*
X11385952Y-15735667D01*
X11395476Y-15754714D01*
X11395476Y-15859476D01*
X11395476Y-15754714D02*
X11405000Y-15735667D01*
X11424048Y-15726143D01*
X11452619Y-15726143D01*
X11471667Y-15735667D01*
X11481190Y-15754714D01*
X11481190Y-15859476D01*
X11576428Y-15859476D02*
X11576428Y-15726143D01*
X11576428Y-15745190D02*
X11585952Y-15735667D01*
X11605000Y-15726143D01*
X11633571Y-15726143D01*
X11652619Y-15735667D01*
X11662143Y-15754714D01*
X11662143Y-15859476D01*
X11662143Y-15754714D02*
X11671667Y-15735667D01*
X11690714Y-15726143D01*
X11719286Y-15726143D01*
X11738333Y-15735667D01*
X11747857Y-15754714D01*
X11747857Y-15859476D01*
X12138333Y-15649952D02*
X11966905Y-15907095D01*
X12395476Y-15659476D02*
X12414524Y-15659476D01*
X12433571Y-15669000D01*
X12443095Y-15678524D01*
X12452619Y-15697571D01*
X12462143Y-15735667D01*
X12462143Y-15783286D01*
X12452619Y-15821381D01*
X12443095Y-15840428D01*
X12433571Y-15849952D01*
X12414524Y-15859476D01*
X12395476Y-15859476D01*
X12376428Y-15849952D01*
X12366905Y-15840428D01*
X12357381Y-15821381D01*
X12347857Y-15783286D01*
X12347857Y-15735667D01*
X12357381Y-15697571D01*
X12366905Y-15678524D01*
X12376428Y-15669000D01*
X12395476Y-15659476D01*
X12547857Y-15840428D02*
X12557381Y-15849952D01*
X12547857Y-15859476D01*
X12538333Y-15849952D01*
X12547857Y-15840428D01*
X12547857Y-15859476D01*
X12747857Y-15859476D02*
X12633571Y-15859476D01*
X12690714Y-15859476D02*
X12690714Y-15659476D01*
X12671667Y-15688048D01*
X12652619Y-15707095D01*
X12633571Y-15716619D01*
X12824048Y-15678524D02*
X12833571Y-15669000D01*
X12852619Y-15659476D01*
X12900238Y-15659476D01*
X12919286Y-15669000D01*
X12928809Y-15678524D01*
X12938333Y-15697571D01*
X12938333Y-15716619D01*
X12928809Y-15745190D01*
X12814524Y-15859476D01*
X12938333Y-15859476D01*
X13033571Y-15859476D02*
X13071667Y-15859476D01*
X13090714Y-15849952D01*
X13100238Y-15840428D01*
X13119286Y-15811857D01*
X13128809Y-15773762D01*
X13128809Y-15697571D01*
X13119286Y-15678524D01*
X13109762Y-15669000D01*
X13090714Y-15659476D01*
X13052619Y-15659476D01*
X13033571Y-15669000D01*
X13024048Y-15678524D01*
X13014524Y-15697571D01*
X13014524Y-15745190D01*
X13024048Y-15764238D01*
X13033571Y-15773762D01*
X13052619Y-15783286D01*
X13090714Y-15783286D01*
X13109762Y-15773762D01*
X13119286Y-15764238D01*
X13128809Y-15745190D01*
X13224048Y-15859476D02*
X13262143Y-15859476D01*
X13281190Y-15849952D01*
X13290714Y-15840428D01*
X13309762Y-15811857D01*
X13319286Y-15773762D01*
X13319286Y-15697571D01*
X13309762Y-15678524D01*
X13300238Y-15669000D01*
X13281190Y-15659476D01*
X13243095Y-15659476D01*
X13224048Y-15669000D01*
X13214524Y-15678524D01*
X13205000Y-15697571D01*
X13205000Y-15745190D01*
X13214524Y-15764238D01*
X13224048Y-15773762D01*
X13243095Y-15783286D01*
X13281190Y-15783286D01*
X13300238Y-15773762D01*
X13309762Y-15764238D01*
X13319286Y-15745190D01*
X13395476Y-15659476D02*
X13395476Y-15697571D01*
X13471667Y-15659476D02*
X13471667Y-15697571D01*
X13766905Y-15935667D02*
X13757381Y-15926143D01*
X13738333Y-15897571D01*
X13728809Y-15878524D01*
X13719286Y-15849952D01*
X13709762Y-15802333D01*
X13709762Y-15764238D01*
X13719286Y-15716619D01*
X13728809Y-15688048D01*
X13738333Y-15669000D01*
X13757381Y-15640428D01*
X13766905Y-15630905D01*
X13833571Y-15678524D02*
X13843095Y-15669000D01*
X13862143Y-15659476D01*
X13909762Y-15659476D01*
X13928809Y-15669000D01*
X13938333Y-15678524D01*
X13947857Y-15697571D01*
X13947857Y-15716619D01*
X13938333Y-15745190D01*
X13824048Y-15859476D01*
X13947857Y-15859476D01*
X14185952Y-15859476D02*
X14185952Y-15659476D01*
X14271667Y-15859476D02*
X14271667Y-15754714D01*
X14262143Y-15735667D01*
X14243095Y-15726143D01*
X14214524Y-15726143D01*
X14195476Y-15735667D01*
X14185952Y-15745190D01*
X14395476Y-15859476D02*
X14376428Y-15849952D01*
X14366905Y-15840428D01*
X14357381Y-15821381D01*
X14357381Y-15764238D01*
X14366905Y-15745190D01*
X14376428Y-15735667D01*
X14395476Y-15726143D01*
X14424048Y-15726143D01*
X14443095Y-15735667D01*
X14452619Y-15745190D01*
X14462143Y-15764238D01*
X14462143Y-15821381D01*
X14452619Y-15840428D01*
X14443095Y-15849952D01*
X14424048Y-15859476D01*
X14395476Y-15859476D01*
X14576428Y-15859476D02*
X14557381Y-15849952D01*
X14547857Y-15830905D01*
X14547857Y-15659476D01*
X14728809Y-15849952D02*
X14709762Y-15859476D01*
X14671667Y-15859476D01*
X14652619Y-15849952D01*
X14643095Y-15830905D01*
X14643095Y-15754714D01*
X14652619Y-15735667D01*
X14671667Y-15726143D01*
X14709762Y-15726143D01*
X14728809Y-15735667D01*
X14738333Y-15754714D01*
X14738333Y-15773762D01*
X14643095Y-15792809D01*
X14814524Y-15849952D02*
X14833571Y-15859476D01*
X14871667Y-15859476D01*
X14890714Y-15849952D01*
X14900238Y-15830905D01*
X14900238Y-15821381D01*
X14890714Y-15802333D01*
X14871667Y-15792809D01*
X14843095Y-15792809D01*
X14824048Y-15783286D01*
X14814524Y-15764238D01*
X14814524Y-15754714D01*
X14824048Y-15735667D01*
X14843095Y-15726143D01*
X14871667Y-15726143D01*
X14890714Y-15735667D01*
X14966905Y-15935667D02*
X14976428Y-15926143D01*
X14995476Y-15897571D01*
X15005000Y-15878524D01*
X15014524Y-15849952D01*
X15024048Y-15802333D01*
X15024048Y-15764238D01*
X15014524Y-15716619D01*
X15005000Y-15688048D01*
X14995476Y-15669000D01*
X14976428Y-15640428D01*
X14966905Y-15630905D01*
X15328809Y-15935667D02*
X15319286Y-15926143D01*
X15300238Y-15897571D01*
X15290714Y-15878524D01*
X15281190Y-15849952D01*
X15271667Y-15802333D01*
X15271667Y-15764238D01*
X15281190Y-15716619D01*
X15290714Y-15688048D01*
X15300238Y-15669000D01*
X15319286Y-15640428D01*
X15328809Y-15630905D01*
X15405000Y-15726143D02*
X15405000Y-15859476D01*
X15405000Y-15745190D02*
X15414524Y-15735667D01*
X15433571Y-15726143D01*
X15462143Y-15726143D01*
X15481190Y-15735667D01*
X15490714Y-15754714D01*
X15490714Y-15859476D01*
X15614524Y-15859476D02*
X15595476Y-15849952D01*
X15585952Y-15840428D01*
X15576428Y-15821381D01*
X15576428Y-15764238D01*
X15585952Y-15745190D01*
X15595476Y-15735667D01*
X15614524Y-15726143D01*
X15643095Y-15726143D01*
X15662143Y-15735667D01*
X15671667Y-15745190D01*
X15681190Y-15764238D01*
X15681190Y-15821381D01*
X15671667Y-15840428D01*
X15662143Y-15849952D01*
X15643095Y-15859476D01*
X15614524Y-15859476D01*
X15738333Y-15726143D02*
X15814524Y-15726143D01*
X15766905Y-15659476D02*
X15766905Y-15830905D01*
X15776428Y-15849952D01*
X15795476Y-15859476D01*
X15814524Y-15859476D01*
X16033571Y-15726143D02*
X16033571Y-15926143D01*
X16033571Y-15735667D02*
X16052619Y-15726143D01*
X16090714Y-15726143D01*
X16109762Y-15735667D01*
X16119286Y-15745190D01*
X16128809Y-15764238D01*
X16128809Y-15821381D01*
X16119286Y-15840428D01*
X16109762Y-15849952D01*
X16090714Y-15859476D01*
X16052619Y-15859476D01*
X16033571Y-15849952D01*
X16243095Y-15859476D02*
X16224048Y-15849952D01*
X16214524Y-15830905D01*
X16214524Y-15659476D01*
X16405000Y-15859476D02*
X16405000Y-15754714D01*
X16395476Y-15735667D01*
X16376428Y-15726143D01*
X16338333Y-15726143D01*
X16319286Y-15735667D01*
X16405000Y-15849952D02*
X16385952Y-15859476D01*
X16338333Y-15859476D01*
X16319286Y-15849952D01*
X16309762Y-15830905D01*
X16309762Y-15811857D01*
X16319286Y-15792809D01*
X16338333Y-15783286D01*
X16385952Y-15783286D01*
X16405000Y-15773762D01*
X16471667Y-15726143D02*
X16547857Y-15726143D01*
X16500238Y-15659476D02*
X16500238Y-15830905D01*
X16509762Y-15849952D01*
X16528809Y-15859476D01*
X16547857Y-15859476D01*
X16690714Y-15849952D02*
X16671667Y-15859476D01*
X16633571Y-15859476D01*
X16614524Y-15849952D01*
X16605000Y-15830905D01*
X16605000Y-15754714D01*
X16614524Y-15735667D01*
X16633571Y-15726143D01*
X16671667Y-15726143D01*
X16690714Y-15735667D01*
X16700238Y-15754714D01*
X16700238Y-15773762D01*
X16605000Y-15792809D01*
X16871667Y-15859476D02*
X16871667Y-15659476D01*
X16871667Y-15849952D02*
X16852619Y-15859476D01*
X16814524Y-15859476D01*
X16795476Y-15849952D01*
X16785952Y-15840428D01*
X16776428Y-15821381D01*
X16776428Y-15764238D01*
X16785952Y-15745190D01*
X16795476Y-15735667D01*
X16814524Y-15726143D01*
X16852619Y-15726143D01*
X16871667Y-15735667D01*
X16947857Y-15935667D02*
X16957381Y-15926143D01*
X16976429Y-15897571D01*
X16985952Y-15878524D01*
X16995476Y-15849952D01*
X17005000Y-15802333D01*
X17005000Y-15764238D01*
X16995476Y-15716619D01*
X16985952Y-15688048D01*
X16976429Y-15669000D01*
X16957381Y-15640428D01*
X16947857Y-15630905D01*
X9995000Y-15989000D02*
X10195000Y-16189000D01*
X10195000Y-15989000D02*
X9995000Y-16189000D01*
X10195000Y-16089000D02*
G75*
G03*
X10195000Y-16089000I-100000J0D01*
G01*
X10538333Y-16046143D02*
X10538333Y-16179476D01*
X10490714Y-15969952D02*
X10443095Y-16112809D01*
X10566905Y-16112809D01*
X10643095Y-16160428D02*
X10652619Y-16169952D01*
X10643095Y-16179476D01*
X10633571Y-16169952D01*
X10643095Y-16160428D01*
X10643095Y-16179476D01*
X10776429Y-15979476D02*
X10795476Y-15979476D01*
X10814524Y-15989000D01*
X10824048Y-15998524D01*
X10833571Y-16017571D01*
X10843095Y-16055667D01*
X10843095Y-16103286D01*
X10833571Y-16141381D01*
X10824048Y-16160428D01*
X10814524Y-16169952D01*
X10795476Y-16179476D01*
X10776429Y-16179476D01*
X10757381Y-16169952D01*
X10747857Y-16160428D01*
X10738333Y-16141381D01*
X10728810Y-16103286D01*
X10728810Y-16055667D01*
X10738333Y-16017571D01*
X10747857Y-15998524D01*
X10757381Y-15989000D01*
X10776429Y-15979476D01*
X10966905Y-15979476D02*
X10985952Y-15979476D01*
X11005000Y-15989000D01*
X11014524Y-15998524D01*
X11024048Y-16017571D01*
X11033571Y-16055667D01*
X11033571Y-16103286D01*
X11024048Y-16141381D01*
X11014524Y-16160428D01*
X11005000Y-16169952D01*
X10985952Y-16179476D01*
X10966905Y-16179476D01*
X10947857Y-16169952D01*
X10938333Y-16160428D01*
X10928810Y-16141381D01*
X10919286Y-16103286D01*
X10919286Y-16055667D01*
X10928810Y-16017571D01*
X10938333Y-15998524D01*
X10947857Y-15989000D01*
X10966905Y-15979476D01*
X11157381Y-15979476D02*
X11176429Y-15979476D01*
X11195476Y-15989000D01*
X11205000Y-15998524D01*
X11214524Y-16017571D01*
X11224048Y-16055667D01*
X11224048Y-16103286D01*
X11214524Y-16141381D01*
X11205000Y-16160428D01*
X11195476Y-16169952D01*
X11176429Y-16179476D01*
X11157381Y-16179476D01*
X11138333Y-16169952D01*
X11128810Y-16160428D01*
X11119286Y-16141381D01*
X11109762Y-16103286D01*
X11109762Y-16055667D01*
X11119286Y-16017571D01*
X11128810Y-15998524D01*
X11138333Y-15989000D01*
X11157381Y-15979476D01*
X11309762Y-16179476D02*
X11309762Y-16046143D01*
X11309762Y-16065190D02*
X11319286Y-16055667D01*
X11338333Y-16046143D01*
X11366905Y-16046143D01*
X11385952Y-16055667D01*
X11395476Y-16074714D01*
X11395476Y-16179476D01*
X11395476Y-16074714D02*
X11405000Y-16055667D01*
X11424048Y-16046143D01*
X11452619Y-16046143D01*
X11471667Y-16055667D01*
X11481190Y-16074714D01*
X11481190Y-16179476D01*
X11576428Y-16179476D02*
X11576428Y-16046143D01*
X11576428Y-16065190D02*
X11585952Y-16055667D01*
X11605000Y-16046143D01*
X11633571Y-16046143D01*
X11652619Y-16055667D01*
X11662143Y-16074714D01*
X11662143Y-16179476D01*
X11662143Y-16074714D02*
X11671667Y-16055667D01*
X11690714Y-16046143D01*
X11719286Y-16046143D01*
X11738333Y-16055667D01*
X11747857Y-16074714D01*
X11747857Y-16179476D01*
X12138333Y-15969952D02*
X11966905Y-16227095D01*
X12395476Y-15979476D02*
X12414524Y-15979476D01*
X12433571Y-15989000D01*
X12443095Y-15998524D01*
X12452619Y-16017571D01*
X12462143Y-16055667D01*
X12462143Y-16103286D01*
X12452619Y-16141381D01*
X12443095Y-16160428D01*
X12433571Y-16169952D01*
X12414524Y-16179476D01*
X12395476Y-16179476D01*
X12376428Y-16169952D01*
X12366905Y-16160428D01*
X12357381Y-16141381D01*
X12347857Y-16103286D01*
X12347857Y-16055667D01*
X12357381Y-16017571D01*
X12366905Y-15998524D01*
X12376428Y-15989000D01*
X12395476Y-15979476D01*
X12547857Y-16160428D02*
X12557381Y-16169952D01*
X12547857Y-16179476D01*
X12538333Y-16169952D01*
X12547857Y-16160428D01*
X12547857Y-16179476D01*
X12747857Y-16179476D02*
X12633571Y-16179476D01*
X12690714Y-16179476D02*
X12690714Y-15979476D01*
X12671667Y-16008048D01*
X12652619Y-16027095D01*
X12633571Y-16036619D01*
X12928809Y-15979476D02*
X12833571Y-15979476D01*
X12824048Y-16074714D01*
X12833571Y-16065190D01*
X12852619Y-16055667D01*
X12900238Y-16055667D01*
X12919286Y-16065190D01*
X12928809Y-16074714D01*
X12938333Y-16093762D01*
X12938333Y-16141381D01*
X12928809Y-16160428D01*
X12919286Y-16169952D01*
X12900238Y-16179476D01*
X12852619Y-16179476D01*
X12833571Y-16169952D01*
X12824048Y-16160428D01*
X13005000Y-15979476D02*
X13138333Y-15979476D01*
X13052619Y-16179476D01*
X13309762Y-15979476D02*
X13214524Y-15979476D01*
X13205000Y-16074714D01*
X13214524Y-16065190D01*
X13233571Y-16055667D01*
X13281190Y-16055667D01*
X13300238Y-16065190D01*
X13309762Y-16074714D01*
X13319286Y-16093762D01*
X13319286Y-16141381D01*
X13309762Y-16160428D01*
X13300238Y-16169952D01*
X13281190Y-16179476D01*
X13233571Y-16179476D01*
X13214524Y-16169952D01*
X13205000Y-16160428D01*
X13395476Y-15979476D02*
X13395476Y-16017571D01*
X13471667Y-15979476D02*
X13471667Y-16017571D01*
X13766905Y-16255667D02*
X13757381Y-16246143D01*
X13738333Y-16217571D01*
X13728809Y-16198524D01*
X13719286Y-16169952D01*
X13709762Y-16122333D01*
X13709762Y-16084238D01*
X13719286Y-16036619D01*
X13728809Y-16008048D01*
X13738333Y-15989000D01*
X13757381Y-15960428D01*
X13766905Y-15950905D01*
X13928809Y-16046143D02*
X13928809Y-16179476D01*
X13881190Y-15969952D02*
X13833571Y-16112809D01*
X13957381Y-16112809D01*
X14185952Y-16179476D02*
X14185952Y-15979476D01*
X14271667Y-16179476D02*
X14271667Y-16074714D01*
X14262143Y-16055667D01*
X14243095Y-16046143D01*
X14214524Y-16046143D01*
X14195476Y-16055667D01*
X14185952Y-16065190D01*
X14395476Y-16179476D02*
X14376428Y-16169952D01*
X14366905Y-16160428D01*
X14357381Y-16141381D01*
X14357381Y-16084238D01*
X14366905Y-16065190D01*
X14376428Y-16055667D01*
X14395476Y-16046143D01*
X14424048Y-16046143D01*
X14443095Y-16055667D01*
X14452619Y-16065190D01*
X14462143Y-16084238D01*
X14462143Y-16141381D01*
X14452619Y-16160428D01*
X14443095Y-16169952D01*
X14424048Y-16179476D01*
X14395476Y-16179476D01*
X14576428Y-16179476D02*
X14557381Y-16169952D01*
X14547857Y-16150905D01*
X14547857Y-15979476D01*
X14728809Y-16169952D02*
X14709762Y-16179476D01*
X14671667Y-16179476D01*
X14652619Y-16169952D01*
X14643095Y-16150905D01*
X14643095Y-16074714D01*
X14652619Y-16055667D01*
X14671667Y-16046143D01*
X14709762Y-16046143D01*
X14728809Y-16055667D01*
X14738333Y-16074714D01*
X14738333Y-16093762D01*
X14643095Y-16112809D01*
X14814524Y-16169952D02*
X14833571Y-16179476D01*
X14871667Y-16179476D01*
X14890714Y-16169952D01*
X14900238Y-16150905D01*
X14900238Y-16141381D01*
X14890714Y-16122333D01*
X14871667Y-16112809D01*
X14843095Y-16112809D01*
X14824048Y-16103286D01*
X14814524Y-16084238D01*
X14814524Y-16074714D01*
X14824048Y-16055667D01*
X14843095Y-16046143D01*
X14871667Y-16046143D01*
X14890714Y-16055667D01*
X14966905Y-16255667D02*
X14976428Y-16246143D01*
X14995476Y-16217571D01*
X15005000Y-16198524D01*
X15014524Y-16169952D01*
X15024048Y-16122333D01*
X15024048Y-16084238D01*
X15014524Y-16036619D01*
X15005000Y-16008048D01*
X14995476Y-15989000D01*
X14976428Y-15960428D01*
X14966905Y-15950905D01*
X15328809Y-16255667D02*
X15319286Y-16246143D01*
X15300238Y-16217571D01*
X15290714Y-16198524D01*
X15281190Y-16169952D01*
X15271667Y-16122333D01*
X15271667Y-16084238D01*
X15281190Y-16036619D01*
X15290714Y-16008048D01*
X15300238Y-15989000D01*
X15319286Y-15960428D01*
X15328809Y-15950905D01*
X15405000Y-16046143D02*
X15405000Y-16179476D01*
X15405000Y-16065190D02*
X15414524Y-16055667D01*
X15433571Y-16046143D01*
X15462143Y-16046143D01*
X15481190Y-16055667D01*
X15490714Y-16074714D01*
X15490714Y-16179476D01*
X15614524Y-16179476D02*
X15595476Y-16169952D01*
X15585952Y-16160428D01*
X15576428Y-16141381D01*
X15576428Y-16084238D01*
X15585952Y-16065190D01*
X15595476Y-16055667D01*
X15614524Y-16046143D01*
X15643095Y-16046143D01*
X15662143Y-16055667D01*
X15671667Y-16065190D01*
X15681190Y-16084238D01*
X15681190Y-16141381D01*
X15671667Y-16160428D01*
X15662143Y-16169952D01*
X15643095Y-16179476D01*
X15614524Y-16179476D01*
X15738333Y-16046143D02*
X15814524Y-16046143D01*
X15766905Y-15979476D02*
X15766905Y-16150905D01*
X15776428Y-16169952D01*
X15795476Y-16179476D01*
X15814524Y-16179476D01*
X16033571Y-16046143D02*
X16033571Y-16246143D01*
X16033571Y-16055667D02*
X16052619Y-16046143D01*
X16090714Y-16046143D01*
X16109762Y-16055667D01*
X16119286Y-16065190D01*
X16128809Y-16084238D01*
X16128809Y-16141381D01*
X16119286Y-16160428D01*
X16109762Y-16169952D01*
X16090714Y-16179476D01*
X16052619Y-16179476D01*
X16033571Y-16169952D01*
X16243095Y-16179476D02*
X16224048Y-16169952D01*
X16214524Y-16150905D01*
X16214524Y-15979476D01*
X16405000Y-16179476D02*
X16405000Y-16074714D01*
X16395476Y-16055667D01*
X16376428Y-16046143D01*
X16338333Y-16046143D01*
X16319286Y-16055667D01*
X16405000Y-16169952D02*
X16385952Y-16179476D01*
X16338333Y-16179476D01*
X16319286Y-16169952D01*
X16309762Y-16150905D01*
X16309762Y-16131857D01*
X16319286Y-16112809D01*
X16338333Y-16103286D01*
X16385952Y-16103286D01*
X16405000Y-16093762D01*
X16471667Y-16046143D02*
X16547857Y-16046143D01*
X16500238Y-15979476D02*
X16500238Y-16150905D01*
X16509762Y-16169952D01*
X16528809Y-16179476D01*
X16547857Y-16179476D01*
X16690714Y-16169952D02*
X16671667Y-16179476D01*
X16633571Y-16179476D01*
X16614524Y-16169952D01*
X16605000Y-16150905D01*
X16605000Y-16074714D01*
X16614524Y-16055667D01*
X16633571Y-16046143D01*
X16671667Y-16046143D01*
X16690714Y-16055667D01*
X16700238Y-16074714D01*
X16700238Y-16093762D01*
X16605000Y-16112809D01*
X16871667Y-16179476D02*
X16871667Y-15979476D01*
X16871667Y-16169952D02*
X16852619Y-16179476D01*
X16814524Y-16179476D01*
X16795476Y-16169952D01*
X16785952Y-16160428D01*
X16776428Y-16141381D01*
X16776428Y-16084238D01*
X16785952Y-16065190D01*
X16795476Y-16055667D01*
X16814524Y-16046143D01*
X16852619Y-16046143D01*
X16871667Y-16055667D01*
X16947857Y-16255667D02*
X16957381Y-16246143D01*
X16976429Y-16217571D01*
X16985952Y-16198524D01*
X16995476Y-16169952D01*
X17005000Y-16122333D01*
X17005000Y-16084238D01*
X16995476Y-16036619D01*
X16985952Y-16008048D01*
X16976429Y-15989000D01*
X16957381Y-15960428D01*
X16947857Y-15950905D01*
M02*
