M48
; DRILL file {KiCad 6.0.11-2627ca5db0~126~ubuntu22.04.1} date Sat 16 Mar 2024 09:37:07 PM
; FORMAT={-:-/ absolute / metric / decimal}
; #@! TF.CreationDate,2024-03-16T21:37:07-04:00
; #@! TF.GenerationSoftware,Kicad,Pcbnew,6.0.11-2627ca5db0~126~ubuntu22.04.1
; #@! TF.FileFunction,NonPlated,1,2,NPTH
FMAT,2
METRIC
; #@! TA.AperFunction,NonPlated,NPTH,ComponentDrill
T1C0.500
; #@! TA.AperFunction,NonPlated,NPTH,ComponentDrill
T2C1.500
; #@! TA.AperFunction,NonPlated,NPTH,ComponentDrill
T3C1.700
; #@! TA.AperFunction,NonPlated,NPTH,ComponentDrill
T4C1.800
; #@! TA.AperFunction,NonPlated,NPTH,ComponentDrill
T5C3.300
; #@! TA.AperFunction,NonPlated,NPTH,ComponentDrill
T6C4.000
%
G90
G05
T1
X131.25Y-52.25
X131.25Y-53.0
X131.25Y-53.75
X131.25Y-89.25
X131.25Y-90.0
X131.25Y-90.75
X131.25Y-129.25
X131.25Y-130.0
X131.25Y-130.75
X132.75Y-52.25
X132.75Y-53.0
X132.75Y-53.75
X132.75Y-89.25
X132.75Y-90.0
X132.75Y-90.75
X132.75Y-129.25
X132.75Y-130.0
X132.75Y-130.75
T2
X154.82Y-48.54
X159.67Y-48.54
T3
X116.93Y-65.01
X116.93Y-75.17
X116.93Y-84.23
X116.93Y-94.39
X116.95Y-103.45
X116.95Y-113.61
X116.95Y-122.67
X116.95Y-132.83
T4
X154.52Y-45.51
X159.97Y-45.51
T5
X164.225Y-105.78
X164.225Y-120.77
T6
X116.93Y-70.09
X116.93Y-89.31
X116.95Y-108.53
X116.95Y-127.75
T0
M30
