%TF.GenerationSoftware,KiCad,Pcbnew,6.0.11-2627ca5db0~126~ubuntu22.04.1*%
%TF.CreationDate,2024-03-11T23:12:56-04:00*%
%TF.ProjectId,board,626f6172-642e-46b6-9963-61645f706362,rev?*%
%TF.SameCoordinates,Original*%
%TF.FileFunction,Soldermask,Bot*%
%TF.FilePolarity,Negative*%
%FSLAX46Y46*%
G04 Gerber Fmt 4.6, Leading zero omitted, Abs format (unit mm)*
G04 Created by KiCad (PCBNEW 6.0.11-2627ca5db0~126~ubuntu22.04.1) date 2024-03-11 23:12:56*
%MOMM*%
%LPD*%
G01*
G04 APERTURE LIST*
%ADD10R,1.700000X1.700000*%
%ADD11O,1.700000X1.700000*%
%ADD12C,1.700000*%
%ADD13C,4.000000*%
%ADD14C,2.200000*%
%ADD15C,5.700000*%
%ADD16R,3.000000X3.000000*%
%ADD17C,3.000000*%
%ADD18C,1.524000*%
%ADD19O,3.000000X2.900000*%
%ADD20O,1.800000X1.800000*%
%ADD21O,1.500000X1.500000*%
%ADD22C,3.450000*%
G04 APERTURE END LIST*
D10*
%TO.C,J3*%
X163850000Y-91160000D03*
D11*
X161310000Y-91160000D03*
X158770000Y-91160000D03*
X156230000Y-91160000D03*
X153690000Y-91160000D03*
X151150000Y-91160000D03*
%TD*%
D12*
%TO.C,SW4*%
X176610000Y-105340000D03*
X166450000Y-105340000D03*
D13*
X171530000Y-105340000D03*
D14*
X174070000Y-100260000D03*
X167720000Y-102800000D03*
%TD*%
D15*
%TO.C,REF3*%
X212000000Y-111750000D03*
%TD*%
D12*
%TO.C,SW2*%
X157060000Y-105340000D03*
D13*
X151980000Y-105340000D03*
D12*
X146900000Y-105340000D03*
D14*
X154520000Y-100260000D03*
X148170000Y-102800000D03*
%TD*%
D16*
%TO.C,J1*%
X165890000Y-42510000D03*
D17*
X160810000Y-42510000D03*
%TD*%
D12*
%TO.C,SW5*%
X186000000Y-105340000D03*
X196160000Y-105340000D03*
D13*
X191080000Y-105340000D03*
D14*
X193620000Y-100260000D03*
X187270000Y-102800000D03*
%TD*%
D15*
%TO.C,REF4*%
X212000000Y-42000000D03*
%TD*%
%TO.C,REF1*%
X98000000Y-42000000D03*
%TD*%
D12*
%TO.C,SW1*%
X137510000Y-105340000D03*
D13*
X132430000Y-105340000D03*
D12*
X127350000Y-105340000D03*
D14*
X134970000Y-100260000D03*
X128620000Y-102800000D03*
%TD*%
D10*
%TO.C,J5*%
X160005000Y-74420000D03*
D11*
X162545000Y-74420000D03*
%TD*%
D18*
%TO.C,SW3*%
X105750000Y-103100000D03*
X105750000Y-108100000D03*
X105750000Y-105600000D03*
X120250000Y-103100000D03*
X120250000Y-108100000D03*
D19*
X113250000Y-112200000D03*
X113250000Y-99000000D03*
%TD*%
D15*
%TO.C,REF2*%
X98000000Y-111800000D03*
%TD*%
D10*
%TO.C,J4*%
X159845000Y-82080000D03*
D11*
X162385000Y-82080000D03*
%TD*%
D20*
%TO.C,U1*%
X132775000Y-40755000D03*
D21*
X133075000Y-43785000D03*
D20*
X138225000Y-40755000D03*
D21*
X137925000Y-43785000D03*
D11*
X126610000Y-40625000D03*
X126610000Y-43165000D03*
D10*
X126610000Y-45705000D03*
D11*
X126610000Y-48245000D03*
X126610000Y-50785000D03*
X126610000Y-53325000D03*
X126610000Y-55865000D03*
D10*
X126610000Y-58405000D03*
D11*
X126610000Y-60945000D03*
X126610000Y-63485000D03*
X126610000Y-66025000D03*
X126610000Y-68565000D03*
D10*
X126610000Y-71105000D03*
D11*
X126610000Y-73645000D03*
X126610000Y-76185000D03*
X126610000Y-78725000D03*
X126610000Y-81265000D03*
D10*
X126610000Y-83805000D03*
D11*
X126610000Y-86345000D03*
X126610000Y-88885000D03*
X144390000Y-88885000D03*
X144390000Y-86345000D03*
D10*
X144390000Y-83805000D03*
D11*
X144390000Y-81265000D03*
X144390000Y-78725000D03*
X144390000Y-76185000D03*
X144390000Y-73645000D03*
D10*
X144390000Y-71105000D03*
D11*
X144390000Y-68565000D03*
X144390000Y-66025000D03*
X144390000Y-63485000D03*
X144390000Y-60945000D03*
D10*
X144390000Y-58405000D03*
D11*
X144390000Y-55865000D03*
X144390000Y-53325000D03*
X144390000Y-50785000D03*
X144390000Y-48245000D03*
D10*
X144390000Y-45705000D03*
D11*
X144390000Y-43165000D03*
X144390000Y-40625000D03*
X132960000Y-88655000D03*
D10*
X135500000Y-88655000D03*
D11*
X138040000Y-88655000D03*
%TD*%
D22*
%TO.C,BT1*%
X176650000Y-67750000D03*
X200150000Y-67750000D03*
D16*
X200150000Y-44030000D03*
D17*
X187450000Y-44030000D03*
%TD*%
M02*
