%TF.GenerationSoftware,KiCad,Pcbnew,6.0.11-2627ca5db0~126~ubuntu22.04.1*%
%TF.CreationDate,2024-03-11T23:11:18-04:00*%
%TF.ProjectId,board,626f6172-642e-46b6-9963-61645f706362,rev?*%
%TF.SameCoordinates,Original*%
%TF.FileFunction,Drillmap*%
%TF.FilePolarity,Positive*%
%FSLAX45Y45*%
G04 Gerber Fmt 4.5, Leading zero omitted, Abs format (unit mm)*
G04 Created by KiCad (PCBNEW 6.0.11-2627ca5db0~126~ubuntu22.04.1) date 2024-03-11 23:11:18*
%MOMM*%
%LPD*%
G01*
G04 APERTURE LIST*
%ADD10C,0.100000*%
%ADD11C,0.200000*%
%ADD12C,0.150000*%
%ADD13C,0.170000*%
%ADD14C,0.180000*%
%ADD15C,0.345000*%
%ADD16C,0.400000*%
G04 APERTURE END LIST*
D10*
X9800000Y-3800000D02*
G75*
G03*
X9400000Y-4200000I0J-400000D01*
G01*
X21600000Y-11180000D02*
X21600000Y-4200000D01*
X21600000Y-4200000D02*
G75*
G03*
X21200000Y-3800000I-400000J0D01*
G01*
X9400000Y-4200000D02*
X9400000Y-11180000D01*
X9800000Y-11580000D02*
X21200000Y-11580000D01*
X21200000Y-11580000D02*
G75*
G03*
X21600000Y-11180000I0J400000D01*
G01*
X21200000Y-3800000D02*
X9800000Y-3800000D01*
X9400000Y-11180000D02*
G75*
G03*
X9800000Y-11580000I400000J0D01*
G01*
D11*
D12*
X13232500Y-4303500D02*
X13382500Y-4453500D01*
X13382500Y-4303500D02*
X13232500Y-4453500D01*
X13717500Y-4303500D02*
X13867500Y-4453500D01*
X13867500Y-4303500D02*
X13717500Y-4453500D01*
D13*
X12820000Y-10534000D02*
G75*
G03*
X12820000Y-10534000I-85000J0D01*
G01*
X13836000Y-10534000D02*
G75*
G03*
X13836000Y-10534000I-85000J0D01*
G01*
X14775000Y-10534000D02*
G75*
G03*
X14775000Y-10534000I-85000J0D01*
G01*
X15791000Y-10534000D02*
G75*
G03*
X15791000Y-10534000I-85000J0D01*
G01*
X16730000Y-10534000D02*
G75*
G03*
X16730000Y-10534000I-85000J0D01*
G01*
X17746000Y-10534000D02*
G75*
G03*
X17746000Y-10534000I-85000J0D01*
G01*
X18685000Y-10534000D02*
G75*
G03*
X18685000Y-10534000I-85000J0D01*
G01*
X19701000Y-10534000D02*
G75*
G03*
X19701000Y-10534000I-85000J0D01*
G01*
D14*
X13277500Y-3985500D02*
X13277500Y-4165500D01*
X13187500Y-4075500D02*
X13367500Y-4075500D01*
X13822500Y-3985500D02*
X13822500Y-4165500D01*
X13732500Y-4075500D02*
X13912500Y-4075500D01*
D15*
X17786977Y-6896977D02*
X17786977Y-6653023D01*
X17543023Y-6653023D01*
X17543023Y-6896977D01*
X17786977Y-6896977D01*
X20136977Y-6896977D02*
X20136977Y-6653023D01*
X19893023Y-6653023D01*
X19893023Y-6896977D01*
X20136977Y-6896977D01*
D16*
X13243000Y-10734000D02*
X13443000Y-10534000D01*
X13243000Y-10334000D01*
X13043000Y-10534000D01*
X13243000Y-10734000D01*
X15198000Y-10734000D02*
X15398000Y-10534000D01*
X15198000Y-10334000D01*
X14998000Y-10534000D01*
X15198000Y-10734000D01*
X17153000Y-10734000D02*
X17353000Y-10534000D01*
X17153000Y-10334000D01*
X16953000Y-10534000D01*
X17153000Y-10734000D01*
X19108000Y-10734000D02*
X19308000Y-10534000D01*
X19108000Y-10334000D01*
X18908000Y-10534000D01*
X19108000Y-10734000D01*
D11*
X9652619Y-11895476D02*
X9652619Y-11695476D01*
X9700238Y-11695476D01*
X9728810Y-11705000D01*
X9747857Y-11724048D01*
X9757381Y-11743095D01*
X9766905Y-11781190D01*
X9766905Y-11809762D01*
X9757381Y-11847857D01*
X9747857Y-11866905D01*
X9728810Y-11885952D01*
X9700238Y-11895476D01*
X9652619Y-11895476D01*
X9852619Y-11895476D02*
X9852619Y-11762143D01*
X9852619Y-11800238D02*
X9862143Y-11781190D01*
X9871667Y-11771667D01*
X9890714Y-11762143D01*
X9909762Y-11762143D01*
X9976429Y-11895476D02*
X9976429Y-11762143D01*
X9976429Y-11695476D02*
X9966905Y-11705000D01*
X9976429Y-11714524D01*
X9985952Y-11705000D01*
X9976429Y-11695476D01*
X9976429Y-11714524D01*
X10100238Y-11895476D02*
X10081190Y-11885952D01*
X10071667Y-11866905D01*
X10071667Y-11695476D01*
X10205000Y-11895476D02*
X10185952Y-11885952D01*
X10176429Y-11866905D01*
X10176429Y-11695476D01*
X10433571Y-11895476D02*
X10433571Y-11695476D01*
X10500238Y-11838333D01*
X10566905Y-11695476D01*
X10566905Y-11895476D01*
X10747857Y-11895476D02*
X10747857Y-11790714D01*
X10738333Y-11771667D01*
X10719286Y-11762143D01*
X10681190Y-11762143D01*
X10662143Y-11771667D01*
X10747857Y-11885952D02*
X10728810Y-11895476D01*
X10681190Y-11895476D01*
X10662143Y-11885952D01*
X10652619Y-11866905D01*
X10652619Y-11847857D01*
X10662143Y-11828809D01*
X10681190Y-11819286D01*
X10728810Y-11819286D01*
X10747857Y-11809762D01*
X10843095Y-11762143D02*
X10843095Y-11962143D01*
X10843095Y-11771667D02*
X10862143Y-11762143D01*
X10900238Y-11762143D01*
X10919286Y-11771667D01*
X10928810Y-11781190D01*
X10938333Y-11800238D01*
X10938333Y-11857381D01*
X10928810Y-11876428D01*
X10919286Y-11885952D01*
X10900238Y-11895476D01*
X10862143Y-11895476D01*
X10843095Y-11885952D01*
X11024048Y-11876428D02*
X11033571Y-11885952D01*
X11024048Y-11895476D01*
X11014524Y-11885952D01*
X11024048Y-11876428D01*
X11024048Y-11895476D01*
X11024048Y-11771667D02*
X11033571Y-11781190D01*
X11024048Y-11790714D01*
X11014524Y-11781190D01*
X11024048Y-11771667D01*
X11024048Y-11790714D01*
D12*
X9245000Y-12150000D02*
X9395000Y-12300000D01*
X9395000Y-12150000D02*
X9245000Y-12300000D01*
D11*
X9757381Y-12315476D02*
X9643095Y-12315476D01*
X9700238Y-12315476D02*
X9700238Y-12115476D01*
X9681190Y-12144048D01*
X9662143Y-12163095D01*
X9643095Y-12172619D01*
X9843095Y-12296428D02*
X9852619Y-12305952D01*
X9843095Y-12315476D01*
X9833571Y-12305952D01*
X9843095Y-12296428D01*
X9843095Y-12315476D01*
X10033571Y-12115476D02*
X9938333Y-12115476D01*
X9928810Y-12210714D01*
X9938333Y-12201190D01*
X9957381Y-12191667D01*
X10005000Y-12191667D01*
X10024048Y-12201190D01*
X10033571Y-12210714D01*
X10043095Y-12229762D01*
X10043095Y-12277381D01*
X10033571Y-12296428D01*
X10024048Y-12305952D01*
X10005000Y-12315476D01*
X9957381Y-12315476D01*
X9938333Y-12305952D01*
X9928810Y-12296428D01*
X10166905Y-12115476D02*
X10185952Y-12115476D01*
X10205000Y-12125000D01*
X10214524Y-12134524D01*
X10224048Y-12153571D01*
X10233571Y-12191667D01*
X10233571Y-12239286D01*
X10224048Y-12277381D01*
X10214524Y-12296428D01*
X10205000Y-12305952D01*
X10185952Y-12315476D01*
X10166905Y-12315476D01*
X10147857Y-12305952D01*
X10138333Y-12296428D01*
X10128810Y-12277381D01*
X10119286Y-12239286D01*
X10119286Y-12191667D01*
X10128810Y-12153571D01*
X10138333Y-12134524D01*
X10147857Y-12125000D01*
X10166905Y-12115476D01*
X10357381Y-12115476D02*
X10376429Y-12115476D01*
X10395476Y-12125000D01*
X10405000Y-12134524D01*
X10414524Y-12153571D01*
X10424048Y-12191667D01*
X10424048Y-12239286D01*
X10414524Y-12277381D01*
X10405000Y-12296428D01*
X10395476Y-12305952D01*
X10376429Y-12315476D01*
X10357381Y-12315476D01*
X10338333Y-12305952D01*
X10328810Y-12296428D01*
X10319286Y-12277381D01*
X10309762Y-12239286D01*
X10309762Y-12191667D01*
X10319286Y-12153571D01*
X10328810Y-12134524D01*
X10338333Y-12125000D01*
X10357381Y-12115476D01*
X10509762Y-12315476D02*
X10509762Y-12182143D01*
X10509762Y-12201190D02*
X10519286Y-12191667D01*
X10538333Y-12182143D01*
X10566905Y-12182143D01*
X10585952Y-12191667D01*
X10595476Y-12210714D01*
X10595476Y-12315476D01*
X10595476Y-12210714D02*
X10605000Y-12191667D01*
X10624048Y-12182143D01*
X10652619Y-12182143D01*
X10671667Y-12191667D01*
X10681190Y-12210714D01*
X10681190Y-12315476D01*
X10776429Y-12315476D02*
X10776429Y-12182143D01*
X10776429Y-12201190D02*
X10785952Y-12191667D01*
X10805000Y-12182143D01*
X10833571Y-12182143D01*
X10852619Y-12191667D01*
X10862143Y-12210714D01*
X10862143Y-12315476D01*
X10862143Y-12210714D02*
X10871667Y-12191667D01*
X10890714Y-12182143D01*
X10919286Y-12182143D01*
X10938333Y-12191667D01*
X10947857Y-12210714D01*
X10947857Y-12315476D01*
X11338333Y-12105952D02*
X11166905Y-12363095D01*
X11595476Y-12115476D02*
X11614524Y-12115476D01*
X11633571Y-12125000D01*
X11643095Y-12134524D01*
X11652619Y-12153571D01*
X11662143Y-12191667D01*
X11662143Y-12239286D01*
X11652619Y-12277381D01*
X11643095Y-12296428D01*
X11633571Y-12305952D01*
X11614524Y-12315476D01*
X11595476Y-12315476D01*
X11576428Y-12305952D01*
X11566905Y-12296428D01*
X11557381Y-12277381D01*
X11547857Y-12239286D01*
X11547857Y-12191667D01*
X11557381Y-12153571D01*
X11566905Y-12134524D01*
X11576428Y-12125000D01*
X11595476Y-12115476D01*
X11747857Y-12296428D02*
X11757381Y-12305952D01*
X11747857Y-12315476D01*
X11738333Y-12305952D01*
X11747857Y-12296428D01*
X11747857Y-12315476D01*
X11881190Y-12115476D02*
X11900238Y-12115476D01*
X11919286Y-12125000D01*
X11928809Y-12134524D01*
X11938333Y-12153571D01*
X11947857Y-12191667D01*
X11947857Y-12239286D01*
X11938333Y-12277381D01*
X11928809Y-12296428D01*
X11919286Y-12305952D01*
X11900238Y-12315476D01*
X11881190Y-12315476D01*
X11862143Y-12305952D01*
X11852619Y-12296428D01*
X11843095Y-12277381D01*
X11833571Y-12239286D01*
X11833571Y-12191667D01*
X11843095Y-12153571D01*
X11852619Y-12134524D01*
X11862143Y-12125000D01*
X11881190Y-12115476D01*
X12128809Y-12115476D02*
X12033571Y-12115476D01*
X12024048Y-12210714D01*
X12033571Y-12201190D01*
X12052619Y-12191667D01*
X12100238Y-12191667D01*
X12119286Y-12201190D01*
X12128809Y-12210714D01*
X12138333Y-12229762D01*
X12138333Y-12277381D01*
X12128809Y-12296428D01*
X12119286Y-12305952D01*
X12100238Y-12315476D01*
X12052619Y-12315476D01*
X12033571Y-12305952D01*
X12024048Y-12296428D01*
X12233571Y-12315476D02*
X12271667Y-12315476D01*
X12290714Y-12305952D01*
X12300238Y-12296428D01*
X12319286Y-12267857D01*
X12328809Y-12229762D01*
X12328809Y-12153571D01*
X12319286Y-12134524D01*
X12309762Y-12125000D01*
X12290714Y-12115476D01*
X12252619Y-12115476D01*
X12233571Y-12125000D01*
X12224048Y-12134524D01*
X12214524Y-12153571D01*
X12214524Y-12201190D01*
X12224048Y-12220238D01*
X12233571Y-12229762D01*
X12252619Y-12239286D01*
X12290714Y-12239286D01*
X12309762Y-12229762D01*
X12319286Y-12220238D01*
X12328809Y-12201190D01*
X12519286Y-12315476D02*
X12405000Y-12315476D01*
X12462143Y-12315476D02*
X12462143Y-12115476D01*
X12443095Y-12144048D01*
X12424048Y-12163095D01*
X12405000Y-12172619D01*
X12595476Y-12115476D02*
X12595476Y-12153571D01*
X12671667Y-12115476D02*
X12671667Y-12153571D01*
X12966905Y-12391667D02*
X12957381Y-12382143D01*
X12938333Y-12353571D01*
X12928809Y-12334524D01*
X12919286Y-12305952D01*
X12909762Y-12258333D01*
X12909762Y-12220238D01*
X12919286Y-12172619D01*
X12928809Y-12144048D01*
X12938333Y-12125000D01*
X12957381Y-12096428D01*
X12966905Y-12086905D01*
X13033571Y-12134524D02*
X13043095Y-12125000D01*
X13062143Y-12115476D01*
X13109762Y-12115476D01*
X13128809Y-12125000D01*
X13138333Y-12134524D01*
X13147857Y-12153571D01*
X13147857Y-12172619D01*
X13138333Y-12201190D01*
X13024048Y-12315476D01*
X13147857Y-12315476D01*
X13385952Y-12315476D02*
X13385952Y-12115476D01*
X13471667Y-12315476D02*
X13471667Y-12210714D01*
X13462143Y-12191667D01*
X13443095Y-12182143D01*
X13414524Y-12182143D01*
X13395476Y-12191667D01*
X13385952Y-12201190D01*
X13595476Y-12315476D02*
X13576428Y-12305952D01*
X13566905Y-12296428D01*
X13557381Y-12277381D01*
X13557381Y-12220238D01*
X13566905Y-12201190D01*
X13576428Y-12191667D01*
X13595476Y-12182143D01*
X13624048Y-12182143D01*
X13643095Y-12191667D01*
X13652619Y-12201190D01*
X13662143Y-12220238D01*
X13662143Y-12277381D01*
X13652619Y-12296428D01*
X13643095Y-12305952D01*
X13624048Y-12315476D01*
X13595476Y-12315476D01*
X13776428Y-12315476D02*
X13757381Y-12305952D01*
X13747857Y-12286905D01*
X13747857Y-12115476D01*
X13928809Y-12305952D02*
X13909762Y-12315476D01*
X13871667Y-12315476D01*
X13852619Y-12305952D01*
X13843095Y-12286905D01*
X13843095Y-12210714D01*
X13852619Y-12191667D01*
X13871667Y-12182143D01*
X13909762Y-12182143D01*
X13928809Y-12191667D01*
X13938333Y-12210714D01*
X13938333Y-12229762D01*
X13843095Y-12248809D01*
X14014524Y-12305952D02*
X14033571Y-12315476D01*
X14071667Y-12315476D01*
X14090714Y-12305952D01*
X14100238Y-12286905D01*
X14100238Y-12277381D01*
X14090714Y-12258333D01*
X14071667Y-12248809D01*
X14043095Y-12248809D01*
X14024048Y-12239286D01*
X14014524Y-12220238D01*
X14014524Y-12210714D01*
X14024048Y-12191667D01*
X14043095Y-12182143D01*
X14071667Y-12182143D01*
X14090714Y-12191667D01*
X14166905Y-12391667D02*
X14176428Y-12382143D01*
X14195476Y-12353571D01*
X14205000Y-12334524D01*
X14214524Y-12305952D01*
X14224048Y-12258333D01*
X14224048Y-12220238D01*
X14214524Y-12172619D01*
X14205000Y-12144048D01*
X14195476Y-12125000D01*
X14176428Y-12096428D01*
X14166905Y-12086905D01*
X14528809Y-12391667D02*
X14519286Y-12382143D01*
X14500238Y-12353571D01*
X14490714Y-12334524D01*
X14481190Y-12305952D01*
X14471667Y-12258333D01*
X14471667Y-12220238D01*
X14481190Y-12172619D01*
X14490714Y-12144048D01*
X14500238Y-12125000D01*
X14519286Y-12096428D01*
X14528809Y-12086905D01*
X14605000Y-12182143D02*
X14605000Y-12315476D01*
X14605000Y-12201190D02*
X14614524Y-12191667D01*
X14633571Y-12182143D01*
X14662143Y-12182143D01*
X14681190Y-12191667D01*
X14690714Y-12210714D01*
X14690714Y-12315476D01*
X14814524Y-12315476D02*
X14795476Y-12305952D01*
X14785952Y-12296428D01*
X14776428Y-12277381D01*
X14776428Y-12220238D01*
X14785952Y-12201190D01*
X14795476Y-12191667D01*
X14814524Y-12182143D01*
X14843095Y-12182143D01*
X14862143Y-12191667D01*
X14871667Y-12201190D01*
X14881190Y-12220238D01*
X14881190Y-12277381D01*
X14871667Y-12296428D01*
X14862143Y-12305952D01*
X14843095Y-12315476D01*
X14814524Y-12315476D01*
X14938333Y-12182143D02*
X15014524Y-12182143D01*
X14966905Y-12115476D02*
X14966905Y-12286905D01*
X14976428Y-12305952D01*
X14995476Y-12315476D01*
X15014524Y-12315476D01*
X15233571Y-12182143D02*
X15233571Y-12382143D01*
X15233571Y-12191667D02*
X15252619Y-12182143D01*
X15290714Y-12182143D01*
X15309762Y-12191667D01*
X15319286Y-12201190D01*
X15328809Y-12220238D01*
X15328809Y-12277381D01*
X15319286Y-12296428D01*
X15309762Y-12305952D01*
X15290714Y-12315476D01*
X15252619Y-12315476D01*
X15233571Y-12305952D01*
X15443095Y-12315476D02*
X15424048Y-12305952D01*
X15414524Y-12286905D01*
X15414524Y-12115476D01*
X15605000Y-12315476D02*
X15605000Y-12210714D01*
X15595476Y-12191667D01*
X15576428Y-12182143D01*
X15538333Y-12182143D01*
X15519286Y-12191667D01*
X15605000Y-12305952D02*
X15585952Y-12315476D01*
X15538333Y-12315476D01*
X15519286Y-12305952D01*
X15509762Y-12286905D01*
X15509762Y-12267857D01*
X15519286Y-12248809D01*
X15538333Y-12239286D01*
X15585952Y-12239286D01*
X15605000Y-12229762D01*
X15671667Y-12182143D02*
X15747857Y-12182143D01*
X15700238Y-12115476D02*
X15700238Y-12286905D01*
X15709762Y-12305952D01*
X15728809Y-12315476D01*
X15747857Y-12315476D01*
X15890714Y-12305952D02*
X15871667Y-12315476D01*
X15833571Y-12315476D01*
X15814524Y-12305952D01*
X15805000Y-12286905D01*
X15805000Y-12210714D01*
X15814524Y-12191667D01*
X15833571Y-12182143D01*
X15871667Y-12182143D01*
X15890714Y-12191667D01*
X15900238Y-12210714D01*
X15900238Y-12229762D01*
X15805000Y-12248809D01*
X16071667Y-12315476D02*
X16071667Y-12115476D01*
X16071667Y-12305952D02*
X16052619Y-12315476D01*
X16014524Y-12315476D01*
X15995476Y-12305952D01*
X15985952Y-12296428D01*
X15976428Y-12277381D01*
X15976428Y-12220238D01*
X15985952Y-12201190D01*
X15995476Y-12191667D01*
X16014524Y-12182143D01*
X16052619Y-12182143D01*
X16071667Y-12191667D01*
X16147857Y-12391667D02*
X16157381Y-12382143D01*
X16176428Y-12353571D01*
X16185952Y-12334524D01*
X16195476Y-12305952D01*
X16205000Y-12258333D01*
X16205000Y-12220238D01*
X16195476Y-12172619D01*
X16185952Y-12144048D01*
X16176428Y-12125000D01*
X16157381Y-12096428D01*
X16147857Y-12086905D01*
D13*
X9395000Y-12495000D02*
G75*
G03*
X9395000Y-12495000I-85000J0D01*
G01*
D11*
X9757381Y-12585476D02*
X9643095Y-12585476D01*
X9700238Y-12585476D02*
X9700238Y-12385476D01*
X9681190Y-12414048D01*
X9662143Y-12433095D01*
X9643095Y-12442619D01*
X9843095Y-12566428D02*
X9852619Y-12575952D01*
X9843095Y-12585476D01*
X9833571Y-12575952D01*
X9843095Y-12566428D01*
X9843095Y-12585476D01*
X9919286Y-12385476D02*
X10052619Y-12385476D01*
X9966905Y-12585476D01*
X10166905Y-12385476D02*
X10185952Y-12385476D01*
X10205000Y-12395000D01*
X10214524Y-12404524D01*
X10224048Y-12423571D01*
X10233571Y-12461667D01*
X10233571Y-12509286D01*
X10224048Y-12547381D01*
X10214524Y-12566428D01*
X10205000Y-12575952D01*
X10185952Y-12585476D01*
X10166905Y-12585476D01*
X10147857Y-12575952D01*
X10138333Y-12566428D01*
X10128810Y-12547381D01*
X10119286Y-12509286D01*
X10119286Y-12461667D01*
X10128810Y-12423571D01*
X10138333Y-12404524D01*
X10147857Y-12395000D01*
X10166905Y-12385476D01*
X10357381Y-12385476D02*
X10376429Y-12385476D01*
X10395476Y-12395000D01*
X10405000Y-12404524D01*
X10414524Y-12423571D01*
X10424048Y-12461667D01*
X10424048Y-12509286D01*
X10414524Y-12547381D01*
X10405000Y-12566428D01*
X10395476Y-12575952D01*
X10376429Y-12585476D01*
X10357381Y-12585476D01*
X10338333Y-12575952D01*
X10328810Y-12566428D01*
X10319286Y-12547381D01*
X10309762Y-12509286D01*
X10309762Y-12461667D01*
X10319286Y-12423571D01*
X10328810Y-12404524D01*
X10338333Y-12395000D01*
X10357381Y-12385476D01*
X10509762Y-12585476D02*
X10509762Y-12452143D01*
X10509762Y-12471190D02*
X10519286Y-12461667D01*
X10538333Y-12452143D01*
X10566905Y-12452143D01*
X10585952Y-12461667D01*
X10595476Y-12480714D01*
X10595476Y-12585476D01*
X10595476Y-12480714D02*
X10605000Y-12461667D01*
X10624048Y-12452143D01*
X10652619Y-12452143D01*
X10671667Y-12461667D01*
X10681190Y-12480714D01*
X10681190Y-12585476D01*
X10776429Y-12585476D02*
X10776429Y-12452143D01*
X10776429Y-12471190D02*
X10785952Y-12461667D01*
X10805000Y-12452143D01*
X10833571Y-12452143D01*
X10852619Y-12461667D01*
X10862143Y-12480714D01*
X10862143Y-12585476D01*
X10862143Y-12480714D02*
X10871667Y-12461667D01*
X10890714Y-12452143D01*
X10919286Y-12452143D01*
X10938333Y-12461667D01*
X10947857Y-12480714D01*
X10947857Y-12585476D01*
X11338333Y-12375952D02*
X11166905Y-12633095D01*
X11595476Y-12385476D02*
X11614524Y-12385476D01*
X11633571Y-12395000D01*
X11643095Y-12404524D01*
X11652619Y-12423571D01*
X11662143Y-12461667D01*
X11662143Y-12509286D01*
X11652619Y-12547381D01*
X11643095Y-12566428D01*
X11633571Y-12575952D01*
X11614524Y-12585476D01*
X11595476Y-12585476D01*
X11576428Y-12575952D01*
X11566905Y-12566428D01*
X11557381Y-12547381D01*
X11547857Y-12509286D01*
X11547857Y-12461667D01*
X11557381Y-12423571D01*
X11566905Y-12404524D01*
X11576428Y-12395000D01*
X11595476Y-12385476D01*
X11747857Y-12566428D02*
X11757381Y-12575952D01*
X11747857Y-12585476D01*
X11738333Y-12575952D01*
X11747857Y-12566428D01*
X11747857Y-12585476D01*
X11881190Y-12385476D02*
X11900238Y-12385476D01*
X11919286Y-12395000D01*
X11928809Y-12404524D01*
X11938333Y-12423571D01*
X11947857Y-12461667D01*
X11947857Y-12509286D01*
X11938333Y-12547381D01*
X11928809Y-12566428D01*
X11919286Y-12575952D01*
X11900238Y-12585476D01*
X11881190Y-12585476D01*
X11862143Y-12575952D01*
X11852619Y-12566428D01*
X11843095Y-12547381D01*
X11833571Y-12509286D01*
X11833571Y-12461667D01*
X11843095Y-12423571D01*
X11852619Y-12404524D01*
X11862143Y-12395000D01*
X11881190Y-12385476D01*
X12119286Y-12385476D02*
X12081190Y-12385476D01*
X12062143Y-12395000D01*
X12052619Y-12404524D01*
X12033571Y-12433095D01*
X12024048Y-12471190D01*
X12024048Y-12547381D01*
X12033571Y-12566428D01*
X12043095Y-12575952D01*
X12062143Y-12585476D01*
X12100238Y-12585476D01*
X12119286Y-12575952D01*
X12128809Y-12566428D01*
X12138333Y-12547381D01*
X12138333Y-12499762D01*
X12128809Y-12480714D01*
X12119286Y-12471190D01*
X12100238Y-12461667D01*
X12062143Y-12461667D01*
X12043095Y-12471190D01*
X12033571Y-12480714D01*
X12024048Y-12499762D01*
X12309762Y-12385476D02*
X12271667Y-12385476D01*
X12252619Y-12395000D01*
X12243095Y-12404524D01*
X12224048Y-12433095D01*
X12214524Y-12471190D01*
X12214524Y-12547381D01*
X12224048Y-12566428D01*
X12233571Y-12575952D01*
X12252619Y-12585476D01*
X12290714Y-12585476D01*
X12309762Y-12575952D01*
X12319286Y-12566428D01*
X12328809Y-12547381D01*
X12328809Y-12499762D01*
X12319286Y-12480714D01*
X12309762Y-12471190D01*
X12290714Y-12461667D01*
X12252619Y-12461667D01*
X12233571Y-12471190D01*
X12224048Y-12480714D01*
X12214524Y-12499762D01*
X12424048Y-12585476D02*
X12462143Y-12585476D01*
X12481190Y-12575952D01*
X12490714Y-12566428D01*
X12509762Y-12537857D01*
X12519286Y-12499762D01*
X12519286Y-12423571D01*
X12509762Y-12404524D01*
X12500238Y-12395000D01*
X12481190Y-12385476D01*
X12443095Y-12385476D01*
X12424048Y-12395000D01*
X12414524Y-12404524D01*
X12405000Y-12423571D01*
X12405000Y-12471190D01*
X12414524Y-12490238D01*
X12424048Y-12499762D01*
X12443095Y-12509286D01*
X12481190Y-12509286D01*
X12500238Y-12499762D01*
X12509762Y-12490238D01*
X12519286Y-12471190D01*
X12595476Y-12385476D02*
X12595476Y-12423571D01*
X12671667Y-12385476D02*
X12671667Y-12423571D01*
X12966905Y-12661667D02*
X12957381Y-12652143D01*
X12938333Y-12623571D01*
X12928809Y-12604524D01*
X12919286Y-12575952D01*
X12909762Y-12528333D01*
X12909762Y-12490238D01*
X12919286Y-12442619D01*
X12928809Y-12414048D01*
X12938333Y-12395000D01*
X12957381Y-12366428D01*
X12966905Y-12356905D01*
X13071667Y-12471190D02*
X13052619Y-12461667D01*
X13043095Y-12452143D01*
X13033571Y-12433095D01*
X13033571Y-12423571D01*
X13043095Y-12404524D01*
X13052619Y-12395000D01*
X13071667Y-12385476D01*
X13109762Y-12385476D01*
X13128809Y-12395000D01*
X13138333Y-12404524D01*
X13147857Y-12423571D01*
X13147857Y-12433095D01*
X13138333Y-12452143D01*
X13128809Y-12461667D01*
X13109762Y-12471190D01*
X13071667Y-12471190D01*
X13052619Y-12480714D01*
X13043095Y-12490238D01*
X13033571Y-12509286D01*
X13033571Y-12547381D01*
X13043095Y-12566428D01*
X13052619Y-12575952D01*
X13071667Y-12585476D01*
X13109762Y-12585476D01*
X13128809Y-12575952D01*
X13138333Y-12566428D01*
X13147857Y-12547381D01*
X13147857Y-12509286D01*
X13138333Y-12490238D01*
X13128809Y-12480714D01*
X13109762Y-12471190D01*
X13385952Y-12585476D02*
X13385952Y-12385476D01*
X13471667Y-12585476D02*
X13471667Y-12480714D01*
X13462143Y-12461667D01*
X13443095Y-12452143D01*
X13414524Y-12452143D01*
X13395476Y-12461667D01*
X13385952Y-12471190D01*
X13595476Y-12585476D02*
X13576428Y-12575952D01*
X13566905Y-12566428D01*
X13557381Y-12547381D01*
X13557381Y-12490238D01*
X13566905Y-12471190D01*
X13576428Y-12461667D01*
X13595476Y-12452143D01*
X13624048Y-12452143D01*
X13643095Y-12461667D01*
X13652619Y-12471190D01*
X13662143Y-12490238D01*
X13662143Y-12547381D01*
X13652619Y-12566428D01*
X13643095Y-12575952D01*
X13624048Y-12585476D01*
X13595476Y-12585476D01*
X13776428Y-12585476D02*
X13757381Y-12575952D01*
X13747857Y-12556905D01*
X13747857Y-12385476D01*
X13928809Y-12575952D02*
X13909762Y-12585476D01*
X13871667Y-12585476D01*
X13852619Y-12575952D01*
X13843095Y-12556905D01*
X13843095Y-12480714D01*
X13852619Y-12461667D01*
X13871667Y-12452143D01*
X13909762Y-12452143D01*
X13928809Y-12461667D01*
X13938333Y-12480714D01*
X13938333Y-12499762D01*
X13843095Y-12518809D01*
X14014524Y-12575952D02*
X14033571Y-12585476D01*
X14071667Y-12585476D01*
X14090714Y-12575952D01*
X14100238Y-12556905D01*
X14100238Y-12547381D01*
X14090714Y-12528333D01*
X14071667Y-12518809D01*
X14043095Y-12518809D01*
X14024048Y-12509286D01*
X14014524Y-12490238D01*
X14014524Y-12480714D01*
X14024048Y-12461667D01*
X14043095Y-12452143D01*
X14071667Y-12452143D01*
X14090714Y-12461667D01*
X14166905Y-12661667D02*
X14176428Y-12652143D01*
X14195476Y-12623571D01*
X14205000Y-12604524D01*
X14214524Y-12575952D01*
X14224048Y-12528333D01*
X14224048Y-12490238D01*
X14214524Y-12442619D01*
X14205000Y-12414048D01*
X14195476Y-12395000D01*
X14176428Y-12366428D01*
X14166905Y-12356905D01*
X14528809Y-12661667D02*
X14519286Y-12652143D01*
X14500238Y-12623571D01*
X14490714Y-12604524D01*
X14481190Y-12575952D01*
X14471667Y-12528333D01*
X14471667Y-12490238D01*
X14481190Y-12442619D01*
X14490714Y-12414048D01*
X14500238Y-12395000D01*
X14519286Y-12366428D01*
X14528809Y-12356905D01*
X14605000Y-12452143D02*
X14605000Y-12585476D01*
X14605000Y-12471190D02*
X14614524Y-12461667D01*
X14633571Y-12452143D01*
X14662143Y-12452143D01*
X14681190Y-12461667D01*
X14690714Y-12480714D01*
X14690714Y-12585476D01*
X14814524Y-12585476D02*
X14795476Y-12575952D01*
X14785952Y-12566428D01*
X14776428Y-12547381D01*
X14776428Y-12490238D01*
X14785952Y-12471190D01*
X14795476Y-12461667D01*
X14814524Y-12452143D01*
X14843095Y-12452143D01*
X14862143Y-12461667D01*
X14871667Y-12471190D01*
X14881190Y-12490238D01*
X14881190Y-12547381D01*
X14871667Y-12566428D01*
X14862143Y-12575952D01*
X14843095Y-12585476D01*
X14814524Y-12585476D01*
X14938333Y-12452143D02*
X15014524Y-12452143D01*
X14966905Y-12385476D02*
X14966905Y-12556905D01*
X14976428Y-12575952D01*
X14995476Y-12585476D01*
X15014524Y-12585476D01*
X15233571Y-12452143D02*
X15233571Y-12652143D01*
X15233571Y-12461667D02*
X15252619Y-12452143D01*
X15290714Y-12452143D01*
X15309762Y-12461667D01*
X15319286Y-12471190D01*
X15328809Y-12490238D01*
X15328809Y-12547381D01*
X15319286Y-12566428D01*
X15309762Y-12575952D01*
X15290714Y-12585476D01*
X15252619Y-12585476D01*
X15233571Y-12575952D01*
X15443095Y-12585476D02*
X15424048Y-12575952D01*
X15414524Y-12556905D01*
X15414524Y-12385476D01*
X15605000Y-12585476D02*
X15605000Y-12480714D01*
X15595476Y-12461667D01*
X15576428Y-12452143D01*
X15538333Y-12452143D01*
X15519286Y-12461667D01*
X15605000Y-12575952D02*
X15585952Y-12585476D01*
X15538333Y-12585476D01*
X15519286Y-12575952D01*
X15509762Y-12556905D01*
X15509762Y-12537857D01*
X15519286Y-12518809D01*
X15538333Y-12509286D01*
X15585952Y-12509286D01*
X15605000Y-12499762D01*
X15671667Y-12452143D02*
X15747857Y-12452143D01*
X15700238Y-12385476D02*
X15700238Y-12556905D01*
X15709762Y-12575952D01*
X15728809Y-12585476D01*
X15747857Y-12585476D01*
X15890714Y-12575952D02*
X15871667Y-12585476D01*
X15833571Y-12585476D01*
X15814524Y-12575952D01*
X15805000Y-12556905D01*
X15805000Y-12480714D01*
X15814524Y-12461667D01*
X15833571Y-12452143D01*
X15871667Y-12452143D01*
X15890714Y-12461667D01*
X15900238Y-12480714D01*
X15900238Y-12499762D01*
X15805000Y-12518809D01*
X16071667Y-12585476D02*
X16071667Y-12385476D01*
X16071667Y-12575952D02*
X16052619Y-12585476D01*
X16014524Y-12585476D01*
X15995476Y-12575952D01*
X15985952Y-12566428D01*
X15976428Y-12547381D01*
X15976428Y-12490238D01*
X15985952Y-12471190D01*
X15995476Y-12461667D01*
X16014524Y-12452143D01*
X16052619Y-12452143D01*
X16071667Y-12461667D01*
X16147857Y-12661667D02*
X16157381Y-12652143D01*
X16176428Y-12623571D01*
X16185952Y-12604524D01*
X16195476Y-12575952D01*
X16205000Y-12528333D01*
X16205000Y-12490238D01*
X16195476Y-12442619D01*
X16185952Y-12414048D01*
X16176428Y-12395000D01*
X16157381Y-12366428D01*
X16147857Y-12356905D01*
D14*
X9305000Y-12695000D02*
X9305000Y-12875000D01*
X9215000Y-12785000D02*
X9395000Y-12785000D01*
D11*
X9757381Y-12875476D02*
X9643095Y-12875476D01*
X9700238Y-12875476D02*
X9700238Y-12675476D01*
X9681190Y-12704048D01*
X9662143Y-12723095D01*
X9643095Y-12732619D01*
X9843095Y-12856428D02*
X9852619Y-12865952D01*
X9843095Y-12875476D01*
X9833571Y-12865952D01*
X9843095Y-12856428D01*
X9843095Y-12875476D01*
X9966905Y-12761190D02*
X9947857Y-12751667D01*
X9938333Y-12742143D01*
X9928810Y-12723095D01*
X9928810Y-12713571D01*
X9938333Y-12694524D01*
X9947857Y-12685000D01*
X9966905Y-12675476D01*
X10005000Y-12675476D01*
X10024048Y-12685000D01*
X10033571Y-12694524D01*
X10043095Y-12713571D01*
X10043095Y-12723095D01*
X10033571Y-12742143D01*
X10024048Y-12751667D01*
X10005000Y-12761190D01*
X9966905Y-12761190D01*
X9947857Y-12770714D01*
X9938333Y-12780238D01*
X9928810Y-12799286D01*
X9928810Y-12837381D01*
X9938333Y-12856428D01*
X9947857Y-12865952D01*
X9966905Y-12875476D01*
X10005000Y-12875476D01*
X10024048Y-12865952D01*
X10033571Y-12856428D01*
X10043095Y-12837381D01*
X10043095Y-12799286D01*
X10033571Y-12780238D01*
X10024048Y-12770714D01*
X10005000Y-12761190D01*
X10166905Y-12675476D02*
X10185952Y-12675476D01*
X10205000Y-12685000D01*
X10214524Y-12694524D01*
X10224048Y-12713571D01*
X10233571Y-12751667D01*
X10233571Y-12799286D01*
X10224048Y-12837381D01*
X10214524Y-12856428D01*
X10205000Y-12865952D01*
X10185952Y-12875476D01*
X10166905Y-12875476D01*
X10147857Y-12865952D01*
X10138333Y-12856428D01*
X10128810Y-12837381D01*
X10119286Y-12799286D01*
X10119286Y-12751667D01*
X10128810Y-12713571D01*
X10138333Y-12694524D01*
X10147857Y-12685000D01*
X10166905Y-12675476D01*
X10357381Y-12675476D02*
X10376429Y-12675476D01*
X10395476Y-12685000D01*
X10405000Y-12694524D01*
X10414524Y-12713571D01*
X10424048Y-12751667D01*
X10424048Y-12799286D01*
X10414524Y-12837381D01*
X10405000Y-12856428D01*
X10395476Y-12865952D01*
X10376429Y-12875476D01*
X10357381Y-12875476D01*
X10338333Y-12865952D01*
X10328810Y-12856428D01*
X10319286Y-12837381D01*
X10309762Y-12799286D01*
X10309762Y-12751667D01*
X10319286Y-12713571D01*
X10328810Y-12694524D01*
X10338333Y-12685000D01*
X10357381Y-12675476D01*
X10509762Y-12875476D02*
X10509762Y-12742143D01*
X10509762Y-12761190D02*
X10519286Y-12751667D01*
X10538333Y-12742143D01*
X10566905Y-12742143D01*
X10585952Y-12751667D01*
X10595476Y-12770714D01*
X10595476Y-12875476D01*
X10595476Y-12770714D02*
X10605000Y-12751667D01*
X10624048Y-12742143D01*
X10652619Y-12742143D01*
X10671667Y-12751667D01*
X10681190Y-12770714D01*
X10681190Y-12875476D01*
X10776429Y-12875476D02*
X10776429Y-12742143D01*
X10776429Y-12761190D02*
X10785952Y-12751667D01*
X10805000Y-12742143D01*
X10833571Y-12742143D01*
X10852619Y-12751667D01*
X10862143Y-12770714D01*
X10862143Y-12875476D01*
X10862143Y-12770714D02*
X10871667Y-12751667D01*
X10890714Y-12742143D01*
X10919286Y-12742143D01*
X10938333Y-12751667D01*
X10947857Y-12770714D01*
X10947857Y-12875476D01*
X11338333Y-12665952D02*
X11166905Y-12923095D01*
X11595476Y-12675476D02*
X11614524Y-12675476D01*
X11633571Y-12685000D01*
X11643095Y-12694524D01*
X11652619Y-12713571D01*
X11662143Y-12751667D01*
X11662143Y-12799286D01*
X11652619Y-12837381D01*
X11643095Y-12856428D01*
X11633571Y-12865952D01*
X11614524Y-12875476D01*
X11595476Y-12875476D01*
X11576428Y-12865952D01*
X11566905Y-12856428D01*
X11557381Y-12837381D01*
X11547857Y-12799286D01*
X11547857Y-12751667D01*
X11557381Y-12713571D01*
X11566905Y-12694524D01*
X11576428Y-12685000D01*
X11595476Y-12675476D01*
X11747857Y-12856428D02*
X11757381Y-12865952D01*
X11747857Y-12875476D01*
X11738333Y-12865952D01*
X11747857Y-12856428D01*
X11747857Y-12875476D01*
X11881190Y-12675476D02*
X11900238Y-12675476D01*
X11919286Y-12685000D01*
X11928809Y-12694524D01*
X11938333Y-12713571D01*
X11947857Y-12751667D01*
X11947857Y-12799286D01*
X11938333Y-12837381D01*
X11928809Y-12856428D01*
X11919286Y-12865952D01*
X11900238Y-12875476D01*
X11881190Y-12875476D01*
X11862143Y-12865952D01*
X11852619Y-12856428D01*
X11843095Y-12837381D01*
X11833571Y-12799286D01*
X11833571Y-12751667D01*
X11843095Y-12713571D01*
X11852619Y-12694524D01*
X11862143Y-12685000D01*
X11881190Y-12675476D01*
X12014524Y-12675476D02*
X12147857Y-12675476D01*
X12062143Y-12875476D01*
X12262143Y-12675476D02*
X12281190Y-12675476D01*
X12300238Y-12685000D01*
X12309762Y-12694524D01*
X12319286Y-12713571D01*
X12328809Y-12751667D01*
X12328809Y-12799286D01*
X12319286Y-12837381D01*
X12309762Y-12856428D01*
X12300238Y-12865952D01*
X12281190Y-12875476D01*
X12262143Y-12875476D01*
X12243095Y-12865952D01*
X12233571Y-12856428D01*
X12224048Y-12837381D01*
X12214524Y-12799286D01*
X12214524Y-12751667D01*
X12224048Y-12713571D01*
X12233571Y-12694524D01*
X12243095Y-12685000D01*
X12262143Y-12675476D01*
X12424048Y-12875476D02*
X12462143Y-12875476D01*
X12481190Y-12865952D01*
X12490714Y-12856428D01*
X12509762Y-12827857D01*
X12519286Y-12789762D01*
X12519286Y-12713571D01*
X12509762Y-12694524D01*
X12500238Y-12685000D01*
X12481190Y-12675476D01*
X12443095Y-12675476D01*
X12424048Y-12685000D01*
X12414524Y-12694524D01*
X12405000Y-12713571D01*
X12405000Y-12761190D01*
X12414524Y-12780238D01*
X12424048Y-12789762D01*
X12443095Y-12799286D01*
X12481190Y-12799286D01*
X12500238Y-12789762D01*
X12509762Y-12780238D01*
X12519286Y-12761190D01*
X12595476Y-12675476D02*
X12595476Y-12713571D01*
X12671667Y-12675476D02*
X12671667Y-12713571D01*
X12966905Y-12951667D02*
X12957381Y-12942143D01*
X12938333Y-12913571D01*
X12928809Y-12894524D01*
X12919286Y-12865952D01*
X12909762Y-12818333D01*
X12909762Y-12780238D01*
X12919286Y-12732619D01*
X12928809Y-12704048D01*
X12938333Y-12685000D01*
X12957381Y-12656428D01*
X12966905Y-12646905D01*
X13033571Y-12694524D02*
X13043095Y-12685000D01*
X13062143Y-12675476D01*
X13109762Y-12675476D01*
X13128809Y-12685000D01*
X13138333Y-12694524D01*
X13147857Y-12713571D01*
X13147857Y-12732619D01*
X13138333Y-12761190D01*
X13024048Y-12875476D01*
X13147857Y-12875476D01*
X13385952Y-12875476D02*
X13385952Y-12675476D01*
X13471667Y-12875476D02*
X13471667Y-12770714D01*
X13462143Y-12751667D01*
X13443095Y-12742143D01*
X13414524Y-12742143D01*
X13395476Y-12751667D01*
X13385952Y-12761190D01*
X13595476Y-12875476D02*
X13576428Y-12865952D01*
X13566905Y-12856428D01*
X13557381Y-12837381D01*
X13557381Y-12780238D01*
X13566905Y-12761190D01*
X13576428Y-12751667D01*
X13595476Y-12742143D01*
X13624048Y-12742143D01*
X13643095Y-12751667D01*
X13652619Y-12761190D01*
X13662143Y-12780238D01*
X13662143Y-12837381D01*
X13652619Y-12856428D01*
X13643095Y-12865952D01*
X13624048Y-12875476D01*
X13595476Y-12875476D01*
X13776428Y-12875476D02*
X13757381Y-12865952D01*
X13747857Y-12846905D01*
X13747857Y-12675476D01*
X13928809Y-12865952D02*
X13909762Y-12875476D01*
X13871667Y-12875476D01*
X13852619Y-12865952D01*
X13843095Y-12846905D01*
X13843095Y-12770714D01*
X13852619Y-12751667D01*
X13871667Y-12742143D01*
X13909762Y-12742143D01*
X13928809Y-12751667D01*
X13938333Y-12770714D01*
X13938333Y-12789762D01*
X13843095Y-12808809D01*
X14014524Y-12865952D02*
X14033571Y-12875476D01*
X14071667Y-12875476D01*
X14090714Y-12865952D01*
X14100238Y-12846905D01*
X14100238Y-12837381D01*
X14090714Y-12818333D01*
X14071667Y-12808809D01*
X14043095Y-12808809D01*
X14024048Y-12799286D01*
X14014524Y-12780238D01*
X14014524Y-12770714D01*
X14024048Y-12751667D01*
X14043095Y-12742143D01*
X14071667Y-12742143D01*
X14090714Y-12751667D01*
X14166905Y-12951667D02*
X14176428Y-12942143D01*
X14195476Y-12913571D01*
X14205000Y-12894524D01*
X14214524Y-12865952D01*
X14224048Y-12818333D01*
X14224048Y-12780238D01*
X14214524Y-12732619D01*
X14205000Y-12704048D01*
X14195476Y-12685000D01*
X14176428Y-12656428D01*
X14166905Y-12646905D01*
X14528809Y-12951667D02*
X14519286Y-12942143D01*
X14500238Y-12913571D01*
X14490714Y-12894524D01*
X14481190Y-12865952D01*
X14471667Y-12818333D01*
X14471667Y-12780238D01*
X14481190Y-12732619D01*
X14490714Y-12704048D01*
X14500238Y-12685000D01*
X14519286Y-12656428D01*
X14528809Y-12646905D01*
X14605000Y-12742143D02*
X14605000Y-12875476D01*
X14605000Y-12761190D02*
X14614524Y-12751667D01*
X14633571Y-12742143D01*
X14662143Y-12742143D01*
X14681190Y-12751667D01*
X14690714Y-12770714D01*
X14690714Y-12875476D01*
X14814524Y-12875476D02*
X14795476Y-12865952D01*
X14785952Y-12856428D01*
X14776428Y-12837381D01*
X14776428Y-12780238D01*
X14785952Y-12761190D01*
X14795476Y-12751667D01*
X14814524Y-12742143D01*
X14843095Y-12742143D01*
X14862143Y-12751667D01*
X14871667Y-12761190D01*
X14881190Y-12780238D01*
X14881190Y-12837381D01*
X14871667Y-12856428D01*
X14862143Y-12865952D01*
X14843095Y-12875476D01*
X14814524Y-12875476D01*
X14938333Y-12742143D02*
X15014524Y-12742143D01*
X14966905Y-12675476D02*
X14966905Y-12846905D01*
X14976428Y-12865952D01*
X14995476Y-12875476D01*
X15014524Y-12875476D01*
X15233571Y-12742143D02*
X15233571Y-12942143D01*
X15233571Y-12751667D02*
X15252619Y-12742143D01*
X15290714Y-12742143D01*
X15309762Y-12751667D01*
X15319286Y-12761190D01*
X15328809Y-12780238D01*
X15328809Y-12837381D01*
X15319286Y-12856428D01*
X15309762Y-12865952D01*
X15290714Y-12875476D01*
X15252619Y-12875476D01*
X15233571Y-12865952D01*
X15443095Y-12875476D02*
X15424048Y-12865952D01*
X15414524Y-12846905D01*
X15414524Y-12675476D01*
X15605000Y-12875476D02*
X15605000Y-12770714D01*
X15595476Y-12751667D01*
X15576428Y-12742143D01*
X15538333Y-12742143D01*
X15519286Y-12751667D01*
X15605000Y-12865952D02*
X15585952Y-12875476D01*
X15538333Y-12875476D01*
X15519286Y-12865952D01*
X15509762Y-12846905D01*
X15509762Y-12827857D01*
X15519286Y-12808809D01*
X15538333Y-12799286D01*
X15585952Y-12799286D01*
X15605000Y-12789762D01*
X15671667Y-12742143D02*
X15747857Y-12742143D01*
X15700238Y-12675476D02*
X15700238Y-12846905D01*
X15709762Y-12865952D01*
X15728809Y-12875476D01*
X15747857Y-12875476D01*
X15890714Y-12865952D02*
X15871667Y-12875476D01*
X15833571Y-12875476D01*
X15814524Y-12865952D01*
X15805000Y-12846905D01*
X15805000Y-12770714D01*
X15814524Y-12751667D01*
X15833571Y-12742143D01*
X15871667Y-12742143D01*
X15890714Y-12751667D01*
X15900238Y-12770714D01*
X15900238Y-12789762D01*
X15805000Y-12808809D01*
X16071667Y-12875476D02*
X16071667Y-12675476D01*
X16071667Y-12865952D02*
X16052619Y-12875476D01*
X16014524Y-12875476D01*
X15995476Y-12865952D01*
X15985952Y-12856428D01*
X15976428Y-12837381D01*
X15976428Y-12780238D01*
X15985952Y-12761190D01*
X15995476Y-12751667D01*
X16014524Y-12742143D01*
X16052619Y-12742143D01*
X16071667Y-12751667D01*
X16147857Y-12951667D02*
X16157381Y-12942143D01*
X16176428Y-12913571D01*
X16185952Y-12894524D01*
X16195476Y-12865952D01*
X16205000Y-12818333D01*
X16205000Y-12780238D01*
X16195476Y-12732619D01*
X16185952Y-12704048D01*
X16176428Y-12685000D01*
X16157381Y-12656428D01*
X16147857Y-12646905D01*
X9365711Y-13155711D02*
X9365711Y-13014289D01*
X9224289Y-13014289D01*
X9224289Y-13155711D01*
X9365711Y-13155711D01*
X9633571Y-12975476D02*
X9757381Y-12975476D01*
X9690714Y-13051667D01*
X9719286Y-13051667D01*
X9738333Y-13061190D01*
X9747857Y-13070714D01*
X9757381Y-13089762D01*
X9757381Y-13137381D01*
X9747857Y-13156428D01*
X9738333Y-13165952D01*
X9719286Y-13175476D01*
X9662143Y-13175476D01*
X9643095Y-13165952D01*
X9633571Y-13156428D01*
X9843095Y-13156428D02*
X9852619Y-13165952D01*
X9843095Y-13175476D01*
X9833571Y-13165952D01*
X9843095Y-13156428D01*
X9843095Y-13175476D01*
X10024048Y-13042143D02*
X10024048Y-13175476D01*
X9976429Y-12965952D02*
X9928810Y-13108809D01*
X10052619Y-13108809D01*
X10224048Y-12975476D02*
X10128810Y-12975476D01*
X10119286Y-13070714D01*
X10128810Y-13061190D01*
X10147857Y-13051667D01*
X10195476Y-13051667D01*
X10214524Y-13061190D01*
X10224048Y-13070714D01*
X10233571Y-13089762D01*
X10233571Y-13137381D01*
X10224048Y-13156428D01*
X10214524Y-13165952D01*
X10195476Y-13175476D01*
X10147857Y-13175476D01*
X10128810Y-13165952D01*
X10119286Y-13156428D01*
X10357381Y-12975476D02*
X10376429Y-12975476D01*
X10395476Y-12985000D01*
X10405000Y-12994524D01*
X10414524Y-13013571D01*
X10424048Y-13051667D01*
X10424048Y-13099286D01*
X10414524Y-13137381D01*
X10405000Y-13156428D01*
X10395476Y-13165952D01*
X10376429Y-13175476D01*
X10357381Y-13175476D01*
X10338333Y-13165952D01*
X10328810Y-13156428D01*
X10319286Y-13137381D01*
X10309762Y-13099286D01*
X10309762Y-13051667D01*
X10319286Y-13013571D01*
X10328810Y-12994524D01*
X10338333Y-12985000D01*
X10357381Y-12975476D01*
X10509762Y-13175476D02*
X10509762Y-13042143D01*
X10509762Y-13061190D02*
X10519286Y-13051667D01*
X10538333Y-13042143D01*
X10566905Y-13042143D01*
X10585952Y-13051667D01*
X10595476Y-13070714D01*
X10595476Y-13175476D01*
X10595476Y-13070714D02*
X10605000Y-13051667D01*
X10624048Y-13042143D01*
X10652619Y-13042143D01*
X10671667Y-13051667D01*
X10681190Y-13070714D01*
X10681190Y-13175476D01*
X10776429Y-13175476D02*
X10776429Y-13042143D01*
X10776429Y-13061190D02*
X10785952Y-13051667D01*
X10805000Y-13042143D01*
X10833571Y-13042143D01*
X10852619Y-13051667D01*
X10862143Y-13070714D01*
X10862143Y-13175476D01*
X10862143Y-13070714D02*
X10871667Y-13051667D01*
X10890714Y-13042143D01*
X10919286Y-13042143D01*
X10938333Y-13051667D01*
X10947857Y-13070714D01*
X10947857Y-13175476D01*
X11338333Y-12965952D02*
X11166905Y-13223095D01*
X11595476Y-12975476D02*
X11614524Y-12975476D01*
X11633571Y-12985000D01*
X11643095Y-12994524D01*
X11652619Y-13013571D01*
X11662143Y-13051667D01*
X11662143Y-13099286D01*
X11652619Y-13137381D01*
X11643095Y-13156428D01*
X11633571Y-13165952D01*
X11614524Y-13175476D01*
X11595476Y-13175476D01*
X11576428Y-13165952D01*
X11566905Y-13156428D01*
X11557381Y-13137381D01*
X11547857Y-13099286D01*
X11547857Y-13051667D01*
X11557381Y-13013571D01*
X11566905Y-12994524D01*
X11576428Y-12985000D01*
X11595476Y-12975476D01*
X11747857Y-13156428D02*
X11757381Y-13165952D01*
X11747857Y-13175476D01*
X11738333Y-13165952D01*
X11747857Y-13156428D01*
X11747857Y-13175476D01*
X11947857Y-13175476D02*
X11833571Y-13175476D01*
X11890714Y-13175476D02*
X11890714Y-12975476D01*
X11871667Y-13004048D01*
X11852619Y-13023095D01*
X11833571Y-13032619D01*
X12014524Y-12975476D02*
X12138333Y-12975476D01*
X12071667Y-13051667D01*
X12100238Y-13051667D01*
X12119286Y-13061190D01*
X12128809Y-13070714D01*
X12138333Y-13089762D01*
X12138333Y-13137381D01*
X12128809Y-13156428D01*
X12119286Y-13165952D01*
X12100238Y-13175476D01*
X12043095Y-13175476D01*
X12024048Y-13165952D01*
X12014524Y-13156428D01*
X12319286Y-12975476D02*
X12224048Y-12975476D01*
X12214524Y-13070714D01*
X12224048Y-13061190D01*
X12243095Y-13051667D01*
X12290714Y-13051667D01*
X12309762Y-13061190D01*
X12319286Y-13070714D01*
X12328809Y-13089762D01*
X12328809Y-13137381D01*
X12319286Y-13156428D01*
X12309762Y-13165952D01*
X12290714Y-13175476D01*
X12243095Y-13175476D01*
X12224048Y-13165952D01*
X12214524Y-13156428D01*
X12443095Y-13061190D02*
X12424048Y-13051667D01*
X12414524Y-13042143D01*
X12405000Y-13023095D01*
X12405000Y-13013571D01*
X12414524Y-12994524D01*
X12424048Y-12985000D01*
X12443095Y-12975476D01*
X12481190Y-12975476D01*
X12500238Y-12985000D01*
X12509762Y-12994524D01*
X12519286Y-13013571D01*
X12519286Y-13023095D01*
X12509762Y-13042143D01*
X12500238Y-13051667D01*
X12481190Y-13061190D01*
X12443095Y-13061190D01*
X12424048Y-13070714D01*
X12414524Y-13080238D01*
X12405000Y-13099286D01*
X12405000Y-13137381D01*
X12414524Y-13156428D01*
X12424048Y-13165952D01*
X12443095Y-13175476D01*
X12481190Y-13175476D01*
X12500238Y-13165952D01*
X12509762Y-13156428D01*
X12519286Y-13137381D01*
X12519286Y-13099286D01*
X12509762Y-13080238D01*
X12500238Y-13070714D01*
X12481190Y-13061190D01*
X12595476Y-12975476D02*
X12595476Y-13013571D01*
X12671667Y-12975476D02*
X12671667Y-13013571D01*
X12966905Y-13251667D02*
X12957381Y-13242143D01*
X12938333Y-13213571D01*
X12928809Y-13194524D01*
X12919286Y-13165952D01*
X12909762Y-13118333D01*
X12909762Y-13080238D01*
X12919286Y-13032619D01*
X12928809Y-13004048D01*
X12938333Y-12985000D01*
X12957381Y-12956428D01*
X12966905Y-12946905D01*
X13033571Y-12994524D02*
X13043095Y-12985000D01*
X13062143Y-12975476D01*
X13109762Y-12975476D01*
X13128809Y-12985000D01*
X13138333Y-12994524D01*
X13147857Y-13013571D01*
X13147857Y-13032619D01*
X13138333Y-13061190D01*
X13024048Y-13175476D01*
X13147857Y-13175476D01*
X13385952Y-13175476D02*
X13385952Y-12975476D01*
X13471667Y-13175476D02*
X13471667Y-13070714D01*
X13462143Y-13051667D01*
X13443095Y-13042143D01*
X13414524Y-13042143D01*
X13395476Y-13051667D01*
X13385952Y-13061190D01*
X13595476Y-13175476D02*
X13576428Y-13165952D01*
X13566905Y-13156428D01*
X13557381Y-13137381D01*
X13557381Y-13080238D01*
X13566905Y-13061190D01*
X13576428Y-13051667D01*
X13595476Y-13042143D01*
X13624048Y-13042143D01*
X13643095Y-13051667D01*
X13652619Y-13061190D01*
X13662143Y-13080238D01*
X13662143Y-13137381D01*
X13652619Y-13156428D01*
X13643095Y-13165952D01*
X13624048Y-13175476D01*
X13595476Y-13175476D01*
X13776428Y-13175476D02*
X13757381Y-13165952D01*
X13747857Y-13146905D01*
X13747857Y-12975476D01*
X13928809Y-13165952D02*
X13909762Y-13175476D01*
X13871667Y-13175476D01*
X13852619Y-13165952D01*
X13843095Y-13146905D01*
X13843095Y-13070714D01*
X13852619Y-13051667D01*
X13871667Y-13042143D01*
X13909762Y-13042143D01*
X13928809Y-13051667D01*
X13938333Y-13070714D01*
X13938333Y-13089762D01*
X13843095Y-13108809D01*
X14014524Y-13165952D02*
X14033571Y-13175476D01*
X14071667Y-13175476D01*
X14090714Y-13165952D01*
X14100238Y-13146905D01*
X14100238Y-13137381D01*
X14090714Y-13118333D01*
X14071667Y-13108809D01*
X14043095Y-13108809D01*
X14024048Y-13099286D01*
X14014524Y-13080238D01*
X14014524Y-13070714D01*
X14024048Y-13051667D01*
X14043095Y-13042143D01*
X14071667Y-13042143D01*
X14090714Y-13051667D01*
X14166905Y-13251667D02*
X14176428Y-13242143D01*
X14195476Y-13213571D01*
X14205000Y-13194524D01*
X14214524Y-13165952D01*
X14224048Y-13118333D01*
X14224048Y-13080238D01*
X14214524Y-13032619D01*
X14205000Y-13004048D01*
X14195476Y-12985000D01*
X14176428Y-12956428D01*
X14166905Y-12946905D01*
X14528809Y-13251667D02*
X14519286Y-13242143D01*
X14500238Y-13213571D01*
X14490714Y-13194524D01*
X14481190Y-13165952D01*
X14471667Y-13118333D01*
X14471667Y-13080238D01*
X14481190Y-13032619D01*
X14490714Y-13004048D01*
X14500238Y-12985000D01*
X14519286Y-12956428D01*
X14528809Y-12946905D01*
X14605000Y-13042143D02*
X14605000Y-13175476D01*
X14605000Y-13061190D02*
X14614524Y-13051667D01*
X14633571Y-13042143D01*
X14662143Y-13042143D01*
X14681190Y-13051667D01*
X14690714Y-13070714D01*
X14690714Y-13175476D01*
X14814524Y-13175476D02*
X14795476Y-13165952D01*
X14785952Y-13156428D01*
X14776428Y-13137381D01*
X14776428Y-13080238D01*
X14785952Y-13061190D01*
X14795476Y-13051667D01*
X14814524Y-13042143D01*
X14843095Y-13042143D01*
X14862143Y-13051667D01*
X14871667Y-13061190D01*
X14881190Y-13080238D01*
X14881190Y-13137381D01*
X14871667Y-13156428D01*
X14862143Y-13165952D01*
X14843095Y-13175476D01*
X14814524Y-13175476D01*
X14938333Y-13042143D02*
X15014524Y-13042143D01*
X14966905Y-12975476D02*
X14966905Y-13146905D01*
X14976428Y-13165952D01*
X14995476Y-13175476D01*
X15014524Y-13175476D01*
X15233571Y-13042143D02*
X15233571Y-13242143D01*
X15233571Y-13051667D02*
X15252619Y-13042143D01*
X15290714Y-13042143D01*
X15309762Y-13051667D01*
X15319286Y-13061190D01*
X15328809Y-13080238D01*
X15328809Y-13137381D01*
X15319286Y-13156428D01*
X15309762Y-13165952D01*
X15290714Y-13175476D01*
X15252619Y-13175476D01*
X15233571Y-13165952D01*
X15443095Y-13175476D02*
X15424048Y-13165952D01*
X15414524Y-13146905D01*
X15414524Y-12975476D01*
X15605000Y-13175476D02*
X15605000Y-13070714D01*
X15595476Y-13051667D01*
X15576428Y-13042143D01*
X15538333Y-13042143D01*
X15519286Y-13051667D01*
X15605000Y-13165952D02*
X15585952Y-13175476D01*
X15538333Y-13175476D01*
X15519286Y-13165952D01*
X15509762Y-13146905D01*
X15509762Y-13127857D01*
X15519286Y-13108809D01*
X15538333Y-13099286D01*
X15585952Y-13099286D01*
X15605000Y-13089762D01*
X15671667Y-13042143D02*
X15747857Y-13042143D01*
X15700238Y-12975476D02*
X15700238Y-13146905D01*
X15709762Y-13165952D01*
X15728809Y-13175476D01*
X15747857Y-13175476D01*
X15890714Y-13165952D02*
X15871667Y-13175476D01*
X15833571Y-13175476D01*
X15814524Y-13165952D01*
X15805000Y-13146905D01*
X15805000Y-13070714D01*
X15814524Y-13051667D01*
X15833571Y-13042143D01*
X15871667Y-13042143D01*
X15890714Y-13051667D01*
X15900238Y-13070714D01*
X15900238Y-13089762D01*
X15805000Y-13108809D01*
X16071667Y-13175476D02*
X16071667Y-12975476D01*
X16071667Y-13165952D02*
X16052619Y-13175476D01*
X16014524Y-13175476D01*
X15995476Y-13165952D01*
X15985952Y-13156428D01*
X15976428Y-13137381D01*
X15976428Y-13080238D01*
X15985952Y-13061190D01*
X15995476Y-13051667D01*
X16014524Y-13042143D01*
X16052619Y-13042143D01*
X16071667Y-13051667D01*
X16147857Y-13251667D02*
X16157381Y-13242143D01*
X16176428Y-13213571D01*
X16185952Y-13194524D01*
X16195476Y-13165952D01*
X16205000Y-13118333D01*
X16205000Y-13080238D01*
X16195476Y-13032619D01*
X16185952Y-13004048D01*
X16176428Y-12985000D01*
X16157381Y-12956428D01*
X16147857Y-12946905D01*
X9295000Y-13505000D02*
X9395000Y-13405000D01*
X9295000Y-13305000D01*
X9195000Y-13405000D01*
X9295000Y-13505000D01*
X9738333Y-13362143D02*
X9738333Y-13495476D01*
X9690714Y-13285952D02*
X9643095Y-13428809D01*
X9766905Y-13428809D01*
X9843095Y-13476428D02*
X9852619Y-13485952D01*
X9843095Y-13495476D01*
X9833571Y-13485952D01*
X9843095Y-13476428D01*
X9843095Y-13495476D01*
X9976429Y-13295476D02*
X9995476Y-13295476D01*
X10014524Y-13305000D01*
X10024048Y-13314524D01*
X10033571Y-13333571D01*
X10043095Y-13371667D01*
X10043095Y-13419286D01*
X10033571Y-13457381D01*
X10024048Y-13476428D01*
X10014524Y-13485952D01*
X9995476Y-13495476D01*
X9976429Y-13495476D01*
X9957381Y-13485952D01*
X9947857Y-13476428D01*
X9938333Y-13457381D01*
X9928810Y-13419286D01*
X9928810Y-13371667D01*
X9938333Y-13333571D01*
X9947857Y-13314524D01*
X9957381Y-13305000D01*
X9976429Y-13295476D01*
X10166905Y-13295476D02*
X10185952Y-13295476D01*
X10205000Y-13305000D01*
X10214524Y-13314524D01*
X10224048Y-13333571D01*
X10233571Y-13371667D01*
X10233571Y-13419286D01*
X10224048Y-13457381D01*
X10214524Y-13476428D01*
X10205000Y-13485952D01*
X10185952Y-13495476D01*
X10166905Y-13495476D01*
X10147857Y-13485952D01*
X10138333Y-13476428D01*
X10128810Y-13457381D01*
X10119286Y-13419286D01*
X10119286Y-13371667D01*
X10128810Y-13333571D01*
X10138333Y-13314524D01*
X10147857Y-13305000D01*
X10166905Y-13295476D01*
X10357381Y-13295476D02*
X10376429Y-13295476D01*
X10395476Y-13305000D01*
X10405000Y-13314524D01*
X10414524Y-13333571D01*
X10424048Y-13371667D01*
X10424048Y-13419286D01*
X10414524Y-13457381D01*
X10405000Y-13476428D01*
X10395476Y-13485952D01*
X10376429Y-13495476D01*
X10357381Y-13495476D01*
X10338333Y-13485952D01*
X10328810Y-13476428D01*
X10319286Y-13457381D01*
X10309762Y-13419286D01*
X10309762Y-13371667D01*
X10319286Y-13333571D01*
X10328810Y-13314524D01*
X10338333Y-13305000D01*
X10357381Y-13295476D01*
X10509762Y-13495476D02*
X10509762Y-13362143D01*
X10509762Y-13381190D02*
X10519286Y-13371667D01*
X10538333Y-13362143D01*
X10566905Y-13362143D01*
X10585952Y-13371667D01*
X10595476Y-13390714D01*
X10595476Y-13495476D01*
X10595476Y-13390714D02*
X10605000Y-13371667D01*
X10624048Y-13362143D01*
X10652619Y-13362143D01*
X10671667Y-13371667D01*
X10681190Y-13390714D01*
X10681190Y-13495476D01*
X10776429Y-13495476D02*
X10776429Y-13362143D01*
X10776429Y-13381190D02*
X10785952Y-13371667D01*
X10805000Y-13362143D01*
X10833571Y-13362143D01*
X10852619Y-13371667D01*
X10862143Y-13390714D01*
X10862143Y-13495476D01*
X10862143Y-13390714D02*
X10871667Y-13371667D01*
X10890714Y-13362143D01*
X10919286Y-13362143D01*
X10938333Y-13371667D01*
X10947857Y-13390714D01*
X10947857Y-13495476D01*
X11338333Y-13285952D02*
X11166905Y-13543095D01*
X11595476Y-13295476D02*
X11614524Y-13295476D01*
X11633571Y-13305000D01*
X11643095Y-13314524D01*
X11652619Y-13333571D01*
X11662143Y-13371667D01*
X11662143Y-13419286D01*
X11652619Y-13457381D01*
X11643095Y-13476428D01*
X11633571Y-13485952D01*
X11614524Y-13495476D01*
X11595476Y-13495476D01*
X11576428Y-13485952D01*
X11566905Y-13476428D01*
X11557381Y-13457381D01*
X11547857Y-13419286D01*
X11547857Y-13371667D01*
X11557381Y-13333571D01*
X11566905Y-13314524D01*
X11576428Y-13305000D01*
X11595476Y-13295476D01*
X11747857Y-13476428D02*
X11757381Y-13485952D01*
X11747857Y-13495476D01*
X11738333Y-13485952D01*
X11747857Y-13476428D01*
X11747857Y-13495476D01*
X11947857Y-13495476D02*
X11833571Y-13495476D01*
X11890714Y-13495476D02*
X11890714Y-13295476D01*
X11871667Y-13324048D01*
X11852619Y-13343095D01*
X11833571Y-13352619D01*
X12128809Y-13295476D02*
X12033571Y-13295476D01*
X12024048Y-13390714D01*
X12033571Y-13381190D01*
X12052619Y-13371667D01*
X12100238Y-13371667D01*
X12119286Y-13381190D01*
X12128809Y-13390714D01*
X12138333Y-13409762D01*
X12138333Y-13457381D01*
X12128809Y-13476428D01*
X12119286Y-13485952D01*
X12100238Y-13495476D01*
X12052619Y-13495476D01*
X12033571Y-13485952D01*
X12024048Y-13476428D01*
X12205000Y-13295476D02*
X12338333Y-13295476D01*
X12252619Y-13495476D01*
X12509762Y-13295476D02*
X12414524Y-13295476D01*
X12405000Y-13390714D01*
X12414524Y-13381190D01*
X12433571Y-13371667D01*
X12481190Y-13371667D01*
X12500238Y-13381190D01*
X12509762Y-13390714D01*
X12519286Y-13409762D01*
X12519286Y-13457381D01*
X12509762Y-13476428D01*
X12500238Y-13485952D01*
X12481190Y-13495476D01*
X12433571Y-13495476D01*
X12414524Y-13485952D01*
X12405000Y-13476428D01*
X12595476Y-13295476D02*
X12595476Y-13333571D01*
X12671667Y-13295476D02*
X12671667Y-13333571D01*
X12966905Y-13571667D02*
X12957381Y-13562143D01*
X12938333Y-13533571D01*
X12928809Y-13514524D01*
X12919286Y-13485952D01*
X12909762Y-13438333D01*
X12909762Y-13400238D01*
X12919286Y-13352619D01*
X12928809Y-13324048D01*
X12938333Y-13305000D01*
X12957381Y-13276428D01*
X12966905Y-13266905D01*
X13128809Y-13362143D02*
X13128809Y-13495476D01*
X13081190Y-13285952D02*
X13033571Y-13428809D01*
X13157381Y-13428809D01*
X13385952Y-13495476D02*
X13385952Y-13295476D01*
X13471667Y-13495476D02*
X13471667Y-13390714D01*
X13462143Y-13371667D01*
X13443095Y-13362143D01*
X13414524Y-13362143D01*
X13395476Y-13371667D01*
X13385952Y-13381190D01*
X13595476Y-13495476D02*
X13576428Y-13485952D01*
X13566905Y-13476428D01*
X13557381Y-13457381D01*
X13557381Y-13400238D01*
X13566905Y-13381190D01*
X13576428Y-13371667D01*
X13595476Y-13362143D01*
X13624048Y-13362143D01*
X13643095Y-13371667D01*
X13652619Y-13381190D01*
X13662143Y-13400238D01*
X13662143Y-13457381D01*
X13652619Y-13476428D01*
X13643095Y-13485952D01*
X13624048Y-13495476D01*
X13595476Y-13495476D01*
X13776428Y-13495476D02*
X13757381Y-13485952D01*
X13747857Y-13466905D01*
X13747857Y-13295476D01*
X13928809Y-13485952D02*
X13909762Y-13495476D01*
X13871667Y-13495476D01*
X13852619Y-13485952D01*
X13843095Y-13466905D01*
X13843095Y-13390714D01*
X13852619Y-13371667D01*
X13871667Y-13362143D01*
X13909762Y-13362143D01*
X13928809Y-13371667D01*
X13938333Y-13390714D01*
X13938333Y-13409762D01*
X13843095Y-13428809D01*
X14014524Y-13485952D02*
X14033571Y-13495476D01*
X14071667Y-13495476D01*
X14090714Y-13485952D01*
X14100238Y-13466905D01*
X14100238Y-13457381D01*
X14090714Y-13438333D01*
X14071667Y-13428809D01*
X14043095Y-13428809D01*
X14024048Y-13419286D01*
X14014524Y-13400238D01*
X14014524Y-13390714D01*
X14024048Y-13371667D01*
X14043095Y-13362143D01*
X14071667Y-13362143D01*
X14090714Y-13371667D01*
X14166905Y-13571667D02*
X14176428Y-13562143D01*
X14195476Y-13533571D01*
X14205000Y-13514524D01*
X14214524Y-13485952D01*
X14224048Y-13438333D01*
X14224048Y-13400238D01*
X14214524Y-13352619D01*
X14205000Y-13324048D01*
X14195476Y-13305000D01*
X14176428Y-13276428D01*
X14166905Y-13266905D01*
X14528809Y-13571667D02*
X14519286Y-13562143D01*
X14500238Y-13533571D01*
X14490714Y-13514524D01*
X14481190Y-13485952D01*
X14471667Y-13438333D01*
X14471667Y-13400238D01*
X14481190Y-13352619D01*
X14490714Y-13324048D01*
X14500238Y-13305000D01*
X14519286Y-13276428D01*
X14528809Y-13266905D01*
X14605000Y-13362143D02*
X14605000Y-13495476D01*
X14605000Y-13381190D02*
X14614524Y-13371667D01*
X14633571Y-13362143D01*
X14662143Y-13362143D01*
X14681190Y-13371667D01*
X14690714Y-13390714D01*
X14690714Y-13495476D01*
X14814524Y-13495476D02*
X14795476Y-13485952D01*
X14785952Y-13476428D01*
X14776428Y-13457381D01*
X14776428Y-13400238D01*
X14785952Y-13381190D01*
X14795476Y-13371667D01*
X14814524Y-13362143D01*
X14843095Y-13362143D01*
X14862143Y-13371667D01*
X14871667Y-13381190D01*
X14881190Y-13400238D01*
X14881190Y-13457381D01*
X14871667Y-13476428D01*
X14862143Y-13485952D01*
X14843095Y-13495476D01*
X14814524Y-13495476D01*
X14938333Y-13362143D02*
X15014524Y-13362143D01*
X14966905Y-13295476D02*
X14966905Y-13466905D01*
X14976428Y-13485952D01*
X14995476Y-13495476D01*
X15014524Y-13495476D01*
X15233571Y-13362143D02*
X15233571Y-13562143D01*
X15233571Y-13371667D02*
X15252619Y-13362143D01*
X15290714Y-13362143D01*
X15309762Y-13371667D01*
X15319286Y-13381190D01*
X15328809Y-13400238D01*
X15328809Y-13457381D01*
X15319286Y-13476428D01*
X15309762Y-13485952D01*
X15290714Y-13495476D01*
X15252619Y-13495476D01*
X15233571Y-13485952D01*
X15443095Y-13495476D02*
X15424048Y-13485952D01*
X15414524Y-13466905D01*
X15414524Y-13295476D01*
X15605000Y-13495476D02*
X15605000Y-13390714D01*
X15595476Y-13371667D01*
X15576428Y-13362143D01*
X15538333Y-13362143D01*
X15519286Y-13371667D01*
X15605000Y-13485952D02*
X15585952Y-13495476D01*
X15538333Y-13495476D01*
X15519286Y-13485952D01*
X15509762Y-13466905D01*
X15509762Y-13447857D01*
X15519286Y-13428809D01*
X15538333Y-13419286D01*
X15585952Y-13419286D01*
X15605000Y-13409762D01*
X15671667Y-13362143D02*
X15747857Y-13362143D01*
X15700238Y-13295476D02*
X15700238Y-13466905D01*
X15709762Y-13485952D01*
X15728809Y-13495476D01*
X15747857Y-13495476D01*
X15890714Y-13485952D02*
X15871667Y-13495476D01*
X15833571Y-13495476D01*
X15814524Y-13485952D01*
X15805000Y-13466905D01*
X15805000Y-13390714D01*
X15814524Y-13371667D01*
X15833571Y-13362143D01*
X15871667Y-13362143D01*
X15890714Y-13371667D01*
X15900238Y-13390714D01*
X15900238Y-13409762D01*
X15805000Y-13428809D01*
X16071667Y-13495476D02*
X16071667Y-13295476D01*
X16071667Y-13485952D02*
X16052619Y-13495476D01*
X16014524Y-13495476D01*
X15995476Y-13485952D01*
X15985952Y-13476428D01*
X15976428Y-13457381D01*
X15976428Y-13400238D01*
X15985952Y-13381190D01*
X15995476Y-13371667D01*
X16014524Y-13362143D01*
X16052619Y-13362143D01*
X16071667Y-13371667D01*
X16147857Y-13571667D02*
X16157381Y-13562143D01*
X16176428Y-13533571D01*
X16185952Y-13514524D01*
X16195476Y-13485952D01*
X16205000Y-13438333D01*
X16205000Y-13400238D01*
X16195476Y-13352619D01*
X16185952Y-13324048D01*
X16176428Y-13305000D01*
X16157381Y-13276428D01*
X16147857Y-13266905D01*
M02*
