M48
; DRILL file {KiCad 6.0.11-2627ca5db0~126~ubuntu22.04.1} date Mon 11 Mar 2024 03:16:00 PM
; FORMAT={-:-/ absolute / inch / decimal}
; #@! TF.CreationDate,2024-03-11T15:16:00-04:00
; #@! TF.GenerationSoftware,Kicad,Pcbnew,6.0.11-2627ca5db0~126~ubuntu22.04.1
; #@! TF.FileFunction,Plated,1,2,PTH
FMAT,2
INCH
; #@! TA.AperFunction,Plated,PTH,ViaDrill
T1C0.0157
; #@! TA.AperFunction,Plated,PTH,ComponentDrill
T2C0.0394
; #@! TA.AperFunction,Plated,PTH,ComponentDrill
T3C0.0402
; #@! TA.AperFunction,Plated,PTH,ComponentDrill
T4C0.0433
; #@! TA.AperFunction,Plated,PTH,ComponentDrill
T5C0.0591
; #@! TA.AperFunction,Plated,PTH,ComponentDrill
T6C0.0598
; #@! TA.AperFunction,Plated,PTH,ComponentDrill
T7C0.0827
; #@! TA.AperFunction,Plated,PTH,ComponentDrill
T8C0.1260
%
G90
G05
T1
X4.0886Y-1.6358
X4.1398Y-3.813
X4.185Y-1.5827
X4.2028Y-3.6024
X4.2323Y-3.813
X4.2441Y-1.7657
X4.2441Y-1.9016
X4.2969Y-2.487
X4.3248Y-3.813
X4.3268Y-3.2933
X4.3366Y-2.2323
X4.3465Y-1.6339
X4.3465Y-1.7165
X4.3709Y-2.822
X4.3799Y-1.9508
X4.3898Y-1.6339
X4.3898Y-1.7165
X4.3957Y-2.7362
X4.4165Y-2.9634
X4.4272Y-3.6752
X4.4272Y-3.7638
X4.4331Y-1.6339
X4.4331Y-1.7165
X4.439Y-2.2323
X4.4459Y-2.4902
X4.4539Y-3.1677
X4.4685Y-3.6024
X4.4756Y-2.4209
X4.4803Y-3.498
X4.4807Y-2.9195
X4.5154Y-2.5659
X4.5176Y-2.4536
X4.5193Y-2.6614
X4.5236Y-2.2323
X4.5335Y-2.2972
X4.5551Y-1.628
X4.5858Y-3.8598
X4.5984Y-2.75
X4.5984Y-2.7815
X4.6063Y-1.9528
X4.6148Y-2.982
X4.6152Y-3.0273
X4.6486Y-3.2451
X4.6585Y-3.6821
X4.6594Y-2.2303
X4.6594Y-3.7598
X4.6768Y-3.6
X4.687Y-2.5709
X4.6949Y-1.9016
X4.7047Y-1.7657
X4.7146Y-3.1181
X4.7146Y-3.2717
X4.748Y-1.5945
X4.75Y-3.1181
X4.75Y-3.2717
X4.7756Y-2.75
X4.7756Y-2.7835
X4.7795Y-3.8622
X4.7835Y-3.1181
X4.7894Y-3.2717
X5.8327Y-2.2008
X5.9035Y-1.9587
X5.9291Y-1.9311
X5.9705Y-2.2008
X6.0138Y-2.0492
X6.0394Y-2.0217
X6.0492Y-3.2291
X6.0846Y-2.7028
X6.0921Y-3.174
X6.1437Y-2.2283
X6.1634Y-2.7028
X6.1709Y-2.4
X6.2421Y-2.6378
X6.248Y-1.9301
X6.2776Y-2.6378
X6.2795Y-2.5699
X6.3091Y-2.0866
X6.3538Y-2.593
X6.404Y-2.5625
X6.4193Y-2.0236
X6.4201Y-3.1732
X6.4634Y-3.2323
X6.4851Y-2.4401
X6.4921Y-1.9528
X6.5217Y-2.6555
X6.5433Y-2.376
X6.8705Y-1.9803
X6.8748Y-2.163
X6.9098Y-1.9803
X6.9142Y-2.1622
T2
X4.1634Y-4.0591
X4.1634Y-4.1575
X4.1634Y-4.2559
X4.7343Y-4.0591
X4.7343Y-4.2559
X5.9508Y-3.589
X6.0508Y-3.589
X6.1508Y-3.589
X6.2508Y-3.589
X6.3508Y-3.589
X6.4508Y-3.589
T3
X4.9846Y-1.5994
X4.9846Y-1.6994
X4.9846Y-1.7994
X4.9846Y-1.8994
X4.9846Y-1.9994
X4.9846Y-2.0994
X4.9846Y-2.1994
X4.9846Y-2.2994
X4.9846Y-2.3994
X4.9846Y-2.4994
X4.9846Y-2.5994
X4.9846Y-2.6994
X4.9846Y-2.7994
X4.9846Y-2.8994
X4.9846Y-2.9994
X4.9846Y-3.0994
X4.9846Y-3.1994
X4.9846Y-3.2994
X4.9846Y-3.3994
X4.9846Y-3.4994
X5.2346Y-3.4904
X5.3346Y-3.4904
X5.4346Y-3.4904
X5.6846Y-1.5994
X5.6846Y-1.6994
X5.6846Y-1.7994
X5.6846Y-1.8994
X5.6846Y-1.9994
X5.6846Y-2.0994
X5.6846Y-2.1994
X5.6846Y-2.2994
X5.6846Y-2.3994
X5.6846Y-2.4994
X5.6846Y-2.5994
X5.6846Y-2.6994
X5.6846Y-2.7994
X5.6846Y-2.8994
X5.6846Y-2.9994
X5.6846Y-3.0994
X5.6846Y-3.1994
X5.6846Y-3.2994
X5.6846Y-3.3994
X5.6846Y-3.4994
T4
X7.3799Y-1.7335
X7.8799Y-1.7335
T5
X5.0638Y-4.0472
X5.3138Y-3.9472
X5.8335Y-4.0472
X6.0835Y-3.9472
X6.6031Y-4.0472
X6.8531Y-3.9472
X7.3728Y-4.0472
X7.6228Y-3.9472
T6
X6.3311Y-1.6736
X6.5311Y-1.6736
T8
X3.8583Y-1.6535
X3.8583Y-4.4016
X8.3465Y-1.6535
X8.3465Y-4.3996
T7
G00X4.4606Y-3.8976
M15
G01X4.4567Y-3.8976
M16
G05
G00X4.4606Y-4.4173
M15
G01X4.4567Y-4.4173
M16
G05
T0
M30
